G04 ================== begin FILE IDENTIFICATION RECORD ==================*
G04 Layout Name:  PCB_ESP32-P4_HMI_SubBoard_V12_20240527.brd*
G04 Film Name:    BOTTOM*
G04 File Format:  Gerber RS274X*
G04 File Origin:  Cadence Allegro 16.6-2015-S108*
G04 Origin Date:  Tue May 28 14:27:30 2024*
G04 *
G04 Layer:  BOARD GEOMETRY/OUTLINE*
G04 Layer:  ETCH/BOTTOM*
G04 Layer:  PIN/BOTTOM*
G04 Layer:  VIA CLASS/BOTTOM*
G04 *
G04 Offset:    (0.0000 0.0000)*
G04 Mirror:    No*
G04 Mode:      Positive*
G04 Rotation:  0*
G04 FullContactRelief:  No*
G04 UndefLineWidth:     0.0000*
G04 ================== end FILE IDENTIFICATION RECORD ====================*
%FSLAX35Y35*MOMM*%
%IR0*IPPOS*OFA0.00000B0.00000*MIA0B0*SFA1.00000B1.00000*%
%ADD13O,2.X.9*%
%ADD10O,1.7X.9*%
%ADD14C,.6*%
%ADD12C,.508*%
%ADD15C,2.2*%
%ADD11C,6.2*%
%ADD16C,.127*%
%ADD17C,.254*%
%ADD18C,.1651*%
%ADD19C,.635*%
%ADD21C,1.1084*%
%ADD20C,6.7084*%
G75*
%LPD*%
G75*
G36*
G01X16479990Y100000D02*
G02X16400000Y20010I-79990J0D01*
G01X100000D01*
G02X20010Y100000I0J79990D01*
G01Y9900000D01*
G02X100000Y9979990I79990J0D01*
G01X16400000D01*
G02X16479990Y9900000I0J-79990D01*
G01Y100000D01*
G37*
%LPC*%
G75*
G36*
G01X622000Y3973080D02*
G02Y4113920I0J70420D01*
G01X732000D01*
G02Y3973080I0J-70420D01*
G01X622000D01*
G37*
G36*
G01Y3108080D02*
G02Y3248920I0J70420D01*
G01X732000D01*
G02Y3108080I0J-70420D01*
G01X622000D01*
G37*
G36*
G01X219000Y3973080D02*
G02Y4113920I0J70420D01*
G01X299000D01*
G02Y3973080I0J-70420D01*
G01X219000D01*
G37*
G36*
G01Y3108080D02*
G02Y3248920I0J70420D01*
G01X299000D01*
G02Y3108080I0J-70420D01*
G01X219000D01*
G37*
G36*
G01X5431830Y7101890D02*
X5428770Y7101820D01*
X5375420Y7048470D01*
Y6709930D01*
X5381200Y6708490D01*
G02X5400410Y6696920I-9192J-36995D01*
G01X6123330D01*
X6244370Y6575880D01*
X6247430Y6575810D01*
G02X6208490Y6536870I-830J-38110D01*
G01X6208420Y6539930D01*
X6102270Y6646080D01*
X5400410D01*
G02X5333890Y6670670I-28409J25419D01*
G01X5333820Y6673730D01*
X5324580Y6682970D01*
Y7069530D01*
X5392820Y7137770D01*
X5392890Y7140830D01*
G02X5431830Y7101890I38110J-830D01*
G37*
G36*
G01X3851110Y5589370D02*
X4058940D01*
G02X4058970Y5547770I31960J-20777D01*
G01X4056720Y5551230D01*
X3851110D01*
G02Y5589370I-33010J19070D01*
G37*
G36*
G01X10429950Y4750160D02*
Y4640430D01*
G02X10385450I-22250J-37030D01*
G01Y4749200D01*
G02X10429950Y4750160I21451J37499D01*
G37*
G36*
G01X5252090Y4498280D02*
X4832710D01*
G02Y4549120I-28410J25420D01*
G01X5252090D01*
G02Y4498280I28410J-25420D01*
G37*
G36*
G01X11000050Y4062510D02*
X10589650Y4472910D01*
Y5227480D01*
X10500460Y5316670D01*
X10456210D01*
G03X10441000Y5302450I-4J-15241D01*
G02X10389550Y5262960I-43103J2897D01*
G03X10371370Y5248010I-2942J-14951D01*
G01Y5240100D01*
X10354160Y5222890D01*
X10354770Y5219060D01*
G02X10311750Y5255500I-42669J-6760D01*
G03X10326870Y5270740I-119J15239D01*
G01Y5354840D01*
X10355840Y5383810D01*
X10355230Y5387640D01*
G02X10440900Y5398540I42669J6754D01*
G01X10441560Y5391650D01*
X10531530D01*
X10664630Y5258550D01*
Y4503980D01*
X11010590Y4158010D01*
G03X11035230Y4162460I10775J10779D01*
G02X11102510Y4111610I39299J-17937D01*
G03Y4088380I9871J-11615D01*
G02X11031330Y4054980I-27983J-32912D01*
G01X11031250Y4062510D01*
X11000050D01*
G37*
G36*
G01X10424850Y4060530D02*
Y3944830D01*
G02X10380350I-22250J-37030D01*
G01Y4061010D01*
G02X10424850Y4060530I22649J36789D01*
G37*
G36*
G01X7826780Y3901680D02*
X7401230Y4327230D01*
X6501980D01*
X6176930Y4652280D01*
Y5514120D01*
X6898730Y6235920D01*
Y6793380D01*
X6606580Y7085530D01*
X6469600D01*
G02Y7174470I0J44470D01*
G01X6643420D01*
X6987670Y6830220D01*
Y6199080D01*
X6265870Y5477280D01*
Y5137270D01*
X6291400D01*
G02Y5048330I0J-44470D01*
G01X6265870D01*
Y4689120D01*
X6538820Y4416170D01*
X7438070D01*
X7902700Y3951550D01*
G02X7915720Y3920100I-31454J-31442D01*
G01Y3850700D01*
G02X7826780I-44470J0D01*
G01Y3901680D01*
G37*
G36*
G01X9107570Y4295740D02*
X10011760Y5199930D01*
X10025440D01*
G03X10040600Y5213690I-7J15238D01*
G02X10111580Y5176590I42997J-4188D01*
G03Y5153360I9871J-11615D01*
G02X10045570Y5099960I-27978J-32914D01*
G03X10021380Y5103500I-13413J-7234D01*
G01X9182550Y4264670D01*
Y3908690D01*
G03X9196120Y3893540I15240J-2D01*
G02X9158490Y3822620I-4718J-42940D01*
G03X9135260I-11615J-9871D01*
G02X9100310Y3893750I-32912J27980D01*
G03X9107570Y3901360I-360J7612D01*
G01Y4295740D01*
G37*
G36*
G01X11864100Y3868070D02*
X13108930Y5112900D01*
Y5325400D01*
X13273510Y5489980D01*
X13272880Y5493840D01*
G02X13304340Y5462380I37620J6160D01*
G01X13300480Y5463010D01*
X13147070Y5309600D01*
Y5097100D01*
X11879900Y3829930D01*
X11573010D01*
G02Y3868070I-33010J19070D01*
G01X11864100D01*
G37*
G36*
G01X4286990Y3882180D02*
X4327170Y3842000D01*
X4567460D01*
G02Y3803860I33010J-19070D01*
G01X4311370D01*
X4260020Y3855210D01*
X4256160Y3854580D01*
G02X4287620Y3886040I-6160J37620D01*
G01X4286990Y3882180D01*
G37*
G36*
G01X9790660Y3821060D02*
X9869740Y3900140D01*
X10129720D01*
X10129800Y3907670D01*
G02X10200980Y3874260I43197J-498D01*
G03Y3851030I9871J-11615D01*
G02X10129800Y3817630I-27983J-32912D01*
G01X10129720Y3825160D01*
X9900810D01*
X9854750Y3779100D01*
Y3737850D01*
X9814750Y3697850D01*
X9760580D01*
X9715470Y3742960D01*
X9710550Y3740460D01*
G02X9723930Y3806980I-19530J38534D01*
G03X9747160I11615J9871D01*
G02X9786830Y3821670I32915J-27978D01*
G01X9790660Y3821060D01*
G37*
G36*
G01X11866100Y3769070D02*
X13184930Y5087900D01*
Y5298900D01*
X13375010Y5488980D01*
X13374380Y5492840D01*
G02X13405840Y5461380I37620J6160D01*
G01X13401980Y5462010D01*
X13223070Y5283100D01*
Y5072100D01*
X11881900Y3730930D01*
X11573010D01*
G02Y3769070I-33010J19070D01*
G01X11866100D01*
G37*
G36*
G01X8978140Y3615510D02*
X8988280Y3625650D01*
X9233160D01*
X9380850Y3773340D01*
Y3865150D01*
X9431070Y3915370D01*
X9529560D01*
X9535870Y3921680D01*
Y3930600D01*
X9529560Y3936910D01*
X9431070D01*
X9380850Y3987130D01*
Y4242020D01*
X9433110Y4294280D01*
X9504170D01*
X9694400Y4104050D01*
X9707780D01*
X9708050Y4104320D01*
Y4120900D01*
X9519420Y4309530D01*
Y4380590D01*
X9736060Y4597230D01*
X10102320D01*
X10102440Y4604730D01*
G02X10173610Y4571150I43192J-667D01*
G03Y4547920I9871J-11615D01*
G02X10102430Y4514690I-27982J-32912D01*
G01X10102370Y4522250D01*
X9767130D01*
X9594400Y4349520D01*
Y4340600D01*
X9783030Y4151970D01*
Y4073250D01*
X9738850Y4029070D01*
X9663330D01*
X9473100Y4219300D01*
X9464180D01*
X9455830Y4210950D01*
Y4018200D01*
X9462140Y4011890D01*
X9560630D01*
X9610850Y3961670D01*
Y3890610D01*
X9560630Y3840390D01*
X9462140D01*
X9455830Y3834080D01*
Y3742270D01*
X9370980Y3657420D01*
Y3648510D01*
X9395730Y3623750D01*
Y3577980D01*
X9363340Y3545590D01*
X9317560D01*
X9292810Y3570350D01*
X9283910D01*
X9264230Y3550670D01*
X9083370D01*
G03X9069580Y3528920I-8J-15242D01*
G02X8987460Y3513970I-39063J-18444D01*
G03X8971040Y3530390I-15189J1231D01*
G02X8974310Y3616120I-3485J43060D01*
G01X8978140Y3615510D01*
G37*
G36*
G01X9294850Y2350150D02*
G03X9269150I-12850J-8201D01*
G02X9082150Y2537150I-114150J72850D01*
G03Y2562850I-8201J12850D01*
G02X9269150Y2749850I72850J114150D01*
G03X9294850I12850J8201D01*
G02X9481850Y2562850I114150J-72850D01*
G03Y2537150I8201J-12850D01*
G02X9294850Y2350150I-72850J-114150D01*
G37*
G36*
G01X8023930Y2003310D02*
Y2019700D01*
X7949480Y2094150D01*
G03X7936470Y2088770I-5390J-5385D01*
G01Y2083310D01*
G02X7898330I-19070J-33010D01*
G01Y3491000D01*
X7939830Y3532500D01*
Y5028200D01*
X7151230Y5816800D01*
Y6725300D01*
X6634500Y7242030D01*
X6366800D01*
X6254370Y7129600D01*
Y6967000D01*
X6417980Y6803390D01*
X6421840Y6804020D01*
G02X6390380Y6772560I6160J-37620D01*
G01X6391010Y6776420D01*
X6245390Y6922050D01*
G03X6219370Y6911270I-10778J-10777D01*
G01Y6895800D01*
X6301580Y6813590D01*
X6305440Y6814220D01*
G02X6273980Y6782760I6160J-37620D01*
G01X6274610Y6786620D01*
X6181230Y6880000D01*
Y7162500D01*
X6338100Y7319370D01*
X6663900D01*
X7219370Y6763900D01*
Y5849600D01*
X8012170Y5056800D01*
Y3500900D01*
X7977970Y3466700D01*
Y2119600D01*
X8062070Y2035500D01*
Y2003310D01*
G02X8023930I-19070J-33010D01*
G37*
G36*
G01X8711830Y2981800D02*
X8119600Y3574030D01*
X8108010D01*
G02Y3612170I-33010J19070D01*
G01X8135400D01*
X8749970Y2997600D01*
Y1935510D01*
G02X8711830I-19070J-33010D01*
G01Y2981800D01*
G37*
G36*
G01X8540730Y2318300D02*
X8115020Y2744010D01*
X8111160Y2743380D01*
G02X8142620Y2774840I-6160J37620D01*
G01X8141990Y2770980D01*
X8578870Y2334100D01*
Y1625510D01*
G02X8540730I-19070J-33010D01*
G01Y2318300D01*
G37*
G36*
G01X9036020Y1305990D02*
X9307100Y1577070D01*
X10467300D01*
X13620930Y4730700D01*
Y5339740D01*
G02X13659070I19070J33010D01*
G01Y4714900D01*
X10483100Y1538930D01*
X9322900D01*
X9062990Y1279020D01*
X9063620Y1275160D01*
G02X9032160Y1306620I-37620J-6160D01*
G01X9036020Y1305990D01*
G37*
G36*
G01X8540930Y1418800D02*
X8235930Y1723800D01*
Y2486590D01*
G02X8274070I19070J33010D01*
G01Y1739600D01*
X8579070Y1434600D01*
Y1029720D01*
G03X8605090Y1018940I15242J-3D01*
G01X9476210Y1890070D01*
X10677500D01*
X13458930Y4671500D01*
Y5343900D01*
X13574010Y5458980D01*
X13573380Y5462840D01*
G02X13604840Y5431380I37620J6160D01*
G01X13600980Y5432010D01*
X13497070Y5328100D01*
Y4655700D01*
X10693300Y1851930D01*
X9492010D01*
X8596880Y956810D01*
X8597560Y952910D01*
G02X8540930Y979410I-37561J-6509D01*
G01Y1418800D01*
G37*
G36*
G01X8332720Y1458990D02*
G02X8259380Y1478460I-35721J13310D01*
G01X8260010Y1482320D01*
X6388230Y3354100D01*
Y4208200D01*
X6038430Y4558000D01*
Y5720900D01*
X5214630Y6544700D01*
Y6764690D01*
G02X5252770I19070J33010D01*
G01Y6560500D01*
X6076570Y5736700D01*
Y4573800D01*
X6426370Y4224000D01*
Y3369900D01*
X8286980Y1509290D01*
X8290840Y1509920D01*
G02X8294120Y1510310I6137J-37623D01*
G01X8296940Y1510520D01*
X8304320Y1517910D01*
X7325470Y2496760D01*
Y2877550D01*
G02X7306920Y2916720I19070J33008D01*
G01X7307550Y2920580D01*
X6466930Y3761200D01*
Y4252400D01*
X6265150Y4454180D01*
X6261530Y4453790D01*
G02X6294730Y4483510I-4032J37907D01*
G01X6293830Y4479440D01*
X6505070Y4268200D01*
Y3777000D01*
X7334520Y2947550D01*
X7338380Y2948180D01*
G02X7363610Y2877550I6163J-37620D01*
G01Y2512560D01*
X8445570Y1430600D01*
Y1064600D01*
X8333990Y953020D01*
X8334620Y949160D01*
G02X8303160Y980620I-37620J-6160D01*
G01X8307020Y979990D01*
X8407430Y1080400D01*
Y1414800D01*
X8357780Y1464450D01*
G03X8332720Y1458990I-10777J-10775D01*
G37*
G54D21*
X627000Y3322000D03*
Y3900000D03*
G54D20*
X1000000Y1000000D03*
Y9000000D03*
X4350000Y2550000D03*
Y7450000D03*
X10150000Y2550000D03*
Y7450000D03*
X15500000Y1000000D03*
Y9000000D03*
%LPD*%
G75*
G54D10*
X259000Y3178500D03*
Y4043500D03*
G54D11*
X1000000Y1000000D03*
Y9000000D03*
X4350000Y2550000D03*
Y7450000D03*
X10150000Y2550000D03*
Y7450000D03*
X15500000Y1000000D03*
Y9000000D03*
G54D12*
X595000Y526000D03*
X508000Y1016000D03*
Y1524000D03*
Y2032000D03*
Y2540000D03*
Y3048000D03*
Y4572000D03*
Y5080000D03*
Y5588000D03*
Y6096000D03*
Y6604000D03*
Y7112000D03*
Y7620000D03*
Y8128000D03*
Y8636000D03*
Y9144000D03*
X1016000Y508000D03*
Y1524000D03*
Y2032000D03*
Y2540000D03*
X945000Y3143000D03*
X1016000Y3048000D03*
X1028000Y3217000D03*
X1153000Y3506000D03*
X1167000Y3761000D03*
X1016000Y4064000D03*
Y4572000D03*
Y5080000D03*
Y5588000D03*
Y6096000D03*
Y6604000D03*
Y7112000D03*
Y7620000D03*
Y8128000D03*
X1059000Y9651000D03*
X1524000Y508000D03*
Y1016000D03*
Y1524000D03*
Y2032000D03*
Y2540000D03*
Y3048000D03*
X1646000Y3558000D03*
X1524000Y3556000D03*
Y4064000D03*
Y4572000D03*
Y5080000D03*
Y5588000D03*
Y6096000D03*
Y6604000D03*
Y7112000D03*
Y7620000D03*
Y8128000D03*
Y8636000D03*
Y9144000D03*
X2032000Y508000D03*
Y1016000D03*
Y1524000D03*
Y2032000D03*
Y2540000D03*
Y3048000D03*
Y3556000D03*
Y4064000D03*
Y4572000D03*
Y5080000D03*
Y5588000D03*
Y6096000D03*
Y6604000D03*
Y7112000D03*
Y7620000D03*
Y8128000D03*
Y8636000D03*
Y9144000D03*
X2283000Y6177000D03*
X2540000Y508000D03*
Y1016000D03*
Y1524000D03*
Y2032000D03*
Y2540000D03*
Y3048000D03*
Y3556000D03*
Y4064000D03*
Y4572000D03*
Y5080000D03*
Y5588000D03*
X2851600Y6552800D03*
X2540000Y7112000D03*
Y7620000D03*
Y8128000D03*
Y8636000D03*
Y9144000D03*
X3048000Y508000D03*
Y1016000D03*
Y1524000D03*
Y2032000D03*
Y2540000D03*
Y3048000D03*
Y3556000D03*
Y4064000D03*
Y4572000D03*
Y5080000D03*
X2974300Y5923500D03*
X3048000Y7112000D03*
Y7620000D03*
Y8128000D03*
Y8636000D03*
Y9144000D03*
X3539600Y6200800D03*
X3406300Y6670100D03*
X3556000Y508000D03*
Y1016000D03*
Y1524000D03*
Y2032000D03*
Y2540000D03*
Y3048000D03*
X3788900Y3046000D03*
X3840000Y3810000D03*
X3556000Y3556000D03*
Y4064000D03*
Y4572000D03*
X3800900Y4979500D03*
X3665000Y5482000D03*
X3818100Y5570300D03*
X3556000Y5588000D03*
X3558600Y6278600D03*
X3556000Y7112000D03*
Y7620000D03*
Y8128000D03*
Y8636000D03*
Y9144000D03*
X4064000Y508000D03*
Y1016000D03*
Y1524000D03*
Y2032000D03*
Y3048000D03*
X3975300Y5315300D03*
X4122000Y5448600D03*
X4090900Y5568600D03*
X3915900Y5876900D03*
X4010900Y6201900D03*
X4118600Y6328600D03*
X4013100Y6490800D03*
X4064000Y8128000D03*
Y8636000D03*
Y9144000D03*
X4280000Y3050000D03*
X4255300Y3672700D03*
X4433300Y3911700D03*
X4250000Y3892200D03*
X4417300Y4349700D03*
X4503300Y4425700D03*
X4513300Y4753700D03*
X4362150Y4919850D03*
X4298300Y4914700D03*
X4407300Y5080700D03*
X4465300Y5526700D03*
X4474300Y5405700D03*
X4365300Y5640700D03*
X4544500Y6070300D03*
X4265500Y5957400D03*
X4413200Y6340300D03*
X4558200Y6952700D03*
X4572000Y508000D03*
Y1016000D03*
Y1524000D03*
Y2032000D03*
X4664900Y3358300D03*
X4600470Y3822930D03*
X4893300Y4315700D03*
X4806300Y4406700D03*
X4804300Y4523700D03*
X4806300Y4914700D03*
X4587700Y5327900D03*
X4583300Y5783700D03*
X4895300Y5719700D03*
X4676500Y6497900D03*
X4764500Y6316000D03*
X4723000Y6839100D03*
X4572000Y8128000D03*
Y8636000D03*
Y9144000D03*
X5080000Y508000D03*
Y1016000D03*
Y1524000D03*
Y2032000D03*
X4970000Y2370000D03*
X5080000Y3048000D03*
X5131300Y4286700D03*
X4903300Y4660700D03*
X5164300Y4701700D03*
X4915300Y5080700D03*
X4969800Y5865600D03*
X5202100Y5776800D03*
X5172000Y6538100D03*
X4995200Y6789000D03*
X5174700Y6770900D03*
X5233700Y6797700D03*
X5021200Y7126600D03*
X5080000Y8128000D03*
Y8636000D03*
Y9144000D03*
X5434600Y3303200D03*
X5468300Y4134700D03*
X5529300Y4417700D03*
X5280500Y4523700D03*
X5423300Y4572700D03*
X5395300Y4706700D03*
X5469300Y4806700D03*
X5436500Y5247900D03*
X5320900Y5719000D03*
X5562000Y5621200D03*
X5507400Y6156000D03*
X5367400Y6281700D03*
X5431100Y6583300D03*
X5468100Y6444500D03*
X5296700Y6647700D03*
X5372000Y6671500D03*
X5248800Y7036300D03*
X5473800Y7215300D03*
X5431000Y7140000D03*
X5363500Y7454100D03*
X5390200Y7816700D03*
X5588000Y508000D03*
Y1016000D03*
Y1524000D03*
Y2032000D03*
Y2540000D03*
Y3556000D03*
X5725300Y4433700D03*
X5636500Y4545700D03*
X5668700Y5004600D03*
X5786000Y4934600D03*
X5743300Y5322700D03*
X5678700Y5740100D03*
X5768900Y5926000D03*
X5616000Y6256000D03*
X5662200Y6585500D03*
X5716600Y6357700D03*
X5684400Y6886600D03*
X5681100Y6744400D03*
X5826600Y6741000D03*
X5799500Y6861000D03*
X5778800Y7162400D03*
X5630200Y7164500D03*
X5707800Y7496500D03*
X5867700Y7461000D03*
X5774500Y7296700D03*
X5615200Y7318100D03*
X5823300Y7607600D03*
X5588000Y8636000D03*
Y9144000D03*
X6096000Y508000D03*
Y1016000D03*
Y1524000D03*
Y2032000D03*
Y2540000D03*
Y3048000D03*
X6108900Y3440300D03*
X6096000Y3556000D03*
X6226000Y3866000D03*
X5931300Y4064700D03*
X6100300Y4097500D03*
X6170200Y4561700D03*
X5929300Y4576700D03*
X5918300Y4762700D03*
X6118800Y5028800D03*
X5923200Y4928900D03*
X6221400Y5092800D03*
X6113100Y5796000D03*
X6160300Y5640300D03*
X5934500Y5714500D03*
X5953100Y5947400D03*
X6246600Y6537700D03*
X5975500Y6894400D03*
X6071100Y6589900D03*
X5948900D03*
X6106000Y6899000D03*
X6092400Y7156000D03*
X5918800Y7158100D03*
X6156600Y7293200D03*
X6214400Y7595400D03*
X5965500Y7562100D03*
X6017700Y7414300D03*
X5916600Y7291000D03*
X6147700Y7744300D03*
X6234400Y7887600D03*
X6048800Y7832100D03*
X5941100Y7728700D03*
X5955500Y8238000D03*
X6096000Y8636000D03*
Y9144000D03*
X6517500Y2877400D03*
X6481800Y3656000D03*
X6534600Y3840300D03*
X6570300Y4281700D03*
X6257500Y4491700D03*
X6334600Y4890600D03*
X6420100Y4672900D03*
X6556000Y4617400D03*
X6420400Y4945800D03*
X6291400Y5092800D03*
X6314400Y5266800D03*
X6328400Y5412800D03*
X6432400Y5355800D03*
X6519400Y5290800D03*
X6314600Y5801800D03*
X6389600Y6027500D03*
X6486100Y6500800D03*
X6428000Y6766400D03*
X6311600Y6776600D03*
X6469600Y7130000D03*
X6533200D03*
X6461100Y7435400D03*
X6283300Y7404300D03*
X6318800Y7752100D03*
X6454400Y7887600D03*
X6604000Y508000D03*
Y1016000D03*
X6900000Y1190000D03*
X6604000Y1524000D03*
Y2032000D03*
Y2540000D03*
X6907400Y4024500D03*
X6826000Y4243100D03*
X6661700Y4501700D03*
X6927400Y4841700D03*
X6658400Y5209800D03*
X6660300Y4928800D03*
X6775400Y5369800D03*
X6730300Y5614500D03*
X6846800Y5884600D03*
X6730100Y6270100D03*
X6607800Y6758700D03*
X6687700Y7424300D03*
X6597700Y7598700D03*
X6877700Y7756500D03*
X6646600Y7753200D03*
X6921000Y7885400D03*
X6707700D03*
X6604000Y8636000D03*
Y9144000D03*
X7112000Y508000D03*
Y1016000D03*
X7251400Y2927600D03*
X7046600Y3524600D03*
X6951400Y3224900D03*
X7012700Y3334200D03*
X7015300Y3715500D03*
X7130300Y4500200D03*
X7186700Y4658100D03*
X7168800Y4944500D03*
X7140300Y5487400D03*
X7197400Y5249800D03*
X7261000Y7193200D03*
X7162100Y7587600D03*
X7094300Y7357700D03*
X7199900Y7756500D03*
X7106600Y7889800D03*
X7230100Y8254000D03*
X7112000Y8636000D03*
Y9144000D03*
X7400000Y1670000D03*
X7300000Y2050000D03*
X7580300Y2051700D03*
X7451800Y2546000D03*
X7326000Y3042300D03*
X7344540Y2910560D03*
X7311000Y3386800D03*
X7291000Y3209000D03*
X7456100Y5407500D03*
X7551000Y6551000D03*
X7417700Y6695500D03*
X7406500Y6892100D03*
X7564300Y6757700D03*
X7382100Y7062100D03*
X7578700Y7172100D03*
X7557600Y6953200D03*
X7367700Y7412100D03*
X7389900Y7736500D03*
X7595400Y7611000D03*
X7603200Y7797600D03*
X7467600Y7892100D03*
X7287700Y7889800D03*
X7620000Y508000D03*
X7779000Y1047000D03*
X7730000Y1130000D03*
X7796100Y1633100D03*
X7917400Y2050300D03*
X7728900Y2243100D03*
X7683200Y3117400D03*
X7624300Y3491200D03*
X7631000Y3871200D03*
X7871250Y3850700D03*
Y3920100D03*
X7616700Y4283600D03*
X7886000Y4275600D03*
X7860300Y4666000D03*
X7871000Y6237700D03*
X7713200Y6397700D03*
X7837600Y6486600D03*
X7701000Y6626600D03*
X7755400Y7033200D03*
X7818700Y7583200D03*
X7743200Y7457700D03*
X7918000Y8248700D03*
X7620000Y8636000D03*
Y9144000D03*
X8128000Y508000D03*
Y1524000D03*
X8200600Y1814300D03*
X8043000Y1970300D03*
X8255000Y2519600D03*
X8105000Y2781000D03*
X8075000Y3593100D03*
X8182000Y3995600D03*
X8210900Y5973300D03*
X8190900Y6125500D03*
X8026500Y6077700D03*
X8048700Y6268800D03*
X7971000Y6832100D03*
X8137600Y6673200D03*
X8207600Y7197700D03*
X8177600Y7027700D03*
X7958700Y7245400D03*
X7955400Y7439900D03*
X8232700Y7928700D03*
X8128000Y8636000D03*
Y9144000D03*
X8297000Y943000D03*
X8560000Y946400D03*
X8297000Y1472300D03*
X8353900Y1751600D03*
X8559800Y1592500D03*
X8400700Y4214200D03*
X8382000Y5163500D03*
X8615300Y5557800D03*
X8344300Y5834400D03*
X8482000Y5696600D03*
X8533100Y5892200D03*
X8500900Y6227700D03*
X8399800Y6026600D03*
X8283200Y6535500D03*
X8405400Y6424400D03*
X8554200Y6407700D03*
X8372000Y6828800D03*
X8418700Y6977700D03*
X8636000Y508000D03*
X8930900Y1662500D03*
X8745300Y1800200D03*
X8730900Y1902500D03*
X8867300Y2531600D03*
X8871800Y2854600D03*
X8836500Y3255700D03*
X8747600Y3406800D03*
X8930900Y3476800D03*
X8757600Y3605700D03*
X8827300Y3992900D03*
X8643300Y4462200D03*
X8779300Y4739500D03*
X8654000Y5024800D03*
X8755300Y5423300D03*
X8892000Y5291100D03*
X8949800Y5467800D03*
X8908700Y5805500D03*
X8812000Y5615500D03*
X8674200Y5753300D03*
X8773100Y5943300D03*
X8637600Y6080000D03*
X8823100Y6133300D03*
X8689800Y6272200D03*
X8823100Y6377700D03*
X8886400Y6512100D03*
X8627600Y6571000D03*
X8670900Y6738800D03*
X8636000Y9144000D03*
X9144000Y508000D03*
Y1016000D03*
X9026000Y1269000D03*
X9144000Y2032000D03*
Y3048000D03*
X9133100Y3237900D03*
X9283100Y3421200D03*
X8982000Y3403500D03*
X9289300Y3519600D03*
X9126600Y3506300D03*
X9030520Y3510480D03*
X9285900Y3756800D03*
X8967550Y3573450D03*
X9102350Y3850600D03*
X9191400D03*
X9073100Y4045600D03*
X9232000Y3960100D03*
X9288600Y4552300D03*
X9066400Y4222300D03*
X9128700Y4396700D03*
X9223300Y4248900D03*
X9026400Y5080000D03*
X9178700Y4924500D03*
X9233100Y5088900D03*
X9184200Y5535600D03*
X9049800Y5272200D03*
X9047500Y5667800D03*
X9100900Y5864400D03*
X9232000Y5720000D03*
X8962000Y5994400D03*
X9188700Y6010000D03*
X9283100Y6127700D03*
X9023100Y6182200D03*
X9109800Y6297700D03*
X9160600Y6963400D03*
X9070000Y7944700D03*
X9144000Y9144000D03*
X9505000Y1705000D03*
X9446400Y3305700D03*
Y3505700D03*
X9596400Y3646800D03*
X9635900Y3726900D03*
X9522600Y3794200D03*
X9324000Y3830200D03*
X9442600Y3647600D03*
X9312000Y4195600D03*
X9548600Y4080100D03*
X9483100Y4170100D03*
X9437500Y4422300D03*
X9359700Y4306700D03*
X9604200Y4512300D03*
X9555300Y4842300D03*
X9298600Y4793400D03*
X9540900Y4770000D03*
X9446400Y4676700D03*
X9537500Y4583400D03*
X9633100Y4671200D03*
X9413100Y4911100D03*
X9394200Y5438900D03*
X9545300Y5284500D03*
X9390900Y5614400D03*
X9568600Y5630000D03*
X9362000Y5834400D03*
X9525300Y5878900D03*
X9363300Y8728600D03*
X9652000Y508000D03*
Y1016000D03*
Y2032000D03*
Y2540000D03*
Y3048000D03*
X9754200Y3344600D03*
X9924200Y3772300D03*
X9785300Y3635700D03*
X9733900Y3850900D03*
X9780070Y3779000D03*
X9691020D03*
X9670800Y3979000D03*
X9771900Y3926800D03*
X9863100Y4481200D03*
X9672000Y4355600D03*
X9800800Y4281200D03*
X9704200Y4417800D03*
X9717500Y4693400D03*
X9703100Y4613400D03*
X9898600Y4933400D03*
X9893000Y5126700D03*
X9798600Y5031100D03*
X9679700Y5145600D03*
X9816400Y5218900D03*
X9797500Y5350000D03*
X9650800Y5493300D03*
X9803100Y5606700D03*
X9923300Y6755400D03*
X9652000Y9144000D03*
X10160000Y508000D03*
Y1016000D03*
X10225000Y1711000D03*
X10160000Y2032000D03*
Y3048000D03*
X10308500Y3740800D03*
X10085300Y3757900D03*
X10173000Y3818120D03*
X10191200Y4128800D03*
X9978600Y4110100D03*
X10186500Y3983500D03*
X9997500Y3941200D03*
X10173000Y3907170D03*
X10053000Y4472300D03*
X10306900Y4429500D03*
X10187500Y4442300D03*
X10145630Y4515010D03*
X10075300Y4710000D03*
X10190800Y4832300D03*
X10188600Y4668900D03*
X10145630Y4604060D03*
X10312100Y5212300D03*
X10219800Y5044100D03*
X9996400Y5030000D03*
X10083600Y5209500D03*
Y5120450D03*
X9990800Y5454400D03*
X10169700Y5476700D03*
X10131900Y5285600D03*
X10303800Y5481400D03*
X9981900Y5950100D03*
X10195200Y8163300D03*
X10307200Y8595300D03*
X10160000Y9144000D03*
X10424500Y3791500D03*
X10533800Y3823500D03*
X10403000Y4097800D03*
X10402600Y3907800D03*
X10541800Y3980800D03*
X10385800Y4183500D03*
X10497800Y4131500D03*
X10427500Y4487300D03*
X10407700Y4603400D03*
X10406900Y4786700D03*
X10483600Y4821700D03*
X10491900Y4682100D03*
X10402500Y4868400D03*
X10557900Y4819500D03*
X10561200Y4680500D03*
X10337100Y5056100D03*
X10458500Y5145400D03*
X10397900Y5394400D03*
Y5305350D03*
X10468600Y5433300D03*
X10640800Y5378900D03*
X10467400Y5278000D03*
X10668000Y508000D03*
Y1016000D03*
Y1524000D03*
Y2032000D03*
Y2540000D03*
Y3048000D03*
X10933000Y4042300D03*
X10797200Y4218200D03*
X10895200Y4319600D03*
X10799900Y4413500D03*
X10698500Y4316200D03*
X10707200Y4627500D03*
X10950800Y4803400D03*
X10711200Y4784800D03*
X10714100Y5157800D03*
X10659200Y6136800D03*
X10668000Y9144000D03*
X11176000Y508000D03*
Y1016000D03*
Y1524000D03*
Y2540000D03*
Y3048000D03*
X11023200Y3361600D03*
X11169000Y3657000D03*
X11074530Y4144520D03*
Y4055470D03*
X11159600Y4006800D03*
X11157400Y4196700D03*
X11025800Y4214000D03*
X11005800Y4027300D03*
X11164100Y4307800D03*
X11157400Y4478900D03*
X11056300Y4605600D03*
X11141900Y4803400D03*
X11176000Y5588000D03*
Y6604000D03*
Y7112000D03*
Y7620000D03*
Y8128000D03*
Y8636000D03*
Y9144000D03*
X11430700Y3153500D03*
X11522000Y2887000D03*
X11540000Y3849000D03*
Y3750000D03*
X11475000Y3603000D03*
X11684000Y508000D03*
Y1016000D03*
Y1524000D03*
X11784000Y2709000D03*
X11684000Y2540000D03*
X11966100Y2814600D03*
X11840700Y3199000D03*
X11948000Y4317000D03*
X11684000Y5080000D03*
Y5588000D03*
Y6096000D03*
Y6604000D03*
Y7112000D03*
Y7620000D03*
Y8128000D03*
Y8636000D03*
Y9144000D03*
X12192000Y508000D03*
Y1016000D03*
Y1524000D03*
Y2032000D03*
Y2540000D03*
Y3048000D03*
Y3556000D03*
Y4572000D03*
Y5080000D03*
Y5588000D03*
Y6096000D03*
Y6604000D03*
Y7112000D03*
Y7620000D03*
Y8128000D03*
Y8636000D03*
Y9144000D03*
X12420400Y3420300D03*
X12700000Y508000D03*
Y1016000D03*
Y1524000D03*
Y2032000D03*
Y2540000D03*
Y3048000D03*
Y3556000D03*
X12963200Y3837400D03*
X12700000Y4064000D03*
Y5080000D03*
Y5588000D03*
Y6096000D03*
Y6604000D03*
Y7112000D03*
Y7620000D03*
Y8128000D03*
Y8636000D03*
Y9144000D03*
X13208000Y508000D03*
Y1016000D03*
Y1524000D03*
Y2032000D03*
Y2540000D03*
Y3048000D03*
Y3556000D03*
Y4064000D03*
Y4572000D03*
X13359000Y5176000D03*
X13310500Y5500000D03*
X13359000Y5372000D03*
X13208000Y6604000D03*
Y7112000D03*
Y7620000D03*
Y8128000D03*
Y8636000D03*
Y9144000D03*
X13545000Y5189000D03*
X13412000Y5499000D03*
X13640000Y5372750D03*
X13611000Y5469000D03*
X13716000Y508000D03*
Y1016000D03*
Y1524000D03*
Y2032000D03*
Y2540000D03*
Y3048000D03*
Y3556000D03*
Y4064000D03*
Y4572000D03*
Y5080000D03*
X13714000Y5290000D03*
X13716000Y6604000D03*
Y7112000D03*
Y7620000D03*
Y8128000D03*
Y8636000D03*
Y9144000D03*
X14224000Y508000D03*
Y1016000D03*
Y1524000D03*
Y2032000D03*
Y2540000D03*
Y3048000D03*
Y3556000D03*
Y4064000D03*
Y4572000D03*
Y5080000D03*
Y5588000D03*
Y6096000D03*
Y6604000D03*
Y7112000D03*
Y7620000D03*
Y8128000D03*
Y8636000D03*
Y9144000D03*
X14732000Y508000D03*
Y1016000D03*
Y1524000D03*
Y2032000D03*
Y2540000D03*
Y3048000D03*
Y3556000D03*
Y4064000D03*
Y4572000D03*
Y5080000D03*
Y5588000D03*
Y6096000D03*
Y6604000D03*
Y7112000D03*
Y7620000D03*
Y8128000D03*
Y8636000D03*
Y9144000D03*
X15240000Y508000D03*
Y1524000D03*
Y2032000D03*
Y2540000D03*
Y3048000D03*
Y3556000D03*
Y4064000D03*
Y4572000D03*
Y5080000D03*
Y5588000D03*
Y6096000D03*
Y6604000D03*
Y7112000D03*
Y7620000D03*
Y8128000D03*
Y8636000D03*
X15469000Y9582000D03*
X15748000Y508000D03*
Y1524000D03*
Y2032000D03*
Y2540000D03*
Y3048000D03*
Y3556000D03*
Y4064000D03*
Y4572000D03*
Y5080000D03*
Y5588000D03*
Y6096000D03*
Y6604000D03*
Y7112000D03*
Y7620000D03*
Y8128000D03*
Y8636000D03*
X16025000Y9267000D03*
X16122000Y989000D03*
G54D13*
X677000Y3178500D03*
Y4043500D03*
G54D14*
X627000Y3322000D03*
Y3900000D03*
G54D15*
X9155000Y2423000D03*
Y2677000D03*
X9409000Y2423000D03*
Y2677000D03*
G54D16*
G01X3818100Y5570300D02*
X4089200D01*
X4090900Y5568600D01*
G01X4600470Y3822930D02*
X4319270D01*
X4250000Y3892200D01*
G01X8297000Y1472300D02*
X6407300Y3362000D01*
Y4216100D01*
X6057500Y4565900D01*
Y5728800D01*
X5233700Y6552600D01*
Y6797700D01*
G01X6311600Y6776600D02*
X6200300Y6887900D01*
Y7154600D01*
X6346000Y7300300D01*
X6656000D01*
X7200300Y6756000D01*
Y5841700D01*
X7993100Y5048900D01*
Y3508800D01*
X7958900Y3474600D01*
Y2111700D01*
X8043000Y2027600D01*
Y1970300D01*
G01X7344540Y2910560D02*
X6486000Y3769100D01*
Y4260300D01*
X6257500Y4488800D01*
Y4491700D01*
G01X6428000Y6766400D02*
X6235300Y6959100D01*
Y7137500D01*
X6358900Y7261100D01*
X6642400D01*
X7170300Y6733200D01*
Y5824700D01*
X7958900Y5036100D01*
Y3524600D01*
X7917400Y3483100D01*
Y2050300D01*
G01X7344540Y2910560D02*
Y2504660D01*
X8426500Y1422700D01*
Y1072500D01*
X8297000Y943000D01*
G01X8255000Y2519600D02*
Y1731700D01*
X8560000Y1426700D01*
Y946890D01*
G01X8559800Y1592500D02*
Y2326200D01*
X8105000Y2781000D01*
G01X8075000Y3593100D02*
X8127500D01*
X8730900Y2989700D01*
Y1902500D01*
G01X8560000Y946890D02*
X9484110Y1871000D01*
X10685400D01*
X13478000Y4663600D01*
Y5336000D01*
X13611000Y5469000D01*
G01X8560000Y946890D02*
Y946400D01*
G01X13640000Y5372750D02*
Y4722800D01*
X10475200Y1558000D01*
X9315000D01*
X9026000Y1269000D01*
G01X13310500Y5500000D02*
X13128000Y5317500D01*
Y5105000D01*
X11872000Y3849000D01*
X11540000D01*
G01X13412000Y5499000D02*
X13204000Y5291000D01*
Y5080000D01*
X11874000Y3750000D01*
X11540000D01*
G54D17*
G01X5280500Y4523700D02*
X4804300D01*
G01X5431000Y7140000D02*
X5350000Y7059000D01*
Y6693500D01*
X5372000Y6671500D01*
G01D02*
X6112800D01*
X6246600Y6537700D01*
G54D18*
G01X9030520Y3510480D02*
Y3559220D01*
X9044220Y3572920D01*
X9255010D01*
X9274690Y3592600D01*
X9302030D01*
X9326780Y3567840D01*
X9354120D01*
X9373480Y3587200D01*
Y3614540D01*
X9348730Y3639300D01*
Y3666640D01*
X9433580Y3751490D01*
Y3843300D01*
X9452920Y3862640D01*
X9551410D01*
X9588600Y3899830D01*
Y3952450D01*
X9551410Y3989640D01*
X9452920D01*
X9433580Y4008980D01*
Y4220170D01*
X9454960Y4241550D01*
X9482320D01*
X9672550Y4051320D01*
X9729630D01*
X9760780Y4082470D01*
Y4142750D01*
X9572150Y4331380D01*
Y4358740D01*
X9757910Y4544500D01*
X10116140D01*
X10145630Y4515010D01*
G01X8967550Y3573450D02*
X8997500Y3603400D01*
X9242380D01*
X9403100Y3764120D01*
Y3855930D01*
X9440290Y3893120D01*
X9538780D01*
X9558120Y3912460D01*
Y3939820D01*
X9538780Y3959160D01*
X9440290D01*
X9403100Y3996350D01*
Y4232800D01*
X9442330Y4272030D01*
X9494950D01*
X9685180Y4081800D01*
X9717000D01*
X9730300Y4095100D01*
Y4130120D01*
X9541670Y4318750D01*
Y4371370D01*
X9745280Y4574980D01*
X10116550D01*
X10145630Y4604060D01*
G01X10083600Y5209500D02*
X10051780Y5177680D01*
X10020980D01*
X9129820Y4286520D01*
Y3878070D01*
X9102350Y3850600D01*
G01X10083600Y5120450D02*
X10056850Y5147200D01*
X10033610D01*
X9160300Y4273890D01*
Y3881700D01*
X9191400Y3850600D01*
G01X9780070Y3779000D02*
X9878960Y3877890D01*
X10143720D01*
X10173000Y3907170D01*
G01X9691020Y3779000D02*
X9710900D01*
X9769800Y3720100D01*
X9805530D01*
X9832500Y3747070D01*
Y3788320D01*
X9891590Y3847410D01*
X10143710D01*
X10173000Y3818120D01*
G01X10402600Y3907800D02*
Y4097400D01*
X10403000Y4097800D01*
G01X10397900Y5305350D02*
X10431470Y5338920D01*
X10509680D01*
X10611900Y5236700D01*
Y4482130D01*
X11009270Y4084760D01*
X11045240D01*
X11074530Y4055470D01*
G01X10406900Y4786700D02*
X10407700Y4785900D01*
Y4603400D01*
G01X10397900Y5394400D02*
X10349120Y5345620D01*
Y5249320D01*
X10312100Y5212300D01*
G01X10397900Y5394400D02*
X10422900Y5369400D01*
X10522310D01*
X10642380Y5249330D01*
Y4494760D01*
X11021900Y4115240D01*
X11045250D01*
X11074530Y4144520D01*
G54D19*
G01X140960Y3178500D02*
X259000D01*
G01X140960Y4043500D02*
X259000D01*
G01Y3100460D02*
Y3178500D01*
G01D02*
Y3256540D01*
G01Y3178500D02*
X377040D01*
G01X259000Y3965460D02*
Y4043500D01*
G01D02*
Y4121540D01*
G01Y4043500D02*
X377040D01*
G01X656960Y1000000D02*
X1000000D01*
G01X677000Y3100460D02*
Y3178500D01*
G01D02*
Y3256540D01*
G01X543960Y3178500D02*
X677000D01*
G01D02*
X810040D01*
G01X677000Y3965460D02*
Y4043500D01*
G01D02*
Y4121540D01*
G01X543960Y4043500D02*
X677000D01*
G01D02*
X810040D01*
G01X656960Y9000000D02*
X1000000D01*
G01Y656960D02*
Y1000000D01*
G01D02*
Y1343040D01*
G01Y1000000D02*
X1343040D01*
G01X1000000Y8656960D02*
Y9000000D01*
G01D02*
Y9343040D01*
G01Y9000000D02*
X1343040D01*
G01X4006960Y2550000D02*
X4350000D01*
G01X4006960Y7450000D02*
X4350000D01*
G01Y2206960D02*
Y2550000D01*
G01D02*
Y2893040D01*
G01Y2550000D02*
X4693040D01*
G01X4350000Y7106960D02*
Y7450000D01*
G01D02*
Y7793040D01*
G01Y7450000D02*
X4693040D01*
G01X6221400Y5092800D02*
Y4670700D01*
X6520400Y4371700D01*
X7419650D01*
X7871250Y3920100D01*
G01X6221400Y5092800D02*
Y5495700D01*
X6943200Y6217500D01*
Y6811800D01*
X6625000Y7130000D01*
X6533200D01*
G01X6291400Y5092800D02*
X6221400D01*
G01X6533200Y7130000D02*
X6469600D01*
G01X7871250Y3920100D02*
Y3850700D01*
G01X9155000Y2279960D02*
Y2423000D01*
G01X9011960D02*
X9155000D01*
G01X9806960Y2550000D02*
X10150000D01*
G01X9806960Y7450000D02*
X10150000D01*
G01Y2206960D02*
Y2550000D01*
G01D02*
Y2893040D01*
G01Y2550000D02*
X10493040D01*
G01X10150000Y7106960D02*
Y7450000D01*
G01D02*
Y7793040D01*
G01Y7450000D02*
X10493040D01*
G01X15156960Y1000000D02*
X15500000D01*
G01X15156960Y9000000D02*
X15500000D01*
G01Y656960D02*
Y1000000D01*
G01D02*
Y1343040D01*
G01Y1000000D02*
X15843040D01*
G01X15500000Y8656960D02*
Y9000000D01*
G01D02*
Y9343040D01*
G01Y9000000D02*
X15843040D01*
M02*
