G04 ================== begin FILE IDENTIFICATION RECORD ==================*
G04 Layout Name:  PCB_ESP32-P4_HMI_SubBoard_V12_20240527.brd*
G04 Film Name:    DRII*
G04 File Format:  Gerber RS274X*
G04 File Origin:  Cadence Allegro 16.6-2015-S108*
G04 Origin Date:  Tue May 28 14:27:30 2024*
G04 *
G04 Layer:  BOARD GEOMETRY/DIMENSION*
G04 Layer:  BOARD GEOMETRY/OUTLINE*
G04 Layer:  MANUFACTURING/NCDRILL_FIGURE*
G04 Layer:  MANUFACTURING/NCDRILL_LEGEND*
G04 Layer:  MANUFACTURING/NCLEGEND-1-4*
G04 *
G04 Offset:    (0.0000 0.0000)*
G04 Mirror:    No*
G04 Mode:      Positive*
G04 Rotation:  0*
G04 FullContactRelief:  No*
G04 UndefLineWidth:     0.1016*
G04 ================== end FILE IDENTIFICATION RECORD ====================*
%FSLAX35Y35*MOMM*%
%IR0*IPPOS*OFA0.00000B0.00000*MIA0B0*SFA1.00000B1.00000*%
%AMMACRO10*
1,1,.1016,-.4,.3*
20,1,.1016,-.4,.3,.4,.3,0.0*
1,1,.1016,.4,.3*
20,1,.1016,.4,.3,.452094,.295442,0.0*
1,1,.1016,.452094,.295442*
20,1,.1016,.452094,.295442,.502606,.281908,0.0*
1,1,.1016,.502606,.281908*
20,1,.1016,.502606,.281908,.55,.259808,0.0*
1,1,.1016,.55,.259808*
20,1,.1016,.55,.259808,.592836,.229813,0.0*
1,1,.1016,.592836,.229813*
20,1,.1016,.592836,.229813,.629813,.192836,0.0*
1,1,.1016,.629813,.192836*
20,1,.1016,.629813,.192836,.659808,.15,0.0*
1,1,.1016,.659808,.15*
20,1,.1016,.659808,.15,.681908,.102606,0.0*
1,1,.1016,.681908,.102606*
20,1,.1016,.681908,.102606,.695442,.052094,0.0*
1,1,.1016,.695442,.052094*
20,1,.1016,.695442,.052094,.7,0.0,0.0*
1,1,.1016,.7,0.0*
20,1,.1016,.7,0.0,.695442,-.052094,0.0*
1,1,.1016,.695442,-.052094*
20,1,.1016,.695442,-.052094,.681908,-.102606,0.0*
1,1,.1016,.681908,-.102606*
20,1,.1016,.681908,-.102606,.659808,-.15,0.0*
1,1,.1016,.659808,-.15*
20,1,.1016,.659808,-.15,.629813,-.192836,0.0*
1,1,.1016,.629813,-.192836*
20,1,.1016,.629813,-.192836,.592836,-.229813,0.0*
1,1,.1016,.592836,-.229813*
20,1,.1016,.592836,-.229813,.55,-.259808,0.0*
1,1,.1016,.55,-.259808*
20,1,.1016,.55,-.259808,.502606,-.281908,0.0*
1,1,.1016,.502606,-.281908*
20,1,.1016,.502606,-.281908,.452094,-.295442,0.0*
1,1,.1016,.452094,-.295442*
20,1,.1016,.452094,-.295442,.4,-.3,0.0*
1,1,.1016,.4,-.3*
20,1,.1016,.4,-.3,-.4,-.3,0.0*
1,1,.1016,-.4,-.3*
20,1,.1016,-.4,-.3,-.452094,-.295442,0.0*
1,1,.1016,-.452094,-.295442*
20,1,.1016,-.452094,-.295442,-.502606,-.281908,0.0*
1,1,.1016,-.502606,-.281908*
20,1,.1016,-.502606,-.281908,-.55,-.259808,0.0*
1,1,.1016,-.55,-.259808*
20,1,.1016,-.55,-.259808,-.592836,-.229813,0.0*
1,1,.1016,-.592836,-.229813*
20,1,.1016,-.592836,-.229813,-.629813,-.192836,0.0*
1,1,.1016,-.629813,-.192836*
20,1,.1016,-.629813,-.192836,-.659808,-.15,0.0*
1,1,.1016,-.659808,-.15*
20,1,.1016,-.659808,-.15,-.681908,-.102606,0.0*
1,1,.1016,-.681908,-.102606*
20,1,.1016,-.681908,-.102606,-.695442,-.052094,0.0*
1,1,.1016,-.695442,-.052094*
20,1,.1016,-.695442,-.052094,-.7,0.0,0.0*
1,1,.1016,-.7,0.0*
20,1,.1016,-.7,0.0,-.695442,.052094,0.0*
1,1,.1016,-.695442,.052094*
20,1,.1016,-.695442,.052094,-.681908,.102606,0.0*
1,1,.1016,-.681908,.102606*
20,1,.1016,-.681908,.102606,-.659808,.15,0.0*
1,1,.1016,-.659808,.15*
20,1,.1016,-.659808,.15,-.629813,.192836,0.0*
1,1,.1016,-.629813,.192836*
20,1,.1016,-.629813,.192836,-.592836,.229813,0.0*
1,1,.1016,-.592836,.229813*
20,1,.1016,-.592836,.229813,-.55,.259808,0.0*
1,1,.1016,-.55,.259808*
20,1,.1016,-.55,.259808,-.502606,.281908,0.0*
1,1,.1016,-.502606,.281908*
20,1,.1016,-.502606,.281908,-.452094,.295442,0.0*
1,1,.1016,-.452094,.295442*
20,1,.1016,-.452094,.295442,-.4,.3,0.0*
1,1,.1016,-.4,.3*
1,1,.1016,-.15,-.15*
20,1,.1016,-.15,-.15,-.19,-.145,0.0*
1,1,.1016,-.19,-.145*
20,1,.1016,-.19,-.145,-.225,-.125,0.0*
1,1,.1016,-.225,-.125*
20,1,.1016,-.225,-.125,-.255,-.095,0.0*
1,1,.1016,-.255,-.095*
20,1,.1016,-.255,-.095,-.275,-.06,0.0*
1,1,.1016,-.275,-.06*
20,1,.1016,-.275,-.06,-.285,-.02,0.0*
1,1,.1016,-.285,-.02*
20,1,.1016,-.285,-.02,-.285,.02,0.0*
1,1,.1016,-.285,.02*
20,1,.1016,-.285,.02,-.275,.06,0.0*
1,1,.1016,-.275,.06*
20,1,.1016,-.275,.06,-.255,.095,0.0*
1,1,.1016,-.255,.095*
20,1,.1016,-.255,.095,-.225,.125,0.0*
1,1,.1016,-.225,.125*
20,1,.1016,-.225,.125,-.19,.145,0.0*
1,1,.1016,-.19,.145*
20,1,.1016,-.19,.145,-.15,.15,0.0*
1,1,.1016,-.15,.15*
20,1,.1016,-.15,.15,-.11,.145,0.0*
1,1,.1016,-.11,.145*
20,1,.1016,-.11,.145,-.075,.125,0.0*
1,1,.1016,-.075,.125*
20,1,.1016,-.075,.125,-.045,.095,0.0*
1,1,.1016,-.045,.095*
20,1,.1016,-.045,.095,-.025,.06,0.0*
1,1,.1016,-.025,.06*
20,1,.1016,-.025,.06,-.015,.02,0.0*
1,1,.1016,-.015,.02*
20,1,.1016,-.015,.02,-.015,-.02,0.0*
1,1,.1016,-.015,-.02*
20,1,.1016,-.015,-.02,-.025,-.06,0.0*
1,1,.1016,-.025,-.06*
20,1,.1016,-.025,-.06,-.045,-.095,0.0*
1,1,.1016,-.045,-.095*
20,1,.1016,-.045,-.095,-.075,-.125,0.0*
1,1,.1016,-.075,-.125*
20,1,.1016,-.075,-.125,-.11,-.145,0.0*
1,1,.1016,-.11,-.145*
20,1,.1016,-.11,-.145,-.15,-.15,0.0*
1,1,.1016,-.15,-.15*
1,1,.1016,.0251,-.15*
20,1,.1016,.0251,-.15,.1501,.15,0.0*
1,1,.1016,.1501,.15*
20,1,.1016,.1501,.15,.2751,-.15,0.0*
1,1,.1016,.2751,-.15*
1,1,.1016,.2301,-.045*
20,1,.1016,.2301,-.045,.0701,-.045,0.0*
1,1,.1016,.0701,-.045*
%
%ADD10MACRO10*%
%AMMACRO13*
1,1,.1016,-.55,.3*
20,1,.1016,-.55,.3,.55,.3,0.0*
1,1,.1016,.55,.3*
20,1,.1016,.55,.3,.602094,.295442,0.0*
1,1,.1016,.602094,.295442*
20,1,.1016,.602094,.295442,.652606,.281908,0.0*
1,1,.1016,.652606,.281908*
20,1,.1016,.652606,.281908,.7,.259808,0.0*
1,1,.1016,.7,.259808*
20,1,.1016,.7,.259808,.742836,.229813,0.0*
1,1,.1016,.742836,.229813*
20,1,.1016,.742836,.229813,.779813,.192836,0.0*
1,1,.1016,.779813,.192836*
20,1,.1016,.779813,.192836,.809808,.15,0.0*
1,1,.1016,.809808,.15*
20,1,.1016,.809808,.15,.831908,.102606,0.0*
1,1,.1016,.831908,.102606*
20,1,.1016,.831908,.102606,.845442,.052094,0.0*
1,1,.1016,.845442,.052094*
20,1,.1016,.845442,.052094,.85,0.0,0.0*
1,1,.1016,.85,0.0*
20,1,.1016,.85,0.0,.845442,-.052094,0.0*
1,1,.1016,.845442,-.052094*
20,1,.1016,.845442,-.052094,.831908,-.102606,0.0*
1,1,.1016,.831908,-.102606*
20,1,.1016,.831908,-.102606,.809808,-.15,0.0*
1,1,.1016,.809808,-.15*
20,1,.1016,.809808,-.15,.779813,-.192836,0.0*
1,1,.1016,.779813,-.192836*
20,1,.1016,.779813,-.192836,.742836,-.229813,0.0*
1,1,.1016,.742836,-.229813*
20,1,.1016,.742836,-.229813,.7,-.259808,0.0*
1,1,.1016,.7,-.259808*
20,1,.1016,.7,-.259808,.652606,-.281908,0.0*
1,1,.1016,.652606,-.281908*
20,1,.1016,.652606,-.281908,.602094,-.295442,0.0*
1,1,.1016,.602094,-.295442*
20,1,.1016,.602094,-.295442,.55,-.3,0.0*
1,1,.1016,.55,-.3*
20,1,.1016,.55,-.3,-.55,-.3,0.0*
1,1,.1016,-.55,-.3*
20,1,.1016,-.55,-.3,-.602094,-.295442,0.0*
1,1,.1016,-.602094,-.295442*
20,1,.1016,-.602094,-.295442,-.652606,-.281908,0.0*
1,1,.1016,-.652606,-.281908*
20,1,.1016,-.652606,-.281908,-.7,-.259808,0.0*
1,1,.1016,-.7,-.259808*
20,1,.1016,-.7,-.259808,-.742836,-.229813,0.0*
1,1,.1016,-.742836,-.229813*
20,1,.1016,-.742836,-.229813,-.779813,-.192836,0.0*
1,1,.1016,-.779813,-.192836*
20,1,.1016,-.779813,-.192836,-.809808,-.15,0.0*
1,1,.1016,-.809808,-.15*
20,1,.1016,-.809808,-.15,-.831908,-.102606,0.0*
1,1,.1016,-.831908,-.102606*
20,1,.1016,-.831908,-.102606,-.845442,-.052094,0.0*
1,1,.1016,-.845442,-.052094*
20,1,.1016,-.845442,-.052094,-.85,0.0,0.0*
1,1,.1016,-.85,0.0*
20,1,.1016,-.85,0.0,-.845442,.052094,0.0*
1,1,.1016,-.845442,.052094*
20,1,.1016,-.845442,.052094,-.831908,.102606,0.0*
1,1,.1016,-.831908,.102606*
20,1,.1016,-.831908,.102606,-.809808,.15,0.0*
1,1,.1016,-.809808,.15*
20,1,.1016,-.809808,.15,-.779813,.192836,0.0*
1,1,.1016,-.779813,.192836*
20,1,.1016,-.779813,.192836,-.742836,.229813,0.0*
1,1,.1016,-.742836,.229813*
20,1,.1016,-.742836,.229813,-.7,.259808,0.0*
1,1,.1016,-.7,.259808*
20,1,.1016,-.7,.259808,-.652606,.281908,0.0*
1,1,.1016,-.652606,.281908*
20,1,.1016,-.652606,.281908,-.602094,.295442,0.0*
1,1,.1016,-.602094,.295442*
20,1,.1016,-.602094,.295442,-.55,.3,0.0*
1,1,.1016,-.55,.3*
1,1,.1016,-.15,-.15*
20,1,.1016,-.15,-.15,-.19,-.145,0.0*
1,1,.1016,-.19,-.145*
20,1,.1016,-.19,-.145,-.225,-.125,0.0*
1,1,.1016,-.225,-.125*
20,1,.1016,-.225,-.125,-.255,-.095,0.0*
1,1,.1016,-.255,-.095*
20,1,.1016,-.255,-.095,-.275,-.06,0.0*
1,1,.1016,-.275,-.06*
20,1,.1016,-.275,-.06,-.285,-.02,0.0*
1,1,.1016,-.285,-.02*
20,1,.1016,-.285,-.02,-.285,.02,0.0*
1,1,.1016,-.285,.02*
20,1,.1016,-.285,.02,-.275,.06,0.0*
1,1,.1016,-.275,.06*
20,1,.1016,-.275,.06,-.255,.095,0.0*
1,1,.1016,-.255,.095*
20,1,.1016,-.255,.095,-.225,.125,0.0*
1,1,.1016,-.225,.125*
20,1,.1016,-.225,.125,-.19,.145,0.0*
1,1,.1016,-.19,.145*
20,1,.1016,-.19,.145,-.15,.15,0.0*
1,1,.1016,-.15,.15*
20,1,.1016,-.15,.15,-.11,.145,0.0*
1,1,.1016,-.11,.145*
20,1,.1016,-.11,.145,-.075,.125,0.0*
1,1,.1016,-.075,.125*
20,1,.1016,-.075,.125,-.045,.095,0.0*
1,1,.1016,-.045,.095*
20,1,.1016,-.045,.095,-.025,.06,0.0*
1,1,.1016,-.025,.06*
20,1,.1016,-.025,.06,-.015,.02,0.0*
1,1,.1016,-.015,.02*
20,1,.1016,-.015,.02,-.015,-.02,0.0*
1,1,.1016,-.015,-.02*
20,1,.1016,-.015,-.02,-.025,-.06,0.0*
1,1,.1016,-.025,-.06*
20,1,.1016,-.025,-.06,-.045,-.095,0.0*
1,1,.1016,-.045,-.095*
20,1,.1016,-.045,-.095,-.075,-.125,0.0*
1,1,.1016,-.075,-.125*
20,1,.1016,-.075,-.125,-.11,-.145,0.0*
1,1,.1016,-.11,-.145*
20,1,.1016,-.11,-.145,-.15,-.15,0.0*
1,1,.1016,-.15,-.15*
1,1,.1016,.1901,.01*
20,1,.1016,.1901,.01,.2101,.025,0.0*
1,1,.1016,.2101,.025*
20,1,.1016,.2101,.025,.2251,.05,0.0*
1,1,.1016,.2251,.05*
20,1,.1016,.2251,.05,.2351,.085,0.0*
1,1,.1016,.2351,.085*
20,1,.1016,.2351,.085,.2251,.115,0.0*
1,1,.1016,.2251,.115*
20,1,.1016,.2251,.115,.2051,.135,0.0*
1,1,.1016,.2051,.135*
20,1,.1016,.2051,.135,.1701,.15,0.0*
1,1,.1016,.1701,.15*
20,1,.1016,.1701,.15,.0351,.15,0.0*
1,1,.1016,.0351,.15*
20,1,.1016,.0351,.15,.0351,-.15,0.0*
1,1,.1016,.0351,-.15*
20,1,.1016,.0351,-.15,.2001,-.15,0.0*
1,1,.1016,.2001,-.15*
20,1,.1016,.2001,-.15,.2351,-.13,0.0*
1,1,.1016,.2351,-.13*
20,1,.1016,.2351,-.13,.2551,-.1,0.0*
1,1,.1016,.2551,-.1*
20,1,.1016,.2551,-.1,.2651,-.065,0.0*
1,1,.1016,.2651,-.065*
20,1,.1016,.2651,-.065,.2551,-.03,0.0*
1,1,.1016,.2551,-.03*
20,1,.1016,.2551,-.03,.2251,0.0,0.0*
1,1,.1016,.2251,0.0*
20,1,.1016,.2251,0.0,.1901,.01,0.0*
1,1,.1016,.1901,.01*
20,1,.1016,.1901,.01,.0351,.01,0.0*
1,1,.1016,.0351,.01*
%
%ADD13MACRO13*%
%AMMACRO12*
1,1,.1016,.127,0.0*
20,1,.1016,.127,0.0,-.127,0.0,0.0*
1,1,.1016,-.127,0.0*
1,1,.1016,0.0,.127*
20,1,.1016,0.0,.127,0.0,-.127,0.0*
1,1,.1016,0.0,-.127*
%
%ADD12MACRO12*%
%AMMACRO11*
1,1,.1016,2.11,0.0*
20,1,.1016,2.11,0.0,1.055,1.827314,0.0*
1,1,.1016,1.055,1.827314*
20,1,.1016,1.055,1.827314,-1.055,1.827314,0.0*
1,1,.1016,-1.055,1.827314*
20,1,.1016,-1.055,1.827314,-2.11,0.0,0.0*
1,1,.1016,-2.11,0.0*
20,1,.1016,-2.11,0.0,-1.055,-1.827314,0.0*
1,1,.1016,-1.055,-1.827314*
20,1,.1016,-1.055,-1.827314,1.055,-1.827314,0.0*
1,1,.1016,1.055,-1.827314*
20,1,.1016,1.055,-1.827314,2.11,0.0,0.0*
1,1,.1016,2.11,0.0*
%
%ADD11MACRO11*%
%AMMACRO14*
1,1,.1016,0.0,.3*
20,1,.1016,0.0,.3,-.259808,.15,0.0*
1,1,.1016,-.259808,.15*
20,1,.1016,-.259808,.15,-.259808,-.15,0.0*
1,1,.1016,-.259808,-.15*
20,1,.1016,-.259808,-.15,0.0,-.3,0.0*
1,1,.1016,0.0,-.3*
20,1,.1016,0.0,-.3,.259808,-.15,0.0*
1,1,.1016,.259808,-.15*
20,1,.1016,.259808,-.15,.259808,.15,0.0*
1,1,.1016,.259808,.15*
20,1,.1016,.259808,.15,0.0,.3,0.0*
1,1,.1016,0.0,.3*
%
%ADD14MACRO14*%
%AMMACRO15*
1,1,.1016,.5,.5*
20,1,.1016,.5,.5,.5,-.5,0.0*
1,1,.1016,.5,-.5*
20,1,.1016,.5,-.5,-.5,-.5,0.0*
1,1,.1016,-.5,-.5*
20,1,.1016,-.5,-.5,-.5,.5,0.0*
1,1,.1016,-.5,.5*
20,1,.1016,-.5,.5,.5,.5,0.0*
1,1,.1016,.5,.5*
%
%ADD15MACRO15*%
%ADD16C,.1016*%
G75*
%LPD*%
G75*
G54D10*
X259000Y3178500D03*
Y4043500D03*
G54D11*
X1000000Y1000000D03*
Y9000000D03*
X4350000Y2550000D03*
Y7450000D03*
X10150000Y2550000D03*
Y7450000D03*
X15500000Y1000000D03*
Y9000000D03*
G54D12*
X595000Y526000D03*
X508000Y1016000D03*
Y1524000D03*
Y2032000D03*
Y2540000D03*
Y3048000D03*
Y4572000D03*
Y5080000D03*
Y5588000D03*
Y6096000D03*
Y6604000D03*
Y7112000D03*
Y7620000D03*
Y8128000D03*
Y8636000D03*
Y9144000D03*
X1016000Y508000D03*
Y1524000D03*
Y2032000D03*
Y2540000D03*
X945000Y3143000D03*
X1016000Y3048000D03*
X1028000Y3217000D03*
X1153000Y3506000D03*
X1167000Y3761000D03*
X1016000Y4064000D03*
Y4572000D03*
Y5080000D03*
Y5588000D03*
Y6096000D03*
Y6604000D03*
Y7112000D03*
Y7620000D03*
Y8128000D03*
X1059000Y9651000D03*
X1524000Y508000D03*
Y1016000D03*
Y1524000D03*
Y2032000D03*
Y2540000D03*
Y3048000D03*
X1646000Y3558000D03*
X1524000Y3556000D03*
Y4064000D03*
Y4572000D03*
Y5080000D03*
Y5588000D03*
Y6096000D03*
Y6604000D03*
Y7112000D03*
Y7620000D03*
Y8128000D03*
Y8636000D03*
Y9144000D03*
X2032000Y508000D03*
Y1016000D03*
Y1524000D03*
Y2032000D03*
Y2540000D03*
Y3048000D03*
Y3556000D03*
Y4064000D03*
Y4572000D03*
Y5080000D03*
Y5588000D03*
Y6096000D03*
Y6604000D03*
Y7112000D03*
Y7620000D03*
Y8128000D03*
Y8636000D03*
Y9144000D03*
X2283000Y6177000D03*
X2540000Y508000D03*
Y1016000D03*
Y1524000D03*
Y2032000D03*
Y2540000D03*
Y3048000D03*
Y3556000D03*
Y4064000D03*
Y4572000D03*
Y5080000D03*
Y5588000D03*
X2851600Y6552800D03*
X2540000Y7112000D03*
Y7620000D03*
Y8128000D03*
Y8636000D03*
Y9144000D03*
X3048000Y508000D03*
Y1016000D03*
Y1524000D03*
Y2032000D03*
Y2540000D03*
Y3048000D03*
Y3556000D03*
Y4064000D03*
Y4572000D03*
Y5080000D03*
X2974300Y5923500D03*
X3048000Y7112000D03*
Y7620000D03*
Y8128000D03*
Y8636000D03*
Y9144000D03*
X3539600Y6200800D03*
X3406300Y6670100D03*
X3556000Y508000D03*
Y1016000D03*
Y1524000D03*
Y2032000D03*
Y2540000D03*
Y3048000D03*
X3788900Y3046000D03*
X3840000Y3810000D03*
X3556000Y3556000D03*
Y4064000D03*
Y4572000D03*
X3800900Y4979500D03*
X3665000Y5482000D03*
X3818100Y5570300D03*
X3556000Y5588000D03*
X3558600Y6278600D03*
X3556000Y7112000D03*
Y7620000D03*
Y8128000D03*
Y8636000D03*
Y9144000D03*
X4064000Y508000D03*
Y1016000D03*
Y1524000D03*
Y2032000D03*
Y3048000D03*
X3975300Y5315300D03*
X4122000Y5448600D03*
X4090900Y5568600D03*
X3915900Y5876900D03*
X4010900Y6201900D03*
X4118600Y6328600D03*
X4013100Y6490800D03*
X4064000Y8128000D03*
Y8636000D03*
Y9144000D03*
X4280000Y3050000D03*
X4255300Y3672700D03*
X4433300Y3911700D03*
X4250000Y3892200D03*
X4417300Y4349700D03*
X4503300Y4425700D03*
X4513300Y4753700D03*
X4362150Y4919850D03*
X4298300Y4914700D03*
X4407300Y5080700D03*
X4465300Y5526700D03*
X4474300Y5405700D03*
X4365300Y5640700D03*
X4544500Y6070300D03*
X4265500Y5957400D03*
X4413200Y6340300D03*
X4558200Y6952700D03*
X4572000Y508000D03*
Y1016000D03*
Y1524000D03*
Y2032000D03*
X4664900Y3358300D03*
X4600470Y3822930D03*
X4893300Y4315700D03*
X4806300Y4406700D03*
X4804300Y4523700D03*
X4806300Y4914700D03*
X4587700Y5327900D03*
X4583300Y5783700D03*
X4895300Y5719700D03*
X4676500Y6497900D03*
X4764500Y6316000D03*
X4723000Y6839100D03*
X4572000Y8128000D03*
Y8636000D03*
Y9144000D03*
X5080000Y508000D03*
Y1016000D03*
Y1524000D03*
Y2032000D03*
X4970000Y2370000D03*
X5080000Y3048000D03*
X5131300Y4286700D03*
X4903300Y4660700D03*
X5164300Y4701700D03*
X4915300Y5080700D03*
X4969800Y5865600D03*
X5202100Y5776800D03*
X5172000Y6538100D03*
X4995200Y6789000D03*
X5174700Y6770900D03*
X5233700Y6797700D03*
X5021200Y7126600D03*
X5080000Y8128000D03*
Y8636000D03*
Y9144000D03*
X5434600Y3303200D03*
X5468300Y4134700D03*
X5529300Y4417700D03*
X5280500Y4523700D03*
X5423300Y4572700D03*
X5395300Y4706700D03*
X5469300Y4806700D03*
X5436500Y5247900D03*
X5320900Y5719000D03*
X5562000Y5621200D03*
X5507400Y6156000D03*
X5367400Y6281700D03*
X5431100Y6583300D03*
X5468100Y6444500D03*
X5296700Y6647700D03*
X5372000Y6671500D03*
X5248800Y7036300D03*
X5473800Y7215300D03*
X5431000Y7140000D03*
X5363500Y7454100D03*
X5390200Y7816700D03*
X5588000Y508000D03*
Y1016000D03*
Y1524000D03*
Y2032000D03*
Y2540000D03*
Y3556000D03*
X5725300Y4433700D03*
X5636500Y4545700D03*
X5668700Y5004600D03*
X5786000Y4934600D03*
X5743300Y5322700D03*
X5678700Y5740100D03*
X5768900Y5926000D03*
X5616000Y6256000D03*
X5662200Y6585500D03*
X5716600Y6357700D03*
X5684400Y6886600D03*
X5681100Y6744400D03*
X5826600Y6741000D03*
X5799500Y6861000D03*
X5778800Y7162400D03*
X5630200Y7164500D03*
X5707800Y7496500D03*
X5867700Y7461000D03*
X5774500Y7296700D03*
X5615200Y7318100D03*
X5823300Y7607600D03*
X5588000Y8636000D03*
Y9144000D03*
X6096000Y508000D03*
Y1016000D03*
Y1524000D03*
Y2032000D03*
Y2540000D03*
Y3048000D03*
X6108900Y3440300D03*
X6096000Y3556000D03*
X6226000Y3866000D03*
X5931300Y4064700D03*
X6100300Y4097500D03*
X6170200Y4561700D03*
X5929300Y4576700D03*
X5918300Y4762700D03*
X6118800Y5028800D03*
X5923200Y4928900D03*
X6221400Y5092800D03*
X6113100Y5796000D03*
X6160300Y5640300D03*
X5934500Y5714500D03*
X5953100Y5947400D03*
X6246600Y6537700D03*
X5975500Y6894400D03*
X6071100Y6589900D03*
X5948900D03*
X6106000Y6899000D03*
X6092400Y7156000D03*
X5918800Y7158100D03*
X6156600Y7293200D03*
X6214400Y7595400D03*
X5965500Y7562100D03*
X6017700Y7414300D03*
X5916600Y7291000D03*
X6147700Y7744300D03*
X6234400Y7887600D03*
X6048800Y7832100D03*
X5941100Y7728700D03*
X5955500Y8238000D03*
X6096000Y8636000D03*
Y9144000D03*
X6517500Y2877400D03*
X6481800Y3656000D03*
X6534600Y3840300D03*
X6570300Y4281700D03*
X6257500Y4491700D03*
X6334600Y4890600D03*
X6420100Y4672900D03*
X6556000Y4617400D03*
X6420400Y4945800D03*
X6291400Y5092800D03*
X6314400Y5266800D03*
X6328400Y5412800D03*
X6432400Y5355800D03*
X6519400Y5290800D03*
X6314600Y5801800D03*
X6389600Y6027500D03*
X6486100Y6500800D03*
X6428000Y6766400D03*
X6311600Y6776600D03*
X6469600Y7130000D03*
X6533200D03*
X6461100Y7435400D03*
X6283300Y7404300D03*
X6318800Y7752100D03*
X6454400Y7887600D03*
X6604000Y508000D03*
Y1016000D03*
X6900000Y1190000D03*
X6604000Y1524000D03*
Y2032000D03*
Y2540000D03*
X6907400Y4024500D03*
X6826000Y4243100D03*
X6661700Y4501700D03*
X6927400Y4841700D03*
X6658400Y5209800D03*
X6660300Y4928800D03*
X6775400Y5369800D03*
X6730300Y5614500D03*
X6846800Y5884600D03*
X6730100Y6270100D03*
X6607800Y6758700D03*
X6687700Y7424300D03*
X6597700Y7598700D03*
X6877700Y7756500D03*
X6646600Y7753200D03*
X6921000Y7885400D03*
X6707700D03*
X6604000Y8636000D03*
Y9144000D03*
X7112000Y508000D03*
Y1016000D03*
X7251400Y2927600D03*
X7046600Y3524600D03*
X6951400Y3224900D03*
X7012700Y3334200D03*
X7015300Y3715500D03*
X7130300Y4500200D03*
X7186700Y4658100D03*
X7168800Y4944500D03*
X7140300Y5487400D03*
X7197400Y5249800D03*
X7261000Y7193200D03*
X7162100Y7587600D03*
X7094300Y7357700D03*
X7199900Y7756500D03*
X7106600Y7889800D03*
X7230100Y8254000D03*
X7112000Y8636000D03*
Y9144000D03*
X7400000Y1670000D03*
X7300000Y2050000D03*
X7580300Y2051700D03*
X7451800Y2546000D03*
X7326000Y3042300D03*
X7344540Y2910560D03*
X7311000Y3386800D03*
X7291000Y3209000D03*
X7456100Y5407500D03*
X7551000Y6551000D03*
X7417700Y6695500D03*
X7406500Y6892100D03*
X7564300Y6757700D03*
X7382100Y7062100D03*
X7578700Y7172100D03*
X7557600Y6953200D03*
X7367700Y7412100D03*
X7389900Y7736500D03*
X7595400Y7611000D03*
X7603200Y7797600D03*
X7467600Y7892100D03*
X7287700Y7889800D03*
X7620000Y508000D03*
X7779000Y1047000D03*
X7730000Y1130000D03*
X7796100Y1633100D03*
X7917400Y2050300D03*
X7728900Y2243100D03*
X7683200Y3117400D03*
X7624300Y3491200D03*
X7631000Y3871200D03*
X7871250Y3850700D03*
Y3920100D03*
X7616700Y4283600D03*
X7886000Y4275600D03*
X7860300Y4666000D03*
X7871000Y6237700D03*
X7713200Y6397700D03*
X7837600Y6486600D03*
X7701000Y6626600D03*
X7755400Y7033200D03*
X7818700Y7583200D03*
X7743200Y7457700D03*
X7918000Y8248700D03*
X7620000Y8636000D03*
Y9144000D03*
X8128000Y508000D03*
Y1524000D03*
X8200600Y1814300D03*
X8043000Y1970300D03*
X8255000Y2519600D03*
X8105000Y2781000D03*
X8075000Y3593100D03*
X8182000Y3995600D03*
X8210900Y5973300D03*
X8190900Y6125500D03*
X8026500Y6077700D03*
X8048700Y6268800D03*
X7971000Y6832100D03*
X8137600Y6673200D03*
X8207600Y7197700D03*
X8177600Y7027700D03*
X7958700Y7245400D03*
X7955400Y7439900D03*
X8232700Y7928700D03*
X8128000Y8636000D03*
Y9144000D03*
X8297000Y943000D03*
X8560000Y946400D03*
X8297000Y1472300D03*
X8353900Y1751600D03*
X8559800Y1592500D03*
X8400700Y4214200D03*
X8382000Y5163500D03*
X8615300Y5557800D03*
X8344300Y5834400D03*
X8482000Y5696600D03*
X8533100Y5892200D03*
X8500900Y6227700D03*
X8399800Y6026600D03*
X8283200Y6535500D03*
X8405400Y6424400D03*
X8554200Y6407700D03*
X8372000Y6828800D03*
X8418700Y6977700D03*
X8636000Y508000D03*
X8930900Y1662500D03*
X8745300Y1800200D03*
X8730900Y1902500D03*
X8867300Y2531600D03*
X8871800Y2854600D03*
X8836500Y3255700D03*
X8747600Y3406800D03*
X8930900Y3476800D03*
X8757600Y3605700D03*
X8827300Y3992900D03*
X8643300Y4462200D03*
X8779300Y4739500D03*
X8654000Y5024800D03*
X8755300Y5423300D03*
X8892000Y5291100D03*
X8949800Y5467800D03*
X8908700Y5805500D03*
X8812000Y5615500D03*
X8674200Y5753300D03*
X8773100Y5943300D03*
X8637600Y6080000D03*
X8823100Y6133300D03*
X8689800Y6272200D03*
X8823100Y6377700D03*
X8886400Y6512100D03*
X8627600Y6571000D03*
X8670900Y6738800D03*
X8636000Y9144000D03*
X9144000Y508000D03*
Y1016000D03*
X9026000Y1269000D03*
X9144000Y2032000D03*
Y3048000D03*
X9133100Y3237900D03*
X9283100Y3421200D03*
X8982000Y3403500D03*
X9289300Y3519600D03*
X9126600Y3506300D03*
X9030520Y3510480D03*
X9285900Y3756800D03*
X8967550Y3573450D03*
X9102350Y3850600D03*
X9191400D03*
X9073100Y4045600D03*
X9232000Y3960100D03*
X9288600Y4552300D03*
X9066400Y4222300D03*
X9128700Y4396700D03*
X9223300Y4248900D03*
X9026400Y5080000D03*
X9178700Y4924500D03*
X9233100Y5088900D03*
X9184200Y5535600D03*
X9049800Y5272200D03*
X9047500Y5667800D03*
X9100900Y5864400D03*
X9232000Y5720000D03*
X8962000Y5994400D03*
X9188700Y6010000D03*
X9283100Y6127700D03*
X9023100Y6182200D03*
X9109800Y6297700D03*
X9160600Y6963400D03*
X9070000Y7944700D03*
X9144000Y9144000D03*
X9505000Y1705000D03*
X9446400Y3305700D03*
Y3505700D03*
X9596400Y3646800D03*
X9635900Y3726900D03*
X9522600Y3794200D03*
X9324000Y3830200D03*
X9442600Y3647600D03*
X9312000Y4195600D03*
X9548600Y4080100D03*
X9483100Y4170100D03*
X9437500Y4422300D03*
X9359700Y4306700D03*
X9604200Y4512300D03*
X9555300Y4842300D03*
X9298600Y4793400D03*
X9540900Y4770000D03*
X9446400Y4676700D03*
X9537500Y4583400D03*
X9633100Y4671200D03*
X9413100Y4911100D03*
X9394200Y5438900D03*
X9545300Y5284500D03*
X9390900Y5614400D03*
X9568600Y5630000D03*
X9362000Y5834400D03*
X9525300Y5878900D03*
X9363300Y8728600D03*
X9652000Y508000D03*
Y1016000D03*
Y2032000D03*
Y2540000D03*
Y3048000D03*
X9754200Y3344600D03*
X9924200Y3772300D03*
X9785300Y3635700D03*
X9733900Y3850900D03*
X9780070Y3779000D03*
X9691020D03*
X9670800Y3979000D03*
X9771900Y3926800D03*
X9863100Y4481200D03*
X9672000Y4355600D03*
X9800800Y4281200D03*
X9704200Y4417800D03*
X9717500Y4693400D03*
X9703100Y4613400D03*
X9898600Y4933400D03*
X9893000Y5126700D03*
X9798600Y5031100D03*
X9679700Y5145600D03*
X9816400Y5218900D03*
X9797500Y5350000D03*
X9650800Y5493300D03*
X9803100Y5606700D03*
X9923300Y6755400D03*
X9652000Y9144000D03*
X10160000Y508000D03*
Y1016000D03*
X10225000Y1711000D03*
X10160000Y2032000D03*
Y3048000D03*
X10308500Y3740800D03*
X10085300Y3757900D03*
X10173000Y3818120D03*
X10191200Y4128800D03*
X9978600Y4110100D03*
X10186500Y3983500D03*
X9997500Y3941200D03*
X10173000Y3907170D03*
X10053000Y4472300D03*
X10306900Y4429500D03*
X10187500Y4442300D03*
X10145630Y4515010D03*
X10075300Y4710000D03*
X10190800Y4832300D03*
X10188600Y4668900D03*
X10145630Y4604060D03*
X10312100Y5212300D03*
X10219800Y5044100D03*
X9996400Y5030000D03*
X10083600Y5209500D03*
Y5120450D03*
X9990800Y5454400D03*
X10169700Y5476700D03*
X10131900Y5285600D03*
X10303800Y5481400D03*
X9981900Y5950100D03*
X10195200Y8163300D03*
X10307200Y8595300D03*
X10160000Y9144000D03*
X10424500Y3791500D03*
X10533800Y3823500D03*
X10403000Y4097800D03*
X10402600Y3907800D03*
X10541800Y3980800D03*
X10385800Y4183500D03*
X10497800Y4131500D03*
X10427500Y4487300D03*
X10407700Y4603400D03*
X10406900Y4786700D03*
X10483600Y4821700D03*
X10491900Y4682100D03*
X10402500Y4868400D03*
X10557900Y4819500D03*
X10561200Y4680500D03*
X10337100Y5056100D03*
X10458500Y5145400D03*
X10397900Y5394400D03*
Y5305350D03*
X10468600Y5433300D03*
X10640800Y5378900D03*
X10467400Y5278000D03*
X10668000Y508000D03*
Y1016000D03*
Y1524000D03*
Y2032000D03*
Y2540000D03*
Y3048000D03*
X10933000Y4042300D03*
X10797200Y4218200D03*
X10895200Y4319600D03*
X10799900Y4413500D03*
X10698500Y4316200D03*
X10707200Y4627500D03*
X10950800Y4803400D03*
X10711200Y4784800D03*
X10714100Y5157800D03*
X10659200Y6136800D03*
X10668000Y9144000D03*
X11176000Y508000D03*
Y1016000D03*
Y1524000D03*
Y2540000D03*
Y3048000D03*
X11023200Y3361600D03*
X11169000Y3657000D03*
X11074530Y4144520D03*
Y4055470D03*
X11159600Y4006800D03*
X11157400Y4196700D03*
X11025800Y4214000D03*
X11005800Y4027300D03*
X11164100Y4307800D03*
X11157400Y4478900D03*
X11056300Y4605600D03*
X11141900Y4803400D03*
X11176000Y5588000D03*
Y6604000D03*
Y7112000D03*
Y7620000D03*
Y8128000D03*
Y8636000D03*
Y9144000D03*
X11430700Y3153500D03*
X11522000Y2887000D03*
X11540000Y3849000D03*
Y3750000D03*
X11475000Y3603000D03*
X11684000Y508000D03*
Y1016000D03*
Y1524000D03*
X11784000Y2709000D03*
X11684000Y2540000D03*
X11966100Y2814600D03*
X11840700Y3199000D03*
X11948000Y4317000D03*
X11684000Y5080000D03*
Y5588000D03*
Y6096000D03*
Y6604000D03*
Y7112000D03*
Y7620000D03*
Y8128000D03*
Y8636000D03*
Y9144000D03*
X12192000Y508000D03*
Y1016000D03*
Y1524000D03*
Y2032000D03*
Y2540000D03*
Y3048000D03*
Y3556000D03*
Y4572000D03*
Y5080000D03*
Y5588000D03*
Y6096000D03*
Y6604000D03*
Y7112000D03*
Y7620000D03*
Y8128000D03*
Y8636000D03*
Y9144000D03*
X12420400Y3420300D03*
X12700000Y508000D03*
Y1016000D03*
Y1524000D03*
Y2032000D03*
Y2540000D03*
Y3048000D03*
Y3556000D03*
X12963200Y3837400D03*
X12700000Y4064000D03*
Y5080000D03*
Y5588000D03*
Y6096000D03*
Y6604000D03*
Y7112000D03*
Y7620000D03*
Y8128000D03*
Y8636000D03*
Y9144000D03*
X13208000Y508000D03*
Y1016000D03*
Y1524000D03*
Y2032000D03*
Y2540000D03*
Y3048000D03*
Y3556000D03*
Y4064000D03*
Y4572000D03*
X13359000Y5176000D03*
X13310500Y5500000D03*
X13359000Y5372000D03*
X13208000Y6604000D03*
Y7112000D03*
Y7620000D03*
Y8128000D03*
Y8636000D03*
Y9144000D03*
X13545000Y5189000D03*
X13412000Y5499000D03*
X13640000Y5372750D03*
X13611000Y5469000D03*
X13716000Y508000D03*
Y1016000D03*
Y1524000D03*
Y2032000D03*
Y2540000D03*
Y3048000D03*
Y3556000D03*
Y4064000D03*
Y4572000D03*
Y5080000D03*
X13714000Y5290000D03*
X13716000Y6604000D03*
Y7112000D03*
Y7620000D03*
Y8128000D03*
Y8636000D03*
Y9144000D03*
X14224000Y508000D03*
Y1016000D03*
Y1524000D03*
Y2032000D03*
Y2540000D03*
Y3048000D03*
Y3556000D03*
Y4064000D03*
Y4572000D03*
Y5080000D03*
Y5588000D03*
Y6096000D03*
Y6604000D03*
Y7112000D03*
Y7620000D03*
Y8128000D03*
Y8636000D03*
Y9144000D03*
X14732000Y508000D03*
Y1016000D03*
Y1524000D03*
Y2032000D03*
Y2540000D03*
Y3048000D03*
Y3556000D03*
Y4064000D03*
Y4572000D03*
Y5080000D03*
Y5588000D03*
Y6096000D03*
Y6604000D03*
Y7112000D03*
Y7620000D03*
Y8128000D03*
Y8636000D03*
Y9144000D03*
X15240000Y508000D03*
Y1524000D03*
Y2032000D03*
Y2540000D03*
Y3048000D03*
Y3556000D03*
Y4064000D03*
Y4572000D03*
Y5080000D03*
Y5588000D03*
Y6096000D03*
Y6604000D03*
Y7112000D03*
Y7620000D03*
Y8128000D03*
Y8636000D03*
X15469000Y9582000D03*
X15748000Y508000D03*
Y1524000D03*
Y2032000D03*
Y2540000D03*
Y3048000D03*
Y3556000D03*
Y4064000D03*
Y4572000D03*
Y5080000D03*
Y5588000D03*
Y6096000D03*
Y6604000D03*
Y7112000D03*
Y7620000D03*
Y8128000D03*
Y8636000D03*
X16025000Y9267000D03*
X16122000Y989000D03*
G54D13*
X677000Y3178500D03*
Y4043500D03*
G54D14*
X627000Y3322000D03*
Y3900000D03*
G54D15*
X9155000Y2423000D03*
Y2677000D03*
X9409000Y2423000D03*
Y2677000D03*
G54D16*
G01X100000Y0D02*
X16400000D01*
G03X16500000Y100000I0J100000D01*
G01Y9900000D01*
G03X16400000Y10000000I-100000J0D01*
G01X100000D01*
G03X0Y9900000I0J-100000D01*
G01Y100000D01*
G03X100000Y0I100000J0D01*
M02*
