M48
METRIC,LZ
T01C.254
T02C1.
T03C4.22
T04C.6
;LEADER: 12
;HEADER:
;CODE  : ASCII
;FILE  : PCB_ESP32-P4_HMI_SubBoard_V12_20240527-1-2.drl for  ... layers TOP and BOTTOM
;DESIGN: PCB_ESP32-P4_HMI_SubBoard_V12_20240527.brd
;T01 Holesize 1. = 0.254000 Tolerance = +0.076200/-0.076200 PLATED MM Quantity = 833
;T02 Holesize 2. = 1.000000 Tolerance = +0.000000/-0.000000 PLATED MM Quantity = 4
;T03 Holesize 3. = 4.220000 Tolerance = +0.000000/-0.000000 PLATED MM Quantity = 8
%
G90
T01
X100836Y0512045
X091914Y038506
X100836Y052095
X0910235Y038506
X0969102Y03779
X10173Y0381812
X0978007Y03779
X10173Y0390717
X1014563Y0451501
X0903052Y0351048
X1014563Y0460406
X0896755Y0357345
X052805Y045237
X048043
X05431Y0714
X05372Y066715
X062466Y065377
X08043Y019703
X063116Y067766
X079174Y020503
X06428Y067664
X062214Y050928
X062914
X0787125Y039201
Y038507
X065332Y0713
X064696
X08255Y025196
X13611Y05469
X0856Y009464
X08105Y02781
X085598Y015925
X1364Y0537275
X09026Y01269
X08075Y035931
X087309Y019025
X08297Y014723
X052337Y067977
X062575Y044917
X0734454Y0291056
X08297Y00943
X0425Y038922
X0460047Y0382293
X040909Y055686
X038181Y055703
X00595Y00526
X01016Y00508
R29X00508
X00508Y01016
X01524
X02032
R10X00508
X0773Y0113
X07779Y01047
X09144Y01016
R11X00508
X16122Y00989
X069Y0119
X00508Y01524
R12X00508
X074Y0167
X077961Y016331
X082006Y018143
X08128Y01524
X083539Y017516
X087453Y018002
X089309Y016625
X09505Y01705
X10225Y01711
X10668Y01524
R10X00508
X00508Y02032
R12X00508
X075803Y020517
X073Y0205
X09144Y02032
R03X00508
X12192
R07X00508
X0497Y0237
X077289Y022431
X00508Y0254
R06X00508
X05588
R02X00508
X074518Y02546
X088718Y028546
X088673Y025316
X09652Y0254
X10668
X11176
X119661Y028146
X11684Y0254
X11784Y02709
X12192Y0254
R07X00508
X00508Y03048
X01016
X00945Y03143
X01524Y03048
R03X00508
X037889Y03046
X03556Y03048
X04064
X0428Y0305
X0508Y03048
X06096
X065175Y028774
X072514Y029276
X07326Y030423
X076832Y031174
X09144Y03048
R04X00508
X11522Y02887
X114307Y031535
X118407Y03199
X12192Y03048
R07X00508
X01153Y03506
X01028Y03217
X046649Y033583
X054346Y033032
X061089Y034403
X070127Y033342
X069514Y032249
X070466Y035246
X07291Y03209
X07311Y033868
X076243Y034912
X089309Y034768
X087476Y034068
X088365Y032557
X091266Y035063
X092893Y035196
X08982Y034035
X092831Y034212
X091331Y032379
X094464Y035057
Y033057
X097542Y033446
X110232Y033616
X124204Y034203
X01167Y03761
X01524Y03556
X01646Y03558
X02032Y03556
R03X00508
X0384Y0381
X042553Y036727
X05588Y03556
X06226Y03866
X06096Y03556
X065346Y038403
X070153Y037155
X07631Y038712
X087576Y036057
X092859Y037568
X094426Y036476
X09324Y038302
X095226Y037942
X096359Y037269
X095964Y036468
X097339Y038509
X097853Y036357
X099242Y037723
X100853Y037579
X103085Y037408
X105338Y038235
X104245Y037915
X11169Y03657
X11475Y03603
X12192Y03556
X129632Y038374
X127Y03556
R06X00508
X01016Y04064
R05X00508
X044333Y039117
X054683Y041347
X061003Y040975
X059313Y040647
X069074Y040245
X08182Y039956
X084007Y042142
X088273Y039929
X09232Y039601
X090731Y040456
X094831Y041701
X095486Y040801
X09312Y041956
X097719Y039268
X096708Y03979
X099975Y039412
X101865Y039835
X099786Y041101
X101912Y041288
X104978Y041315
X103858Y041835
X105418Y039808
X107972Y042182
X10933Y040423
X110058Y040273
X110258Y04214
X111574Y041967
X111596Y040068
X127Y04064
R06X00508
X045033Y044257
X044173Y043497
X048063Y044067
X048933Y043157
X051313Y042867
X055293Y044177
X056365Y045457
X057253Y044337
X066617Y045017
X06826Y042431
X071303Y045002
X07886Y042756
X076167Y042836
X086433Y044622
X092233Y042489
X091287Y043967
X090664Y042223
X092886Y045523
X096042Y045123
X093597Y043067
X094375Y044223
X097042Y044178
X098008Y042812
X09672Y043556
X098631Y044812
X101875Y044423
X103069Y044295
X10053Y044723
X104275Y044873
X106985Y043162
X107999Y044135
X108952Y043196
X111574Y044789
X111641Y043078
X11948Y04317
X00508Y04572
R06X00508
X045133Y047537
X051643Y047017
X049033Y046607
X054693Y048067
X053953Y047067
X054233Y045727
X059183Y047627
X059293Y045767
X06556Y046174
X064201Y046729
X063346Y048906
X069274Y048417
X071867Y046581
X078603Y04666
X087793Y047395
X096331Y046712
X095375Y045834
X094464Y046767
X095409Y0477
X092986Y047934
X095553Y048423
X097031Y046134
X097175Y046934
X101886Y046689
X101908Y048323
X100753Y0471
X105612Y046805
X105579Y048195
X104025Y048684
X104919Y046821
X104836Y048217
X107112Y047848
X109508Y048034
X107072Y046275
X111419Y048034
X110563Y046056
X12192Y04572
X13208
X13716
R04X00508
X00508Y0508
R05X00508
X038009Y049795
X044073Y050807
X042983Y049147
X0436215Y0491985
X048063Y049147
X049153Y050807
X05786Y049346
X056687Y050046
X059232Y049289
X064204Y049458
X066603Y049288
X066584Y052098
X08382Y051635
X08654Y050248
X092331Y050889
X091787Y049245
X090264Y0508
X094131Y049111
X098164Y052189
X096797Y051456
X097986Y050311
X09893Y051267
X098986Y049334
X099964Y0503
X102198Y050441
X104585Y051454
X103371Y050561
X107141Y051578
X11684Y0508
R02X00508
X13359Y05176
X13545Y05189
X13716Y0508
R04X00508
X03665Y05482
X04122Y054486
X039753Y053153
X044743Y054057
X044653Y055267
X045877Y053279
X054365Y052479
X057433Y053227
X065194Y052908
X064324Y053558
X063284Y054128
X063144Y052668
X067754Y053698
X071974Y052498
X086153Y055578
X089498Y054678
X08892Y052911
X087553Y054233
X090498Y052722
X091842Y055356
X095453Y052845
X093942Y054389
X096508Y054933
X097975Y0535
X103038Y054814
X101319Y052856
X101697Y054767
X099908Y054544
X104674Y05278
X106408Y053789
X104686Y054333
X13359Y05372
X13714Y0529
X00508Y05588
R04X00508
X03556
X039159Y058769
X043653Y056407
X048953Y057197
X045833Y057837
X052021Y057768
X049698Y058656
X05562Y056212
X053209Y05719
X059345Y057145
X056787Y057401
X063146Y058018
X068468Y058846
X085331Y058922
X08482Y056966
X083443Y058344
X086742Y057533
X08812Y056155
X089087Y058055
X09232Y0572
X091009Y058644
X090475Y056678
X095253Y058789
X09362Y058344
X095686Y0563
X093909Y056144
X098031Y056067
X11176Y05588
R03X00508
X14224
R03X00508
X00508Y06096
R03X00508
X02283Y06177
X029743Y059235
X035396Y062008
X040109Y062019
X042655Y059574
X057689Y05926
X063896Y060275
X07871Y062377
X080265Y060777
X081909Y061255
X082109Y059733
X083998Y060266
X085009Y062277
X088231Y061333
X086376Y0608
X087731Y059433
X090231Y061822
X092831Y061277
X091887Y0601
X08962Y059944
X099819Y059501
X106592Y061368
X11684Y06096
R02X00508
X14224
R03X00508
X028516Y065528
X035586Y062786
X040131Y064908
X041186Y063286
X044132Y063403
X054681Y064445
X054311Y065833
X057166Y063577
X056622Y065855
X064861Y065008
X067301Y062701
X07551Y06551
X078376Y064866
X077132Y063977
X080487Y062688
X085542Y064077
X084054Y064244
X082832Y065355
X086276Y06571
X088864Y065121
X088231Y063777
X086898Y062722
X091098Y062977
X00508Y06604
R03X00508
X034063Y066701
X052967Y066477
X057995Y06861
X058266Y06741
X056811Y067444
X056844Y068866
X06106Y06899
X059489Y065899
X060711
X059755Y068944
X075643Y067577
X074065Y068921
X074177Y066955
X07701Y066266
X081376Y066732
X07971Y068321
X08372Y068288
X086709Y067388
X099233Y067554
X11176Y06604
R09X00508
X00508Y07112
R06X00508
X045582Y069527
X054738Y072153
X056302Y071645
X057788Y071624
X059188Y071581
X060924Y07156
X070943Y073577
X07261Y071932
X075576Y069532
X075787Y071721
X073821Y070621
X077554Y070332
X079587Y072454
X081776Y070277
X082076Y071977
X084187Y069777
X091606Y069634
X11176Y07112
R09X00508
X053635Y074541
X056152Y073181
X057745Y072967
X058677Y07461
X057078Y074965
X059166Y07291
X060177Y074143
X059655Y075621
X062144Y075954
X061566Y072932
X062833Y074043
X064611Y074354
X065977Y075987
X066877Y074243
X071621Y075876
X073677Y074121
X077432Y074577
X078187Y075832
X079554Y074399
X00508Y0762
R06X00508
X053902Y078167
X058233Y076076
X059411Y077287
X060488Y078321
X062344Y078876
X061477Y077443
X064544Y078876
X063188Y077521
X067077Y078854
X06921
X066466Y077532
X068777Y077565
X071066Y078898
X071999Y077565
X072877Y078898
X074676Y078921
X076032Y077976
X075954Y07611
X073899Y077365
X082327Y079287
X11176Y0762
R09X00508
X00508Y08128
R09X00508
X059555Y08238
X072301Y08254
X07918Y082487
X0907Y079447
X101952Y081633
X11176Y08128
R09X00508
X103072Y085953
X00508Y08636
X01524
X02032
R12X00508
X093633Y087286
X11176Y08636
R09X00508
X00508Y09144
X01524
X02032
R25X00508
X16025Y09267
X15469Y09582
X01059Y09651
X064818Y03656
X065703Y042817
X061702Y045617
X061188Y050288
X061603Y056403
X059531Y059474
X061131Y05796
X055074Y06156
X053674Y062817
X05616Y06256
X047645Y06316
X045445Y060703
X074561Y054075
X071403Y054874
X067303Y056145
X071688Y049445
X051747Y067709
X05172Y065381
X052488Y070363
X049952Y06789
X046765Y064979
X050212Y071266
X04723Y068391
X066078Y067587
X1154Y0375
X13412Y05499
X1154Y03849
X133105Y055
X1107453Y0405547
X103979Y0530535
X1107453Y0414452
X103979Y053944
X103121Y052123
X104026Y039078
X10403Y040978
X104069Y047867
X104077Y046034
T02
X09409Y02423
X09155
Y02677
X09409
T03
X0435Y0255
X1015
Y0745
X0435
X155Y01
X01Y09
X155
X01Y01
M30
