G04 ================== begin FILE IDENTIFICATION RECORD ==================*
G04 Layout Name:  PCB_ESP32-P4_HMI_SubBoard_V12_20240527.brd*
G04 Film Name:    SILK_TOP*
G04 File Format:  Gerber RS274X*
G04 File Origin:  Cadence Allegro 16.6-2015-S108*
G04 Origin Date:  Tue May 28 14:27:30 2024*
G04 *
G04 Layer:  BOARD GEOMETRY/SILKSCREEN_TOP*
G04 Layer:  BOARD GEOMETRY/OUTLINE*
G04 Layer:  PACKAGE GEOMETRY/SILKSCREEN_TOP*
G04 Layer:  REF DES/SILKSCREEN_TOP*
G04 *
G04 Offset:    (0.0000 0.0000)*
G04 Mirror:    No*
G04 Mode:      Positive*
G04 Rotation:  0*
G04 FullContactRelief:  No*
G04 UndefLineWidth:     0.1016*
G04 ================== end FILE IDENTIFICATION RECORD ====================*
%FSLAX35Y35*MOMM*%
%IR0*IPPOS*OFA0.00000B0.00000*MIA0B0*SFA1.00000B1.00000*%
%ADD10C,.1*%
%ADD11C,.2*%
%ADD12C,.1016*%
%ADD13C,.1143*%
%ADD14C,.127*%
%ADD15C,.254*%
%ADD16C,.1524*%
%ADD17C,.381*%
%ADD18C,.2286*%
%ADD19C,.1397*%
%ADD20C,.1778*%
%ADD21C,.0381*%
%ADD22C,.0508*%
%ADD23C,.0445*%
%ADD24C,.0635*%
%ADD25C,.0762*%
%ADD26C,.0889*%
G75*
%LPD*%
G75*
G36*
G01X1915050Y947240D02*
X2032900Y1144150D01*
X2047990Y1137450D01*
X2021010Y1089510D01*
G03X2020370Y1087020I4444J-2469D01*
G01X2020460Y1086100D01*
X2034210Y1011570D01*
X2041950Y1015560D01*
X2047260Y1016950D01*
X2060050D01*
X2063470Y1014600D01*
X2076340Y1001160D01*
X2079120Y986440D01*
X2077830Y978090D01*
X2074980Y967510D01*
X2084780Y966790D01*
G03X2089120Y968690I369J5064D01*
G01X2097220Y978890D01*
G03X2098330Y982050I-3970J3170D01*
G01Y982230D01*
X2097130Y1017630D01*
G03X2096250Y1020310I-5077J-183D01*
G01X2086230Y1035040D01*
X2082240Y1093100D01*
X2096240Y1113510D01*
X2150740Y1080980D01*
X2127200Y1055140D01*
X2126950Y1054850D01*
X2111850Y1035510D01*
X2111730Y1035360D01*
X2104070Y1024760D01*
X2103090Y1021850D01*
X2102740Y990210D01*
Y990150D01*
X2102900Y988870D01*
X2104970Y980940D01*
G03X2105980Y978970I4914J1276D01*
G01X2109720Y974470D01*
X2109070Y978340D01*
X2108060Y981650D01*
X2108310Y983680D01*
X2109330Y991300D01*
X2111110Y996890D01*
X2114660Y1004760D01*
X2122030Y1013400D01*
X2129900Y1022540D01*
X2141590Y1025080D01*
X2144380Y1024570D01*
X2155300Y1017210D01*
X2158860Y1010090D01*
X2163280Y999780D01*
X2204820Y1048360D01*
X2377950Y947240D01*
X1915050D01*
G37*
G36*
G01X2065830Y1201700D02*
X2087970Y1185890D01*
X2096580Y1205960D01*
G02X2100080Y1208900I4670J-2006D01*
G01X2137790Y1217770D01*
G02X2138450Y1217880I1162J-4935D01*
G01X2226700Y1226690D01*
X2252430Y1234370D01*
X2265700Y1247070D01*
X2180310Y1399270D01*
X2065830Y1201700D01*
G37*
G36*
G01X2262530Y1092400D02*
X2289670Y1111100D01*
X2290230Y1111550D01*
X2297290Y1118050D01*
G03X2298450Y1119630I-3439J3741D01*
G01X2305410Y1134480D01*
X2319180Y1157760D01*
X2402170Y1010400D01*
X2262530Y1092400D01*
G37*
%LPC*%
G75*
G36*
G01X2068180Y981390D02*
X2064880Y973620D01*
X2038290Y1000700D01*
X2043800Y1004760D01*
X2048880Y1006280D01*
X2056240Y1006540D01*
X2065640Y998160D01*
X2068690Y987490D01*
X2068180Y981390D01*
G37*
G36*
G01X2134230Y968410D02*
X2120660Y968110D01*
X2120500Y973520D01*
X2118470Y982150D01*
X2119230Y988760D01*
X2122790Y997900D01*
X2134470Y1012630D01*
X2140570Y1014160D01*
X2147170Y1009840D01*
X2151240Y1001200D01*
X2156130Y991420D01*
X2137980Y970190D01*
G02X2134230Y968410I-3863J3298D01*
G37*
%LPD*%
G75*
G36*
G01X2571350Y947860D02*
Y1009330D01*
X2859900D01*
Y947860D01*
X2571350D01*
G37*
G54D10*
G01X1101440Y3461900D02*
Y3538100D01*
G01X1045400Y3461900D02*
X1101440D01*
G01X938560D02*
Y3538100D01*
G01X994600Y3461900D02*
X938560D01*
G01X1101440Y3778100D02*
X1045400D01*
G01X1101440Y3701900D02*
Y3778100D01*
G01X1045400Y3701900D02*
X1101440D01*
G01X938560Y3778100D02*
X994600D01*
G01X938560Y3701900D02*
Y3778100D01*
G01X994600Y3701900D02*
X938560D01*
G01X1101440Y3538100D02*
X1045400D01*
G01X938560D02*
X994600D01*
G01X3999660Y5606850D02*
X4055700D01*
G01X3999660Y5683050D02*
Y5606850D01*
G01X4055700Y5683050D02*
X3999660D01*
G01X4162540Y5606850D02*
X4106500D01*
G01X4162540Y5683050D02*
Y5606850D01*
G01X4106500Y5683050D02*
X4162540D01*
G01X4374060Y3859160D02*
X4318020D01*
G01X4374060Y3782960D02*
Y3859160D01*
G01X4318020Y3782960D02*
X4374060D01*
G01X4211180Y3859160D02*
X4267220D01*
G01X4211180Y3782960D02*
Y3859160D01*
G01X4267220Y3782960D02*
X4211180D01*
G01X4447800Y4486430D02*
Y4562630D01*
G01X4391760Y4486430D02*
X4447800D01*
G01X4284920D02*
Y4562630D01*
G01X4340960Y4486430D02*
X4284920D01*
G01X4285420Y4390920D02*
X4341460D01*
G01X4285420Y4467120D02*
Y4390920D01*
G01X4341460Y4467120D02*
X4285420D01*
G01X4448300Y4390920D02*
X4392260D01*
G01X4448300Y4467120D02*
Y4390920D01*
G01X4392260Y4467120D02*
X4448300D01*
G01X4447800Y4562630D02*
X4391760D01*
G01X4284920D02*
X4340960D01*
G01X4646200Y5204260D02*
Y5260300D01*
G01X4722400Y5204260D02*
X4646200D01*
G01X4722400Y5260300D02*
Y5204260D01*
G01X4552860Y5377600D02*
X4608900D01*
G01X4552860Y5453800D02*
Y5377600D01*
G01X4608900Y5453800D02*
X4552860D01*
G01X4715740Y5377600D02*
X4659700D01*
G01X4715740Y5453800D02*
Y5377600D01*
G01X4659700Y5453800D02*
X4715740D01*
G01X4646200Y5367140D02*
Y5311100D01*
G01X4722400Y5367140D02*
X4646200D01*
G01X4722400Y5311100D02*
Y5367140D01*
G01X5214700Y6581260D02*
Y6637300D01*
G01X5138500Y6581260D02*
X5214700D01*
G01X5138500Y6637300D02*
Y6581260D01*
G01X5214700Y6744140D02*
Y6688100D01*
G01X5138500Y6744140D02*
X5214700D01*
G01X5138500Y6688100D02*
Y6744140D01*
G01X5392860Y5407600D02*
X5448900D01*
G01X5392860Y5483800D02*
Y5407600D01*
G01X5448900Y5483800D02*
X5392860D01*
G01X5555740Y5407600D02*
X5499700D01*
G01Y5483800D02*
X5555740D01*
G01X5392860Y5307600D02*
X5448900D01*
G01X5392860Y5383800D02*
Y5307600D01*
G01X5448900Y5383800D02*
X5392860D01*
G01X5555740Y5307600D02*
X5499700D01*
G01Y5383800D02*
X5555740D01*
G01X5543100Y6710760D02*
X5619300D01*
G01X5543100Y6766800D02*
Y6710760D01*
G01Y6873640D02*
X5619300D01*
G01X5543100Y6817600D02*
Y6873640D01*
G01X5363100D02*
Y6817600D01*
G01X5439300Y6873640D02*
X5363100D01*
G01X5439300Y6817600D02*
Y6873640D01*
G01X5363100Y6710760D02*
Y6766800D01*
G01X5439300Y6710760D02*
X5363100D01*
G01X5439300Y6766800D02*
Y6710760D01*
G01X5453100Y6873640D02*
Y6817600D01*
G01X5529300Y6873640D02*
X5453100D01*
G01X5529300Y6817600D02*
Y6873640D01*
G01X5453100Y6710760D02*
Y6766800D01*
G01X5529300Y6710760D02*
X5453100D01*
G01X5529300Y6766800D02*
Y6710760D01*
G01X5655150Y3850510D02*
Y3906550D01*
G01X5578950Y3850510D02*
X5655150D01*
G01X5578950Y3906550D02*
Y3850510D01*
G01X5655150Y4013390D02*
Y3957350D01*
G01X5578950Y4013390D02*
X5655150D01*
G01X5578950Y3957350D02*
Y4013390D01*
G01X5801200Y3964810D02*
Y4020850D01*
G01X5725000Y3964810D02*
X5801200D01*
G01X5725000Y4020850D02*
Y3964810D01*
G01X5801200Y4127690D02*
Y4071650D01*
G01X5725000Y4127690D02*
X5801200D01*
G01X5725000Y4071650D02*
Y4127690D01*
G01X5555740Y5483800D02*
Y5407600D01*
G01Y5383800D02*
Y5307600D01*
G01X5619300Y6710760D02*
Y6766800D01*
G01Y6873640D02*
Y6817600D01*
G01X6192090Y4810710D02*
X6248130D01*
G01X6192090Y4734510D02*
Y4810710D01*
G01X6248130Y4734510D02*
X6192090D01*
G01X6196100Y6588560D02*
Y6644600D01*
G01X6119900Y6588560D02*
X6196100D01*
G01X6119900Y6644600D02*
Y6588560D01*
G01X6196100Y6751440D02*
Y6695400D01*
G01X6119900Y6751440D02*
X6196100D01*
G01X6119900Y6695400D02*
Y6751440D01*
G01X6209900D02*
Y6695400D01*
G01X6286100Y6751440D02*
X6209900D01*
G01Y6588560D02*
Y6644600D01*
G01X6286100Y6588560D02*
X6209900D01*
G01X6354970Y4810710D02*
X6298930D01*
G01X6354970Y4734510D02*
Y4810710D01*
G01X6298930Y4734510D02*
X6354970D01*
G01X6466100Y6588560D02*
Y6644600D01*
G01X6389900Y6588560D02*
X6466100D01*
G01X6389900Y6644600D02*
Y6588560D01*
G01X6466100Y6751440D02*
Y6695400D01*
G01X6389900Y6751440D02*
X6466100D01*
G01X6389900Y6695400D02*
Y6751440D01*
G01X6299900D02*
Y6695400D01*
G01X6376100Y6751440D02*
X6299900D01*
G01X6376100Y6695400D02*
Y6751440D01*
G01X6299900Y6588560D02*
Y6644600D01*
G01X6376100Y6588560D02*
X6299900D01*
G01X6376100Y6644600D02*
Y6588560D01*
G01X6286100Y6695400D02*
Y6751440D01*
G01Y6644600D02*
Y6588560D01*
G01X7390660Y2889800D02*
X7446700D01*
G01X7390660Y2966000D02*
Y2889800D01*
G01X7446700Y2966000D02*
X7390660D01*
G01X7553540Y2889800D02*
X7497500D01*
G01X7553540Y2966000D02*
Y2889800D01*
G01X7497500Y2966000D02*
X7553540D01*
G01X7758940Y3311200D02*
X7702900D01*
G01X7758940Y3235000D02*
Y3311200D01*
G01X7702900Y3235000D02*
X7758940D01*
G01X7596060Y3311200D02*
X7652100D01*
G01X7596060Y3235000D02*
Y3311200D01*
G01X7652100Y3235000D02*
X7596060D01*
G01X10224160Y3779700D02*
X10280200D01*
G01X10224160Y3855900D02*
Y3779700D01*
G01X10280200Y3855900D02*
X10224160D01*
G01Y4059700D02*
X10280200D01*
G01X10224160Y4135900D02*
Y4059700D01*
G01X10280200Y4135900D02*
X10224160D01*
G01Y3969700D02*
X10280200D01*
G01X10224160Y4045900D02*
Y3969700D01*
G01X10280200Y4045900D02*
X10224160D01*
G01Y3869700D02*
X10280200D01*
G01X10224160Y3945900D02*
Y3869700D01*
G01X10280200Y3945900D02*
X10224160D01*
G01Y4469700D02*
X10280200D01*
G01X10224160Y4545900D02*
Y4469700D01*
G01Y4749700D02*
X10280200D01*
G01X10224160Y4825900D02*
Y4749700D01*
G01X10280200Y4825900D02*
X10224160D01*
G01Y4659700D02*
X10280200D01*
G01X10224160Y4735900D02*
Y4659700D01*
G01X10280200Y4735900D02*
X10224160D01*
G01X10225160Y4565800D02*
X10281200D01*
G01X10225160Y4642000D02*
Y4565800D01*
G01X10281200Y4642000D02*
X10225160D01*
G01X10280200Y4545900D02*
X10224160D01*
G01X10127460Y5174200D02*
X10183500D01*
G01X10127460Y5250400D02*
Y5174200D01*
G01X10290340D02*
X10234300D01*
G01X10290340Y5250400D02*
Y5174200D01*
G01X10127460Y5084200D02*
X10183500D01*
G01X10127460Y5160400D02*
Y5084200D01*
G01X10183500Y5160400D02*
X10127460D01*
G01X10290340Y5084200D02*
X10234300D01*
G01X10290340Y5160400D02*
Y5084200D01*
G01X10234300Y5160400D02*
X10290340D01*
G01X10214160Y5359700D02*
X10270200D01*
G01X10214160Y5435900D02*
Y5359700D01*
G01X10270200Y5435900D02*
X10214160D01*
G01Y5269700D02*
X10270200D01*
G01X10214160Y5345900D02*
Y5269700D01*
G01X10270200Y5345900D02*
X10214160D01*
G01X10183500Y5250400D02*
X10127460D01*
G01X10234300D02*
X10290340D01*
G01X10387040Y3779700D02*
X10331000D01*
G01X10387040Y3855900D02*
Y3779700D01*
G01X10331000Y3855900D02*
X10387040D01*
G01Y4059700D02*
X10331000D01*
G01X10387040Y4135900D02*
Y4059700D01*
G01X10331000Y4135900D02*
X10387040D01*
G01Y3969700D02*
X10331000D01*
G01X10387040Y4045900D02*
Y3969700D01*
G01X10331000Y4045900D02*
X10387040D01*
G01Y3869700D02*
X10331000D01*
G01X10387040Y3945900D02*
Y3869700D01*
G01X10331000Y3945900D02*
X10387040D01*
G01Y4469700D02*
X10331000D01*
G01X10387040Y4545900D02*
Y4469700D01*
G01Y4749700D02*
X10331000D01*
G01X10387040Y4825900D02*
Y4749700D01*
G01X10331000Y4825900D02*
X10387040D01*
G01Y4659700D02*
X10331000D01*
G01X10387040Y4735900D02*
Y4659700D01*
G01X10331000Y4735900D02*
X10387040D01*
G01X10388040Y4565800D02*
X10332000D01*
G01X10388040Y4642000D02*
Y4565800D01*
G01X10332000Y4642000D02*
X10388040D01*
G01X10331000Y4545900D02*
X10387040D01*
G01X10377040Y5359700D02*
X10321000D01*
G01X10377040Y5435900D02*
Y5359700D01*
G01X10321000Y5435900D02*
X10377040D01*
G01Y5269700D02*
X10321000D01*
G01X10377040Y5345900D02*
Y5269700D01*
G01X10321000Y5345900D02*
X10377040D01*
G01X13401900Y5411440D02*
Y5355400D01*
G01X13478100Y5411440D02*
X13401900D01*
G01X13478100Y5355400D02*
Y5411440D01*
G01X13401900Y5248560D02*
Y5304600D01*
G01X13478100Y5248560D02*
X13401900D01*
G01X13478100Y5304600D02*
Y5248560D01*
G54D20*
G01X3266360Y1407490D02*
Y1463370D01*
G01X3368850Y1407490D02*
Y1478230D01*
G01X3412130Y1407490D02*
X3368850D01*
G01X3432340Y1442630D02*
G02X3412130Y1407490I-40660J3D01*
G01Y1477770D02*
G02X3432340Y1442630I-20452J-35144D01*
G01X3368850Y1478230D02*
G02X3412130Y1477770I21008J-59688D01*
G01X3368850Y1535760D02*
Y1477590D01*
G01X3266360Y1535760D02*
Y1463370D01*
G01X3294380D02*
G03X3330570Y1499570I0J36190D01*
G01X3266360Y1463370D02*
X3294380D01*
G01Y1535760D02*
X3266360D01*
G01X3330570Y1499570D02*
G03X3294380Y1535760I-36193J-3D01*
G54D11*
G01X11618000Y3250000D02*
Y3000000D01*
X11318000D01*
Y5300000D01*
X11618000D01*
Y5050000D01*
G01Y3250000D02*
X11708000Y3350000D01*
G01Y4950000D02*
X11618000Y5050000D01*
G54D21*
G01X2708320Y1310210D02*
G03X2712130I1905J-4D01*
G03X2708320I-1905J-4D01*
G01X2703840Y1304460D02*
G03X2707650I1905J-6D01*
G03X2703840I-1905J-6D01*
G01D02*
G03X2707650I1905J-6D01*
G03X2703840I-1905J-6D01*
G01X2709590Y1298520D02*
G03X2713400I1905J-2D01*
G03X2709590I-1905J-2D01*
G01D02*
G03X2713400I1905J-2D01*
G03X2709590I-1905J-2D01*
G01X2749880D02*
G03X2753690I1905J-2D01*
G03X2749880I-1905J-2D01*
G01D02*
G03X2753690I1905J-2D01*
G03X2749880I-1905J-2D01*
G01X2756020Y1305040D02*
G03X2759830I1905J-3D01*
G03X2756020I-1905J-3D01*
G01D02*
G03X2759830I1905J-3D01*
G03X2756020I-1905J-3D01*
G01X2748360Y1311480D02*
G03X2752170I1905J-4D01*
G03X2748360I-1905J-4D01*
G01D02*
G03X2752170I1905J-4D01*
G03X2748360I-1905J-4D01*
G01X2708570D02*
G03X2712380I1905J-4D01*
G03X2708570I-1905J-4D01*
G54D12*
G01X-1000Y3164000D02*
X734000D01*
G01X-1000Y4058000D02*
Y3164000D01*
G01X734000Y4058000D02*
X-1000D01*
G01X171470Y4202520D02*
X177820Y4197230D01*
X185220Y4194060D01*
X194750Y4193000D01*
X204280Y4195120D01*
X211680Y4199350D01*
X216980Y4206760D01*
X218030Y4215220D01*
X215920Y4223690D01*
X210620Y4228980D01*
X203220Y4233220D01*
X195810Y4234270D01*
X188400Y4233220D01*
X178880Y4228980D01*
X182050Y4256500D01*
X210620D01*
G01X241950D02*
X268410Y4193000D01*
X294870Y4256500D01*
G01X403030D02*
X428430D01*
G01X415730D02*
Y4193000D01*
G01X403030D02*
X428430D01*
G01X465050D02*
Y4256500D01*
X513730Y4193000D01*
Y4256500D01*
G01X541880Y4193000D02*
Y4256500D01*
X567280D01*
X575750Y4253320D01*
X582100Y4245920D01*
X584220Y4237450D01*
X582100Y4228980D01*
X576810Y4222630D01*
X567280Y4219460D01*
X541880D01*
G01X613430Y4256500D02*
Y4210990D01*
X617660Y4201460D01*
X626130Y4195120D01*
X636710Y4193000D01*
X647290Y4195120D01*
X655760Y4201460D01*
X659990Y4210990D01*
Y4256500D01*
G01X710370D02*
Y4193000D01*
G01X686030Y4256500D02*
X734710D01*
G01X734000Y3164000D02*
Y4057500D01*
G01X887000Y3312000D02*
X967000D01*
G01Y3327000D02*
Y3257000D01*
G01X887000Y3327000D02*
X967000D01*
G01X887000Y3257000D02*
Y3327000D01*
G01X967000Y3257000D02*
X887000D01*
G01X1355000Y3270000D02*
X1205000D01*
G01D02*
Y3440000D01*
G01D02*
X1355000D01*
G01D02*
Y3270000D01*
G01X1333000D02*
Y3440000D01*
G01X1618100Y3328720D02*
Y3374600D01*
G01X1607940Y3318560D02*
X1618100Y3328720D01*
G01X1552060Y3318560D02*
X1607940D01*
G01X1541900Y3328720D02*
X1552060Y3318560D01*
G01X1541900Y3374600D02*
Y3328720D01*
G01X1618100Y3470950D02*
Y3425400D01*
G01X1607610Y3481440D02*
X1618100Y3470950D01*
G01X1552030Y3481440D02*
X1607610D01*
G01X1541900Y3471280D02*
X1552030Y3481440D01*
G01X1541900Y3425400D02*
Y3471280D01*
G01X2628940Y1373960D02*
X2645960Y1384380D01*
G01D02*
X2658660Y1390730D01*
G01D02*
X2672630Y1394540D01*
G01D02*
X2687620Y1398090D01*
G01D02*
X2707180Y1400890D01*
G01D02*
X2721910Y1402160D01*
G01D02*
X2741210Y1401650D01*
G01D02*
X2759750Y1400380D01*
G01D02*
X2778550Y1397330D01*
G01D02*
X2794300Y1393770D01*
G01D02*
X2810810Y1388440D01*
G01D02*
X2825290Y1381580D01*
G01D02*
X2828330Y1379550D01*
G01X3045000Y936320D02*
Y1218260D01*
G01X3626660Y936320D02*
X3045000D01*
G01Y1218260D02*
X3626660D01*
G01D02*
Y936320D01*
G01X3863000Y5533070D02*
X3776640D01*
G01D02*
X3758860Y5515290D01*
G01D02*
Y5411150D01*
G01D02*
X3779180Y5390830D01*
G01D02*
X3863000D01*
G01X3762700Y6010120D02*
Y5835120D01*
G01D02*
X4067700D01*
G01X3789970Y5607350D02*
X3835850D01*
G01X3779810Y5617510D02*
X3789970Y5607350D01*
G01X3779810Y5673390D02*
Y5617510D01*
G01X3789970Y5683550D02*
X3779810Y5673390D01*
G01X3835850Y5683550D02*
X3789970D01*
G01X4067700Y6010120D02*
X3762700D01*
G01X3799970Y6177350D02*
X3845850D01*
G01X3789810Y6187510D02*
X3799970Y6177350D01*
G01X3789810Y6243390D02*
Y6187510D01*
G01X3551290Y6606700D02*
X3577750Y6543200D01*
X3604210Y6606700D01*
G01X3628130Y6543200D02*
Y6606700D01*
X3649290D01*
X3657760Y6603520D01*
X3664110Y6599290D01*
X3669400Y6592940D01*
X3673640Y6585530D01*
X3674690Y6574950D01*
X3673640Y6564370D01*
X3669400Y6556960D01*
X3664110Y6550610D01*
X3657760Y6546370D01*
X3649290Y6543200D01*
X3628130D01*
G01X3701790D02*
Y6606700D01*
X3722950D01*
X3731420Y6603520D01*
X3737770Y6599290D01*
X3743060Y6592940D01*
X3747300Y6585530D01*
X3748350Y6574950D01*
X3747300Y6564370D01*
X3743060Y6556960D01*
X3737770Y6550610D01*
X3731420Y6546370D01*
X3722950Y6543200D01*
X3701790D01*
G01X3799970Y6253550D02*
X3789810Y6243390D01*
G01X3845850Y6253550D02*
X3799970D01*
G01X3873000Y6426070D02*
X3786640D01*
G01D02*
X3768860Y6408290D01*
G01D02*
Y6304150D01*
G01D02*
X3789180Y6283830D01*
G01D02*
X3873000D01*
G01X3939200Y5533070D02*
X4025560D01*
G01D02*
X4043340Y5515290D01*
G01D02*
Y5411150D01*
G01D02*
X4023020Y5390830D01*
G01D02*
X3939200D01*
G01X4067700Y5835120D02*
Y6010120D01*
G01X3932200Y5607350D02*
X3886650D01*
G01X3942690Y5617840D02*
X3932200Y5607350D01*
G01X3942690Y5673420D02*
Y5617840D01*
G01X3932530Y5683550D02*
X3942690Y5673420D01*
G01X3886650Y5683550D02*
X3932530D01*
G01X3942200Y6177350D02*
X3896650D01*
G01X3952690Y6187840D02*
X3942200Y6177350D01*
G01X3952690Y6243420D02*
Y6187840D01*
G01X3942530Y6253550D02*
X3952690Y6243420D01*
G01X3896650Y6253550D02*
X3942530D01*
G01X3949200Y6426070D02*
X4035560D01*
G01D02*
X4053340Y6408290D01*
G01D02*
Y6304150D01*
G01D02*
X4033020Y6283830D01*
G01D02*
X3949200D01*
G01X4552380Y3861030D02*
X4506500D01*
G01Y3784830D02*
X4552380D01*
G01X4410150Y3861030D02*
X4455700D01*
G01X4399660Y3850540D02*
X4410150Y3861030D01*
G01X4399660Y3794960D02*
Y3850540D01*
G01X4409820Y3784830D02*
X4399660Y3794960D01*
G01X4455700Y3784830D02*
X4409820D01*
G01X4480710Y3607660D02*
X4567070D01*
G01X4564530Y3749900D02*
X4480710D01*
G01X4404510Y3607660D02*
X4318150D01*
G01D02*
X4300370Y3625440D01*
G01D02*
Y3729580D01*
G01D02*
X4320690Y3749900D01*
G01D02*
X4404510D01*
G01X4285150Y4019270D02*
X4590150D01*
G01X4285150Y4194270D02*
Y4019270D01*
G01X4590150Y4194270D02*
X4285150D01*
G01X4560200Y4849080D02*
X4473840D01*
G01D02*
X4456060Y4866860D01*
G01D02*
Y4971000D01*
G01D02*
X4476380Y4991320D01*
G01D02*
X4560200D01*
G01X4556200Y5586330D02*
X4469840D01*
G01D02*
X4452060Y5604110D01*
G01D02*
Y5708250D01*
G01D02*
X4472380Y5728570D01*
G01D02*
X4556200D01*
G01X4562540Y3850870D02*
X4552380Y3861030D01*
G01X4562540Y3794990D02*
Y3850870D01*
G01X4552380Y3784830D02*
X4562540Y3794990D01*
G01X4567070Y3607660D02*
X4584850Y3625440D01*
G01D02*
Y3729580D01*
G01D02*
X4564530Y3749900D01*
G01X4590150Y4019270D02*
Y4194270D01*
G01X4654610Y3935440D02*
Y4235440D01*
G01X4954610Y3935440D02*
X4654610D01*
G01X4613280Y4315060D02*
Y4655060D01*
G01X4753280Y4315060D02*
Y4655060D01*
G01X4654610Y4235440D02*
X4954610D01*
G01X4707640Y4800100D02*
X4661760D01*
G01X4717800Y4789940D02*
X4707640Y4800100D01*
G01X4717800Y4734060D02*
Y4789940D01*
G01X4707640Y4723900D02*
X4717800Y4734060D01*
G01X4661760Y4723900D02*
X4707640D01*
G01X4565410Y4800100D02*
X4610960D01*
G01X4554920Y4789610D02*
X4565410Y4800100D01*
G01X4554920Y4734030D02*
Y4789610D01*
G01X4565080Y4723900D02*
X4554920Y4734030D01*
G01X4610960Y4723900D02*
X4565080D01*
G01X4636400Y4849080D02*
X4722760D01*
G01D02*
X4740540Y4866860D01*
G01D02*
Y4971000D01*
G01X4753280Y4675060D02*
X4613280D01*
G01X4765590Y5091800D02*
X4792050Y5155300D01*
X4818510Y5091800D01*
G01X4808980Y5114020D02*
X4775120D01*
G01X4839250Y5155300D02*
X4865710Y5091800D01*
X4892170Y5155300D01*
G01X4916090Y5091800D02*
Y5155300D01*
X4937250D01*
X4945720Y5152120D01*
X4952070Y5147890D01*
X4957360Y5141540D01*
X4961600Y5134130D01*
X4962650Y5123550D01*
X4961600Y5112970D01*
X4957360Y5105560D01*
X4952070Y5099210D01*
X4945720Y5094970D01*
X4937250Y5091800D01*
X4916090D01*
G01X4989750D02*
Y5155300D01*
X5010910D01*
X5019380Y5152120D01*
X5025730Y5147890D01*
X5031020Y5141540D01*
X5035260Y5134130D01*
X5036310Y5123550D01*
X5035260Y5112970D01*
X5031020Y5105560D01*
X5025730Y5099210D01*
X5019380Y5094970D01*
X5010910Y5091800D01*
X4989750D01*
G01X4740540Y4971000D02*
X4720220Y4991320D01*
G01D02*
X4636400D01*
G01X4705580Y5553800D02*
X4659700D01*
G01X4715740Y5543640D02*
X4705580Y5553800D01*
G01X4715740Y5487760D02*
Y5543640D01*
G01X4705580Y5477600D02*
X4715740Y5487760D01*
G01X4659700Y5477600D02*
X4705580D01*
G01X4563350Y5553800D02*
X4608900D01*
G01X4552860Y5543310D02*
X4563350Y5553800D01*
G01X4552860Y5487730D02*
Y5543310D01*
G01X4563020Y5477600D02*
X4552860Y5487730D01*
G01X4608900Y5477600D02*
X4563020D01*
G01X4751290Y5829600D02*
X4777750Y5766100D01*
X4804210Y5829600D01*
G01X4874690Y5824310D02*
X4868340Y5827480D01*
X4860940Y5829600D01*
X4852470D01*
X4842940Y5826420D01*
X4835540Y5821130D01*
X4830240Y5814780D01*
X4826010Y5804200D01*
X4824950Y5794670D01*
X4827070Y5785150D01*
X4830240Y5778800D01*
X4836590Y5772450D01*
X4844000Y5768220D01*
X4851410Y5766100D01*
X4858820D01*
X4866230Y5768220D01*
X4872580Y5771390D01*
X4877870Y5775620D01*
G01X4925070Y5766100D02*
X4916600Y5767160D01*
X4909200Y5771390D01*
X4902840Y5777740D01*
X4898610Y5785150D01*
X4896490Y5793620D01*
Y5802080D01*
X4898610Y5810550D01*
X4902840Y5817960D01*
X4909200Y5824310D01*
X4916600Y5828540D01*
X4925070Y5829600D01*
X4933540Y5828540D01*
X4940940Y5824310D01*
X4947300Y5817960D01*
X4951530Y5810550D01*
X4953650Y5802080D01*
Y5793620D01*
X4951530Y5785150D01*
X4947300Y5777740D01*
X4940940Y5771390D01*
X4933540Y5767160D01*
X4925070Y5766100D01*
G01X4971210D02*
Y5829600D01*
X4998730Y5776680D01*
X5026250Y5829600D01*
Y5766100D01*
G01X4632400Y5586330D02*
X4718760D01*
G01D02*
X4736540Y5604110D01*
G01D02*
Y5708250D01*
G01D02*
X4716220Y5728570D01*
G01D02*
X4632400D01*
G01X5210500Y4082900D02*
Y3742900D01*
G01Y3722900D02*
X5350500D01*
G01X5176290Y4176260D02*
Y4232140D01*
G01X5166130Y4166100D02*
X5176290Y4176260D01*
G01X5120250Y4166100D02*
X5166130D01*
G01X5013410Y4176230D02*
Y4231810D01*
G01X5023570Y4166100D02*
X5013410Y4176230D01*
G01X5069450Y4166100D02*
X5023570D01*
G01X5210500Y4482950D02*
Y4142950D01*
G01Y4122950D02*
X5350500D01*
G01X4954610Y4235440D02*
Y3935440D01*
G01X5166130Y4242300D02*
X5120250D01*
G01X5176290Y4232140D02*
X5166130Y4242300D01*
G01X5023900D02*
X5069450D01*
G01X5013410Y4231810D02*
X5023900Y4242300D01*
G01X5056200Y4788350D02*
Y4833900D01*
G01X5066690Y4777860D02*
X5056200Y4788350D01*
G01X5122270Y4777860D02*
X5066690D01*
G01X5132400Y4788020D02*
X5122270Y4777860D01*
G01X5132400Y4833900D02*
Y4788020D01*
G01X5209550Y4954800D02*
Y4614800D01*
G01Y4594800D02*
X5349550D01*
G01X5056200Y4930580D02*
Y4884700D01*
G01X5066360Y4940740D02*
X5056200Y4930580D01*
G01X5122240Y4940740D02*
X5066360D01*
G01X5132400Y4930580D02*
X5122240Y4940740D01*
G01X5132400Y4884700D02*
Y4930580D01*
G01X5209550Y5361200D02*
Y5021200D01*
G01Y5001200D02*
X5349550D01*
G01X5208780Y5484200D02*
Y5397840D01*
G01D02*
X5226560Y5380060D01*
G01X5208780Y5560400D02*
Y5646760D01*
G01D02*
X5226560Y5664540D01*
G01X5393530Y3887500D02*
Y3801140D01*
G01D02*
X5411310Y3783360D01*
G01D02*
X5515450D01*
G01D02*
X5535770Y3803680D01*
G01D02*
Y3887500D01*
G01X5350500Y4082900D02*
Y3742900D01*
G01X5393530Y3963700D02*
Y4050060D01*
G01D02*
X5411310Y4067840D01*
G01D02*
X5515450D01*
G01D02*
X5535770Y4047520D01*
G01D02*
Y3963700D01*
G01X5350500Y4482950D02*
Y4142950D01*
G01X5349550Y4954800D02*
Y4614800D01*
G01Y5361200D02*
Y5021200D01*
G01X5226560Y5380060D02*
X5330700D01*
G01D02*
X5351020Y5400380D01*
G01D02*
Y5484200D01*
G01X5226560Y5664540D02*
X5330700D01*
G01D02*
X5351020Y5644220D01*
G01D02*
Y5560400D01*
G01X5273100Y6863480D02*
Y6817600D01*
G01X5283260Y6873640D02*
X5273100Y6863480D01*
G01X5339140Y6873640D02*
X5283260D01*
G01X5349300Y6863480D02*
X5339140Y6873640D01*
G01X5349300Y6817600D02*
Y6863480D01*
G01X5273100Y6721250D02*
Y6766800D01*
G01X5283590Y6710760D02*
X5273100Y6721250D01*
G01X5339170Y6710760D02*
X5283590D01*
G01X5349300Y6720920D02*
X5339170Y6710760D01*
G01X5349300Y6766800D02*
Y6720920D01*
G01X5800700Y4184670D02*
Y4230550D01*
G01X5790540Y4174510D02*
X5800700Y4184670D01*
G01X5734660Y4174510D02*
X5790540D01*
G01X5724500Y4184670D02*
X5734660Y4174510D01*
G01X5724500Y4230550D02*
Y4184670D01*
G01X5855810Y4178330D02*
X5985350D01*
G01X5843110Y4191030D02*
X5855810Y4178330D01*
G01X5843110Y4312950D02*
Y4191030D01*
G01X5557050Y4194850D02*
Y4354850D01*
G01X5677050D02*
Y4194850D01*
G01D02*
X5557050D01*
G01X5800700Y4326900D02*
Y4281350D01*
G01X5790210Y4337390D02*
X5800700Y4326900D01*
G01X5734630Y4337390D02*
X5790210D01*
G01X5724500Y4327230D02*
X5734630Y4337390D01*
G01X5724500Y4281350D02*
Y4327230D01*
G01X5843110Y4511070D02*
Y4389150D01*
G01X5855810Y4523770D02*
X5843110Y4511070D01*
G01X5990430Y4523770D02*
X5855810D01*
G01X5557050Y4354850D02*
X5677050D01*
G01X5557050Y4222350D02*
X5677050D01*
G01X5626700Y5216830D02*
Y5170950D01*
G01X5636860Y5226990D02*
X5626700Y5216830D01*
G01X5702900D02*
X5692740Y5226990D01*
G01X5702900Y5170950D02*
Y5216830D01*
G01X5626700Y5074600D02*
Y5120150D01*
G01X5637190Y5064110D02*
X5626700Y5074600D01*
G01X5692770Y5064110D02*
X5637190D01*
G01X5702900Y5074270D02*
X5692770Y5064110D01*
G01X5702900Y5120150D02*
Y5074270D01*
G01X5783180Y5237620D02*
Y5153800D01*
G01X5907640Y4973460D02*
X5803500D01*
G01D02*
X5783180Y4993780D01*
G01D02*
Y5077600D01*
G01X5692740Y5226990D02*
X5636860D01*
G01X5907640Y5257940D02*
X5803500D01*
G01D02*
X5783180Y5237620D01*
G01X5724300Y5545700D02*
Y5385700D01*
G01D02*
X5604300D01*
G01D02*
Y5545700D01*
G01D02*
X5724300D01*
G01Y5518200D02*
X5604300D01*
G01X6000590Y4193570D02*
Y4312950D01*
G01X5985350Y4178330D02*
X6000590Y4193570D01*
G01X6189190Y4323800D02*
X6215650Y4260300D01*
X6242110Y4323800D01*
G01X6295660Y4292050D02*
X6316830D01*
Y4273000D01*
X6310480Y4266650D01*
X6303070Y4262420D01*
X6292490Y4260300D01*
X6281900Y4262420D01*
X6274490Y4266650D01*
X6268140Y4273000D01*
X6263910Y4280410D01*
X6261790Y4288870D01*
Y4296280D01*
X6263910Y4302630D01*
X6268140Y4310040D01*
X6274490Y4316390D01*
X6280840Y4320620D01*
X6289310Y4323800D01*
X6296720D01*
X6305180Y4321680D01*
X6311540Y4317450D01*
G01X6340740Y4260300D02*
Y4323800D01*
G01X6385200D02*
Y4260300D01*
G01Y4292050D02*
X6340740D01*
G01X6000590Y4513610D02*
X5990430Y4523770D01*
G01X6000590Y4389150D02*
Y4513610D01*
G01X5925420Y5153800D02*
Y5240160D01*
G01Y5077600D02*
Y4991240D01*
G01D02*
X5907640Y4973460D01*
G01X5934190Y5372400D02*
X5960650Y5308900D01*
X5987110Y5372400D01*
G01X6040660Y5340650D02*
X6061830D01*
Y5321600D01*
X6055480Y5315250D01*
X6048070Y5311020D01*
X6037490Y5308900D01*
X6026900Y5311020D01*
X6019490Y5315250D01*
X6013140Y5321600D01*
X6008910Y5329010D01*
X6006790Y5337470D01*
Y5344880D01*
X6008910Y5351230D01*
X6013140Y5358640D01*
X6019490Y5364990D01*
X6025840Y5369220D01*
X6034310Y5372400D01*
X6041720D01*
X6050180Y5370280D01*
X6056540Y5366050D01*
G01X6086800Y5372400D02*
Y5308900D01*
X6129140D01*
G01X5925420Y5240160D02*
X5907640Y5257940D01*
G01X6509650Y4981250D02*
Y4861250D01*
G01D02*
X6814650D01*
G01X6462630Y4743390D02*
Y4789270D01*
G01X6452470Y4733230D02*
X6462630Y4743390D01*
G01X6396590Y4733230D02*
X6452470D01*
G01X6386430Y4743390D02*
X6396590Y4733230D01*
G01X6386430Y4789270D02*
Y4743390D01*
G01X6462630Y4885620D02*
Y4840070D01*
G01X6386430D02*
Y4885950D01*
G01X6814650Y4981250D02*
X6509650D01*
G01X6452140Y4896110D02*
X6462630Y4885620D01*
G01X6396560Y4896110D02*
X6452140D01*
G01X6386430Y4885950D02*
X6396560Y4896110D01*
G01X6490520Y5212900D02*
Y5317040D01*
G01X6348280D02*
Y5212900D01*
G01X6490520Y5136700D02*
Y5032560D01*
G01D02*
X6348280D01*
G01D02*
Y5136700D01*
G01X6561850Y5572080D02*
X6541530Y5551760D01*
G01D02*
Y5467940D01*
G01X6665990Y5287600D02*
X6561850D01*
G01D02*
X6541530Y5307920D01*
G01D02*
Y5391740D01*
G01X6490520Y5317040D02*
X6348280D01*
G01X6665990Y5572080D02*
X6561850D01*
G01X6965000Y2375000D02*
X6815000D01*
G01D02*
Y2545000D01*
G01X6837000D02*
Y2375000D01*
G01X6815000Y2545000D02*
X6965000D01*
G01X6815000Y2785000D02*
X6965000D01*
G01Y2615000D02*
X6815000D01*
G01D02*
Y2785000D01*
G01X6837000D02*
Y2615000D01*
G01X6855280Y4612900D02*
Y4526540D01*
G01D02*
X6873060Y4508760D01*
G01D02*
X6977200D01*
G01X6814650Y4861250D02*
Y4981250D01*
G01X6855280Y4689100D02*
Y4775460D01*
G01D02*
X6873060Y4793240D01*
G01D02*
X6977200D01*
G01X6814650Y4951250D02*
Y4891250D01*
G01D02*
X6812150D01*
G02Y4951250I14690J30000D01*
G01D02*
X6814650D01*
G01X6845180Y5071250D02*
G03I-18030J0D01*
G01X6884880Y5107430D02*
Y5407430D01*
G01X7184880Y5107430D02*
X6884880D01*
G01X6683770Y5467940D02*
Y5554300D01*
G01D02*
X6665990Y5572080D01*
G01X6683770Y5391740D02*
Y5305380D01*
G01D02*
X6665990Y5287600D01*
G01X7076860Y5442930D02*
X6736860D01*
G01X6716860Y5582930D02*
Y5442930D01*
G01X6884880Y5407430D02*
X7184880D01*
G01X7076860Y5582930D02*
X6736860D01*
G01X6915090Y7010000D02*
G03I-20090J0D01*
G01X6965000Y2545000D02*
Y2375000D01*
G01Y2785000D02*
Y2615000D01*
G01X6977200Y4508760D02*
X6997520Y4529080D01*
G01D02*
Y4612900D01*
G01X6977200Y4793240D02*
X6997520Y4772920D01*
G01D02*
Y4689100D01*
G01X7184880Y5407430D02*
Y5107430D01*
G01X8029870Y2633670D02*
G03I-20090J0D01*
G01X8867480Y651470D02*
X8872770Y657820D01*
X8875940Y665220D01*
X8877000Y674750D01*
X8874880Y684280D01*
X8870650Y691680D01*
X8863240Y696980D01*
X8854780Y698030D01*
X8846310Y695920D01*
X8841020Y690620D01*
X8836780Y683220D01*
X8835730Y675810D01*
X8836780Y668400D01*
X8841020Y658880D01*
X8813500Y662050D01*
Y690620D01*
G01Y721950D02*
X8877000Y748410D01*
X8813500Y774870D01*
G01X8845250Y1189100D02*
Y1210270D01*
X8864300D01*
X8870650Y1203920D01*
X8874880Y1196510D01*
X8877000Y1185930D01*
X8874880Y1175340D01*
X8870650Y1167930D01*
X8864300Y1161580D01*
X8856890Y1157350D01*
X8848430Y1155230D01*
X8841020D01*
X8834670Y1157350D01*
X8827260Y1161580D01*
X8820910Y1167930D01*
X8816680Y1174280D01*
X8813500Y1182750D01*
Y1190160D01*
X8815620Y1198620D01*
X8819850Y1204980D01*
G01X8877000Y1232070D02*
X8813500D01*
X8877000Y1280750D01*
X8813500D01*
G01X8877000Y1306790D02*
X8813500D01*
Y1327950D01*
X8816680Y1336420D01*
X8820910Y1342770D01*
X8827260Y1348060D01*
X8834670Y1352300D01*
X8845250Y1353350D01*
X8855830Y1352300D01*
X8863240Y1348060D01*
X8869590Y1342770D01*
X8873830Y1336420D01*
X8877000Y1327950D01*
Y1306790D01*
G01X9067500Y651470D02*
X9113010D01*
X9122540Y655700D01*
X9128880Y664170D01*
X9131000Y674750D01*
X9128880Y685330D01*
X9122540Y693800D01*
X9113010Y698030D01*
X9067500D01*
G01X9131000Y727240D02*
X9067500D01*
Y752640D01*
X9070680Y761110D01*
X9078080Y767460D01*
X9086550Y769580D01*
X9095020Y767460D01*
X9101370Y762170D01*
X9104540Y752640D01*
Y727240D01*
G01X9133120Y803020D02*
X9067500Y841120D01*
G01X9131000Y872450D02*
X9067500D01*
Y893610D01*
X9070680Y902080D01*
X9074910Y908430D01*
X9081260Y913720D01*
X9088670Y917960D01*
X9099250Y919010D01*
X9109830Y917960D01*
X9117240Y913720D01*
X9123590Y908430D01*
X9127830Y902080D01*
X9131000Y893610D01*
Y872450D01*
G01Y945050D02*
X9067500D01*
X9131000Y993730D01*
X9067500D01*
G01X9122540Y1160520D02*
X9127830Y1168990D01*
X9131000Y1178520D01*
Y1186980D01*
X9127830Y1195450D01*
X9122540Y1201800D01*
X9115120Y1204980D01*
X9107720Y1202860D01*
X9101370Y1197570D01*
X9097130Y1188040D01*
X9095020Y1175340D01*
X9090780Y1167930D01*
X9083380Y1164760D01*
X9075970Y1166880D01*
X9070680Y1172170D01*
X9067500Y1179570D01*
Y1186980D01*
X9069620Y1194390D01*
X9074910Y1200740D01*
G01X9131000Y1234180D02*
X9067500D01*
G01Y1278640D02*
X9131000D01*
G01X9099250D02*
Y1234180D01*
G01X9067500Y1308900D02*
X9131000D01*
Y1351240D01*
G01Y1382560D02*
X9067500D01*
Y1409020D01*
X9070680Y1417490D01*
X9074910Y1422780D01*
X9083380Y1424900D01*
X9091840Y1422780D01*
X9097130Y1416430D01*
X9100310Y1409020D01*
Y1382560D01*
G01Y1409020D02*
X9131000Y1424900D01*
G01X9315090Y3710000D02*
G03I-20090J0D01*
G01X9385000Y653580D02*
X9321500D01*
Y678980D01*
X9324680Y687450D01*
X9332080Y693800D01*
X9340550Y695920D01*
X9349020Y693800D01*
X9355370Y688510D01*
X9358540Y678980D01*
Y653580D01*
G01X9321500Y716660D02*
X9385000Y731480D01*
X9321500Y748410D01*
X9385000Y765340D01*
X9321500Y780160D01*
G01X9385000Y794550D02*
X9321500D01*
X9374420Y822070D01*
X9321500Y849590D01*
X9385000D01*
G01X9575500Y662050D02*
Y687450D01*
G01Y674750D02*
X9639000D01*
G01Y662050D02*
Y687450D01*
G01Y724070D02*
X9575500D01*
X9639000Y772750D01*
X9575500D01*
G01Y822070D02*
X9639000D01*
G01X9575500Y797730D02*
Y846410D01*
G01X9660170Y863980D02*
Y927480D01*
G01X9575500Y969390D02*
X9639000D01*
G01X9575500Y945050D02*
Y993730D01*
G01X9639000Y1021880D02*
X9575500D01*
Y1047280D01*
X9578680Y1055750D01*
X9586080Y1062100D01*
X9594550Y1064220D01*
X9603020Y1062100D01*
X9609370Y1056810D01*
X9612540Y1047280D01*
Y1021880D01*
G01X9385000Y1161580D02*
X9321500D01*
Y1188040D01*
X9324680Y1196510D01*
X9328910Y1201800D01*
X9337380Y1203920D01*
X9345840Y1201800D01*
X9351130Y1195450D01*
X9354310Y1188040D01*
Y1161580D01*
G01Y1188040D02*
X9385000Y1203920D01*
G01X9376540Y1234180D02*
X9381830Y1242650D01*
X9385000Y1252180D01*
Y1260640D01*
X9381830Y1269110D01*
X9376540Y1275460D01*
X9369120Y1278640D01*
X9361720Y1276520D01*
X9355370Y1271230D01*
X9351130Y1261700D01*
X9349020Y1249000D01*
X9344780Y1241590D01*
X9337380Y1238420D01*
X9329970Y1240540D01*
X9324680Y1245830D01*
X9321500Y1253230D01*
Y1260640D01*
X9323620Y1268050D01*
X9328910Y1274400D01*
G01X9321500Y1330070D02*
X9385000D01*
G01X9321500Y1305730D02*
Y1354410D01*
G01X9406170Y1371980D02*
Y1435480D01*
G01X9321500Y1456220D02*
X9385000D01*
Y1498560D01*
G01X9326790Y1574330D02*
X9323620Y1567980D01*
X9321500Y1560580D01*
Y1552110D01*
X9324680Y1542580D01*
X9329970Y1535180D01*
X9336320Y1529880D01*
X9346900Y1525650D01*
X9356430Y1524590D01*
X9365950Y1526710D01*
X9372300Y1529880D01*
X9378650Y1536230D01*
X9382880Y1543640D01*
X9385000Y1551050D01*
Y1558460D01*
X9382880Y1565870D01*
X9379710Y1572220D01*
X9375480Y1577510D01*
G01X9385000Y1601430D02*
X9321500D01*
Y1622590D01*
X9324680Y1631060D01*
X9328910Y1637410D01*
X9335260Y1642700D01*
X9342670Y1646940D01*
X9353250Y1647990D01*
X9363830Y1646940D01*
X9371240Y1642700D01*
X9377590Y1637410D01*
X9381830Y1631060D01*
X9385000Y1622590D01*
Y1601430D01*
G01X9639000Y1161580D02*
X9575500D01*
Y1188040D01*
X9578680Y1196510D01*
X9582910Y1201800D01*
X9591380Y1203920D01*
X9599840Y1201800D01*
X9605130Y1195450D01*
X9608310Y1188040D01*
Y1161580D01*
G01Y1188040D02*
X9639000Y1203920D01*
G01X9630540Y1234180D02*
X9635830Y1242650D01*
X9639000Y1252180D01*
Y1260640D01*
X9635830Y1269110D01*
X9630540Y1275460D01*
X9623120Y1278640D01*
X9615720Y1276520D01*
X9609370Y1271230D01*
X9605130Y1261700D01*
X9603020Y1249000D01*
X9598780Y1241590D01*
X9591380Y1238420D01*
X9583970Y1240540D01*
X9578680Y1245830D01*
X9575500Y1253230D01*
Y1260640D01*
X9577620Y1268050D01*
X9582910Y1274400D01*
G01X9575500Y1330070D02*
X9639000D01*
G01X9575500Y1305730D02*
Y1354410D01*
G01X9660170Y1371980D02*
Y1435480D01*
G01X9575500Y1477390D02*
X9639000D01*
G01X9575500Y1453050D02*
Y1501730D01*
G01X9639000Y1529880D02*
X9575500D01*
Y1555280D01*
X9578680Y1563750D01*
X9586080Y1570100D01*
X9594550Y1572220D01*
X9603020Y1570100D01*
X9609370Y1564810D01*
X9612540Y1555280D01*
Y1529880D01*
G01X11147080Y3486600D02*
X11101200D01*
G01X11157240Y3476440D02*
X11147080Y3486600D01*
G01X11157240Y3420560D02*
Y3476440D01*
G01X11147080Y3410400D02*
X11157240Y3420560D01*
G01X11101200Y3410400D02*
X11147080D01*
G01X11004850Y3486600D02*
X11050400D01*
G01X10994360Y3476110D02*
X11004850Y3486600D01*
G01X10994360Y3420530D02*
Y3476110D01*
G01X11004520Y3410400D02*
X10994360Y3420530D01*
G01X11050400Y3410400D02*
X11004520D01*
G01X11281760Y4930220D02*
G03I-20090J0D01*
G01X11848500Y3561750D02*
X11912000D01*
G01X11848500Y3537410D02*
Y3586090D01*
G01X11912000Y3635410D02*
X11910940Y3626940D01*
X11906710Y3619540D01*
X11900360Y3613180D01*
X11892950Y3608950D01*
X11884480Y3606830D01*
X11876020D01*
X11867550Y3608950D01*
X11860140Y3613180D01*
X11853790Y3619540D01*
X11849560Y3626940D01*
X11848500Y3635410D01*
X11849560Y3643880D01*
X11853790Y3651280D01*
X11860140Y3657640D01*
X11867550Y3661870D01*
X11876020Y3663990D01*
X11884480D01*
X11892950Y3661870D01*
X11900360Y3657640D01*
X11906710Y3651280D01*
X11910940Y3643880D01*
X11912000Y3635410D01*
G01Y3803900D02*
Y3761560D01*
X11848500D01*
Y3803900D01*
G01X11879190Y3786960D02*
Y3761560D01*
G01X11903540Y3834160D02*
X11908830Y3842630D01*
X11912000Y3852160D01*
Y3860620D01*
X11908830Y3869090D01*
X11903540Y3875440D01*
X11896120Y3878620D01*
X11888720Y3876500D01*
X11882370Y3871210D01*
X11878130Y3861680D01*
X11876020Y3848980D01*
X11871780Y3841570D01*
X11864380Y3838400D01*
X11856970Y3840520D01*
X11851680Y3845810D01*
X11848500Y3853210D01*
Y3860620D01*
X11850620Y3868030D01*
X11855910Y3874380D01*
G01X11912000Y3908880D02*
X11848500D01*
Y3934280D01*
X11851680Y3942750D01*
X11859080Y3949100D01*
X11867550Y3951220D01*
X11876020Y3949100D01*
X11882370Y3943810D01*
X11885540Y3934280D01*
Y3908880D01*
G01X11899300Y3980430D02*
X11906710Y3986780D01*
X11910940Y3995240D01*
X11912000Y4004770D01*
X11910940Y4013240D01*
X11905650Y4021700D01*
X11899300Y4026990D01*
X11892950Y4028050D01*
X11885540Y4025940D01*
X11880250Y4018530D01*
X11878130Y4011120D01*
Y4001590D01*
G01Y4011120D02*
X11874960Y4017470D01*
X11869670Y4022760D01*
X11863320Y4024880D01*
X11856970Y4022760D01*
X11851680Y4017470D01*
X11848500Y4007940D01*
X11849560Y3998420D01*
X11853790Y3988890D01*
G01X11859080Y4057260D02*
X11852730Y4063610D01*
X11849560Y4071020D01*
X11848500Y4079490D01*
X11850620Y4090070D01*
X11855910Y4097480D01*
X11862260Y4099600D01*
X11868610Y4098540D01*
X11873900Y4094300D01*
X11884480Y4073140D01*
X11891890Y4063610D01*
X11902480Y4057260D01*
X11912000Y4055140D01*
Y4099600D01*
G01X11890830Y4137270D02*
Y4164790D01*
G01X11912000Y4203520D02*
X11848500D01*
Y4228920D01*
X11851680Y4237390D01*
X11859080Y4243740D01*
X11867550Y4245860D01*
X11876020Y4243740D01*
X11882370Y4238450D01*
X11885540Y4228920D01*
Y4203520D01*
G01X11912000Y4311050D02*
X11848500D01*
X11894010Y4271890D01*
Y4324810D01*
G01X11912000Y4418150D02*
X11848500D01*
X11901420Y4445670D01*
X11848500Y4473190D01*
X11912000D01*
G01X11848500Y4506630D02*
Y4532030D01*
G01Y4519330D02*
X11912000D01*
G01Y4506630D02*
Y4532030D01*
G01Y4571820D02*
X11848500D01*
Y4597220D01*
X11851680Y4605690D01*
X11859080Y4612040D01*
X11867550Y4614160D01*
X11876020Y4612040D01*
X11882370Y4606750D01*
X11885540Y4597220D01*
Y4571820D01*
G01X11848500Y4653950D02*
Y4679350D01*
G01Y4666650D02*
X11912000D01*
G01Y4653950D02*
Y4679350D01*
G01X13125870Y5516670D02*
G03I-20090J0D01*
G01X13492400Y5401130D02*
Y5355250D01*
G01X13502560Y5411290D02*
X13492400Y5401130D01*
G01X13558440Y5411290D02*
X13502560D01*
G01X13568600Y5401130D02*
X13558440Y5411290D01*
G01X13568600Y5355250D02*
Y5401130D01*
G01X13492400Y5258900D02*
Y5304450D01*
G01X13502890Y5248410D02*
X13492400Y5258900D01*
G01X13558470Y5248410D02*
X13502890D01*
G01X13568600Y5258570D02*
X13558470Y5248410D01*
G01X13568600Y5304450D02*
Y5258570D01*
G01X100000Y0D02*
X16400000D01*
G03X16500000Y100000I0J100000D01*
G01Y9900000D01*
G03X16400000Y10000000I-100000J0D01*
G01X100000D01*
G03X0Y9900000I0J-100000D01*
G01Y100000D01*
G03X100000Y0I100000J0D01*
G01X7662000Y1437400D02*
Y542600D01*
G01D02*
X8678000D01*
G01Y1437400D02*
X7662000D01*
G01X8678000Y542600D02*
Y1437400D01*
G01X13917130Y5489190D02*
X13921190Y5483090D01*
X13926070Y5479030D01*
X13931750Y5477000D01*
X13938260Y5479030D01*
X13943130Y5483090D01*
X13948010Y5489190D01*
X13949630Y5497320D01*
Y5537960D01*
G01X13964260Y5486140D02*
X13969140Y5481060D01*
X13974830Y5478020D01*
X13982140Y5477000D01*
X13989450Y5479030D01*
X13995140Y5483090D01*
X13999210Y5490210D01*
X14000020Y5498340D01*
X13998390Y5506460D01*
X13994330Y5511540D01*
X13988640Y5515610D01*
X13982950Y5516620D01*
X13977260Y5515610D01*
X13969950Y5511540D01*
X13972390Y5537960D01*
X13994330D01*
G54D22*
G01X2626400Y1373960D02*
G03X2631480I2540J-2D01*
G03X2626400I-2540J-2D01*
G01X2643420Y1384380D02*
G03X2648500I2540J-5D01*
G03X2643420I-2540J-5D01*
G01D02*
G03X2648500I2540J-5D01*
G03X2643420I-2540J-5D01*
G01X2656120Y1390730D02*
G03X2661200I2540J-5D01*
G03X2656120I-2540J-5D01*
G01D02*
G03X2661200I2540J-5D01*
G03X2656120I-2540J-5D01*
G01X2670090Y1394540D02*
G03X2675170I2540J-5D01*
G03X2670090I-2540J-5D01*
G01D02*
G03X2675170I2540J-5D01*
G03X2670090I-2540J-5D01*
G01X2685080Y1398090D02*
G03X2690160I2540J-2D01*
G03X2685080I-2540J-2D01*
G01D02*
G03X2690160I2540J-2D01*
G03X2685080I-2540J-2D01*
G01X2704640Y1400890D02*
G03X2709720I2540J-5D01*
G03X2704640I-2540J-5D01*
G01D02*
G03X2709720I2540J-5D01*
G03X2704640I-2540J-5D01*
G01X2719370Y1402160D02*
G03X2724450I2540J-5D01*
G03X2719370I-2540J-5D01*
G01D02*
G03X2724450I2540J-5D01*
G03X2719370I-2540J-5D01*
G01X2738670Y1401650D02*
G03X2743750I2540J-4D01*
G03X2738670I-2540J-4D01*
G01D02*
G03X2743750I2540J-4D01*
G03X2738670I-2540J-4D01*
G01X2757210Y1400380D02*
G03X2762290I2540J-4D01*
G03X2757210I-2540J-4D01*
G01D02*
G03X2762290I2540J-4D01*
G03X2757210I-2540J-4D01*
G01X2776010Y1397330D02*
G03X2781090I2540J-3D01*
G03X2776010I-2540J-3D01*
G01D02*
G03X2781090I2540J-3D01*
G03X2776010I-2540J-3D01*
G01X2791760Y1393770D02*
G03X2796840I2540J-2D01*
G03X2791760I-2540J-2D01*
G01D02*
G03X2796840I2540J-2D01*
G03X2791760I-2540J-2D01*
G01X2808270Y1388440D02*
G03X2813350I2540J-3D01*
G03X2808270I-2540J-3D01*
G01D02*
G03X2813350I2540J-3D01*
G03X2808270I-2540J-3D01*
G01X2822750Y1381580D02*
G03X2827830I2540J-2D01*
G03X2822750I-2540J-2D01*
G01D02*
G03X2827830I2540J-2D01*
G03X2822750I-2540J-2D01*
G01X2825790Y1379550D02*
G03X2830870I2540J-3D01*
G03X2825790I-2540J-3D01*
G01X3042460Y936320D02*
G03X3047540I2540J-3D01*
G03X3042460I-2540J-3D01*
G01D02*
G03X3047540I2540J-3D01*
G03X3042460I-2540J-3D01*
G01Y1218260D02*
G03X3047540I2540J-3D01*
G03X3042460I-2540J-3D01*
G01D02*
G03X3047540I2540J-3D01*
G03X3042460I-2540J-3D01*
G01X3624120Y936320D02*
G03X3629200I2540J-3D01*
G03X3624120I-2540J-3D01*
G01D02*
G03X3629200I2540J-3D01*
G03X3624120I-2540J-3D01*
G01Y1218260D02*
G03X3629200I2540J-3D01*
G03X3624120I-2540J-3D01*
G01D02*
G03X3629200I2540J-3D01*
G03X3624120I-2540J-3D01*
G54D13*
G01X3442350Y1354840D02*
G03X3453780I5715J-7D01*
G03X3442350I-5715J-7D01*
G01X3241740Y1553690D02*
G03X3253170I5715J-1D01*
G03X3241740I-5715J-1D01*
G54D23*
G01X2658220Y1116660D02*
G03X2662660I2220J0D01*
G03X2658220I-2220J0D01*
G01Y1099390D02*
G03X2662660I2220J0D01*
G03X2658220I-2220J0D01*
G01D02*
G03X2662660I2220J0D01*
G03X2658220I-2220J0D01*
G01X2677770D02*
G03X2682220I2225J-9D01*
G03X2677770I-2225J-9D01*
G01D02*
G03X2682220I2225J-9D01*
G03X2677770I-2225J-9D01*
G01Y1117420D02*
G03X2682220I2225J-8D01*
G03X2677770I-2225J-8D01*
G01X2699370Y1403170D02*
G03X2703810I2220J0D01*
G03X2699370I-2220J0D01*
G01X2700130Y1410790D02*
G03X2704570I2220J0D01*
G03X2700130I-2220J0D01*
G01D02*
G03X2704570I2220J0D01*
G03X2700130I-2220J0D01*
G01X2703680Y1413840D02*
G03X2708130I2225J-8D01*
G03X2703680I-2225J-8D01*
G01D02*
G03X2708130I2225J-8D01*
G03X2703680I-2225J-8D01*
G01X2724260Y1414860D02*
G03X2728700I2220J0D01*
G03X2724260I-2220J0D01*
G01D02*
G03X2728700I2220J0D01*
G03X2724260I-2220J0D01*
G01X2738990D02*
G03X2743430I2220J0D01*
G03X2738990I-2220J0D01*
G01D02*
G03X2743430I2220J0D01*
G03X2738990I-2220J0D01*
G01X2745850Y1411810D02*
G03X2750290I2220J0D01*
G03X2745850I-2220J0D01*
G01D02*
G03X2750290I2220J0D01*
G03X2745850I-2220J0D01*
G01X2748640Y1409270D02*
G03X2753090I2225J-9D01*
G03X2748640I-2225J-9D01*
G01D02*
G03X2753090I2225J-9D01*
G03X2748640I-2225J-9D01*
G01Y1401650D02*
G03X2753090I2225J-9D01*
G03X2748640I-2225J-9D01*
G01X2835250Y1390980D02*
G03X2839700I2225J-8D01*
G03X2835250I-2225J-8D01*
G01X2832460Y1396310D02*
G03X2836910I2225J-9D01*
G03X2832460I-2225J-9D01*
G01D02*
G03X2836910I2225J-9D01*
G03X2832460I-2225J-9D01*
G01X2828900Y1398350D02*
G03X2833350I2225J-9D01*
G03X2828900I-2225J-9D01*
G01D02*
G03X2833350I2225J-9D01*
G03X2828900I-2225J-9D01*
G01X2823570Y1398090D02*
G03X2828020I2225J-8D01*
G03X2823570I-2225J-8D01*
G01D02*
G03X2828020I2225J-8D01*
G03X2823570I-2225J-8D01*
G01X2821030Y1395810D02*
G03X2825480I2225J-9D01*
G03X2821030I-2225J-9D01*
G01D02*
G03X2825480I2225J-9D01*
G03X2821030I-2225J-9D01*
G01X2819000Y1393520D02*
G03X2823440I2220J0D01*
G03X2819000I-2220J0D01*
G01D02*
G03X2823440I2220J0D01*
G03X2819000I-2220J0D01*
G01X2818740Y1390730D02*
G03X2823190I2225J-9D01*
G03X2818740I-2225J-9D01*
G01D02*
G03X2823190I2225J-9D01*
G03X2818740I-2225J-9D01*
G01Y1385390D02*
G03X2823190I2225J-8D01*
G03X2818740I-2225J-8D01*
G01X2812900Y1334340D02*
G03X2817350I2225J-9D01*
G03X2812900I-2225J-9D01*
G01X2829670D02*
G03X2834110I2220J0D01*
G03X2829670I-2220J0D01*
G01D02*
G03X2834110I2220J0D01*
G03X2829670I-2220J0D01*
G01X2835570Y1325320D02*
G03X2840010I2220J0D01*
G03X2835570I-2220J0D01*
G01D02*
G03X2840010I2220J0D01*
G03X2835570I-2220J0D01*
G01X2829670Y1316300D02*
G03X2834110I2220J0D01*
G03X2829670I-2220J0D01*
G01D02*
G03X2834110I2220J0D01*
G03X2829670I-2220J0D01*
G01X2811120D02*
G03X2815570I2225J-9D01*
G03X2811120I-2225J-9D01*
G54D14*
G01X959000Y3044790D02*
X880260D01*
Y3064260D01*
X884200Y3072050D01*
X889450Y3077890D01*
X897320Y3082760D01*
X906510Y3086660D01*
X919630Y3087630D01*
X932750Y3086660D01*
X941940Y3082760D01*
X949820Y3077890D01*
X955060Y3072050D01*
X959000Y3064260D01*
Y3044790D01*
G01X893380Y3126450D02*
X885510Y3132290D01*
X881570Y3139110D01*
X880260Y3146900D01*
X882880Y3156630D01*
X889450Y3163450D01*
X897320Y3165400D01*
X905200Y3164420D01*
X911760Y3160530D01*
X924880Y3141060D01*
X934070Y3132290D01*
X947190Y3126450D01*
X959000Y3124500D01*
Y3165400D01*
G01X1136580Y3459500D02*
Y3538240D01*
X1160920D01*
X1168710Y3534300D01*
X1173580Y3529050D01*
X1175520Y3518550D01*
X1173580Y3508060D01*
X1167730Y3501500D01*
X1160920Y3497560D01*
X1136580D01*
G01X1160920D02*
X1175520Y3459500D01*
G01X1218240Y3468680D02*
X1225050Y3462120D01*
X1232840Y3459500D01*
X1240630Y3462120D01*
X1247450Y3470000D01*
X1252320Y3481810D01*
X1254260Y3493620D01*
Y3508060D01*
X1252320Y3519870D01*
X1247450Y3530370D01*
X1241610Y3535620D01*
X1234790Y3538240D01*
X1227000Y3535620D01*
X1221160Y3530370D01*
X1217260Y3522490D01*
X1215320Y3511990D01*
X1217260Y3502810D01*
X1222130Y3493620D01*
X1227970Y3488370D01*
X1234790Y3487060D01*
X1242580Y3489680D01*
X1248420Y3496240D01*
X1254260Y3508060D01*
G01X896750Y3858580D02*
X904630Y3863450D01*
X909880Y3869290D01*
X912500Y3876100D01*
X909880Y3883890D01*
X904630Y3889730D01*
X896750Y3895580D01*
X886250Y3897520D01*
X833760D01*
G01X912500Y3956790D02*
X833760D01*
X849510Y3945110D01*
G01X912500D02*
Y3968470D01*
G01X1127580Y3698500D02*
Y3777240D01*
X1151920D01*
X1159710Y3773300D01*
X1164580Y3768050D01*
X1166520Y3757550D01*
X1164580Y3747060D01*
X1158730Y3740500D01*
X1151920Y3736560D01*
X1127580D01*
G01X1151920D02*
X1166520Y3698500D01*
G01X1225790D02*
X1232610Y3699810D01*
X1240390Y3703750D01*
X1245260Y3710310D01*
X1247210Y3719500D01*
X1245260Y3728680D01*
X1239420Y3736560D01*
X1230660Y3740500D01*
X1220920D01*
X1215080Y3743120D01*
X1210210Y3749680D01*
X1208260Y3758870D01*
X1211190Y3768050D01*
X1218000Y3774620D01*
X1225790Y3777240D01*
X1233580Y3774620D01*
X1240390Y3768050D01*
X1243320Y3758870D01*
X1241370Y3749680D01*
X1236500Y3743120D01*
X1230660Y3740500D01*
X1220920D01*
X1212160Y3736560D01*
X1206320Y3728680D01*
X1204370Y3719500D01*
X1206320Y3710310D01*
X1211190Y3703750D01*
X1218970Y3699810D01*
X1225790Y3698500D01*
G01X1232650Y3153740D02*
Y3232480D01*
X1252120D01*
X1259910Y3228540D01*
X1265750Y3223290D01*
X1270620Y3215420D01*
X1274520Y3206230D01*
X1275490Y3193110D01*
X1274520Y3179990D01*
X1270620Y3170800D01*
X1265750Y3162920D01*
X1259910Y3157680D01*
X1252120Y3153740D01*
X1232650D01*
G01X1332810D02*
Y3232480D01*
X1321130Y3216730D01*
G01Y3153740D02*
X1344490D01*
G01X1897930Y611700D02*
X1833590D01*
Y738700D01*
X1897930D01*
G01X1872190Y677320D02*
X1833590D01*
G01X1961520Y628630D02*
X1974390Y618050D01*
X1988870Y611700D01*
X2001730D01*
X2014600Y618050D01*
X2024260Y628630D01*
X2029080Y643450D01*
X2025870Y658260D01*
X2017820Y670970D01*
X2003340Y679430D01*
X1984040Y683670D01*
X1972780Y692130D01*
X1967950Y706950D01*
X1971170Y721770D01*
X1979210Y732350D01*
X1990470Y738700D01*
X2001730D01*
X2013000Y734470D01*
X2022650Y723880D01*
G01X2092670Y611700D02*
Y738700D01*
X2131270D01*
X2144140Y732350D01*
X2153800Y717530D01*
X2157010Y700600D01*
X2153800Y683670D01*
X2145750Y670970D01*
X2131270Y664610D01*
X2092670D01*
G01X2218990Y637100D02*
X2228640Y622280D01*
X2241510Y613820D01*
X2255990Y611700D01*
X2268860Y613820D01*
X2281730Y624400D01*
X2289770Y637100D01*
X2291380Y649800D01*
X2288160Y664610D01*
X2276900Y675200D01*
X2265640Y679430D01*
X2251160D01*
G01X2265640D02*
X2275290Y685780D01*
X2283340Y696360D01*
X2286550Y709070D01*
X2283340Y721770D01*
X2275290Y732350D01*
X2260810Y738700D01*
X2246340Y736580D01*
X2231860Y728120D01*
G01X2353350Y717530D02*
X2363010Y730230D01*
X2374270Y736580D01*
X2387140Y738700D01*
X2403220Y734470D01*
X2414490Y723880D01*
X2417700Y711190D01*
X2416090Y698480D01*
X2409660Y687900D01*
X2377490Y666730D01*
X2363010Y651920D01*
X2353350Y630750D01*
X2350140Y611700D01*
X2417700D01*
G01X2492550Y654030D02*
X2534370D01*
G01X2610830Y611700D02*
Y738700D01*
X2649430D01*
X2662300Y732350D01*
X2671960Y717530D01*
X2675170Y700600D01*
X2671960Y683670D01*
X2663910Y670970D01*
X2649430Y664610D01*
X2610830D01*
G01X2791840Y611700D02*
Y738700D01*
X2732320Y647680D01*
X2812760D01*
G01X2997840Y611700D02*
Y738700D01*
G01X3065400D02*
Y611700D01*
G01Y675200D02*
X2997840D01*
G01X3119330Y611700D02*
Y738700D01*
X3161160Y632870D01*
X3202990Y738700D01*
Y611700D01*
G01X3271400Y738700D02*
X3310000D01*
G01X3290700D02*
Y611700D01*
G01X3271400D02*
X3310000D01*
G01X3516000Y628630D02*
X3528870Y618050D01*
X3543350Y611700D01*
X3556210D01*
X3569080Y618050D01*
X3578740Y628630D01*
X3583560Y643450D01*
X3580350Y658260D01*
X3572300Y670970D01*
X3557820Y679430D01*
X3538520Y683670D01*
X3527260Y692130D01*
X3522430Y706950D01*
X3525650Y721770D01*
X3533690Y732350D01*
X3544950Y738700D01*
X3556210D01*
X3567480Y734470D01*
X3577130Y723880D01*
G01X3651970Y696360D02*
Y637100D01*
X3658410Y622280D01*
X3668060Y613820D01*
X3679320Y611700D01*
X3690580Y613820D01*
X3700230Y622280D01*
X3706670Y637100D01*
G01Y611700D02*
Y696360D01*
G01X3779900Y611700D02*
Y738700D01*
G01Y675200D02*
X3787950Y687900D01*
X3797600Y694250D01*
X3807250Y696360D01*
X3821730Y692130D01*
X3831380Y683670D01*
X3837820Y668850D01*
Y651920D01*
X3834600Y634980D01*
X3828160Y622280D01*
X3816900Y613820D01*
X3807250Y611700D01*
X3797600Y613820D01*
X3787950Y620160D01*
X3779900Y630750D01*
G01X3951270Y679430D02*
X3957700Y685780D01*
X3962530Y696360D01*
X3965750Y711190D01*
X3962530Y723880D01*
X3956100Y732350D01*
X3944830Y738700D01*
X3901400D01*
Y611700D01*
X3954490D01*
X3965750Y620160D01*
X3972180Y632870D01*
X3975400Y647680D01*
X3972180Y662500D01*
X3962530Y675200D01*
X3951270Y679430D01*
X3901400D01*
G01X4067940Y611700D02*
X4058290Y613820D01*
X4048640Y622280D01*
X4042200Y637100D01*
X4038980Y654030D01*
X4042200Y670970D01*
X4048640Y685780D01*
X4058290Y694250D01*
X4067940Y696360D01*
X4077590Y694250D01*
X4087240Y685780D01*
X4093680Y670970D01*
X4095290Y654030D01*
X4093680Y637100D01*
X4087240Y622280D01*
X4077590Y613820D01*
X4067940Y611700D01*
G01X4226440D02*
Y696360D01*
G01Y681550D02*
X4220000Y690020D01*
X4210350Y694250D01*
X4199090Y696360D01*
X4187830Y692130D01*
X4178180Y683670D01*
X4171740Y670970D01*
X4168520Y654030D01*
X4171740Y637100D01*
X4178180Y624400D01*
X4187830Y615930D01*
X4199090Y611700D01*
X4210350Y613820D01*
X4220000Y620160D01*
X4226440Y628630D01*
G01X4304500Y611700D02*
Y696360D01*
G01Y679430D02*
X4312540Y687900D01*
X4320590Y694250D01*
X4331850Y696360D01*
X4339890Y694250D01*
X4349540Y687900D01*
G01X4485520Y738700D02*
Y611700D01*
G01Y630750D02*
X4479080Y620160D01*
X4469430Y613820D01*
X4458170Y611700D01*
X4445300Y615930D01*
X4435650Y626510D01*
X4429210Y639210D01*
X4427600Y654030D01*
X4429210Y668850D01*
X4435650Y681550D01*
X4445300Y692130D01*
X4458170Y696360D01*
X4469430Y694250D01*
X4477470Y690020D01*
X4485520Y681550D01*
G01X4675420Y738700D02*
X4715640Y611700D01*
X4755860Y738700D01*
G01X4845180Y611700D02*
Y738700D01*
X4825880Y713300D01*
G01Y611700D02*
X4864480D01*
G01X4974720Y607470D02*
X4971500Y609580D01*
Y613820D01*
X4974720Y615930D01*
X4977940Y613820D01*
Y609580D01*
X4974720Y607470D01*
G01X5073690Y717530D02*
X5083350Y730230D01*
X5094610Y736580D01*
X5107480Y738700D01*
X5123560Y734470D01*
X5134830Y723880D01*
X5138040Y711190D01*
X5136430Y698480D01*
X5130000Y687900D01*
X5097830Y666730D01*
X5083350Y651920D01*
X5073690Y630750D01*
X5070480Y611700D01*
X5138040D01*
G01X1656820Y3343630D02*
X1652880Y3337790D01*
X1650260Y3330970D01*
Y3323180D01*
X1654200Y3314420D01*
X1660760Y3307610D01*
X1668630Y3302740D01*
X1681760Y3298840D01*
X1693570Y3297870D01*
X1705380Y3299820D01*
X1713250Y3302740D01*
X1721130Y3308580D01*
X1726380Y3315390D01*
X1729000Y3322210D01*
Y3329030D01*
X1726380Y3335840D01*
X1722440Y3341680D01*
X1717190Y3346550D01*
G01X1663380Y3382450D02*
X1655510Y3388290D01*
X1651570Y3395110D01*
X1650260Y3402900D01*
X1652880Y3412630D01*
X1659450Y3419450D01*
X1667320Y3421400D01*
X1675200Y3420420D01*
X1681760Y3416530D01*
X1694880Y3397060D01*
X1704070Y3388290D01*
X1717190Y3382450D01*
X1729000Y3380500D01*
Y3421400D01*
G01X1717190Y3458270D02*
X1723750Y3464110D01*
X1727690Y3470930D01*
X1729000Y3479690D01*
X1726380Y3488450D01*
X1721130Y3495270D01*
X1711940Y3500140D01*
X1701440Y3501110D01*
X1690940Y3499160D01*
X1684380Y3494290D01*
X1679130Y3487480D01*
X1677820Y3480660D01*
X1679130Y3473850D01*
X1684380Y3465090D01*
X1650260Y3468010D01*
Y3494290D01*
G01X2743240Y1122500D02*
X2652310D01*
G01D02*
X2629700Y1373960D01*
G01X2815130Y1366850D02*
X2787690Y1157810D01*
G01X2638340Y1369900D02*
X2819950D01*
G01X2827040Y1887000D02*
X2867260Y2014000D01*
X2907480Y1887000D01*
G01X2893000Y1931450D02*
X2841520D01*
G01X2967840Y1844670D02*
Y1971660D01*
G01Y1952620D02*
X2975890Y1963200D01*
X2983930Y1969550D01*
X2996800Y1971660D01*
X3008060Y1969550D01*
X3019320Y1958970D01*
X3024150Y1944150D01*
X3025760Y1929330D01*
X3024150Y1914510D01*
X3019320Y1899700D01*
X3009670Y1891230D01*
X2996800Y1887000D01*
X2985540Y1889120D01*
X2974280Y1895460D01*
X2967840Y1903930D01*
G01X3097380Y1844670D02*
Y1971660D01*
G01Y1952620D02*
X3105430Y1963200D01*
X3113470Y1969550D01*
X3126340Y1971660D01*
X3137600Y1969550D01*
X3148860Y1958970D01*
X3153690Y1944150D01*
X3155300Y1929330D01*
X3153690Y1914510D01*
X3148860Y1899700D01*
X3139210Y1891230D01*
X3126340Y1887000D01*
X3115080Y1889120D01*
X3103820Y1895460D01*
X3097380Y1903930D01*
G01X3255880Y1887000D02*
Y2014000D01*
G01X3385420Y1971660D02*
Y1887000D01*
G01Y2005530D02*
X3382200Y2007650D01*
Y2011880D01*
X3385420Y2014000D01*
X3388640Y2011880D01*
Y2007650D01*
X3385420Y2005530D01*
G01X3540700Y1961080D02*
X3529440Y1969550D01*
X3519790Y1971660D01*
X3506920Y1967430D01*
X3497260Y1958970D01*
X3490830Y1944150D01*
X3489220Y1929330D01*
X3490830Y1914510D01*
X3497260Y1901810D01*
X3506920Y1891230D01*
X3519790Y1887000D01*
X3531050Y1891230D01*
X3540700Y1899700D01*
G01X3673460Y1887000D02*
Y1971660D01*
G01Y1956850D02*
X3667020Y1965320D01*
X3657370Y1969550D01*
X3646110Y1971660D01*
X3634850Y1967430D01*
X3625200Y1958970D01*
X3618760Y1946270D01*
X3615540Y1929330D01*
X3618760Y1912400D01*
X3625200Y1899700D01*
X3634850Y1891230D01*
X3646110Y1887000D01*
X3657370Y1889120D01*
X3667020Y1895460D01*
X3673460Y1903930D01*
G01X3745080Y1887000D02*
Y2014000D01*
G01Y1950500D02*
X3753130Y1963200D01*
X3762780Y1969550D01*
X3772430Y1971660D01*
X3786910Y1967430D01*
X3796560Y1958970D01*
X3803000Y1944150D01*
Y1927220D01*
X3799780Y1910280D01*
X3793340Y1897580D01*
X3782080Y1889120D01*
X3772430Y1887000D01*
X3762780Y1889120D01*
X3753130Y1895460D01*
X3745080Y1906050D01*
G01X3903580Y1887000D02*
Y2014000D01*
G01X4008990Y1944150D02*
X4060470D01*
X4055640Y1958970D01*
X4047600Y1967430D01*
X4036340Y1971660D01*
X4025080Y1969550D01*
X4015420Y1963200D01*
X4008990Y1948380D01*
X4005770Y1935680D01*
Y1922980D01*
X4008990Y1910280D01*
X4017030Y1897580D01*
X4026690Y1889120D01*
X4037950Y1887000D01*
X4049210Y1891230D01*
X4060470Y1903930D01*
G01X4292200Y2014000D02*
Y1887000D01*
G01X4269680Y1971660D02*
X4314720D01*
G01X4421740Y1887000D02*
X4412090Y1889120D01*
X4402440Y1897580D01*
X4396000Y1912400D01*
X4392780Y1929330D01*
X4396000Y1946270D01*
X4402440Y1961080D01*
X4412090Y1969550D01*
X4421740Y1971660D01*
X4431390Y1969550D01*
X4441040Y1961080D01*
X4447480Y1946270D01*
X4449090Y1929330D01*
X4447480Y1912400D01*
X4441040Y1897580D01*
X4431390Y1889120D01*
X4421740Y1887000D01*
G01X4712990D02*
X4648650D01*
Y2014000D01*
X4712990D01*
G01X4687250Y1952620D02*
X4648650D01*
G01X4776580Y1903930D02*
X4789450Y1893350D01*
X4803930Y1887000D01*
X4816790D01*
X4829660Y1893350D01*
X4839320Y1903930D01*
X4844140Y1918750D01*
X4840930Y1933560D01*
X4832880Y1946270D01*
X4818400Y1954730D01*
X4799100Y1958970D01*
X4787840Y1967430D01*
X4783010Y1982250D01*
X4786230Y1997070D01*
X4794270Y2007650D01*
X4805530Y2014000D01*
X4816790D01*
X4828060Y2009770D01*
X4837710Y1999180D01*
G01X4907730Y1887000D02*
Y2014000D01*
X4946330D01*
X4959200Y2007650D01*
X4968860Y1992830D01*
X4972070Y1975900D01*
X4968860Y1958970D01*
X4960810Y1946270D01*
X4946330Y1939910D01*
X4907730D01*
G01X5034050Y1912400D02*
X5043700Y1897580D01*
X5056570Y1889120D01*
X5071050Y1887000D01*
X5083920Y1889120D01*
X5096790Y1899700D01*
X5104830Y1912400D01*
X5106440Y1925100D01*
X5103220Y1939910D01*
X5091960Y1950500D01*
X5080700Y1954730D01*
X5066220D01*
G01X5080700D02*
X5090350Y1961080D01*
X5098400Y1971660D01*
X5101610Y1984370D01*
X5098400Y1997070D01*
X5090350Y2007650D01*
X5075870Y2014000D01*
X5061400Y2011880D01*
X5046920Y2003420D01*
G01X5168410Y1992830D02*
X5178070Y2005530D01*
X5189330Y2011880D01*
X5202200Y2014000D01*
X5218280Y2009770D01*
X5229550Y1999180D01*
X5232760Y1986490D01*
X5231150Y1973780D01*
X5224720Y1963200D01*
X5192550Y1942030D01*
X5178070Y1927220D01*
X5168410Y1906050D01*
X5165200Y1887000D01*
X5232760D01*
G01X5307610Y1929330D02*
X5349430D01*
G01X5425890Y1887000D02*
Y2014000D01*
X5464490D01*
X5477360Y2007650D01*
X5487020Y1992830D01*
X5490230Y1975900D01*
X5487020Y1958970D01*
X5478970Y1946270D01*
X5464490Y1939910D01*
X5425890D01*
G01X5606900Y1887000D02*
Y2014000D01*
X5547380Y1922980D01*
X5627820D01*
G01X5816110Y1887000D02*
Y2014000D01*
X5877250D01*
G01X5854720Y1952620D02*
X5816110D01*
G01X5948870Y1971660D02*
Y1912400D01*
X5955310Y1897580D01*
X5964960Y1889120D01*
X5976220Y1887000D01*
X5987480Y1889120D01*
X5997130Y1897580D01*
X6003570Y1912400D01*
G01Y1887000D02*
Y1971660D01*
G01X6078410Y1887000D02*
Y1971660D01*
G01Y1950500D02*
X6084850Y1961080D01*
X6094500Y1969550D01*
X6107370Y1971660D01*
X6118630Y1969550D01*
X6128280Y1961080D01*
X6133110Y1946270D01*
Y1887000D01*
G01X6261040Y1961080D02*
X6249780Y1969550D01*
X6240130Y1971660D01*
X6227260Y1967430D01*
X6217600Y1958970D01*
X6211170Y1944150D01*
X6209560Y1929330D01*
X6211170Y1914510D01*
X6217600Y1901810D01*
X6227260Y1891230D01*
X6240130Y1887000D01*
X6251390Y1891230D01*
X6261040Y1899700D01*
G01X6364840Y2014000D02*
Y1887000D01*
G01X6342320Y1971660D02*
X6387360D01*
G01X6494380D02*
Y1887000D01*
G01Y2005530D02*
X6491160Y2007650D01*
Y2011880D01*
X6494380Y2014000D01*
X6497600Y2011880D01*
Y2007650D01*
X6494380Y2005530D01*
G01X6623920Y1887000D02*
X6614270Y1889120D01*
X6604620Y1897580D01*
X6598180Y1912400D01*
X6594960Y1929330D01*
X6598180Y1946270D01*
X6604620Y1961080D01*
X6614270Y1969550D01*
X6623920Y1971660D01*
X6633570Y1969550D01*
X6643220Y1961080D01*
X6649660Y1946270D01*
X6651270Y1929330D01*
X6649660Y1912400D01*
X6643220Y1897580D01*
X6633570Y1889120D01*
X6623920Y1887000D01*
G01X6726110D02*
Y1971660D01*
G01Y1950500D02*
X6732550Y1961080D01*
X6742200Y1969550D01*
X6755070Y1971660D01*
X6766330Y1969550D01*
X6775980Y1961080D01*
X6780810Y1946270D01*
Y1887000D01*
G01X7044710D02*
X6980370D01*
Y2014000D01*
X7044710D01*
G01X7018970Y1952620D02*
X6980370D01*
G01X7101860Y2014000D02*
X7142080Y1887000D01*
X7182300Y2014000D01*
G01X7414030Y1954730D02*
X7420460Y1961080D01*
X7425290Y1971660D01*
X7428510Y1986490D01*
X7425290Y1999180D01*
X7418860Y2007650D01*
X7407590Y2014000D01*
X7364160D01*
Y1887000D01*
X7417250D01*
X7428510Y1895460D01*
X7434940Y1908170D01*
X7438160Y1922980D01*
X7434940Y1937800D01*
X7425290Y1950500D01*
X7414030Y1954730D01*
X7364160D01*
G01X7530700Y1887000D02*
X7521050Y1889120D01*
X7511400Y1897580D01*
X7504960Y1912400D01*
X7501740Y1929330D01*
X7504960Y1946270D01*
X7511400Y1961080D01*
X7521050Y1969550D01*
X7530700Y1971660D01*
X7540350Y1969550D01*
X7550000Y1961080D01*
X7556440Y1946270D01*
X7558050Y1929330D01*
X7556440Y1912400D01*
X7550000Y1897580D01*
X7540350Y1889120D01*
X7530700Y1887000D01*
G01X7689200D02*
Y1971660D01*
G01Y1956850D02*
X7682760Y1965320D01*
X7673110Y1969550D01*
X7661850Y1971660D01*
X7650590Y1967430D01*
X7640940Y1958970D01*
X7634500Y1946270D01*
X7631280Y1929330D01*
X7634500Y1912400D01*
X7640940Y1899700D01*
X7650590Y1891230D01*
X7661850Y1887000D01*
X7673110Y1889120D01*
X7682760Y1895460D01*
X7689200Y1903930D01*
G01X7767260Y1887000D02*
Y1971660D01*
G01Y1954730D02*
X7775300Y1963200D01*
X7783350Y1969550D01*
X7794610Y1971660D01*
X7802650Y1969550D01*
X7812300Y1963200D01*
G01X7948280Y2014000D02*
Y1887000D01*
G01Y1906050D02*
X7941840Y1895460D01*
X7932190Y1889120D01*
X7920930Y1887000D01*
X7908060Y1891230D01*
X7898410Y1901810D01*
X7891970Y1914510D01*
X7890360Y1929330D01*
X7891970Y1944150D01*
X7898410Y1956850D01*
X7908060Y1967430D01*
X7920930Y1971660D01*
X7932190Y1969550D01*
X7940230Y1965320D01*
X7948280Y1956850D01*
G01X8138180Y2014000D02*
X8178400Y1887000D01*
X8218620Y2014000D01*
G01X8307940Y1887000D02*
Y2014000D01*
X8288640Y1988600D01*
G01Y1887000D02*
X8327240D01*
G01X8437480Y1882770D02*
X8434260Y1884880D01*
Y1889120D01*
X8437480Y1891230D01*
X8440700Y1889120D01*
Y1884880D01*
X8437480Y1882770D01*
G01X8536450Y1992830D02*
X8546110Y2005530D01*
X8557370Y2011880D01*
X8570240Y2014000D01*
X8586320Y2009770D01*
X8597590Y1999180D01*
X8600800Y1986490D01*
X8599190Y1973780D01*
X8592760Y1963200D01*
X8560590Y1942030D01*
X8546110Y1927220D01*
X8536450Y1906050D01*
X8533240Y1887000D01*
X8600800D01*
G01X8667600Y1882770D02*
X8725520Y2014000D01*
G01X8826100Y1887000D02*
Y2014000D01*
X8806800Y1988600D01*
G01Y1887000D02*
X8845400D01*
G01X8955640Y1882770D02*
X8952420Y1884880D01*
Y1889120D01*
X8955640Y1891230D01*
X8958860Y1889120D01*
Y1884880D01*
X8955640Y1882770D01*
G01X9049790Y1912400D02*
X9059440Y1897580D01*
X9072310Y1889120D01*
X9086790Y1887000D01*
X9099660Y1889120D01*
X9112530Y1899700D01*
X9120570Y1912400D01*
X9122180Y1925100D01*
X9118960Y1939910D01*
X9107700Y1950500D01*
X9096440Y1954730D01*
X9081960D01*
G01X9096440D02*
X9106090Y1961080D01*
X9114140Y1971660D01*
X9117350Y1984370D01*
X9114140Y1997070D01*
X9106090Y2007650D01*
X9091610Y2014000D01*
X9077140Y2011880D01*
X9062660Y2003420D01*
G01X3891730Y5357130D02*
X3885890Y5361070D01*
X3879070Y5363690D01*
X3871280D01*
X3862520Y5359750D01*
X3855710Y5353190D01*
X3850840Y5345320D01*
X3846940Y5332190D01*
X3845970Y5320380D01*
X3847920Y5308570D01*
X3850840Y5300700D01*
X3856680Y5292820D01*
X3863490Y5287570D01*
X3870310Y5284950D01*
X3877130D01*
X3883940Y5287570D01*
X3889780Y5291510D01*
X3894650Y5296760D01*
G01X3947100Y5284950D02*
X3949050Y5302010D01*
X3951970Y5316440D01*
X3955870Y5329570D01*
X3960730Y5344000D01*
X3968520Y5363690D01*
X3929580D01*
G01X3646660Y5861090D02*
X3703090D01*
X3714900Y5864980D01*
X3722780Y5872770D01*
X3725400Y5882510D01*
X3722780Y5892250D01*
X3714900Y5900040D01*
X3703090Y5903930D01*
X3646660D01*
G01X3659780Y5942750D02*
X3651910Y5948590D01*
X3647970Y5955410D01*
X3646660Y5963200D01*
X3649280Y5972930D01*
X3655850Y5979750D01*
X3663720Y5981700D01*
X3671600Y5980720D01*
X3678160Y5976830D01*
X3691280Y5957360D01*
X3700470Y5948590D01*
X3713590Y5942750D01*
X3725400Y5940800D01*
Y5981700D01*
G01X3669880Y5679630D02*
X3664040Y5683570D01*
X3657220Y5686190D01*
X3649430D01*
X3640670Y5682250D01*
X3633860Y5675690D01*
X3628990Y5667820D01*
X3625090Y5654690D01*
X3624120Y5642880D01*
X3626070Y5631070D01*
X3628990Y5623200D01*
X3634830Y5615320D01*
X3641640Y5610070D01*
X3648460Y5607450D01*
X3655280D01*
X3662090Y5610070D01*
X3667930Y5614010D01*
X3672800Y5619260D01*
G01X3727200Y5607450D02*
X3734020Y5608760D01*
X3741800Y5612700D01*
X3746670Y5619260D01*
X3748620Y5628450D01*
X3746670Y5637630D01*
X3740830Y5645510D01*
X3732070Y5649450D01*
X3722330D01*
X3716490Y5652070D01*
X3711620Y5658630D01*
X3709670Y5667820D01*
X3712600Y5677000D01*
X3719410Y5683570D01*
X3727200Y5686190D01*
X3734990Y5683570D01*
X3741800Y5677000D01*
X3744730Y5667820D01*
X3742780Y5658630D01*
X3737910Y5652070D01*
X3732070Y5649450D01*
X3722330D01*
X3713570Y5645510D01*
X3707730Y5637630D01*
X3705780Y5628450D01*
X3707730Y5619260D01*
X3712600Y5612700D01*
X3720380Y5608760D01*
X3727200Y5607450D01*
G01X3683880Y6247630D02*
X3678040Y6251570D01*
X3671220Y6254190D01*
X3663430D01*
X3654670Y6250250D01*
X3647860Y6243690D01*
X3642990Y6235820D01*
X3639090Y6222690D01*
X3638120Y6210880D01*
X3640070Y6199070D01*
X3642990Y6191200D01*
X3648830Y6183320D01*
X3655640Y6178070D01*
X3662460Y6175450D01*
X3669280D01*
X3676090Y6178070D01*
X3681930Y6182010D01*
X3686800Y6187260D01*
G01X3724650Y6184630D02*
X3731460Y6178070D01*
X3739250Y6175450D01*
X3747040Y6178070D01*
X3753860Y6185950D01*
X3758730Y6197760D01*
X3760670Y6209570D01*
Y6224010D01*
X3758730Y6235820D01*
X3753860Y6246320D01*
X3748020Y6251570D01*
X3741200Y6254190D01*
X3733410Y6251570D01*
X3727570Y6246320D01*
X3723670Y6238440D01*
X3721730Y6227940D01*
X3723670Y6218760D01*
X3728540Y6209570D01*
X3734380Y6204320D01*
X3741200Y6203010D01*
X3748990Y6205630D01*
X3754830Y6212190D01*
X3760670Y6224010D01*
G01X3863730Y6532130D02*
X3857890Y6536070D01*
X3851070Y6538690D01*
X3843280D01*
X3834520Y6534750D01*
X3827710Y6528190D01*
X3822840Y6520320D01*
X3818940Y6507190D01*
X3817970Y6495380D01*
X3819920Y6483570D01*
X3822840Y6475700D01*
X3828680Y6467820D01*
X3835490Y6462570D01*
X3842310Y6459950D01*
X3849130D01*
X3855940Y6462570D01*
X3861780Y6466510D01*
X3866650Y6471760D01*
G01X3921050Y6459950D02*
Y6538690D01*
X3909370Y6522940D01*
G01Y6459950D02*
X3932730D01*
G01X3999790Y6538690D02*
X3992000Y6536070D01*
X3986160Y6529500D01*
X3982260Y6521630D01*
X3979340Y6511130D01*
X3978370Y6499320D01*
X3979340Y6487510D01*
X3982260Y6477010D01*
X3986160Y6469130D01*
X3992000Y6462570D01*
X3999790Y6459950D01*
X4007580Y6462570D01*
X4013420Y6469130D01*
X4017320Y6477010D01*
X4020240Y6487510D01*
X4021210Y6499320D01*
X4020240Y6511130D01*
X4017320Y6521630D01*
X4013420Y6529500D01*
X4007580Y6536070D01*
X3999790Y6538690D01*
G01X3985720Y3780340D02*
Y3859080D01*
X4010060D01*
X4017850Y3855140D01*
X4022720Y3849890D01*
X4024660Y3839390D01*
X4022720Y3828900D01*
X4016870Y3822340D01*
X4010060Y3818400D01*
X3985720D01*
G01X4010060D02*
X4024660Y3780340D01*
G01X4083930D02*
Y3859080D01*
X4072250Y3843330D01*
G01Y3780340D02*
X4095610D01*
G01X4174350D02*
Y3859080D01*
X4138330Y3802650D01*
X4187010D01*
G01X4189160Y4054590D02*
X4245590D01*
X4257400Y4058480D01*
X4265280Y4066270D01*
X4267900Y4076010D01*
X4265280Y4085750D01*
X4257400Y4093540D01*
X4245590Y4097430D01*
X4189160D01*
G01X4252150Y4133330D02*
X4261340Y4139170D01*
X4266590Y4146960D01*
X4267900Y4155720D01*
X4266590Y4163510D01*
X4260030Y4171300D01*
X4252150Y4176170D01*
X4244280Y4177140D01*
X4235090Y4175200D01*
X4228530Y4168380D01*
X4225900Y4161570D01*
Y4152800D01*
G01Y4161570D02*
X4221970Y4167410D01*
X4215410Y4172280D01*
X4207530Y4174220D01*
X4199660Y4172280D01*
X4193100Y4167410D01*
X4189160Y4158640D01*
X4190470Y4149880D01*
X4195720Y4141120D01*
G01X4063600Y4387020D02*
Y4465760D01*
X4087940D01*
X4095730Y4461820D01*
X4100600Y4456570D01*
X4102540Y4446070D01*
X4100600Y4435580D01*
X4094750Y4429020D01*
X4087940Y4425080D01*
X4063600D01*
G01X4087940D02*
X4102540Y4387020D01*
G01X4161810D02*
Y4465760D01*
X4150130Y4450010D01*
G01Y4387020D02*
X4173490D01*
G01X4222050Y4419830D02*
X4228870Y4429020D01*
X4234710Y4434260D01*
X4242500Y4436890D01*
X4249310Y4434260D01*
X4254180Y4429020D01*
X4258080Y4421140D01*
X4259050Y4411950D01*
X4258080Y4404080D01*
X4254180Y4396200D01*
X4248340Y4389640D01*
X4241520Y4387020D01*
X4233730Y4389640D01*
X4226920Y4397520D01*
X4223020Y4409330D01*
X4222050Y4422450D01*
X4224000Y4439510D01*
X4226920Y4448700D01*
X4231790Y4457890D01*
X4238600Y4464450D01*
X4245420Y4465760D01*
X4252230Y4463140D01*
X4257100Y4456570D01*
G01X4086840Y5703950D02*
Y5782690D01*
X4111180D01*
X4118970Y5778750D01*
X4123840Y5773500D01*
X4125780Y5763000D01*
X4123840Y5752510D01*
X4117990Y5745950D01*
X4111180Y5742010D01*
X4086840D01*
G01X4111180D02*
X4125780Y5703950D01*
G01X4185050D02*
Y5782690D01*
X4173370Y5766940D01*
G01Y5703950D02*
X4196730D01*
G01X4242370Y5719700D02*
X4248210Y5710510D01*
X4256000Y5705260D01*
X4264760Y5703950D01*
X4272550Y5705260D01*
X4280340Y5711820D01*
X4285210Y5719700D01*
X4286180Y5727570D01*
X4284240Y5736760D01*
X4277420Y5743320D01*
X4270610Y5745950D01*
X4261840D01*
G01X4270610D02*
X4276450Y5749880D01*
X4281320Y5756440D01*
X4283260Y5764320D01*
X4281320Y5772190D01*
X4276450Y5778750D01*
X4267680Y5782690D01*
X4258920Y5781380D01*
X4250160Y5776130D01*
G01X4356870Y4794580D02*
X4351030Y4798520D01*
X4344210Y4801140D01*
X4336420D01*
X4327660Y4797200D01*
X4320850Y4790640D01*
X4315980Y4782770D01*
X4312080Y4769640D01*
X4311110Y4757830D01*
X4313060Y4746020D01*
X4315980Y4738150D01*
X4321820Y4730270D01*
X4328630Y4725020D01*
X4335450Y4722400D01*
X4342270D01*
X4349080Y4725020D01*
X4354920Y4728960D01*
X4359790Y4734210D01*
G01X4414190Y4722400D02*
Y4801140D01*
X4402510Y4785390D01*
G01Y4722400D02*
X4425870D01*
G01X4471510Y4738150D02*
X4477350Y4728960D01*
X4485140Y4723710D01*
X4493900Y4722400D01*
X4501690Y4723710D01*
X4509480Y4730270D01*
X4514350Y4738150D01*
X4515320Y4746020D01*
X4513380Y4755210D01*
X4506560Y4761770D01*
X4499750Y4764400D01*
X4490980D01*
G01X4499750D02*
X4505590Y4768330D01*
X4510460Y4774890D01*
X4512400Y4782770D01*
X4510460Y4790640D01*
X4505590Y4797200D01*
X4496820Y4801140D01*
X4488060Y4799830D01*
X4479300Y4794580D01*
G01X4257830Y4929680D02*
X4251990Y4933620D01*
X4245170Y4936240D01*
X4237380D01*
X4228620Y4932300D01*
X4221810Y4925740D01*
X4216940Y4917870D01*
X4213040Y4904740D01*
X4212070Y4892930D01*
X4214020Y4881120D01*
X4216940Y4873250D01*
X4222780Y4865370D01*
X4229590Y4860120D01*
X4236410Y4857500D01*
X4243230D01*
X4250040Y4860120D01*
X4255880Y4864060D01*
X4260750Y4869310D01*
G01X4315150Y4857500D02*
Y4936240D01*
X4303470Y4920490D01*
G01Y4857500D02*
X4326830D01*
G01X4405570D02*
Y4936240D01*
X4369550Y4879810D01*
X4418230D01*
G01X4272980Y4594870D02*
Y4673610D01*
X4297320D01*
X4305110Y4669670D01*
X4309980Y4664420D01*
X4311920Y4653920D01*
X4309980Y4643430D01*
X4304130Y4636870D01*
X4297320Y4632930D01*
X4272980D01*
G01X4297320D02*
X4311920Y4594870D01*
G01X4371190D02*
Y4673610D01*
X4359510Y4657860D01*
G01Y4594870D02*
X4382870D01*
G01X4428510Y4606680D02*
X4434350Y4600120D01*
X4441170Y4596180D01*
X4449930Y4594870D01*
X4458690Y4597490D01*
X4465510Y4602740D01*
X4470380Y4611930D01*
X4471350Y4622430D01*
X4469400Y4632930D01*
X4464530Y4639490D01*
X4457720Y4644740D01*
X4450900Y4646050D01*
X4444090Y4644740D01*
X4435330Y4639490D01*
X4438250Y4673610D01*
X4464530D01*
G01X4316040Y5381700D02*
Y5460440D01*
X4340380D01*
X4348170Y5456500D01*
X4353040Y5451250D01*
X4354980Y5440750D01*
X4353040Y5430260D01*
X4347190Y5423700D01*
X4340380Y5419760D01*
X4316040D01*
G01X4340380D02*
X4354980Y5381700D01*
G01X4395750Y5447320D02*
X4401590Y5455190D01*
X4408410Y5459130D01*
X4416200Y5460440D01*
X4425930Y5457820D01*
X4432750Y5451250D01*
X4434700Y5443380D01*
X4433720Y5435500D01*
X4429830Y5428940D01*
X4410360Y5415820D01*
X4401590Y5406630D01*
X4395750Y5393510D01*
X4393800Y5381700D01*
X4434700D01*
G01X4474490Y5447320D02*
X4480330Y5455190D01*
X4487150Y5459130D01*
X4494940Y5460440D01*
X4504670Y5457820D01*
X4511490Y5451250D01*
X4513440Y5443380D01*
X4512460Y5435500D01*
X4508570Y5428940D01*
X4489100Y5415820D01*
X4480330Y5406630D01*
X4474490Y5393510D01*
X4472540Y5381700D01*
X4513440D01*
G01X4650130Y3853650D02*
X4644290Y3857590D01*
X4637470Y3860210D01*
X4629680D01*
X4620920Y3856270D01*
X4614110Y3849710D01*
X4609240Y3841840D01*
X4605340Y3828710D01*
X4604370Y3816900D01*
X4606320Y3805090D01*
X4609240Y3797220D01*
X4615080Y3789340D01*
X4621890Y3784090D01*
X4628710Y3781470D01*
X4635530D01*
X4642340Y3784090D01*
X4648180Y3788030D01*
X4653050Y3793280D01*
G01X4707450Y3781470D02*
Y3860210D01*
X4695770Y3844460D01*
G01Y3781470D02*
X4719130D01*
G01X4786190D02*
Y3860210D01*
X4774510Y3844460D01*
G01Y3781470D02*
X4797870D01*
G01X4657620Y3712800D02*
X4651780Y3716740D01*
X4644960Y3719360D01*
X4637170D01*
X4628410Y3715420D01*
X4621600Y3708860D01*
X4616730Y3700990D01*
X4612830Y3687860D01*
X4611860Y3676050D01*
X4613810Y3664240D01*
X4616730Y3656370D01*
X4622570Y3648490D01*
X4629380Y3643240D01*
X4636200Y3640620D01*
X4643020D01*
X4649830Y3643240D01*
X4655670Y3647180D01*
X4660540Y3652430D01*
G01X4714940Y3640620D02*
Y3719360D01*
X4703260Y3703610D01*
G01Y3640620D02*
X4726620D01*
G01X4775180Y3706240D02*
X4781020Y3714110D01*
X4787840Y3718050D01*
X4795630Y3719360D01*
X4805360Y3716740D01*
X4812180Y3710170D01*
X4814130Y3702300D01*
X4813150Y3694420D01*
X4809260Y3687860D01*
X4789790Y3674740D01*
X4781020Y3665550D01*
X4775180Y3652430D01*
X4773230Y3640620D01*
X4814130D01*
G01X4860560Y3758340D02*
X4939300D01*
Y3797280D01*
G01X4873680Y3838050D02*
X4865810Y3843890D01*
X4861870Y3850710D01*
X4860560Y3858500D01*
X4863180Y3868230D01*
X4869750Y3875050D01*
X4877620Y3877000D01*
X4885500Y3876020D01*
X4892060Y3872130D01*
X4905180Y3852660D01*
X4914370Y3843890D01*
X4927490Y3838050D01*
X4939300Y3836100D01*
Y3877000D01*
G01X4866100Y4420690D02*
X4787360D01*
Y4440160D01*
X4791300Y4447950D01*
X4796550Y4453790D01*
X4804420Y4458660D01*
X4813610Y4462560D01*
X4826730Y4463530D01*
X4839850Y4462560D01*
X4849040Y4458660D01*
X4856920Y4453790D01*
X4862160Y4447950D01*
X4866100Y4440160D01*
Y4420690D01*
G01X4854290Y4499430D02*
X4860850Y4505270D01*
X4864790Y4512090D01*
X4866100Y4520850D01*
X4863480Y4529610D01*
X4858230Y4536430D01*
X4849040Y4541300D01*
X4838540Y4542270D01*
X4828040Y4540320D01*
X4821480Y4535450D01*
X4816230Y4528640D01*
X4814920Y4521820D01*
X4816230Y4515010D01*
X4821480Y4506250D01*
X4787360Y4509170D01*
Y4535450D01*
G01X4823300Y5185140D02*
X4744560D01*
Y5209480D01*
X4748500Y5217270D01*
X4753750Y5222140D01*
X4764250Y5224080D01*
X4774740Y5222140D01*
X4781300Y5216290D01*
X4785240Y5209480D01*
Y5185140D01*
G01Y5209480D02*
X4823300Y5224080D01*
G01X4757680Y5264850D02*
X4749810Y5270690D01*
X4745870Y5277510D01*
X4744560Y5285300D01*
X4747180Y5295030D01*
X4753750Y5301850D01*
X4761620Y5303800D01*
X4769500Y5302820D01*
X4776060Y5298930D01*
X4789180Y5279460D01*
X4798370Y5270690D01*
X4811490Y5264850D01*
X4823300Y5262900D01*
Y5303800D01*
G01X4807550Y5340670D02*
X4816740Y5346510D01*
X4821990Y5354300D01*
X4823300Y5363060D01*
X4821990Y5370850D01*
X4815430Y5378640D01*
X4807550Y5383510D01*
X4799680Y5384480D01*
X4790490Y5382540D01*
X4783930Y5375720D01*
X4781300Y5368910D01*
Y5360140D01*
G01Y5368910D02*
X4777370Y5374750D01*
X4770810Y5379620D01*
X4762930Y5381560D01*
X4755060Y5379620D01*
X4748500Y5374750D01*
X4744560Y5365980D01*
X4745870Y5357220D01*
X4751120Y5348460D01*
G01X4806030Y5558080D02*
X4800190Y5562020D01*
X4793370Y5564640D01*
X4785580D01*
X4776820Y5560700D01*
X4770010Y5554140D01*
X4765140Y5546270D01*
X4761240Y5533140D01*
X4760270Y5521330D01*
X4762220Y5509520D01*
X4765140Y5501650D01*
X4770980Y5493770D01*
X4777790Y5488520D01*
X4784610Y5485900D01*
X4791430D01*
X4798240Y5488520D01*
X4804080Y5492460D01*
X4808950Y5497710D01*
G01X4844850Y5551520D02*
X4850690Y5559390D01*
X4857510Y5563330D01*
X4865300Y5564640D01*
X4875030Y5562020D01*
X4881850Y5555450D01*
X4883800Y5547580D01*
X4882820Y5539700D01*
X4878930Y5533140D01*
X4859460Y5520020D01*
X4850690Y5510830D01*
X4844850Y5497710D01*
X4842900Y5485900D01*
X4883800D01*
G01X4923590Y5518710D02*
X4930410Y5527900D01*
X4936250Y5533140D01*
X4944040Y5535770D01*
X4950850Y5533140D01*
X4955720Y5527900D01*
X4959620Y5520020D01*
X4960590Y5510830D01*
X4959620Y5502960D01*
X4955720Y5495080D01*
X4949880Y5488520D01*
X4943060Y5485900D01*
X4935270Y5488520D01*
X4928460Y5496400D01*
X4924560Y5508210D01*
X4923590Y5521330D01*
X4925540Y5538390D01*
X4928460Y5547580D01*
X4933330Y5556770D01*
X4940140Y5563330D01*
X4946960Y5564640D01*
X4953770Y5562020D01*
X4958640Y5555450D01*
G01X4801930Y5688130D02*
X4796090Y5692070D01*
X4789270Y5694690D01*
X4781480D01*
X4772720Y5690750D01*
X4765910Y5684190D01*
X4761040Y5676320D01*
X4757140Y5663190D01*
X4756170Y5651380D01*
X4758120Y5639570D01*
X4761040Y5631700D01*
X4766880Y5623820D01*
X4773690Y5618570D01*
X4780510Y5615950D01*
X4787330D01*
X4794140Y5618570D01*
X4799980Y5622510D01*
X4804850Y5627760D01*
G01X4840750Y5681570D02*
X4846590Y5689440D01*
X4853410Y5693380D01*
X4861200Y5694690D01*
X4870930Y5692070D01*
X4877750Y5685500D01*
X4879700Y5677630D01*
X4878720Y5669750D01*
X4874830Y5663190D01*
X4855360Y5650070D01*
X4846590Y5640880D01*
X4840750Y5627760D01*
X4838800Y5615950D01*
X4879700D01*
G01X4936040D02*
X4937990Y5633010D01*
X4940910Y5647440D01*
X4944810Y5660570D01*
X4949670Y5675000D01*
X4957460Y5694690D01*
X4918520D01*
G01X5192900Y3850990D02*
X5114160D01*
Y3870460D01*
X5118100Y3878250D01*
X5123350Y3884090D01*
X5131220Y3888960D01*
X5140410Y3892860D01*
X5153530Y3893830D01*
X5166650Y3892860D01*
X5175840Y3888960D01*
X5183720Y3884090D01*
X5188960Y3878250D01*
X5192900Y3870460D01*
Y3850990D01*
G01Y3949200D02*
X5175840Y3951150D01*
X5161410Y3954070D01*
X5148280Y3957970D01*
X5133850Y3962830D01*
X5114160Y3970620D01*
Y3931680D01*
G01X5035380Y4132380D02*
X5029540Y4136320D01*
X5022720Y4138940D01*
X5014930D01*
X5006170Y4135000D01*
X4999360Y4128440D01*
X4994490Y4120570D01*
X4990590Y4107440D01*
X4989620Y4095630D01*
X4991570Y4083820D01*
X4994490Y4075950D01*
X5000330Y4068070D01*
X5007140Y4062820D01*
X5013960Y4060200D01*
X5020780D01*
X5027590Y4062820D01*
X5033430Y4066760D01*
X5038300Y4072010D01*
G01X5092700Y4060200D02*
Y4138940D01*
X5081020Y4123190D01*
G01Y4060200D02*
X5104380D01*
G01X5150020Y4072010D02*
X5155860Y4065450D01*
X5162680Y4061510D01*
X5171440Y4060200D01*
X5180200Y4062820D01*
X5187020Y4068070D01*
X5191890Y4077260D01*
X5192860Y4087760D01*
X5190910Y4098260D01*
X5186040Y4104820D01*
X5179230Y4110070D01*
X5172410Y4111380D01*
X5165600Y4110070D01*
X5156840Y4104820D01*
X5159760Y4138940D01*
X5186040D01*
G01X5029480Y4921670D02*
X5033420Y4927510D01*
X5036040Y4934330D01*
Y4942120D01*
X5032100Y4950880D01*
X5025540Y4957690D01*
X5017670Y4962560D01*
X5004540Y4966460D01*
X4992730Y4967430D01*
X4980920Y4965480D01*
X4973050Y4962560D01*
X4965170Y4956720D01*
X4959920Y4949910D01*
X4957300Y4943090D01*
Y4936270D01*
X4959920Y4929460D01*
X4963860Y4923620D01*
X4969110Y4918750D01*
G01X4957300Y4864350D02*
X5036040D01*
X5020290Y4876030D01*
G01X4957300D02*
Y4852670D01*
G01X4990110Y4804110D02*
X4999300Y4797290D01*
X5004540Y4791450D01*
X5007170Y4783660D01*
X5004540Y4776850D01*
X4999300Y4771980D01*
X4991420Y4768080D01*
X4982230Y4767110D01*
X4974360Y4768080D01*
X4966480Y4771980D01*
X4959920Y4777820D01*
X4957300Y4784640D01*
X4959920Y4792430D01*
X4967800Y4799240D01*
X4979610Y4803140D01*
X4992730Y4804110D01*
X5009790Y4802160D01*
X5018980Y4799240D01*
X5028170Y4794370D01*
X5034730Y4787560D01*
X5036040Y4780740D01*
X5033420Y4773930D01*
X5026850Y4769060D01*
G01X5096500Y5208610D02*
X5175240D01*
Y5189140D01*
X5171300Y5181350D01*
X5166050Y5175510D01*
X5158180Y5170640D01*
X5148990Y5166740D01*
X5135870Y5165770D01*
X5122750Y5166740D01*
X5113560Y5170640D01*
X5105680Y5175510D01*
X5100440Y5181350D01*
X5096500Y5189140D01*
Y5208610D01*
G01X5105680Y5125000D02*
X5099120Y5118190D01*
X5096500Y5110400D01*
X5099120Y5102610D01*
X5107000Y5095790D01*
X5118810Y5090920D01*
X5130620Y5088980D01*
X5145060D01*
X5156870Y5090920D01*
X5167370Y5095790D01*
X5172620Y5101630D01*
X5175240Y5108450D01*
X5172620Y5116240D01*
X5167370Y5122080D01*
X5159490Y5125980D01*
X5148990Y5127920D01*
X5139810Y5125980D01*
X5130620Y5121110D01*
X5125370Y5115270D01*
X5124060Y5108450D01*
X5126680Y5100660D01*
X5133240Y5094820D01*
X5145060Y5088980D01*
G01X5096600Y6503280D02*
X5033100D01*
Y6529740D01*
X5036280Y6538210D01*
X5040510Y6543500D01*
X5048980Y6545620D01*
X5057440Y6543500D01*
X5062730Y6537150D01*
X5065910Y6529740D01*
Y6503280D01*
G01Y6529740D02*
X5096600Y6545620D01*
G01X5083900Y6574670D02*
X5091310Y6581020D01*
X5095540Y6589480D01*
X5096600Y6599010D01*
X5095540Y6607480D01*
X5090250Y6615940D01*
X5083900Y6621230D01*
X5077550Y6622290D01*
X5070140Y6620180D01*
X5064850Y6612770D01*
X5062730Y6605360D01*
Y6595830D01*
G01Y6605360D02*
X5059560Y6611710D01*
X5054270Y6617000D01*
X5047920Y6619120D01*
X5041570Y6617000D01*
X5036280Y6611710D01*
X5033100Y6602180D01*
X5034160Y6592660D01*
X5038390Y6583130D01*
G01X5096600Y6671450D02*
X5095540Y6678860D01*
X5092370Y6687320D01*
X5087080Y6692620D01*
X5079670Y6694730D01*
X5072260Y6692620D01*
X5065910Y6686270D01*
X5062730Y6676740D01*
Y6666160D01*
X5060620Y6659810D01*
X5055330Y6654520D01*
X5047920Y6652400D01*
X5040510Y6655580D01*
X5035220Y6662980D01*
X5033100Y6671450D01*
X5035220Y6679920D01*
X5040510Y6687320D01*
X5047920Y6690500D01*
X5055330Y6688380D01*
X5060620Y6683090D01*
X5062730Y6676740D01*
Y6666160D01*
X5065910Y6656630D01*
X5072260Y6650280D01*
X5079670Y6648170D01*
X5087080Y6650280D01*
X5092370Y6655580D01*
X5095540Y6664040D01*
X5096600Y6671450D01*
G01X5130000Y7067000D02*
Y7157000D01*
G01Y7067000D02*
X5305000D01*
G01X7070000Y7470000D02*
Y7607000D01*
X5130000D01*
Y7470000D01*
G01X5431420Y3602730D02*
X5427480Y3596890D01*
X5424860Y3590070D01*
Y3582280D01*
X5428800Y3573520D01*
X5435360Y3566710D01*
X5443230Y3561840D01*
X5456360Y3557940D01*
X5468170Y3556970D01*
X5479980Y3558920D01*
X5487850Y3561840D01*
X5495730Y3567680D01*
X5500980Y3574490D01*
X5503600Y3581310D01*
Y3588130D01*
X5500980Y3594940D01*
X5497040Y3600780D01*
X5491790Y3605650D01*
G01X5503600Y3660050D02*
X5424860D01*
X5440610Y3648370D01*
G01X5503600D02*
Y3671730D01*
G01Y3738790D02*
X5502290Y3745610D01*
X5498350Y3753390D01*
X5491790Y3758260D01*
X5482600Y3760210D01*
X5473420Y3758260D01*
X5465540Y3752420D01*
X5461600Y3743660D01*
Y3733920D01*
X5458980Y3728080D01*
X5452420Y3723210D01*
X5443230Y3721260D01*
X5434050Y3724190D01*
X5427480Y3731000D01*
X5424860Y3738790D01*
X5427480Y3746580D01*
X5434050Y3753390D01*
X5443230Y3756320D01*
X5452420Y3754370D01*
X5458980Y3749500D01*
X5461600Y3743660D01*
Y3733920D01*
X5465540Y3725160D01*
X5473420Y3719320D01*
X5482600Y3717370D01*
X5491790Y3719320D01*
X5498350Y3724190D01*
X5502290Y3731970D01*
X5503600Y3738790D01*
G01X5450000Y4238490D02*
X5371260D01*
Y4257960D01*
X5375200Y4265750D01*
X5380450Y4271590D01*
X5388320Y4276460D01*
X5397510Y4280360D01*
X5410630Y4281330D01*
X5423750Y4280360D01*
X5432940Y4276460D01*
X5440820Y4271590D01*
X5446060Y4265750D01*
X5450000Y4257960D01*
Y4238490D01*
G01X5417190Y4320150D02*
X5408000Y4326970D01*
X5402760Y4332810D01*
X5400130Y4340600D01*
X5402760Y4347410D01*
X5408000Y4352280D01*
X5415880Y4356180D01*
X5425070Y4357150D01*
X5432940Y4356180D01*
X5440820Y4352280D01*
X5447380Y4346440D01*
X5450000Y4339620D01*
X5447380Y4331830D01*
X5439500Y4325020D01*
X5427690Y4321120D01*
X5414570Y4320150D01*
X5397510Y4322100D01*
X5388320Y4325020D01*
X5379130Y4329890D01*
X5372570Y4336700D01*
X5371260Y4343520D01*
X5373880Y4350330D01*
X5380450Y4355200D01*
G01X5373030Y4817990D02*
X5451770D01*
Y4798520D01*
X5447830Y4790730D01*
X5442580Y4784890D01*
X5434710Y4780020D01*
X5425520Y4776120D01*
X5412400Y4775150D01*
X5399280Y4776120D01*
X5390090Y4780020D01*
X5382210Y4784890D01*
X5376970Y4790730D01*
X5373030Y4798520D01*
Y4817990D01*
G01Y4717830D02*
X5374340Y4711010D01*
X5378280Y4703230D01*
X5384840Y4698360D01*
X5394030Y4696410D01*
X5403210Y4698360D01*
X5411090Y4704200D01*
X5415030Y4712960D01*
Y4722700D01*
X5417650Y4728540D01*
X5424210Y4733410D01*
X5433400Y4735360D01*
X5442580Y4732430D01*
X5449150Y4725620D01*
X5451770Y4717830D01*
X5449150Y4710040D01*
X5442580Y4703230D01*
X5433400Y4700300D01*
X5424210Y4702250D01*
X5417650Y4707120D01*
X5415030Y4712960D01*
Y4722700D01*
X5411090Y4731460D01*
X5403210Y4737300D01*
X5394030Y4739250D01*
X5384840Y4737300D01*
X5378280Y4732430D01*
X5374340Y4724650D01*
X5373030Y4717830D01*
G01X5406240Y5189700D02*
Y5268440D01*
X5430580D01*
X5438370Y5264500D01*
X5443240Y5259250D01*
X5445180Y5248750D01*
X5443240Y5238260D01*
X5437390Y5231700D01*
X5430580Y5227760D01*
X5406240D01*
G01X5430580D02*
X5445180Y5189700D01*
G01X5504450D02*
Y5268440D01*
X5492770Y5252690D01*
G01Y5189700D02*
X5516130D01*
G01X5566640Y5198880D02*
X5573450Y5192320D01*
X5581240Y5189700D01*
X5589030Y5192320D01*
X5595850Y5200200D01*
X5600720Y5212010D01*
X5602660Y5223820D01*
Y5238260D01*
X5600720Y5250070D01*
X5595850Y5260570D01*
X5590010Y5265820D01*
X5583190Y5268440D01*
X5575400Y5265820D01*
X5569560Y5260570D01*
X5565660Y5252690D01*
X5563720Y5242190D01*
X5565660Y5233010D01*
X5570530Y5223820D01*
X5576370Y5218570D01*
X5583190Y5217260D01*
X5590980Y5219880D01*
X5596820Y5226440D01*
X5602660Y5238260D01*
G01X5404440Y5512900D02*
Y5591640D01*
X5428780D01*
X5436570Y5587700D01*
X5441440Y5582450D01*
X5443380Y5571950D01*
X5441440Y5561460D01*
X5435590Y5554900D01*
X5428780Y5550960D01*
X5404440D01*
G01X5428780D02*
X5443380Y5512900D01*
G01X5502650D02*
Y5591640D01*
X5490970Y5575890D01*
G01Y5512900D02*
X5514330D01*
G01X5579440D02*
X5581390Y5529960D01*
X5584310Y5544390D01*
X5588210Y5557520D01*
X5593070Y5571950D01*
X5600860Y5591640D01*
X5561920D01*
G01X5256420Y5740330D02*
X5252480Y5734490D01*
X5249860Y5727670D01*
Y5719880D01*
X5253800Y5711120D01*
X5260360Y5704310D01*
X5268230Y5699440D01*
X5281360Y5695540D01*
X5293170Y5694570D01*
X5304980Y5696520D01*
X5312850Y5699440D01*
X5320730Y5705280D01*
X5325980Y5712090D01*
X5328600Y5718910D01*
Y5725730D01*
X5325980Y5732540D01*
X5322040Y5738380D01*
X5316790Y5743250D01*
G01X5328600Y5797650D02*
X5249860D01*
X5265610Y5785970D01*
G01X5328600D02*
Y5809330D01*
G01Y5874440D02*
X5311540Y5876390D01*
X5297110Y5879310D01*
X5283980Y5883210D01*
X5269550Y5888070D01*
X5249860Y5895860D01*
Y5856920D01*
G01X5275620Y6617070D02*
X5271680Y6611230D01*
X5269060Y6604410D01*
Y6596620D01*
X5273000Y6587860D01*
X5279560Y6581050D01*
X5287430Y6576180D01*
X5300560Y6572280D01*
X5312370Y6571310D01*
X5324180Y6573260D01*
X5332050Y6576180D01*
X5339930Y6582020D01*
X5345180Y6588830D01*
X5347800Y6595650D01*
Y6602470D01*
X5345180Y6609280D01*
X5341240Y6615120D01*
X5335990Y6619990D01*
G01X5347800Y6674390D02*
X5269060D01*
X5284810Y6662710D01*
G01X5347800D02*
Y6686070D01*
G01X5441800Y6568180D02*
X5363060D01*
Y6592520D01*
X5367000Y6600310D01*
X5372250Y6605180D01*
X5382750Y6607120D01*
X5393240Y6605180D01*
X5399800Y6599330D01*
X5403740Y6592520D01*
Y6568180D01*
G01Y6592520D02*
X5441800Y6607120D01*
G01Y6678070D02*
X5363060D01*
X5419490Y6642050D01*
Y6690730D01*
G01X5535800Y6568180D02*
X5457060D01*
Y6592520D01*
X5461000Y6600310D01*
X5466250Y6605180D01*
X5476750Y6607120D01*
X5487240Y6605180D01*
X5493800Y6599330D01*
X5497740Y6592520D01*
Y6568180D01*
G01Y6592520D02*
X5535800Y6607120D01*
G01X5520050Y6644970D02*
X5529240Y6650810D01*
X5534490Y6658600D01*
X5535800Y6667360D01*
X5534490Y6675150D01*
X5527930Y6682940D01*
X5520050Y6687810D01*
X5512180Y6688780D01*
X5502990Y6686840D01*
X5496430Y6680020D01*
X5493800Y6673210D01*
Y6664440D01*
G01Y6673210D02*
X5489870Y6679050D01*
X5483310Y6683920D01*
X5475430Y6685860D01*
X5467560Y6683920D01*
X5461000Y6679050D01*
X5457060Y6670280D01*
X5458370Y6661520D01*
X5463620Y6652760D01*
G01X5655400Y3631540D02*
X5576660D01*
Y3655880D01*
X5580600Y3663670D01*
X5585850Y3668540D01*
X5596350Y3670480D01*
X5606840Y3668540D01*
X5613400Y3662690D01*
X5617340Y3655880D01*
Y3631540D01*
G01Y3655880D02*
X5655400Y3670480D01*
G01Y3729750D02*
X5576660D01*
X5592410Y3718070D01*
G01X5655400D02*
Y3741430D01*
G01Y3808490D02*
X5654090Y3815310D01*
X5650150Y3823090D01*
X5643590Y3827960D01*
X5634400Y3829910D01*
X5625220Y3827960D01*
X5617340Y3822120D01*
X5613400Y3813360D01*
Y3803620D01*
X5610780Y3797780D01*
X5604220Y3792910D01*
X5595030Y3790960D01*
X5585850Y3793890D01*
X5579280Y3800700D01*
X5576660Y3808490D01*
X5579280Y3816280D01*
X5585850Y3823090D01*
X5595030Y3826020D01*
X5604220Y3824070D01*
X5610780Y3819200D01*
X5613400Y3813360D01*
Y3803620D01*
X5617340Y3794860D01*
X5625220Y3789020D01*
X5634400Y3787070D01*
X5643590Y3789020D01*
X5650150Y3793890D01*
X5654090Y3801670D01*
X5655400Y3808490D01*
G01X5801800Y3745840D02*
X5723060D01*
Y3770180D01*
X5727000Y3777970D01*
X5732250Y3782840D01*
X5742750Y3784780D01*
X5753240Y3782840D01*
X5759800Y3776990D01*
X5763740Y3770180D01*
Y3745840D01*
G01Y3770180D02*
X5801800Y3784780D01*
G01X5736180Y3825550D02*
X5728310Y3831390D01*
X5724370Y3838210D01*
X5723060Y3846000D01*
X5725680Y3855730D01*
X5732250Y3862550D01*
X5740120Y3864500D01*
X5748000Y3863520D01*
X5754560Y3859630D01*
X5767680Y3840160D01*
X5776870Y3831390D01*
X5789990Y3825550D01*
X5801800Y3823600D01*
Y3864500D01*
G01X5723060Y3922790D02*
X5725680Y3915000D01*
X5732250Y3909160D01*
X5740120Y3905260D01*
X5750620Y3902340D01*
X5762430Y3901370D01*
X5774240Y3902340D01*
X5784740Y3905260D01*
X5792620Y3909160D01*
X5799180Y3915000D01*
X5801800Y3922790D01*
X5799180Y3930580D01*
X5792620Y3936420D01*
X5784740Y3940320D01*
X5774240Y3943240D01*
X5762430Y3944210D01*
X5750620Y3943240D01*
X5740120Y3940320D01*
X5732250Y3936420D01*
X5725680Y3930580D01*
X5723060Y3922790D01*
G01X5722520Y4413530D02*
X5718580Y4407690D01*
X5715960Y4400870D01*
Y4393080D01*
X5719900Y4384320D01*
X5726460Y4377510D01*
X5734330Y4372640D01*
X5747460Y4368740D01*
X5759270Y4367770D01*
X5771080Y4369720D01*
X5778950Y4372640D01*
X5786830Y4378480D01*
X5792080Y4385290D01*
X5794700Y4392110D01*
Y4398930D01*
X5792080Y4405740D01*
X5788140Y4411580D01*
X5782890Y4416450D01*
G01X5729080Y4452350D02*
X5721210Y4458190D01*
X5717270Y4465010D01*
X5715960Y4472800D01*
X5718580Y4482530D01*
X5725150Y4489350D01*
X5733020Y4491300D01*
X5740900Y4490320D01*
X5747460Y4486430D01*
X5760580Y4466960D01*
X5769770Y4458190D01*
X5782890Y4452350D01*
X5794700Y4450400D01*
Y4491300D01*
G01Y4561270D02*
X5715960D01*
X5772390Y4525250D01*
Y4573930D01*
G01X5653600Y4504590D02*
X5574860D01*
Y4524060D01*
X5578800Y4531850D01*
X5584050Y4537690D01*
X5591920Y4542560D01*
X5601110Y4546460D01*
X5614230Y4547430D01*
X5627350Y4546460D01*
X5636540Y4542560D01*
X5644420Y4537690D01*
X5649660Y4531850D01*
X5653600Y4524060D01*
Y4504590D01*
G01Y4604750D02*
X5574860D01*
X5590610Y4593070D01*
G01X5653600D02*
Y4616430D01*
G01Y4683490D02*
X5574860D01*
X5590610Y4671810D01*
G01X5653600D02*
Y4695170D01*
G01X5631420Y4884930D02*
X5627480Y4879090D01*
X5624860Y4872270D01*
Y4864480D01*
X5628800Y4855720D01*
X5635360Y4848910D01*
X5643230Y4844040D01*
X5656360Y4840140D01*
X5668170Y4839170D01*
X5679980Y4841120D01*
X5687850Y4844040D01*
X5695730Y4849880D01*
X5700980Y4856690D01*
X5703600Y4863510D01*
Y4870330D01*
X5700980Y4877140D01*
X5697040Y4882980D01*
X5691790Y4887850D01*
G01X5637980Y4923750D02*
X5630110Y4929590D01*
X5626170Y4936410D01*
X5624860Y4944200D01*
X5627480Y4953930D01*
X5634050Y4960750D01*
X5641920Y4962700D01*
X5649800Y4961720D01*
X5656360Y4957830D01*
X5669480Y4938360D01*
X5678670Y4929590D01*
X5691790Y4923750D01*
X5703600Y4921800D01*
Y4962700D01*
G01X5637980Y5002490D02*
X5630110Y5008330D01*
X5626170Y5015150D01*
X5624860Y5022940D01*
X5627480Y5032670D01*
X5634050Y5039490D01*
X5641920Y5041440D01*
X5649800Y5040460D01*
X5656360Y5036570D01*
X5669480Y5017100D01*
X5678670Y5008330D01*
X5691790Y5002490D01*
X5703600Y5000540D01*
Y5041440D01*
G01X5818920Y4813530D02*
X5814980Y4807690D01*
X5812360Y4800870D01*
Y4793080D01*
X5816300Y4784320D01*
X5822860Y4777510D01*
X5830730Y4772640D01*
X5843860Y4768740D01*
X5855670Y4767770D01*
X5867480Y4769720D01*
X5875350Y4772640D01*
X5883230Y4778480D01*
X5888480Y4785290D01*
X5891100Y4792110D01*
Y4798930D01*
X5888480Y4805740D01*
X5884540Y4811580D01*
X5879290Y4816450D01*
G01X5825480Y4852350D02*
X5817610Y4858190D01*
X5813670Y4865010D01*
X5812360Y4872800D01*
X5814980Y4882530D01*
X5821550Y4889350D01*
X5829420Y4891300D01*
X5837300Y4890320D01*
X5843860Y4886430D01*
X5856980Y4866960D01*
X5866170Y4858190D01*
X5879290Y4852350D01*
X5891100Y4850400D01*
Y4891300D01*
G01Y4949590D02*
X5812360D01*
X5828110Y4937910D01*
G01X5891100D02*
Y4961270D01*
G01X5826800Y5381390D02*
X5748060D01*
Y5400860D01*
X5752000Y5408650D01*
X5757250Y5414490D01*
X5765120Y5419360D01*
X5774310Y5423260D01*
X5787430Y5424230D01*
X5800550Y5423260D01*
X5809740Y5419360D01*
X5817620Y5414490D01*
X5822860Y5408650D01*
X5826800Y5400860D01*
Y5381390D01*
G01Y5481550D02*
X5748060D01*
X5763810Y5469870D01*
G01X5826800D02*
Y5493230D01*
G01X5748060Y5560290D02*
X5750680Y5552500D01*
X5757250Y5546660D01*
X5765120Y5542760D01*
X5775620Y5539840D01*
X5787430Y5538870D01*
X5799240Y5539840D01*
X5809740Y5542760D01*
X5817620Y5546660D01*
X5824180Y5552500D01*
X5826800Y5560290D01*
X5824180Y5568080D01*
X5817620Y5573920D01*
X5809740Y5577820D01*
X5799240Y5580740D01*
X5787430Y5581710D01*
X5775620Y5580740D01*
X5765120Y5577820D01*
X5757250Y5573920D01*
X5750680Y5568080D01*
X5748060Y5560290D01*
G01X5636300Y6569340D02*
X5557560D01*
Y6593680D01*
X5561500Y6601470D01*
X5566750Y6606340D01*
X5577250Y6608280D01*
X5587740Y6606340D01*
X5594300Y6600490D01*
X5598240Y6593680D01*
Y6569340D01*
G01Y6593680D02*
X5636300Y6608280D01*
G01Y6665600D02*
X5619240Y6667550D01*
X5604810Y6670470D01*
X5591680Y6674370D01*
X5577250Y6679230D01*
X5557560Y6687020D01*
Y6648080D01*
G01X5902820Y4000180D02*
X5898880Y3994340D01*
X5896260Y3987520D01*
Y3979730D01*
X5900200Y3970970D01*
X5906760Y3964160D01*
X5914630Y3959290D01*
X5927760Y3955390D01*
X5939570Y3954420D01*
X5951380Y3956370D01*
X5959250Y3959290D01*
X5967130Y3965130D01*
X5972380Y3971940D01*
X5975000Y3978760D01*
Y3985580D01*
X5972380Y3992390D01*
X5968440Y3998230D01*
X5963190Y4003100D01*
G01X5909380Y4039000D02*
X5901510Y4044840D01*
X5897570Y4051660D01*
X5896260Y4059450D01*
X5898880Y4069180D01*
X5905450Y4076000D01*
X5913320Y4077950D01*
X5921200Y4076970D01*
X5927760Y4073080D01*
X5940880Y4053610D01*
X5950070Y4044840D01*
X5963190Y4039000D01*
X5975000Y4037050D01*
Y4077950D01*
G01X5959250Y4114820D02*
X5968440Y4120660D01*
X5973690Y4128450D01*
X5975000Y4137210D01*
X5973690Y4145000D01*
X5967130Y4152790D01*
X5959250Y4157660D01*
X5951380Y4158630D01*
X5942190Y4156690D01*
X5935630Y4149870D01*
X5933000Y4143060D01*
Y4134290D01*
G01Y4143060D02*
X5929070Y4148900D01*
X5922510Y4153770D01*
X5914630Y4155710D01*
X5906760Y4153770D01*
X5900200Y4148900D01*
X5896260Y4140130D01*
X5897570Y4131370D01*
X5902820Y4122610D01*
G01X6160370Y4841110D02*
Y4919850D01*
X6184710D01*
X6192500Y4915910D01*
X6197370Y4910660D01*
X6199310Y4900160D01*
X6197370Y4889670D01*
X6191520Y4883110D01*
X6184710Y4879170D01*
X6160370D01*
G01X6184710D02*
X6199310Y4841110D01*
G01X6258580D02*
Y4919850D01*
X6246900Y4904100D01*
G01Y4841110D02*
X6270260D01*
G01X6337320D02*
Y4919850D01*
X6325640Y4904100D01*
G01Y4841110D02*
X6349000D01*
G01X6165000Y6442740D02*
X6086260D01*
Y6467080D01*
X6090200Y6474870D01*
X6095450Y6479740D01*
X6105950Y6481680D01*
X6116440Y6479740D01*
X6123000Y6473890D01*
X6126940Y6467080D01*
Y6442740D01*
G01Y6467080D02*
X6165000Y6481680D01*
G01X6132190Y6522450D02*
X6123000Y6529270D01*
X6117760Y6535110D01*
X6115130Y6542900D01*
X6117760Y6549710D01*
X6123000Y6554580D01*
X6130880Y6558480D01*
X6140070Y6559450D01*
X6147940Y6558480D01*
X6155820Y6554580D01*
X6162380Y6548740D01*
X6165000Y6541920D01*
X6162380Y6534130D01*
X6154500Y6527320D01*
X6142690Y6523420D01*
X6129570Y6522450D01*
X6112510Y6524400D01*
X6103320Y6527320D01*
X6094130Y6532190D01*
X6087570Y6539000D01*
X6086260Y6545820D01*
X6088880Y6552630D01*
X6095450Y6557500D01*
G01X6270500Y6440580D02*
X6191760D01*
Y6464920D01*
X6195700Y6472710D01*
X6200950Y6477580D01*
X6211450Y6479520D01*
X6221940Y6477580D01*
X6228500Y6471730D01*
X6232440Y6464920D01*
Y6440580D01*
G01Y6464920D02*
X6270500Y6479520D01*
G01X6204880Y6520290D02*
X6197010Y6526130D01*
X6193070Y6532950D01*
X6191760Y6540740D01*
X6194380Y6550470D01*
X6200950Y6557290D01*
X6208820Y6559240D01*
X6216700Y6558260D01*
X6223260Y6554370D01*
X6236380Y6534900D01*
X6245570Y6526130D01*
X6258690Y6520290D01*
X6270500Y6518340D01*
Y6559240D01*
G01X5972580Y6884250D02*
X5977450Y6876370D01*
X5983290Y6871120D01*
X5990100Y6868500D01*
X5997890Y6871120D01*
X6003730Y6876370D01*
X6009580Y6884250D01*
X6011520Y6894750D01*
Y6947240D01*
G01X6052290Y6934120D02*
X6058130Y6941990D01*
X6064950Y6945930D01*
X6072740Y6947240D01*
X6082470Y6944620D01*
X6089290Y6938050D01*
X6091240Y6930180D01*
X6090260Y6922300D01*
X6086370Y6915740D01*
X6066900Y6902620D01*
X6058130Y6893430D01*
X6052290Y6880310D01*
X6050340Y6868500D01*
X6091240D01*
G01X6393350Y4636300D02*
X6389410Y4630460D01*
X6386790Y4623640D01*
Y4615850D01*
X6390730Y4607090D01*
X6397290Y4600280D01*
X6405160Y4595410D01*
X6418290Y4591510D01*
X6430100Y4590540D01*
X6441910Y4592490D01*
X6449780Y4595410D01*
X6457660Y4601250D01*
X6462910Y4608060D01*
X6465530Y4614880D01*
Y4621700D01*
X6462910Y4628510D01*
X6458970Y4634350D01*
X6453720Y4639220D01*
G01X6432720Y4675120D02*
X6423530Y4681940D01*
X6418290Y4687780D01*
X6415660Y4695570D01*
X6418290Y4702380D01*
X6423530Y4707250D01*
X6431410Y4711150D01*
X6440600Y4712120D01*
X6448470Y4711150D01*
X6456350Y4707250D01*
X6462910Y4701410D01*
X6465530Y4694590D01*
X6462910Y4686800D01*
X6455030Y4679990D01*
X6443220Y4676090D01*
X6430100Y4675120D01*
X6413040Y4677070D01*
X6403850Y4679990D01*
X6394660Y4684860D01*
X6388100Y4691670D01*
X6386790Y4698490D01*
X6389410Y4705300D01*
X6395980Y4710170D01*
G01X6321400Y5078380D02*
X6257900D01*
Y5104840D01*
X6261080Y5113310D01*
X6265310Y5118600D01*
X6273780Y5120720D01*
X6282240Y5118600D01*
X6287530Y5112250D01*
X6290710Y5104840D01*
Y5078380D01*
G01Y5104840D02*
X6321400Y5120720D01*
G01Y5173050D02*
X6257900D01*
X6270600Y5160350D01*
G01X6321400D02*
Y5185750D01*
G01X6268480Y5226440D02*
X6262130Y5232790D01*
X6258960Y5240200D01*
X6257900Y5248670D01*
X6260020Y5259250D01*
X6265310Y5266660D01*
X6271660Y5268780D01*
X6278010Y5267720D01*
X6283300Y5263480D01*
X6293880Y5242320D01*
X6301290Y5232790D01*
X6311880Y5226440D01*
X6321400Y5224320D01*
Y5268780D01*
G01X6439970Y5411310D02*
X6436030Y5405470D01*
X6433410Y5398650D01*
Y5390860D01*
X6437350Y5382100D01*
X6443910Y5375290D01*
X6451780Y5370420D01*
X6464910Y5366520D01*
X6476720Y5365550D01*
X6488530Y5367500D01*
X6496400Y5370420D01*
X6504280Y5376260D01*
X6509530Y5383070D01*
X6512150Y5389890D01*
Y5396710D01*
X6509530Y5403520D01*
X6505590Y5409360D01*
X6500340Y5414230D01*
G01Y5447210D02*
X6506900Y5453050D01*
X6510840Y5459870D01*
X6512150Y5468630D01*
X6509530Y5477390D01*
X6504280Y5484210D01*
X6495090Y5489080D01*
X6484590Y5490050D01*
X6474090Y5488100D01*
X6467530Y5483230D01*
X6462280Y5476420D01*
X6460970Y5469600D01*
X6462280Y5462790D01*
X6467530Y5454030D01*
X6433410Y5456950D01*
Y5483230D01*
G01X6470000Y6443740D02*
X6391260D01*
Y6468080D01*
X6395200Y6475870D01*
X6400450Y6480740D01*
X6410950Y6482680D01*
X6421440Y6480740D01*
X6428000Y6474890D01*
X6431940Y6468080D01*
Y6443740D01*
G01Y6468080D02*
X6470000Y6482680D01*
G01X6458190Y6520530D02*
X6464750Y6526370D01*
X6468690Y6533190D01*
X6470000Y6541950D01*
X6467380Y6550710D01*
X6462130Y6557530D01*
X6452940Y6562400D01*
X6442440Y6563370D01*
X6431940Y6561420D01*
X6425380Y6556550D01*
X6420130Y6549740D01*
X6418820Y6542920D01*
X6420130Y6536110D01*
X6425380Y6527350D01*
X6391260Y6530270D01*
Y6556550D01*
G01X6368000Y6444740D02*
X6289260D01*
Y6469080D01*
X6293200Y6476870D01*
X6298450Y6481740D01*
X6308950Y6483680D01*
X6319440Y6481740D01*
X6326000Y6475890D01*
X6329940Y6469080D01*
Y6444740D01*
G01Y6469080D02*
X6368000Y6483680D01*
G01Y6542950D02*
X6289260D01*
X6305010Y6531270D01*
G01X6368000D02*
Y6554630D01*
G01X6818490Y2259000D02*
Y2337740D01*
X6837960D01*
X6845750Y2333800D01*
X6851590Y2328550D01*
X6856460Y2320680D01*
X6860360Y2311490D01*
X6861330Y2298370D01*
X6860360Y2285250D01*
X6856460Y2276060D01*
X6851590Y2268180D01*
X6845750Y2262940D01*
X6837960Y2259000D01*
X6818490D01*
G01X6897230Y2274750D02*
X6903070Y2265560D01*
X6910860Y2260310D01*
X6919620Y2259000D01*
X6927410Y2260310D01*
X6935200Y2266870D01*
X6940070Y2274750D01*
X6941040Y2282620D01*
X6939100Y2291810D01*
X6932280Y2298370D01*
X6925470Y2301000D01*
X6916700D01*
G01X6925470D02*
X6931310Y2304930D01*
X6936180Y2311490D01*
X6938120Y2319370D01*
X6936180Y2327240D01*
X6931310Y2333800D01*
X6922540Y2337740D01*
X6913780Y2336430D01*
X6905020Y2331180D01*
G01X6773890Y2828600D02*
Y2907340D01*
X6793360D01*
X6801150Y2903400D01*
X6806990Y2898150D01*
X6811860Y2890280D01*
X6815760Y2881090D01*
X6816730Y2867970D01*
X6815760Y2854850D01*
X6811860Y2845660D01*
X6806990Y2837780D01*
X6801150Y2832540D01*
X6793360Y2828600D01*
X6773890D01*
G01X6874050D02*
Y2907340D01*
X6862370Y2891590D01*
G01Y2828600D02*
X6885730D01*
G01X6934290Y2894220D02*
X6940130Y2902090D01*
X6946950Y2906030D01*
X6954740Y2907340D01*
X6964470Y2904720D01*
X6971290Y2898150D01*
X6973240Y2890280D01*
X6972260Y2882400D01*
X6968370Y2875840D01*
X6948900Y2862720D01*
X6940130Y2853530D01*
X6934290Y2840410D01*
X6932340Y2828600D01*
X6973240D01*
G01X6842410Y4871380D02*
X6898840D01*
X6910650Y4875270D01*
X6918530Y4883060D01*
X6921150Y4892800D01*
X6918530Y4902540D01*
X6910650Y4910330D01*
X6898840Y4914220D01*
X6842410D01*
G01X6921150Y4971540D02*
X6842410D01*
X6858160Y4959860D01*
G01X6921150D02*
Y4983220D01*
G01X6824080Y4685530D02*
X6828020Y4691370D01*
X6830640Y4698190D01*
Y4705980D01*
X6826700Y4714740D01*
X6820140Y4721550D01*
X6812270Y4726420D01*
X6799140Y4730320D01*
X6787330Y4731290D01*
X6775520Y4729340D01*
X6767650Y4726420D01*
X6759770Y4720580D01*
X6754520Y4713770D01*
X6751900Y4706950D01*
Y4700130D01*
X6754520Y4693320D01*
X6758460Y4687480D01*
X6763710Y4682610D01*
G01X6751900Y4616530D02*
X6830640D01*
X6774210Y4652550D01*
Y4603870D01*
G01X6832470Y5618950D02*
Y5697690D01*
X6851940D01*
X6859730Y5693750D01*
X6865570Y5688500D01*
X6870440Y5680630D01*
X6874340Y5671440D01*
X6875310Y5658320D01*
X6874340Y5645200D01*
X6870440Y5636010D01*
X6865570Y5628130D01*
X6859730Y5622890D01*
X6851940Y5618950D01*
X6832470D01*
G01X6944310D02*
Y5697690D01*
X6908290Y5641260D01*
X6956970D01*
G01X6895000Y7067000D02*
X7070000D01*
G01X7030000Y3767000D02*
Y3857000D01*
G01Y3767000D02*
X7205000D01*
G01X9470000Y4170000D02*
Y4307000D01*
X7030000D01*
Y4170000D01*
G01X7219430Y5203060D02*
X7298170D01*
Y5242000D01*
G01Y5301270D02*
X7219430D01*
X7235180Y5289590D01*
G01X7298170D02*
Y5312950D01*
G01X7070000Y7067000D02*
Y7157000D01*
G01X7311840Y3007900D02*
Y3086640D01*
X7336180D01*
X7343970Y3082700D01*
X7348840Y3077450D01*
X7350780Y3066950D01*
X7348840Y3056460D01*
X7342990Y3049900D01*
X7336180Y3045960D01*
X7311840D01*
G01X7336180D02*
X7350780Y3007900D01*
G01X7391550Y3073520D02*
X7397390Y3081390D01*
X7404210Y3085330D01*
X7412000Y3086640D01*
X7421730Y3084020D01*
X7428550Y3077450D01*
X7430500Y3069580D01*
X7429520Y3061700D01*
X7425630Y3055140D01*
X7406160Y3042020D01*
X7397390Y3032830D01*
X7391550Y3019710D01*
X7389600Y3007900D01*
X7430500D01*
G01X7500470D02*
Y3086640D01*
X7464450Y3030210D01*
X7513130D01*
G01X7662000Y1437400D02*
Y542600D01*
G01D02*
X8678000D01*
G01X7719740Y1505750D02*
X7724610Y1497870D01*
X7730450Y1492620D01*
X7737260Y1490000D01*
X7745050Y1492620D01*
X7750890Y1497870D01*
X7756740Y1505750D01*
X7758680Y1516250D01*
Y1568740D01*
G01X7799450Y1522810D02*
X7806270Y1532000D01*
X7812110Y1537240D01*
X7819900Y1539870D01*
X7826710Y1537240D01*
X7831580Y1532000D01*
X7835480Y1524120D01*
X7836450Y1514930D01*
X7835480Y1507060D01*
X7831580Y1499180D01*
X7825740Y1492620D01*
X7818920Y1490000D01*
X7811130Y1492620D01*
X7804320Y1500500D01*
X7800420Y1512310D01*
X7799450Y1525430D01*
X7801400Y1542490D01*
X7804320Y1551680D01*
X7809190Y1560870D01*
X7816000Y1567430D01*
X7822820Y1568740D01*
X7829630Y1566120D01*
X7834500Y1559550D01*
G01X8678000Y1437400D02*
X7662000D01*
G01X8070000Y2700000D02*
X7870000D01*
Y2845000D01*
G01X7836920Y3193100D02*
Y3129600D01*
X7810460D01*
X7801990Y3132780D01*
X7796700Y3137010D01*
X7794580Y3145480D01*
X7796700Y3153940D01*
X7803050Y3159230D01*
X7810460Y3162410D01*
X7836920D01*
G01X7810460D02*
X7794580Y3193100D01*
G01X7765530Y3180400D02*
X7759180Y3187810D01*
X7750720Y3192040D01*
X7741190Y3193100D01*
X7732720Y3192040D01*
X7724260Y3186750D01*
X7718970Y3180400D01*
X7717910Y3174050D01*
X7720020Y3166640D01*
X7727430Y3161350D01*
X7734840Y3159230D01*
X7744370D01*
G01X7734840D02*
X7728490Y3156060D01*
X7723200Y3150770D01*
X7721080Y3144420D01*
X7723200Y3138070D01*
X7728490Y3132780D01*
X7738020Y3129600D01*
X7747540Y3130660D01*
X7757070Y3134890D01*
G01X7670870Y3193100D02*
X7668750Y3179340D01*
X7665570Y3167700D01*
X7661340Y3157120D01*
X7656050Y3145480D01*
X7647580Y3129600D01*
X7689920D01*
G01X8590000Y3050000D02*
Y3150000D01*
X7870000D01*
Y3050000D01*
G01X8230340Y3185450D02*
X8235210Y3177570D01*
X8241050Y3172320D01*
X8247860Y3169700D01*
X8255650Y3172320D01*
X8261490Y3177570D01*
X8267340Y3185450D01*
X8269280Y3195950D01*
Y3248440D01*
G01X8328550Y3169700D02*
X8335370Y3171010D01*
X8343150Y3174950D01*
X8348020Y3181510D01*
X8349970Y3190700D01*
X8348020Y3199880D01*
X8342180Y3207760D01*
X8333420Y3211700D01*
X8323680D01*
X8317840Y3214320D01*
X8312970Y3220880D01*
X8311020Y3230070D01*
X8313950Y3239250D01*
X8320760Y3245820D01*
X8328550Y3248440D01*
X8336340Y3245820D01*
X8343150Y3239250D01*
X8346080Y3230070D01*
X8344130Y3220880D01*
X8339260Y3214320D01*
X8333420Y3211700D01*
X8323680D01*
X8314920Y3207760D01*
X8309080Y3199880D01*
X8307130Y3190700D01*
X8309080Y3181510D01*
X8313950Y3174950D01*
X8321730Y3171010D01*
X8328550Y3169700D01*
G01X8212440Y4349750D02*
X8217310Y4341870D01*
X8223150Y4336620D01*
X8229960Y4334000D01*
X8237750Y4336620D01*
X8243590Y4341870D01*
X8249440Y4349750D01*
X8251380Y4360250D01*
Y4412740D01*
G01X8308700Y4334000D02*
X8310650Y4351060D01*
X8313570Y4365490D01*
X8317470Y4378620D01*
X8322330Y4393050D01*
X8330120Y4412740D01*
X8291180D01*
G01X8390000Y2700000D02*
X8590000D01*
Y2845000D01*
G01X8678000Y542600D02*
Y1437400D01*
G01X9438300Y1670200D02*
Y1119500D01*
X9276600D01*
Y1671900D01*
X9438300D01*
G01X9470000Y3767000D02*
Y3857000D01*
G01X9295000Y3767000D02*
X9470000D01*
G01X9895040Y5169100D02*
Y5247840D01*
X9919380D01*
X9927170Y5243900D01*
X9932040Y5238650D01*
X9933980Y5228150D01*
X9932040Y5217660D01*
X9926190Y5211100D01*
X9919380Y5207160D01*
X9895040D01*
G01X9919380D02*
X9933980Y5169100D01*
G01X9971830Y5184850D02*
X9977670Y5175660D01*
X9985460Y5170410D01*
X9994220Y5169100D01*
X10002010Y5170410D01*
X10009800Y5176970D01*
X10014670Y5184850D01*
X10015640Y5192720D01*
X10013700Y5201910D01*
X10006880Y5208470D01*
X10000070Y5211100D01*
X9991300D01*
G01X10000070D02*
X10005910Y5215030D01*
X10010780Y5221590D01*
X10012720Y5229470D01*
X10010780Y5237340D01*
X10005910Y5243900D01*
X9997140Y5247840D01*
X9988380Y5246530D01*
X9979620Y5241280D01*
G01X10050570Y5180910D02*
X10056410Y5174350D01*
X10063230Y5170410D01*
X10071990Y5169100D01*
X10080750Y5171720D01*
X10087570Y5176970D01*
X10092440Y5186160D01*
X10093410Y5196660D01*
X10091460Y5207160D01*
X10086590Y5213720D01*
X10079780Y5218970D01*
X10072960Y5220280D01*
X10066150Y5218970D01*
X10057390Y5213720D01*
X10060310Y5247840D01*
X10086590D01*
G01X9895040Y5079100D02*
Y5157840D01*
X9919380D01*
X9927170Y5153900D01*
X9932040Y5148650D01*
X9933980Y5138150D01*
X9932040Y5127660D01*
X9926190Y5121100D01*
X9919380Y5117160D01*
X9895040D01*
G01X9919380D02*
X9933980Y5079100D01*
G01X9971830Y5094850D02*
X9977670Y5085660D01*
X9985460Y5080410D01*
X9994220Y5079100D01*
X10002010Y5080410D01*
X10009800Y5086970D01*
X10014670Y5094850D01*
X10015640Y5102720D01*
X10013700Y5111910D01*
X10006880Y5118470D01*
X10000070Y5121100D01*
X9991300D01*
G01X10000070D02*
X10005910Y5125030D01*
X10010780Y5131590D01*
X10012720Y5139470D01*
X10010780Y5147340D01*
X10005910Y5153900D01*
X9997140Y5157840D01*
X9988380Y5156530D01*
X9979620Y5151280D01*
G01X10053490Y5111910D02*
X10060310Y5121100D01*
X10066150Y5126340D01*
X10073940Y5128970D01*
X10080750Y5126340D01*
X10085620Y5121100D01*
X10089520Y5113220D01*
X10090490Y5104030D01*
X10089520Y5096160D01*
X10085620Y5088280D01*
X10079780Y5081720D01*
X10072960Y5079100D01*
X10065170Y5081720D01*
X10058360Y5089600D01*
X10054460Y5101410D01*
X10053490Y5114530D01*
X10055440Y5131590D01*
X10058360Y5140780D01*
X10063230Y5149970D01*
X10070040Y5156530D01*
X10076860Y5157840D01*
X10083670Y5155220D01*
X10088540Y5148650D01*
G01X9993540Y3855600D02*
Y3934340D01*
X10017880D01*
X10025670Y3930400D01*
X10030540Y3925150D01*
X10032480Y3914650D01*
X10030540Y3904160D01*
X10024690Y3897600D01*
X10017880Y3893660D01*
X9993540D01*
G01X10017880D02*
X10032480Y3855600D01*
G01X10070330Y3871350D02*
X10076170Y3862160D01*
X10083960Y3856910D01*
X10092720Y3855600D01*
X10100510Y3856910D01*
X10108300Y3863470D01*
X10113170Y3871350D01*
X10114140Y3879220D01*
X10112200Y3888410D01*
X10105380Y3894970D01*
X10098570Y3897600D01*
X10089800D01*
G01X10098570D02*
X10104410Y3901530D01*
X10109280Y3908090D01*
X10111220Y3915970D01*
X10109280Y3923840D01*
X10104410Y3930400D01*
X10095640Y3934340D01*
X10086880Y3933030D01*
X10078120Y3927780D01*
G01X10149070Y3871350D02*
X10154910Y3862160D01*
X10162700Y3856910D01*
X10171460Y3855600D01*
X10179250Y3856910D01*
X10187040Y3863470D01*
X10191910Y3871350D01*
X10192880Y3879220D01*
X10190940Y3888410D01*
X10184120Y3894970D01*
X10177310Y3897600D01*
X10168540D01*
G01X10177310D02*
X10183150Y3901530D01*
X10188020Y3908090D01*
X10189960Y3915970D01*
X10188020Y3923840D01*
X10183150Y3930400D01*
X10174380Y3934340D01*
X10165620Y3933030D01*
X10156860Y3927780D01*
G01X9993540Y3765600D02*
Y3844340D01*
X10017880D01*
X10025670Y3840400D01*
X10030540Y3835150D01*
X10032480Y3824650D01*
X10030540Y3814160D01*
X10024690Y3807600D01*
X10017880Y3803660D01*
X9993540D01*
G01X10017880D02*
X10032480Y3765600D01*
G01X10070330Y3781350D02*
X10076170Y3772160D01*
X10083960Y3766910D01*
X10092720Y3765600D01*
X10100510Y3766910D01*
X10108300Y3773470D01*
X10113170Y3781350D01*
X10114140Y3789220D01*
X10112200Y3798410D01*
X10105380Y3804970D01*
X10098570Y3807600D01*
X10089800D01*
G01X10098570D02*
X10104410Y3811530D01*
X10109280Y3818090D01*
X10111220Y3825970D01*
X10109280Y3833840D01*
X10104410Y3840400D01*
X10095640Y3844340D01*
X10086880Y3843030D01*
X10078120Y3837780D01*
G01X10182170Y3765600D02*
Y3844340D01*
X10146150Y3787910D01*
X10194830D01*
G01X9993540Y4045600D02*
Y4124340D01*
X10017880D01*
X10025670Y4120400D01*
X10030540Y4115150D01*
X10032480Y4104650D01*
X10030540Y4094160D01*
X10024690Y4087600D01*
X10017880Y4083660D01*
X9993540D01*
G01X10017880D02*
X10032480Y4045600D01*
G01X10073250Y4111220D02*
X10079090Y4119090D01*
X10085910Y4123030D01*
X10093700Y4124340D01*
X10103430Y4121720D01*
X10110250Y4115150D01*
X10112200Y4107280D01*
X10111220Y4099400D01*
X10107330Y4092840D01*
X10087860Y4079720D01*
X10079090Y4070530D01*
X10073250Y4057410D01*
X10071300Y4045600D01*
X10112200D01*
G01X10168540D02*
X10170490Y4062660D01*
X10173410Y4077090D01*
X10177310Y4090220D01*
X10182170Y4104650D01*
X10189960Y4124340D01*
X10151020D01*
G01X9993540Y3955600D02*
Y4034340D01*
X10017880D01*
X10025670Y4030400D01*
X10030540Y4025150D01*
X10032480Y4014650D01*
X10030540Y4004160D01*
X10024690Y3997600D01*
X10017880Y3993660D01*
X9993540D01*
G01X10017880D02*
X10032480Y3955600D01*
G01X10073250Y4021220D02*
X10079090Y4029090D01*
X10085910Y4033030D01*
X10093700Y4034340D01*
X10103430Y4031720D01*
X10110250Y4025150D01*
X10112200Y4017280D01*
X10111220Y4009400D01*
X10107330Y4002840D01*
X10087860Y3989720D01*
X10079090Y3980530D01*
X10073250Y3967410D01*
X10071300Y3955600D01*
X10112200D01*
G01X10170490D02*
X10177310Y3956910D01*
X10185090Y3960850D01*
X10189960Y3967410D01*
X10191910Y3976600D01*
X10189960Y3985780D01*
X10184120Y3993660D01*
X10175360Y3997600D01*
X10165620D01*
X10159780Y4000220D01*
X10154910Y4006780D01*
X10152960Y4015970D01*
X10155890Y4025150D01*
X10162700Y4031720D01*
X10170490Y4034340D01*
X10178280Y4031720D01*
X10185090Y4025150D01*
X10188020Y4015970D01*
X10186070Y4006780D01*
X10181200Y4000220D01*
X10175360Y3997600D01*
X10165620D01*
X10156860Y3993660D01*
X10151020Y3985780D01*
X10149070Y3976600D01*
X10151020Y3967410D01*
X10155890Y3960850D01*
X10163670Y3956910D01*
X10170490Y3955600D01*
G01X9995340Y4477100D02*
Y4555840D01*
X10019680D01*
X10027470Y4551900D01*
X10032340Y4546650D01*
X10034280Y4536150D01*
X10032340Y4525660D01*
X10026490Y4519100D01*
X10019680Y4515160D01*
X9995340D01*
G01X10019680D02*
X10034280Y4477100D01*
G01X10072130Y4492850D02*
X10077970Y4483660D01*
X10085760Y4478410D01*
X10094520Y4477100D01*
X10102310Y4478410D01*
X10110100Y4484970D01*
X10114970Y4492850D01*
X10115940Y4500720D01*
X10114000Y4509910D01*
X10107180Y4516470D01*
X10100370Y4519100D01*
X10091600D01*
G01X10100370D02*
X10106210Y4523030D01*
X10111080Y4529590D01*
X10113020Y4537470D01*
X10111080Y4545340D01*
X10106210Y4551900D01*
X10097440Y4555840D01*
X10088680Y4554530D01*
X10079920Y4549280D01*
G01X10153790Y4542720D02*
X10159630Y4550590D01*
X10166450Y4554530D01*
X10174240Y4555840D01*
X10183970Y4553220D01*
X10190790Y4546650D01*
X10192740Y4538780D01*
X10191760Y4530900D01*
X10187870Y4524340D01*
X10168400Y4511220D01*
X10159630Y4502030D01*
X10153790Y4488910D01*
X10151840Y4477100D01*
X10192740D01*
G01X9995340Y4757100D02*
Y4835840D01*
X10019680D01*
X10027470Y4831900D01*
X10032340Y4826650D01*
X10034280Y4816150D01*
X10032340Y4805660D01*
X10026490Y4799100D01*
X10019680Y4795160D01*
X9995340D01*
G01X10019680D02*
X10034280Y4757100D01*
G01X10075050Y4822720D02*
X10080890Y4830590D01*
X10087710Y4834530D01*
X10095500Y4835840D01*
X10105230Y4833220D01*
X10112050Y4826650D01*
X10114000Y4818780D01*
X10113020Y4810900D01*
X10109130Y4804340D01*
X10089660Y4791220D01*
X10080890Y4782030D01*
X10075050Y4768910D01*
X10073100Y4757100D01*
X10114000D01*
G01X10150870Y4768910D02*
X10156710Y4762350D01*
X10163530Y4758410D01*
X10172290Y4757100D01*
X10181050Y4759720D01*
X10187870Y4764970D01*
X10192740Y4774160D01*
X10193710Y4784660D01*
X10191760Y4795160D01*
X10186890Y4801720D01*
X10180080Y4806970D01*
X10173260Y4808280D01*
X10166450Y4806970D01*
X10157690Y4801720D01*
X10160610Y4835840D01*
X10186890D01*
G01X9995340Y4667100D02*
Y4745840D01*
X10019680D01*
X10027470Y4741900D01*
X10032340Y4736650D01*
X10034280Y4726150D01*
X10032340Y4715660D01*
X10026490Y4709100D01*
X10019680Y4705160D01*
X9995340D01*
G01X10019680D02*
X10034280Y4667100D01*
G01X10075050Y4732720D02*
X10080890Y4740590D01*
X10087710Y4744530D01*
X10095500Y4745840D01*
X10105230Y4743220D01*
X10112050Y4736650D01*
X10114000Y4728780D01*
X10113020Y4720900D01*
X10109130Y4714340D01*
X10089660Y4701220D01*
X10080890Y4692030D01*
X10075050Y4678910D01*
X10073100Y4667100D01*
X10114000D01*
G01X10153790Y4699910D02*
X10160610Y4709100D01*
X10166450Y4714340D01*
X10174240Y4716970D01*
X10181050Y4714340D01*
X10185920Y4709100D01*
X10189820Y4701220D01*
X10190790Y4692030D01*
X10189820Y4684160D01*
X10185920Y4676280D01*
X10180080Y4669720D01*
X10173260Y4667100D01*
X10165470Y4669720D01*
X10158660Y4677600D01*
X10154760Y4689410D01*
X10153790Y4702530D01*
X10155740Y4719590D01*
X10158660Y4728780D01*
X10163530Y4737970D01*
X10170340Y4744530D01*
X10177160Y4745840D01*
X10183970Y4743220D01*
X10188840Y4736650D01*
G01X9996340Y4573200D02*
Y4651940D01*
X10020680D01*
X10028470Y4648000D01*
X10033340Y4642750D01*
X10035280Y4632250D01*
X10033340Y4621760D01*
X10027490Y4615200D01*
X10020680Y4611260D01*
X9996340D01*
G01X10020680D02*
X10035280Y4573200D01*
G01X10073130Y4588950D02*
X10078970Y4579760D01*
X10086760Y4574510D01*
X10095520Y4573200D01*
X10103310Y4574510D01*
X10111100Y4581070D01*
X10115970Y4588950D01*
X10116940Y4596820D01*
X10115000Y4606010D01*
X10108180Y4612570D01*
X10101370Y4615200D01*
X10092600D01*
G01X10101370D02*
X10107210Y4619130D01*
X10112080Y4625690D01*
X10114020Y4633570D01*
X10112080Y4641440D01*
X10107210Y4648000D01*
X10098440Y4651940D01*
X10089680Y4650630D01*
X10080920Y4645380D01*
G01X10173290Y4573200D02*
Y4651940D01*
X10161610Y4636190D01*
G01Y4573200D02*
X10184970D01*
G01X9983540Y5358200D02*
Y5436940D01*
X10007880D01*
X10015670Y5433000D01*
X10020540Y5427750D01*
X10022480Y5417250D01*
X10020540Y5406760D01*
X10014690Y5400200D01*
X10007880Y5396260D01*
X9983540D01*
G01X10007880D02*
X10022480Y5358200D01*
G01X10063250Y5423820D02*
X10069090Y5431690D01*
X10075910Y5435630D01*
X10083700Y5436940D01*
X10093430Y5434320D01*
X10100250Y5427750D01*
X10102200Y5419880D01*
X10101220Y5412000D01*
X10097330Y5405440D01*
X10077860Y5392320D01*
X10069090Y5383130D01*
X10063250Y5370010D01*
X10061300Y5358200D01*
X10102200D01*
G01X10143940Y5367380D02*
X10150750Y5360820D01*
X10158540Y5358200D01*
X10166330Y5360820D01*
X10173150Y5368700D01*
X10178020Y5380510D01*
X10179960Y5392320D01*
Y5406760D01*
X10178020Y5418570D01*
X10173150Y5429070D01*
X10167310Y5434320D01*
X10160490Y5436940D01*
X10152700Y5434320D01*
X10146860Y5429070D01*
X10142960Y5421190D01*
X10141020Y5410690D01*
X10142960Y5401510D01*
X10147830Y5392320D01*
X10153670Y5387070D01*
X10160490Y5385760D01*
X10168280Y5388380D01*
X10174120Y5394940D01*
X10179960Y5406760D01*
G01X9983540Y5268200D02*
Y5346940D01*
X10007880D01*
X10015670Y5343000D01*
X10020540Y5337750D01*
X10022480Y5327250D01*
X10020540Y5316760D01*
X10014690Y5310200D01*
X10007880Y5306260D01*
X9983540D01*
G01X10007880D02*
X10022480Y5268200D01*
G01X10060330Y5283950D02*
X10066170Y5274760D01*
X10073960Y5269510D01*
X10082720Y5268200D01*
X10090510Y5269510D01*
X10098300Y5276070D01*
X10103170Y5283950D01*
X10104140Y5291820D01*
X10102200Y5301010D01*
X10095380Y5307570D01*
X10088570Y5310200D01*
X10079800D01*
G01X10088570D02*
X10094410Y5314130D01*
X10099280Y5320690D01*
X10101220Y5328570D01*
X10099280Y5336440D01*
X10094410Y5343000D01*
X10085640Y5346940D01*
X10076880Y5345630D01*
X10068120Y5340380D01*
G01X10160490Y5346940D02*
X10152700Y5344320D01*
X10146860Y5337750D01*
X10142960Y5329880D01*
X10140040Y5319380D01*
X10139070Y5307570D01*
X10140040Y5295760D01*
X10142960Y5285260D01*
X10146860Y5277380D01*
X10152700Y5270820D01*
X10160490Y5268200D01*
X10168280Y5270820D01*
X10174120Y5277380D01*
X10178020Y5285260D01*
X10180940Y5295760D01*
X10181910Y5307570D01*
X10180940Y5319380D01*
X10178020Y5329880D01*
X10174120Y5337750D01*
X10168280Y5344320D01*
X10160490Y5346940D01*
G01X11053270Y3600180D02*
X11047430Y3604120D01*
X11040610Y3606740D01*
X11032820D01*
X11024060Y3602800D01*
X11017250Y3596240D01*
X11012380Y3588370D01*
X11008480Y3575240D01*
X11007510Y3563430D01*
X11009460Y3551620D01*
X11012380Y3543750D01*
X11018220Y3535870D01*
X11025030Y3530620D01*
X11031850Y3528000D01*
X11038670D01*
X11045480Y3530620D01*
X11051320Y3534560D01*
X11056190Y3539810D01*
G01X11089170Y3543750D02*
X11095010Y3534560D01*
X11102800Y3529310D01*
X11111560Y3528000D01*
X11119350Y3529310D01*
X11127140Y3535870D01*
X11132010Y3543750D01*
X11132980Y3551620D01*
X11131040Y3560810D01*
X11124220Y3567370D01*
X11117410Y3570000D01*
X11108640D01*
G01X11117410D02*
X11123250Y3573930D01*
X11128120Y3580490D01*
X11130060Y3588370D01*
X11128120Y3596240D01*
X11123250Y3602800D01*
X11114480Y3606740D01*
X11105720Y3605430D01*
X11096960Y3600180D01*
G01X11214850Y5145660D02*
X11206970Y5140790D01*
X11201720Y5134950D01*
X11199100Y5128140D01*
X11201720Y5120350D01*
X11206970Y5114510D01*
X11214850Y5108660D01*
X11225350Y5106720D01*
X11277840D01*
G01X11214850Y5068870D02*
X11205660Y5063030D01*
X11200410Y5055240D01*
X11199100Y5046480D01*
X11200410Y5038690D01*
X11206970Y5030900D01*
X11214850Y5026030D01*
X11222720Y5025060D01*
X11231910Y5027000D01*
X11238470Y5033820D01*
X11241100Y5040630D01*
Y5049400D01*
G01Y5040630D02*
X11245030Y5034790D01*
X11251590Y5029920D01*
X11259470Y5027980D01*
X11267340Y5029920D01*
X11273900Y5034790D01*
X11277840Y5043560D01*
X11276530Y5052320D01*
X11271280Y5061080D01*
G01X13781000Y5580500D02*
X14111000D01*
Y6255500D01*
X12811000D01*
Y5580500D01*
X13141000D01*
G01X13367500Y5225840D02*
X13288760D01*
Y5250180D01*
X13292700Y5257970D01*
X13297950Y5262840D01*
X13308450Y5264780D01*
X13318940Y5262840D01*
X13325500Y5256990D01*
X13329440Y5250180D01*
Y5225840D01*
G01Y5250180D02*
X13367500Y5264780D01*
G01Y5324050D02*
X13288760D01*
X13304510Y5312370D01*
G01X13367500D02*
Y5335730D01*
G01X13288760Y5402790D02*
X13291380Y5395000D01*
X13297950Y5389160D01*
X13305820Y5385260D01*
X13316320Y5382340D01*
X13328130Y5381370D01*
X13339940Y5382340D01*
X13350440Y5385260D01*
X13358320Y5389160D01*
X13364880Y5395000D01*
X13367500Y5402790D01*
X13364880Y5410580D01*
X13358320Y5416420D01*
X13350440Y5420320D01*
X13339940Y5423240D01*
X13328130Y5424210D01*
X13316320Y5423240D01*
X13305820Y5420320D01*
X13297950Y5416420D01*
X13291380Y5410580D01*
X13288760Y5402790D01*
G01X13597820Y5307320D02*
X13593880Y5301480D01*
X13591260Y5294660D01*
Y5286870D01*
X13595200Y5278110D01*
X13601760Y5271300D01*
X13609630Y5266430D01*
X13622760Y5262530D01*
X13634570Y5261560D01*
X13646380Y5263510D01*
X13654250Y5266430D01*
X13662130Y5272270D01*
X13667380Y5279080D01*
X13670000Y5285900D01*
Y5292720D01*
X13667380Y5299530D01*
X13663440Y5305370D01*
X13658190Y5310240D01*
G01X13604380Y5346140D02*
X13596510Y5351980D01*
X13592570Y5358800D01*
X13591260Y5366590D01*
X13593880Y5376320D01*
X13600450Y5383140D01*
X13608320Y5385090D01*
X13616200Y5384110D01*
X13622760Y5380220D01*
X13635880Y5360750D01*
X13645070Y5351980D01*
X13658190Y5346140D01*
X13670000Y5344190D01*
Y5385090D01*
G54D24*
G01X2740070Y1122500D02*
G03X2746420I3175J-2D01*
G03X2740070I-3175J-2D01*
G01X2649140D02*
G03X2655490I3175J-2D01*
G03X2649140I-3175J-2D01*
G01D02*
G03X2655490I3175J-2D01*
G03X2649140I-3175J-2D01*
G01X2811950Y1366850D02*
G03X2818300I3175J-3D01*
G03X2811950I-3175J-3D01*
G01X2784520Y1157810D02*
G03X2790870I3175J-4D01*
G03X2784520I-3175J-4D01*
G01X2635170Y1369900D02*
G03X2641520I3175J-4D01*
G03X2635170I-3175J-4D01*
G01X2816780D02*
G03X2823130I3175J-4D01*
G03X2816780I-3175J-4D01*
G01X2626530Y1373960D02*
G03X2632880I3175J-2D01*
G03X2626530I-3175J-2D01*
G54D15*
G01X3196630Y1464640D02*
G03X3472480I137925J-3D01*
G03X3196630I-137925J-3D01*
G54D25*
G01X2580680Y1096850D02*
G03X2588300I3810J-4D01*
G03X2580680I-3810J-4D01*
G01X2648750Y1393010D02*
G03X2656370I3810J-2D01*
G03X2648750I-3810J-2D01*
G01Y1408760D02*
G03X2656370I3810J-3D01*
G03X2648750I-3810J-3D01*
G01X2574590Y1422980D02*
G03X2582210I3810J-2D01*
G03X2574590I-3810J-2D01*
G01X2710220Y1310210D02*
G03X2705740Y1304460I1460J-5758D01*
G01D02*
G03X2711490Y1298520I5938J-5D01*
G01D02*
X2751790D01*
G01D02*
G03X2757920Y1305040I-401J6519D01*
G01D02*
G03X2750270Y1311480I-6532J4D01*
G01D02*
X2710480D01*
G01X2874050Y1105740D02*
G03X2881670I3810J-4D01*
G03X2874050I-3810J-4D01*
G01X2872780Y1426790D02*
G03X2880400I3810J-2D01*
G03X2872780I-3810J-2D01*
G54D16*
G01X2578400Y1422980D02*
X2877860Y1105740D01*
G01X2584490Y1096850D02*
X2876590Y1426790D01*
G01X2751130Y1126820D02*
G03X2801400I25135J0D01*
G03X2751130I-25135J0D01*
G01X2652560Y1393010D02*
Y1408760D01*
G54D26*
G01X2660440Y1116660D02*
Y1099390D01*
G01D02*
X2680000D01*
G01D02*
Y1117420D01*
G01X2701590Y1403170D02*
X2702350Y1410790D01*
G01D02*
X2705910Y1413840D01*
G01D02*
X2726480Y1414860D01*
G01D02*
X2741210D01*
G01D02*
X2748070Y1411810D01*
G01D02*
X2750860Y1409270D01*
G01D02*
Y1401650D01*
G01X2837480Y1390980D02*
X2834680Y1396310D01*
G01D02*
X2831130Y1398350D01*
G01D02*
X2825790Y1398090D01*
G01D02*
X2823250Y1395810D01*
G01D02*
X2821220Y1393520D01*
G01D02*
X2820970Y1390730D01*
G01D02*
Y1385390D01*
G01X2815130Y1334340D02*
X2831890D01*
G01D02*
G02X2837790Y1325320I-3941J-9017D01*
G01D02*
G02X2831890Y1316300I-9840J-3D01*
G01D02*
X2813350D01*
G01X3261910Y1463370D02*
G03X3270800I4445J-3D01*
G03X3261910I-4445J-3D01*
G01Y1407490D02*
G03X3270800I4445J-3D01*
G03X3261910I-4445J-3D01*
G01X3364400Y1478230D02*
G03X3373290I4445J-4D01*
G03X3364400I-4445J-4D01*
G01Y1407490D02*
G03X3373290I4445J-3D01*
G03X3364400I-4445J-3D01*
G01D02*
G03X3373290I4445J-3D01*
G03X3364400I-4445J-3D01*
G01X3407680D02*
G03X3416570I4445J-3D01*
G03X3407680I-4445J-3D01*
G01D02*
G03X3416570I4445J-3D01*
G03X3407680I-4445J-3D01*
G01X3427890Y1442630D02*
G03X3436780I4445J-2D01*
G03X3427890I-4445J-2D01*
G01D02*
G03X3436780I4445J-2D01*
G03X3427890I-4445J-2D01*
G01X3407680Y1477770D02*
G03X3416570I4445J-2D01*
G03X3407680I-4445J-2D01*
G01D02*
G03X3416570I4445J-2D01*
G03X3407680I-4445J-2D01*
G01X3364400Y1478230D02*
G03X3373290I4445J-4D01*
G03X3364400I-4445J-4D01*
G01Y1477590D02*
G03X3373290I4445J0D01*
G03X3364400I-4445J0D01*
G01X3261910Y1463370D02*
G03X3270800I4445J-3D01*
G03X3261910I-4445J-3D01*
G01X3289940D02*
G03X3298830I4445J-3D01*
G03X3289940I-4445J-3D01*
G01D02*
G03X3298830I4445J-3D01*
G03X3289940I-4445J-3D01*
G01X3261910D02*
G03X3270800I4445J-3D01*
G03X3261910I-4445J-3D01*
G01X3364400Y1535760D02*
G03X3373290I4445J-3D01*
G03X3364400I-4445J-3D01*
G01X3261910D02*
G03X3270800I4445J-3D01*
G03X3261910I-4445J-3D01*
G01D02*
G03X3270800I4445J-3D01*
G03X3261910I-4445J-3D01*
G01X3289940D02*
G03X3298830I4445J-3D01*
G03X3289940I-4445J-3D01*
G01D02*
G03X3298830I4445J-3D01*
G03X3289940I-4445J-3D01*
G01X3326130Y1499570D02*
G03X3335020I4445J-7D01*
G03X3326130I-4445J-7D01*
G01D02*
G03X3335020I4445J-7D01*
G03X3326130I-4445J-7D01*
G54D17*
G01X2000000Y2200000D02*
X10200000D01*
G03X10500000Y2500000I0J300000D01*
G01Y9300000D01*
G03X10200000Y9600000I-300000J0D01*
G01X2000000D01*
G03X1700000Y9300000I0J-300000D01*
G01Y2500000D01*
G03X2000000Y2200000I300000J0D01*
G54D18*
G01X3247460Y1553690D02*
X3448070Y1354840D01*
G54D19*
G01X2769910Y1126820D02*
G03X2783120I6605J0D01*
G03X2769910I-6605J0D01*
M02*
