G04 ================== begin FILE IDENTIFICATION RECORD ==================*
G04 Layout Name:  PCB_ESP32-P4_HMI_SubBoard_V12_20240527.brd*
G04 Film Name:    SOLDER_TOP*
G04 File Format:  Gerber RS274X*
G04 File Origin:  Cadence Allegro 16.6-2015-S108*
G04 Origin Date:  Tue May 28 14:27:30 2024*
G04 *
G04 Layer:  BOARD GEOMETRY/SOLDERMASK_TOP*
G04 Layer:  BOARD GEOMETRY/OUTLINE*
G04 Layer:  PACKAGE GEOMETRY/SOLDERMASK_TOP*
G04 Layer:  PIN/SOLDERMASK_TOP*
G04 Layer:  VIA CLASS/SOLDERMASK_TOP*
G04 *
G04 Offset:    (0.0000 0.0000)*
G04 Mirror:    No*
G04 Mode:      Positive*
G04 Rotation:  0*
G04 FullContactRelief:  No*
G04 UndefLineWidth:     0.1016*
G04 ================== end FILE IDENTIFICATION RECORD ====================*
%FSLAX35Y35*MOMM*%
%IR0*IPPOS*OFA0.00000B0.00000*MIA0B0*SFA1.00000B1.00000*%
%ADD34R,.4X1.*%
%ADD19O,.6X1.1*%
%ADD29O,.7X1.4*%
%ADD28R,.7X1.1*%
%ADD26R,.4X1.4*%
%ADD22R,1.1X.9*%
%ADD13R,1.24X.4*%
%ADD31R,.9X1.1*%
%ADD39R,.7X1.9*%
%ADD21R,2.8X.9*%
%ADD37R,1.75X.7*%
%ADD14C,.7*%
%ADD36R,1.95X.7*%
%ADD25R,1.0144X.9128*%
%ADD18R,.9128X1.0144*%
%ADD17R,.608X.608*%
%ADD12O,2.1X1.*%
%ADD30R,2.1X1.2*%
%ADD23R,1.2X2.1*%
%ADD10O,1.8X1.*%
%ADD24R,2.1X2.6*%
%ADD15R,1.15X1.3*%
%ADD38R,2.7X3.1*%
%ADD33R,1.2X1.9*%
%ADD20C,1.1*%
%ADD35C,2.3*%
%ADD27R,1.37X1.243*%
%ADD32R,1.37X2.9*%
%ADD11C,6.3*%
%ADD16R,.5X.58*%
%ADD40C,.1016*%
G75*
%LPD*%
G75*
G36*
G01X11039990Y1971670D02*
G02X11138670Y2216020I351867J0D01*
G01X11122640Y2230200D01*
G03X11018750Y1973580I265032J-256635D01*
G03X11645960Y1710160I368919J-5D01*
G01X11637440Y1719670D01*
G02X11039990Y1971670I-245583J251990D01*
G37*
G36*
G01X11284460Y1752600D02*
G02X11270160Y1694530I-125076J5D01*
G01X11309620Y1664670D01*
X11357000Y1660500D01*
G03X11379100Y1755430I-192819J94926D01*
G03X11188020Y1969020I-214921J-5D01*
G01X11186620Y1969370D01*
G02X11171240Y1992520I9710J23135D01*
G02X11186620Y2015650I25086J-3D01*
G02X11188910Y2016040I1975J-4677D01*
G02X11432500Y1756450I-16533J-259597D01*
G02X11422400Y1684690I-260128J21D01*
G01X11472480Y1669780D01*
X11511540Y1689330D01*
G03X11519240Y1761760I-337106J72462D01*
G03X11174560Y2106560I-344803J-3D01*
G03X11082460Y1990700I26823J-115858D01*
G03X11164730Y1877570I118920J1D01*
G02X11284460Y1752600I-5350J-124966D01*
G37*
G36*
G01X11171400Y2151810D02*
G02X11559180Y1761820I-2221J-389994D01*
G01X11559030Y1751220D01*
X11615740Y1753640D01*
X11661570Y1823620D01*
G03X11238070Y2250790I-517337J-89377D01*
G01X11169270Y2202520D01*
Y2151810D01*
X11171400D01*
G37*
G36*
G01X11239880Y1776610D02*
G03I-45188J-4D01*
G37*
G36*
G01X11673330Y1927850D02*
X11696340Y1937650D01*
G03X11697580Y1965870I-319018J28155D01*
G03X11350830Y2285020I-320253J-5D01*
G01X11342040Y2260520D01*
G02X11673330Y1927850I-147168J-477851D01*
G37*
G54D10*
X259000Y3178500D03*
Y4043500D03*
G54D11*
X1000000Y1000000D03*
Y9000000D03*
X4350000Y2550000D03*
Y7450000D03*
X10150000Y2550000D03*
Y7450000D03*
X15500000Y1000000D03*
Y9000000D03*
G54D20*
X3828600Y6568600D03*
X4682060Y5118010D03*
X4674300Y5805700D03*
X5854300Y5345700D03*
X6104300Y4305700D03*
G54D30*
X6836860Y5512930D03*
G54D12*
X677000Y3178500D03*
Y4043500D03*
G54D21*
X4804610Y3970440D03*
Y4200440D03*
X7034880Y5142430D03*
Y5372430D03*
G54D40*
G01X100000Y0D02*
X16400000D01*
G03X16500000Y100000I0J100000D01*
G01Y9900000D01*
G03X16400000Y10000000I-100000J0D01*
G01X100000D01*
G03X0Y9900000I0J-100000D01*
G01Y100000D01*
G03X100000Y0I100000J0D01*
G54D31*
X7036860Y5512930D03*
G54D13*
X734000Y3276000D03*
Y3306000D03*
Y3356000D03*
Y3386000D03*
Y3436000D03*
Y3486000D03*
Y3536000D03*
Y3586000D03*
Y3636000D03*
Y3686000D03*
Y3736000D03*
Y3786000D03*
Y3836000D03*
Y3866000D03*
Y3916000D03*
Y3946000D03*
G54D22*
X4683280Y4355060D03*
X5280500Y4042900D03*
Y4442950D03*
X5279550Y4914800D03*
Y5321200D03*
G54D32*
X7789000Y710000D03*
Y1270000D03*
X8043000Y710000D03*
X8297000D03*
X8043000Y1270000D03*
X8297000D03*
X8551000Y710000D03*
Y1270000D03*
G54D23*
X4683280Y4555060D03*
X5280500Y3842900D03*
Y4242950D03*
X5279550Y4714800D03*
Y5121200D03*
G54D14*
X627000Y3322000D03*
Y3900000D03*
G54D33*
X7890000Y2950000D03*
X8570000D03*
G54D15*
X1122500Y3355000D03*
X1437500D03*
X6732500Y2460000D03*
Y2700000D03*
X7047500Y2460000D03*
Y2700000D03*
G54D24*
X5205000Y7300000D03*
X6995000D03*
X7105000Y4000000D03*
X9395000D03*
G54D16*
X927000Y3358000D03*
Y3226000D03*
G54D25*
X5464650Y3843050D03*
Y4008150D03*
X5279900Y5439750D03*
Y5604850D03*
X5854300Y5198250D03*
Y5033150D03*
X6419400Y5092250D03*
X6612650Y5512390D03*
Y5347290D03*
X6419400Y5257350D03*
X6926400Y4568450D03*
Y4733550D03*
G54D34*
X8255000Y2680000D03*
X8205000D03*
X8155000D03*
X8105000D03*
X8355000D03*
X8305000D03*
G54D35*
X9155000Y2423000D03*
Y2677000D03*
X9409000Y2423000D03*
Y2677000D03*
G54D17*
X977100Y3500000D03*
X1062900D03*
X977100Y3740000D03*
X1062900D03*
X1580000Y3442900D03*
Y3357100D03*
X3818350Y5645450D03*
X3828350Y6215450D03*
X3904150Y5645450D03*
X4124000Y5644950D03*
X4038200D03*
X3914150Y6215450D03*
X4438200Y3822930D03*
X4524000D03*
X4249720Y3821060D03*
X4335520D03*
X4323460Y4524530D03*
X4409260D03*
X4409760Y4429020D03*
X4323960D03*
X4593460Y4762000D03*
X4679260D03*
X4591400Y5515700D03*
X4677200D03*
Y5415700D03*
X4591400D03*
X4684300Y5242800D03*
Y5328600D03*
X5051950Y4204200D03*
X5137750D03*
X5094300Y4816400D03*
Y4902200D03*
X5176600Y6705600D03*
Y6619800D03*
X5517200Y5445700D03*
X5431400D03*
X5517200Y5345700D03*
X5431400D03*
X5311200Y6749300D03*
Y6835100D03*
X5401200Y6749300D03*
Y6835100D03*
X5491200Y6749300D03*
Y6835100D03*
X5762600Y4213050D03*
X5617050Y3974850D03*
Y3889050D03*
X5763100Y4089150D03*
Y4003350D03*
X5762600Y4298850D03*
X5664800Y5102650D03*
Y5188450D03*
X5581200Y6835100D03*
Y6749300D03*
X6230630Y4772610D03*
X6158000Y6712900D03*
Y6627100D03*
X6248000D03*
Y6712900D03*
X6424530Y4857570D03*
Y4771770D03*
X6316430Y4772610D03*
X6428000Y6712900D03*
Y6627100D03*
X6338000D03*
Y6712900D03*
X7515000Y2927900D03*
X7429200D03*
X7634600Y3273100D03*
X7720400D03*
X10262700Y3817800D03*
Y4097800D03*
Y4007800D03*
Y3907800D03*
Y4507800D03*
Y4787800D03*
Y4697800D03*
X10263700Y4603900D03*
X10251800Y5212300D03*
X10166000D03*
X10251800Y5122300D03*
X10166000D03*
X10252700Y5397800D03*
Y5307800D03*
X10348500Y3817800D03*
Y4097800D03*
Y4007800D03*
Y3907800D03*
Y4507800D03*
Y4787800D03*
Y4697800D03*
X10349500Y4603900D03*
X10338500Y5397800D03*
Y5307800D03*
X11032900Y3448500D03*
X11118700D03*
X13530500Y5286950D03*
Y5372750D03*
X13440000Y5287100D03*
Y5372900D03*
G54D26*
X5375000Y7032000D03*
X5425000D03*
X5475000D03*
X5525000D03*
X5575000D03*
X5625000D03*
X5825000D03*
X5725000D03*
X5875000D03*
X5775000D03*
X5675000D03*
X6225000D03*
X6125000D03*
X6025000D03*
X5925000D03*
X6175000D03*
X6075000D03*
X5975000D03*
X6525000D03*
X6425000D03*
X6325000D03*
X6575000D03*
X6475000D03*
X6375000D03*
X6275000D03*
X6825000D03*
X6725000D03*
X6625000D03*
X6775000D03*
X6675000D03*
X7325000Y3732000D03*
X7375000D03*
X7425000D03*
X7475000D03*
X7525000D03*
X7575000D03*
X7275000D03*
X7625000D03*
X7675000D03*
X7725000D03*
X7775000D03*
X7825000D03*
X7875000D03*
X7925000D03*
X7975000D03*
X8025000D03*
X8225000D03*
X8125000D03*
X8275000D03*
X8175000D03*
X8075000D03*
X8525000D03*
X8425000D03*
X8325000D03*
X8575000D03*
X8475000D03*
X8375000D03*
X8925000D03*
X8825000D03*
X8725000D03*
X8625000D03*
X8875000D03*
X8775000D03*
X8675000D03*
X9225000D03*
X9125000D03*
X9025000D03*
X9175000D03*
X9075000D03*
X8975000D03*
G54D27*
X5921850Y4249450D03*
Y4452650D03*
G54D18*
X3818550Y5461950D03*
X3828550Y6354950D03*
X3983650Y5461950D03*
X3993650Y6354950D03*
X4525160Y3678780D03*
X4360060D03*
X4515750Y4920200D03*
X4511750Y5657450D03*
X4680850Y4920200D03*
X4676850Y5657450D03*
G54D36*
X11320500Y3550000D03*
Y3450000D03*
Y3850000D03*
Y3750000D03*
Y3650000D03*
Y4150000D03*
Y4050000D03*
Y3950000D03*
Y4550000D03*
Y4450000D03*
Y4350000D03*
Y4250000D03*
Y4850000D03*
Y4750000D03*
Y4650000D03*
G54D37*
X11695500Y3550000D03*
Y3450000D03*
Y3850000D03*
Y3750000D03*
Y3650000D03*
Y4150000D03*
Y4050000D03*
Y3950000D03*
Y4550000D03*
Y4450000D03*
Y4350000D03*
Y4250000D03*
Y4850000D03*
Y4750000D03*
Y4650000D03*
G54D28*
X5617050Y4119850D03*
Y4429850D03*
X5664300Y5310700D03*
Y5620700D03*
G54D19*
X3820200Y5765110D03*
Y6080130D03*
X4010200Y5765110D03*
X3915200D03*
X4010200Y6080130D03*
X4532650Y3949260D03*
X4342650D03*
Y4264280D03*
X4437650D03*
X4532650D03*
G54D38*
X12976000Y5853000D03*
X13946000D03*
G54D29*
X6567150Y4771250D03*
Y5071250D03*
X6662150Y4771250D03*
X6757150D03*
Y5071250D03*
X6662150D03*
G54D39*
X13311000Y5636000D03*
X13211000D03*
X13611000D03*
X13511000D03*
X13411000D03*
X13711000D03*
M02*
