G04 ================== begin FILE IDENTIFICATION RECORD ==================*
G04 Layout Name:  PCB_ESP32-P4_HMI_SubBoard_V12_20240527.brd*
G04 Film Name:    TOP*
G04 File Format:  Gerber RS274X*
G04 File Origin:  Cadence Allegro 16.6-2015-S108*
G04 Origin Date:  Tue May 28 14:27:30 2024*
G04 *
G04 Layer:  BOARD GEOMETRY/OUTLINE*
G04 Layer:  ETCH/TOP*
G04 Layer:  PIN/TOP*
G04 Layer:  VIA CLASS/TOP*
G04 *
G04 Offset:    (0.0000 0.0000)*
G04 Mirror:    No*
G04 Mode:      Positive*
G04 Rotation:  0*
G04 FullContactRelief:  No*
G04 UndefLineWidth:     0.0000*
G04 ================== end FILE IDENTIFICATION RECORD ====================*
%FSLAX35Y35*MOMM*%
%IR0*IPPOS*OFA0.00000B0.00000*MIA0B0*SFA1.00000B1.00000*%
%ADD20O,.5X1.*%
%ADD30O,.6X1.3*%
%ADD29R,.6X1.*%
%ADD27R,.3X1.3*%
%ADD13O,2.X.9*%
%ADD23R,1.X.8*%
%ADD14R,1.14X.3*%
%ADD32R,.8X1.*%
%ADD10O,1.7X.9*%
%ADD40R,.6X1.8*%
%ADD22R,2.7X.8*%
%ADD38R,1.65X.6*%
%ADD37R,1.85X.6*%
%ADD15C,.6*%
%ADD12C,.508*%
%ADD18R,.508X.508*%
%ADD31R,2.X1.1*%
%ADD24R,1.1X2.*%
%ADD25R,2.X2.5*%
%ADD16R,1.05X1.2*%
%ADD39R,2.6X3.*%
%ADD34R,1.1X1.8*%
%ADD21C,1.*%
%ADD36C,2.2*%
%ADD35R,.3X.9*%
%ADD28R,1.27X1.143*%
%ADD33R,1.27X2.8*%
%ADD17R,.4X.48*%
%ADD11C,6.2*%
%ADD26R,.9144X.8128*%
%ADD19R,.8128X.9144*%
%ADD41C,.3*%
%ADD42C,.127*%
%ADD43C,.254*%
%ADD44C,.381*%
%ADD45C,.1651*%
%ADD46C,.635*%
%ADD51O,.7544X1.2544*%
%ADD49R,.5544X1.5544*%
%ADD47R,1.9044X14.8544*%
%ADD50R,1.0544X1.5544*%
%ADD48C,6.7084*%
G75*
%LPD*%
G75*
G36*
G01X16400000Y9979990D02*
G02X16479990Y9900000I0J-79990D01*
G01Y100000D01*
G02X16400000Y20010I-79990J0D01*
G01X100000D01*
G02X20010Y100000I0J79990D01*
G01Y9900000D01*
G02X100000Y9979990I79990J0D01*
G01X16400000D01*
G37*
%LPC*%
G75*
G36*
G01X7898330Y2017290D02*
G02X7936470I19070J33010D01*
G01Y1106700D01*
X8062070Y981100D01*
Y862720D01*
X8119220D01*
Y557280D01*
X7966780D01*
Y862720D01*
X8023930D01*
Y965300D01*
X7898330Y1090900D01*
Y2017290D01*
G37*
G36*
G01X7392420Y3563690D02*
X7553120Y3402990D01*
Y3292170D01*
X7596480D01*
Y3311220D01*
X7731550D01*
X7760400Y3340070D01*
X7795000D01*
X8038010Y3583080D01*
X8037380Y3586940D01*
G02X8055930Y3626110I37620J6162D01*
G01Y3654280D01*
X7947280D01*
Y3809720D01*
X8402720D01*
Y3654280D01*
X8094070D01*
Y3626110D01*
G02X8068840Y3555480I-19067J-33010D01*
G01X8064980Y3556110D01*
X7810800Y3301930D01*
X7776200D01*
X7758520Y3284250D01*
Y3234980D01*
X7596480D01*
Y3254030D01*
X7553120D01*
Y2943690D01*
X8072140Y2424670D01*
X8129580D01*
Y2622280D01*
X8077280D01*
Y2737720D01*
X8083980D01*
Y2748990D01*
X8081130Y2751280D01*
G02X8137430Y2760970I23869J29721D01*
G03X8150390Y2737720I12966J-8009D01*
G01X8182720D01*
Y2622280D01*
X8180420D01*
Y2424670D01*
X8505160D01*
X9100410Y3019920D01*
X10778020D01*
X11080580Y3322480D01*
Y3486620D01*
X11117620D01*
X11208720Y3577720D01*
X11215280D01*
Y3592720D01*
X11425720D01*
Y3407280D01*
X11215280D01*
Y3420780D01*
X11156820D01*
Y3332110D01*
X11801960D01*
X13249580Y4779730D01*
Y5276470D01*
X13185580Y5340470D01*
Y5533280D01*
X13168280D01*
Y5738720D01*
X13453720D01*
Y5533280D01*
X13449170D01*
G03X13442980Y5521220I-1J-7618D01*
G02X13376390Y5512600I-30977J-22218D01*
G03X13362160Y5533280I-14236J5440D01*
G01X13360720D01*
G03X13346380Y5512890I1J-15238D01*
G02X13274620I-35880J-12890D01*
G03X13260280Y5533280I-14341J5152D01*
G01X13236420D01*
Y5361530D01*
X13291780Y5306170D01*
X13401880D01*
Y5325220D01*
X13401980D01*
Y5342400D01*
X13401880D01*
Y5411020D01*
X13478120D01*
Y5410870D01*
X13568620D01*
Y5391820D01*
X13606990D01*
G02X13646160Y5410370I33008J-19070D01*
G01X13650020Y5409740D01*
X13691930Y5451650D01*
Y5533280D01*
X13630070D01*
Y5502010D01*
G02X13591930I-19070J-33010D01*
G01Y5533280D01*
X13568280D01*
Y5738720D01*
X13753720D01*
Y5533280D01*
X13730070D01*
Y5435850D01*
X13676990Y5382770D01*
X13677620Y5378910D01*
G02X13606990Y5353680I-37620J-6163D01*
G01X13568620D01*
Y5334630D01*
X13478020D01*
Y5317600D01*
X13478120D01*
Y5248980D01*
X13401880D01*
Y5268030D01*
X13300420D01*
Y4758670D01*
X11823020Y3281270D01*
X11147190D01*
X10809600Y2943680D01*
X9131990D01*
X8536740Y2348430D01*
X8040560D01*
X7499210Y2889780D01*
X7391080D01*
Y2894150D01*
X7379210D01*
X7376980Y2890530D01*
G02X7354870Y2947250I-32437J20025D01*
G01X7355880Y2946970D01*
X7391080D01*
Y2966020D01*
X7476880D01*
Y3371410D01*
X7316180Y3532110D01*
Y3615730D01*
G02X7316440Y3620160I38121J-15D01*
G01X7316870Y3623820D01*
X7297280Y3643420D01*
Y3654280D01*
X7247280D01*
Y3809720D01*
X7402720D01*
Y3634820D01*
X7391730Y3623820D01*
X7392160Y3620160D01*
G02X7392420Y3615730I-37861J-4445D01*
G01Y3563690D01*
G37*
G36*
G01X8987460Y3513970D02*
G03X8971040Y3530390I-15189J1231D01*
G02X8953000Y3614120I-3484J43058D01*
G01X8958050Y3615930D01*
Y3649200D01*
X8942200D01*
Y3814800D01*
X9047650D01*
G03X9061910Y3835400I-5J15239D01*
G02X9135260Y3878580I40438J15198D01*
G03X9158490I11615J9871D01*
G02X9211820Y3812530I32913J-27980D01*
G01X9207800Y3810370D01*
Y3649200D01*
X9092200D01*
Y3808280D01*
X9087240Y3810130D01*
G02X9080680Y3813230I15112J40470D01*
G03X9057800Y3800050I-7640J-13187D01*
G01Y3649200D01*
X9038150D01*
Y3553370D01*
X9043480Y3551690D01*
G02X8987460Y3513970I-12961J-41210D01*
G37*
G36*
G01X10549490Y4015310D02*
X10496040D01*
G03X10485270Y3989290I5J-15241D01*
G01X10514150Y3960420D01*
Y3870390D01*
X10475510Y3831750D01*
X10393920D01*
X10391700Y3829530D01*
Y3774600D01*
X10218330D01*
G03X10196110Y3781620I-14069J-5856D01*
G02X10145020Y3851030I-23104J36502D01*
G03Y3874260I-9871J11615D01*
G02X10196110Y3943670I27986J32908D01*
G03X10218460Y3951000I8154J12876D01*
G01X10305300D01*
Y3969680D01*
X10224580D01*
Y4016250D01*
X10224250Y4016580D01*
X10146750D01*
X8926370Y5236960D01*
Y5306950D01*
X8963840Y5344420D01*
Y5354280D01*
X8961780Y5356340D01*
X8941670D01*
X8909320Y5323990D01*
X8839340D01*
X8789840Y5373490D01*
Y5443470D01*
X8836110Y5489750D01*
Y5499690D01*
X8829000Y5506800D01*
X8819060D01*
X8772790Y5460520D01*
X8702810D01*
X8653310Y5510020D01*
Y5580000D01*
X8699580Y5626280D01*
Y5636220D01*
X8692470Y5643330D01*
X8682530D01*
X8636260Y5597050D01*
X8566280D01*
X8516780Y5646550D01*
Y5716530D01*
X8563050Y5762810D01*
Y5772750D01*
X8555940Y5779860D01*
X8546000D01*
X8499730Y5733580D01*
X8429750D01*
X8380250Y5783080D01*
Y5853060D01*
X8426520Y5899340D01*
Y5909280D01*
X8419410Y5916390D01*
X8409470D01*
X8363200Y5870110D01*
X8293220D01*
X8243720Y5919610D01*
Y5989590D01*
X8289990Y6035870D01*
Y6045810D01*
X8282880Y6052920D01*
X8272940D01*
X8226670Y6006640D01*
X8156690D01*
X7445520Y6717810D01*
Y7075720D01*
X7048400Y7472840D01*
X6423900D01*
X6416850Y7465790D01*
Y7447150D01*
X6385220Y7415520D01*
X6340480D01*
X6308850Y7447150D01*
Y7465790D01*
X6301800Y7472840D01*
X6278360D01*
X6035480Y7229960D01*
Y7109720D01*
X6052720D01*
Y6954280D01*
X5947280D01*
Y7109720D01*
X5963040D01*
Y7259970D01*
X6248350Y7545280D01*
X7078410D01*
X7517960Y7105730D01*
Y6747820D01*
X8186700Y6079080D01*
X8196660D01*
X8242930Y6125360D01*
X8312890D01*
X8362430Y6075820D01*
Y6005860D01*
X8316160Y5959580D01*
Y5949620D01*
X8323230Y5942550D01*
X8333190D01*
X8379460Y5988830D01*
X8449420D01*
X8498960Y5939290D01*
Y5869330D01*
X8452690Y5823050D01*
Y5813090D01*
X8459760Y5806020D01*
X8469720D01*
X8515990Y5852300D01*
X8585950D01*
X8635490Y5802760D01*
Y5732800D01*
X8589220Y5686520D01*
Y5676560D01*
X8596290Y5669490D01*
X8606250D01*
X8652520Y5715770D01*
X8722480D01*
X8772020Y5666230D01*
Y5596270D01*
X8725750Y5549990D01*
Y5540030D01*
X8732820Y5532960D01*
X8742780D01*
X8789050Y5579240D01*
X8859010D01*
X8908550Y5529700D01*
Y5459740D01*
X8862280Y5413460D01*
Y5403500D01*
X8869350Y5396430D01*
X8879310D01*
X8911660Y5428780D01*
X8991790D01*
X9036280Y5384290D01*
Y5314410D01*
X8998810Y5276940D01*
Y5266970D01*
X10176760Y4089020D01*
X10224250D01*
X10224580Y4089350D01*
Y4135920D01*
X10305300D01*
Y4141000D01*
X10391700D01*
Y4139500D01*
G02X10435310Y4126470I11293J-41698D01*
G01X10435460Y4126300D01*
X10471480Y4090290D01*
X10518420D01*
X10865620Y4437490D01*
X11208520D01*
X11210200Y4439170D01*
Y4497800D01*
X11430800D01*
Y4302200D01*
X11210200D01*
Y4362510D01*
X10896690D01*
X10549490Y4015310D01*
G37*
G36*
G01X10122800Y5079100D02*
Y5080630D01*
G03X10110450Y5086600I-7618J0D01*
G02X10055620Y5153360I-26847J33846D01*
G03Y5176590I-9871J11615D01*
G02X10101310Y5248900I27986J32906D01*
G03X10120940Y5255500I6251J13901D01*
G01X10209500D01*
Y5285550D01*
X10201960D01*
X10172200Y5315310D01*
X9932930D01*
X7466190Y7782050D01*
X6291920D01*
X6253020Y7743150D01*
X6191840D01*
X6152940Y7782050D01*
X6149230D01*
X5738250Y7371070D01*
Y7114800D01*
X5757800D01*
Y6949200D01*
X5642200D01*
Y7114800D01*
X5663270D01*
Y7402140D01*
X6118160Y7857030D01*
X7497260D01*
X9964000Y5390290D01*
X10172200D01*
X10201960Y5420050D01*
X10209500D01*
Y5441000D01*
X10381700D01*
Y5436870D01*
X10389970D01*
X10390610Y5436980D01*
G02X10425880Y5361490I7287J-42580D01*
G03Y5338260I9871J-11615D01*
G02X10420150Y5268320I-27981J-32912D01*
G01Y5133980D01*
X10386220Y5100050D01*
X10295000D01*
Y5079100D01*
X10122800D01*
G37*
G36*
G01X8579070Y913390D02*
Y862720D01*
X8627220D01*
Y557280D01*
X8474780D01*
Y862720D01*
X8540930D01*
Y913390D01*
G02X8579070I19070J33010D01*
G37*
G36*
G01X7738530Y899860D02*
X7775670Y862720D01*
X7865220D01*
Y557280D01*
X7712780D01*
Y799830D01*
X7649590Y863020D01*
Y873720D01*
X7003030Y1520280D01*
Y2387280D01*
X6982280D01*
Y2532720D01*
X7112720D01*
Y2387280D01*
X7091970D01*
Y1557120D01*
X7738530Y910560D01*
Y899860D01*
G37*
G36*
G01X8316070Y909990D02*
Y862720D01*
X8373220D01*
Y557280D01*
X8220780D01*
Y862720D01*
X8277930D01*
Y909990D01*
G02X8316070I19070J33010D01*
G37*
G36*
G01X8578870Y1559490D02*
Y1422720D01*
X8627220D01*
Y1288070D01*
X8992990D01*
G02Y1249930I33010J-19070D01*
G01X8627220D01*
Y1117280D01*
X8474780D01*
Y1422720D01*
X8540730D01*
Y1559490D01*
G02X8578870I19070J33010D01*
G37*
G36*
G01X8062070Y1937290D02*
Y1422720D01*
X8119220D01*
Y1117280D01*
X7966780D01*
Y1422720D01*
X8023930D01*
Y1937290D01*
G02X8062070I19070J33010D01*
G37*
G36*
G01X8722170Y1865390D02*
X8718040Y1866370D01*
X8333990Y1482320D01*
X8334620Y1478460D01*
G02X8316070Y1439290I-37620J-6162D01*
G01Y1422720D01*
X8373220D01*
Y1117280D01*
X8220780D01*
Y1422720D01*
X8277930D01*
Y1439290D01*
G02X8303160Y1509920I19067J33010D01*
G01X8307020Y1509290D01*
X8693250Y1895520D01*
X8692930Y1899070D01*
G02X8722170Y1865390I37968J3430D01*
G37*
G36*
G01X9316380Y2324210D02*
G02X9294850Y2350150I92626J98784D01*
G03X9269150I-12850J-8201D01*
G02X9082150Y2537150I-114150J72850D01*
G03Y2562850I-8201J12850D01*
G02X9269150Y2749850I72850J114150D01*
G03X9294850I12850J8201D01*
G02X9481850Y2562850I114150J-72850D01*
G03Y2537150I8201J-12850D01*
G02X9431670Y2289490I-72852J-114153D01*
G01X9429270Y2289080D01*
X9305720Y2165530D01*
X7937880D01*
X7447880Y2655530D01*
X7112720D01*
Y2627280D01*
X6982280D01*
Y2772720D01*
X7112720D01*
Y2744470D01*
X7484720D01*
X7974720Y2254470D01*
X9268880D01*
X9316730Y2302320D01*
G03X9316380Y2324210I-10778J10775D01*
G37*
G36*
G01X9773040Y3705560D02*
X9708500Y3641020D01*
Y3632120D01*
X9833130Y3507500D01*
Y3436480D01*
X9782850Y3386200D01*
X9711830D01*
X9587200Y3510820D01*
X9578300D01*
X9571970Y3504490D01*
Y3495590D01*
X9696600Y3370970D01*
Y3299950D01*
X9646320Y3249670D01*
X9575300D01*
X9450670Y3374290D01*
X9441770D01*
X9346410Y3278930D01*
X8945000D01*
X8812510Y3411420D01*
Y3649200D01*
X8792200D01*
Y3814800D01*
X8907800D01*
Y3649200D01*
X8887490D01*
Y3442490D01*
X8976070Y3353910D01*
X8990950D01*
X9036890Y3399850D01*
X9079450D01*
X9125390Y3353910D01*
X9315340D01*
X9410700Y3449270D01*
X9481740D01*
X9606370Y3324650D01*
X9615250D01*
X9621620Y3331020D01*
Y3339900D01*
X9496990Y3464520D01*
Y3535560D01*
X9547230Y3585800D01*
X9618270D01*
X9742900Y3461180D01*
X9751780D01*
X9758150Y3467550D01*
Y3476430D01*
X9633520Y3601050D01*
Y3672090D01*
X9676820Y3715390D01*
G03X9672560Y3739940I-10775J10775D01*
G02X9723930Y3806980I18458J39058D01*
G03X9747160I11615J9871D01*
G02X9780570Y3735800I32912J-27983D01*
G03X9773040Y3728180I89J-7618D01*
G01Y3705560D01*
G37*
G36*
G01X865170Y3408420D02*
X912530D01*
X919050Y3401900D01*
X922640Y3402260D01*
G02X927000Y3402470I4317J-44262D01*
G01X1057280D01*
Y3427720D01*
X1187720D01*
Y3282280D01*
X1057280D01*
Y3313530D01*
X927000D01*
G02X903660Y3320150I4J44469D01*
G01X901820Y3321280D01*
X894280D01*
Y3327760D01*
X892560Y3329870D01*
G02X887500Y3337580I34446J28122D01*
G01X803720D01*
Y3328280D01*
X682570D01*
X682410Y3320820D01*
G02X606490Y3373490I-55410J1182D01*
G03X612580Y3397380I-5636J14158D01*
G01Y3813530D01*
X619910Y3820860D01*
G03X612990Y3846380I-10776J10776D01*
G02X682410Y3901180I14012J53620D01*
G01X682570Y3893720D01*
X803720D01*
Y3755070D01*
X938980D01*
Y3778120D01*
X1015220D01*
Y3778020D01*
X1025020D01*
Y3701980D01*
X1015220D01*
Y3701880D01*
X938980D01*
Y3716930D01*
X803720D01*
Y3457070D01*
X823100D01*
X885100Y3519070D01*
X938980D01*
Y3538120D01*
X1015220D01*
Y3538020D01*
X1025020D01*
Y3461980D01*
X1015220D01*
Y3461880D01*
X938980D01*
Y3480930D01*
X900900D01*
X854400Y3434440D01*
G03X865170Y3408420I10777J-10778D01*
G37*
G36*
G01X7915720Y3920100D02*
Y3850700D01*
G02X7902720Y3819280I-44470J0D01*
G01Y3654280D01*
X7797280D01*
Y3818080D01*
X7826780Y3847580D01*
Y3920100D01*
G02X7915720I44470J0D01*
G37*
G36*
G01X4300310Y3859180D02*
X4323580D01*
Y3891720D01*
G02X4304930Y3924260I19062J32540D01*
G01Y3974260D01*
G02X4380370I37720J0D01*
G01Y3924260D01*
G02X4361720Y3891720I-37712J0D01*
G01Y3859180D01*
X4373640D01*
Y3782940D01*
X4211600D01*
Y3859180D01*
X4211960D01*
G03X4218300Y3871030I2J7620D01*
G02X4285940Y3879500I31699J21171D01*
G03X4300310Y3859180I14369J-5080D01*
G37*
G36*
G01X11046550Y4088380D02*
G03Y4111610I-9871J11615D01*
G02X11117730Y4145020I27983J32912D01*
G01X11117810Y4137490D01*
X11167900D01*
X11202660Y4172250D01*
X11210200D01*
Y4197800D01*
X11430800D01*
Y4002200D01*
X11210200D01*
Y4027750D01*
X11202660D01*
X11167900Y4062510D01*
X11117810D01*
X11117730Y4054980D01*
G02X11046550Y4088380I-43197J488D01*
G37*
G36*
G01X5243490Y4514560D02*
G02X5317510I37010J9140D01*
G03X5332300Y4495670I14795J-3651D01*
G01X5343220D01*
Y4390230D01*
X5217780D01*
Y4495670D01*
X5228700D01*
G03X5243490Y4514560I-5J15239D01*
G37*
G36*
G01X6524430Y5036250D02*
Y5047780D01*
X6477840D01*
Y5038890D01*
X6360960D01*
Y5048330D01*
X6221400D01*
G02Y5137270I0J44470D01*
G01X6360960D01*
Y5145610D01*
X6477840D01*
Y5136720D01*
X6537210D01*
G02X6609870Y5106250I29941J-30470D01*
G01Y5083640D01*
X6610130Y5082680D01*
G02Y5059820I-42980J-11430D01*
G01X6609870Y5058860D01*
Y5036250D01*
G02X6524430I-42720J0D01*
G37*
G36*
G01X4056500Y5585020D02*
G03X4042750Y5606830I-13752J6570D01*
G01X4000080D01*
Y5656100D01*
X3991130Y5665050D01*
Y5707570D01*
G02X3972480Y5740110I19062J32540D01*
G01Y5790110D01*
G02X4047920I37720J0D01*
G01Y5740110D01*
G02X4029270Y5707570I-37712J0D01*
G01Y5683070D01*
X4162120D01*
Y5606830D01*
X4143070D01*
Y5593800D01*
X4127890Y5578620D01*
X4128520Y5574760D01*
G02X4056500Y5585020I-37618J-6161D01*
G37*
G36*
G01X219000Y3248920D02*
X299000D01*
G02Y3108080I0J-70420D01*
G01X219000D01*
G02Y3248920I0J70420D01*
G37*
G36*
G01Y4113920D02*
X299000D01*
G02Y3973080I0J-70420D01*
G01X219000D01*
G02Y4113920I0J70420D01*
G37*
G36*
G01X622000Y3248920D02*
X732000D01*
G02Y3108080I0J-70420D01*
G01X622000D01*
G02Y3248920I0J70420D01*
G37*
G36*
G01Y4113920D02*
X732000D01*
G02Y3973080I0J-70420D01*
G01X622000D01*
G02Y4113920I0J70420D01*
G37*
G36*
G01X6617680Y4659200D02*
Y4690270D01*
G03X6593160Y4702360I-15239J2D01*
G02X6524430Y4736250I-26010J33890D01*
G01Y4752180D01*
X6462650D01*
Y4733650D01*
X6386410D01*
Y4752700D01*
X6354550D01*
Y4734490D01*
X6276570D01*
Y4524710D01*
G02X6238430I-19070J-33010D01*
G01Y4734490D01*
X6192510D01*
Y4810730D01*
X6354550D01*
Y4790840D01*
X6386410D01*
Y4809890D01*
X6462650D01*
Y4790320D01*
X6524430D01*
Y4806250D01*
G02X6602160Y4830730I42720J0D01*
G03X6627140I12490J8733D01*
G02X6697160I35010J-24480D01*
G03X6722140I12490J8733D01*
G02X6799870Y4806250I35010J-24480D01*
G01Y4736250D01*
G02X6720740Y4713910I-42719J0D01*
G01X6718500Y4717550D01*
X6706620D01*
Y4696040D01*
X6789740Y4612920D01*
X6867960D01*
Y4621810D01*
X6967520D01*
X6990410Y4644700D01*
Y5089710D01*
X6887160D01*
Y5195150D01*
X6909860D01*
Y5279580D01*
G03X6883840Y5290350I-15240J-2D01*
G01X6801620Y5208130D01*
Y5071220D01*
G02X6800130Y5059820I-44472J15D01*
G01X6799870Y5058860D01*
Y5036250D01*
G02X6714430I-42720J0D01*
G01Y5058860D01*
X6714170Y5059820D01*
G02X6712680Y5071220I42982J11415D01*
G01Y5244970D01*
X6887160Y5419450D01*
Y5425150D01*
X6990410D01*
Y5450210D01*
X6984140D01*
Y5575650D01*
X7089580D01*
Y5450210D01*
X7079350D01*
Y5425150D01*
X7182600D01*
Y5319710D01*
X7159900D01*
Y5195150D01*
X7182600D01*
Y5089710D01*
X7079350D01*
Y4607860D01*
X6995470Y4523980D01*
X6984840D01*
Y4515090D01*
X6970870D01*
Y4464930D01*
X6776970Y4271030D01*
Y2772720D01*
X6797720D01*
Y2627280D01*
X6776970D01*
Y2532720D01*
X6797720D01*
Y2387280D01*
X6667280D01*
Y2532720D01*
X6688030D01*
Y2627280D01*
X6667280D01*
Y2655530D01*
X4961580D01*
X4304420Y3312690D01*
X1598480D01*
X1596320Y3310530D01*
X1502720D01*
Y3282280D01*
X1372280D01*
Y3427720D01*
X1502720D01*
Y3399470D01*
X1559480D01*
X1561640Y3401630D01*
X3875840D01*
X3987230Y3513020D01*
Y4910480D01*
X3774080Y5123630D01*
Y5403510D01*
X3765190D01*
Y5520390D01*
X3774080D01*
Y5641220D01*
X3774050Y5641560D01*
G02X3775460Y5657200I44300J3890D01*
G01X3775730Y5658180D01*
Y5765110D01*
G02X3782460Y5788630I44464J0D01*
G01Y5790110D01*
G02X3857940I37740J0D01*
G01Y5788630D01*
G02X3864670Y5765110I-37734J-23520D01*
G01Y5628880D01*
X3863020Y5627230D01*
Y5520390D01*
X3871910D01*
Y5403510D01*
X3863020D01*
Y5160470D01*
X4076170Y4947320D01*
Y3548420D01*
X4160070D01*
X4170590Y3558950D01*
G02X4202020Y3571970I31442J-31454D01*
G01X4387680D01*
X4471800Y3656090D01*
Y3737220D01*
X4480690D01*
Y3812810D01*
X4480520Y3813600D01*
G02X4479530Y3822930I43469J9330D01*
G01Y3959030D01*
X4494820Y3974320D01*
X4495040Y3977140D01*
G02X4529770Y4011870I37610J-2880D01*
G01X4532590Y4012090D01*
X4535410Y4014910D01*
X4656890D01*
Y4023160D01*
X4679590D01*
Y4147720D01*
X4656890D01*
Y4253160D01*
X4685500D01*
G03X4696270Y4279180I-2J15240D01*
G01X4673110Y4302340D01*
X4620560D01*
Y4310590D01*
X4595090D01*
X4577120Y4292620D01*
Y4264280D01*
G02X4570390Y4240760I-44464J0D01*
G01Y4239280D01*
G02X4494910I-37740J0D01*
G01Y4240760D01*
G02X4488180Y4264280I37734J23520D01*
G01Y4329460D01*
X4558250Y4399530D01*
X4620560D01*
Y4407780D01*
X4746000D01*
Y4355230D01*
X4848070Y4253160D01*
X4952330D01*
Y4244910D01*
X5020530D01*
Y4357860D01*
X5062530Y4399860D01*
Y4778280D01*
X5056180D01*
Y4940320D01*
X5087490D01*
X5093740Y4946570D01*
X5216830D01*
Y4967520D01*
X5247780D01*
Y5008480D01*
X5211830D01*
Y5233920D01*
X5347270D01*
Y5008480D01*
X5311320D01*
Y4967520D01*
X5342270D01*
Y4862080D01*
X5216830D01*
Y4883030D01*
X5132420D01*
Y4778280D01*
X5126070D01*
Y4373540D01*
X5084070Y4331540D01*
Y4242320D01*
X5175870D01*
Y4235970D01*
X5212780D01*
Y4355670D01*
X5348220D01*
Y4130230D01*
X5312270D01*
Y4095620D01*
X5343220D01*
Y3990180D01*
X5217780D01*
Y4095620D01*
X5248730D01*
Y4130230D01*
X5212780D01*
Y4172430D01*
X5175870D01*
Y4166080D01*
X5076720D01*
X5066610Y4155970D01*
X4952330D01*
Y4147720D01*
X4929630D01*
Y4023160D01*
X4952330D01*
Y3917720D01*
X4656890D01*
Y3925970D01*
X4572250D01*
X4570370Y3924090D01*
G02X4568790Y3913450I-37720J164D01*
G01X4568470Y3912390D01*
Y3873590D01*
G03X4588500Y3859120I15240J-2D01*
G02X4589330Y3786480I11974J-36188D01*
G03X4569630Y3771910I-4458J-14575D01*
G01Y3737220D01*
X4578520D01*
Y3620340D01*
X4561830D01*
X4424520Y3483030D01*
X4230620D01*
Y3401630D01*
X4341260D01*
X4998420Y2744470D01*
X6667280D01*
Y2772720D01*
X6688030D01*
Y4307870D01*
X6881930Y4501770D01*
Y4515090D01*
X6867960D01*
Y4523980D01*
X6752900D01*
X6617680Y4659200D01*
G37*
G36*
G01X10117650Y4547920D02*
G03Y4571150I-9871J11615D01*
G02X10188820Y4604790I27979J32913D01*
G01X10188950Y4597370D01*
X10220500Y4597050D01*
Y4654600D01*
X10219500D01*
Y4705310D01*
X10169800D01*
X9395380Y5479730D01*
X9386460D01*
X9336350Y5429620D01*
X9265310D01*
X9215050Y5479880D01*
Y5550920D01*
X9265160Y5601030D01*
Y5609950D01*
X9258850Y5616260D01*
X9249930D01*
X9199820Y5566150D01*
X9128780D01*
X9078520Y5616410D01*
Y5687450D01*
X9128630Y5737560D01*
Y5746480D01*
X9122320Y5752790D01*
X9113400D01*
X9063290Y5702680D01*
X8992250D01*
X8941990Y5752940D01*
Y5823980D01*
X8992100Y5874090D01*
Y5883010D01*
X8985790Y5889320D01*
X8976870D01*
X8926760Y5839210D01*
X8855720D01*
X8805460Y5889470D01*
Y5960510D01*
X8855570Y6010620D01*
Y6019540D01*
X8849260Y6025850D01*
X8840340D01*
X8790230Y5975740D01*
X8719190D01*
X8668930Y6026000D01*
Y6097040D01*
X8719040Y6147150D01*
Y6156070D01*
X8712730Y6162380D01*
X8703810D01*
X8653700Y6112270D01*
X8582660D01*
X8532400Y6162530D01*
Y6233570D01*
X8582510Y6283680D01*
Y6292600D01*
X8576200Y6298910D01*
X8567280D01*
X8526020Y6257650D01*
X8454980D01*
X8402050Y6310580D01*
Y6376280D01*
X8445980Y6420210D01*
Y6429130D01*
X7225740Y7649370D01*
X6423880D01*
X6417570Y7643060D01*
Y7638920D01*
X6385200Y7606550D01*
X6339400D01*
X6307030Y7638920D01*
Y7643060D01*
X6300720Y7649370D01*
X6199740D01*
X5886050Y7335680D01*
Y7114800D01*
X5907800D01*
Y6949200D01*
X5792200D01*
Y7114800D01*
X5811070D01*
Y7366750D01*
X6168670Y7724350D01*
X7256810D01*
X8520960Y6460200D01*
Y6389140D01*
X8477030Y6345210D01*
Y6341650D01*
X8486050Y6332630D01*
X8494950D01*
X8536210Y6373890D01*
X8607270D01*
X8657490Y6323670D01*
Y6252610D01*
X8607380Y6202500D01*
Y6193600D01*
X8613730Y6187250D01*
X8622630D01*
X8672740Y6237360D01*
X8743800D01*
X8794020Y6187140D01*
Y6116080D01*
X8743910Y6065970D01*
Y6057070D01*
X8750260Y6050720D01*
X8759160D01*
X8809270Y6100830D01*
X8880330D01*
X8930550Y6050610D01*
Y5979550D01*
X8880440Y5929440D01*
Y5920540D01*
X8886790Y5914190D01*
X8895690D01*
X8945800Y5964300D01*
X9016860D01*
X9067080Y5914080D01*
Y5843020D01*
X9016970Y5792910D01*
Y5784010D01*
X9023320Y5777660D01*
X9032220D01*
X9082330Y5827770D01*
X9153390D01*
X9203610Y5777550D01*
Y5706490D01*
X9153500Y5656380D01*
Y5647480D01*
X9159850Y5641130D01*
X9168750D01*
X9218860Y5691240D01*
X9289920D01*
X9340140Y5641020D01*
Y5569960D01*
X9290030Y5519850D01*
Y5510950D01*
X9296380Y5504600D01*
X9305280D01*
X9355390Y5554710D01*
X9426450D01*
X10200870Y4780290D01*
X10219500D01*
Y4831000D01*
X10391700D01*
Y4829330D01*
X10399890D01*
X10400460Y4829420D01*
G02X10449990Y4789800I6440J-42719D01*
G01X10450500Y4782730D01*
X10644940D01*
X10690180Y4737490D01*
X11208020D01*
X11210200Y4739670D01*
Y4797800D01*
X11430800D01*
Y4602200D01*
X11210200D01*
Y4662510D01*
X10659110D01*
X10613870Y4707750D01*
X10391700D01*
Y4690650D01*
X10444720D01*
X10489450Y4645920D01*
Y4559770D01*
X10445830Y4516150D01*
X10391700D01*
Y4464600D01*
X10219500D01*
Y4520110D01*
X10217560Y4522090D01*
X10188910Y4522380D01*
X10188830Y4514750D01*
Y4514730D01*
G02X10117650Y4547920I-43198J278D01*
G37*
G36*
G01X8274070Y2564970D02*
Y2552610D01*
G02X8235930I-19070J-33010D01*
G01Y2622280D01*
X8227280D01*
Y2737720D01*
X8382720D01*
Y2622280D01*
X8374070D01*
Y2611410D01*
X8388210Y2597270D01*
X8439600D01*
X9036000Y3193670D01*
X10519600D01*
X11195000Y3869070D01*
X11215280D01*
Y3892720D01*
X11425720D01*
Y3869070D01*
X11507590D01*
G02X11506430Y3830930I32409J-20073D01*
G01X11425720D01*
Y3769070D01*
X11506990D01*
G02Y3730930I33010J-19070D01*
G01X11425720D01*
Y3707280D01*
X11215280D01*
Y3730930D01*
X11162800D01*
X10556300Y3124430D01*
X9070700D01*
X8475100Y2528830D01*
X8347000D01*
X8300090Y2575750D01*
G03X8274070Y2564970I-10778J-10777D01*
G37*
G36*
G01X5273080Y6873220D02*
X5344430D01*
G03X5359670Y6888460I1J15239D01*
G02X5360140Y6892200I15241J-16D01*
G03X5345370Y6911180I-14774J3740D01*
G01X5265010D01*
X4706070Y6352240D01*
Y5859780D01*
G02X4708620Y5753200I-31769J-54081D01*
G01Y5715890D01*
X4730210D01*
Y5599010D01*
X4708620D01*
Y5553820D01*
X4715320D01*
Y5477580D01*
X4708970D01*
Y5453820D01*
X4715320D01*
Y5366720D01*
X4722420D01*
Y5290480D01*
X4722320D01*
Y5273300D01*
X4722420D01*
Y5204680D01*
X4713830D01*
Y5172090D01*
G02X4726290Y5162480I-31772J-54078D01*
G01X4758190D01*
X5049830Y5454120D01*
Y5895520D01*
X6016880Y6862570D01*
X6185480D01*
X6251170Y6928260D01*
G03X6247280Y6952640I-10772J10782D01*
G01Y7109720D01*
X6352720D01*
Y6945470D01*
X6383100D01*
G02X6384850Y6945430I-141J-44467D01*
G01X6388190Y6945290D01*
X6397280Y6954380D01*
Y7109720D01*
X6416480D01*
G03X6431650Y7126400I-1J15240D01*
G02X6496100Y7157400I37949J3599D01*
G03X6506700I5300J5477D01*
G02X6571150Y7126400I26501J-27401D01*
G03X6586320Y7109720I15171J-1440D01*
G01X6852720D01*
Y6962060D01*
X7124670Y6690110D01*
Y5725620D01*
X7389070Y5461220D01*
Y4054520D01*
X7542170Y3901420D01*
Y3834730D01*
X7552720Y3824180D01*
Y3809720D01*
X7602720D01*
Y3654280D01*
X7447280D01*
Y3832480D01*
X7451550Y3836750D01*
X7451420Y3840090D01*
G02X7452960Y3853600I44432J1778D01*
G01X7453230Y3854590D01*
Y3864580D01*
X7300130Y4017680D01*
Y5424380D01*
X7061780Y5662730D01*
X6719120D01*
X6657120Y5600730D01*
Y5565750D01*
X6671090D01*
Y5557400D01*
X6724140D01*
Y5580650D01*
X6949580D01*
Y5445210D01*
X6724140D01*
Y5468460D01*
X6671090D01*
Y5459030D01*
X6554210D01*
Y5565750D01*
X6568180D01*
Y5637570D01*
X6682280Y5751670D01*
X7035730D01*
Y6653270D01*
X6788570Y6900420D01*
G02X6786070Y6903140I31467J31430D01*
G01X6782830Y6906970D01*
X6769170Y6902810D01*
Y6513840D01*
X6029270Y5773940D01*
Y4578960D01*
X6136070Y4472160D01*
Y4359780D01*
G02X6092390Y4244120I-31768J-54081D01*
G01X6088420Y4244890D01*
X6061210Y4217680D01*
X5998070D01*
Y4179580D01*
X5845630D01*
Y4181280D01*
X5800720D01*
Y4174930D01*
X5794870D01*
Y4127270D01*
X5801220D01*
Y4051030D01*
X5801120D01*
Y4041230D01*
X5725080D01*
Y4051030D01*
X5724980D01*
Y4057380D01*
X5659770D01*
Y4057130D01*
X5648820D01*
Y4012970D01*
X5655170D01*
Y3936730D01*
X5655070D01*
Y3919550D01*
X5655170D01*
Y3850930D01*
X5623860D01*
X5584210Y3811280D01*
X5523090D01*
Y3789690D01*
X5406210D01*
Y3811130D01*
X5348220D01*
Y3730180D01*
X5212780D01*
Y3955620D01*
X5348220D01*
Y3874670D01*
X5406210D01*
Y3896410D01*
X5523090D01*
Y3874820D01*
X5557890D01*
X5578930Y3895860D01*
Y3927170D01*
X5579030D01*
Y3944350D01*
X5578930D01*
Y4012970D01*
X5585280D01*
Y4057130D01*
X5574330D01*
Y4182570D01*
X5659770D01*
Y4122060D01*
X5660910Y4120920D01*
X5724980D01*
Y4127270D01*
X5731330D01*
Y4174930D01*
X5724480D01*
Y4251170D01*
X5800720D01*
Y4244820D01*
X5845630D01*
Y4319320D01*
X5998070D01*
Y4281220D01*
X6034890D01*
X6043490Y4289820D01*
X6042720Y4293790D01*
G02X6072530Y4359780I61580J11910D01*
G01Y4445840D01*
X5965730Y4552640D01*
Y5755410D01*
G03X5939710Y5766180I-15240J-2D01*
G01X5886070Y5712540D01*
Y5399780D01*
G02Y5291620I-31770J-54080D01*
G01Y5251610D01*
X5912740D01*
Y5144890D01*
X5795860D01*
Y5156680D01*
X5702920D01*
Y5150330D01*
X5626680D01*
Y5226570D01*
X5633030D01*
Y5247980D01*
X5621580D01*
Y5278930D01*
X5539040D01*
X5510390Y5307580D01*
X5479080D01*
Y5307680D01*
X5469280D01*
Y5383720D01*
X5479080D01*
Y5383820D01*
X5485430D01*
Y5407580D01*
X5393280D01*
Y5413930D01*
X5338340D01*
Y5373920D01*
X5342270D01*
Y5268480D01*
X5216830D01*
Y5373920D01*
X5221460D01*
Y5493110D01*
X5338340D01*
Y5477470D01*
X5393280D01*
Y5483820D01*
X5555320D01*
Y5407580D01*
X5548970D01*
Y5383820D01*
X5555320D01*
Y5352510D01*
X5565360Y5342470D01*
X5621580D01*
Y5373420D01*
X5707020D01*
Y5247980D01*
X5696570D01*
Y5226570D01*
X5702920D01*
Y5220220D01*
X5795860D01*
Y5251610D01*
X5822530D01*
Y5291620D01*
G02Y5399780I31770J54080D01*
G01Y5738860D01*
X6643230Y6559560D01*
Y6806580D01*
G03X6617210Y6817350I-15242J-7D01*
G01X6547200Y6747330D01*
X6466120D01*
Y6674780D01*
X6466020D01*
Y6664980D01*
X6376120D01*
Y6588980D01*
X6272020D01*
Y6566110D01*
G02X6221180I-25420J-28410D01*
G01Y6588980D01*
X6209880D01*
Y6664980D01*
X6119980D01*
Y6674780D01*
X6119880D01*
Y6751020D01*
X6259150D01*
X6274630Y6766500D01*
X6273990Y6770370D01*
G02X6317760Y6814220I37609J6230D01*
G01X6321620Y6813590D01*
X6338550Y6830510D01*
G03X6327780Y6856530I-10777J10778D01*
G01X6305220D01*
X6222320Y6773630D01*
X6053720D01*
X5138770Y5858680D01*
Y5417280D01*
X4795030Y5073540D01*
X4726290D01*
G02X4724510Y5071840I-44200J44498D01*
G01Y4978640D01*
X4734210D01*
Y4861760D01*
X4724510D01*
Y4779640D01*
X4727750Y4776400D01*
Y4667780D01*
X4751000D01*
Y4549120D01*
X4775890D01*
G02Y4498280I28410J-25420D01*
G01X4751000D01*
Y4442340D01*
X4615560D01*
Y4505460D01*
X4447380D01*
Y4486410D01*
X4342530D01*
Y4467140D01*
X4362080D01*
Y4467040D01*
X4371880D01*
Y4391000D01*
X4362080D01*
Y4390900D01*
X4361720D01*
Y4321820D01*
G02X4380370Y4289280I-19062J-32540D01*
G01Y4239280D01*
G02X4304930I-37720J0D01*
G01Y4289280D01*
G02X4323580Y4321820I37712J0D01*
G01Y4390900D01*
X4285840D01*
Y4467140D01*
X4304390D01*
Y4486410D01*
X4285340D01*
Y4562650D01*
X4447380D01*
Y4543600D01*
X4615560D01*
Y4667780D01*
X4638810D01*
Y4741930D01*
X4638220Y4744870D01*
G02X4635460Y4769650I41043J17115D01*
G01X4635570Y4770300D01*
Y4861760D01*
X4627490D01*
Y4978640D01*
X4635570D01*
Y5075910D01*
G02X4650290Y5172090I46490J42101D01*
G01Y5204680D01*
X4646180D01*
Y5280920D01*
X4646280D01*
Y5298100D01*
X4646180D01*
Y5321790D01*
X4645430Y5322540D01*
Y5377580D01*
X4639080D01*
Y5377680D01*
X4629280D01*
Y5453720D01*
X4639080D01*
Y5453820D01*
X4645430D01*
Y5477580D01*
X4639080D01*
Y5553820D01*
X4645080D01*
Y5599010D01*
X4623490D01*
Y5715890D01*
X4645080D01*
Y5750200D01*
G02X4642530Y5859780I29219J55500D01*
G01Y6378560D01*
X5225260Y6961290D01*
X5225810Y6962360D01*
G02X5228590Y6966180I13562J-6948D01*
G01X5303270Y7040860D01*
G03X5292500Y7066880I-10772J10780D01*
G01X5204790D01*
X4737290Y6599380D01*
X3913290D01*
X3890860Y6576950D01*
X3891130Y6573450D01*
G02X3873070Y6524370I-62531J-4853D01*
G01Y6455720D01*
X3873020Y6455670D01*
Y6413390D01*
X3881910D01*
Y6296510D01*
X3872820D01*
Y6215440D01*
G02X3867400Y6194170I-44471J6D01*
G01X3866470Y6192460D01*
Y6177330D01*
X3864670D01*
Y6080130D01*
G02X3857910Y6056570I-44462J7D01*
G02X3782490I-37710J-1440D01*
G02X3775730Y6080130I37702J23567D01*
G01Y6225720D01*
X3783880Y6233870D01*
Y6296510D01*
X3775190D01*
Y6413390D01*
X3784080D01*
Y6492510D01*
X3784130Y6492560D01*
Y6524370D01*
G02X3833450Y6631130I44470J44228D01*
G01X3836950Y6630860D01*
X3881710Y6675620D01*
X4705710D01*
X5173210Y7143120D01*
X5292810D01*
X5327810Y7178120D01*
X5431000D01*
G02X5469110Y7140830I0J-38119D01*
G01X5469180Y7137770D01*
X5497230Y7109720D01*
X5602720D01*
Y6954280D01*
X5592890D01*
X5537840Y6899240D01*
G03X5548610Y6873220I10777J-10778D01*
G01X5619320D01*
Y6796980D01*
X5619220D01*
Y6787180D01*
X5529320D01*
Y6711180D01*
X5426620D01*
Y6690170D01*
X5410180Y6673730D01*
X5410110Y6670670D01*
G02X5358220Y6707040I-38110J829D01*
G01X5363080Y6708930D01*
Y6796980D01*
X5272340D01*
X5271180Y6790750D01*
G02X5252770Y6764690I-37482J6946D01*
G01Y6754800D01*
X5214720Y6716750D01*
Y6667480D01*
X5214620D01*
Y6657680D01*
X5138580D01*
Y6667480D01*
X5138480D01*
Y6743720D01*
X5187750D01*
X5205400Y6761370D01*
G03X5205630Y6771910I-5386J5390D01*
G02X5239860Y6835320I28071J25791D01*
G01X5243720Y6834690D01*
X5263200Y6854170D01*
X5273080D01*
Y6873220D01*
G37*
G54D51*
X4010200Y6080130D03*
G54D49*
X7725000Y3732000D03*
G54D47*
X11695500Y4150000D03*
G54D50*
X6150000Y7032000D03*
X8700000Y3732000D03*
X8550000D03*
G54D48*
X15500000Y9000000D03*
Y1000000D03*
X10150000Y7450000D03*
Y2550000D03*
X4350000Y7450000D03*
Y2550000D03*
X1000000Y9000000D03*
Y1000000D03*
%LPD*%
G75*
G36*
G01X4027900Y3535700D02*
X4197900D01*
X4217900Y3515700D01*
Y3345700D01*
X4197900Y3325700D01*
X3837900D01*
Y3345700D01*
X4027900Y3535700D01*
G37*
G54D10*
X259000Y3178500D03*
Y4043500D03*
G54D11*
X1000000Y1000000D03*
Y9000000D03*
X4350000Y2550000D03*
Y7450000D03*
X10150000Y2550000D03*
Y7450000D03*
X15500000Y1000000D03*
Y9000000D03*
G54D20*
X3820200Y5765110D03*
Y6080130D03*
X4010200Y5765110D03*
X3915200D03*
X4010200Y6080130D03*
X4532650Y3949260D03*
X4342650D03*
Y4264280D03*
X4437650D03*
X4532650D03*
G54D21*
X3828600Y6568600D03*
X4682060Y5118010D03*
X4674300Y5805700D03*
X5854300Y5345700D03*
X6104300Y4305700D03*
G54D12*
G01X3828600Y6568600D02*
X3897500Y6637500D01*
X4721500D01*
X5189000Y7105000D01*
X5308600D01*
X5343600Y7140000D01*
X5431000D01*
G01X7515000Y2927900D02*
X8056350Y2386550D01*
X8155000D01*
G01X7515000Y3273100D02*
Y2927900D01*
G01X7354300Y3615700D02*
Y3547900D01*
X7515000Y3387200D01*
Y3273100D01*
G01X8155000Y2386550D02*
X8520950D01*
X9116200Y2981800D01*
X10793810D01*
X11118700Y3306690D01*
G01D02*
Y3448500D01*
X595000Y526000D03*
X508000Y1016000D03*
Y1524000D03*
Y2032000D03*
Y2540000D03*
Y3048000D03*
Y4572000D03*
Y5080000D03*
Y5588000D03*
Y6096000D03*
Y6604000D03*
Y7112000D03*
Y7620000D03*
Y8128000D03*
Y8636000D03*
Y9144000D03*
X1016000Y508000D03*
Y1524000D03*
Y2032000D03*
Y2540000D03*
X945000Y3143000D03*
X1016000Y3048000D03*
X1028000Y3217000D03*
X1153000Y3506000D03*
X1167000Y3761000D03*
X1016000Y4064000D03*
Y4572000D03*
Y5080000D03*
Y5588000D03*
Y6096000D03*
Y6604000D03*
Y7112000D03*
Y7620000D03*
Y8128000D03*
X1059000Y9651000D03*
X1524000Y508000D03*
Y1016000D03*
Y1524000D03*
Y2032000D03*
Y2540000D03*
Y3048000D03*
X1646000Y3558000D03*
X1524000Y3556000D03*
Y4064000D03*
Y4572000D03*
Y5080000D03*
Y5588000D03*
Y6096000D03*
Y6604000D03*
Y7112000D03*
Y7620000D03*
Y8128000D03*
Y8636000D03*
Y9144000D03*
X2032000Y508000D03*
Y1016000D03*
Y1524000D03*
Y2032000D03*
Y2540000D03*
Y3048000D03*
Y3556000D03*
Y4064000D03*
Y4572000D03*
Y5080000D03*
Y5588000D03*
Y6096000D03*
Y6604000D03*
Y7112000D03*
Y7620000D03*
Y8128000D03*
Y8636000D03*
Y9144000D03*
X2283000Y6177000D03*
X2540000Y508000D03*
Y1016000D03*
Y1524000D03*
Y2032000D03*
Y2540000D03*
Y3048000D03*
Y3556000D03*
Y4064000D03*
Y4572000D03*
Y5080000D03*
Y5588000D03*
X2851600Y6552800D03*
X2540000Y7112000D03*
Y7620000D03*
Y8128000D03*
Y8636000D03*
Y9144000D03*
X3048000Y508000D03*
Y1016000D03*
Y1524000D03*
Y2032000D03*
Y2540000D03*
Y3048000D03*
Y3556000D03*
Y4064000D03*
Y4572000D03*
Y5080000D03*
X2974300Y5923500D03*
X3048000Y7112000D03*
Y7620000D03*
Y8128000D03*
Y8636000D03*
Y9144000D03*
X3539600Y6200800D03*
X3406300Y6670100D03*
X3556000Y508000D03*
Y1016000D03*
Y1524000D03*
Y2032000D03*
Y2540000D03*
Y3048000D03*
X3788900Y3046000D03*
X3840000Y3810000D03*
X3556000Y3556000D03*
Y4064000D03*
Y4572000D03*
X3800900Y4979500D03*
X3665000Y5482000D03*
X3818100Y5570300D03*
X3556000Y5588000D03*
X3558600Y6278600D03*
X3556000Y7112000D03*
Y7620000D03*
Y8128000D03*
Y8636000D03*
Y9144000D03*
X4064000Y508000D03*
Y1016000D03*
Y1524000D03*
Y2032000D03*
Y3048000D03*
X3975300Y5315300D03*
X4122000Y5448600D03*
X4090900Y5568600D03*
X3915900Y5876900D03*
X4010900Y6201900D03*
X4118600Y6328600D03*
X4013100Y6490800D03*
X4064000Y8128000D03*
Y8636000D03*
Y9144000D03*
X4280000Y3050000D03*
X4255300Y3672700D03*
X4433300Y3911700D03*
X4250000Y3892200D03*
X4417300Y4349700D03*
X4503300Y4425700D03*
X4513300Y4753700D03*
X4362150Y4919850D03*
X4298300Y4914700D03*
X4407300Y5080700D03*
X4465300Y5526700D03*
X4474300Y5405700D03*
X4365300Y5640700D03*
X4544500Y6070300D03*
X4265500Y5957400D03*
X4413200Y6340300D03*
X4558200Y6952700D03*
X4572000Y508000D03*
Y1016000D03*
Y1524000D03*
Y2032000D03*
X4664900Y3358300D03*
X4600470Y3822930D03*
X4893300Y4315700D03*
X4806300Y4406700D03*
X4804300Y4523700D03*
X4806300Y4914700D03*
X4587700Y5327900D03*
X4583300Y5783700D03*
X4895300Y5719700D03*
X4676500Y6497900D03*
X4764500Y6316000D03*
X4723000Y6839100D03*
X4572000Y8128000D03*
Y8636000D03*
Y9144000D03*
X5080000Y508000D03*
Y1016000D03*
Y1524000D03*
Y2032000D03*
X4970000Y2370000D03*
X5080000Y3048000D03*
X5131300Y4286700D03*
X4903300Y4660700D03*
X5164300Y4701700D03*
X4915300Y5080700D03*
X4969800Y5865600D03*
X5202100Y5776800D03*
X5172000Y6538100D03*
X4995200Y6789000D03*
X5174700Y6770900D03*
X5233700Y6797700D03*
X5021200Y7126600D03*
X5080000Y8128000D03*
Y8636000D03*
Y9144000D03*
X5434600Y3303200D03*
X5468300Y4134700D03*
X5529300Y4417700D03*
X5280500Y4523700D03*
X5423300Y4572700D03*
X5395300Y4706700D03*
X5469300Y4806700D03*
X5436500Y5247900D03*
X5320900Y5719000D03*
X5562000Y5621200D03*
X5507400Y6156000D03*
X5367400Y6281700D03*
X5431100Y6583300D03*
X5468100Y6444500D03*
X5296700Y6647700D03*
X5372000Y6671500D03*
X5248800Y7036300D03*
X5473800Y7215300D03*
X5431000Y7140000D03*
X5363500Y7454100D03*
X5390200Y7816700D03*
X5588000Y508000D03*
Y1016000D03*
Y1524000D03*
Y2032000D03*
Y2540000D03*
Y3556000D03*
X5725300Y4433700D03*
X5636500Y4545700D03*
X5668700Y5004600D03*
X5786000Y4934600D03*
X5743300Y5322700D03*
X5678700Y5740100D03*
X5768900Y5926000D03*
X5616000Y6256000D03*
X5662200Y6585500D03*
X5716600Y6357700D03*
X5684400Y6886600D03*
X5681100Y6744400D03*
X5826600Y6741000D03*
X5799500Y6861000D03*
X5778800Y7162400D03*
X5630200Y7164500D03*
X5707800Y7496500D03*
X5867700Y7461000D03*
X5774500Y7296700D03*
X5615200Y7318100D03*
X5823300Y7607600D03*
X5588000Y8636000D03*
Y9144000D03*
X6096000Y508000D03*
Y1016000D03*
Y1524000D03*
Y2032000D03*
Y2540000D03*
Y3048000D03*
X6108900Y3440300D03*
X6096000Y3556000D03*
X6226000Y3866000D03*
X5931300Y4064700D03*
X6100300Y4097500D03*
X6170200Y4561700D03*
X5929300Y4576700D03*
X5918300Y4762700D03*
X6118800Y5028800D03*
X5923200Y4928900D03*
X6221400Y5092800D03*
X6113100Y5796000D03*
X6160300Y5640300D03*
X5934500Y5714500D03*
X5953100Y5947400D03*
X6246600Y6537700D03*
X5975500Y6894400D03*
X6071100Y6589900D03*
X5948900D03*
X6106000Y6899000D03*
X6092400Y7156000D03*
X5918800Y7158100D03*
X6156600Y7293200D03*
X6214400Y7595400D03*
X5965500Y7562100D03*
X6017700Y7414300D03*
X5916600Y7291000D03*
X6147700Y7744300D03*
X6234400Y7887600D03*
X6048800Y7832100D03*
X5941100Y7728700D03*
X5955500Y8238000D03*
X6096000Y8636000D03*
Y9144000D03*
X6517500Y2877400D03*
X6481800Y3656000D03*
X6534600Y3840300D03*
X6570300Y4281700D03*
X6257500Y4491700D03*
X6334600Y4890600D03*
X6420100Y4672900D03*
X6556000Y4617400D03*
X6420400Y4945800D03*
X6291400Y5092800D03*
X6314400Y5266800D03*
X6328400Y5412800D03*
X6432400Y5355800D03*
X6519400Y5290800D03*
X6314600Y5801800D03*
X6389600Y6027500D03*
X6486100Y6500800D03*
X6428000Y6766400D03*
X6311600Y6776600D03*
X6469600Y7130000D03*
X6533200D03*
X6461100Y7435400D03*
X6283300Y7404300D03*
X6318800Y7752100D03*
X6454400Y7887600D03*
X6604000Y508000D03*
Y1016000D03*
X6900000Y1190000D03*
X6604000Y1524000D03*
Y2032000D03*
Y2540000D03*
X6907400Y4024500D03*
X6826000Y4243100D03*
X6661700Y4501700D03*
X6927400Y4841700D03*
X6658400Y5209800D03*
X6660300Y4928800D03*
X6775400Y5369800D03*
X6730300Y5614500D03*
X6846800Y5884600D03*
X6730100Y6270100D03*
X6607800Y6758700D03*
X6687700Y7424300D03*
X6597700Y7598700D03*
X6877700Y7756500D03*
X6646600Y7753200D03*
X6921000Y7885400D03*
X6707700D03*
X6604000Y8636000D03*
Y9144000D03*
X7112000Y508000D03*
Y1016000D03*
X7251400Y2927600D03*
X7046600Y3524600D03*
X6951400Y3224900D03*
X7012700Y3334200D03*
X7015300Y3715500D03*
X7130300Y4500200D03*
X7186700Y4658100D03*
X7168800Y4944500D03*
X7140300Y5487400D03*
X7197400Y5249800D03*
X7261000Y7193200D03*
X7162100Y7587600D03*
X7094300Y7357700D03*
X7199900Y7756500D03*
X7106600Y7889800D03*
X7230100Y8254000D03*
X7112000Y8636000D03*
Y9144000D03*
X7400000Y1670000D03*
X7300000Y2050000D03*
X7580300Y2051700D03*
X7451800Y2546000D03*
X7326000Y3042300D03*
X7344540Y2910560D03*
X7311000Y3386800D03*
X7291000Y3209000D03*
X7456100Y5407500D03*
X7551000Y6551000D03*
X7417700Y6695500D03*
X7406500Y6892100D03*
X7564300Y6757700D03*
X7382100Y7062100D03*
X7578700Y7172100D03*
X7557600Y6953200D03*
X7367700Y7412100D03*
X7389900Y7736500D03*
X7595400Y7611000D03*
X7603200Y7797600D03*
X7467600Y7892100D03*
X7287700Y7889800D03*
X7620000Y508000D03*
X7779000Y1047000D03*
X7730000Y1130000D03*
X7796100Y1633100D03*
X7917400Y2050300D03*
X7728900Y2243100D03*
X7683200Y3117400D03*
X7624300Y3491200D03*
X7631000Y3871200D03*
X7871250Y3850700D03*
Y3920100D03*
X7616700Y4283600D03*
X7886000Y4275600D03*
X7860300Y4666000D03*
X7871000Y6237700D03*
X7713200Y6397700D03*
X7837600Y6486600D03*
X7701000Y6626600D03*
X7755400Y7033200D03*
X7818700Y7583200D03*
X7743200Y7457700D03*
X7918000Y8248700D03*
X7620000Y8636000D03*
Y9144000D03*
X8128000Y508000D03*
Y1524000D03*
X8200600Y1814300D03*
X8043000Y1970300D03*
X8255000Y2519600D03*
X8105000Y2781000D03*
X8075000Y3593100D03*
X8182000Y3995600D03*
X8210900Y5973300D03*
X8190900Y6125500D03*
X8026500Y6077700D03*
X8048700Y6268800D03*
X7971000Y6832100D03*
X8137600Y6673200D03*
X8207600Y7197700D03*
X8177600Y7027700D03*
X7958700Y7245400D03*
X7955400Y7439900D03*
X8232700Y7928700D03*
X8128000Y8636000D03*
Y9144000D03*
X8297000Y943000D03*
X8560000Y946400D03*
X8297000Y1472300D03*
X8353900Y1751600D03*
X8559800Y1592500D03*
X8400700Y4214200D03*
X8382000Y5163500D03*
X8615300Y5557800D03*
X8344300Y5834400D03*
X8482000Y5696600D03*
X8533100Y5892200D03*
X8500900Y6227700D03*
X8399800Y6026600D03*
X8283200Y6535500D03*
X8405400Y6424400D03*
X8554200Y6407700D03*
X8372000Y6828800D03*
X8418700Y6977700D03*
X8636000Y508000D03*
X8930900Y1662500D03*
X8745300Y1800200D03*
X8730900Y1902500D03*
X8867300Y2531600D03*
X8871800Y2854600D03*
X8836500Y3255700D03*
X8747600Y3406800D03*
X8930900Y3476800D03*
X8757600Y3605700D03*
X8827300Y3992900D03*
X8643300Y4462200D03*
X8779300Y4739500D03*
X8654000Y5024800D03*
X8755300Y5423300D03*
X8892000Y5291100D03*
X8949800Y5467800D03*
X8908700Y5805500D03*
X8812000Y5615500D03*
X8674200Y5753300D03*
X8773100Y5943300D03*
X8637600Y6080000D03*
X8823100Y6133300D03*
X8689800Y6272200D03*
X8823100Y6377700D03*
X8886400Y6512100D03*
X8627600Y6571000D03*
X8670900Y6738800D03*
X8636000Y9144000D03*
X9144000Y508000D03*
Y1016000D03*
X9026000Y1269000D03*
X9144000Y2032000D03*
Y3048000D03*
X9133100Y3237900D03*
X9283100Y3421200D03*
X8982000Y3403500D03*
X9289300Y3519600D03*
X9126600Y3506300D03*
X9030520Y3510480D03*
X9285900Y3756800D03*
X8967550Y3573450D03*
X9102350Y3850600D03*
X9191400D03*
X9073100Y4045600D03*
X9232000Y3960100D03*
X9288600Y4552300D03*
X9066400Y4222300D03*
X9128700Y4396700D03*
X9223300Y4248900D03*
X9026400Y5080000D03*
X9178700Y4924500D03*
X9233100Y5088900D03*
X9184200Y5535600D03*
X9049800Y5272200D03*
X9047500Y5667800D03*
X9100900Y5864400D03*
X9232000Y5720000D03*
X8962000Y5994400D03*
X9188700Y6010000D03*
X9283100Y6127700D03*
X9023100Y6182200D03*
X9109800Y6297700D03*
X9160600Y6963400D03*
X9070000Y7944700D03*
X9144000Y9144000D03*
X9505000Y1705000D03*
X9446400Y3305700D03*
Y3505700D03*
X9596400Y3646800D03*
X9635900Y3726900D03*
X9522600Y3794200D03*
X9324000Y3830200D03*
X9442600Y3647600D03*
X9312000Y4195600D03*
X9548600Y4080100D03*
X9483100Y4170100D03*
X9437500Y4422300D03*
X9359700Y4306700D03*
X9604200Y4512300D03*
X9555300Y4842300D03*
X9298600Y4793400D03*
X9540900Y4770000D03*
X9446400Y4676700D03*
X9537500Y4583400D03*
X9633100Y4671200D03*
X9413100Y4911100D03*
X9394200Y5438900D03*
X9545300Y5284500D03*
X9390900Y5614400D03*
X9568600Y5630000D03*
X9362000Y5834400D03*
X9525300Y5878900D03*
X9363300Y8728600D03*
X9652000Y508000D03*
Y1016000D03*
Y2032000D03*
Y2540000D03*
Y3048000D03*
X9754200Y3344600D03*
X9924200Y3772300D03*
X9785300Y3635700D03*
X9733900Y3850900D03*
X9780070Y3779000D03*
X9691020D03*
X9670800Y3979000D03*
X9771900Y3926800D03*
X9863100Y4481200D03*
X9672000Y4355600D03*
X9800800Y4281200D03*
X9704200Y4417800D03*
X9717500Y4693400D03*
X9703100Y4613400D03*
X9898600Y4933400D03*
X9893000Y5126700D03*
X9798600Y5031100D03*
X9679700Y5145600D03*
X9816400Y5218900D03*
X9797500Y5350000D03*
X9650800Y5493300D03*
X9803100Y5606700D03*
X9923300Y6755400D03*
X9652000Y9144000D03*
X10160000Y508000D03*
Y1016000D03*
X10225000Y1711000D03*
X10160000Y2032000D03*
Y3048000D03*
X10308500Y3740800D03*
X10085300Y3757900D03*
X10173000Y3818120D03*
X10191200Y4128800D03*
X9978600Y4110100D03*
X10186500Y3983500D03*
X9997500Y3941200D03*
X10173000Y3907170D03*
X10053000Y4472300D03*
X10306900Y4429500D03*
X10187500Y4442300D03*
X10145630Y4515010D03*
X10075300Y4710000D03*
X10190800Y4832300D03*
X10188600Y4668900D03*
X10145630Y4604060D03*
X10312100Y5212300D03*
X10219800Y5044100D03*
X9996400Y5030000D03*
X10083600Y5209500D03*
Y5120450D03*
X9990800Y5454400D03*
X10169700Y5476700D03*
X10131900Y5285600D03*
X10303800Y5481400D03*
X9981900Y5950100D03*
X10195200Y8163300D03*
X10307200Y8595300D03*
X10160000Y9144000D03*
X10424500Y3791500D03*
X10533800Y3823500D03*
X10403000Y4097800D03*
X10402600Y3907800D03*
X10541800Y3980800D03*
X10385800Y4183500D03*
X10497800Y4131500D03*
X10427500Y4487300D03*
X10407700Y4603400D03*
X10406900Y4786700D03*
X10483600Y4821700D03*
X10491900Y4682100D03*
X10402500Y4868400D03*
X10557900Y4819500D03*
X10561200Y4680500D03*
X10337100Y5056100D03*
X10458500Y5145400D03*
X10397900Y5394400D03*
Y5305350D03*
X10468600Y5433300D03*
X10640800Y5378900D03*
X10467400Y5278000D03*
X10668000Y508000D03*
Y1016000D03*
Y1524000D03*
Y2032000D03*
Y2540000D03*
Y3048000D03*
X10933000Y4042300D03*
X10797200Y4218200D03*
X10895200Y4319600D03*
X10799900Y4413500D03*
X10698500Y4316200D03*
X10707200Y4627500D03*
X10950800Y4803400D03*
X10711200Y4784800D03*
X10714100Y5157800D03*
X10659200Y6136800D03*
X10668000Y9144000D03*
X11176000Y508000D03*
Y1016000D03*
Y1524000D03*
Y2540000D03*
Y3048000D03*
X11023200Y3361600D03*
X11169000Y3657000D03*
X11074530Y4144520D03*
Y4055470D03*
X11159600Y4006800D03*
X11157400Y4196700D03*
X11025800Y4214000D03*
X11005800Y4027300D03*
X11164100Y4307800D03*
X11157400Y4478900D03*
X11056300Y4605600D03*
X11141900Y4803400D03*
X11176000Y5588000D03*
Y6604000D03*
Y7112000D03*
Y7620000D03*
Y8128000D03*
Y8636000D03*
Y9144000D03*
X11430700Y3153500D03*
X11522000Y2887000D03*
X11540000Y3849000D03*
Y3750000D03*
X11475000Y3603000D03*
X11684000Y508000D03*
Y1016000D03*
Y1524000D03*
X11784000Y2709000D03*
X11684000Y2540000D03*
X11966100Y2814600D03*
X11840700Y3199000D03*
X11948000Y4317000D03*
X11684000Y5080000D03*
Y5588000D03*
Y6096000D03*
Y6604000D03*
Y7112000D03*
Y7620000D03*
Y8128000D03*
Y8636000D03*
Y9144000D03*
X12192000Y508000D03*
Y1016000D03*
Y1524000D03*
Y2032000D03*
Y2540000D03*
Y3048000D03*
Y3556000D03*
Y4572000D03*
Y5080000D03*
Y5588000D03*
Y6096000D03*
Y6604000D03*
Y7112000D03*
Y7620000D03*
Y8128000D03*
Y8636000D03*
Y9144000D03*
X12420400Y3420300D03*
X12700000Y508000D03*
Y1016000D03*
Y1524000D03*
Y2032000D03*
Y2540000D03*
Y3048000D03*
Y3556000D03*
X12963200Y3837400D03*
X12700000Y4064000D03*
Y5080000D03*
Y5588000D03*
Y6096000D03*
Y6604000D03*
Y7112000D03*
Y7620000D03*
Y8128000D03*
Y8636000D03*
Y9144000D03*
X13208000Y508000D03*
Y1016000D03*
Y1524000D03*
Y2032000D03*
Y2540000D03*
Y3048000D03*
Y3556000D03*
Y4064000D03*
Y4572000D03*
X13359000Y5176000D03*
X13310500Y5500000D03*
X13359000Y5372000D03*
X13208000Y6604000D03*
Y7112000D03*
Y7620000D03*
Y8128000D03*
Y8636000D03*
Y9144000D03*
X13545000Y5189000D03*
X13412000Y5499000D03*
X13640000Y5372750D03*
X13611000Y5469000D03*
X13716000Y508000D03*
Y1016000D03*
Y1524000D03*
Y2032000D03*
Y2540000D03*
Y3048000D03*
Y3556000D03*
Y4064000D03*
Y4572000D03*
Y5080000D03*
X13714000Y5290000D03*
X13716000Y6604000D03*
Y7112000D03*
Y7620000D03*
Y8128000D03*
Y8636000D03*
Y9144000D03*
X14224000Y508000D03*
Y1016000D03*
Y1524000D03*
Y2032000D03*
Y2540000D03*
Y3048000D03*
Y3556000D03*
Y4064000D03*
Y4572000D03*
Y5080000D03*
Y5588000D03*
Y6096000D03*
Y6604000D03*
Y7112000D03*
Y7620000D03*
Y8128000D03*
Y8636000D03*
Y9144000D03*
X14732000Y508000D03*
Y1016000D03*
Y1524000D03*
Y2032000D03*
Y2540000D03*
Y3048000D03*
Y3556000D03*
Y4064000D03*
Y4572000D03*
Y5080000D03*
Y5588000D03*
Y6096000D03*
Y6604000D03*
Y7112000D03*
Y7620000D03*
Y8128000D03*
Y8636000D03*
Y9144000D03*
X15240000Y508000D03*
Y1524000D03*
Y2032000D03*
Y2540000D03*
Y3048000D03*
Y3556000D03*
Y4064000D03*
Y4572000D03*
Y5080000D03*
Y5588000D03*
Y6096000D03*
Y6604000D03*
Y7112000D03*
Y7620000D03*
Y8128000D03*
Y8636000D03*
X15469000Y9582000D03*
X15748000Y508000D03*
Y1524000D03*
Y2032000D03*
Y2540000D03*
Y3048000D03*
Y3556000D03*
Y4064000D03*
Y4572000D03*
Y5080000D03*
Y5588000D03*
Y6096000D03*
Y6604000D03*
Y7112000D03*
Y7620000D03*
Y8128000D03*
Y8636000D03*
X16025000Y9267000D03*
X16122000Y989000D03*
G54D30*
X6567150Y4771250D03*
Y5071250D03*
X6662150Y4771250D03*
X6757150D03*
Y5071250D03*
X6662150D03*
G54D31*
X6836860Y5512930D03*
G54D22*
X4804610Y3970440D03*
Y4200440D03*
X7034880Y5142430D03*
Y5372430D03*
G54D40*
X13311000Y5636000D03*
X13211000D03*
X13611000D03*
X13511000D03*
X13411000D03*
X13711000D03*
G54D13*
X677000Y3178500D03*
Y4043500D03*
G54D41*
G01X6425000Y7032000D02*
Y6942900D01*
X6383100Y6901000D01*
G01X5247800Y6938900D02*
X5364600D01*
X5375000Y6949300D01*
Y7032000D01*
G01X6675000Y6940700D02*
Y7032000D01*
G01X6725000Y6956900D02*
Y7032000D01*
G01X6475000D02*
Y7124600D01*
X6469600Y7130000D01*
G01X6533200D02*
X6532500D01*
X6525000Y7122500D01*
Y7032000D01*
G01X7354300Y3625600D02*
Y3615700D01*
G01X7495850Y3841850D02*
X7525000Y3812700D01*
Y3732000D01*
G01X7475000D02*
Y3821000D01*
X7495850Y3841850D01*
G01X7375000Y3732000D02*
Y3646300D01*
X7354300Y3625600D01*
G01X7325000Y3732000D02*
Y3654900D01*
X7354300Y3625600D01*
G01X7875000Y3732000D02*
Y3846950D01*
X7871250Y3850700D01*
G01X7825000Y3732000D02*
Y3806600D01*
X7869100Y3850700D01*
X7871250D01*
G01X11118700Y3448500D02*
X11319000D01*
X11320500Y3450000D01*
G01Y3550000D02*
X11220200D01*
X11118700Y3448500D01*
G54D32*
X7036860Y5512930D03*
G54D14*
X734000Y3276000D03*
Y3306000D03*
Y3356000D03*
Y3386000D03*
Y3436000D03*
Y3486000D03*
Y3536000D03*
Y3586000D03*
Y3636000D03*
Y3686000D03*
Y3736000D03*
Y3786000D03*
Y3836000D03*
Y3866000D03*
Y3916000D03*
Y3946000D03*
G54D23*
X4683280Y4355060D03*
X5280500Y4042900D03*
Y4442950D03*
X5279550Y4914800D03*
Y5321200D03*
G54D42*
G01X977100Y3500000D02*
X893000D01*
X831000Y3438000D01*
X736000D01*
X734000Y3436000D01*
G01X977100Y3740000D02*
X973100Y3736000D01*
X734000D01*
G01X3818550Y5570300D02*
X3818100D01*
G01X4124000Y5644950D02*
Y5601700D01*
X4090900Y5568600D01*
G01X4038200Y5644950D02*
X4010200Y5672950D01*
Y5765110D01*
G01X4524000Y3822930D02*
X4600470D01*
G01X4250000Y3892200D02*
Y3821340D01*
X4249720Y3821060D01*
G01X4335520D02*
X4342650Y3828190D01*
Y3949260D01*
G01X4323460Y4524530D02*
Y4429520D01*
X4323960Y4429020D01*
G01D02*
X4342650Y4410330D01*
Y4264280D01*
G01X4409260Y4524530D02*
X4652750D01*
X4683280Y4555060D01*
G01X4680850Y4920200D02*
X4680040D01*
G01X5233700Y6797700D02*
Y6762700D01*
X5176600Y6705600D01*
G01X5311200Y6835100D02*
X5271100D01*
X5233700Y6797700D01*
G01X5311200Y6835100D02*
X5401200D01*
G01D02*
X5525000Y6958900D01*
Y7032000D01*
G01X5575000D02*
Y6963360D01*
X5491200Y6879560D01*
Y6835100D01*
G01D02*
X5581200D01*
G01X6257500Y4491700D02*
Y4745740D01*
X6230630Y4772610D01*
G01X6158000Y6712900D02*
X6248000D01*
G01X6567150Y4771250D02*
X6425050D01*
X6424530Y4771770D01*
G01X6316430Y4772610D02*
X6317270Y4771770D01*
X6424530D01*
G01X6428000Y6712900D02*
X6338000D01*
G01X6428000Y6766400D02*
Y6712900D01*
G01X6625000Y7032000D02*
Y6852100D01*
X6539300Y6766400D01*
X6428000D01*
G01X6248000Y6712900D02*
X6311600Y6776500D01*
Y6776600D01*
G01X6575000Y7032000D02*
Y6885000D01*
X6530300Y6840300D01*
X6375300D01*
X6311600Y6776600D01*
G01X7429200Y2927900D02*
X7361880D01*
X7344540Y2910560D01*
G01X7634600Y3273100D02*
X7515000D01*
G01X7917400Y2050300D02*
Y1098800D01*
X8043000Y973200D01*
Y710000D01*
G01X8075000Y3593100D02*
X7802900Y3321000D01*
X7768300D01*
X7720400Y3273100D01*
G01X8043000Y1270000D02*
Y1970300D01*
G01X8105000Y2680000D02*
Y2781000D01*
G01X8255000Y2680000D02*
Y2519600D01*
G01X8075000Y3732000D02*
Y3593100D01*
G01X8297000Y710000D02*
Y943000D01*
G01X8560000Y946400D02*
Y719000D01*
X8551000Y710000D01*
G01X8730900Y1902500D02*
X8727200D01*
X8297000Y1472300D01*
G01D02*
Y1270000D01*
G01X8551000D02*
X8552000Y1269000D01*
X9026000D01*
G01X8559800Y1592500D02*
Y1278800D01*
X8551000Y1270000D01*
G01X11320500Y3850000D02*
X11202900D01*
X10527500Y3174600D01*
X9043900D01*
X8447500Y2578200D01*
X8380310D01*
X8355000Y2603510D01*
Y2680000D01*
G01X11320500Y3750000D02*
X11154900D01*
X10548400Y3143500D01*
X9062800D01*
X8467200Y2547900D01*
X8354900D01*
X8305000Y2597800D01*
Y2680000D01*
G01X11540000Y3849000D02*
X11539000Y3850000D01*
X11320500D01*
G01X11540000Y3750000D02*
X11320500D01*
G01X13310500Y5500000D02*
Y5635500D01*
X13311000Y5636000D01*
G01X13275000Y5287000D02*
X13275100Y5287100D01*
X13440000D01*
G01X13412000Y5499000D02*
Y5635000D01*
X13411000Y5636000D01*
G01X13440000Y5372900D02*
X13440150Y5372750D01*
X13530500D01*
G01X13640000D02*
X13530500D01*
G01X13711000Y5636000D02*
Y5443750D01*
X13640000Y5372750D01*
G01X13611000Y5636000D02*
Y5469000D01*
G54D33*
X7789000Y710000D03*
Y1270000D03*
X8043000Y710000D03*
X8297000D03*
X8043000Y1270000D03*
X8297000D03*
X8551000Y710000D03*
Y1270000D03*
G54D24*
X4683280Y4555060D03*
X5280500Y3842900D03*
Y4242950D03*
X5279550Y4714800D03*
Y5121200D03*
G54D15*
X627000Y3322000D03*
Y3900000D03*
G54D43*
G01X734000Y3356000D02*
X741000Y3363000D01*
X922000D01*
G01X734000Y3386000D02*
X737000Y3383000D01*
X902000D01*
X922000Y3363000D01*
G01X734000Y3836000D02*
X671000D01*
X638000Y3803000D01*
Y3408000D01*
X660000Y3386000D01*
X734000D01*
G01Y3866000D02*
Y3836000D01*
G01X922000Y3363000D02*
X927000Y3358000D01*
G01X4804300Y4523700D02*
X4714640D01*
X4683280Y4555060D01*
G01X5280500Y4442950D02*
Y4523700D01*
G01X5401200Y6749300D02*
X5491200D01*
G01X5372000Y6671500D02*
X5401200Y6700700D01*
Y6749300D01*
G01X5425000Y7032000D02*
Y7134000D01*
X5431000Y7140000D01*
G01D02*
X5475000Y7096000D01*
Y7032000D01*
G01X6246600Y6537700D02*
Y6625700D01*
X6248000Y6627100D01*
G01X6338000D02*
X6248000D01*
G01X6825000Y7032000D02*
Y6936850D01*
X6820020Y6931870D01*
G01X6775000Y7032000D02*
Y6976890D01*
X6820020Y6931870D01*
G01X8155000Y2386550D02*
Y2680000D01*
G01X11118700Y3306690D02*
X11812490D01*
X13275000Y4769200D01*
Y5287000D01*
G01X13211000Y5636000D02*
Y5351000D01*
X13275000Y5287000D01*
G54D34*
X7890000Y2950000D03*
X8570000D03*
G54D16*
X1122500Y3355000D03*
X1437500D03*
X6732500Y2460000D03*
Y2700000D03*
X7047500Y2460000D03*
Y2700000D03*
G54D25*
X5205000Y7300000D03*
X6995000D03*
X7105000Y4000000D03*
X9395000D03*
G54D44*
G01X4684300Y5242800D02*
X4682060Y5240560D01*
Y5118010D01*
G01X4677200Y5415700D02*
Y5335700D01*
X4684300Y5328600D01*
G01X4677200Y5515700D02*
Y5415700D01*
G01X4676850Y5657450D02*
Y5516050D01*
X4677200Y5515700D01*
G01X4674300Y5805700D02*
X4676850Y5803150D01*
Y5657450D01*
G01X4674300Y5805700D02*
Y6365400D01*
X5247800Y6938900D01*
G01X5094300Y4816400D02*
Y4386700D01*
X5052300Y4344700D01*
Y4204550D01*
X5051950Y4204200D01*
G01X5280500Y4242950D02*
X5241750Y4204200D01*
X5137750D01*
G01X5279550Y4914800D02*
X5106900D01*
X5094300Y4902200D01*
G01X5617050Y3889050D02*
X5571050Y3843050D01*
X5464650D01*
G01X5280500Y3842900D02*
X5464500D01*
X5464650Y3843050D01*
G01X5280500Y4042900D02*
Y4242950D01*
G01X5279550Y5121200D02*
Y4914800D01*
G01Y5321200D02*
Y5439400D01*
X5279900Y5439750D01*
G01D02*
X5285850Y5445700D01*
X5431400D01*
G01X5517200Y5345700D02*
Y5445700D01*
G01X5664300Y5310700D02*
X5552200D01*
X5517200Y5345700D01*
G01X5617050Y3974850D02*
Y4119850D01*
G01X5921850Y4249450D02*
X5885450Y4213050D01*
X5762600D01*
G01X5763100Y4089150D02*
Y4212550D01*
X5762600Y4213050D01*
G01X5617050Y4119850D02*
X5647750Y4089150D01*
X5763100D01*
G01X5664800Y5188450D02*
Y5310200D01*
X5664300Y5310700D01*
G01X5854300Y5345700D02*
Y5198250D01*
G01D02*
Y5197970D01*
X5844780Y5188450D01*
X5664800D01*
G01X5854300Y5345700D02*
Y5725700D01*
X6675000Y6546400D01*
Y6940700D01*
G01X6104300Y4305700D02*
X6048050Y4249450D01*
X5921850D01*
G01X6104300Y4305700D02*
Y4459000D01*
X5997500Y4565800D01*
Y5787100D01*
X6737400Y6527000D01*
Y6944500D01*
X6725000Y6956900D01*
G54D26*
X5464650Y3843050D03*
Y4008150D03*
X5279900Y5439750D03*
Y5604850D03*
X5854300Y5198250D03*
Y5033150D03*
X6419400Y5092250D03*
X6612650Y5512390D03*
Y5347290D03*
X6419400Y5257350D03*
X6926400Y4568450D03*
Y4733550D03*
G54D17*
X927000Y3358000D03*
Y3226000D03*
G54D35*
X8255000Y2680000D03*
X8205000D03*
X8155000D03*
X8105000D03*
X8355000D03*
X8305000D03*
G54D45*
G01X5825000Y7032000D02*
X5833320Y7040320D01*
Y7357530D01*
X6177890Y7702100D01*
X7247590D01*
X8498710Y6450980D01*
Y6398360D01*
X8454780Y6354430D01*
Y6332430D01*
X8476830Y6310380D01*
X8504170D01*
X8545430Y6351640D01*
X8598050D01*
X8635240Y6314450D01*
Y6261830D01*
X8585130Y6211720D01*
Y6184380D01*
X8604510Y6165000D01*
X8631850D01*
X8681960Y6215110D01*
X8734580D01*
X8771770Y6177920D01*
Y6125300D01*
X8721660Y6075190D01*
Y6047850D01*
X8741040Y6028470D01*
X8768380D01*
X8818490Y6078580D01*
X8871110D01*
X8908300Y6041390D01*
Y5988770D01*
X8858190Y5938660D01*
Y5911320D01*
X8877570Y5891940D01*
X8904910D01*
X8955020Y5942050D01*
X9007640D01*
X9044830Y5904860D01*
Y5852240D01*
X8994720Y5802130D01*
Y5774790D01*
X9014100Y5755410D01*
X9041440D01*
X9091550Y5805520D01*
X9144170D01*
X9181360Y5768330D01*
Y5715710D01*
X9131250Y5665600D01*
Y5638260D01*
X9150630Y5618880D01*
X9177970D01*
X9228080Y5668990D01*
X9280700D01*
X9317890Y5631800D01*
Y5579180D01*
X9267780Y5529070D01*
Y5501730D01*
X9287160Y5482350D01*
X9314500D01*
X9364610Y5532460D01*
X9417230D01*
X10191650Y4758040D01*
X10232940D01*
X10262700Y4787800D01*
G01X5675000Y7032000D02*
X5685520Y7042520D01*
Y7392920D01*
X6127380Y7834780D01*
X7488040D01*
X9954780Y5368040D01*
X10181420D01*
X10211180Y5397800D01*
X10252700D01*
G01X5725000Y7032000D02*
X5716000Y7041000D01*
Y7380290D01*
X6140010Y7804300D01*
X6162160D01*
X6201060Y7765400D01*
X6243800D01*
X6282700Y7804300D01*
X7475410D01*
X9942150Y5337560D01*
X10181420D01*
X10211180Y5307800D01*
X10252700D01*
G01X5875000Y7032000D02*
X5867920D01*
X5863800Y7036120D01*
Y7344900D01*
X6190520Y7671620D01*
X6309940D01*
X6329280Y7652280D01*
Y7648140D01*
X6348620Y7628800D01*
X6375980D01*
X6395320Y7648140D01*
Y7652280D01*
X6414660Y7671620D01*
X7234960D01*
X8468230Y6438350D01*
Y6410990D01*
X8424300Y6367060D01*
Y6319800D01*
X8464200Y6279900D01*
X8516800D01*
X8558060Y6321160D01*
X8585420D01*
X8604760Y6301820D01*
Y6274460D01*
X8554650Y6224350D01*
Y6171750D01*
X8591880Y6134520D01*
X8644480D01*
X8694590Y6184630D01*
X8721950D01*
X8741290Y6165290D01*
Y6137930D01*
X8691180Y6087820D01*
Y6035220D01*
X8728410Y5997990D01*
X8781010D01*
X8831120Y6048100D01*
X8858480D01*
X8877820Y6028760D01*
Y6001400D01*
X8827710Y5951290D01*
Y5898690D01*
X8864940Y5861460D01*
X8917540D01*
X8967650Y5911570D01*
X8995010D01*
X9014350Y5892230D01*
Y5864870D01*
X8964240Y5814760D01*
Y5762160D01*
X9001470Y5724930D01*
X9054070D01*
X9104180Y5775040D01*
X9131540D01*
X9150880Y5755700D01*
Y5728340D01*
X9100770Y5678230D01*
Y5625630D01*
X9138000Y5588400D01*
X9190600D01*
X9240710Y5638510D01*
X9268070D01*
X9287410Y5619170D01*
Y5591810D01*
X9237300Y5541700D01*
Y5489100D01*
X9274530Y5451870D01*
X9327130D01*
X9377240Y5501980D01*
X9404600D01*
X10179020Y4727560D01*
X10232940D01*
X10262700Y4697800D01*
G01X5975000Y7032000D02*
X5984020Y7041020D01*
Y7251280D01*
X6257040Y7524300D01*
X7069720D01*
X7496980Y7097040D01*
Y6739130D01*
X8178010Y6058100D01*
X8205350D01*
X8251620Y6104380D01*
X8304200D01*
X8341450Y6067130D01*
Y6014550D01*
X8295180Y5968270D01*
Y5940930D01*
X8314540Y5921570D01*
X8341880D01*
X8388150Y5967850D01*
X8440730D01*
X8477980Y5930600D01*
Y5878020D01*
X8431710Y5831740D01*
Y5804400D01*
X8451070Y5785040D01*
X8478410D01*
X8524680Y5831320D01*
X8577260D01*
X8614510Y5794070D01*
Y5741490D01*
X8568240Y5695210D01*
Y5667870D01*
X8587600Y5648510D01*
X8614940D01*
X8661210Y5694790D01*
X8713790D01*
X8751040Y5657540D01*
Y5604960D01*
X8704770Y5558680D01*
Y5531340D01*
X8724130Y5511980D01*
X8751470D01*
X8797740Y5558260D01*
X8850320D01*
X8887570Y5521010D01*
Y5468430D01*
X8841300Y5422150D01*
Y5394810D01*
X8860660Y5375450D01*
X8888000D01*
X8920350Y5407800D01*
X8983100D01*
X9015300Y5375600D01*
Y5323100D01*
X8977830Y5285630D01*
Y5258280D01*
X10168070Y4068040D01*
X10232940D01*
X10262700Y4097800D01*
G01X6025000Y7032000D02*
X6018620D01*
X6014500Y7036120D01*
Y7238650D01*
X6269670Y7493820D01*
X6310490D01*
X6329830Y7474480D01*
Y7455840D01*
X6349170Y7436500D01*
X6376530D01*
X6395870Y7455840D01*
Y7474480D01*
X6415210Y7493820D01*
X7057090D01*
X7466500Y7084410D01*
Y6726500D01*
X8165380Y6027620D01*
X8217980D01*
X8264250Y6073900D01*
X8291570D01*
X8310970Y6054500D01*
Y6027180D01*
X8264700Y5980900D01*
Y5928300D01*
X8301910Y5891090D01*
X8354510D01*
X8400780Y5937370D01*
X8428100D01*
X8447500Y5917970D01*
Y5890650D01*
X8401230Y5844370D01*
Y5791770D01*
X8438440Y5754560D01*
X8491040D01*
X8537310Y5800840D01*
X8564630D01*
X8584030Y5781440D01*
Y5754120D01*
X8537760Y5707840D01*
Y5655240D01*
X8574970Y5618030D01*
X8627570D01*
X8673840Y5664310D01*
X8701160D01*
X8720560Y5644910D01*
Y5617590D01*
X8674290Y5571310D01*
Y5518710D01*
X8711500Y5481500D01*
X8764100D01*
X8810370Y5527780D01*
X8837690D01*
X8857090Y5508380D01*
Y5481060D01*
X8810820Y5434780D01*
Y5382180D01*
X8848030Y5344970D01*
X8900630D01*
X8932980Y5377320D01*
X8970470D01*
X8984820Y5362970D01*
Y5335730D01*
X8947350Y5298260D01*
Y5245650D01*
X10155440Y4037560D01*
X10232940D01*
X10262700Y4007800D01*
G01X8825000Y3732000D02*
Y3676600D01*
X8834760Y3666840D01*
Y3420640D01*
X8954220Y3301180D01*
X9337190D01*
X9432550Y3396540D01*
X9459890D01*
X9584520Y3271920D01*
X9637100D01*
X9674350Y3309170D01*
Y3361750D01*
X9549720Y3486370D01*
Y3513710D01*
X9569080Y3533070D01*
X9596420D01*
X9721050Y3408450D01*
X9773630D01*
X9810880Y3445700D01*
Y3498280D01*
X9686250Y3622900D01*
Y3650240D01*
X9750790Y3714780D01*
Y3749720D01*
X9780070Y3779000D01*
G01X8875000Y3732000D02*
Y3674800D01*
X8865240Y3665040D01*
Y3433270D01*
X8966850Y3331660D01*
X9000170D01*
X9046110Y3377600D01*
X9070230D01*
X9116170Y3331660D01*
X9324560D01*
X9419920Y3427020D01*
X9472520D01*
X9597150Y3302400D01*
X9624470D01*
X9643870Y3321800D01*
Y3349120D01*
X9519240Y3473740D01*
Y3526340D01*
X9556450Y3563550D01*
X9609050D01*
X9733680Y3438930D01*
X9761000D01*
X9780400Y3458330D01*
Y3485650D01*
X9655770Y3610270D01*
Y3662870D01*
X9720310Y3727410D01*
Y3749710D01*
X9691020Y3779000D01*
G01X9030520Y3510480D02*
X9015900Y3525100D01*
Y3722900D01*
X9025000Y3732000D01*
G01X8967550Y3573450D02*
X8980300Y3586200D01*
Y3726700D01*
X8975000Y3732000D01*
G01X9102350Y3850600D02*
X9134120Y3818830D01*
Y3741120D01*
X9125000Y3732000D01*
G01X9191400Y3850600D02*
X9164600Y3823800D01*
Y3742400D01*
X9175000Y3732000D01*
G01X10262700Y3817800D02*
X10233090Y3847410D01*
X10202290D01*
X10173000Y3818120D01*
G01X10262700Y3907800D02*
X10232790Y3877890D01*
X10202280D01*
X10173000Y3907170D01*
G01X10262700Y4507800D02*
X10227020Y4544240D01*
X10175390Y4544770D01*
X10145630Y4515010D01*
G01X10263700Y4603900D02*
X10233860Y4574670D01*
X10173830Y4575270D01*
X10145630Y4604060D01*
G01X10312100Y5212300D02*
X10251800D01*
G01X10397900Y5305350D02*
Y5143200D01*
X10377000Y5122300D01*
X10251800D01*
G01X10083600Y5209500D02*
X10086400Y5212300D01*
X10166000D01*
G01X10083600Y5120450D02*
X10085450Y5122300D01*
X10166000D01*
G01X10348500Y3817800D02*
X10384700Y3854000D01*
X10466290D01*
X10491900Y3879610D01*
Y3951200D01*
X10465200Y3977900D01*
X10378400D01*
X10349390Y4006910D01*
G01X10403000Y4097800D02*
X10432500D01*
X10462260Y4068040D01*
X10527640D01*
X10874840Y4415240D01*
X11217740D01*
X11252500Y4450000D01*
X11320500D01*
G01X10348500Y4097800D02*
X10403000D01*
G01X10348500Y3907800D02*
X10402600D01*
G01X10349390Y4006910D02*
X10380040Y4037560D01*
X10540270D01*
X10887470Y4384760D01*
X11221140D01*
X11255900Y4350000D01*
X11320500D01*
G01X10348500Y4007800D02*
X10349390Y4006910D01*
G01X10348500Y4697800D02*
X10377900Y4668400D01*
X10435500D01*
X10467200Y4636700D01*
Y4568990D01*
X10436610Y4538400D01*
X10379100D01*
X10348500Y4507800D01*
G01X10407700Y4603400D02*
X10407200Y4603900D01*
X10349500D01*
G01X10406900Y4786700D02*
X10349600D01*
X10348500Y4787800D01*
G01X10406900Y4786700D02*
X10433120Y4760480D01*
X10635720D01*
X10680960Y4715240D01*
X11217240D01*
X11252000Y4750000D01*
X11320500D01*
G01X10348500Y4697800D02*
X10380700Y4730000D01*
X10623090D01*
X10668330Y4684760D01*
X11220340D01*
X11255100Y4650000D01*
X11320500D01*
G01X10397900Y5394400D02*
X10394500Y5397800D01*
X10338500D01*
G01X10397900Y5305350D02*
X10395450Y5307800D01*
X10338500D01*
G01X11074530Y4144520D02*
X11103810Y4115240D01*
X11177120D01*
X11211880Y4150000D01*
X11320500D01*
G01X11074530Y4055470D02*
X11103820Y4084760D01*
X11177120D01*
X11211880Y4050000D01*
X11320500D01*
G54D36*
X9155000Y2423000D03*
Y2677000D03*
X9409000Y2423000D03*
Y2677000D03*
G54D18*
X977100Y3500000D03*
X1062900D03*
X977100Y3740000D03*
X1062900D03*
X1580000Y3442900D03*
Y3357100D03*
X3818350Y5645450D03*
X3828350Y6215450D03*
X3904150Y5645450D03*
X4124000Y5644950D03*
X4038200D03*
X3914150Y6215450D03*
X4438200Y3822930D03*
X4524000D03*
X4249720Y3821060D03*
X4335520D03*
X4323460Y4524530D03*
X4409260D03*
X4409760Y4429020D03*
X4323960D03*
X4593460Y4762000D03*
X4679260D03*
X4591400Y5515700D03*
X4677200D03*
Y5415700D03*
X4591400D03*
X4684300Y5242800D03*
Y5328600D03*
X5051950Y4204200D03*
X5137750D03*
X5094300Y4816400D03*
Y4902200D03*
X5176600Y6705600D03*
Y6619800D03*
X5517200Y5445700D03*
X5431400D03*
X5517200Y5345700D03*
X5431400D03*
X5311200Y6749300D03*
Y6835100D03*
X5401200Y6749300D03*
Y6835100D03*
X5491200Y6749300D03*
Y6835100D03*
X5762600Y4213050D03*
X5617050Y3974850D03*
Y3889050D03*
X5763100Y4089150D03*
Y4003350D03*
X5762600Y4298850D03*
X5664800Y5102650D03*
Y5188450D03*
X5581200Y6835100D03*
Y6749300D03*
X6230630Y4772610D03*
X6158000Y6712900D03*
Y6627100D03*
X6248000D03*
Y6712900D03*
X6424530Y4857570D03*
Y4771770D03*
X6316430Y4772610D03*
X6428000Y6712900D03*
Y6627100D03*
X6338000D03*
Y6712900D03*
X7515000Y2927900D03*
X7429200D03*
X7634600Y3273100D03*
X7720400D03*
X10262700Y3817800D03*
Y4097800D03*
Y4007800D03*
Y3907800D03*
Y4507800D03*
Y4787800D03*
Y4697800D03*
X10263700Y4603900D03*
X10251800Y5212300D03*
X10166000D03*
X10251800Y5122300D03*
X10166000D03*
X10252700Y5397800D03*
Y5307800D03*
X10348500Y3817800D03*
Y4097800D03*
Y4007800D03*
Y3907800D03*
Y4507800D03*
Y4787800D03*
Y4697800D03*
X10349500Y4603900D03*
X10338500Y5397800D03*
Y5307800D03*
X11032900Y3448500D03*
X11118700D03*
X13530500Y5286950D03*
Y5372750D03*
X13440000Y5287100D03*
Y5372900D03*
G54D27*
X5375000Y7032000D03*
X5425000D03*
X5475000D03*
X5525000D03*
X5575000D03*
X5625000D03*
X5825000D03*
X5725000D03*
X5875000D03*
X5775000D03*
X5675000D03*
X6225000D03*
X6125000D03*
X6025000D03*
X5925000D03*
X6175000D03*
X6075000D03*
X5975000D03*
X6525000D03*
X6425000D03*
X6325000D03*
X6575000D03*
X6475000D03*
X6375000D03*
X6275000D03*
X6825000D03*
X6725000D03*
X6625000D03*
X6775000D03*
X6675000D03*
X7325000Y3732000D03*
X7375000D03*
X7425000D03*
X7475000D03*
X7525000D03*
X7575000D03*
X7275000D03*
X7625000D03*
X7675000D03*
X7725000D03*
X7775000D03*
X7825000D03*
X7875000D03*
X7925000D03*
X7975000D03*
X8025000D03*
X8225000D03*
X8125000D03*
X8275000D03*
X8175000D03*
X8075000D03*
X8525000D03*
X8425000D03*
X8325000D03*
X8575000D03*
X8475000D03*
X8375000D03*
X8925000D03*
X8825000D03*
X8725000D03*
X8625000D03*
X8875000D03*
X8775000D03*
X8675000D03*
X9225000D03*
X9125000D03*
X9025000D03*
X9175000D03*
X9075000D03*
X8975000D03*
G54D46*
G01X140960Y3178500D02*
X259000D01*
G01X140960Y4043500D02*
X259000D01*
G01Y3100460D02*
Y3178500D01*
G01D02*
Y3256540D01*
G01Y3178500D02*
X377040D01*
G01X259000Y3965460D02*
Y4043500D01*
G01D02*
Y4121540D01*
G01Y4043500D02*
X377040D01*
G01X656960Y1000000D02*
X1000000D01*
G01X677000Y3100460D02*
Y3178500D01*
G01D02*
Y3256540D01*
G01X543960Y3178500D02*
X677000D01*
G01D02*
X810040D01*
G01X677000Y3965460D02*
Y4043500D01*
G01D02*
Y4121540D01*
G01X543960Y4043500D02*
X677000D01*
G01D02*
X810040D01*
G01X656960Y9000000D02*
X1000000D01*
G01Y656960D02*
Y1000000D01*
G01D02*
Y1343040D01*
G01Y1000000D02*
X1343040D01*
G01X927000Y3358000D02*
X1119500D01*
X1122500Y3355000D01*
G01X1000000Y8656960D02*
Y9000000D01*
G01D02*
Y9343040D01*
G01Y9000000D02*
X1343040D01*
G01X1437500Y3355000D02*
X1577900D01*
X1580000Y3357100D01*
G01X4031700Y3357160D02*
X1580060D01*
X1580000Y3357100D01*
G01X4031700Y3357160D02*
Y4928900D01*
X3818550Y5142050D01*
Y5461950D01*
G01D02*
Y5570300D01*
G01D02*
Y5645250D01*
X3818350Y5645450D01*
G01X3820200Y5765110D02*
Y5647300D01*
X3818350Y5645450D01*
G01X3828350Y6215450D02*
X3820200Y6207300D01*
Y6080130D01*
G01X3828550Y6354950D02*
X3828350Y6354750D01*
Y6215450D01*
G01X3828600Y6568600D02*
Y6474140D01*
X3828550Y6474090D01*
Y6354950D01*
G01X4006960Y2550000D02*
X4350000D01*
G01X6732500Y2700000D02*
X4980000D01*
X4322840Y3357160D01*
X4031700D01*
G01D02*
X4202040Y3527500D01*
G01D02*
X4406100D01*
X4525160Y3646560D01*
Y3678780D01*
G01X4006960Y7450000D02*
X4350000D01*
G01Y2206960D02*
Y2550000D01*
G01D02*
Y2893040D01*
G01Y2550000D02*
X4693040D01*
G01X4525160Y3678780D02*
Y3821770D01*
X4524000Y3822930D01*
G01D02*
Y3940610D01*
X4532650Y3949260D01*
G01X4804610Y3970440D02*
X4553830D01*
X4532650Y3949260D01*
G01X4683280Y4355060D02*
X4576670D01*
X4532650Y4311040D01*
Y4264280D01*
G01X4350000Y7106960D02*
Y7450000D01*
G01D02*
Y7793040D01*
G01Y7450000D02*
X4693040D01*
G01X5051950Y4204200D02*
X5048190Y4200440D01*
X4804610D01*
G01D02*
Y4233730D01*
X4683280Y4355060D01*
G01Y4555060D02*
Y4757980D01*
X4679260Y4762000D01*
G01X4680040Y4920200D02*
Y4762780D01*
X4679260Y4762000D01*
G01X6383100Y6901000D02*
X6286800D01*
X6203900Y6818100D01*
X6035300D01*
X5094300Y5877100D01*
Y5435700D01*
X4776610Y5118010D01*
X4682060D01*
G01D02*
X4680040Y5115990D01*
Y4920200D01*
G01X6291400Y5092800D02*
X6221400D01*
G01X6419400Y5092250D02*
X6418850Y5092800D01*
X6291400D01*
G01X6419400Y5092250D02*
X6546150D01*
X6567150Y5071250D01*
G01X6732500Y2700000D02*
Y2460000D01*
G01Y2700000D02*
Y4289450D01*
X6926400Y4483350D01*
Y4568450D01*
G01D02*
X6771320D01*
X6662150Y4677620D01*
Y4771250D01*
G01X7034880Y5142430D02*
Y4626280D01*
X6977050Y4568450D01*
X6926400D01*
G01X7034880Y5372430D02*
X6903030D01*
X6757150Y5226550D01*
Y5071250D01*
G01X6836860Y5512930D02*
X6613190D01*
X6612650Y5512390D01*
G01X7080200Y5707200D02*
X6700700D01*
X6612650Y5619150D01*
Y5512390D01*
G01X6820020Y6931870D02*
X7080200Y6671690D01*
Y5707200D01*
G01X7789000Y710000D02*
Y786500D01*
X7694060Y881440D01*
Y892140D01*
X7047500Y1538700D01*
Y2460000D01*
G01Y2700000D02*
X7466300D01*
X7956300Y2210000D01*
X9287300D01*
X9409000Y2331700D01*
Y2423000D01*
G01X7495850Y3841850D02*
X7497700Y3843700D01*
Y3883000D01*
X7344600Y4036100D01*
Y5442800D01*
X7080200Y5707200D01*
G01X7036860Y5512930D02*
X7034880Y5510950D01*
Y5372430D01*
G01X7871250Y3850700D02*
Y3920100D01*
G01X9806960Y2550000D02*
X10150000D01*
G01X9806960Y7450000D02*
X10150000D01*
G01Y2206960D02*
Y2550000D01*
G01D02*
Y2893040D01*
G01Y2550000D02*
X10493040D01*
G01X10150000Y7106960D02*
Y7450000D01*
G01D02*
Y7793040D01*
G01Y7450000D02*
X10493040D01*
G01X15156960Y1000000D02*
X15500000D01*
G01X15156960Y9000000D02*
X15500000D01*
G01Y656960D02*
Y1000000D01*
G01D02*
Y1343040D01*
G01Y1000000D02*
X15843040D01*
G01X15500000Y8656960D02*
Y9000000D01*
G01D02*
Y9343040D01*
G01Y9000000D02*
X15843040D01*
G54D19*
X3818550Y5461950D03*
X3828550Y6354950D03*
X3983650Y5461950D03*
X3993650Y6354950D03*
X4525160Y3678780D03*
X4360060D03*
X4515750Y4920200D03*
X4511750Y5657450D03*
X4680850Y4920200D03*
X4676850Y5657450D03*
G54D28*
X5921850Y4249450D03*
Y4452650D03*
G54D37*
X11320500Y3550000D03*
Y3450000D03*
Y3850000D03*
Y3750000D03*
Y3650000D03*
Y4150000D03*
Y4050000D03*
Y3950000D03*
Y4550000D03*
Y4450000D03*
Y4350000D03*
Y4250000D03*
Y4850000D03*
Y4750000D03*
Y4650000D03*
G54D38*
X11695500Y3550000D03*
Y3450000D03*
Y3850000D03*
Y3750000D03*
Y3650000D03*
Y4150000D03*
Y4050000D03*
Y3950000D03*
Y4550000D03*
Y4450000D03*
Y4350000D03*
Y4250000D03*
Y4850000D03*
Y4750000D03*
Y4650000D03*
G54D29*
X5617050Y4119850D03*
Y4429850D03*
X5664300Y5310700D03*
Y5620700D03*
G54D39*
X12976000Y5853000D03*
X13946000D03*
M02*
