G04 ================== begin FILE IDENTIFICATION RECORD ==================*
G04 Layout Name:  PCB_ESP32-P4_FUNCTION_EV_BOARD_MIPI_Sub_V1.1_20240529.brd*
G04 Film Name:    DRII*
G04 File Format:  Gerber RS274X*
G04 File Origin:  Cadence Allegro 16.6-2015-S108*
G04 Origin Date:  Thu May 30 15:24:29 2024*
G04 *
G04 Layer:  MANUFACTURING/NCLEGEND-1-4*
G04 Layer:  MANUFACTURING/NCDRILL_LEGEND*
G04 Layer:  MANUFACTURING/NCDRILL_FIGURE*
G04 Layer:  BOARD GEOMETRY/OUTLINE*
G04 Layer:  BOARD GEOMETRY/DIMENSION*
G04 *
G04 Offset:    (0.0000 0.0000)*
G04 Mirror:    No*
G04 Mode:      Positive*
G04 Rotation:  0*
G04 FullContactRelief:  No*
G04 UndefLineWidth:     0.1016*
G04 ================== end FILE IDENTIFICATION RECORD ====================*
%FSLAX35Y35*MOMM*%
%IR0*IPPOS*OFA0.00000B0.00000*MIA0B0*SFA1.00000B1.00000*%
%AMMACRO11*
1,1,.1016,.25,.25*
20,1,.1016,.25,.25,.25,-.25,0.0*
1,1,.1016,.25,-.25*
20,1,.1016,.25,-.25,-.25,-.25,0.0*
1,1,.1016,-.25,-.25*
20,1,.1016,-.25,-.25,-.25,.25,0.0*
1,1,.1016,-.25,.25*
20,1,.1016,-.25,.25,.25,.25,0.0*
1,1,.1016,.25,.25*
%
%ADD11MACRO11*%
%AMMACRO10*
1,1,.1016,.127,0.0*
20,1,.1016,.127,0.0,-.127,0.0,0.0*
1,1,.1016,-.127,0.0*
1,1,.1016,0.0,.127*
20,1,.1016,0.0,.127,0.0,-.127,0.0*
1,1,.1016,0.0,-.127*
%
%ADD10MACRO10*%
%ADD12C,.127*%
%ADD13C,.1016*%
G75*
%LPD*%
G75*
G54D10*
X419050Y219050D03*
X617220Y482600D03*
X219050Y419050D03*
Y219050D03*
X406400Y398780D03*
X819050Y1819050D03*
X619050D03*
X419050D03*
X819050Y1619050D03*
X650240Y1633220D03*
X490220Y1582420D03*
X219050Y1819050D03*
X147320Y1945640D03*
X619050Y1219050D03*
X419050D03*
X619050Y1019050D03*
Y819050D03*
X429260Y1432560D03*
X642620Y1503680D03*
X711200Y1422400D03*
X916940Y640080D03*
X439420Y889000D03*
X505460Y787400D03*
X474980Y1496060D03*
X219050Y1219050D03*
X198120Y599440D03*
X332740Y1356360D03*
X327660Y1115060D03*
X612140Y916940D03*
X966560Y960120D03*
X439420Y2291080D03*
X863600Y2095500D03*
X856490Y2302870D03*
X673100Y2242820D03*
X586740Y2166620D03*
X116840Y2181860D03*
X1196340Y596900D03*
X2418080Y485140D03*
X1400000Y586740D03*
X2000000Y596900D03*
X2115820Y574040D03*
X2184400D03*
X1000760Y576580D03*
X2174240Y830580D03*
X2049780Y701040D03*
X1699260Y855980D03*
X1219200Y1318260D03*
X1099820Y695960D03*
X1254760Y911860D03*
X1529080Y942340D03*
X1019050Y2019050D03*
X1275080Y1734820D03*
X1399540Y1270000D03*
X2219050Y2019050D03*
X2419050Y1819050D03*
X2019050D03*
X2125980Y1668780D03*
X2275840Y1811020D03*
X1539240Y1656080D03*
X1653540Y1531620D03*
X1419860Y1828800D03*
X1224280Y2024380D03*
X1905000Y1671320D03*
X2219050Y1419050D03*
Y1219050D03*
X2019050D03*
X2419050Y1019050D03*
Y819050D03*
Y619050D03*
X2161540Y942340D03*
X2019300Y1363980D03*
X1191260Y1562100D03*
X1819050Y1219050D03*
X2004060Y949960D03*
X1673860Y942340D03*
X1524000Y1379220D03*
X1638300Y1196340D03*
X1701800Y601980D03*
X1915160Y1465580D03*
X1746720Y965200D03*
X1815300D03*
X1050060Y898120D03*
X1338580Y899160D03*
X1056640Y767080D03*
X1205680Y974540D03*
X1257300Y1155700D03*
X2446020Y2181860D03*
X2291080Y2298700D03*
X2056490Y2302870D03*
X1856490D03*
X2344420Y2123440D03*
X1656490Y2302870D03*
X1456490D03*
X1256490D03*
X1056490D03*
X2103120Y2159000D03*
X1187910Y2181610D03*
X1060450Y4790680D03*
X3019050Y419050D03*
X2819050D03*
X3019050Y219050D03*
X2819050D03*
X3019050Y1819050D03*
X2619050D03*
X3019050Y1619050D03*
X2956560Y1760220D03*
X3075940Y1960880D03*
X2898140Y1663700D03*
X2819050Y1219050D03*
X3019050Y819050D03*
Y619050D03*
X2819050D03*
X2603500Y1028700D03*
X2616200Y1231900D03*
X2781300Y1099820D03*
X2956560Y662940D03*
X2875280Y1455420D03*
X3081020Y1216660D03*
X3068320Y1508760D03*
X3136900Y1432560D03*
X3088640Y1064260D03*
X3093720Y904240D03*
X2928620Y901700D03*
X3019050Y2219050D03*
X2819050D03*
X2681990Y2306070D03*
X2481990D03*
G54D11*
X965200Y231140D03*
X1455420Y1176020D03*
X1060450Y4155680D03*
X2687320Y612140D03*
X2514600Y1582420D03*
G54D12*
G01X300000Y0D02*
X2900000D01*
G03X3200000Y300000I0J300000D01*
G01Y2100000D01*
G03X2900000Y2400000I-300000J0D01*
G01X300000D01*
G03X0Y2100000I0J-300000D01*
G01Y300000D01*
G03X300000Y0I300000J0D01*
G54D13*
G01X-254000D02*
X-1176020D01*
G01X-922020Y862970D02*
Y0D01*
G01X-985520Y381000D02*
X-922020Y0D01*
X-858520Y381000D01*
X-985520D01*
G01X-1626750Y1365670D02*
X-1603120Y1397420D01*
X-1575560Y1413300D01*
X-1544060Y1418590D01*
X-1504700Y1408010D01*
X-1477130Y1381550D01*
X-1469260Y1349800D01*
X-1473200Y1318040D01*
X-1488950Y1291590D01*
X-1567690Y1238670D01*
X-1603120Y1201630D01*
X-1626750Y1148700D01*
X-1634620Y1101090D01*
X-1469260D01*
G01X-1189740D02*
Y1418590D01*
X-1335410Y1191050D01*
X-1138550D01*
G01X-922020Y1090510D02*
X-929900Y1095800D01*
Y1106380D01*
X-922020Y1111670D01*
X-914140Y1106380D01*
Y1095800D01*
X-922020Y1090510D01*
G01X-607060Y1418590D02*
X-638560Y1408010D01*
X-662180Y1381550D01*
X-677930Y1349800D01*
X-689740Y1307460D01*
X-693670Y1259840D01*
X-689740Y1212210D01*
X-677930Y1169880D01*
X-662180Y1138120D01*
X-638560Y1111670D01*
X-607060Y1101090D01*
X-575570Y1111670D01*
X-551940Y1138120D01*
X-536190Y1169880D01*
X-524380Y1212210D01*
X-520450Y1259840D01*
X-524380Y1307460D01*
X-536190Y1349800D01*
X-551940Y1381550D01*
X-575570Y1408010D01*
X-607060Y1418590D01*
G01X-292100D02*
X-323600Y1408010D01*
X-347220Y1381550D01*
X-362970Y1349800D01*
X-374780Y1307460D01*
X-378710Y1259840D01*
X-374780Y1212210D01*
X-362970Y1169880D01*
X-347220Y1138120D01*
X-323600Y1111670D01*
X-292100Y1101090D01*
X-260610Y1111670D01*
X-236980Y1138120D01*
X-221230Y1169880D01*
X-209420Y1212210D01*
X-205490Y1259840D01*
X-209420Y1307460D01*
X-221230Y1349800D01*
X-236980Y1381550D01*
X-260610Y1408010D01*
X-292100Y1418590D01*
G01X-922020Y1656710D02*
Y2400000D01*
G01X-858520Y2019000D02*
X-922020Y2400000D01*
X-985520Y2019000D01*
X-858520D01*
G01X-254000Y2400000D02*
X-1176020D01*
G01X876050Y2973070D02*
X899660Y2936020D01*
X931160Y2914860D01*
X966600Y2909570D01*
X998100Y2914860D01*
X1029590Y2941310D01*
X1049270Y2973070D01*
X1053210Y3004820D01*
X1045340Y3041850D01*
X1017780Y3068320D01*
X990220Y3078910D01*
X954780D01*
G01X990220D02*
X1013840Y3094780D01*
X1033530Y3121230D01*
X1041400Y3152980D01*
X1033530Y3184740D01*
X1013840Y3211190D01*
X978410Y3227070D01*
X942980Y3221780D01*
X907540Y3200610D01*
G01X1202810Y3174150D02*
X1226440Y3205900D01*
X1254000Y3221780D01*
X1285500Y3227070D01*
X1324860Y3216490D01*
X1352430Y3190030D01*
X1360300Y3158280D01*
X1356360Y3126520D01*
X1340610Y3100070D01*
X1261870Y3047150D01*
X1226440Y3010110D01*
X1202810Y2957180D01*
X1194940Y2909570D01*
X1360300D01*
G01X1592580Y2898990D02*
X1584700Y2904280D01*
Y2914860D01*
X1592580Y2920150D01*
X1600460Y2914860D01*
Y2904280D01*
X1592580Y2898990D01*
G01X1907540Y3227070D02*
X1876040Y3216490D01*
X1852420Y3190030D01*
X1836670Y3158280D01*
X1824860Y3115940D01*
X1820930Y3068320D01*
X1824860Y3020690D01*
X1836670Y2978360D01*
X1852420Y2946600D01*
X1876040Y2920150D01*
X1907540Y2909570D01*
X1939030Y2920150D01*
X1962660Y2946600D01*
X1978410Y2978360D01*
X1990220Y3020690D01*
X1994150Y3068320D01*
X1990220Y3115940D01*
X1978410Y3158280D01*
X1962660Y3190030D01*
X1939030Y3216490D01*
X1907540Y3227070D01*
G01X2222500D02*
X2191000Y3216490D01*
X2167380Y3190030D01*
X2151630Y3158280D01*
X2139820Y3115940D01*
X2135890Y3068320D01*
X2139820Y3020690D01*
X2151630Y2978360D01*
X2167380Y2946600D01*
X2191000Y2920150D01*
X2222500Y2909570D01*
X2253990Y2920150D01*
X2277620Y2946600D01*
X2293370Y2978360D01*
X2305180Y3020690D01*
X2309110Y3068320D01*
X2305180Y3115940D01*
X2293370Y3158280D01*
X2277620Y3190030D01*
X2253990Y3216490D01*
X2222500Y3227070D01*
G01X0Y2654000D02*
Y3322320D01*
G01X606430Y3068320D02*
X0D01*
G01X381000Y3131820D02*
X0Y3068320D01*
X381000Y3004820D01*
Y3131820D01*
G01X-81280Y3838180D02*
Y7028180D01*
X12202160D01*
Y3838180D01*
X-81280D01*
G01Y4473180D02*
X12202160D01*
G01X198240Y5266930D02*
Y5584430D01*
X347860D01*
G01X292730Y5430980D02*
X198240D01*
G01X540770Y5584430D02*
X635250D01*
G01X588010D02*
Y5266930D01*
G01X540770D02*
X635250D01*
G01X926590Y5425680D02*
X1005340D01*
Y5330430D01*
X981710Y5298670D01*
X954150Y5277510D01*
X914780Y5266930D01*
X875410Y5277510D01*
X847850Y5298670D01*
X824230Y5330430D01*
X808480Y5367470D01*
X800600Y5409800D01*
Y5446850D01*
X808480Y5478590D01*
X824230Y5515640D01*
X847850Y5547390D01*
X871470Y5568550D01*
X902970Y5584430D01*
X930530D01*
X962020Y5573850D01*
X985650Y5552680D01*
G01X1131320Y5584430D02*
Y5356890D01*
X1147060Y5309250D01*
X1178560Y5277510D01*
X1217930Y5266930D01*
X1257300Y5277510D01*
X1288800Y5309250D01*
X1304540Y5356890D01*
Y5584430D01*
G01X1454150Y5266930D02*
Y5584430D01*
X1552570D01*
X1584070Y5568550D01*
X1603760Y5547390D01*
X1611630Y5505050D01*
X1603760Y5462720D01*
X1580130Y5436270D01*
X1552570Y5420380D01*
X1454150D01*
G01X1552570D02*
X1611630Y5266930D01*
G01X1926590D02*
X1769110D01*
Y5584430D01*
X1926590D01*
G01X1863600Y5430980D02*
X1769110D01*
G01X-81280Y6378180D02*
X12202160D01*
G01X-81280Y5743180D02*
X12202160D01*
G01X-81280Y5108180D02*
X12202160D01*
G01X2202180Y5743180D02*
Y3838180D01*
G01X2036830Y6551930D02*
Y6869430D01*
X2115560D01*
X2147060Y6853550D01*
X2170680Y6832390D01*
X2190370Y6800640D01*
X2206120Y6763590D01*
X2210050Y6710680D01*
X2206120Y6657760D01*
X2190370Y6620720D01*
X2170680Y6588960D01*
X2147060Y6567800D01*
X2115560Y6551930D01*
X2036830D01*
G01X2359660D02*
Y6869430D01*
X2458080D01*
X2489580Y6853550D01*
X2509270Y6832390D01*
X2517140Y6790050D01*
X2509270Y6747720D01*
X2485640Y6721270D01*
X2458080Y6705380D01*
X2359660D01*
G01X2458080D02*
X2517140Y6551930D01*
G01X2706120Y6869430D02*
X2800600D01*
G01X2753360D02*
Y6551930D01*
G01X2706120D02*
X2800600D01*
G01X2989580Y6869430D02*
Y6551930D01*
X3147060D01*
G01X3304540Y6869430D02*
Y6551930D01*
X3462020D01*
G01X4099810Y6842970D02*
X4076190Y6858850D01*
X4048640Y6869430D01*
X4017140D01*
X3981700Y6853550D01*
X3954150Y6827100D01*
X3934460Y6795340D01*
X3918710Y6742430D01*
X3914770Y6694800D01*
X3922650Y6647180D01*
X3934460Y6615430D01*
X3958080Y6583670D01*
X3985640Y6562510D01*
X4013200Y6551930D01*
X4040760D01*
X4068320Y6562510D01*
X4091940Y6578380D01*
X4111630Y6599540D01*
G01X4245480Y6551930D02*
Y6869430D01*
G01X4410840D02*
Y6551930D01*
G01Y6710680D02*
X4245480D01*
G01X4544690Y6551930D02*
X4643120Y6869430D01*
X4741550Y6551930D01*
G01X4706110Y6663050D02*
X4580120D01*
G01X4879340Y6551930D02*
Y6869430D01*
X4977760D01*
X5009260Y6853550D01*
X5028950Y6832390D01*
X5036820Y6790050D01*
X5028950Y6747720D01*
X5005320Y6721270D01*
X4977760Y6705380D01*
X4879340D01*
G01X4977760D02*
X5036820Y6551930D01*
G01X5273040Y6869430D02*
Y6551930D01*
G01X5182490Y6869430D02*
X5363590D01*
G01X5588000Y6541350D02*
X5580120Y6546640D01*
Y6557220D01*
X5588000Y6562510D01*
X5595880Y6557220D01*
Y6546640D01*
X5588000Y6541350D01*
G01Y6684210D02*
X5580120Y6689510D01*
Y6700090D01*
X5588000Y6705380D01*
X5595880Y6700090D01*
Y6689510D01*
X5588000Y6684210D01*
G01X6217920Y6869430D02*
Y6551930D01*
G01X6127370Y6869430D02*
X6308470D01*
G01X6532880Y6551930D02*
X6501380Y6557220D01*
X6473830Y6578380D01*
X6450200Y6610140D01*
X6434450Y6647180D01*
X6426580Y6689510D01*
Y6731850D01*
X6434450Y6774180D01*
X6450200Y6811220D01*
X6473830Y6842970D01*
X6501380Y6864140D01*
X6532880Y6869430D01*
X6564370Y6864140D01*
X6591930Y6842970D01*
X6615560Y6811220D01*
X6631310Y6774180D01*
X6639180Y6731850D01*
Y6689510D01*
X6631310Y6647180D01*
X6615560Y6610140D01*
X6591930Y6578380D01*
X6564370Y6557220D01*
X6532880Y6551930D01*
G01X6769100D02*
Y6869430D01*
X6863590D01*
X6895080Y6853550D01*
X6918710Y6816510D01*
X6926580Y6774180D01*
X6918710Y6731850D01*
X6899020Y6700090D01*
X6863590Y6684210D01*
X6769100D01*
G01X7477760Y6869430D02*
Y6551930D01*
G01X7422640Y6763590D02*
X7532880D01*
G01X7792720Y6551930D02*
X7769100Y6557220D01*
X7745480Y6578380D01*
X7729720Y6615430D01*
X7721850Y6657760D01*
X7729720Y6700090D01*
X7745480Y6737140D01*
X7769100Y6758300D01*
X7792720Y6763590D01*
X7816340Y6758300D01*
X7839960Y6737140D01*
X7855710Y6700090D01*
X7859650Y6657760D01*
X7855710Y6615430D01*
X7839960Y6578380D01*
X7816340Y6557220D01*
X7792720Y6551930D01*
G01X8454130Y6721270D02*
X8469880Y6737140D01*
X8481690Y6763590D01*
X8489570Y6800640D01*
X8481690Y6832390D01*
X8465950Y6853550D01*
X8438390Y6869430D01*
X8332090D01*
Y6551930D01*
X8462010D01*
X8489570Y6573090D01*
X8505320Y6604850D01*
X8513190Y6641890D01*
X8505320Y6678920D01*
X8481690Y6710680D01*
X8454130Y6721270D01*
X8332090D01*
G01X8737600Y6551930D02*
X8706100Y6557220D01*
X8678550Y6578380D01*
X8654920Y6610140D01*
X8639170Y6647180D01*
X8631300Y6689510D01*
Y6731850D01*
X8639170Y6774180D01*
X8654920Y6811220D01*
X8678550Y6842970D01*
X8706100Y6864140D01*
X8737600Y6869430D01*
X8769090Y6864140D01*
X8796650Y6842970D01*
X8820280Y6811220D01*
X8836030Y6774180D01*
X8843900Y6731850D01*
Y6689510D01*
X8836030Y6647180D01*
X8820280Y6610140D01*
X8796650Y6578380D01*
X8769090Y6557220D01*
X8737600Y6551930D01*
G01X9052560Y6869430D02*
Y6551930D01*
G01X8962010Y6869430D02*
X9143110D01*
G01X9367520D02*
Y6551930D01*
G01X9276970Y6869430D02*
X9458070D01*
G01X9682480Y6551930D02*
X9650980Y6557220D01*
X9623430Y6578380D01*
X9599800Y6610140D01*
X9584050Y6647180D01*
X9576180Y6689510D01*
Y6731850D01*
X9584050Y6774180D01*
X9599800Y6811220D01*
X9623430Y6842970D01*
X9650980Y6864140D01*
X9682480Y6869430D01*
X9713970Y6864140D01*
X9741530Y6842970D01*
X9765160Y6811220D01*
X9780910Y6774180D01*
X9788780Y6731850D01*
Y6689510D01*
X9780910Y6647180D01*
X9765160Y6610140D01*
X9741530Y6578380D01*
X9713970Y6557220D01*
X9682480Y6551930D01*
G01X9895070D02*
Y6869430D01*
X9997440Y6604850D01*
X10099810Y6869430D01*
Y6551930D01*
G01X1710050Y5901930D02*
X1808480Y6219430D01*
X1906910Y5901930D01*
G01X1871470Y6013050D02*
X1745480D01*
G01X2044700Y6219430D02*
Y5901930D01*
X2202180D01*
G01X2359660Y6219430D02*
Y5901930D01*
X2517140D01*
G01X2981710Y6219430D02*
Y5991890D01*
X2997450Y5944250D01*
X3028950Y5912510D01*
X3068320Y5901930D01*
X3107690Y5912510D01*
X3139190Y5944250D01*
X3154930Y5991890D01*
Y6219430D01*
G01X3292730Y5901930D02*
Y6219430D01*
X3473830Y5901930D01*
Y6219430D01*
G01X3651000D02*
X3745480D01*
G01X3698240D02*
Y5901930D01*
G01X3651000D02*
X3745480D01*
G01X4013200Y6219430D02*
Y5901930D01*
G01X3922650Y6219430D02*
X4103750D01*
G01X4245480Y5944250D02*
X4276980Y5917800D01*
X4312410Y5901930D01*
X4343910D01*
X4375400Y5917800D01*
X4399030Y5944250D01*
X4410840Y5981310D01*
X4402970Y6018340D01*
X4383280Y6050090D01*
X4347840Y6071270D01*
X4300600Y6081850D01*
X4273040Y6103010D01*
X4261230Y6140050D01*
X4269110Y6177100D01*
X4288790Y6203550D01*
X4316350Y6219430D01*
X4343910D01*
X4371470Y6208850D01*
X4395090Y6182390D01*
G01X4859650Y5901930D02*
X4958080Y6219430D01*
X5056510Y5901930D01*
G01X5021070Y6013050D02*
X4895080D01*
G01X5194300Y5901930D02*
Y6219430D01*
X5292720D01*
X5324220Y6203550D01*
X5343910Y6182390D01*
X5351780Y6140050D01*
X5343910Y6097720D01*
X5320280Y6071270D01*
X5292720Y6055380D01*
X5194300D01*
G01X5292720D02*
X5351780Y5901930D01*
G01X5666740D02*
X5509260D01*
Y6219430D01*
X5666740D01*
G01X5603750Y6065980D02*
X5509260D01*
G01X6170680Y6219430D02*
X6265160D01*
G01X6217920D02*
Y5901930D01*
G01X6170680D02*
X6265160D01*
G01X6442330D02*
Y6219430D01*
X6623430Y5901930D01*
Y6219430D01*
G01X7060430Y5901930D02*
Y6219430D01*
X7162800Y5954850D01*
X7265170Y6219430D01*
Y5901930D01*
G01X7430520Y6219430D02*
X7525000D01*
G01X7477760D02*
Y5901930D01*
G01X7430520D02*
X7525000D01*
G01X7713980Y6219430D02*
Y5901930D01*
X7871460D01*
G01X8028940Y6219430D02*
Y5901930D01*
X8186420D01*
G01X8375400Y6219430D02*
X8469880D01*
G01X8422640D02*
Y5901930D01*
G01X8375400D02*
X8469880D01*
G01X8635230D02*
Y6219430D01*
X8737600Y5954850D01*
X8839970Y6219430D01*
Y5901930D01*
G01X9131300D02*
X8973820D01*
Y6219430D01*
X9131300D01*
G01X9068310Y6065980D02*
X8973820D01*
G01X9367520Y6219430D02*
Y5901930D01*
G01X9276970Y6219430D02*
X9458070D01*
G01X9761220Y5901930D02*
X9603740D01*
Y6219430D01*
X9761220D01*
G01X9698230Y6065980D02*
X9603740D01*
G01X9918700Y5901930D02*
Y6219430D01*
X10017120D01*
X10048620Y6203550D01*
X10068310Y6182390D01*
X10076180Y6140050D01*
X10068310Y6097720D01*
X10044680Y6071270D01*
X10017120Y6055380D01*
X9918700D01*
G01X10017120D02*
X10076180Y5901930D01*
G01X10229720Y5944250D02*
X10261220Y5917800D01*
X10296650Y5901930D01*
X10328150D01*
X10359640Y5917800D01*
X10383270Y5944250D01*
X10395080Y5981310D01*
X10387210Y6018340D01*
X10367520Y6050090D01*
X10332080Y6071270D01*
X10284840Y6081850D01*
X10257280Y6103010D01*
X10245470Y6140050D01*
X10253350Y6177100D01*
X10273030Y6203550D01*
X10300590Y6219430D01*
X10328150D01*
X10355710Y6208850D01*
X10379330Y6182390D01*
G01X3200000Y2654000D02*
Y3322320D01*
G01X2578730Y3068320D02*
X3200000D01*
G01X2819000Y3004820D02*
X3200000Y3068320D01*
X2819000Y3131820D01*
Y3004820D01*
G01X3973830Y4949430D02*
X3942330Y4938850D01*
X3918710Y4912390D01*
X3902960Y4880640D01*
X3891150Y4838300D01*
X3887220Y4790680D01*
X3891150Y4743050D01*
X3902960Y4700720D01*
X3918710Y4668960D01*
X3942330Y4642510D01*
X3973830Y4631930D01*
X4005320Y4642510D01*
X4028950Y4668960D01*
X4044700Y4700720D01*
X4056510Y4743050D01*
X4060440Y4790680D01*
X4056510Y4838300D01*
X4044700Y4880640D01*
X4028950Y4912390D01*
X4005320Y4938850D01*
X3973830Y4949430D01*
G01X4288790Y4621350D02*
X4280910Y4626640D01*
Y4637220D01*
X4288790Y4642510D01*
X4296670Y4637220D01*
Y4626640D01*
X4288790Y4621350D01*
G01X4528940Y4896510D02*
X4552570Y4928260D01*
X4580130Y4944140D01*
X4611630Y4949430D01*
X4650990Y4938850D01*
X4678560Y4912390D01*
X4686430Y4880640D01*
X4682490Y4848880D01*
X4666740Y4822430D01*
X4588000Y4769510D01*
X4552570Y4732470D01*
X4528940Y4679540D01*
X4521070Y4631930D01*
X4686430D01*
G01X4832100Y4679540D02*
X4855710Y4653090D01*
X4883270Y4637220D01*
X4918710Y4631930D01*
X4954150Y4642510D01*
X4981700Y4663670D01*
X5001390Y4700720D01*
X5005320Y4743050D01*
X4997450Y4785380D01*
X4977760Y4811850D01*
X4950200Y4833010D01*
X4922650Y4838300D01*
X4895090Y4833010D01*
X4859660Y4811850D01*
X4871470Y4949430D01*
X4977760D01*
G01X5280910Y4631930D02*
Y4949430D01*
X5135240Y4721890D01*
X5332100D01*
G01X4288790Y4314430D02*
X4257290Y4303850D01*
X4233670Y4277390D01*
X4217920Y4245640D01*
X4206110Y4203300D01*
X4202180Y4155680D01*
X4206110Y4108050D01*
X4217920Y4065720D01*
X4233670Y4033960D01*
X4257290Y4007510D01*
X4288790Y3996930D01*
X4320280Y4007510D01*
X4343910Y4033960D01*
X4359660Y4065720D01*
X4371470Y4108050D01*
X4375400Y4155680D01*
X4371470Y4203300D01*
X4359660Y4245640D01*
X4343910Y4277390D01*
X4320280Y4303850D01*
X4288790Y4314430D01*
G01X4603750Y3986350D02*
X4595870Y3991640D01*
Y4002220D01*
X4603750Y4007510D01*
X4611630Y4002220D01*
Y3991640D01*
X4603750Y3986350D01*
G01X4832100Y4044540D02*
X4855710Y4018090D01*
X4883270Y4002220D01*
X4918710Y3996930D01*
X4954150Y4007510D01*
X4981700Y4028670D01*
X5001390Y4065720D01*
X5005320Y4108050D01*
X4997450Y4150380D01*
X4977760Y4176850D01*
X4950200Y4198010D01*
X4922650Y4203300D01*
X4895090Y4198010D01*
X4859660Y4176850D01*
X4871470Y4314430D01*
X4977760D01*
G01X4048630Y5309250D02*
X4080130Y5282800D01*
X4115560Y5266930D01*
X4147060D01*
X4178550Y5282800D01*
X4202180Y5309250D01*
X4213990Y5346310D01*
X4206120Y5383340D01*
X4186430Y5415090D01*
X4150990Y5436270D01*
X4103750Y5446850D01*
X4076190Y5468010D01*
X4064380Y5505050D01*
X4072260Y5542100D01*
X4091940Y5568550D01*
X4119500Y5584430D01*
X4147060D01*
X4174620Y5573850D01*
X4198240Y5547390D01*
G01X4399030Y5584430D02*
X4493510D01*
G01X4446270D02*
Y5266930D01*
G01X4399030D02*
X4493510D01*
G01X4686420Y5584430D02*
X4836040D01*
X4686420Y5266930D01*
X4836040D01*
G01X5154930D02*
X4997450D01*
Y5584430D01*
X5154930D01*
G01X5091940Y5430980D02*
X4997450D01*
G01X7753350Y4631930D02*
Y4949430D01*
X7847840D01*
X7879330Y4933550D01*
X7902960Y4896510D01*
X7910830Y4854180D01*
X7902960Y4811850D01*
X7883270Y4780090D01*
X7847840Y4764210D01*
X7753350D01*
G01X8068310Y4949430D02*
Y4631930D01*
X8225790D01*
G01X8363580D02*
X8462010Y4949430D01*
X8560440Y4631930D01*
G01X8525000Y4743050D02*
X8399010D01*
G01X8776970Y4949430D02*
Y4631930D01*
G01X8686420Y4949430D02*
X8867520D01*
G01X9170670Y4631930D02*
X9013190D01*
Y4949430D01*
X9170670D01*
G01X9107680Y4795980D02*
X9013190D01*
G01X9320280Y4631930D02*
Y4949430D01*
X9399010D01*
X9430510Y4933550D01*
X9454130Y4912390D01*
X9473820Y4880640D01*
X9489570Y4843590D01*
X9493500Y4790680D01*
X9489570Y4737760D01*
X9473820Y4700720D01*
X9454130Y4668960D01*
X9430510Y4647800D01*
X9399010Y4631930D01*
X9320280D01*
G01X7753350Y3996930D02*
Y4314430D01*
X7847840D01*
X7879330Y4298550D01*
X7902960Y4261510D01*
X7910830Y4219180D01*
X7902960Y4176850D01*
X7883270Y4145090D01*
X7847840Y4129210D01*
X7753350D01*
G01X8068310Y4314430D02*
Y3996930D01*
X8225790D01*
G01X8363580D02*
X8462010Y4314430D01*
X8560440Y3996930D01*
G01X8525000Y4108050D02*
X8399010D01*
G01X8776970Y4314430D02*
Y3996930D01*
G01X8686420Y4314430D02*
X8867520D01*
G01X9170670Y3996930D02*
X9013190D01*
Y4314430D01*
X9170670D01*
G01X9107680Y4160980D02*
X9013190D01*
G01X9320280Y3996930D02*
Y4314430D01*
X9399010D01*
X9430510Y4298550D01*
X9454130Y4277390D01*
X9473820Y4245640D01*
X9489570Y4208590D01*
X9493500Y4155680D01*
X9489570Y4102760D01*
X9473820Y4065720D01*
X9454130Y4033960D01*
X9430510Y4012800D01*
X9399010Y3996930D01*
X9320280D01*
G01X7005320Y5743180D02*
Y3838180D01*
G01X7753350Y5266930D02*
Y5584430D01*
X7847840D01*
X7879330Y5568550D01*
X7902960Y5531510D01*
X7910830Y5489180D01*
X7902960Y5446850D01*
X7883270Y5415090D01*
X7847840Y5399210D01*
X7753350D01*
G01X8068310Y5584430D02*
Y5266930D01*
X8225790D01*
G01X8363580D02*
X8462010Y5584430D01*
X8560440Y5266930D01*
G01X8525000Y5378050D02*
X8399010D01*
G01X8776970Y5584430D02*
Y5266930D01*
G01X8686420Y5584430D02*
X8867520D01*
G01X9170670Y5266930D02*
X9013190D01*
Y5584430D01*
X9170670D01*
G01X9107680Y5430980D02*
X9013190D01*
G01X9320280Y5266930D02*
Y5584430D01*
X9399010D01*
X9430510Y5568550D01*
X9454130Y5547390D01*
X9473820Y5515640D01*
X9489570Y5478590D01*
X9493500Y5425680D01*
X9489570Y5372760D01*
X9473820Y5335720D01*
X9454130Y5303960D01*
X9430510Y5282800D01*
X9399010Y5266930D01*
X9320280D01*
G01X10902950Y4631930D02*
Y4949430D01*
X10855710Y4885930D01*
G01Y4631930D02*
X10950190D01*
G01X11143100Y4896510D02*
X11166730Y4928260D01*
X11194290Y4944140D01*
X11225790Y4949430D01*
X11265150Y4938850D01*
X11292720Y4912390D01*
X11300590Y4880640D01*
X11296650Y4848880D01*
X11280900Y4822430D01*
X11202160Y4769510D01*
X11166730Y4732470D01*
X11143100Y4679540D01*
X11135230Y4631930D01*
X11300590D01*
G01X11458060Y4764210D02*
X11485630Y4801270D01*
X11509250Y4822430D01*
X11540750Y4833010D01*
X11568310Y4822430D01*
X11587990Y4801270D01*
X11603740Y4769510D01*
X11607680Y4732470D01*
X11603740Y4700720D01*
X11587990Y4668960D01*
X11564360Y4642510D01*
X11536810Y4631930D01*
X11505310Y4642510D01*
X11477750Y4674250D01*
X11462000Y4721890D01*
X11458060Y4774800D01*
X11465940Y4843590D01*
X11477750Y4880640D01*
X11497430Y4917680D01*
X11524990Y4944140D01*
X11552550Y4949430D01*
X11580110Y4938850D01*
X11599800Y4912390D01*
G01X11265150Y3996930D02*
Y4314430D01*
X11119480Y4086890D01*
X11316340D01*
G01X10233660Y5743180D02*
Y3838180D01*
G01X10902950Y5266930D02*
X10871450Y5272220D01*
X10843900Y5293380D01*
X10820270Y5325140D01*
X10804520Y5362180D01*
X10796650Y5404510D01*
Y5446850D01*
X10804520Y5489180D01*
X10820270Y5526220D01*
X10843900Y5557970D01*
X10871450Y5579140D01*
X10902950Y5584430D01*
X10934440Y5579140D01*
X10962000Y5557970D01*
X10985630Y5526220D01*
X11001380Y5489180D01*
X11009250Y5446850D01*
Y5404510D01*
X11001380Y5362180D01*
X10985630Y5325140D01*
X10962000Y5293380D01*
X10934440Y5272220D01*
X10902950Y5266930D01*
G01X10934440Y5351600D02*
X10981690Y5266930D01*
G01X11217910Y5584430D02*
Y5266930D01*
G01X11127360Y5584430D02*
X11308460D01*
G01X11532870Y5266930D02*
Y5409800D01*
X11454130Y5584430D01*
G01X11611610D02*
X11532870Y5409800D01*
M02*
