G04 ================== begin FILE IDENTIFICATION RECORD ==================*
G04 Layout Name:  PCB_ESP32-P4_FUNCTION_EV_BOARD_MIPI_Sub_V1.1_20240529.brd*
G04 Film Name:    L1_TOP*
G04 File Format:  Gerber RS274X*
G04 File Origin:  Cadence Allegro 16.6-2015-S108*
G04 Origin Date:  Thu May 30 15:24:29 2024*
G04 *
G04 Layer:  VIA CLASS/TOP*
G04 Layer:  PIN/TOP*
G04 Layer:  ETCH/TOP*
G04 Layer:  BOARD GEOMETRY/OUTLINE*
G04 *
G04 Offset:    (0.0000 0.0000)*
G04 Mirror:    No*
G04 Mode:      Positive*
G04 Rotation:  0*
G04 FullContactRelief:  No*
G04 UndefLineWidth:     0.0000*
G04 ================== end FILE IDENTIFICATION RECORD ====================*
%FSLAX35Y35*MOMM*%
%IR0*IPPOS*OFA0.00000B0.00000*MIA0B0*SFA1.00000B1.00000*%
%ADD16O,.5X1.*%
%ADD20R,.3X1.25*%
%ADD11R,.6X1.8*%
%ADD17R,.65X1.05*%
%ADD12C,.508*%
%ADD13C,.762*%
%ADD14R,.508X.508*%
%ADD21R,1.1X1.*%
%ADD18R,2.X2.5*%
%ADD10R,2.6X3.*%
%ADD19R,.7X.4*%
%ADD15R,.8128X.9144*%
%ADD22C,.3*%
%ADD23C,.127*%
%ADD24C,.254*%
%ADD25C,.635*%
%ADD26C,.1778*%
%ADD28O,.856X1.356*%
%ADD27R,1.006X1.406*%
G75*
%LPD*%
G75*
G36*
G01X300000Y20010D02*
G02X20010Y300000I0J279990D01*
G01Y2100000D01*
G02X300000Y2379990I279990J0D01*
G01X2900000D01*
G02X3179990Y2100000I0J-279990D01*
G01Y300000D01*
G02X2900000Y20010I-279990J0D01*
G01X300000D01*
G37*
%LPC*%
G75*
G36*
G01X2125150Y875820D02*
X1896130Y646800D01*
Y558480D01*
X1947800D01*
Y342880D01*
X1752200D01*
Y558480D01*
X1807190D01*
Y683650D01*
X2036210Y912670D01*
Y982420D01*
X2022880D01*
Y1143020D01*
X2238480D01*
Y982420D01*
X2125150D01*
Y875820D01*
G37*
G36*
G01X1674760Y727690D02*
X1595020Y647950D01*
Y558480D01*
X1647800D01*
Y342880D01*
X1452200D01*
Y558480D01*
X1506080D01*
Y684800D01*
X1637910Y816630D01*
X1754750D01*
X1885930Y947810D01*
Y982420D01*
X1872880D01*
Y1143020D01*
X1988480D01*
Y982420D01*
X1974870D01*
Y910960D01*
X1791600Y727690D01*
X1674760D01*
G37*
G36*
G01X1703540Y966660D02*
G03X1688310Y982420I-15229J522D01*
G01X1622880D01*
Y1143020D01*
X1838480D01*
Y1005970D01*
X1841990Y1002460D01*
Y999340D01*
X1844470Y997070D01*
G02X1786150Y933320I-29160J-31875D01*
G03X1775870I-5140J-5628D01*
G02X1703540Y966660I-29154J31881D01*
G37*
G36*
G01X2732990Y1293800D02*
G02X2647390I-42800J-30D01*
G02X2640640Y1318770I42810J24970D01*
G01Y1371070D01*
X2630150Y1381560D01*
Y1422200D01*
X2579350Y1473000D01*
Y1518900D01*
X2559030D01*
Y1532870D01*
X2540540D01*
X2538960Y1532110D01*
G02Y1632730I-24360J50310D01*
G01X2540540Y1631970D01*
X2559030D01*
Y1645940D01*
X2618810D01*
X2712700Y1739830D01*
Y1874540D01*
X2725400D01*
Y1901850D01*
X2682150D01*
Y2037450D01*
X2682160D01*
Y2187460D01*
X2827760D01*
Y2143810D01*
X2856040D01*
X2886550Y2113300D01*
X3032780D01*
Y2026900D01*
X2938800D01*
Y1925300D01*
X2852400D01*
Y1944350D01*
X2827750D01*
Y1901850D01*
X2786400D01*
Y1874540D01*
X2799100D01*
Y1696700D01*
X2755830D01*
X2675910Y1616780D01*
Y1594050D01*
X2678450Y1591510D01*
Y1514040D01*
X2706570Y1485920D01*
X2722900D01*
Y1467060D01*
X2723750Y1465420D01*
G02X2729250Y1442720I-44052J-22690D01*
G01Y1422600D01*
X2739740Y1412110D01*
Y1318770D01*
G02X2732990Y1293800I-49560J0D01*
G37*
G36*
G01X2956540Y862730D02*
X2947330D01*
X2945880Y862100D01*
G02X2887870Y916040I-17260J39601D01*
G03X2875250Y936240I-14377J5060D01*
G02X2837390Y978750I4936J42510D01*
G01Y1028750D01*
G02X2921620Y1039510I42802J0D01*
G01X2923100Y1033800D01*
X2956540D01*
Y1046500D01*
X2969240D01*
Y1064240D01*
X2956540D01*
Y1150640D01*
X3042940D01*
Y1064240D01*
X3030240D01*
Y1046500D01*
X3042940D01*
Y858500D01*
X2956540D01*
Y862730D01*
G37*
G36*
G01X2247800Y558480D02*
Y342880D01*
X2052200D01*
Y558480D01*
X2057380D01*
G03X2072620Y573800I1J15239D01*
G02X2144970Y605920I43199J239D01*
G03X2155250I5140J5628D01*
G02X2227600Y573800I29151J-31881D01*
G03X2242840Y558480I15239J-81D01*
G01X2247800D01*
G37*
G36*
G01X2736870Y693400D02*
Y638080D01*
X2737630Y636500D01*
G02X2637010I-50310J-24360D01*
G01X2637770Y638080D01*
Y693400D01*
X2630150D01*
Y820440D01*
X2639040D01*
Y905710D01*
X2640310Y906980D01*
Y1023940D01*
X2647370Y1031000D01*
X2647670Y1033640D01*
G02X2732990Y1028720I42520J-4889D01*
G02X2739450Y998430I-42802J-24962D01*
G01X2739410Y998030D01*
Y886460D01*
G02X2738310Y876070I-49551J-7D01*
G01X2738140Y875280D01*
Y820440D01*
X2747030D01*
Y693400D01*
X2736870D01*
G37*
G36*
G01X284750Y1323370D02*
G02X278000Y1298400I-49560J0D01*
G02X192400I-42800J-30D01*
G02X185650Y1323370I42810J24970D01*
G01Y1428000D01*
X185450Y1428860D01*
G02X184130Y1440180I48226J11361D01*
G01Y1518900D01*
X173970D01*
Y1645940D01*
X182860D01*
Y1703270D01*
X258880Y1779290D01*
X929840D01*
X1131590Y1577540D01*
Y1155080D01*
X1138480Y1148190D01*
Y982420D01*
X1022880D01*
Y1145470D01*
X1032490Y1155080D01*
Y1536500D01*
X888800Y1680190D01*
X299920D01*
X281960Y1662230D01*
Y1645940D01*
X290850D01*
Y1518900D01*
X283230D01*
Y1460700D01*
X284750Y1459180D01*
Y1323370D01*
G37*
G36*
G01X1436350Y942500D02*
X1396430Y982420D01*
X1322880D01*
Y1143020D01*
X1326040D01*
G03X1337000Y1168850I-2J15241D01*
G01X1319510Y1186340D01*
Y1501300D01*
X804070Y2016740D01*
X632440D01*
Y2035790D01*
X490060D01*
X361970Y1907700D01*
Y1888980D01*
X356820Y1883830D01*
Y1797380D01*
X256220D01*
Y1937980D01*
X323950D01*
X470060Y2084090D01*
X632440D01*
Y2103140D01*
X734040D01*
Y2204740D01*
X820440D01*
Y2185690D01*
X1008220D01*
X1479570Y1714340D01*
Y1226430D01*
G02X1488480Y1130940I-24150J-50414D01*
G01Y982420D01*
X1478040D01*
X1474140Y973010D01*
X1484650Y962500D01*
Y711360D01*
X1341180Y567880D01*
X1347800Y551880D01*
Y342880D01*
X949550D01*
Y315160D01*
X979500Y285210D01*
X981330Y284660D01*
G02X913290Y210400I-16130J-53521D01*
G01X912710Y211860D01*
X850450Y274120D01*
Y501880D01*
X794820Y557510D01*
X322390D01*
X185400Y694500D01*
Y701020D01*
X176510D01*
Y828060D01*
X185400D01*
Y913330D01*
X186670Y914600D01*
Y998300D01*
X186530Y999010D01*
G02X192400Y1033320I48667J9331D01*
G02X277720Y1038240I42800J31D01*
G01X278020Y1035600D01*
X285770Y1027850D01*
Y894070D01*
G02X284670Y883690I-49551J3D01*
G01X284500Y882900D01*
Y828060D01*
X293390D01*
Y726650D01*
X363430Y656610D01*
X835860D01*
X933990Y558480D01*
X942390D01*
G03X957610Y574470I-1J15239D01*
G02X1043910I43150J2110D01*
G03X1059130Y558480I15221J-751D01*
G01X1075670D01*
Y597060D01*
X942410Y730320D01*
X913760D01*
Y789920D01*
X728960D01*
Y888980D01*
X645070D01*
G02X599200Y875720I-32934J27958D01*
G01X598080Y876070D01*
X581680D01*
Y873740D01*
X502900D01*
Y977850D01*
X468050D01*
X466530Y972210D01*
G02X382400Y983350I-41327J11140D01*
G01Y1033350D01*
G02X466530Y1044490I42803J0D01*
G01X468050Y1038850D01*
X502900D01*
Y1160800D01*
X589300D01*
Y974880D01*
G03X606520Y959770I15241J2D01*
G02X639970Y949980I5622J-42831D01*
G01X728960D01*
Y962680D01*
X922990D01*
X924240Y968770D01*
G02X1009250Y953500I42323J-8650D01*
G03X1024310Y935920I15059J-2340D01*
G01X1029070D01*
X1030680Y936730D01*
G02X1069440I19380J-38610D01*
G01X1071050Y935920D01*
X1152130D01*
G03X1166090Y957260I-7J15241D01*
G02X1172880Y1002650I39591J17280D01*
G01Y1143020D01*
X1198920D01*
G03X1214140Y1157590I-5J15239D01*
G02X1288480Y1125800I43159J-1890D01*
G01Y982420D01*
X1248880D01*
Y974740D01*
G02X1204880Y931350I-43199J-198D01*
G03X1189360Y916110I-279J-15238D01*
G01Y876320D01*
X1280640D01*
G03X1295750Y893540I-2J15241D01*
G02X1379800Y886220I42833J5619D01*
G01X1379450Y885110D01*
Y868700D01*
X1381780D01*
Y703560D01*
X1193780D01*
Y730320D01*
X1079420D01*
X1077690Y729350D01*
G02X1035590I-21050J37730D01*
G01X1033860Y730320D01*
X1024020D01*
X1020120Y720910D01*
X1123970Y617060D01*
Y558480D01*
X1275850D01*
Y570860D01*
X1436350Y731360D01*
Y942500D01*
G37*
G36*
G01X2336640Y1946890D02*
X1579830Y1190080D01*
Y1143020D01*
X1588480D01*
Y982420D01*
X1522880D01*
Y1143020D01*
X1531530D01*
Y1210080D01*
X2316640Y1995190D01*
X2387580D01*
Y2014240D01*
X2473980D01*
Y1995190D01*
X2502170D01*
Y2037450D01*
X2647770D01*
Y1901850D01*
X2502170D01*
Y1946890D01*
X2473980D01*
Y1927840D01*
X2387580D01*
Y1946890D01*
X2336640D01*
G37*
G54D28*
X425200Y1323370D03*
X2880190Y1318770D03*
G54D27*
X306520Y2282680D03*
X521520Y1867680D03*
%LPD*%
G75*
G36*
G01X1404430Y1198930D02*
G02X1379750Y1194400I-13902J6245D01*
G01X1367810Y1206340D01*
Y1521300D01*
X820440Y2068670D01*
Y2137390D01*
X988220D01*
X1431270Y1694340D01*
Y1226430D01*
G03X1404430Y1198930I24146J-50415D01*
G37*
G54D10*
X665000Y233680D03*
X2535000Y237980D03*
G54D11*
X900000Y450680D03*
X2300000D03*
X2200000D03*
X2100000D03*
X2000000D03*
X1900000D03*
X1800000D03*
X1700000D03*
X1600000D03*
X1500000D03*
X1400000D03*
X1300000D03*
X1200000D03*
X1100000D03*
X1000000D03*
G54D20*
X2205680Y1062720D03*
X2105680D03*
X2005680D03*
X1905680D03*
X1805680D03*
X1705680D03*
X1605680D03*
X1505680D03*
X1405680D03*
X1305680D03*
X1205680D03*
X1105680D03*
X2155680D03*
X2055680D03*
X1955680D03*
X1855680D03*
X1755680D03*
X1655680D03*
X1555680D03*
X1455680D03*
X1355680D03*
X1255680D03*
X1155680D03*
X1055680D03*
G54D21*
X2574970Y1969650D03*
X2754950D03*
X2754960Y2119660D03*
X2574970Y2119670D03*
G54D12*
X419050Y219050D03*
X617220Y482600D03*
X219050Y419050D03*
Y219050D03*
X406400Y398780D03*
X819050Y1819050D03*
X619050D03*
X419050D03*
X819050Y1619050D03*
X650240Y1633220D03*
X490220Y1582420D03*
X219050Y1819050D03*
X147320Y1945640D03*
X619050Y1219050D03*
X419050D03*
X619050Y1019050D03*
Y819050D03*
X429260Y1432560D03*
X642620Y1503680D03*
X711200Y1422400D03*
X916940Y640080D03*
X439420Y889000D03*
X505460Y787400D03*
X474980Y1496060D03*
X219050Y1219050D03*
X198120Y599440D03*
X332740Y1356360D03*
X327660Y1115060D03*
X612140Y916940D03*
X966560Y960120D03*
X439420Y2291080D03*
X863600Y2095500D03*
X856490Y2302870D03*
X673100Y2242820D03*
X586740Y2166620D03*
X116840Y2181860D03*
X1196340Y596900D03*
X2418080Y485140D03*
X1400000Y586740D03*
X2000000Y596900D03*
X2115820Y574040D03*
X2184400D03*
X1000760Y576580D03*
X2174240Y830580D03*
X2049780Y701040D03*
X1699260Y855980D03*
X1219200Y1318260D03*
X1099820Y695960D03*
X1254760Y911860D03*
X1529080Y942340D03*
X1019050Y2019050D03*
X1275080Y1734820D03*
X1399540Y1270000D03*
X2219050Y2019050D03*
X2419050Y1819050D03*
X2019050D03*
X2125980Y1668780D03*
X2275840Y1811020D03*
X1539240Y1656080D03*
X1653540Y1531620D03*
X1419860Y1828800D03*
X1224280Y2024380D03*
X1905000Y1671320D03*
X2219050Y1419050D03*
Y1219050D03*
X2019050D03*
X2419050Y1019050D03*
Y819050D03*
Y619050D03*
X2161540Y942340D03*
X2019300Y1363980D03*
X1191260Y1562100D03*
X1819050Y1219050D03*
X2004060Y949960D03*
X1673860Y942340D03*
X1524000Y1379220D03*
X1638300Y1196340D03*
X1701800Y601980D03*
X1915160Y1465580D03*
X1746720Y965200D03*
X1815300D03*
X1050060Y898120D03*
X1338580Y899160D03*
X1056640Y767080D03*
X1205680Y974540D03*
X1257300Y1155700D03*
X2446020Y2181860D03*
X2291080Y2298700D03*
X2056490Y2302870D03*
X1856490D03*
X2344420Y2123440D03*
X1656490Y2302870D03*
X1456490D03*
X1256490D03*
X1056490D03*
X2103120Y2159000D03*
X1187910Y2181610D03*
X3019050Y419050D03*
X2819050D03*
X3019050Y219050D03*
X2819050D03*
X3019050Y1819050D03*
X2619050D03*
X3019050Y1619050D03*
X2956560Y1760220D03*
X3075940Y1960880D03*
X2898140Y1663700D03*
X2819050Y1219050D03*
X3019050Y819050D03*
Y619050D03*
X2819050D03*
X2603500Y1028700D03*
X2616200Y1231900D03*
X2781300Y1099820D03*
X2956560Y662940D03*
X2875280Y1455420D03*
X3081020Y1216660D03*
X3068320Y1508760D03*
X3136900Y1432560D03*
X3088640Y1064260D03*
X3093720Y904240D03*
X2928620Y901700D03*
X3019050Y2219050D03*
X2819050D03*
X2681990Y2306070D03*
X2481990D03*
G54D22*
G01X1105680Y1062720D02*
Y1134600D01*
X1082040Y1158240D01*
G01D02*
X1055680Y1131880D01*
Y1062720D01*
G01X1455420Y1176020D02*
Y1062980D01*
X1455680Y1062720D01*
G54D13*
X965200Y231140D03*
X1455420Y1176020D03*
X2687320Y612140D03*
X2514600Y1582420D03*
G54D23*
G01X300000Y0D02*
X2900000D01*
G03X3200000Y300000I0J300000D01*
G01Y2100000D01*
G03X2900000Y2400000I-300000J0D01*
G01X300000D01*
G03X0Y2100000I0J-300000D01*
G01Y300000D01*
G03X300000Y0I300000J0D01*
G01X490220Y1582420D02*
X397510D01*
G01X1100000Y450680D02*
X1099820Y450860D01*
Y607060D01*
X966560Y740320D01*
Y768120D01*
G01X1405680Y1062720D02*
Y1134320D01*
X1343660Y1196340D01*
Y1511300D01*
X795020Y2059940D01*
X777240D01*
G01D02*
X675640D01*
G01D02*
X480060D01*
X337820Y1917700D01*
Y1898980D01*
X306520Y1867680D01*
G01X966560Y898120D02*
X895120D01*
X873760Y919480D01*
G01X966560Y833120D02*
X873760D01*
G01X1455420Y1176020D02*
Y1704340D01*
X998220Y2161540D01*
X777240D01*
G01X2000000Y596900D02*
Y450680D01*
G01X1400000Y586740D02*
Y450680D01*
G01X1000760Y576580D02*
Y451440D01*
X1000000Y450680D01*
G01X1405680Y1062720D02*
Y1007320D01*
X1460500Y952500D01*
Y721360D01*
X1300000Y560860D01*
Y450680D01*
G01X1136560Y898120D02*
X1050060D01*
G01X2430780Y1971040D02*
X2573580D01*
X2574970Y1969650D01*
G01X2430780Y1971040D02*
X2326640D01*
X1555680Y1200080D01*
Y1062720D01*
G01X1236980Y833120D02*
X1136560D01*
G01Y768120D02*
X1215620D01*
X1236980Y746760D01*
G01X1056640Y767080D02*
X1135520D01*
X1136560Y768120D01*
G01X1205680Y1062720D02*
Y974540D01*
G01X1257300Y1155700D02*
Y1064340D01*
X1255680Y1062720D01*
G01X966560Y898120D02*
Y960120D01*
G01X2754960Y2119660D02*
X2846040D01*
X2895600Y2070100D01*
G01Y1968500D02*
X2756100D01*
X2755900Y1968700D01*
G01X2895600Y2070100D02*
X2989580D01*
G54D14*
X777240Y2059940D03*
X546100Y916940D03*
Y1018540D03*
X772160Y833120D03*
X873760D03*
Y919480D03*
X772160D03*
X335280Y1440180D03*
X233680D03*
X675640Y2059940D03*
X337820Y894080D03*
X236220D03*
X546100Y1219200D03*
Y1117600D03*
X777240Y2161540D03*
X675640D03*
X1236980Y833120D03*
X1338580D03*
X1236980Y746760D03*
X1338580D03*
X2430780Y2072640D03*
Y1971040D03*
X2999740Y901700D03*
Y1003300D03*
X2895600Y1968500D03*
Y2070100D03*
X2791460Y886460D03*
X2689860D03*
X2857500Y1739900D03*
X2755900D03*
X2857500Y1831340D03*
X2755900D03*
X2989580Y1968500D03*
Y2070100D03*
X2999740Y1209040D03*
Y1107440D03*
X2781300Y1442720D03*
X2679700D03*
G54D24*
G01X612140Y916940D02*
X546100D01*
G01X772160Y919480D02*
X614680D01*
X612140Y916940D01*
G01X772160Y919480D02*
Y833120D01*
G01X546100Y1117600D02*
Y1018540D01*
G01X425200Y1008350D02*
X535910D01*
X546100Y1018540D01*
G01X1338580Y833120D02*
Y746760D01*
G01Y899160D02*
Y833120D01*
G01X2999740Y901700D02*
X2928620D01*
G01X2755900Y1831340D02*
Y1968700D01*
G01Y1739900D02*
Y1831340D01*
G01X2617470Y1582420D02*
Y1601470D01*
X2755900Y1739900D01*
G01Y1968700D02*
X2754950Y1969650D01*
G01X2999740Y1003300D02*
Y1107440D01*
G01Y1003300D02*
X2880640D01*
X2880190Y1003750D01*
G54D15*
X232410Y1582420D03*
X397510D03*
X234950Y764540D03*
X400050D03*
X2617470Y1582420D03*
X2782570D03*
X2688590Y756920D03*
X2853690D03*
G54D25*
G01X234950Y764540D02*
Y715020D01*
X342910Y607060D01*
X815340D01*
X900000Y522400D01*
Y450680D01*
G01X965200Y231140D02*
X963500D01*
X900000Y294640D01*
Y450680D01*
G01X234950Y764540D02*
Y892810D01*
X236220Y894080D01*
G01D02*
Y1007330D01*
X235200Y1008350D01*
G01X232410Y1582420D02*
Y1682750D01*
X279400Y1729740D01*
X909320D01*
X1082040Y1557020D01*
Y1158240D01*
G01X233680Y1440180D02*
Y1581150D01*
X232410Y1582420D01*
G01X235200Y1323370D02*
Y1438660D01*
X233680Y1440180D01*
G01X2687320Y612140D02*
Y755650D01*
X2688590Y756920D01*
G01D02*
Y885190D01*
X2689860Y886460D01*
G01D02*
Y1003420D01*
X2690190Y1003750D01*
G01X2514600Y1582420D02*
X2617470D01*
G01X2679700Y1442720D02*
Y1402080D01*
X2690190Y1391590D01*
Y1318770D01*
G01X2617470Y1582420D02*
X2628900Y1570990D01*
Y1493520D01*
X2679700Y1442720D01*
G54D16*
X235200Y1008350D03*
X330200D03*
X425200D03*
Y1323370D03*
X235200D03*
X2690190Y1003750D03*
X2785190D03*
X2880190D03*
Y1318770D03*
X2690190D03*
G54D26*
G01X1800000Y450680D02*
Y512230D01*
X1833880Y546110D01*
Y672590D01*
X2062900Y901610D01*
Y1005410D01*
X2055680Y1012630D01*
Y1062720D01*
G01X1900000Y450680D02*
Y515550D01*
X1869440Y546110D01*
Y657860D01*
X2098460Y886880D01*
Y1006250D01*
X2105680Y1013470D01*
Y1062720D01*
G01X1600000Y450680D02*
Y513270D01*
X1568330Y544940D01*
Y659010D01*
X1663700Y754380D01*
X1780540D01*
X1948180Y922020D01*
Y998210D01*
X1955680Y1005710D01*
Y1062720D01*
G01X1500000Y450680D02*
Y511950D01*
X1532770Y544720D01*
Y673740D01*
X1648970Y789940D01*
X1765810D01*
X1912620Y936750D01*
Y998220D01*
X1905680Y1005160D01*
Y1062720D01*
G01X2115820Y574040D02*
X2100000Y558220D01*
Y450680D01*
G01X2184400Y574040D02*
X2200000Y558440D01*
Y450680D01*
G01X1746720Y965200D02*
Y993140D01*
X1755680Y1002100D01*
Y1062720D01*
G01X1815300Y965200D02*
Y991400D01*
X1805680Y1001020D01*
Y1062720D01*
G54D17*
X306520Y1867680D03*
X521520D03*
Y2282680D03*
X306520D03*
G54D18*
X886680Y1320220D03*
X2374680D03*
G54D19*
X966560Y768120D03*
Y833120D03*
Y898120D03*
X1136560D03*
Y833120D03*
Y768120D03*
M02*
