G04 ================== begin FILE IDENTIFICATION RECORD ==================*
G04 Layout Name:  PCB_ESP32-P4_FUNCTION_EV_BOARD_MIPI_Sub_V1.1_20240529.brd*
G04 Film Name:    L2_GND*
G04 File Format:  Gerber RS274X*
G04 File Origin:  Cadence Allegro 16.6-2015-S108*
G04 Origin Date:  Thu May 30 15:24:29 2024*
G04 *
G04 Layer:  VIA CLASS/GND*
G04 Layer:  PIN/GND*
G04 Layer:  ETCH/GND*
G04 Layer:  BOARD GEOMETRY/OUTLINE*
G04 *
G04 Offset:    (0.0000 0.0000)*
G04 Mirror:    No*
G04 Mode:      Positive*
G04 Rotation:  0*
G04 FullContactRelief:  No*
G04 UndefLineWidth:     0.0000*
G04 ================== end FILE IDENTIFICATION RECORD ====================*
%FSLAX35Y35*MOMM*%
%IR0*IPPOS*OFA0.00000B0.00000*MIA0B0*SFA1.00000B1.00000*%
%ADD10C,.508*%
%ADD11C,.762*%
%ADD12C,.127*%
%ADD14C,.864*%
%ADD13C,1.118*%
G75*
%LPD*%
G75*
G36*
G01X20010Y2100000D02*
G02X300000Y2379990I279990J0D01*
G01X2900000D01*
G02X3179990Y2100000I0J-279990D01*
G01Y300000D01*
G02X2900000Y20010I-279990J0D01*
G01X300000D01*
G02X20010Y300000I0J279990D01*
G01Y2100000D01*
G37*
%LPC*%
G75*
G36*
G01X2155250Y542160D02*
G03X2144970I-5140J-5628D01*
G02Y605920I-29150J31880D01*
G03X2155250I5140J5628D01*
G02Y542160I29150J-31880D01*
G37*
G36*
G01X1786150Y933320D02*
G03X1775870I-5140J-5628D01*
G02Y997080I-29150J31880D01*
G03X1786150I5140J5628D01*
G02Y933320I29150J-31880D01*
G37*
G54D14*
X1338580Y899160D03*
X1205680Y974540D03*
X1000760Y576580D03*
X1257300Y1155700D03*
X612140Y916940D03*
X2928620Y901700D03*
X1050060Y898120D03*
X966560Y960120D03*
X1056640Y767080D03*
G54D13*
X1455420Y1176020D03*
X965200Y231140D03*
X2687320Y612140D03*
X2514600Y1582420D03*
%LPD*%
G75*
G54D10*
X419050Y219050D03*
X617220Y482600D03*
X219050Y419050D03*
Y219050D03*
X406400Y398780D03*
X819050Y1819050D03*
X619050D03*
X419050D03*
X819050Y1619050D03*
X650240Y1633220D03*
X490220Y1582420D03*
X219050Y1819050D03*
X147320Y1945640D03*
X619050Y1219050D03*
X419050D03*
X619050Y1019050D03*
Y819050D03*
X429260Y1432560D03*
X642620Y1503680D03*
X711200Y1422400D03*
X916940Y640080D03*
X439420Y889000D03*
X505460Y787400D03*
X474980Y1496060D03*
X219050Y1219050D03*
X198120Y599440D03*
X332740Y1356360D03*
X327660Y1115060D03*
X612140Y916940D03*
X966560Y960120D03*
X439420Y2291080D03*
X863600Y2095500D03*
X856490Y2302870D03*
X673100Y2242820D03*
X586740Y2166620D03*
X116840Y2181860D03*
X1196340Y596900D03*
X2418080Y485140D03*
X1400000Y586740D03*
X2000000Y596900D03*
X2115820Y574040D03*
X2184400D03*
X1000760Y576580D03*
X2174240Y830580D03*
X2049780Y701040D03*
X1699260Y855980D03*
X1219200Y1318260D03*
X1099820Y695960D03*
X1254760Y911860D03*
X1529080Y942340D03*
X1019050Y2019050D03*
X1275080Y1734820D03*
X1399540Y1270000D03*
X2219050Y2019050D03*
X2419050Y1819050D03*
X2019050D03*
X2125980Y1668780D03*
X2275840Y1811020D03*
X1539240Y1656080D03*
X1653540Y1531620D03*
X1419860Y1828800D03*
X1224280Y2024380D03*
X1905000Y1671320D03*
X2219050Y1419050D03*
Y1219050D03*
X2019050D03*
X2419050Y1019050D03*
Y819050D03*
Y619050D03*
X2161540Y942340D03*
X2019300Y1363980D03*
X1191260Y1562100D03*
X1819050Y1219050D03*
X2004060Y949960D03*
X1673860Y942340D03*
X1524000Y1379220D03*
X1638300Y1196340D03*
X1701800Y601980D03*
X1915160Y1465580D03*
X1746720Y965200D03*
X1815300D03*
X1050060Y898120D03*
X1338580Y899160D03*
X1056640Y767080D03*
X1205680Y974540D03*
X1257300Y1155700D03*
X2446020Y2181860D03*
X2291080Y2298700D03*
X2056490Y2302870D03*
X1856490D03*
X2344420Y2123440D03*
X1656490Y2302870D03*
X1456490D03*
X1256490D03*
X1056490D03*
X2103120Y2159000D03*
X1187910Y2181610D03*
X3019050Y419050D03*
X2819050D03*
X3019050Y219050D03*
X2819050D03*
X3019050Y1819050D03*
X2619050D03*
X3019050Y1619050D03*
X2956560Y1760220D03*
X3075940Y1960880D03*
X2898140Y1663700D03*
X2819050Y1219050D03*
X3019050Y819050D03*
Y619050D03*
X2819050D03*
X2603500Y1028700D03*
X2616200Y1231900D03*
X2781300Y1099820D03*
X2956560Y662940D03*
X2875280Y1455420D03*
X3081020Y1216660D03*
X3068320Y1508760D03*
X3136900Y1432560D03*
X3088640Y1064260D03*
X3093720Y904240D03*
X2928620Y901700D03*
X3019050Y2219050D03*
X2819050D03*
X2681990Y2306070D03*
X2481990D03*
G54D11*
X965200Y231140D03*
X1455420Y1176020D03*
X2687320Y612140D03*
X2514600Y1582420D03*
G54D12*
G01X300000Y0D02*
X2900000D01*
G03X3200000Y300000I0J300000D01*
G01Y2100000D01*
G03X2900000Y2400000I-300000J0D01*
G01X300000D01*
G03X0Y2100000I0J-300000D01*
G01Y300000D01*
G03X300000Y0I300000J0D01*
M02*
