G04 ================== begin FILE IDENTIFICATION RECORD ==================*
G04 Layout Name:  PCB_ESP32-P4_FUNCTION_EV_BOARD_MIPI_Sub_V1.1_20240529.brd*
G04 Film Name:    L4_BOTTOM*
G04 File Format:  Gerber RS274X*
G04 File Origin:  Cadence Allegro 16.6-2015-S108*
G04 Origin Date:  Thu May 30 15:24:29 2024*
G04 *
G04 Layer:  VIA CLASS/BOTTOM*
G04 Layer:  PIN/BOTTOM*
G04 Layer:  ETCH/BOTTOM*
G04 Layer:  BOARD GEOMETRY/OUTLINE*
G04 *
G04 Offset:    (0.0000 0.0000)*
G04 Mirror:    No*
G04 Mode:      Positive*
G04 Rotation:  0*
G04 FullContactRelief:  No*
G04 UndefLineWidth:     0.0000*
G04 ================== end FILE IDENTIFICATION RECORD ====================*
%FSLAX35Y35*MOMM*%
%IR0*IPPOS*OFA0.00000B0.00000*MIA0B0*SFA1.00000B1.00000*%
%ADD10C,.508*%
%ADD11C,.762*%
%ADD12C,.127*%
%ADD13C,.254*%
%ADD14C,.635*%
%ADD15C,.1778*%
G75*
%LPD*%
G75*
G36*
G01X3179990Y300000D02*
G02X2900000Y20010I-279990J0D01*
G01X300000D01*
G02X20010Y300000I0J279990D01*
G01Y2100000D01*
G02X300000Y2379990I279990J0D01*
G01X2900000D01*
G02X3179990Y2100000I0J-279990D01*
G01Y300000D01*
G37*
%LPC*%
G75*
G36*
G01X2695220Y667480D02*
X2698990Y666940D01*
X2898110Y866060D01*
Y870910D01*
X2895770Y873650D01*
G02X2959130Y871120I32851J28052D01*
G01Y853440D01*
G02X2959120Y852660I-30510J1D01*
G01Y840810D01*
X2950800Y832490D01*
G02X2949570Y831260I-22180J20950D01*
G01X2742120Y623810D01*
X2742660Y620040D01*
G02X2705670Y559340I-55339J-7898D01*
G01X2704020Y558760D01*
X2326840Y181590D01*
X991140D01*
X989560Y180830D01*
G02Y281450I-24360J50310D01*
G01X991140Y280690D01*
X2285800D01*
X2633940Y628840D01*
X2634520Y630490D01*
G02X2695220Y667480I52802J-18349D01*
G37*
G36*
G01X1229830Y938720D02*
Y906120D01*
X1099180Y775460D01*
X1099580Y771830D01*
G02X1044450Y725640I-42938J-4747D01*
G03X1024910Y711020I-4299J-14622D01*
G01Y612400D01*
G02X976610I-24150J-35820D01*
G01Y858820D01*
X1007520Y889740D01*
X1007120Y893370D01*
G02X1045310Y855180I42940J4750D01*
G01X1041680Y855580D01*
X1024910Y838820D01*
Y823140D01*
G03X1044450Y808520I15241J2D01*
G02X1061390Y810020I12206J-41439D01*
G01X1065020Y809620D01*
X1181530Y926120D01*
Y938720D01*
G02X1229830I24150J35820D01*
G37*
G36*
G01X974940Y1002660D02*
X1152140Y1179850D01*
X1221480D01*
G02Y1131550I35820J-24150D01*
G01X1172140D01*
X1009100Y968500D01*
X1009500Y964870D01*
G02X971310Y1003060I-42940J-4750D01*
G01X974940Y1002660D01*
G37*
G36*
G01X2155250Y542160D02*
G03X2144970I-5140J-5628D01*
G02X2099710Y614120I-29154J31877D01*
G01X2104490Y616040D01*
Y715260D01*
X2059750Y760000D01*
X1857050D01*
X1736540Y880510D01*
Y922890D01*
X1731590Y924740D01*
G02X1775870Y997080I15126J40463D01*
G03X1786150I5140J5628D01*
G02X1839310Y929280I29146J-31888D01*
G03X1837000Y905840I8466J-12668D01*
G01X1893900Y848940D01*
X2096600D01*
X2193430Y752110D01*
Y616630D01*
X2198550Y614860D01*
G02X2155250Y542160I-14149J-40817D01*
G37*
G36*
G01X1335870Y942270D02*
X1338740Y942460D01*
X1424920Y1028630D01*
Y1129170D01*
G02X1408570Y1145520I30500J46850D01*
G01X1399610D01*
X1320870Y1224260D01*
X962590D01*
X655440Y917100D01*
X655250Y914230D01*
G02X609430Y960050I-43110J2710D01*
G01X612300Y960240D01*
X937330Y1285260D01*
X1346130D01*
X1415580Y1215810D01*
X1420900Y1219990D01*
G02X1437070Y1228820I34510J-43976D01*
G01X1438720Y1229400D01*
X1841300Y1631970D01*
X2488660D01*
X2490240Y1632730D01*
G02Y1532110I24360J-50310D01*
G01X2488660Y1532870D01*
X1882340D01*
X1508800Y1159320D01*
X1508220Y1157670D01*
G02X1485920Y1129170I-52805J18343D01*
G01Y1003370D01*
X1381880Y899320D01*
X1381690Y896450D01*
G02X1335870Y942270I-43110J2710D01*
G37*
%LPD*%
G75*
G54D10*
X419050Y219050D03*
X617220Y482600D03*
X219050Y419050D03*
Y219050D03*
X406400Y398780D03*
X819050Y1819050D03*
X619050D03*
X419050D03*
X819050Y1619050D03*
X650240Y1633220D03*
X490220Y1582420D03*
X219050Y1819050D03*
X147320Y1945640D03*
X619050Y1219050D03*
X419050D03*
X619050Y1019050D03*
Y819050D03*
X429260Y1432560D03*
X642620Y1503680D03*
X711200Y1422400D03*
X916940Y640080D03*
X439420Y889000D03*
X505460Y787400D03*
X474980Y1496060D03*
X219050Y1219050D03*
X198120Y599440D03*
X332740Y1356360D03*
X327660Y1115060D03*
X612140Y916940D03*
X966560Y960120D03*
X439420Y2291080D03*
X863600Y2095500D03*
X856490Y2302870D03*
X673100Y2242820D03*
X586740Y2166620D03*
X116840Y2181860D03*
X1196340Y596900D03*
X2418080Y485140D03*
X1400000Y586740D03*
X2000000Y596900D03*
X2115820Y574040D03*
X2184400D03*
X1000760Y576580D03*
X2174240Y830580D03*
X2049780Y701040D03*
X1699260Y855980D03*
X1219200Y1318260D03*
X1099820Y695960D03*
X1254760Y911860D03*
X1529080Y942340D03*
X1019050Y2019050D03*
X1275080Y1734820D03*
X1399540Y1270000D03*
X2219050Y2019050D03*
X2419050Y1819050D03*
X2019050D03*
X2125980Y1668780D03*
X2275840Y1811020D03*
X1539240Y1656080D03*
X1653540Y1531620D03*
X1419860Y1828800D03*
X1224280Y2024380D03*
X1905000Y1671320D03*
X2219050Y1419050D03*
Y1219050D03*
X2019050D03*
X2419050Y1019050D03*
Y819050D03*
Y619050D03*
X2161540Y942340D03*
X2019300Y1363980D03*
X1191260Y1562100D03*
X1819050Y1219050D03*
X2004060Y949960D03*
X1673860Y942340D03*
X1524000Y1379220D03*
X1638300Y1196340D03*
X1701800Y601980D03*
X1915160Y1465580D03*
X1746720Y965200D03*
X1815300D03*
X1050060Y898120D03*
X1338580Y899160D03*
X1056640Y767080D03*
X1205680Y974540D03*
X1257300Y1155700D03*
X2446020Y2181860D03*
X2291080Y2298700D03*
X2056490Y2302870D03*
X1856490D03*
X2344420Y2123440D03*
X1656490Y2302870D03*
X1456490D03*
X1256490D03*
X1056490D03*
X2103120Y2159000D03*
X1187910Y2181610D03*
X3019050Y419050D03*
X2819050D03*
X3019050Y219050D03*
X2819050D03*
X3019050Y1819050D03*
X2619050D03*
X3019050Y1619050D03*
X2956560Y1760220D03*
X3075940Y1960880D03*
X2898140Y1663700D03*
X2819050Y1219050D03*
X3019050Y819050D03*
Y619050D03*
X2819050D03*
X2603500Y1028700D03*
X2616200Y1231900D03*
X2781300Y1099820D03*
X2956560Y662940D03*
X2875280Y1455420D03*
X3081020Y1216660D03*
X3068320Y1508760D03*
X3136900Y1432560D03*
X3088640Y1064260D03*
X3093720Y904240D03*
X2928620Y901700D03*
X3019050Y2219050D03*
X2819050D03*
X2681990Y2306070D03*
X2481990D03*
G54D11*
X965200Y231140D03*
X1455420Y1176020D03*
X2687320Y612140D03*
X2514600Y1582420D03*
G54D12*
G01X300000Y0D02*
X2900000D01*
G03X3200000Y300000I0J300000D01*
G01Y2100000D01*
G03X2900000Y2400000I-300000J0D01*
G01X300000D01*
G03X0Y2100000I0J-300000D01*
G01Y300000D01*
G03X300000Y0I300000J0D01*
G01X966560Y960120D02*
X1162140Y1155700D01*
X1257300D01*
G01X1000760Y576580D02*
Y848820D01*
X1050060Y898120D01*
G01X1056640Y767080D02*
X1205680Y916120D01*
Y974540D01*
G54D13*
G01X1455420Y1176020D02*
X1412240D01*
X1333500Y1254760D01*
X949960D01*
X612140Y916940D01*
G01X1455420Y1176020D02*
Y1016000D01*
X1338580Y899160D01*
G01X2687320Y612140D02*
X2928620Y853440D01*
Y901700D01*
G54D14*
G01X965200Y231140D02*
X2306320D01*
X2687320Y612140D01*
G01X2514600Y1582420D02*
X1861820D01*
X1455420Y1176020D01*
G54D15*
G01X1746720Y965200D02*
X1763230Y948690D01*
Y891570D01*
X1868110Y786690D01*
X2070810D01*
X2131180Y726320D01*
Y589400D01*
X2115820Y574040D01*
G01X2184400D02*
X2166740Y591700D01*
Y741050D01*
X2085540Y822250D01*
X1882840D01*
X1798790Y906300D01*
Y948690D01*
X1815300Y965200D01*
M02*
