M48
METRIC,LZ
T01C.254
T02C.5
;LEADER: 12
;HEADER:
;CODE  : ASCII
;FILE  : PCB_ESP32-P4_FUNCTION_EV_BOARD_MIPI_Sub_V1_20240529-1-4.drl for  ... layers TOP and BOTTOM
;DESIGN: PCB_ESP32-P4_FUNCTION_EV_BOARD_MIPI_Sub_V1.1_20240529.brd
;T01 Holesize 1. = 0.254000 Tolerance = +0.000000/-0.000000 PLATED MM Quantity = 126
;T02 Holesize 2. = 0.500000 Tolerance = +0.000000/-0.000000 PLATED MM Quantity = 4
%
G90
T01
X0096656Y0096012
X012573Y011557
X0120568Y0097454
X0105664Y0076708
X0061214Y0091694
X0133858Y0089916
X0292862Y009017
X0105006Y0089812
X0100076Y0057658
X021844Y0057404
X018153Y009652
X0211582Y0057404
X0174672Y009652
X0032766Y0111506
X0033274Y0135636
X004064Y0039878
X0019812Y0059944
X0021905Y0021905
Y0041905
Y0121905
X0191516Y0146558
X0047498Y0149606
X0050546Y007874
X0043942Y00889
X0091694Y0064008
X02Y005969
X017018Y0060198
X014Y0058674
X016383Y0119634
X01524Y0137922
X0061722Y004826
X007112Y014224
X0064262Y0150368
X0042926Y0143256
X0167386Y0094234
X0200406Y0094996
X0041905Y0021905
X0061905Y0081905
Y0101905
X0041905Y0121905
X0061905
X0181905
X0119126Y015621
X020193Y0136398
X0309372Y0090424
X0308864Y0106426
X031369Y0143256
X0306832Y0150876
X0308102Y0121666
X0216154Y0094234
X0287528Y0145542
X0295656Y0066294
X027813Y0109982
X026162Y012319
X026035Y010287
X0241808Y0048514
X0281905Y0021905
X0301905
X0281905Y0041905
X0301905
X0241905Y0061905
X0281905
X0301905
X0241905Y0081905
X0301905
X0241905Y0101905
X0201905Y0121905
X0221905
X0281905
X0221905Y0141905
X0011684Y0218186
X0014732Y0194564
X0021905Y0181905
X0049022Y0158242
X01905Y0167132
X0065024Y0163322
X0058674Y0216662
X0122428Y0202438
X0141986Y018288
X006731Y0224282
X0081905Y0161905
X0165354Y0153162
X0041905Y0181905
R02X002
X0153924Y0165608
X0227584Y0181102
X0118791Y0218161
X0210312Y02159
X0248199Y0230607
X0085649Y0230287
R04X002
X0212598Y0166878
X0289814Y016637
X0234442Y0212344
X0307594Y0196088
X0295656Y0176022
X0301905Y0161905
X0201905Y0181905
X0241905
X0261905
X0301905
X0268199Y0230607
X0221905Y0201905
X0185649Y0230287
X0205649
X0229108Y022987
X0244602Y0218186
X0281905Y0221905
X0301905
X0139954Y0127
X008636Y020955
X0127508Y0173482
X0101905Y0201905
X0152908Y0094234
X0125476Y0091186
X0109982Y0069596
X0119634Y005969
X012192Y0131826
X0043942Y0229108
X0169926Y0085598
X0204978Y0070104
X0217424Y0083058
T02
X0145542Y0117602
X025146Y0158242
X0268732Y0061214
X009652Y0023114
M30
