G04 ================== begin FILE IDENTIFICATION RECORD ==================*
G04 Layout Name:  PCB_ESP32-P4_FUNCTION_EV_BOARD_MIPI_Sub_V1.1_20240529.brd*
G04 Film Name:    SILK_TOP*
G04 File Format:  Gerber RS274X*
G04 File Origin:  Cadence Allegro 16.6-2015-S108*
G04 Origin Date:  Thu May 30 15:24:29 2024*
G04 *
G04 Layer:  REF DES/SILKSCREEN_TOP*
G04 Layer:  PACKAGE GEOMETRY/SILKSCREEN_TOP*
G04 Layer:  BOARD GEOMETRY/OUTLINE*
G04 Layer:  BOARD GEOMETRY/SILKSCREEN_TOP*
G04 *
G04 Offset:    (0.0000 0.0000)*
G04 Mirror:    No*
G04 Mode:      Positive*
G04 Rotation:  0*
G04 FullContactRelief:  No*
G04 UndefLineWidth:     0.1016*
G04 ================== end FILE IDENTIFICATION RECORD ====================*
%FSLAX35Y35*MOMM*%
%IR0*IPPOS*OFA0.00000B0.00000*MIA0B0*SFA1.00000B1.00000*%
%ADD10C,.1*%
%ADD11C,.2032*%
%ADD12C,.1016*%
%ADD13C,.127*%
%ADD14C,.0508*%
G75*
%LPD*%
G75*
G54D10*
G01X2774960Y2204660D02*
X2814960Y2244660D01*
X2734960D01*
X2774960Y2204660D01*
G54D11*
G01X600710Y593510D02*
X617640Y582930D01*
X636690Y576580D01*
X653630D01*
X670560Y582930D01*
X683260Y593510D01*
X689610Y608330D01*
X685380Y623140D01*
X674790Y635850D01*
X655740Y644310D01*
X630340Y648550D01*
X615530Y657010D01*
X609170Y671830D01*
X613410Y686650D01*
X623990Y697230D01*
X638810Y703580D01*
X653630D01*
X668440Y699350D01*
X681150Y688760D01*
G01X835660Y576580D02*
Y661240D01*
G01Y646430D02*
X827190Y654900D01*
X814490Y659130D01*
X799680Y661240D01*
X784860Y657010D01*
X772160Y648550D01*
X763690Y635850D01*
X759460Y618910D01*
X763690Y601980D01*
X772160Y589280D01*
X784860Y580810D01*
X799680Y576580D01*
X814490Y578700D01*
X827190Y585040D01*
X835660Y593510D01*
G01X886460Y576580D02*
Y661240D01*
G01Y637960D02*
X892810Y648550D01*
X903390Y657010D01*
X918210Y661240D01*
X933020Y657010D01*
X943610Y648550D01*
X949960Y637960D01*
Y576580D01*
G01Y637960D02*
X956310Y648550D01*
X966890Y657010D01*
X981710Y661240D01*
X996530Y657010D01*
X1007110Y648550D01*
X1013460Y635850D01*
Y576580D01*
G01X1070610Y633730D02*
X1138350D01*
X1131990Y648550D01*
X1121410Y657010D01*
X1106590Y661240D01*
X1091780Y659130D01*
X1079080Y652780D01*
X1070610Y637960D01*
X1066370Y625260D01*
Y612560D01*
X1070610Y599860D01*
X1081190Y587160D01*
X1093890Y578700D01*
X1108710Y576580D01*
X1123530Y580810D01*
X1138350Y593510D01*
G01X1227240Y618910D02*
X1282280D01*
G01X1362710Y593510D02*
X1379640Y582930D01*
X1398690Y576580D01*
X1415630D01*
X1432560Y582930D01*
X1445260Y593510D01*
X1451610Y608330D01*
X1447380Y623140D01*
X1436790Y635850D01*
X1417740Y644310D01*
X1392340Y648550D01*
X1377530Y657010D01*
X1371170Y671830D01*
X1375410Y686650D01*
X1385990Y697230D01*
X1400810Y703580D01*
X1415630D01*
X1430440Y699350D01*
X1443150Y688760D01*
G01X1559560Y661240D02*
Y576580D01*
G01Y695110D02*
X1555330Y697230D01*
Y701460D01*
X1559560Y703580D01*
X1563790Y701460D01*
Y697230D01*
X1559560Y695110D01*
G01X1750060Y703580D02*
Y576580D01*
G01Y595630D02*
X1741590Y585040D01*
X1728890Y578700D01*
X1714080Y576580D01*
X1697140Y580810D01*
X1684440Y591390D01*
X1675970Y604090D01*
X1673860Y618910D01*
X1675970Y633730D01*
X1684440Y646430D01*
X1697140Y657010D01*
X1714080Y661240D01*
X1728890Y659130D01*
X1739480Y654900D01*
X1750060Y646430D01*
G01X1832610Y633730D02*
X1900350D01*
X1893990Y648550D01*
X1883410Y657010D01*
X1868590Y661240D01*
X1853780Y659130D01*
X1841080Y652780D01*
X1832610Y637960D01*
X1828370Y625260D01*
Y612560D01*
X1832610Y599860D01*
X1843190Y587160D01*
X1855890Y578700D01*
X1870710Y576580D01*
X1885530Y580810D01*
X1900350Y593510D01*
G01X2128940Y576580D02*
Y703580D01*
X2209380D01*
G01X2179740Y642200D02*
X2128940D01*
G01X2281340Y576580D02*
Y703580D01*
X2361780D01*
G01X2332140Y642200D02*
X2281340D01*
G01X2520530Y693000D02*
X2507830Y699350D01*
X2493010Y703580D01*
X2476080D01*
X2457020Y697230D01*
X2442210Y686650D01*
X2431630Y673950D01*
X2423160Y652780D01*
X2421040Y633730D01*
X2425280Y614680D01*
X2431630Y601980D01*
X2444330Y589280D01*
X2459140Y580810D01*
X2473960Y576580D01*
X2488780D01*
X2503590Y580810D01*
X2516290Y587160D01*
X2526880Y595630D01*
G01X223520Y1867750D02*
X96520D01*
Y1920660D01*
X102870Y1937600D01*
X111340Y1948180D01*
X128270Y1952410D01*
X145200Y1948180D01*
X155790Y1935480D01*
X162140Y1920660D01*
Y1867750D01*
G01Y1920660D02*
X223520Y1952410D01*
G01X206590Y2018030D02*
X217170Y2034960D01*
X223520Y2054010D01*
Y2070950D01*
X217170Y2087880D01*
X206590Y2100580D01*
X191770Y2106930D01*
X176960Y2102700D01*
X164250Y2092110D01*
X155790Y2073060D01*
X151550Y2047660D01*
X143090Y2032850D01*
X128270Y2026490D01*
X113450Y2030730D01*
X102870Y2041310D01*
X96520Y2056130D01*
Y2070950D01*
X100750Y2085760D01*
X111340Y2098470D01*
G01X96520Y2214880D02*
X223520D01*
G01X96520Y2166200D02*
Y2263560D01*
G54D12*
G01X820090Y480680D02*
G03I-20090J0D01*
G01X276860Y1653540D02*
X190500D01*
G01D02*
X172720Y1635760D01*
G01D02*
Y1531620D01*
G01D02*
X193040Y1511300D01*
G01D02*
X276860D01*
G01X353060Y1653540D02*
X439420D01*
G01D02*
X457200Y1635760D01*
G01D02*
Y1531620D01*
G01D02*
X436880Y1511300D01*
G01D02*
X353060D01*
G01X279400Y835660D02*
X193040D01*
G01D02*
X175260Y817880D01*
G01D02*
Y713740D01*
G01D02*
X195580Y693420D01*
G01D02*
X279400D01*
G01X355600Y835660D02*
X441960D01*
G01D02*
X459740Y817880D01*
G01D02*
Y713740D01*
G01D02*
X439420Y693420D01*
G01D02*
X355600D01*
G01X203200Y1402080D02*
X259080D01*
G01X193040Y1412240D02*
X203200Y1402080D01*
G01X193040Y1468120D02*
Y1412240D01*
G01X203200Y1478280D02*
X193040Y1468120D01*
G01X259080Y1478280D02*
X203200D01*
G01X365430Y1402080D02*
X309880D01*
G01X375920Y1412570D02*
X365430Y1402080D01*
G01X375920Y1468150D02*
Y1412570D01*
G01X365760Y1478280D02*
X375920Y1468150D01*
G01X309880Y1478280D02*
X365760D01*
G01X713740Y2029460D02*
Y2085340D01*
G01X703580Y2019300D02*
X713740Y2029460D01*
G01X647700Y2019300D02*
X703580D01*
G01X637540Y2029460D02*
X647700Y2019300D01*
G01X637540Y2085340D02*
Y2029460D01*
G01X205740Y855980D02*
X261620D01*
G01X195580Y866140D02*
X205740Y855980D01*
G01X195580Y922020D02*
Y866140D01*
G01X205740Y932180D02*
X195580Y922020D01*
G01X261620Y932180D02*
X205740D01*
G01X367970Y855980D02*
X312420D01*
G01X378460Y866470D02*
X367970Y855980D01*
G01X378460Y922050D02*
Y866470D01*
G01X368300Y932180D02*
X378460Y922050D01*
G01X312420Y932180D02*
X368300D01*
G01X584200Y1087120D02*
Y1143000D01*
G01X574040Y1076960D02*
X584200Y1087120D01*
G01X518160Y1076960D02*
X574040D01*
G01X508000Y1087120D02*
X518160Y1076960D01*
G01X508000Y1143000D02*
Y1087120D01*
G01X584200Y1249350D02*
Y1193800D01*
G01X573710Y1259840D02*
X584200Y1249350D01*
G01X518130Y1259840D02*
X573710D01*
G01X508000Y1249680D02*
X518130Y1259840D01*
G01X508000Y1193800D02*
Y1249680D01*
G01X177700Y1078360D02*
X482700D01*
G01D02*
Y1253360D01*
G01D02*
X177700D01*
G01D02*
Y1078360D01*
G01X576520Y1865180D02*
Y2285180D01*
G01X251520D02*
Y1865180D01*
G01X344020D02*
X484020D01*
G01X576520D02*
X559020D01*
G01X269020D02*
X251520D01*
G01X414020Y2130180D02*
Y2020180D01*
G01X524020Y2115180D02*
Y2035180D01*
G02X304020I-110000J0D01*
G01D02*
Y2115180D01*
G02X524020I110000J0D01*
G01X713740Y2191690D02*
Y2136140D01*
G01X703250Y2202180D02*
X713740Y2191690D01*
G01X647670Y2202180D02*
X703250D01*
G01X637540Y2192020D02*
X647670Y2202180D01*
G01X637540Y2136140D02*
Y2192020D01*
G01X484020Y2285180D02*
X344020D01*
G01X576520D02*
X559020D01*
G01X269020D02*
X251520D01*
G01X469020Y2075180D02*
X359020D01*
G01X2402840Y1930400D02*
X2458720D01*
G01X2392680Y1940560D02*
X2402840Y1930400D01*
G01X2392680Y1996440D02*
Y1940560D01*
G01Y2047240D02*
Y2103120D01*
G01X2295770Y1030220D02*
G03I-20090J0D01*
G01X1013280Y918490D02*
X1025580Y930760D01*
G01X1011990Y903710D02*
X1040490Y932210D01*
G01X1012040Y894030D02*
X1050290Y932280D01*
G01X1091560Y933120D02*
X1011560D01*
G01X1091560Y733120D02*
Y933120D01*
G01X1011560Y733120D02*
X1091560D01*
G01X1011560Y933120D02*
Y733120D01*
G01X2402810Y2113280D02*
X2458390D01*
G01X2392680Y2103120D02*
X2402810Y2113280D01*
G01X2831250Y1896250D02*
X2498160D01*
G01D02*
Y2188170D01*
G01X2831250D02*
Y1896250D01*
G01X2661920Y1653540D02*
X2575560D01*
G01D02*
X2557780Y1635760D01*
G01D02*
Y1531620D01*
G01D02*
X2578100Y1511300D01*
G01D02*
X2661920D01*
G01X2738120Y1653540D02*
X2824480D01*
G01D02*
X2842260Y1635760D01*
G01D02*
Y1531620D01*
G01D02*
X2821940Y1511300D01*
G01D02*
X2738120D01*
G01X2733040Y828040D02*
X2646680D01*
G01D02*
X2628900Y810260D01*
G01D02*
Y706120D01*
G01D02*
X2649220Y685800D01*
G01D02*
X2733040D01*
G01X2809240Y828040D02*
X2895600D01*
G01D02*
X2913380Y810260D01*
G01D02*
Y706120D01*
G01D02*
X2893060Y685800D01*
G01D02*
X2809240D01*
G01X2659380Y848360D02*
X2715260D01*
G01X2649220Y858520D02*
X2659380Y848360D01*
G01X2649220Y914400D02*
Y858520D01*
G01X2659380Y924560D02*
X2649220Y914400D01*
G01X2715260Y924560D02*
X2659380D01*
G01X2821610Y848360D02*
X2766060D01*
G01X2832100Y858850D02*
X2821610Y848360D01*
G01X2832100Y914430D02*
Y858850D01*
G01X2821940Y924560D02*
X2832100Y914430D01*
G01X2766060Y924560D02*
X2821940D01*
G01X2725420Y1701800D02*
X2781300D01*
G01X2715260Y1711960D02*
X2725420Y1701800D01*
G01X2715260Y1767840D02*
Y1711960D01*
G01X2725420Y1778000D02*
X2715260Y1767840D01*
G01X2781300Y1778000D02*
X2725420D01*
G01X2887650Y1701800D02*
X2832100D01*
G01X2898140Y1712290D02*
X2887650Y1701800D01*
G01X2898140Y1767870D02*
Y1712290D01*
G01X2887980Y1778000D02*
X2898140Y1767870D01*
G01X2832100Y1778000D02*
X2887980D01*
G01X2725420Y1793240D02*
X2781300D01*
G01X2715260Y1803400D02*
X2725420Y1793240D01*
G01X2715260Y1859280D02*
Y1803400D01*
G01X2725420Y1869440D02*
X2715260Y1859280D01*
G01X2781300Y1869440D02*
X2725420D01*
G01X2887650Y1793240D02*
X2832100D01*
G01X2898140Y1803730D02*
X2887650Y1793240D01*
G01X2898140Y1859310D02*
Y1803730D01*
G01X2887980Y1869440D02*
X2898140Y1859310D01*
G01X2832100Y1869440D02*
X2887980D01*
G01X2951480Y2100580D02*
Y2044700D01*
G01X3027680D02*
Y2100580D01*
G01X2951480Y1938350D02*
Y1993900D01*
G01X2961970Y1927860D02*
X2951480Y1938350D01*
G01X3017550Y1927860D02*
X2961970D01*
G01X3027680Y1938020D02*
X3017550Y1927860D01*
G01X3027680Y1993900D02*
Y1938020D01*
G01X2468880Y1940560D02*
Y1996440D01*
G01X2458720Y1930400D02*
X2468880Y1940560D01*
G01Y2102790D02*
Y2047240D01*
G01X3037840Y1076960D02*
Y1132840D01*
G01X3027680Y1066800D02*
X3037840Y1076960D01*
G01X2971800Y1066800D02*
X3027680D01*
G01X2961640Y1076960D02*
X2971800Y1066800D01*
G01X2961640Y1132840D02*
Y1076960D01*
G01X3037840Y1239190D02*
Y1183640D01*
G01X3027350Y1249680D02*
X3037840Y1239190D01*
G01X2971770Y1249680D02*
X3027350D01*
G01X2961640Y1239520D02*
X2971770Y1249680D01*
G01X2961640Y1183640D02*
Y1239520D01*
G01X2649220Y1404620D02*
X2705100D01*
G01X2639060Y1414780D02*
X2649220Y1404620D01*
G01X2639060Y1470660D02*
Y1414780D01*
G01X2649220Y1480820D02*
X2639060Y1470660D01*
G01X2705100Y1480820D02*
X2649220D01*
G01X2811450Y1404620D02*
X2755900D01*
G01X2821940Y1415110D02*
X2811450Y1404620D01*
G01X2821940Y1470690D02*
Y1415110D01*
G01X2811780Y1480820D02*
X2821940Y1470690D01*
G01X2755900Y1480820D02*
X2811780D01*
G01X2632690Y1073760D02*
X2937690D01*
G01D02*
Y1248760D01*
G01D02*
X2632690D01*
G01D02*
Y1073760D01*
G01X2498160Y2188170D02*
X2831250D01*
G01X2961640Y2110740D02*
X2951480Y2100580D01*
G01X3017520Y2110740D02*
X2961640D01*
G01X3027680Y2100580D02*
X3017520Y2110740D01*
G01X2458390Y2113280D02*
X2468880Y2102790D01*
G54D13*
G01X300000Y0D02*
X2900000D01*
G03X3200000Y300000I0J300000D01*
G01Y2100000D01*
G03X2900000Y2400000I-300000J0D01*
G01X300000D01*
G03X0Y2100000I0J-300000D01*
G01Y300000D01*
G03X300000Y0I300000J0D01*
G01X547370Y560490D02*
X483870D01*
Y586950D01*
X487050Y595420D01*
X491280Y600710D01*
X499750Y602830D01*
X508210Y600710D01*
X513500Y594360D01*
X516680Y586950D01*
Y560490D01*
G01Y586950D02*
X547370Y602830D01*
G01Y657860D02*
X483870D01*
X496570Y645160D01*
G01X547370D02*
Y670560D01*
G01Y746760D02*
X483870D01*
X529380Y707600D01*
Y760520D01*
G01X500000Y60680D02*
X2700000D01*
Y410680D01*
X500000D01*
Y60680D01*
G01X919900Y1850810D02*
Y1914310D01*
X947420Y1861390D01*
X974940Y1914310D01*
Y1850810D01*
G01X1010920Y1914310D02*
X1036320D01*
G01X1023620D02*
Y1850810D01*
G01X1010920D02*
X1036320D01*
G01X1078650D02*
Y1914310D01*
X1104050D01*
X1112520Y1911130D01*
X1118870Y1903730D01*
X1120990Y1895260D01*
X1118870Y1886790D01*
X1113580Y1880440D01*
X1104050Y1877270D01*
X1078650D01*
G01X1163320Y1914310D02*
X1188720D01*
G01X1176020D02*
Y1850810D01*
G01X1163320D02*
X1188720D01*
G01X1220470Y1829640D02*
X1283970D01*
G01X1306190Y1859270D02*
X1314660Y1853980D01*
X1324190Y1850810D01*
X1332650D01*
X1341120Y1853980D01*
X1347470Y1859270D01*
X1350650Y1866690D01*
X1348530Y1874090D01*
X1343240Y1880440D01*
X1333710Y1884680D01*
X1321010Y1886790D01*
X1313600Y1891030D01*
X1310430Y1898430D01*
X1312550Y1905840D01*
X1317840Y1911130D01*
X1325240Y1914310D01*
X1332650D01*
X1340060Y1912190D01*
X1346410Y1906900D01*
G01X1386630Y1893140D02*
Y1863510D01*
X1390860Y1856100D01*
X1397210Y1851870D01*
X1404620Y1850810D01*
X1412030Y1851870D01*
X1418380Y1856100D01*
X1422610Y1863510D01*
G01Y1850810D02*
Y1893140D01*
G01X1461770Y1850810D02*
Y1914310D01*
G01Y1882560D02*
X1467060Y1888910D01*
X1473410Y1892080D01*
X1479760Y1893140D01*
X1489290Y1891030D01*
X1495640Y1886790D01*
X1499870Y1879380D01*
Y1870920D01*
X1497750Y1862450D01*
X1493520Y1856100D01*
X1486110Y1851870D01*
X1479760Y1850810D01*
X1473410Y1851870D01*
X1467060Y1855040D01*
X1461770Y1860330D01*
G01X1613110Y1850810D02*
Y1914310D01*
X1653330D01*
G01X1638510Y1883620D02*
X1613110D01*
G01X1709420Y1850810D02*
X1703070Y1851870D01*
X1696720Y1856100D01*
X1692490Y1863510D01*
X1690370Y1871980D01*
X1692490Y1880440D01*
X1696720Y1887850D01*
X1703070Y1892080D01*
X1709420Y1893140D01*
X1715770Y1892080D01*
X1722120Y1887850D01*
X1726350Y1880440D01*
X1727410Y1871980D01*
X1726350Y1863510D01*
X1722120Y1856100D01*
X1715770Y1851870D01*
X1709420Y1850810D01*
G01X1770800D02*
Y1893140D01*
G01Y1884680D02*
X1776090Y1888910D01*
X1781390Y1892080D01*
X1788800Y1893140D01*
X1794090Y1892080D01*
X1800440Y1888910D01*
G01X1915790Y1859270D02*
X1924260Y1853980D01*
X1933790Y1850810D01*
X1942250D01*
X1950720Y1853980D01*
X1957070Y1859270D01*
X1960250Y1866690D01*
X1958130Y1874090D01*
X1952840Y1880440D01*
X1943310Y1884680D01*
X1930610Y1886790D01*
X1923200Y1891030D01*
X1920030Y1898430D01*
X1922150Y1905840D01*
X1927440Y1911130D01*
X1934840Y1914310D01*
X1942250D01*
X1949660Y1912190D01*
X1956010Y1906900D01*
G01X2037500Y1909020D02*
X2031150Y1912190D01*
X2023750Y1914310D01*
X2015280D01*
X2005750Y1911130D01*
X1998350Y1905840D01*
X1993050Y1899490D01*
X1988820Y1888910D01*
X1987760Y1879380D01*
X1989880Y1869860D01*
X1993050Y1863510D01*
X1999400Y1857160D01*
X2006810Y1852930D01*
X2014220Y1850810D01*
X2021630D01*
X2029040Y1852930D01*
X2035390Y1856100D01*
X2040680Y1860330D01*
G01X2070310Y1903730D02*
X2076660Y1910080D01*
X2084070Y1913250D01*
X2092540Y1914310D01*
X2103120Y1912190D01*
X2110530Y1906900D01*
X2112650Y1900550D01*
X2111590Y1894200D01*
X2107350Y1888910D01*
X2086190Y1878330D01*
X2076660Y1870920D01*
X2070310Y1860330D01*
X2068190Y1850810D01*
X2112650D01*
G01X2143340Y1863510D02*
X2149690Y1856100D01*
X2158150Y1851870D01*
X2167680Y1850810D01*
X2176150Y1851870D01*
X2184610Y1857160D01*
X2189900Y1863510D01*
X2190960Y1869860D01*
X2188850Y1877270D01*
X2181440Y1882560D01*
X2174030Y1884680D01*
X2164500D01*
G01X2174030D02*
X2180380Y1887850D01*
X2185670Y1893140D01*
X2187790Y1899490D01*
X2185670Y1905840D01*
X2180380Y1911130D01*
X2170850Y1914310D01*
X2161330Y1913250D01*
X2151800Y1909020D01*
G01X2219540Y1863510D02*
X2225890Y1856100D01*
X2234350Y1851870D01*
X2243880Y1850810D01*
X2252350Y1851870D01*
X2260810Y1857160D01*
X2266100Y1863510D01*
X2267160Y1869860D01*
X2265050Y1877270D01*
X2257640Y1882560D01*
X2250230Y1884680D01*
X2240700D01*
G01X2250230D02*
X2256580Y1887850D01*
X2261870Y1893140D01*
X2263990Y1899490D01*
X2261870Y1905840D01*
X2256580Y1911130D01*
X2247050Y1914310D01*
X2237530Y1913250D01*
X2228000Y1909020D01*
G01X2298910Y1877270D02*
X2306320Y1884680D01*
X2312670Y1888910D01*
X2321140Y1891030D01*
X2328550Y1888910D01*
X2333840Y1884680D01*
X2338070Y1878330D01*
X2339130Y1870920D01*
X2338070Y1864570D01*
X2333840Y1858220D01*
X2327490Y1852930D01*
X2320080Y1850810D01*
X2311610Y1852930D01*
X2304200Y1859270D01*
X2299970Y1868800D01*
X2298910Y1879380D01*
X2301030Y1893140D01*
X2304200Y1900550D01*
X2309490Y1907960D01*
X2316900Y1913250D01*
X2324310Y1914310D01*
X2331720Y1912190D01*
X2337010Y1906900D01*
G01X806450Y1800010D02*
X742950D01*
Y1826470D01*
X746130Y1834940D01*
X750360Y1840230D01*
X758830Y1842350D01*
X767290Y1840230D01*
X772580Y1833880D01*
X775760Y1826470D01*
Y1800010D01*
G01Y1826470D02*
X806450Y1842350D01*
G01Y1897380D02*
X742950D01*
X755650Y1884680D01*
G01X806450D02*
Y1910080D01*
G01X742950Y1973580D02*
X745070Y1965110D01*
X750360Y1958760D01*
X756710Y1954530D01*
X765180Y1951350D01*
X774700Y1950300D01*
X784230Y1951350D01*
X792690Y1954530D01*
X799040Y1958760D01*
X804330Y1965110D01*
X806450Y1973580D01*
X804330Y1982050D01*
X799040Y1988400D01*
X792690Y1992630D01*
X784230Y1995810D01*
X774700Y1996860D01*
X765180Y1995810D01*
X756710Y1992630D01*
X750360Y1988400D01*
X745070Y1982050D01*
X742950Y1973580D01*
G01X730830Y717550D02*
Y781050D01*
X757290D01*
X765760Y777870D01*
X771050Y773640D01*
X773170Y765170D01*
X771050Y756710D01*
X764700Y751420D01*
X757290Y748240D01*
X730830D01*
G01X757290D02*
X773170Y717550D01*
G01X828200D02*
Y781050D01*
X815500Y768350D01*
G01Y717550D02*
X840900D01*
G01X886410Y724960D02*
X893820Y719670D01*
X902280Y717550D01*
X910750Y719670D01*
X918160Y726010D01*
X923450Y735540D01*
X925570Y745070D01*
Y756710D01*
X923450Y766230D01*
X918160Y774700D01*
X911810Y778930D01*
X904400Y781050D01*
X895930Y778930D01*
X889580Y774700D01*
X885350Y768350D01*
X883230Y759880D01*
X885350Y752480D01*
X890640Y745070D01*
X896990Y740830D01*
X904400Y739770D01*
X912870Y741890D01*
X919220Y747180D01*
X925570Y756710D01*
G01X730830Y974090D02*
Y1037590D01*
X757290D01*
X765760Y1034410D01*
X771050Y1030180D01*
X773170Y1021710D01*
X771050Y1013250D01*
X764700Y1007960D01*
X757290Y1004780D01*
X730830D01*
G01X757290D02*
X773170Y974090D01*
G01X808090Y1027010D02*
X814440Y1033360D01*
X821850Y1036530D01*
X830320Y1037590D01*
X840900Y1035470D01*
X848310Y1030180D01*
X850430Y1023830D01*
X849370Y1017480D01*
X845130Y1012190D01*
X823970Y1001610D01*
X814440Y994200D01*
X808090Y983610D01*
X805970Y974090D01*
X850430D01*
G01X881120Y986790D02*
X887470Y979380D01*
X895930Y975150D01*
X905460Y974090D01*
X913930Y975150D01*
X922390Y980440D01*
X927680Y986790D01*
X928740Y993140D01*
X926630Y1000550D01*
X919220Y1005840D01*
X911810Y1007960D01*
X902280D01*
G01X911810D02*
X918160Y1011130D01*
X923450Y1016420D01*
X925570Y1022770D01*
X923450Y1029120D01*
X918160Y1034410D01*
X908630Y1037590D01*
X899110Y1036530D01*
X889580Y1032300D01*
G01X84240Y1613960D02*
X77890Y1617130D01*
X70490Y1619250D01*
X62020D01*
X52490Y1616070D01*
X45090Y1610780D01*
X39790Y1604430D01*
X35560Y1593850D01*
X34500Y1584320D01*
X36620Y1574800D01*
X39790Y1568450D01*
X46140Y1562100D01*
X53550Y1557870D01*
X60960Y1555750D01*
X68370D01*
X75780Y1557870D01*
X82130Y1561040D01*
X87420Y1565270D01*
G01X137160Y1555750D02*
X144570Y1556810D01*
X153030Y1559980D01*
X158330Y1565270D01*
X160440Y1572680D01*
X158330Y1580090D01*
X151980Y1586440D01*
X142450Y1589620D01*
X131870D01*
X125520Y1591730D01*
X120230Y1597020D01*
X118110Y1604430D01*
X121290Y1611840D01*
X128690Y1617130D01*
X137160Y1619250D01*
X145630Y1617130D01*
X153030Y1611840D01*
X156210Y1604430D01*
X154090Y1597020D01*
X148800Y1591730D01*
X142450Y1589620D01*
X131870D01*
X122340Y1586440D01*
X115990Y1580090D01*
X113880Y1572680D01*
X115990Y1565270D01*
X121290Y1559980D01*
X129750Y1556810D01*
X137160Y1555750D01*
G01X89320Y798620D02*
X82970Y801790D01*
X75570Y803910D01*
X67100D01*
X57570Y800730D01*
X50170Y795440D01*
X44870Y789090D01*
X40640Y778510D01*
X39580Y768980D01*
X41700Y759460D01*
X44870Y753110D01*
X51220Y746760D01*
X58630Y742530D01*
X66040Y740410D01*
X73450D01*
X80860Y742530D01*
X87210Y745700D01*
X92500Y749930D01*
G01X122130Y766870D02*
X129540Y774280D01*
X135890Y778510D01*
X144360Y780630D01*
X151770Y778510D01*
X157060Y774280D01*
X161290Y767930D01*
X162350Y760520D01*
X161290Y754170D01*
X157060Y747820D01*
X150710Y742530D01*
X143300Y740410D01*
X134830Y742530D01*
X127420Y748870D01*
X123190Y758400D01*
X122130Y768980D01*
X124250Y782740D01*
X127420Y790150D01*
X132710Y797560D01*
X140120Y802850D01*
X147530Y803910D01*
X154940Y801790D01*
X160230Y796500D01*
G01X81700Y1471720D02*
X75350Y1474890D01*
X67950Y1477010D01*
X59480D01*
X49950Y1473830D01*
X42550Y1468540D01*
X37250Y1462190D01*
X33020Y1451610D01*
X31960Y1442080D01*
X34080Y1432560D01*
X37250Y1426210D01*
X43600Y1419860D01*
X51010Y1415630D01*
X58420Y1413510D01*
X65830D01*
X73240Y1415630D01*
X79590Y1418800D01*
X84880Y1423030D01*
G01X116630Y1420920D02*
X124040Y1415630D01*
X132500Y1413510D01*
X140970Y1415630D01*
X148380Y1421970D01*
X153670Y1431500D01*
X155790Y1441030D01*
Y1452670D01*
X153670Y1462190D01*
X148380Y1470660D01*
X142030Y1474890D01*
X134620Y1477010D01*
X126150Y1474890D01*
X119800Y1470660D01*
X115570Y1464310D01*
X113450Y1455840D01*
X115570Y1448440D01*
X120860Y1441030D01*
X127210Y1436790D01*
X134620Y1435730D01*
X143090Y1437850D01*
X149440Y1443140D01*
X155790Y1452670D01*
G01X649180Y1913040D02*
X646010Y1906690D01*
X643890Y1899290D01*
Y1890820D01*
X647070Y1881290D01*
X652360Y1873890D01*
X658710Y1868590D01*
X669290Y1864360D01*
X678820Y1863300D01*
X688340Y1865420D01*
X694690Y1868590D01*
X701040Y1874940D01*
X705270Y1882350D01*
X707390Y1889760D01*
Y1897170D01*
X705270Y1904580D01*
X702100Y1910930D01*
X697870Y1916220D01*
G01X694690Y1942680D02*
X702100Y1949030D01*
X706330Y1957490D01*
X707390Y1967020D01*
X706330Y1975490D01*
X701040Y1983950D01*
X694690Y1989240D01*
X688340Y1990300D01*
X680930Y1988190D01*
X675640Y1980780D01*
X673520Y1973370D01*
Y1963840D01*
G01Y1973370D02*
X670350Y1979720D01*
X665060Y1985010D01*
X658710Y1987130D01*
X652360Y1985010D01*
X647070Y1979720D01*
X643890Y1970190D01*
X644950Y1960670D01*
X649180Y1951140D01*
G01X84240Y920540D02*
X77890Y923710D01*
X70490Y925830D01*
X62020D01*
X52490Y922650D01*
X45090Y917360D01*
X39790Y911010D01*
X35560Y900430D01*
X34500Y890900D01*
X36620Y881380D01*
X39790Y875030D01*
X46140Y868680D01*
X53550Y864450D01*
X60960Y862330D01*
X68370D01*
X75780Y864450D01*
X82130Y867620D01*
X87420Y871850D01*
G01X135040Y862330D02*
X137160Y876090D01*
X140340Y887730D01*
X144570Y898310D01*
X149860Y909950D01*
X158330Y925830D01*
X115990D01*
G01X621240Y1110400D02*
X618070Y1104050D01*
X615950Y1096650D01*
Y1088180D01*
X619130Y1078650D01*
X624420Y1071250D01*
X630770Y1065950D01*
X641350Y1061720D01*
X650880Y1060660D01*
X660400Y1062780D01*
X666750Y1065950D01*
X673100Y1072300D01*
X677330Y1079710D01*
X679450Y1087120D01*
Y1094530D01*
X677330Y1101940D01*
X674160Y1108290D01*
X669930Y1113580D01*
G01X679450Y1163320D02*
X615950D01*
X628650Y1150620D01*
G01X679450D02*
Y1176020D01*
G01X669930Y1216240D02*
X675220Y1222590D01*
X678390Y1229990D01*
X679450Y1239520D01*
X677330Y1249050D01*
X673100Y1256450D01*
X665690Y1261750D01*
X657230Y1262800D01*
X648760Y1260690D01*
X643470Y1255390D01*
X639230Y1247990D01*
X638180Y1240580D01*
X639230Y1233170D01*
X643470Y1223650D01*
X615950Y1226820D01*
Y1255390D01*
G01X77470Y1119720D02*
X122980D01*
X132510Y1123950D01*
X138850Y1132420D01*
X140970Y1143000D01*
X138850Y1153580D01*
X132510Y1162050D01*
X122980Y1166280D01*
X77470D01*
G01X88050Y1199090D02*
X81700Y1205440D01*
X78530Y1212850D01*
X77470Y1221320D01*
X79590Y1231900D01*
X84880Y1239310D01*
X91230Y1241430D01*
X97580Y1240370D01*
X102870Y1236130D01*
X113450Y1214970D01*
X120860Y1205440D01*
X131450Y1199090D01*
X140970Y1196970D01*
Y1241430D01*
G01X845680Y1085220D02*
Y1175220D01*
G01Y1085220D02*
X1020680D01*
G01X1007110Y967740D02*
X1006050Y959270D01*
X1001820Y951870D01*
X995470Y945510D01*
X988060Y941280D01*
X979590Y939160D01*
X971130D01*
X962660Y941280D01*
X955250Y945510D01*
X948900Y951870D01*
X944670Y959270D01*
X943610Y967740D01*
X944670Y976210D01*
X948900Y983610D01*
X955250Y989970D01*
X962660Y994200D01*
X971130Y996320D01*
X979590D01*
X988060Y994200D01*
X995470Y989970D01*
X1001820Y983610D01*
X1006050Y976210D01*
X1007110Y967740D01*
G01X990180Y976210D02*
X1007110Y988910D01*
G01X994410Y1020660D02*
X1001820Y1027010D01*
X1006050Y1035470D01*
X1007110Y1045000D01*
X1006050Y1053470D01*
X1000760Y1061930D01*
X994410Y1067220D01*
X988060Y1068280D01*
X980650Y1066170D01*
X975360Y1058760D01*
X973240Y1051350D01*
Y1041820D01*
G01Y1051350D02*
X970070Y1057700D01*
X964780Y1062990D01*
X958430Y1065110D01*
X952080Y1062990D01*
X946790Y1057700D01*
X943610Y1048170D01*
X944670Y1038650D01*
X948900Y1029120D01*
G01X610230Y2285570D02*
X618700Y2280280D01*
X628230Y2277110D01*
X636690D01*
X645160Y2280280D01*
X651510Y2285570D01*
X654690Y2292990D01*
X652570Y2300390D01*
X647280Y2306740D01*
X637750Y2310980D01*
X625050Y2313090D01*
X617640Y2317330D01*
X614470Y2324730D01*
X616590Y2332140D01*
X621880Y2337430D01*
X629280Y2340610D01*
X636690D01*
X644100Y2338490D01*
X650450Y2333200D01*
G01X676910Y2340610D02*
X691730Y2277110D01*
X708660Y2340610D01*
X725590Y2277110D01*
X740410Y2340610D01*
G01X784860Y2277110D02*
Y2340610D01*
X772160Y2327910D01*
G01Y2277110D02*
X797560D01*
G01X2417660Y456440D02*
X2422530Y448560D01*
X2428370Y443310D01*
X2435180Y440690D01*
X2442970Y443310D01*
X2448810Y448560D01*
X2454660Y456440D01*
X2456600Y466940D01*
Y519430D01*
G01X2515870Y440690D02*
Y519430D01*
X2504190Y503680D01*
G01Y440690D02*
X2527550D01*
G01X1000970Y1975270D02*
Y2038770D01*
X1041190D01*
G01X1026370Y2008080D02*
X1000970D01*
G01X1079290Y2017600D02*
Y1987970D01*
X1083520Y1980560D01*
X1089870Y1976330D01*
X1097280Y1975270D01*
X1104690Y1976330D01*
X1111040Y1980560D01*
X1115270Y1987970D01*
G01Y1975270D02*
Y2017600D01*
G01X1155490Y1975270D02*
Y2017600D01*
G01Y2007020D02*
X1159720Y2012310D01*
X1166070Y2016540D01*
X1174540Y2017600D01*
X1181950Y2016540D01*
X1188300Y2012310D01*
X1191470Y2004900D01*
Y1975270D01*
G01X1266610Y2012310D02*
X1259210Y2016540D01*
X1252860Y2017600D01*
X1244390Y2015490D01*
X1238040Y2011250D01*
X1233810Y2003840D01*
X1232750Y1996440D01*
X1233810Y1989030D01*
X1238040Y1982680D01*
X1244390Y1977390D01*
X1252860Y1975270D01*
X1260260Y1977390D01*
X1266610Y1981620D01*
G01X1325880Y2038770D02*
Y1975270D01*
G01X1311060Y2017600D02*
X1340700D01*
G01X1402080D02*
Y1975270D01*
G01Y2034540D02*
X1399960Y2035590D01*
Y2037710D01*
X1402080Y2038770D01*
X1404200Y2037710D01*
Y2035590D01*
X1402080Y2034540D01*
G01X1478280Y1975270D02*
X1471930Y1976330D01*
X1465580Y1980560D01*
X1461350Y1987970D01*
X1459230Y1996440D01*
X1461350Y2004900D01*
X1465580Y2012310D01*
X1471930Y2016540D01*
X1478280Y2017600D01*
X1484630Y2016540D01*
X1490980Y2012310D01*
X1495210Y2004900D01*
X1496270Y1996440D01*
X1495210Y1987970D01*
X1490980Y1980560D01*
X1484630Y1976330D01*
X1478280Y1975270D01*
G01X1536490D02*
Y2017600D01*
G01Y2007020D02*
X1540720Y2012310D01*
X1547070Y2016540D01*
X1555540Y2017600D01*
X1562950Y2016540D01*
X1569300Y2012310D01*
X1572470Y2004900D01*
Y1975270D01*
G01X1598930Y1954100D02*
X1662430D01*
G01X1728050Y1975270D02*
X1685710D01*
Y2038770D01*
X1728050D01*
G01X1711110Y2008080D02*
X1685710D01*
G01X1756620Y2038770D02*
X1783080Y1975270D01*
X1809540Y2038770D01*
G01X1827530Y1954100D02*
X1891030D01*
G01X1943950Y2009140D02*
X1948180Y2012310D01*
X1951350Y2017600D01*
X1953470Y2025010D01*
X1951350Y2031360D01*
X1947120Y2035590D01*
X1939710Y2038770D01*
X1911140D01*
Y1975270D01*
X1946060D01*
X1953470Y1979500D01*
X1957710Y1985850D01*
X1959820Y1993260D01*
X1957710Y2000670D01*
X1951350Y2007020D01*
X1943950Y2009140D01*
X1911140D01*
G01X2011680Y1975270D02*
X2005330Y1976330D01*
X1998980Y1980560D01*
X1994750Y1987970D01*
X1992630Y1996440D01*
X1994750Y2004900D01*
X1998980Y2012310D01*
X2005330Y2016540D01*
X2011680Y2017600D01*
X2018030Y2016540D01*
X2024380Y2012310D01*
X2028610Y2004900D01*
X2029670Y1996440D01*
X2028610Y1987970D01*
X2024380Y1980560D01*
X2018030Y1976330D01*
X2011680Y1975270D01*
G01X2106930D02*
Y2017600D01*
G01Y2010200D02*
X2102700Y2014430D01*
X2096350Y2016540D01*
X2088940Y2017600D01*
X2081530Y2015490D01*
X2075180Y2011250D01*
X2070950Y2004900D01*
X2068830Y1996440D01*
X2070950Y1987970D01*
X2075180Y1981620D01*
X2081530Y1977390D01*
X2088940Y1975270D01*
X2096350Y1976330D01*
X2102700Y1979500D01*
X2106930Y1983730D01*
G01X2149260Y1975270D02*
Y2017600D01*
G01Y2009140D02*
X2154550Y2013370D01*
X2159850Y2016540D01*
X2167260Y2017600D01*
X2172550Y2016540D01*
X2178900Y2013370D01*
G01X2259330Y2038770D02*
Y1975270D01*
G01Y1984790D02*
X2255100Y1979500D01*
X2248750Y1976330D01*
X2241340Y1975270D01*
X2232870Y1977390D01*
X2226520Y1982680D01*
X2222290Y1989030D01*
X2221230Y1996440D01*
X2222290Y2003840D01*
X2226520Y2010200D01*
X2232870Y2015490D01*
X2241340Y2017600D01*
X2248750Y2016540D01*
X2254040Y2014430D01*
X2259330Y2010200D01*
G01X1392770Y2084070D02*
X1350430D01*
Y2147570D01*
X1392770D01*
G01X1375830Y2116880D02*
X1350430D01*
G01X1425570Y2092530D02*
X1434040Y2087240D01*
X1443570Y2084070D01*
X1452030D01*
X1460500Y2087240D01*
X1466850Y2092530D01*
X1470030Y2099950D01*
X1467910Y2107350D01*
X1462620Y2113700D01*
X1453090Y2117940D01*
X1440390Y2120050D01*
X1432980Y2124290D01*
X1429810Y2131690D01*
X1431930Y2139100D01*
X1437220Y2144390D01*
X1444620Y2147570D01*
X1452030D01*
X1459440Y2145450D01*
X1465790Y2140160D01*
G01X1502830Y2084070D02*
Y2147570D01*
X1528230D01*
X1536700Y2144390D01*
X1543050Y2136990D01*
X1545170Y2128520D01*
X1543050Y2120050D01*
X1537760Y2113700D01*
X1528230Y2110530D01*
X1502830D01*
G01X1576920Y2096770D02*
X1583270Y2089360D01*
X1591730Y2085130D01*
X1601260Y2084070D01*
X1609730Y2085130D01*
X1618190Y2090420D01*
X1623480Y2096770D01*
X1624540Y2103120D01*
X1622430Y2110530D01*
X1615020Y2115820D01*
X1607610Y2117940D01*
X1598080D01*
G01X1607610D02*
X1613960Y2121110D01*
X1619250Y2126400D01*
X1621370Y2132750D01*
X1619250Y2139100D01*
X1613960Y2144390D01*
X1604430Y2147570D01*
X1594910Y2146510D01*
X1585380Y2142280D01*
G01X1656290Y2136990D02*
X1662640Y2143340D01*
X1670050Y2146510D01*
X1678520Y2147570D01*
X1689100Y2145450D01*
X1696510Y2140160D01*
X1698630Y2133810D01*
X1697570Y2127460D01*
X1693330Y2122170D01*
X1672170Y2111590D01*
X1662640Y2104180D01*
X1656290Y2093590D01*
X1654170Y2084070D01*
X1698630D01*
G01X1738840Y2105240D02*
X1766360D01*
G01X1807630Y2084070D02*
Y2147570D01*
X1833030D01*
X1841500Y2144390D01*
X1847850Y2136990D01*
X1849970Y2128520D01*
X1847850Y2120050D01*
X1842560Y2113700D01*
X1833030Y2110530D01*
X1807630D01*
G01X1917700Y2084070D02*
Y2147570D01*
X1878540Y2102060D01*
X1931460D01*
G01X1396310Y847090D02*
Y910590D01*
X1422770D01*
X1431240Y907410D01*
X1436530Y903180D01*
X1438650Y894710D01*
X1436530Y886250D01*
X1430180Y880960D01*
X1422770Y877780D01*
X1396310D01*
G01X1422770D02*
X1438650Y847090D01*
G01X1493680D02*
Y910590D01*
X1480980Y897890D01*
G01Y847090D02*
X1506380D01*
G01X1569880D02*
X1577290Y848150D01*
X1585750Y851320D01*
X1591050Y856610D01*
X1593160Y864020D01*
X1591050Y871430D01*
X1584700Y877780D01*
X1575170Y880960D01*
X1564590D01*
X1558240Y883070D01*
X1552950Y888360D01*
X1550830Y895770D01*
X1554010Y903180D01*
X1561410Y908470D01*
X1569880Y910590D01*
X1578350Y908470D01*
X1585750Y903180D01*
X1588930Y895770D01*
X1586810Y888360D01*
X1581520Y883070D01*
X1575170Y880960D01*
X1564590D01*
X1555060Y877780D01*
X1548710Y871430D01*
X1546600Y864020D01*
X1548710Y856610D01*
X1554010Y851320D01*
X1562470Y848150D01*
X1569880Y847090D01*
G01X1398850Y758190D02*
Y821690D01*
X1425310D01*
X1433780Y818510D01*
X1439070Y814280D01*
X1441190Y805810D01*
X1439070Y797350D01*
X1432720Y792060D01*
X1425310Y788880D01*
X1398850D01*
G01X1425310D02*
X1441190Y758190D01*
G01X1476110Y811110D02*
X1482460Y817460D01*
X1489870Y820630D01*
X1498340Y821690D01*
X1508920Y819570D01*
X1516330Y814280D01*
X1518450Y807930D01*
X1517390Y801580D01*
X1513150Y796290D01*
X1491990Y785710D01*
X1482460Y778300D01*
X1476110Y767710D01*
X1473990Y758190D01*
X1518450D01*
G01X1572420Y821690D02*
X1563950Y819570D01*
X1557600Y814280D01*
X1553370Y807930D01*
X1550190Y799460D01*
X1549140Y789940D01*
X1550190Y780410D01*
X1553370Y771950D01*
X1557600Y765600D01*
X1563950Y760310D01*
X1572420Y758190D01*
X1580890Y760310D01*
X1587240Y765600D01*
X1591470Y771950D01*
X1594650Y780410D01*
X1595700Y789940D01*
X1594650Y799460D01*
X1591470Y807930D01*
X1587240Y814280D01*
X1580890Y819570D01*
X1572420Y821690D01*
G01X2393100Y1608880D02*
X2386750Y1612050D01*
X2379350Y1614170D01*
X2370880D01*
X2361350Y1610990D01*
X2353950Y1605700D01*
X2348650Y1599350D01*
X2344420Y1588770D01*
X2343360Y1579240D01*
X2345480Y1569720D01*
X2348650Y1563370D01*
X2355000Y1557020D01*
X2362410Y1552790D01*
X2369820Y1550670D01*
X2377230D01*
X2384640Y1552790D01*
X2390990Y1555960D01*
X2396280Y1560190D01*
G01X2446020Y1550670D02*
Y1614170D01*
X2433320Y1601470D01*
G01Y1550670D02*
X2458720D01*
G01X2396700Y1747940D02*
X2393530Y1741590D01*
X2391410Y1734190D01*
Y1725720D01*
X2394590Y1716190D01*
X2399880Y1708790D01*
X2406230Y1703490D01*
X2416810Y1699260D01*
X2426340Y1698200D01*
X2435860Y1700320D01*
X2442210Y1703490D01*
X2448560Y1709840D01*
X2452790Y1717250D01*
X2454910Y1724660D01*
Y1732070D01*
X2452790Y1739480D01*
X2449620Y1745830D01*
X2445390Y1751120D01*
G01X2454910Y1800860D02*
X2391410D01*
X2404110Y1788160D01*
G01X2454910D02*
Y1813560D01*
G01X2401990Y1856950D02*
X2395640Y1863300D01*
X2392470Y1870710D01*
X2391410Y1879180D01*
X2393530Y1889760D01*
X2398820Y1897170D01*
X2405170Y1899290D01*
X2411520Y1898230D01*
X2416810Y1893990D01*
X2427390Y1872830D01*
X2434800Y1863300D01*
X2445390Y1856950D01*
X2454910Y1854830D01*
Y1899290D01*
G01X2297850Y991870D02*
X2303150Y985520D01*
X2309490Y981290D01*
X2316900Y979170D01*
X2325370Y981290D01*
X2331720Y985520D01*
X2338070Y991870D01*
X2340190Y1000340D01*
Y1042670D01*
G01X2375110Y1032090D02*
X2381460Y1038440D01*
X2388870Y1041610D01*
X2397340Y1042670D01*
X2407920Y1040550D01*
X2415330Y1035260D01*
X2417450Y1028910D01*
X2416390Y1022560D01*
X2412150Y1017270D01*
X2390990Y1006690D01*
X2381460Y999280D01*
X2375110Y988690D01*
X2372990Y979170D01*
X2417450D01*
G01X2230680Y1445220D02*
X1030680D01*
G01X2415680Y1085220D02*
Y1175220D01*
G01X2240680Y1085220D02*
X2415680D01*
G01X3034030Y651930D02*
X2970530D01*
Y678390D01*
X2973710Y686860D01*
X2977940Y692150D01*
X2986410Y694270D01*
X2994870Y692150D01*
X3000160Y685800D01*
X3003340Y678390D01*
Y651930D01*
G01Y678390D02*
X3034030Y694270D01*
G01Y749300D02*
X2970530D01*
X2983230Y736600D01*
G01X3034030D02*
Y762000D01*
G01Y825500D02*
X2970530D01*
X2983230Y812800D01*
G01X3034030D02*
Y838200D01*
G01X2530260Y824020D02*
X2523910Y827190D01*
X2516510Y829310D01*
X2508040D01*
X2498510Y826130D01*
X2491110Y820840D01*
X2485810Y814490D01*
X2481580Y803910D01*
X2480520Y794380D01*
X2482640Y784860D01*
X2485810Y778510D01*
X2492160Y772160D01*
X2499570Y767930D01*
X2506980Y765810D01*
X2514390D01*
X2521800Y767930D01*
X2528150Y771100D01*
X2533440Y775330D01*
G01X2595880Y765810D02*
Y829310D01*
X2556720Y783800D01*
X2609640D01*
G01X2535340Y918000D02*
X2528990Y921170D01*
X2521590Y923290D01*
X2513120D01*
X2503590Y920110D01*
X2496190Y914820D01*
X2490890Y908470D01*
X2486660Y897890D01*
X2485600Y888360D01*
X2487720Y878840D01*
X2490890Y872490D01*
X2497240Y866140D01*
X2504650Y861910D01*
X2512060Y859790D01*
X2519470D01*
X2526880Y861910D01*
X2533230Y865080D01*
X2538520Y869310D01*
G01X2564980D02*
X2571330Y864020D01*
X2578730Y860850D01*
X2588260Y859790D01*
X2597790Y861910D01*
X2605190Y866140D01*
X2610490Y873550D01*
X2611540Y882010D01*
X2609430Y890480D01*
X2604130Y895770D01*
X2596730Y900010D01*
X2589320Y901060D01*
X2581910Y900010D01*
X2572390Y895770D01*
X2575560Y923290D01*
X2604130D01*
G01X2540420Y1761280D02*
X2534070Y1764450D01*
X2526670Y1766570D01*
X2518200D01*
X2508670Y1763390D01*
X2501270Y1758100D01*
X2495970Y1751750D01*
X2491740Y1741170D01*
X2490680Y1731640D01*
X2492800Y1722120D01*
X2495970Y1715770D01*
X2502320Y1709420D01*
X2509730Y1705190D01*
X2517140Y1703070D01*
X2524550D01*
X2531960Y1705190D01*
X2538310Y1708360D01*
X2543600Y1712590D01*
G01X2593340Y1703070D02*
Y1766570D01*
X2580640Y1753870D01*
G01Y1703070D02*
X2606040D01*
G01X2669540Y1766570D02*
X2661070Y1764450D01*
X2654720Y1759160D01*
X2650490Y1752810D01*
X2647310Y1744340D01*
X2646260Y1734820D01*
X2647310Y1725290D01*
X2650490Y1716830D01*
X2654720Y1710480D01*
X2661070Y1705190D01*
X2669540Y1703070D01*
X2678010Y1705190D01*
X2684360Y1710480D01*
X2688590Y1716830D01*
X2691770Y1725290D01*
X2692820Y1734820D01*
X2691770Y1744340D01*
X2688590Y1752810D01*
X2684360Y1759160D01*
X2678010Y1764450D01*
X2669540Y1766570D01*
G01X2542960Y1857800D02*
X2536610Y1860970D01*
X2529210Y1863090D01*
X2520740D01*
X2511210Y1859910D01*
X2503810Y1854620D01*
X2498510Y1848270D01*
X2494280Y1837690D01*
X2493220Y1828160D01*
X2495340Y1818640D01*
X2498510Y1812290D01*
X2504860Y1805940D01*
X2512270Y1801710D01*
X2519680Y1799590D01*
X2527090D01*
X2534500Y1801710D01*
X2540850Y1804880D01*
X2546140Y1809110D01*
G01X2595880Y1799590D02*
Y1863090D01*
X2583180Y1850390D01*
G01Y1799590D02*
X2608580D01*
G01X2672080D02*
Y1863090D01*
X2659380Y1850390D01*
G01Y1799590D02*
X2684780D01*
G01X3062180Y1097700D02*
X3059010Y1091350D01*
X3056890Y1083950D01*
Y1075480D01*
X3060070Y1065950D01*
X3065360Y1058550D01*
X3071710Y1053250D01*
X3082290Y1049020D01*
X3091820Y1047960D01*
X3101340Y1050080D01*
X3107690Y1053250D01*
X3114040Y1059600D01*
X3118270Y1067010D01*
X3120390Y1074420D01*
Y1081830D01*
X3118270Y1089240D01*
X3115100Y1095590D01*
X3110870Y1100880D01*
G01X3120390Y1150620D02*
X3056890D01*
X3069590Y1137920D01*
G01X3120390D02*
Y1163320D01*
G01Y1239520D02*
X3056890D01*
X3102400Y1200360D01*
Y1253280D01*
G01X2545500Y1476800D02*
X2539150Y1479970D01*
X2531750Y1482090D01*
X2523280D01*
X2513750Y1478910D01*
X2506350Y1473620D01*
X2501050Y1467270D01*
X2496820Y1456690D01*
X2495760Y1447160D01*
X2497880Y1437640D01*
X2501050Y1431290D01*
X2507400Y1424940D01*
X2514810Y1420710D01*
X2522220Y1418590D01*
X2529630D01*
X2537040Y1420710D01*
X2543390Y1423880D01*
X2548680Y1428110D01*
G01X2578310Y1471510D02*
X2584660Y1477860D01*
X2592070Y1481030D01*
X2600540Y1482090D01*
X2611120Y1479970D01*
X2618530Y1474680D01*
X2620650Y1468330D01*
X2619590Y1461980D01*
X2615350Y1456690D01*
X2594190Y1446110D01*
X2584660Y1438700D01*
X2578310Y1428110D01*
X2576190Y1418590D01*
X2620650D01*
G01X2541270Y1104480D02*
X2586780D01*
X2596310Y1108710D01*
X2602650Y1117180D01*
X2604770Y1127760D01*
X2602650Y1138340D01*
X2596310Y1146810D01*
X2586780Y1151040D01*
X2541270D01*
G01X2604770Y1203960D02*
X2541270D01*
X2553970Y1191260D01*
G01X2604770D02*
Y1216660D01*
G01X2618740Y2213610D02*
Y2242180D01*
X2597570Y2277110D01*
G01X2639910D02*
X2618740Y2242180D01*
G01X2694940Y2213610D02*
Y2277110D01*
X2682240Y2264410D01*
G01Y2213610D02*
X2707640D01*
G01X2927350Y2142910D02*
X2863850D01*
Y2169370D01*
X2867030Y2177840D01*
X2871260Y2183130D01*
X2879730Y2185250D01*
X2888190Y2183130D01*
X2893480Y2176780D01*
X2896660Y2169370D01*
Y2142910D01*
G01Y2169370D02*
X2927350Y2185250D01*
G01Y2240280D02*
X2863850D01*
X2876550Y2227580D01*
G01X2927350D02*
Y2252980D01*
G01X2917830Y2293200D02*
X2923120Y2299550D01*
X2926290Y2306950D01*
X2927350Y2316480D01*
X2925230Y2326010D01*
X2921000Y2333410D01*
X2913590Y2338710D01*
X2905130Y2339760D01*
X2896660Y2337650D01*
X2891370Y2332350D01*
X2887130Y2324950D01*
X2886080Y2317540D01*
X2887130Y2310130D01*
X2891370Y2300610D01*
X2863850Y2303780D01*
Y2332350D01*
G01X2963120Y2187360D02*
X2959950Y2181010D01*
X2957830Y2173610D01*
Y2165140D01*
X2961010Y2155610D01*
X2966300Y2148210D01*
X2972650Y2142910D01*
X2983230Y2138680D01*
X2992760Y2137620D01*
X3002280Y2139740D01*
X3008630Y2142910D01*
X3014980Y2149260D01*
X3019210Y2156670D01*
X3021330Y2164080D01*
Y2171490D01*
X3019210Y2178900D01*
X3016040Y2185250D01*
X3011810Y2190540D01*
G01X3021330Y2240280D02*
X2957830D01*
X2970530Y2227580D01*
G01X3021330D02*
Y2252980D01*
G01X3008630Y2293200D02*
X3016040Y2299550D01*
X3020270Y2308010D01*
X3021330Y2317540D01*
X3020270Y2326010D01*
X3014980Y2334470D01*
X3008630Y2339760D01*
X3002280Y2340820D01*
X2994870Y2338710D01*
X2989580Y2331300D01*
X2987460Y2323890D01*
Y2314360D01*
G01Y2323890D02*
X2984290Y2330240D01*
X2979000Y2335530D01*
X2972650Y2337650D01*
X2966300Y2335530D01*
X2961010Y2330240D01*
X2957830Y2320710D01*
X2958890Y2311190D01*
X2963120Y2301660D01*
G54D14*
G01X815340Y2019300D02*
Y2085340D01*
G01X739140Y2019300D02*
X815340D01*
G01X739140Y2085340D02*
Y2019300D01*
G01X508000Y1059180D02*
Y993140D01*
G01X584200Y1059180D02*
X508000D01*
G01X584200Y993140D02*
Y1059180D01*
G01X508000Y876300D02*
Y942340D01*
G01X584200Y876300D02*
X508000D01*
G01X584200Y942340D02*
Y876300D01*
G01X914400Y871220D02*
X848360D01*
G01X914400Y795020D02*
Y871220D01*
G01X848360Y795020D02*
X914400D01*
G01X731520Y871220D02*
X797560D01*
G01X731520Y795020D02*
Y871220D01*
G01X797560Y795020D02*
X731520D01*
G01Y881380D02*
X797560D01*
G01X731520Y957580D02*
Y881380D01*
G01X797560Y957580D02*
X731520D01*
G01X914400Y881380D02*
X848360D01*
G01X914400Y957580D02*
Y881380D01*
G01X848360Y957580D02*
X914400D01*
G01X815340Y2202180D02*
Y2136140D01*
G01X739140Y2202180D02*
X815340D01*
G01X739140Y2136140D02*
Y2202180D01*
G01X1379220Y871220D02*
X1313180D01*
G01X1379220Y795020D02*
Y871220D01*
G01X1313180Y795020D02*
X1379220D01*
G01X1196340Y871220D02*
X1262380D01*
G01X1196340Y795020D02*
Y871220D01*
G01X1262380Y795020D02*
X1196340D01*
G01X1379220Y784860D02*
X1313180D01*
G01X1379220Y708660D02*
Y784860D01*
G01X1313180Y708660D02*
X1379220D01*
G01X1196340Y784860D02*
X1262380D01*
G01X1196340Y708660D02*
Y784860D01*
G01X1262380Y708660D02*
X1196340D01*
G01X2961640Y1043940D02*
Y977900D01*
G01X3037840Y1043940D02*
X2961640D01*
G01X3037840Y977900D02*
Y1043940D01*
G01X2961640Y861060D02*
Y927100D01*
G01X3037840Y861060D02*
X2961640D01*
G01X3037840Y927100D02*
Y861060D01*
G01X2857500Y2110740D02*
Y2044700D01*
G01X2933700D02*
Y2110740D01*
G01X2857500Y1927860D02*
Y1993900D01*
G01X2933700Y1927860D02*
X2857500D01*
G01X2933700Y1993900D02*
Y1927860D01*
G01Y2110740D02*
X2857500D01*
M02*
