G04 ================== begin FILE IDENTIFICATION RECORD ==================*
G04 Layout Name:  PCB_ESP32-P4_FUNCTION_EV_BOARD_MIPI_Sub_V1.1_20240529.brd*
G04 Film Name:    SOLDER_TOP*
G04 File Format:  Gerber RS274X*
G04 File Origin:  Cadence Allegro 16.6-2015-S108*
G04 Origin Date:  Thu May 30 15:24:29 2024*
G04 *
G04 Layer:  PIN/SOLDERMASK_TOP*
G04 Layer:  PACKAGE GEOMETRY/SOLDERMASK_TOP*
G04 Layer:  BOARD GEOMETRY/OUTLINE*
G04 Layer:  BOARD GEOMETRY/SOLDERMASK_TOP*
G04 *
G04 Offset:    (0.0000 0.0000)*
G04 Mirror:    No*
G04 Mode:      Positive*
G04 Rotation:  0*
G04 FullContactRelief:  No*
G04 UndefLineWidth:     0.1016*
G04 ================== end FILE IDENTIFICATION RECORD ====================*
%FSLAX35Y35*MOMM*%
%IR0*IPPOS*OFA0.00000B0.00000*MIA0B0*SFA1.00000B1.00000*%
%ADD14O,.6X1.1*%
%ADD18R,.4X1.35*%
%ADD11R,.7X1.9*%
%ADD15R,.75X1.15*%
%ADD13R,.9128X1.0144*%
%ADD12R,.608X.608*%
%ADD19R,1.2X1.1*%
%ADD16R,2.1X2.6*%
%ADD10R,2.7X3.1*%
%ADD17R,.8X.5*%
%ADD20C,.127*%
G75*
%LPD*%
G75*
G54D10*
X665000Y233680D03*
X2535000Y237980D03*
G54D20*
G01X300000Y0D02*
X2900000D01*
G03X3200000Y300000I0J300000D01*
G01Y2100000D01*
G03X2900000Y2400000I-300000J0D01*
G01X300000D01*
G03X0Y2100000I0J-300000D01*
G01Y300000D01*
G03X300000Y0I300000J0D01*
G54D11*
X900000Y450680D03*
X2300000D03*
X2200000D03*
X2100000D03*
X2000000D03*
X1900000D03*
X1800000D03*
X1700000D03*
X1600000D03*
X1500000D03*
X1400000D03*
X1300000D03*
X1200000D03*
X1100000D03*
X1000000D03*
G54D12*
X777240Y2059940D03*
X546100Y916940D03*
Y1018540D03*
X772160Y833120D03*
X873760D03*
Y919480D03*
X772160D03*
X335280Y1440180D03*
X233680D03*
X675640Y2059940D03*
X337820Y894080D03*
X236220D03*
X546100Y1219200D03*
Y1117600D03*
X777240Y2161540D03*
X675640D03*
X1236980Y833120D03*
X1338580D03*
X1236980Y746760D03*
X1338580D03*
X2430780Y2072640D03*
Y1971040D03*
X2999740Y901700D03*
Y1003300D03*
X2895600Y1968500D03*
Y2070100D03*
X2791460Y886460D03*
X2689860D03*
X2857500Y1739900D03*
X2755900D03*
X2857500Y1831340D03*
X2755900D03*
X2989580Y1968500D03*
Y2070100D03*
X2999740Y1209040D03*
Y1107440D03*
X2781300Y1442720D03*
X2679700D03*
G54D13*
X232410Y1582420D03*
X397510D03*
X234950Y764540D03*
X400050D03*
X2617470Y1582420D03*
X2782570D03*
X2688590Y756920D03*
X2853690D03*
G54D14*
X235200Y1008350D03*
X330200D03*
X425200D03*
Y1323370D03*
X235200D03*
X2690190Y1003750D03*
X2785190D03*
X2880190D03*
Y1318770D03*
X2690190D03*
G54D15*
X306520Y1867680D03*
X521520D03*
Y2282680D03*
X306520D03*
G54D16*
X886680Y1320220D03*
X2374680D03*
G54D17*
X966560Y768120D03*
Y833120D03*
Y898120D03*
X1136560D03*
Y833120D03*
Y768120D03*
G54D18*
X2205680Y1062720D03*
X2105680D03*
X2005680D03*
X1905680D03*
X1805680D03*
X1705680D03*
X1605680D03*
X1505680D03*
X1405680D03*
X1305680D03*
X1205680D03*
X1105680D03*
X2155680D03*
X2055680D03*
X1955680D03*
X1855680D03*
X1755680D03*
X1655680D03*
X1555680D03*
X1455680D03*
X1355680D03*
X1255680D03*
X1155680D03*
X1055680D03*
G54D19*
X2574970Y1969650D03*
X2754950D03*
X2754960Y2119660D03*
X2574970Y2119670D03*
M02*
