G04 #@! TF.GenerationSoftware,KiCad,Pcbnew,8.0.1*
G04 #@! TF.CreationDate,2026-05-11T12:58:26-04:00*
G04 #@! TF.ProjectId,Zerowriter breakout board,5a65726f-7772-4697-9465-722062726561,V1.2.0.*
G04 #@! TF.SameCoordinates,PX1c9c380PY94c5f00*
G04 #@! TF.FileFunction,Paste,Top*
G04 #@! TF.FilePolarity,Positive*
%FSLAX46Y46*%
G04 Gerber Fmt 4.6, Leading zero omitted, Abs format (unit mm)*
G04 Created by KiCad (PCBNEW 8.0.1) date 2026-05-11 12:58:26*
%MOMM*%
%LPD*%
G01*
G04 APERTURE LIST*
G04 Aperture macros list*
%AMRoundRect*
0 Rectangle with rounded corners*
0 $1 Rounding radius*
0 $2 $3 $4 $5 $6 $7 $8 $9 X,Y pos of 4 corners*
0 Add a 4 corners polygon primitive as box body*
4,1,4,$2,$3,$4,$5,$6,$7,$8,$9,$2,$3,0*
0 Add four circle primitives for the rounded corners*
1,1,$1+$1,$2,$3*
1,1,$1+$1,$4,$5*
1,1,$1+$1,$6,$7*
1,1,$1+$1,$8,$9*
0 Add four rect primitives between the rounded corners*
20,1,$1+$1,$2,$3,$4,$5,0*
20,1,$1+$1,$4,$5,$6,$7,0*
20,1,$1+$1,$6,$7,$8,$9,0*
20,1,$1+$1,$8,$9,$2,$3,0*%
G04 Aperture macros list end*
%ADD10C,0.120000*%
%ADD11R,2.000000X1.000000*%
%ADD12R,1.000000X0.640000*%
%ADD13R,0.640000X1.000000*%
%ADD14R,1.000000X0.660000*%
%ADD15R,1.100000X1.100000*%
%ADD16R,1.900000X0.800000*%
%ADD17R,2.500000X2.350000*%
%ADD18R,1.600000X0.700000*%
%ADD19R,2.200000X1.200000*%
%ADD20R,1.500000X1.200000*%
%ADD21R,1.600000X1.500000*%
%ADD22R,1.200000X0.900000*%
%ADD23RoundRect,0.200000X-0.450000X0.400000X-0.450000X-0.400000X0.450000X-0.400000X0.450000X0.400000X0*%
%ADD24R,1.150000X0.300000*%
G04 APERTURE END LIST*
D10*
X84750000Y108750000D02*
X81750000Y108750000D01*
X81750000Y110500000D01*
X84750000Y110500000D01*
X84750000Y108750000D01*
G36*
X84750000Y108750000D02*
G01*
X81750000Y108750000D01*
X81750000Y110500000D01*
X84750000Y110500000D01*
X84750000Y108750000D01*
G37*
X84750000Y99500000D02*
X81750000Y99500000D01*
X81750000Y101250000D01*
X84750000Y101250000D01*
X84750000Y99500000D01*
G36*
X84750000Y99500000D02*
G01*
X81750000Y99500000D01*
X81750000Y101250000D01*
X84750000Y101250000D01*
X84750000Y99500000D01*
G37*
X89000000Y108500000D02*
X86000000Y108500000D01*
X86000000Y110250000D01*
X89000000Y110250000D01*
X89000000Y108500000D01*
G36*
X89000000Y108500000D02*
G01*
X86000000Y108500000D01*
X86000000Y110250000D01*
X89000000Y110250000D01*
X89000000Y108500000D01*
G37*
X89000000Y99750000D02*
X86000000Y99750000D01*
X86000000Y101500000D01*
X89000000Y101500000D01*
X89000000Y99750000D01*
G36*
X89000000Y99750000D02*
G01*
X86000000Y99750000D01*
X86000000Y101500000D01*
X89000000Y101500000D01*
X89000000Y99750000D01*
G37*
X114750000Y54750000D02*
X111750000Y54750000D01*
X111750000Y56500000D01*
X114750000Y56500000D01*
X114750000Y54750000D01*
G36*
X114750000Y54750000D02*
G01*
X111750000Y54750000D01*
X111750000Y56500000D01*
X114750000Y56500000D01*
X114750000Y54750000D01*
G37*
X114750000Y45500000D02*
X111750000Y45500000D01*
X111750000Y47250000D01*
X114750000Y47250000D01*
X114750000Y45500000D01*
G36*
X114750000Y45500000D02*
G01*
X111750000Y45500000D01*
X111750000Y47250000D01*
X114750000Y47250000D01*
X114750000Y45500000D01*
G37*
X119000000Y54500000D02*
X116000000Y54500000D01*
X116000000Y56250000D01*
X119000000Y56250000D01*
X119000000Y54500000D01*
G36*
X119000000Y54500000D02*
G01*
X116000000Y54500000D01*
X116000000Y56250000D01*
X119000000Y56250000D01*
X119000000Y54500000D01*
G37*
X119000000Y45750000D02*
X116000000Y45750000D01*
X116000000Y47500000D01*
X119000000Y47500000D01*
X119000000Y45750000D01*
G36*
X119000000Y45750000D02*
G01*
X116000000Y45750000D01*
X116000000Y47500000D01*
X119000000Y47500000D01*
X119000000Y45750000D01*
G37*
X114750000Y162750000D02*
X111750000Y162750000D01*
X111750000Y164500000D01*
X114750000Y164500000D01*
X114750000Y162750000D01*
G36*
X114750000Y162750000D02*
G01*
X111750000Y162750000D01*
X111750000Y164500000D01*
X114750000Y164500000D01*
X114750000Y162750000D01*
G37*
X114750000Y153500000D02*
X111750000Y153500000D01*
X111750000Y155250000D01*
X114750000Y155250000D01*
X114750000Y153500000D01*
G36*
X114750000Y153500000D02*
G01*
X111750000Y153500000D01*
X111750000Y155250000D01*
X114750000Y155250000D01*
X114750000Y153500000D01*
G37*
X119000000Y162500000D02*
X116000000Y162500000D01*
X116000000Y164250000D01*
X119000000Y164250000D01*
X119000000Y162500000D01*
G36*
X119000000Y162500000D02*
G01*
X116000000Y162500000D01*
X116000000Y164250000D01*
X119000000Y164250000D01*
X119000000Y162500000D01*
G37*
X119000000Y153750000D02*
X116000000Y153750000D01*
X116000000Y155500000D01*
X119000000Y155500000D01*
X119000000Y153750000D01*
G36*
X119000000Y153750000D02*
G01*
X116000000Y153750000D01*
X116000000Y155500000D01*
X119000000Y155500000D01*
X119000000Y153750000D01*
G37*
X24750000Y54750000D02*
X21750000Y54750000D01*
X21750000Y56500000D01*
X24750000Y56500000D01*
X24750000Y54750000D01*
G36*
X24750000Y54750000D02*
G01*
X21750000Y54750000D01*
X21750000Y56500000D01*
X24750000Y56500000D01*
X24750000Y54750000D01*
G37*
X24750000Y45500000D02*
X21750000Y45500000D01*
X21750000Y47250000D01*
X24750000Y47250000D01*
X24750000Y45500000D01*
G36*
X24750000Y45500000D02*
G01*
X21750000Y45500000D01*
X21750000Y47250000D01*
X24750000Y47250000D01*
X24750000Y45500000D01*
G37*
X29000000Y54500000D02*
X26000000Y54500000D01*
X26000000Y56250000D01*
X29000000Y56250000D01*
X29000000Y54500000D01*
G36*
X29000000Y54500000D02*
G01*
X26000000Y54500000D01*
X26000000Y56250000D01*
X29000000Y56250000D01*
X29000000Y54500000D01*
G37*
X29000000Y45750000D02*
X26000000Y45750000D01*
X26000000Y47500000D01*
X29000000Y47500000D01*
X29000000Y45750000D01*
G36*
X29000000Y45750000D02*
G01*
X26000000Y45750000D01*
X26000000Y47500000D01*
X29000000Y47500000D01*
X29000000Y45750000D01*
G37*
X84750000Y54750000D02*
X81750000Y54750000D01*
X81750000Y56500000D01*
X84750000Y56500000D01*
X84750000Y54750000D01*
G36*
X84750000Y54750000D02*
G01*
X81750000Y54750000D01*
X81750000Y56500000D01*
X84750000Y56500000D01*
X84750000Y54750000D01*
G37*
X84750000Y45500000D02*
X81750000Y45500000D01*
X81750000Y47250000D01*
X84750000Y47250000D01*
X84750000Y45500000D01*
G36*
X84750000Y45500000D02*
G01*
X81750000Y45500000D01*
X81750000Y47250000D01*
X84750000Y47250000D01*
X84750000Y45500000D01*
G37*
X89000000Y54500000D02*
X86000000Y54500000D01*
X86000000Y56250000D01*
X89000000Y56250000D01*
X89000000Y54500000D01*
G36*
X89000000Y54500000D02*
G01*
X86000000Y54500000D01*
X86000000Y56250000D01*
X89000000Y56250000D01*
X89000000Y54500000D01*
G37*
X89000000Y45750000D02*
X86000000Y45750000D01*
X86000000Y47500000D01*
X89000000Y47500000D01*
X89000000Y45750000D01*
G36*
X89000000Y45750000D02*
G01*
X86000000Y45750000D01*
X86000000Y47500000D01*
X89000000Y47500000D01*
X89000000Y45750000D01*
G37*
X54750000Y108750000D02*
X51750000Y108750000D01*
X51750000Y110500000D01*
X54750000Y110500000D01*
X54750000Y108750000D01*
G36*
X54750000Y108750000D02*
G01*
X51750000Y108750000D01*
X51750000Y110500000D01*
X54750000Y110500000D01*
X54750000Y108750000D01*
G37*
X54750000Y99500000D02*
X51750000Y99500000D01*
X51750000Y101250000D01*
X54750000Y101250000D01*
X54750000Y99500000D01*
G36*
X54750000Y99500000D02*
G01*
X51750000Y99500000D01*
X51750000Y101250000D01*
X54750000Y101250000D01*
X54750000Y99500000D01*
G37*
X59000000Y108500000D02*
X56000000Y108500000D01*
X56000000Y110250000D01*
X59000000Y110250000D01*
X59000000Y108500000D01*
G36*
X59000000Y108500000D02*
G01*
X56000000Y108500000D01*
X56000000Y110250000D01*
X59000000Y110250000D01*
X59000000Y108500000D01*
G37*
X59000000Y99750000D02*
X56000000Y99750000D01*
X56000000Y101500000D01*
X59000000Y101500000D01*
X59000000Y99750000D01*
G36*
X59000000Y99750000D02*
G01*
X56000000Y99750000D01*
X56000000Y101500000D01*
X59000000Y101500000D01*
X59000000Y99750000D01*
G37*
X84750000Y162750000D02*
X81750000Y162750000D01*
X81750000Y164500000D01*
X84750000Y164500000D01*
X84750000Y162750000D01*
G36*
X84750000Y162750000D02*
G01*
X81750000Y162750000D01*
X81750000Y164500000D01*
X84750000Y164500000D01*
X84750000Y162750000D01*
G37*
X84750000Y153500000D02*
X81750000Y153500000D01*
X81750000Y155250000D01*
X84750000Y155250000D01*
X84750000Y153500000D01*
G36*
X84750000Y153500000D02*
G01*
X81750000Y153500000D01*
X81750000Y155250000D01*
X84750000Y155250000D01*
X84750000Y153500000D01*
G37*
X89000000Y162500000D02*
X86000000Y162500000D01*
X86000000Y164250000D01*
X89000000Y164250000D01*
X89000000Y162500000D01*
G36*
X89000000Y162500000D02*
G01*
X86000000Y162500000D01*
X86000000Y164250000D01*
X89000000Y164250000D01*
X89000000Y162500000D01*
G37*
X89000000Y153750000D02*
X86000000Y153750000D01*
X86000000Y155500000D01*
X89000000Y155500000D01*
X89000000Y153750000D01*
G36*
X89000000Y153750000D02*
G01*
X86000000Y153750000D01*
X86000000Y155500000D01*
X89000000Y155500000D01*
X89000000Y153750000D01*
G37*
X24750000Y162750000D02*
X21750000Y162750000D01*
X21750000Y164500000D01*
X24750000Y164500000D01*
X24750000Y162750000D01*
G36*
X24750000Y162750000D02*
G01*
X21750000Y162750000D01*
X21750000Y164500000D01*
X24750000Y164500000D01*
X24750000Y162750000D01*
G37*
X24750000Y153500000D02*
X21750000Y153500000D01*
X21750000Y155250000D01*
X24750000Y155250000D01*
X24750000Y153500000D01*
G36*
X24750000Y153500000D02*
G01*
X21750000Y153500000D01*
X21750000Y155250000D01*
X24750000Y155250000D01*
X24750000Y153500000D01*
G37*
X29000000Y162500000D02*
X26000000Y162500000D01*
X26000000Y164250000D01*
X29000000Y164250000D01*
X29000000Y162500000D01*
G36*
X29000000Y162500000D02*
G01*
X26000000Y162500000D01*
X26000000Y164250000D01*
X29000000Y164250000D01*
X29000000Y162500000D01*
G37*
X29000000Y153750000D02*
X26000000Y153750000D01*
X26000000Y155500000D01*
X29000000Y155500000D01*
X29000000Y153750000D01*
G36*
X29000000Y153750000D02*
G01*
X26000000Y153750000D01*
X26000000Y155500000D01*
X29000000Y155500000D01*
X29000000Y153750000D01*
G37*
X144750000Y108750000D02*
X141750000Y108750000D01*
X141750000Y110500000D01*
X144750000Y110500000D01*
X144750000Y108750000D01*
G36*
X144750000Y108750000D02*
G01*
X141750000Y108750000D01*
X141750000Y110500000D01*
X144750000Y110500000D01*
X144750000Y108750000D01*
G37*
X144750000Y99500000D02*
X141750000Y99500000D01*
X141750000Y101250000D01*
X144750000Y101250000D01*
X144750000Y99500000D01*
G36*
X144750000Y99500000D02*
G01*
X141750000Y99500000D01*
X141750000Y101250000D01*
X144750000Y101250000D01*
X144750000Y99500000D01*
G37*
X149000000Y108500000D02*
X146000000Y108500000D01*
X146000000Y110250000D01*
X149000000Y110250000D01*
X149000000Y108500000D01*
G36*
X149000000Y108500000D02*
G01*
X146000000Y108500000D01*
X146000000Y110250000D01*
X149000000Y110250000D01*
X149000000Y108500000D01*
G37*
X149000000Y99750000D02*
X146000000Y99750000D01*
X146000000Y101500000D01*
X149000000Y101500000D01*
X149000000Y99750000D01*
G36*
X149000000Y99750000D02*
G01*
X146000000Y99750000D01*
X146000000Y101500000D01*
X149000000Y101500000D01*
X149000000Y99750000D01*
G37*
X144750000Y162750000D02*
X141750000Y162750000D01*
X141750000Y164500000D01*
X144750000Y164500000D01*
X144750000Y162750000D01*
G36*
X144750000Y162750000D02*
G01*
X141750000Y162750000D01*
X141750000Y164500000D01*
X144750000Y164500000D01*
X144750000Y162750000D01*
G37*
X144750000Y153500000D02*
X141750000Y153500000D01*
X141750000Y155250000D01*
X144750000Y155250000D01*
X144750000Y153500000D01*
G36*
X144750000Y153500000D02*
G01*
X141750000Y153500000D01*
X141750000Y155250000D01*
X144750000Y155250000D01*
X144750000Y153500000D01*
G37*
X149000000Y162500000D02*
X146000000Y162500000D01*
X146000000Y164250000D01*
X149000000Y164250000D01*
X149000000Y162500000D01*
G36*
X149000000Y162500000D02*
G01*
X146000000Y162500000D01*
X146000000Y164250000D01*
X149000000Y164250000D01*
X149000000Y162500000D01*
G37*
X149000000Y153750000D02*
X146000000Y153750000D01*
X146000000Y155500000D01*
X149000000Y155500000D01*
X149000000Y153750000D01*
G36*
X149000000Y153750000D02*
G01*
X146000000Y153750000D01*
X146000000Y155500000D01*
X149000000Y155500000D01*
X149000000Y153750000D01*
G37*
X144750000Y54750000D02*
X141750000Y54750000D01*
X141750000Y56500000D01*
X144750000Y56500000D01*
X144750000Y54750000D01*
G36*
X144750000Y54750000D02*
G01*
X141750000Y54750000D01*
X141750000Y56500000D01*
X144750000Y56500000D01*
X144750000Y54750000D01*
G37*
X144750000Y45500000D02*
X141750000Y45500000D01*
X141750000Y47250000D01*
X144750000Y47250000D01*
X144750000Y45500000D01*
G36*
X144750000Y45500000D02*
G01*
X141750000Y45500000D01*
X141750000Y47250000D01*
X144750000Y47250000D01*
X144750000Y45500000D01*
G37*
X149000000Y54500000D02*
X146000000Y54500000D01*
X146000000Y56250000D01*
X149000000Y56250000D01*
X149000000Y54500000D01*
G36*
X149000000Y54500000D02*
G01*
X146000000Y54500000D01*
X146000000Y56250000D01*
X149000000Y56250000D01*
X149000000Y54500000D01*
G37*
X149000000Y45750000D02*
X146000000Y45750000D01*
X146000000Y47500000D01*
X149000000Y47500000D01*
X149000000Y45750000D01*
G36*
X149000000Y45750000D02*
G01*
X146000000Y45750000D01*
X146000000Y47500000D01*
X149000000Y47500000D01*
X149000000Y45750000D01*
G37*
X54750000Y162750000D02*
X51750000Y162750000D01*
X51750000Y164500000D01*
X54750000Y164500000D01*
X54750000Y162750000D01*
G36*
X54750000Y162750000D02*
G01*
X51750000Y162750000D01*
X51750000Y164500000D01*
X54750000Y164500000D01*
X54750000Y162750000D01*
G37*
X54750000Y153500000D02*
X51750000Y153500000D01*
X51750000Y155250000D01*
X54750000Y155250000D01*
X54750000Y153500000D01*
G36*
X54750000Y153500000D02*
G01*
X51750000Y153500000D01*
X51750000Y155250000D01*
X54750000Y155250000D01*
X54750000Y153500000D01*
G37*
X59000000Y162500000D02*
X56000000Y162500000D01*
X56000000Y164250000D01*
X59000000Y164250000D01*
X59000000Y162500000D01*
G36*
X59000000Y162500000D02*
G01*
X56000000Y162500000D01*
X56000000Y164250000D01*
X59000000Y164250000D01*
X59000000Y162500000D01*
G37*
X59000000Y153750000D02*
X56000000Y153750000D01*
X56000000Y155500000D01*
X59000000Y155500000D01*
X59000000Y153750000D01*
G36*
X59000000Y153750000D02*
G01*
X56000000Y153750000D01*
X56000000Y155500000D01*
X59000000Y155500000D01*
X59000000Y153750000D01*
G37*
X174750000Y162750000D02*
X171750000Y162750000D01*
X171750000Y164500000D01*
X174750000Y164500000D01*
X174750000Y162750000D01*
G36*
X174750000Y162750000D02*
G01*
X171750000Y162750000D01*
X171750000Y164500000D01*
X174750000Y164500000D01*
X174750000Y162750000D01*
G37*
X174750000Y153500000D02*
X171750000Y153500000D01*
X171750000Y155250000D01*
X174750000Y155250000D01*
X174750000Y153500000D01*
G36*
X174750000Y153500000D02*
G01*
X171750000Y153500000D01*
X171750000Y155250000D01*
X174750000Y155250000D01*
X174750000Y153500000D01*
G37*
X179000000Y162500000D02*
X176000000Y162500000D01*
X176000000Y164250000D01*
X179000000Y164250000D01*
X179000000Y162500000D01*
G36*
X179000000Y162500000D02*
G01*
X176000000Y162500000D01*
X176000000Y164250000D01*
X179000000Y164250000D01*
X179000000Y162500000D01*
G37*
X179000000Y153750000D02*
X176000000Y153750000D01*
X176000000Y155500000D01*
X179000000Y155500000D01*
X179000000Y153750000D01*
G36*
X179000000Y153750000D02*
G01*
X176000000Y153750000D01*
X176000000Y155500000D01*
X179000000Y155500000D01*
X179000000Y153750000D01*
G37*
X24750000Y108750000D02*
X21750000Y108750000D01*
X21750000Y110500000D01*
X24750000Y110500000D01*
X24750000Y108750000D01*
G36*
X24750000Y108750000D02*
G01*
X21750000Y108750000D01*
X21750000Y110500000D01*
X24750000Y110500000D01*
X24750000Y108750000D01*
G37*
X24750000Y99500000D02*
X21750000Y99500000D01*
X21750000Y101250000D01*
X24750000Y101250000D01*
X24750000Y99500000D01*
G36*
X24750000Y99500000D02*
G01*
X21750000Y99500000D01*
X21750000Y101250000D01*
X24750000Y101250000D01*
X24750000Y99500000D01*
G37*
X29000000Y108500000D02*
X26000000Y108500000D01*
X26000000Y110250000D01*
X29000000Y110250000D01*
X29000000Y108500000D01*
G36*
X29000000Y108500000D02*
G01*
X26000000Y108500000D01*
X26000000Y110250000D01*
X29000000Y110250000D01*
X29000000Y108500000D01*
G37*
X29000000Y99750000D02*
X26000000Y99750000D01*
X26000000Y101500000D01*
X29000000Y101500000D01*
X29000000Y99750000D01*
G36*
X29000000Y99750000D02*
G01*
X26000000Y99750000D01*
X26000000Y101500000D01*
X29000000Y101500000D01*
X29000000Y99750000D01*
G37*
X54750000Y54750000D02*
X51750000Y54750000D01*
X51750000Y56500000D01*
X54750000Y56500000D01*
X54750000Y54750000D01*
G36*
X54750000Y54750000D02*
G01*
X51750000Y54750000D01*
X51750000Y56500000D01*
X54750000Y56500000D01*
X54750000Y54750000D01*
G37*
X54750000Y45500000D02*
X51750000Y45500000D01*
X51750000Y47250000D01*
X54750000Y47250000D01*
X54750000Y45500000D01*
G36*
X54750000Y45500000D02*
G01*
X51750000Y45500000D01*
X51750000Y47250000D01*
X54750000Y47250000D01*
X54750000Y45500000D01*
G37*
X59000000Y54500000D02*
X56000000Y54500000D01*
X56000000Y56250000D01*
X59000000Y56250000D01*
X59000000Y54500000D01*
G36*
X59000000Y54500000D02*
G01*
X56000000Y54500000D01*
X56000000Y56250000D01*
X59000000Y56250000D01*
X59000000Y54500000D01*
G37*
X59000000Y45750000D02*
X56000000Y45750000D01*
X56000000Y47500000D01*
X59000000Y47500000D01*
X59000000Y45750000D01*
G36*
X59000000Y45750000D02*
G01*
X56000000Y45750000D01*
X56000000Y47500000D01*
X59000000Y47500000D01*
X59000000Y45750000D01*
G37*
X174750000Y54750000D02*
X171750000Y54750000D01*
X171750000Y56500000D01*
X174750000Y56500000D01*
X174750000Y54750000D01*
G36*
X174750000Y54750000D02*
G01*
X171750000Y54750000D01*
X171750000Y56500000D01*
X174750000Y56500000D01*
X174750000Y54750000D01*
G37*
X174750000Y45500000D02*
X171750000Y45500000D01*
X171750000Y47250000D01*
X174750000Y47250000D01*
X174750000Y45500000D01*
G36*
X174750000Y45500000D02*
G01*
X171750000Y45500000D01*
X171750000Y47250000D01*
X174750000Y47250000D01*
X174750000Y45500000D01*
G37*
X179000000Y54500000D02*
X176000000Y54500000D01*
X176000000Y56250000D01*
X179000000Y56250000D01*
X179000000Y54500000D01*
G36*
X179000000Y54500000D02*
G01*
X176000000Y54500000D01*
X176000000Y56250000D01*
X179000000Y56250000D01*
X179000000Y54500000D01*
G37*
X179000000Y45750000D02*
X176000000Y45750000D01*
X176000000Y47500000D01*
X179000000Y47500000D01*
X179000000Y45750000D01*
G36*
X179000000Y45750000D02*
G01*
X176000000Y45750000D01*
X176000000Y47500000D01*
X179000000Y47500000D01*
X179000000Y45750000D01*
G37*
X114750000Y108750000D02*
X111750000Y108750000D01*
X111750000Y110500000D01*
X114750000Y110500000D01*
X114750000Y108750000D01*
G36*
X114750000Y108750000D02*
G01*
X111750000Y108750000D01*
X111750000Y110500000D01*
X114750000Y110500000D01*
X114750000Y108750000D01*
G37*
X114750000Y99500000D02*
X111750000Y99500000D01*
X111750000Y101250000D01*
X114750000Y101250000D01*
X114750000Y99500000D01*
G36*
X114750000Y99500000D02*
G01*
X111750000Y99500000D01*
X111750000Y101250000D01*
X114750000Y101250000D01*
X114750000Y99500000D01*
G37*
X119000000Y108500000D02*
X116000000Y108500000D01*
X116000000Y110250000D01*
X119000000Y110250000D01*
X119000000Y108500000D01*
G36*
X119000000Y108500000D02*
G01*
X116000000Y108500000D01*
X116000000Y110250000D01*
X119000000Y110250000D01*
X119000000Y108500000D01*
G37*
X119000000Y99750000D02*
X116000000Y99750000D01*
X116000000Y101500000D01*
X119000000Y101500000D01*
X119000000Y99750000D01*
G36*
X119000000Y99750000D02*
G01*
X116000000Y99750000D01*
X116000000Y101500000D01*
X119000000Y101500000D01*
X119000000Y99750000D01*
G37*
X174750000Y108750000D02*
X171750000Y108750000D01*
X171750000Y110500000D01*
X174750000Y110500000D01*
X174750000Y108750000D01*
G36*
X174750000Y108750000D02*
G01*
X171750000Y108750000D01*
X171750000Y110500000D01*
X174750000Y110500000D01*
X174750000Y108750000D01*
G37*
X174750000Y99500000D02*
X171750000Y99500000D01*
X171750000Y101250000D01*
X174750000Y101250000D01*
X174750000Y99500000D01*
G36*
X174750000Y99500000D02*
G01*
X171750000Y99500000D01*
X171750000Y101250000D01*
X174750000Y101250000D01*
X174750000Y99500000D01*
G37*
X179000000Y108500000D02*
X176000000Y108500000D01*
X176000000Y110250000D01*
X179000000Y110250000D01*
X179000000Y108500000D01*
G36*
X179000000Y108500000D02*
G01*
X176000000Y108500000D01*
X176000000Y110250000D01*
X179000000Y110250000D01*
X179000000Y108500000D01*
G37*
X179000000Y99750000D02*
X176000000Y99750000D01*
X176000000Y101500000D01*
X179000000Y101500000D01*
X179000000Y99750000D01*
G36*
X179000000Y99750000D02*
G01*
X176000000Y99750000D01*
X176000000Y101500000D01*
X179000000Y101500000D01*
X179000000Y99750000D01*
G37*
D11*
X138500000Y99900000D03*
X138500000Y102700000D03*
D12*
X42700000Y134675000D03*
X42700000Y133125000D03*
D13*
X144775000Y96000000D03*
X143225000Y96000000D03*
X174775000Y112000000D03*
X173225000Y112000000D03*
X114775000Y112000000D03*
X113225000Y112000000D03*
D14*
X43000000Y82670000D03*
X43000000Y84130000D03*
D12*
X131700000Y90925000D03*
X131700000Y92475000D03*
D14*
X131600000Y136670000D03*
X131600000Y138130000D03*
D15*
X118700000Y73000000D03*
X118700000Y75000000D03*
D14*
X130200000Y28670000D03*
X130200000Y30130000D03*
D13*
X24775000Y44000000D03*
X23225000Y44000000D03*
D15*
X118700000Y42000000D03*
X118700000Y44000000D03*
D12*
X163200000Y144925000D03*
X163200000Y146475000D03*
D15*
X58700000Y73000000D03*
X58700000Y75000000D03*
D16*
X126000000Y96375000D03*
X126000000Y95125000D03*
X126000000Y93875000D03*
X126000000Y92625000D03*
X126000000Y91375000D03*
X126000000Y90125000D03*
X126000000Y88875000D03*
X126000000Y87625000D03*
X126000000Y86375000D03*
X126000000Y85125000D03*
X126000000Y83875000D03*
X126000000Y82625000D03*
X126000000Y81375000D03*
X126000000Y80125000D03*
X126000000Y78875000D03*
X126000000Y77625000D03*
D17*
X123380000Y98750000D03*
X123380000Y75250000D03*
D18*
X105000000Y87250000D03*
X105000000Y86150000D03*
X105000000Y85050000D03*
X105000000Y83950000D03*
X105000000Y82850000D03*
X105000000Y81750000D03*
X105000000Y80650000D03*
X105000000Y79550000D03*
D19*
X115600000Y92750000D03*
D18*
X105000000Y78450000D03*
D20*
X106000000Y77250000D03*
D19*
X115600000Y77250000D03*
D21*
X106000000Y91850000D03*
D15*
X178700000Y42000000D03*
X178700000Y44000000D03*
D13*
X54775000Y96000000D03*
X53225000Y96000000D03*
D15*
X58700000Y127000000D03*
X58700000Y129000000D03*
D16*
X6000000Y96375000D03*
X6000000Y95125000D03*
X6000000Y93875000D03*
X6000000Y92625000D03*
X6000000Y91375000D03*
X6000000Y90125000D03*
X6000000Y88875000D03*
X6000000Y87625000D03*
X6000000Y86375000D03*
X6000000Y85125000D03*
X6000000Y83875000D03*
X6000000Y82625000D03*
X6000000Y81375000D03*
X6000000Y80125000D03*
X6000000Y78875000D03*
X6000000Y77625000D03*
D17*
X3380000Y98750000D03*
X3380000Y75250000D03*
D14*
X40200000Y136670000D03*
X40200000Y138130000D03*
D12*
X12700000Y26675000D03*
X12700000Y25125000D03*
X132700000Y26675000D03*
X132700000Y25125000D03*
D14*
X131600000Y28670000D03*
X131600000Y30130000D03*
D13*
X144775000Y152000000D03*
X143225000Y152000000D03*
D16*
X126000000Y42375000D03*
X126000000Y41125000D03*
X126000000Y39875000D03*
X126000000Y38625000D03*
X126000000Y37375000D03*
X126000000Y36125000D03*
X126000000Y34875000D03*
X126000000Y33625000D03*
X126000000Y32375000D03*
X126000000Y31125000D03*
X126000000Y29875000D03*
X126000000Y28625000D03*
X126000000Y27375000D03*
X126000000Y26125000D03*
X126000000Y24875000D03*
X126000000Y23625000D03*
D17*
X123380000Y44750000D03*
X123380000Y21250000D03*
D11*
X108500000Y153900000D03*
X108500000Y156700000D03*
X108500000Y99900000D03*
X108500000Y102700000D03*
D12*
X102700000Y26675000D03*
X102700000Y25125000D03*
D13*
X84775000Y96000000D03*
X83225000Y96000000D03*
D14*
X161600000Y136670000D03*
X161600000Y138130000D03*
D15*
X148700000Y42000000D03*
X148700000Y44000000D03*
D12*
X54300000Y127225000D03*
X54300000Y128775000D03*
X42700000Y26675000D03*
X42700000Y25125000D03*
X41700000Y144925000D03*
X41700000Y146475000D03*
X84300000Y73225000D03*
X84300000Y74775000D03*
X103200000Y90925000D03*
X103200000Y92475000D03*
D14*
X160200000Y136670000D03*
X160200000Y138130000D03*
D22*
X55900000Y10900000D03*
X55900000Y13750000D03*
X55900000Y15250000D03*
D23*
X56875000Y16800000D03*
X56875000Y9250000D03*
X59075000Y9200000D03*
X59075000Y16800000D03*
D14*
X130200000Y136670000D03*
X130200000Y138130000D03*
D24*
X82525000Y101663000D03*
X82525000Y102463000D03*
X82525000Y103763000D03*
X82525000Y104763000D03*
X82525000Y105263000D03*
X82525000Y106263000D03*
X82525000Y107563000D03*
X82525000Y108338000D03*
X82525000Y108138000D03*
X82525000Y107363000D03*
X82525000Y106763000D03*
X82525000Y105763000D03*
X82525000Y104263000D03*
X82525000Y103263000D03*
X82525000Y102663000D03*
X82525000Y101888000D03*
D12*
X24300000Y19225000D03*
X24300000Y20775000D03*
D15*
X148700000Y19000000D03*
X148700000Y21000000D03*
D22*
X115900000Y10900000D03*
X115900000Y13750000D03*
X115900000Y15250000D03*
D23*
X116875000Y16800000D03*
X116875000Y9250000D03*
X119075000Y9200000D03*
X119075000Y16800000D03*
D13*
X84775000Y44000000D03*
X83225000Y44000000D03*
D14*
X101600000Y136670000D03*
X101600000Y138130000D03*
X160200000Y28670000D03*
X160200000Y30130000D03*
D12*
X133200000Y90925000D03*
X133200000Y92475000D03*
D16*
X36000000Y96375000D03*
X36000000Y95125000D03*
X36000000Y93875000D03*
X36000000Y92625000D03*
X36000000Y91375000D03*
X36000000Y90125000D03*
X36000000Y88875000D03*
X36000000Y87625000D03*
X36000000Y86375000D03*
X36000000Y85125000D03*
X36000000Y83875000D03*
X36000000Y82625000D03*
X36000000Y81375000D03*
X36000000Y80125000D03*
X36000000Y78875000D03*
X36000000Y77625000D03*
D17*
X33380000Y98750000D03*
X33380000Y75250000D03*
D14*
X41600000Y136670000D03*
X41600000Y138130000D03*
D24*
X112525000Y47663000D03*
X112525000Y48463000D03*
X112525000Y49763000D03*
X112525000Y50763000D03*
X112525000Y51263000D03*
X112525000Y52263000D03*
X112525000Y53563000D03*
X112525000Y54338000D03*
X112525000Y54138000D03*
X112525000Y53363000D03*
X112525000Y52763000D03*
X112525000Y51763000D03*
X112525000Y50263000D03*
X112525000Y49263000D03*
X112525000Y48663000D03*
X112525000Y47888000D03*
D12*
X161700000Y36925000D03*
X161700000Y38475000D03*
D24*
X112525000Y155663000D03*
X112525000Y156463000D03*
X112525000Y157763000D03*
X112525000Y158763000D03*
X112525000Y159263000D03*
X112525000Y160263000D03*
X112525000Y161563000D03*
X112525000Y162338000D03*
X112525000Y162138000D03*
X112525000Y161363000D03*
X112525000Y160763000D03*
X112525000Y159763000D03*
X112525000Y158263000D03*
X112525000Y157263000D03*
X112525000Y156663000D03*
X112525000Y155888000D03*
D12*
X73200000Y90925000D03*
X73200000Y92475000D03*
D11*
X18500000Y99900000D03*
X18500000Y102700000D03*
D22*
X175900000Y118900000D03*
X175900000Y121750000D03*
X175900000Y123250000D03*
D23*
X176875000Y124800000D03*
X176875000Y117250000D03*
X179075000Y117200000D03*
X179075000Y124800000D03*
D14*
X103000000Y136670000D03*
X103000000Y138130000D03*
D13*
X144775000Y112000000D03*
X143225000Y112000000D03*
D12*
X131700000Y144925000D03*
X131700000Y146475000D03*
D13*
X174775000Y152000000D03*
X173225000Y152000000D03*
X174775000Y96000000D03*
X173225000Y96000000D03*
D16*
X6000000Y150375000D03*
X6000000Y149125000D03*
X6000000Y147875000D03*
X6000000Y146625000D03*
X6000000Y145375000D03*
X6000000Y144125000D03*
X6000000Y142875000D03*
X6000000Y141625000D03*
X6000000Y140375000D03*
X6000000Y139125000D03*
X6000000Y137875000D03*
X6000000Y136625000D03*
X6000000Y135375000D03*
X6000000Y134125000D03*
X6000000Y132875000D03*
X6000000Y131625000D03*
D17*
X3380000Y152750000D03*
X3380000Y129250000D03*
D13*
X54775000Y112000000D03*
X53225000Y112000000D03*
D24*
X22525000Y47663000D03*
X22525000Y48463000D03*
X22525000Y49763000D03*
X22525000Y50763000D03*
X22525000Y51263000D03*
X22525000Y52263000D03*
X22525000Y53563000D03*
X22525000Y54338000D03*
X22525000Y54138000D03*
X22525000Y53363000D03*
X22525000Y52763000D03*
X22525000Y51763000D03*
X22525000Y50263000D03*
X22525000Y49263000D03*
X22525000Y48663000D03*
X22525000Y47888000D03*
D15*
X28700000Y73000000D03*
X28700000Y75000000D03*
D12*
X133200000Y144925000D03*
X133200000Y146475000D03*
X163200000Y36925000D03*
X163200000Y38475000D03*
D16*
X156000000Y96375000D03*
X156000000Y95125000D03*
X156000000Y93875000D03*
X156000000Y92625000D03*
X156000000Y91375000D03*
X156000000Y90125000D03*
X156000000Y88875000D03*
X156000000Y87625000D03*
X156000000Y86375000D03*
X156000000Y85125000D03*
X156000000Y83875000D03*
X156000000Y82625000D03*
X156000000Y81375000D03*
X156000000Y80125000D03*
X156000000Y78875000D03*
X156000000Y77625000D03*
D17*
X153380000Y98750000D03*
X153380000Y75250000D03*
D14*
X41600000Y82670000D03*
X41600000Y84130000D03*
D18*
X135000000Y87250000D03*
X135000000Y86150000D03*
X135000000Y85050000D03*
X135000000Y83950000D03*
X135000000Y82850000D03*
X135000000Y81750000D03*
X135000000Y80650000D03*
X135000000Y79550000D03*
D19*
X145600000Y92750000D03*
D18*
X135000000Y78450000D03*
D20*
X136000000Y77250000D03*
D19*
X145600000Y77250000D03*
D21*
X136000000Y91850000D03*
D24*
X82525000Y47663000D03*
X82525000Y48463000D03*
X82525000Y49763000D03*
X82525000Y50763000D03*
X82525000Y51263000D03*
X82525000Y52263000D03*
X82525000Y53563000D03*
X82525000Y54338000D03*
X82525000Y54138000D03*
X82525000Y53363000D03*
X82525000Y52763000D03*
X82525000Y51763000D03*
X82525000Y50263000D03*
X82525000Y49263000D03*
X82525000Y48663000D03*
X82525000Y47888000D03*
D13*
X84775000Y42000000D03*
X83225000Y42000000D03*
D12*
X133200000Y36925000D03*
X133200000Y38475000D03*
D11*
X168500000Y99900000D03*
X168500000Y102700000D03*
D13*
X144775000Y42000000D03*
X143225000Y42000000D03*
D14*
X160200000Y82670000D03*
X160200000Y84130000D03*
D16*
X96000000Y150375000D03*
X96000000Y149125000D03*
X96000000Y147875000D03*
X96000000Y146625000D03*
X96000000Y145375000D03*
X96000000Y144125000D03*
X96000000Y142875000D03*
X96000000Y141625000D03*
X96000000Y140375000D03*
X96000000Y139125000D03*
X96000000Y137875000D03*
X96000000Y136625000D03*
X96000000Y135375000D03*
X96000000Y134125000D03*
X96000000Y132875000D03*
X96000000Y131625000D03*
D17*
X93380000Y152750000D03*
X93380000Y129250000D03*
D22*
X145900000Y64900000D03*
X145900000Y67750000D03*
X145900000Y69250000D03*
D23*
X146875000Y70800000D03*
X146875000Y63250000D03*
X149075000Y63200000D03*
X149075000Y70800000D03*
D13*
X24775000Y96000000D03*
X23225000Y96000000D03*
X84775000Y166000000D03*
X83225000Y166000000D03*
D12*
X12700000Y80675000D03*
X12700000Y79125000D03*
D11*
X168500000Y153900000D03*
X168500000Y156700000D03*
D13*
X84775000Y150000000D03*
X83225000Y150000000D03*
D15*
X178700000Y19000000D03*
X178700000Y21000000D03*
D12*
X174300000Y19225000D03*
X174300000Y20775000D03*
D13*
X144775000Y98000000D03*
X143225000Y98000000D03*
X114775000Y44000000D03*
X113225000Y44000000D03*
D12*
X102700000Y80675000D03*
X102700000Y79125000D03*
D15*
X88700000Y42000000D03*
X88700000Y44000000D03*
D13*
X144775000Y44000000D03*
X143225000Y44000000D03*
D12*
X42700000Y80675000D03*
X42700000Y79125000D03*
D11*
X18500000Y153900000D03*
X18500000Y156700000D03*
D15*
X28700000Y42000000D03*
X28700000Y44000000D03*
D14*
X41600000Y28670000D03*
X41600000Y30130000D03*
D15*
X118700000Y150000000D03*
X118700000Y152000000D03*
D12*
X163200000Y90925000D03*
X163200000Y92475000D03*
D13*
X174775000Y150000000D03*
X173225000Y150000000D03*
D12*
X11700000Y36925000D03*
X11700000Y38475000D03*
D15*
X118700000Y96000000D03*
X118700000Y98000000D03*
D13*
X114775000Y166000000D03*
X113225000Y166000000D03*
D14*
X163000000Y82670000D03*
X163000000Y84130000D03*
D22*
X145900000Y10900000D03*
X145900000Y13750000D03*
X145900000Y15250000D03*
D23*
X146875000Y16800000D03*
X146875000Y9250000D03*
X149075000Y9200000D03*
X149075000Y16800000D03*
D13*
X54775000Y166000000D03*
X53225000Y166000000D03*
D22*
X175900000Y64900000D03*
X175900000Y67750000D03*
X175900000Y69250000D03*
D23*
X176875000Y70800000D03*
X176875000Y63250000D03*
X179075000Y63200000D03*
X179075000Y70800000D03*
D13*
X144775000Y150000000D03*
X143225000Y150000000D03*
D11*
X18500000Y45900000D03*
X18500000Y48700000D03*
D16*
X156000000Y42375000D03*
X156000000Y41125000D03*
X156000000Y39875000D03*
X156000000Y38625000D03*
X156000000Y37375000D03*
X156000000Y36125000D03*
X156000000Y34875000D03*
X156000000Y33625000D03*
X156000000Y32375000D03*
X156000000Y31125000D03*
X156000000Y29875000D03*
X156000000Y28625000D03*
X156000000Y27375000D03*
X156000000Y26125000D03*
X156000000Y24875000D03*
X156000000Y23625000D03*
D17*
X153380000Y44750000D03*
X153380000Y21250000D03*
D14*
X161600000Y28670000D03*
X161600000Y30130000D03*
X11600000Y82670000D03*
X11600000Y84130000D03*
D22*
X115900000Y118900000D03*
X115900000Y121750000D03*
X115900000Y123250000D03*
D23*
X116875000Y124800000D03*
X116875000Y117250000D03*
X119075000Y117200000D03*
X119075000Y124800000D03*
D12*
X101700000Y36925000D03*
X101700000Y38475000D03*
D14*
X161600000Y82670000D03*
X161600000Y84130000D03*
X13000000Y28670000D03*
X13000000Y30130000D03*
X71600000Y82670000D03*
X71600000Y84130000D03*
X40200000Y82670000D03*
X40200000Y84130000D03*
D15*
X88700000Y19000000D03*
X88700000Y21000000D03*
D12*
X41700000Y90925000D03*
X41700000Y92475000D03*
D14*
X100200000Y82670000D03*
X100200000Y84130000D03*
D12*
X54300000Y73225000D03*
X54300000Y74775000D03*
D22*
X25900000Y118900000D03*
X25900000Y121750000D03*
X25900000Y123250000D03*
D23*
X26875000Y124800000D03*
X26875000Y117250000D03*
X29075000Y117200000D03*
X29075000Y124800000D03*
D12*
X41700000Y36925000D03*
X41700000Y38475000D03*
D18*
X15000000Y87250000D03*
X15000000Y86150000D03*
X15000000Y85050000D03*
X15000000Y83950000D03*
X15000000Y82850000D03*
X15000000Y81750000D03*
X15000000Y80650000D03*
X15000000Y79550000D03*
D19*
X25600000Y92750000D03*
D18*
X15000000Y78450000D03*
D20*
X16000000Y77250000D03*
D19*
X25600000Y77250000D03*
D21*
X16000000Y91850000D03*
D12*
X103200000Y36925000D03*
X103200000Y38475000D03*
D15*
X88700000Y73000000D03*
X88700000Y75000000D03*
D18*
X75000000Y87250000D03*
X75000000Y86150000D03*
X75000000Y85050000D03*
X75000000Y83950000D03*
X75000000Y82850000D03*
X75000000Y81750000D03*
X75000000Y80650000D03*
X75000000Y79550000D03*
D19*
X85600000Y92750000D03*
D18*
X75000000Y78450000D03*
D20*
X76000000Y77250000D03*
D19*
X85600000Y77250000D03*
D21*
X76000000Y91850000D03*
D11*
X168500000Y45900000D03*
X168500000Y48700000D03*
D13*
X24775000Y112000000D03*
X23225000Y112000000D03*
D15*
X148700000Y150000000D03*
X148700000Y152000000D03*
D11*
X78500000Y45900000D03*
X78500000Y48700000D03*
D14*
X43000000Y28670000D03*
X43000000Y30130000D03*
D11*
X108500000Y45900000D03*
X108500000Y48700000D03*
D14*
X133000000Y28670000D03*
X133000000Y30130000D03*
D24*
X52525000Y101663000D03*
X52525000Y102463000D03*
X52525000Y103763000D03*
X52525000Y104763000D03*
X52525000Y105263000D03*
X52525000Y106263000D03*
X52525000Y107563000D03*
X52525000Y108338000D03*
X52525000Y108138000D03*
X52525000Y107363000D03*
X52525000Y106763000D03*
X52525000Y105763000D03*
X52525000Y104263000D03*
X52525000Y103263000D03*
X52525000Y102663000D03*
X52525000Y101888000D03*
D13*
X24775000Y152000000D03*
X23225000Y152000000D03*
D12*
X24300000Y127225000D03*
X24300000Y128775000D03*
X162700000Y80675000D03*
X162700000Y79125000D03*
D14*
X10200000Y28670000D03*
X10200000Y30130000D03*
D15*
X148700000Y73000000D03*
X148700000Y75000000D03*
X58700000Y19000000D03*
X58700000Y21000000D03*
D11*
X138500000Y153900000D03*
X138500000Y156700000D03*
D13*
X114775000Y96000000D03*
X113225000Y96000000D03*
D12*
X13200000Y144925000D03*
X13200000Y146475000D03*
X73200000Y36925000D03*
X73200000Y38475000D03*
D15*
X28700000Y19000000D03*
X28700000Y21000000D03*
D18*
X105000000Y141250000D03*
X105000000Y140150000D03*
X105000000Y139050000D03*
X105000000Y137950000D03*
X105000000Y136850000D03*
X105000000Y135750000D03*
X105000000Y134650000D03*
X105000000Y133550000D03*
D19*
X115600000Y146750000D03*
D18*
X105000000Y132450000D03*
D20*
X106000000Y131250000D03*
D19*
X115600000Y131250000D03*
D21*
X106000000Y145850000D03*
D15*
X148700000Y96000000D03*
X148700000Y98000000D03*
D22*
X85900000Y10900000D03*
X85900000Y13750000D03*
X85900000Y15250000D03*
D23*
X86875000Y16800000D03*
X86875000Y9250000D03*
X89075000Y9200000D03*
X89075000Y16800000D03*
D14*
X101600000Y28670000D03*
X101600000Y30130000D03*
D12*
X84300000Y127225000D03*
X84300000Y128775000D03*
D14*
X43000000Y136670000D03*
X43000000Y138130000D03*
D13*
X24775000Y42000000D03*
X23225000Y42000000D03*
D15*
X118700000Y127000000D03*
X118700000Y129000000D03*
D12*
X174300000Y73225000D03*
X174300000Y74775000D03*
D14*
X13000000Y82670000D03*
X13000000Y84130000D03*
D12*
X102700000Y134675000D03*
X102700000Y133125000D03*
D14*
X103000000Y28670000D03*
X103000000Y30130000D03*
D15*
X58700000Y96000000D03*
X58700000Y98000000D03*
D13*
X114775000Y58000000D03*
X113225000Y58000000D03*
D14*
X13000000Y136670000D03*
X13000000Y138130000D03*
D13*
X54775000Y98000000D03*
X53225000Y98000000D03*
D16*
X6000000Y42375000D03*
X6000000Y41125000D03*
X6000000Y39875000D03*
X6000000Y38625000D03*
X6000000Y37375000D03*
X6000000Y36125000D03*
X6000000Y34875000D03*
X6000000Y33625000D03*
X6000000Y32375000D03*
X6000000Y31125000D03*
X6000000Y29875000D03*
X6000000Y28625000D03*
X6000000Y27375000D03*
X6000000Y26125000D03*
X6000000Y24875000D03*
X6000000Y23625000D03*
D17*
X3380000Y44750000D03*
X3380000Y21250000D03*
D12*
X72700000Y26675000D03*
X72700000Y25125000D03*
X43200000Y90925000D03*
X43200000Y92475000D03*
D14*
X10200000Y136670000D03*
X10200000Y138130000D03*
D22*
X25900000Y64900000D03*
X25900000Y67750000D03*
X25900000Y69250000D03*
D23*
X26875000Y70800000D03*
X26875000Y63250000D03*
X29075000Y63200000D03*
X29075000Y70800000D03*
D15*
X58700000Y150000000D03*
X58700000Y152000000D03*
D14*
X70200000Y28670000D03*
X70200000Y30130000D03*
D22*
X115900000Y64900000D03*
X115900000Y67750000D03*
X115900000Y69250000D03*
D23*
X116875000Y70800000D03*
X116875000Y63250000D03*
X119075000Y63200000D03*
X119075000Y70800000D03*
D12*
X162700000Y26675000D03*
X162700000Y25125000D03*
D13*
X174775000Y58000000D03*
X173225000Y58000000D03*
D24*
X82525000Y155663000D03*
X82525000Y156463000D03*
X82525000Y157763000D03*
X82525000Y158763000D03*
X82525000Y159263000D03*
X82525000Y160263000D03*
X82525000Y161563000D03*
X82525000Y162338000D03*
X82525000Y162138000D03*
X82525000Y161363000D03*
X82525000Y160763000D03*
X82525000Y159763000D03*
X82525000Y158263000D03*
X82525000Y157263000D03*
X82525000Y156663000D03*
X82525000Y155888000D03*
D12*
X132700000Y134675000D03*
X132700000Y133125000D03*
X162700000Y134675000D03*
X162700000Y133125000D03*
X71700000Y36925000D03*
X71700000Y38475000D03*
D13*
X114775000Y98000000D03*
X113225000Y98000000D03*
D18*
X165000000Y33250000D03*
X165000000Y32150000D03*
X165000000Y31050000D03*
X165000000Y29950000D03*
X165000000Y28850000D03*
X165000000Y27750000D03*
X165000000Y26650000D03*
X165000000Y25550000D03*
D19*
X175600000Y38750000D03*
D18*
X165000000Y24450000D03*
D20*
X166000000Y23250000D03*
D19*
X175600000Y23250000D03*
D21*
X166000000Y37850000D03*
D13*
X24775000Y166000000D03*
X23225000Y166000000D03*
D12*
X161700000Y144925000D03*
X161700000Y146475000D03*
X71700000Y144925000D03*
X71700000Y146475000D03*
X13200000Y90925000D03*
X13200000Y92475000D03*
D15*
X148700000Y127000000D03*
X148700000Y129000000D03*
D11*
X78500000Y99900000D03*
X78500000Y102700000D03*
D13*
X84775000Y112000000D03*
X83225000Y112000000D03*
X24775000Y150000000D03*
X23225000Y150000000D03*
D22*
X145900000Y118900000D03*
X145900000Y121750000D03*
X145900000Y123250000D03*
D23*
X146875000Y124800000D03*
X146875000Y117250000D03*
X149075000Y117200000D03*
X149075000Y124800000D03*
D15*
X178700000Y127000000D03*
X178700000Y129000000D03*
D11*
X48500000Y153900000D03*
X48500000Y156700000D03*
D15*
X118700000Y19000000D03*
X118700000Y21000000D03*
D24*
X22525000Y155663000D03*
X22525000Y156463000D03*
X22525000Y157763000D03*
X22525000Y158763000D03*
X22525000Y159263000D03*
X22525000Y160263000D03*
X22525000Y161563000D03*
X22525000Y162338000D03*
X22525000Y162138000D03*
X22525000Y161363000D03*
X22525000Y160763000D03*
X22525000Y159763000D03*
X22525000Y158263000D03*
X22525000Y157263000D03*
X22525000Y156663000D03*
X22525000Y155888000D03*
D18*
X165000000Y87250000D03*
X165000000Y86150000D03*
X165000000Y85050000D03*
X165000000Y83950000D03*
X165000000Y82850000D03*
X165000000Y81750000D03*
X165000000Y80650000D03*
X165000000Y79550000D03*
D19*
X175600000Y92750000D03*
D18*
X165000000Y78450000D03*
D20*
X166000000Y77250000D03*
D19*
X175600000Y77250000D03*
D21*
X166000000Y91850000D03*
D12*
X114300000Y73225000D03*
X114300000Y74775000D03*
D22*
X25900000Y10900000D03*
X25900000Y13750000D03*
X25900000Y15250000D03*
D23*
X26875000Y16800000D03*
X26875000Y9250000D03*
X29075000Y9200000D03*
X29075000Y16800000D03*
D13*
X174775000Y166000000D03*
X173225000Y166000000D03*
D12*
X73200000Y144925000D03*
X73200000Y146475000D03*
D22*
X55900000Y118900000D03*
X55900000Y121750000D03*
X55900000Y123250000D03*
D23*
X56875000Y124800000D03*
X56875000Y117250000D03*
X59075000Y117200000D03*
X59075000Y124800000D03*
D13*
X84775000Y98000000D03*
X83225000Y98000000D03*
D14*
X133000000Y82670000D03*
X133000000Y84130000D03*
D12*
X11700000Y90925000D03*
X11700000Y92475000D03*
D18*
X135000000Y33250000D03*
X135000000Y32150000D03*
X135000000Y31050000D03*
X135000000Y29950000D03*
X135000000Y28850000D03*
X135000000Y27750000D03*
X135000000Y26650000D03*
X135000000Y25550000D03*
D19*
X145600000Y38750000D03*
D18*
X135000000Y24450000D03*
D20*
X136000000Y23250000D03*
D19*
X145600000Y23250000D03*
D21*
X136000000Y37850000D03*
D22*
X55900000Y64900000D03*
X55900000Y67750000D03*
X55900000Y69250000D03*
D23*
X56875000Y70800000D03*
X56875000Y63250000D03*
X59075000Y63200000D03*
X59075000Y70800000D03*
D14*
X101600000Y82670000D03*
X101600000Y84130000D03*
D12*
X54300000Y19225000D03*
X54300000Y20775000D03*
D13*
X114775000Y42000000D03*
X113225000Y42000000D03*
X144775000Y166000000D03*
X143225000Y166000000D03*
D24*
X142525000Y101663000D03*
X142525000Y102463000D03*
X142525000Y103763000D03*
X142525000Y104763000D03*
X142525000Y105263000D03*
X142525000Y106263000D03*
X142525000Y107563000D03*
X142525000Y108338000D03*
X142525000Y108138000D03*
X142525000Y107363000D03*
X142525000Y106763000D03*
X142525000Y105763000D03*
X142525000Y104263000D03*
X142525000Y103263000D03*
X142525000Y102663000D03*
X142525000Y101888000D03*
D12*
X12700000Y134675000D03*
X12700000Y133125000D03*
D18*
X45000000Y141250000D03*
X45000000Y140150000D03*
X45000000Y139050000D03*
X45000000Y137950000D03*
X45000000Y136850000D03*
X45000000Y135750000D03*
X45000000Y134650000D03*
X45000000Y133550000D03*
D19*
X55600000Y146750000D03*
D18*
X45000000Y132450000D03*
D20*
X46000000Y131250000D03*
D19*
X55600000Y131250000D03*
D21*
X46000000Y145850000D03*
D11*
X48500000Y45900000D03*
X48500000Y48700000D03*
D12*
X24300000Y73225000D03*
X24300000Y74775000D03*
X43200000Y36925000D03*
X43200000Y38475000D03*
D15*
X178700000Y150000000D03*
X178700000Y152000000D03*
D12*
X43200000Y144925000D03*
X43200000Y146475000D03*
D24*
X142525000Y155663000D03*
X142525000Y156463000D03*
X142525000Y157763000D03*
X142525000Y158763000D03*
X142525000Y159263000D03*
X142525000Y160263000D03*
X142525000Y161563000D03*
X142525000Y162338000D03*
X142525000Y162138000D03*
X142525000Y161363000D03*
X142525000Y160763000D03*
X142525000Y159763000D03*
X142525000Y158263000D03*
X142525000Y157263000D03*
X142525000Y156663000D03*
X142525000Y155888000D03*
D14*
X71600000Y28670000D03*
X71600000Y30130000D03*
D22*
X85900000Y118900000D03*
X85900000Y121750000D03*
X85900000Y123250000D03*
D23*
X86875000Y124800000D03*
X86875000Y117250000D03*
X89075000Y117200000D03*
X89075000Y124800000D03*
D15*
X58700000Y42000000D03*
X58700000Y44000000D03*
D12*
X72700000Y80675000D03*
X72700000Y79125000D03*
X161700000Y90925000D03*
X161700000Y92475000D03*
X11700000Y144925000D03*
X11700000Y146475000D03*
D11*
X48500000Y99900000D03*
X48500000Y102700000D03*
D12*
X71700000Y90925000D03*
X71700000Y92475000D03*
D14*
X10200000Y82670000D03*
X10200000Y84130000D03*
D16*
X36000000Y150375000D03*
X36000000Y149125000D03*
X36000000Y147875000D03*
X36000000Y146625000D03*
X36000000Y145375000D03*
X36000000Y144125000D03*
X36000000Y142875000D03*
X36000000Y141625000D03*
X36000000Y140375000D03*
X36000000Y139125000D03*
X36000000Y137875000D03*
X36000000Y136625000D03*
X36000000Y135375000D03*
X36000000Y134125000D03*
X36000000Y132875000D03*
X36000000Y131625000D03*
D17*
X33380000Y152750000D03*
X33380000Y129250000D03*
D13*
X54775000Y44000000D03*
X53225000Y44000000D03*
D14*
X40200000Y28670000D03*
X40200000Y30130000D03*
X11600000Y136670000D03*
X11600000Y138130000D03*
D24*
X142525000Y47663000D03*
X142525000Y48463000D03*
X142525000Y49763000D03*
X142525000Y50763000D03*
X142525000Y51263000D03*
X142525000Y52263000D03*
X142525000Y53563000D03*
X142525000Y54338000D03*
X142525000Y54138000D03*
X142525000Y53363000D03*
X142525000Y52763000D03*
X142525000Y51763000D03*
X142525000Y50263000D03*
X142525000Y49263000D03*
X142525000Y48663000D03*
X142525000Y47888000D03*
D18*
X15000000Y141250000D03*
X15000000Y140150000D03*
X15000000Y139050000D03*
X15000000Y137950000D03*
X15000000Y136850000D03*
X15000000Y135750000D03*
X15000000Y134650000D03*
X15000000Y133550000D03*
D19*
X25600000Y146750000D03*
D18*
X15000000Y132450000D03*
D20*
X16000000Y131250000D03*
D19*
X25600000Y131250000D03*
D21*
X16000000Y145850000D03*
D13*
X174775000Y42000000D03*
X173225000Y42000000D03*
D12*
X144300000Y73225000D03*
X144300000Y74775000D03*
D14*
X133000000Y136670000D03*
X133000000Y138130000D03*
X70200000Y136670000D03*
X70200000Y138130000D03*
D16*
X156000000Y150375000D03*
X156000000Y149125000D03*
X156000000Y147875000D03*
X156000000Y146625000D03*
X156000000Y145375000D03*
X156000000Y144125000D03*
X156000000Y142875000D03*
X156000000Y141625000D03*
X156000000Y140375000D03*
X156000000Y139125000D03*
X156000000Y137875000D03*
X156000000Y136625000D03*
X156000000Y135375000D03*
X156000000Y134125000D03*
X156000000Y132875000D03*
X156000000Y131625000D03*
D17*
X153380000Y152750000D03*
X153380000Y129250000D03*
D12*
X84300000Y19225000D03*
X84300000Y20775000D03*
D15*
X178700000Y73000000D03*
X178700000Y75000000D03*
D16*
X96000000Y42375000D03*
X96000000Y41125000D03*
X96000000Y39875000D03*
X96000000Y38625000D03*
X96000000Y37375000D03*
X96000000Y36125000D03*
X96000000Y34875000D03*
X96000000Y33625000D03*
X96000000Y32375000D03*
X96000000Y31125000D03*
X96000000Y29875000D03*
X96000000Y28625000D03*
X96000000Y27375000D03*
X96000000Y26125000D03*
X96000000Y24875000D03*
X96000000Y23625000D03*
D17*
X93380000Y44750000D03*
X93380000Y21250000D03*
D14*
X100200000Y28670000D03*
X100200000Y30130000D03*
D12*
X103200000Y144925000D03*
X103200000Y146475000D03*
D14*
X130200000Y82670000D03*
X130200000Y84130000D03*
D13*
X54775000Y152000000D03*
X53225000Y152000000D03*
D12*
X72700000Y134675000D03*
X72700000Y133125000D03*
D15*
X28700000Y96000000D03*
X28700000Y98000000D03*
D18*
X45000000Y87250000D03*
X45000000Y86150000D03*
X45000000Y85050000D03*
X45000000Y83950000D03*
X45000000Y82850000D03*
X45000000Y81750000D03*
X45000000Y80650000D03*
X45000000Y79550000D03*
D19*
X55600000Y92750000D03*
D18*
X45000000Y78450000D03*
D20*
X46000000Y77250000D03*
D19*
X55600000Y77250000D03*
D21*
X46000000Y91850000D03*
D13*
X54775000Y58000000D03*
X53225000Y58000000D03*
D11*
X78500000Y153900000D03*
X78500000Y156700000D03*
D14*
X131600000Y82670000D03*
X131600000Y84130000D03*
D15*
X88700000Y150000000D03*
X88700000Y152000000D03*
D18*
X165000000Y141250000D03*
X165000000Y140150000D03*
X165000000Y139050000D03*
X165000000Y137950000D03*
X165000000Y136850000D03*
X165000000Y135750000D03*
X165000000Y134650000D03*
X165000000Y133550000D03*
D19*
X175600000Y146750000D03*
D18*
X165000000Y132450000D03*
D20*
X166000000Y131250000D03*
D19*
X175600000Y131250000D03*
D21*
X166000000Y145850000D03*
D15*
X28700000Y127000000D03*
X28700000Y129000000D03*
D14*
X70200000Y82670000D03*
X70200000Y84130000D03*
X73000000Y136670000D03*
X73000000Y138130000D03*
D24*
X52525000Y155663000D03*
X52525000Y156463000D03*
X52525000Y157763000D03*
X52525000Y158763000D03*
X52525000Y159263000D03*
X52525000Y160263000D03*
X52525000Y161563000D03*
X52525000Y162338000D03*
X52525000Y162138000D03*
X52525000Y161363000D03*
X52525000Y160763000D03*
X52525000Y159763000D03*
X52525000Y158263000D03*
X52525000Y157263000D03*
X52525000Y156663000D03*
X52525000Y155888000D03*
D12*
X101700000Y144925000D03*
X101700000Y146475000D03*
D14*
X103000000Y82670000D03*
X103000000Y84130000D03*
D13*
X114775000Y150000000D03*
X113225000Y150000000D03*
X174775000Y44000000D03*
X173225000Y44000000D03*
D15*
X28700000Y150000000D03*
X28700000Y152000000D03*
D24*
X172525000Y155663000D03*
X172525000Y156463000D03*
X172525000Y157763000D03*
X172525000Y158763000D03*
X172525000Y159263000D03*
X172525000Y160263000D03*
X172525000Y161563000D03*
X172525000Y162338000D03*
X172525000Y162138000D03*
X172525000Y161363000D03*
X172525000Y160763000D03*
X172525000Y159763000D03*
X172525000Y158263000D03*
X172525000Y157263000D03*
X172525000Y156663000D03*
X172525000Y155888000D03*
D13*
X144775000Y58000000D03*
X143225000Y58000000D03*
D24*
X22525000Y101663000D03*
X22525000Y102463000D03*
X22525000Y103763000D03*
X22525000Y104763000D03*
X22525000Y105263000D03*
X22525000Y106263000D03*
X22525000Y107563000D03*
X22525000Y108338000D03*
X22525000Y108138000D03*
X22525000Y107363000D03*
X22525000Y106763000D03*
X22525000Y105763000D03*
X22525000Y104263000D03*
X22525000Y103263000D03*
X22525000Y102663000D03*
X22525000Y101888000D03*
D12*
X114300000Y19225000D03*
X114300000Y20775000D03*
D15*
X88700000Y127000000D03*
X88700000Y129000000D03*
D22*
X175900000Y10900000D03*
X175900000Y13750000D03*
X175900000Y15250000D03*
D23*
X176875000Y16800000D03*
X176875000Y9250000D03*
X179075000Y9200000D03*
X179075000Y16800000D03*
D12*
X144300000Y19225000D03*
X144300000Y20775000D03*
D14*
X100200000Y136670000D03*
X100200000Y138130000D03*
D18*
X75000000Y141250000D03*
X75000000Y140150000D03*
X75000000Y139050000D03*
X75000000Y137950000D03*
X75000000Y136850000D03*
X75000000Y135750000D03*
X75000000Y134650000D03*
X75000000Y133550000D03*
D19*
X85600000Y146750000D03*
D18*
X75000000Y132450000D03*
D20*
X76000000Y131250000D03*
D19*
X85600000Y131250000D03*
D21*
X76000000Y145850000D03*
D18*
X135000000Y141250000D03*
X135000000Y140150000D03*
X135000000Y139050000D03*
X135000000Y137950000D03*
X135000000Y136850000D03*
X135000000Y135750000D03*
X135000000Y134650000D03*
X135000000Y133550000D03*
D19*
X145600000Y146750000D03*
D18*
X135000000Y132450000D03*
D20*
X136000000Y131250000D03*
D19*
X145600000Y131250000D03*
D21*
X136000000Y145850000D03*
D14*
X71600000Y136670000D03*
X71600000Y138130000D03*
D16*
X36000000Y42375000D03*
X36000000Y41125000D03*
X36000000Y39875000D03*
X36000000Y38625000D03*
X36000000Y37375000D03*
X36000000Y36125000D03*
X36000000Y34875000D03*
X36000000Y33625000D03*
X36000000Y32375000D03*
X36000000Y31125000D03*
X36000000Y29875000D03*
X36000000Y28625000D03*
X36000000Y27375000D03*
X36000000Y26125000D03*
X36000000Y24875000D03*
X36000000Y23625000D03*
D17*
X33380000Y44750000D03*
X33380000Y21250000D03*
D24*
X52525000Y47663000D03*
X52525000Y48463000D03*
X52525000Y49763000D03*
X52525000Y50763000D03*
X52525000Y51263000D03*
X52525000Y52263000D03*
X52525000Y53563000D03*
X52525000Y54338000D03*
X52525000Y54138000D03*
X52525000Y53363000D03*
X52525000Y52763000D03*
X52525000Y51763000D03*
X52525000Y50263000D03*
X52525000Y49263000D03*
X52525000Y48663000D03*
X52525000Y47888000D03*
D14*
X163000000Y28670000D03*
X163000000Y30130000D03*
D16*
X96000000Y96375000D03*
X96000000Y95125000D03*
X96000000Y93875000D03*
X96000000Y92625000D03*
X96000000Y91375000D03*
X96000000Y90125000D03*
X96000000Y88875000D03*
X96000000Y87625000D03*
X96000000Y86375000D03*
X96000000Y85125000D03*
X96000000Y83875000D03*
X96000000Y82625000D03*
X96000000Y81375000D03*
X96000000Y80125000D03*
X96000000Y78875000D03*
X96000000Y77625000D03*
D17*
X93380000Y98750000D03*
X93380000Y75250000D03*
D13*
X114775000Y152000000D03*
X113225000Y152000000D03*
D14*
X11600000Y28670000D03*
X11600000Y30130000D03*
D15*
X178700000Y96000000D03*
X178700000Y98000000D03*
D13*
X24775000Y58000000D03*
X23225000Y58000000D03*
X54775000Y42000000D03*
X53225000Y42000000D03*
D14*
X73000000Y28670000D03*
X73000000Y30130000D03*
D13*
X174775000Y98000000D03*
X173225000Y98000000D03*
D12*
X13200000Y36925000D03*
X13200000Y38475000D03*
X144300000Y127225000D03*
X144300000Y128775000D03*
D22*
X85900000Y64900000D03*
X85900000Y67750000D03*
X85900000Y69250000D03*
D23*
X86875000Y70800000D03*
X86875000Y63250000D03*
X89075000Y63200000D03*
X89075000Y70800000D03*
D14*
X73000000Y82670000D03*
X73000000Y84130000D03*
D18*
X75000000Y33250000D03*
X75000000Y32150000D03*
X75000000Y31050000D03*
X75000000Y29950000D03*
X75000000Y28850000D03*
X75000000Y27750000D03*
X75000000Y26650000D03*
X75000000Y25550000D03*
D19*
X85600000Y38750000D03*
D18*
X75000000Y24450000D03*
D20*
X76000000Y23250000D03*
D19*
X85600000Y23250000D03*
D21*
X76000000Y37850000D03*
D24*
X172525000Y47663000D03*
X172525000Y48463000D03*
X172525000Y49763000D03*
X172525000Y50763000D03*
X172525000Y51263000D03*
X172525000Y52263000D03*
X172525000Y53563000D03*
X172525000Y54338000D03*
X172525000Y54138000D03*
X172525000Y53363000D03*
X172525000Y52763000D03*
X172525000Y51763000D03*
X172525000Y50263000D03*
X172525000Y49263000D03*
X172525000Y48663000D03*
X172525000Y47888000D03*
D16*
X66000000Y42375000D03*
X66000000Y41125000D03*
X66000000Y39875000D03*
X66000000Y38625000D03*
X66000000Y37375000D03*
X66000000Y36125000D03*
X66000000Y34875000D03*
X66000000Y33625000D03*
X66000000Y32375000D03*
X66000000Y31125000D03*
X66000000Y29875000D03*
X66000000Y28625000D03*
X66000000Y27375000D03*
X66000000Y26125000D03*
X66000000Y24875000D03*
X66000000Y23625000D03*
D17*
X63380000Y44750000D03*
X63380000Y21250000D03*
D13*
X84775000Y58000000D03*
X83225000Y58000000D03*
D12*
X132700000Y80675000D03*
X132700000Y79125000D03*
D16*
X66000000Y150375000D03*
X66000000Y149125000D03*
X66000000Y147875000D03*
X66000000Y146625000D03*
X66000000Y145375000D03*
X66000000Y144125000D03*
X66000000Y142875000D03*
X66000000Y141625000D03*
X66000000Y140375000D03*
X66000000Y139125000D03*
X66000000Y137875000D03*
X66000000Y136625000D03*
X66000000Y135375000D03*
X66000000Y134125000D03*
X66000000Y132875000D03*
X66000000Y131625000D03*
D17*
X63380000Y152750000D03*
X63380000Y129250000D03*
D11*
X138500000Y45900000D03*
X138500000Y48700000D03*
D15*
X88700000Y96000000D03*
X88700000Y98000000D03*
D18*
X105000000Y33250000D03*
X105000000Y32150000D03*
X105000000Y31050000D03*
X105000000Y29950000D03*
X105000000Y28850000D03*
X105000000Y27750000D03*
X105000000Y26650000D03*
X105000000Y25550000D03*
D19*
X115600000Y38750000D03*
D18*
X105000000Y24450000D03*
D20*
X106000000Y23250000D03*
D19*
X115600000Y23250000D03*
D21*
X106000000Y37850000D03*
D12*
X174300000Y127225000D03*
X174300000Y128775000D03*
D13*
X84775000Y152000000D03*
X83225000Y152000000D03*
D12*
X131700000Y36925000D03*
X131700000Y38475000D03*
D18*
X45000000Y33250000D03*
X45000000Y32150000D03*
X45000000Y31050000D03*
X45000000Y29950000D03*
X45000000Y28850000D03*
X45000000Y27750000D03*
X45000000Y26650000D03*
X45000000Y25550000D03*
D19*
X55600000Y38750000D03*
D18*
X45000000Y24450000D03*
D20*
X46000000Y23250000D03*
D19*
X55600000Y23250000D03*
D21*
X46000000Y37850000D03*
D12*
X101700000Y90925000D03*
X101700000Y92475000D03*
D14*
X163000000Y136670000D03*
X163000000Y138130000D03*
D16*
X126000000Y150375000D03*
X126000000Y149125000D03*
X126000000Y147875000D03*
X126000000Y146625000D03*
X126000000Y145375000D03*
X126000000Y144125000D03*
X126000000Y142875000D03*
X126000000Y141625000D03*
X126000000Y140375000D03*
X126000000Y139125000D03*
X126000000Y137875000D03*
X126000000Y136625000D03*
X126000000Y135375000D03*
X126000000Y134125000D03*
X126000000Y132875000D03*
X126000000Y131625000D03*
D17*
X123380000Y152750000D03*
X123380000Y129250000D03*
D13*
X54775000Y150000000D03*
X53225000Y150000000D03*
D12*
X114300000Y127225000D03*
X114300000Y128775000D03*
D13*
X24775000Y98000000D03*
X23225000Y98000000D03*
D24*
X112525000Y101663000D03*
X112525000Y102463000D03*
X112525000Y103763000D03*
X112525000Y104763000D03*
X112525000Y105263000D03*
X112525000Y106263000D03*
X112525000Y107563000D03*
X112525000Y108338000D03*
X112525000Y108138000D03*
X112525000Y107363000D03*
X112525000Y106763000D03*
X112525000Y105763000D03*
X112525000Y104263000D03*
X112525000Y103263000D03*
X112525000Y102663000D03*
X112525000Y101888000D03*
D16*
X66000000Y96375000D03*
X66000000Y95125000D03*
X66000000Y93875000D03*
X66000000Y92625000D03*
X66000000Y91375000D03*
X66000000Y90125000D03*
X66000000Y88875000D03*
X66000000Y87625000D03*
X66000000Y86375000D03*
X66000000Y85125000D03*
X66000000Y83875000D03*
X66000000Y82625000D03*
X66000000Y81375000D03*
X66000000Y80125000D03*
X66000000Y78875000D03*
X66000000Y77625000D03*
D17*
X63380000Y98750000D03*
X63380000Y75250000D03*
D18*
X15000000Y33250000D03*
X15000000Y32150000D03*
X15000000Y31050000D03*
X15000000Y29950000D03*
X15000000Y28850000D03*
X15000000Y27750000D03*
X15000000Y26650000D03*
X15000000Y25550000D03*
D19*
X25600000Y38750000D03*
D18*
X15000000Y24450000D03*
D20*
X16000000Y23250000D03*
D19*
X25600000Y23250000D03*
D21*
X16000000Y37850000D03*
D24*
X172525000Y101663000D03*
X172525000Y102463000D03*
X172525000Y103763000D03*
X172525000Y104763000D03*
X172525000Y105263000D03*
X172525000Y106263000D03*
X172525000Y107563000D03*
X172525000Y108338000D03*
X172525000Y108138000D03*
X172525000Y107363000D03*
X172525000Y106763000D03*
X172525000Y105763000D03*
X172525000Y104263000D03*
X172525000Y103263000D03*
X172525000Y102663000D03*
X172525000Y101888000D03*
M02*
