G04 #@! TF.GenerationSoftware,KiCad,Pcbnew,8.0.1*
G04 #@! TF.CreationDate,2026-05-11T13:00:19-04:00*
G04 #@! TF.ProjectId,Zerowriter breakout board,5a65726f-7772-4697-9465-722062726561,V1.2.0.*
G04 #@! TF.SameCoordinates,PX7270e00PY8f0d180*
G04 #@! TF.FileFunction,Legend,Top*
G04 #@! TF.FilePolarity,Positive*
%FSLAX46Y46*%
G04 Gerber Fmt 4.6, Leading zero omitted, Abs format (unit mm)*
G04 Created by KiCad (PCBNEW 8.0.1) date 2026-05-11 13:00:19*
%MOMM*%
%LPD*%
G01*
G04 APERTURE LIST*
G04 Aperture macros list*
%AMRoundRect*
0 Rectangle with rounded corners*
0 $1 Rounding radius*
0 $2 $3 $4 $5 $6 $7 $8 $9 X,Y pos of 4 corners*
0 Add a 4 corners polygon primitive as box body*
4,1,4,$2,$3,$4,$5,$6,$7,$8,$9,$2,$3,0*
0 Add four circle primitives for the rounded corners*
1,1,$1+$1,$2,$3*
1,1,$1+$1,$4,$5*
1,1,$1+$1,$6,$7*
1,1,$1+$1,$8,$9*
0 Add four rect primitives between the rounded corners*
20,1,$1+$1,$2,$3,$4,$5,0*
20,1,$1+$1,$4,$5,$6,$7,0*
20,1,$1+$1,$6,$7,$8,$9,0*
20,1,$1+$1,$8,$9,$2,$3,0*%
G04 Aperture macros list end*
%ADD10C,0.000000*%
%ADD11C,0.100000*%
%ADD12C,0.227000*%
%ADD13C,0.850000*%
%ADD14C,0.700000*%
%ADD15RoundRect,0.100000X-0.320000X0.500000X-0.320000X-0.500000X0.320000X-0.500000X0.320000X0.500000X0*%
%ADD16RoundRect,0.100000X-0.500000X-0.320000X0.500000X-0.320000X0.500000X0.320000X-0.500000X0.320000X0*%
%ADD17C,3.200000*%
%ADD18RoundRect,0.100000X0.500000X0.320000X-0.500000X0.320000X-0.500000X-0.320000X0.500000X-0.320000X0*%
%ADD19C,0.850000*%
%ADD20RoundRect,0.100000X0.575000X-0.150000X0.575000X0.150000X-0.575000X0.150000X-0.575000X-0.150000X0*%
%ADD21O,2.300000X1.200000*%
%ADD22RoundRect,0.100000X0.550000X-0.550000X0.550000X0.550000X-0.550000X0.550000X-0.550000X-0.550000X0*%
%ADD23RoundRect,0.100000X1.000000X-0.500000X1.000000X0.500000X-1.000000X0.500000X-1.000000X-0.500000X0*%
%ADD24RoundRect,0.100000X0.500000X-0.330000X0.500000X0.330000X-0.500000X0.330000X-0.500000X-0.330000X0*%
%ADD25RoundRect,0.100000X-0.950000X-0.400000X0.950000X-0.400000X0.950000X0.400000X-0.950000X0.400000X0*%
%ADD26RoundRect,0.100000X1.250000X-1.175000X1.250000X1.175000X-1.250000X1.175000X-1.250000X-1.175000X0*%
%ADD27C,1.100000*%
%ADD28RoundRect,0.100000X-0.600000X0.450000X-0.600000X-0.450000X0.600000X-0.450000X0.600000X0.450000X0*%
%ADD29RoundRect,0.100000X-0.450000X0.400000X-0.450000X-0.400000X0.450000X-0.400000X0.450000X0.400000X0*%
%ADD30C,1.000000*%
%ADD31RoundRect,0.100000X0.800000X-0.350000X0.800000X0.350000X-0.800000X0.350000X-0.800000X-0.350000X0*%
%ADD32RoundRect,0.100000X1.100000X0.600000X-1.100000X0.600000X-1.100000X-0.600000X1.100000X-0.600000X0*%
%ADD33RoundRect,0.100000X0.750000X0.600000X-0.750000X0.600000X-0.750000X-0.600000X0.750000X-0.600000X0*%
%ADD34RoundRect,0.100000X0.800000X0.750000X-0.800000X0.750000X-0.800000X-0.750000X0.800000X-0.750000X0*%
G04 APERTURE END LIST*
D10*
G36*
X17059676Y14313761D02*
G01*
X17129351Y14313386D01*
X17195720Y14312776D01*
X17257409Y14311930D01*
X17313039Y14310848D01*
X17361236Y14309529D01*
X17379871Y14308793D01*
X17400622Y14307973D01*
X17429822Y14306179D01*
X17447458Y14304146D01*
X17451658Y14302966D01*
X17463495Y14294423D01*
X17482253Y14278279D01*
X17505397Y14256814D01*
X17530394Y14232305D01*
X17531513Y14231176D01*
X17592905Y14169152D01*
X17825938Y14169152D01*
X17887330Y14231176D01*
X17912349Y14255767D01*
X17935630Y14277417D01*
X17954638Y14293847D01*
X17966838Y14302778D01*
X17967184Y14302966D01*
X17980781Y14306454D01*
X18005201Y14309243D01*
X18037609Y14311311D01*
X18075172Y14312636D01*
X18115054Y14313195D01*
X18154421Y14312966D01*
X18190440Y14311928D01*
X18220274Y14310057D01*
X18241090Y14307332D01*
X18248296Y14305168D01*
X18256889Y14298509D01*
X18273738Y14283459D01*
X18297461Y14261328D01*
X18326674Y14233425D01*
X18359995Y14201059D01*
X18396041Y14165540D01*
X18401741Y14159879D01*
X18540251Y14022153D01*
X19037595Y14018735D01*
X19534939Y14015316D01*
X19579503Y13994197D01*
X19622881Y13968183D01*
X19663925Y13933655D01*
X19698125Y13894696D01*
X19711072Y13875134D01*
X19716547Y13865938D01*
X19721487Y13857507D01*
X19725922Y13849128D01*
X19729878Y13840092D01*
X19733382Y13829687D01*
X19736461Y13817202D01*
X19739144Y13801927D01*
X19741456Y13783150D01*
X19743427Y13760161D01*
X19745082Y13732249D01*
X19746450Y13698703D01*
X19747557Y13658813D01*
X19748431Y13611866D01*
X19749099Y13557152D01*
X19749589Y13493962D01*
X19749928Y13421582D01*
X19750143Y13339304D01*
X19750261Y13246415D01*
X19750309Y13142205D01*
X19750317Y13025963D01*
X19750309Y12896978D01*
X19750309Y12854261D01*
X19750314Y12721408D01*
X19750312Y12601518D01*
X19750277Y12493876D01*
X19750183Y12397770D01*
X19750002Y12312488D01*
X19749709Y12237317D01*
X19749277Y12171544D01*
X19748681Y12114457D01*
X19747894Y12065343D01*
X19746889Y12023490D01*
X19745641Y11988184D01*
X19744124Y11958713D01*
X19742310Y11934364D01*
X19740174Y11914425D01*
X19737689Y11898184D01*
X19734830Y11884926D01*
X19731569Y11873940D01*
X19727881Y11864514D01*
X19723739Y11855934D01*
X19719118Y11847487D01*
X19713990Y11838462D01*
X19712792Y11836329D01*
X19690794Y11804712D01*
X19660916Y11772059D01*
X19627749Y11742944D01*
X19600609Y11724513D01*
X19593579Y11720370D01*
X19587292Y11716545D01*
X19581203Y11713025D01*
X19574765Y11709798D01*
X19567434Y11706852D01*
X19558664Y11704173D01*
X19547911Y11701750D01*
X19534628Y11699568D01*
X19518271Y11697616D01*
X19498294Y11695881D01*
X19474151Y11694350D01*
X19445298Y11693010D01*
X19411190Y11691850D01*
X19371280Y11690855D01*
X19325024Y11690014D01*
X19271876Y11689313D01*
X19211291Y11688741D01*
X19142724Y11688284D01*
X19065629Y11687929D01*
X18979461Y11687665D01*
X18883675Y11687478D01*
X18777725Y11687355D01*
X18661066Y11687284D01*
X18533153Y11687253D01*
X18393441Y11687248D01*
X18241383Y11687256D01*
X18076436Y11687266D01*
X18000000Y11687268D01*
X17829592Y11687276D01*
X17672327Y11687304D01*
X17527674Y11687355D01*
X17395102Y11687432D01*
X17274078Y11687540D01*
X17164073Y11687681D01*
X17064554Y11687859D01*
X16974990Y11688078D01*
X16894850Y11688342D01*
X16823604Y11688653D01*
X16760718Y11689016D01*
X16705663Y11689433D01*
X16657907Y11689910D01*
X16616918Y11690448D01*
X16582166Y11691052D01*
X16553119Y11691725D01*
X16529246Y11692472D01*
X16510015Y11693294D01*
X16494895Y11694197D01*
X16483356Y11695183D01*
X16474865Y11696256D01*
X16468891Y11697419D01*
X16468434Y11697535D01*
X16410983Y11719251D01*
X16359933Y11752189D01*
X16316850Y11794784D01*
X16283300Y11845467D01*
X16260849Y11902672D01*
X16259879Y11906315D01*
X16258445Y11918726D01*
X16257113Y11943876D01*
X16255885Y11980849D01*
X16254759Y12028729D01*
X16253736Y12086598D01*
X16252815Y12153541D01*
X16251996Y12228640D01*
X16251279Y12310979D01*
X16250663Y12399642D01*
X16250149Y12493711D01*
X16249735Y12592271D01*
X16249423Y12694404D01*
X16249210Y12799194D01*
X16249098Y12905725D01*
X16249086Y13013079D01*
X16249174Y13120341D01*
X16249188Y13128277D01*
X16395576Y13128277D01*
X16395638Y13010802D01*
X16395664Y12982907D01*
X16395808Y12843784D01*
X16395956Y12717678D01*
X16396117Y12603931D01*
X16396298Y12501884D01*
X16396509Y12410880D01*
X16396757Y12330262D01*
X16397050Y12259371D01*
X16397397Y12197550D01*
X16397807Y12144140D01*
X16398286Y12098484D01*
X16398845Y12059925D01*
X16399491Y12027803D01*
X16400232Y12001463D01*
X16401076Y11980244D01*
X16402033Y11963491D01*
X16403109Y11950545D01*
X16404314Y11940748D01*
X16405656Y11933443D01*
X16407143Y11927971D01*
X16408783Y11923675D01*
X16409017Y11923149D01*
X16432390Y11885418D01*
X16464065Y11858299D01*
X16488444Y11846353D01*
X16492498Y11844985D01*
X16497651Y11843724D01*
X16504448Y11842566D01*
X16513433Y11841506D01*
X16525152Y11840540D01*
X16540148Y11839663D01*
X16558966Y11838872D01*
X16582151Y11838162D01*
X16610248Y11837528D01*
X16643802Y11836967D01*
X16683356Y11836473D01*
X16729456Y11836043D01*
X16782646Y11835672D01*
X16843472Y11835357D01*
X16912477Y11835092D01*
X16990207Y11834873D01*
X17077205Y11834696D01*
X17174017Y11834556D01*
X17281188Y11834450D01*
X17399261Y11834373D01*
X17528782Y11834320D01*
X17670296Y11834288D01*
X17824346Y11834271D01*
X17991479Y11834266D01*
X19493916Y11834266D01*
X19521265Y11848985D01*
X19549043Y11866497D01*
X19570007Y11886577D01*
X19585131Y11911408D01*
X19595385Y11943174D01*
X19601741Y11984056D01*
X19605170Y12036240D01*
X19605225Y12037672D01*
X19608544Y12124845D01*
X19196959Y12124845D01*
X19101069Y12124941D01*
X19018384Y12125235D01*
X18948431Y12125735D01*
X18890743Y12126450D01*
X18844849Y12127388D01*
X18810279Y12128557D01*
X18786564Y12129966D01*
X18773235Y12131623D01*
X18770439Y12132483D01*
X18747623Y12151070D01*
X18734299Y12176416D01*
X18731200Y12204801D01*
X18739061Y12232508D01*
X18748073Y12245823D01*
X18764571Y12265007D01*
X19183941Y12268425D01*
X19603311Y12271844D01*
X19605156Y12417133D01*
X19607001Y12562423D01*
X19196187Y12562423D01*
X19100384Y12562519D01*
X19017785Y12562813D01*
X18947919Y12563315D01*
X18890318Y12564031D01*
X18844510Y12564971D01*
X18810028Y12566143D01*
X18786401Y12567555D01*
X18773159Y12569217D01*
X18770439Y12570060D01*
X18747623Y12588648D01*
X18734299Y12613993D01*
X18731200Y12642378D01*
X18739061Y12670085D01*
X18748073Y12683401D01*
X18764571Y12702584D01*
X19183941Y12706003D01*
X19603311Y12709421D01*
X19605156Y12854711D01*
X19607001Y13000000D01*
X19196187Y13000000D01*
X19100384Y13000096D01*
X19017785Y13000391D01*
X18947919Y13000892D01*
X18890318Y13001609D01*
X18844510Y13002549D01*
X18810028Y13003721D01*
X18786401Y13005133D01*
X18773159Y13006794D01*
X18770439Y13007637D01*
X18747623Y13026225D01*
X18734299Y13051571D01*
X18731200Y13079956D01*
X18739061Y13107662D01*
X18748073Y13120978D01*
X18764571Y13140161D01*
X19603311Y13146999D01*
X19607001Y13437577D01*
X19196187Y13437577D01*
X19100384Y13437674D01*
X19017785Y13437968D01*
X18947919Y13438470D01*
X18890318Y13439186D01*
X18844510Y13440126D01*
X18810028Y13441298D01*
X18786401Y13442710D01*
X18773159Y13444371D01*
X18770439Y13445215D01*
X18747623Y13463803D01*
X18734299Y13489148D01*
X18731200Y13517533D01*
X18739061Y13545240D01*
X18748073Y13558555D01*
X18764571Y13577739D01*
X19183941Y13581157D01*
X19603311Y13584576D01*
X19602698Y13673533D01*
X19601987Y13714133D01*
X19600297Y13743825D01*
X19597324Y13765362D01*
X19592763Y13781494D01*
X19590030Y13787895D01*
X19571553Y13815958D01*
X19545656Y13841616D01*
X19516878Y13860859D01*
X19499528Y13867824D01*
X19486483Y13869451D01*
X19459834Y13870874D01*
X19419650Y13872094D01*
X19366000Y13873109D01*
X19298954Y13873918D01*
X19218580Y13874520D01*
X19124948Y13874915D01*
X19018126Y13875101D01*
X18978211Y13875117D01*
X18483017Y13875155D01*
X18335020Y14022153D01*
X18187024Y14169152D01*
X18032203Y14169152D01*
X17963114Y14101226D01*
X17936579Y14075944D01*
X17911838Y14053830D01*
X17891258Y14036901D01*
X17877209Y14027173D01*
X17874777Y14026017D01*
X17861245Y14023569D01*
X17836609Y14021622D01*
X17803419Y14020175D01*
X17764227Y14019229D01*
X17721584Y14018786D01*
X17678042Y14018845D01*
X17636151Y14019409D01*
X17598463Y14020477D01*
X17567529Y14022050D01*
X17545901Y14024130D01*
X17537603Y14025910D01*
X17525959Y14033223D01*
X17507101Y14048310D01*
X17483373Y14069165D01*
X17457119Y14093784D01*
X17449300Y14101408D01*
X17379871Y14169730D01*
X16946396Y14167732D01*
X16858160Y14167303D01*
X16782548Y14166869D01*
X16718509Y14166398D01*
X16664993Y14165857D01*
X16620949Y14165213D01*
X16585328Y14164434D01*
X16557079Y14163487D01*
X16535151Y14162341D01*
X16518493Y14160961D01*
X16506056Y14159316D01*
X16496789Y14157373D01*
X16489642Y14155099D01*
X16485665Y14153442D01*
X16448482Y14131038D01*
X16422054Y14101443D01*
X16404995Y14062874D01*
X16400346Y14043852D01*
X16399700Y14033835D01*
X16399089Y14010918D01*
X16398514Y13975871D01*
X16397981Y13929467D01*
X16397491Y13872480D01*
X16397049Y13805682D01*
X16396659Y13729844D01*
X16396322Y13645741D01*
X16396044Y13554145D01*
X16395827Y13455827D01*
X16395674Y13351562D01*
X16395589Y13242121D01*
X16395576Y13128277D01*
X16249188Y13128277D01*
X16249361Y13226593D01*
X16249648Y13330919D01*
X16250033Y13432403D01*
X16250518Y13530127D01*
X16251101Y13623176D01*
X16251782Y13710632D01*
X16252561Y13791580D01*
X16253438Y13865102D01*
X16254413Y13930281D01*
X16255485Y13986202D01*
X16256654Y14031948D01*
X16257919Y14066602D01*
X16259282Y14089247D01*
X16260466Y14098196D01*
X16282534Y14154043D01*
X16315873Y14204069D01*
X16358704Y14246526D01*
X16409244Y14279666D01*
X16465714Y14301741D01*
X16468738Y14302543D01*
X16483933Y14304715D01*
X16510963Y14306658D01*
X16548450Y14308371D01*
X16595019Y14309855D01*
X16649293Y14311109D01*
X16709896Y14312132D01*
X16775452Y14312923D01*
X16844584Y14313482D01*
X16915916Y14313808D01*
X16988072Y14313902D01*
X17059676Y14313761D01*
G37*
D11*
X24150000Y38400000D02*
X23850000Y38400000D01*
X24150000Y37600000D02*
X23850000Y37600000D01*
X12300000Y20050000D02*
X12300000Y19750000D01*
X13100000Y20050000D02*
X13100000Y19750000D01*
D10*
G36*
X26092771Y36776355D02*
G01*
X26092771Y36461596D01*
X26085994Y36442771D01*
X26071687Y36428464D01*
X26076205Y36422440D01*
X26094277Y36431476D01*
X26115361Y36431476D01*
X26393976Y36344127D01*
X26393976Y36216114D01*
X25406024Y36550452D01*
X25406024Y36615211D01*
X25485843Y36615211D01*
X25508434Y36615964D01*
X25531024Y36613705D01*
X25611032Y36590926D01*
X25688404Y36567771D01*
X25764646Y36543863D01*
X25841265Y36518825D01*
X25969277Y36478163D01*
X25988102Y36466114D01*
X26002410Y36449548D01*
X26008434Y36454066D01*
X25997139Y36472139D01*
X25991867Y36493223D01*
X25991867Y36744729D01*
X25997892Y36765813D01*
X26009940Y36783886D01*
X26002410Y36788404D01*
X25988102Y36771837D01*
X25969277Y36759789D01*
X25841265Y36720633D01*
X25764646Y36695595D01*
X25688404Y36671687D01*
X25611032Y36648532D01*
X25531024Y36625753D01*
X25508434Y36623494D01*
X25485843Y36624247D01*
X25485843Y36615211D01*
X25406024Y36615211D01*
X25406024Y36692018D01*
X26393976Y37026355D01*
X26393976Y36893825D01*
X26115361Y36806476D01*
X26094277Y36806476D01*
X26076205Y36815512D01*
X26071687Y36809488D01*
X26085994Y36795181D01*
X26090060Y36783886D01*
X26092771Y36776355D01*
G37*
G36*
X26272741Y35198042D02*
G01*
X26275000Y35190512D01*
X26332605Y35129518D01*
X26375904Y35060994D01*
X26403012Y34983810D01*
X26412048Y34896837D01*
X26403389Y34807041D01*
X26377410Y34724398D01*
X26335053Y34650602D01*
X26277259Y34587349D01*
X26204217Y34535580D01*
X26116114Y34496235D01*
X26014270Y34471386D01*
X25900000Y34463102D01*
X25787048Y34471386D01*
X25686145Y34496235D01*
X25598419Y34535956D01*
X25525000Y34588855D01*
X25466453Y34653614D01*
X25423343Y34728916D01*
X25396800Y34813065D01*
X25387952Y34904367D01*
X25396611Y34985505D01*
X25422590Y35057229D01*
X25460241Y35118411D01*
X25503916Y35167922D01*
X25506175Y35175452D01*
X25505422Y35182982D01*
X25514458Y35182982D01*
X25513705Y35175452D01*
X25515964Y35167922D01*
X25583735Y35109187D01*
X25591265Y35106928D01*
X25598795Y35107681D01*
X25598795Y35098645D01*
X25591265Y35099398D01*
X25583735Y35097139D01*
X25521235Y35011295D01*
X25497892Y34905873D01*
X25504857Y34838291D01*
X25525753Y34777108D01*
X25559639Y34723456D01*
X25605572Y34678464D01*
X25662989Y34642319D01*
X25731325Y34615211D01*
X25809639Y34598268D01*
X25896988Y34592620D01*
X25985655Y34598080D01*
X26064910Y34614458D01*
X26133998Y34640813D01*
X26192169Y34676205D01*
X26238855Y34720256D01*
X26273494Y34772590D01*
X26294955Y34832643D01*
X26302108Y34899849D01*
X26295331Y34963855D01*
X26275000Y35020331D01*
X26242244Y35071536D01*
X26198193Y35119729D01*
X26190663Y35121988D01*
X26183133Y35121235D01*
X26183133Y35130271D01*
X26190663Y35129518D01*
X26198193Y35131777D01*
X26262952Y35190512D01*
X26265211Y35198042D01*
X26264458Y35205572D01*
X26273494Y35205572D01*
X26272741Y35198042D01*
G37*
G36*
X26400000Y39530873D02*
G01*
X26396235Y39529367D01*
X26393976Y39526355D01*
X26393976Y38951054D01*
X26396235Y38948042D01*
X26400000Y38946536D01*
X26393976Y38940512D01*
X26392470Y38944277D01*
X26389458Y38946536D01*
X25410542Y38946536D01*
X25407530Y38944277D01*
X25406024Y38940512D01*
X25400000Y38946536D01*
X25403765Y38948042D01*
X25406024Y38951054D01*
X25406024Y39511295D01*
X25403765Y39514307D01*
X25400000Y39515813D01*
X25406024Y39521837D01*
X25407530Y39518072D01*
X25410542Y39515813D01*
X25506928Y39515813D01*
X25509940Y39518072D01*
X25511446Y39521837D01*
X25517470Y39515813D01*
X25513705Y39514307D01*
X25511446Y39511295D01*
X25511446Y39095633D01*
X25505422Y39076807D01*
X25491867Y39060994D01*
X25499398Y39053464D01*
X25515211Y39067018D01*
X25534036Y39073042D01*
X25799096Y39073042D01*
X25817922Y39067018D01*
X25833735Y39053464D01*
X25841265Y39060994D01*
X25827711Y39076807D01*
X25821687Y39095633D01*
X25821687Y39442018D01*
X25819428Y39445030D01*
X25815663Y39446536D01*
X25821687Y39452560D01*
X25823193Y39448795D01*
X25826205Y39446536D01*
X25924096Y39446536D01*
X25927108Y39448795D01*
X25928614Y39452560D01*
X25934639Y39446536D01*
X25930873Y39445030D01*
X25928614Y39442018D01*
X25928614Y39095633D01*
X25922590Y39076807D01*
X25909036Y39060994D01*
X25916566Y39053464D01*
X25932380Y39067018D01*
X25951205Y39073042D01*
X26264458Y39073042D01*
X26283283Y39067018D01*
X26299096Y39053464D01*
X26306627Y39060994D01*
X26293072Y39076807D01*
X26287048Y39095633D01*
X26287048Y39526355D01*
X26284789Y39529367D01*
X26281024Y39530873D01*
X26287048Y39536898D01*
X26288554Y39533133D01*
X26291566Y39530873D01*
X26389458Y39530873D01*
X26392470Y39533133D01*
X26393976Y39536898D01*
X26400000Y39530873D01*
G37*
G36*
X26400000Y36083584D02*
G01*
X26396235Y36082078D01*
X26393976Y36079066D01*
X26393976Y35963102D01*
X26396235Y35960090D01*
X26400000Y35958584D01*
X26393976Y35952560D01*
X26392470Y35956325D01*
X26389458Y35958584D01*
X25951205Y35958584D01*
X25931627Y35964608D01*
X25915060Y35978163D01*
X25909036Y35972139D01*
X25922590Y35955572D01*
X25928614Y35935994D01*
X25928614Y35521837D01*
X25922590Y35502259D01*
X25909036Y35485693D01*
X25915060Y35479669D01*
X25931627Y35493223D01*
X25951205Y35499247D01*
X26389458Y35499247D01*
X26392470Y35501506D01*
X26393976Y35505271D01*
X26400000Y35499247D01*
X26396235Y35497741D01*
X26393976Y35494729D01*
X26393976Y35377259D01*
X26396235Y35374247D01*
X26400000Y35372741D01*
X26393976Y35366717D01*
X26392470Y35370482D01*
X26389458Y35372741D01*
X25410542Y35372741D01*
X25407530Y35370482D01*
X25406024Y35366717D01*
X25400000Y35372741D01*
X25403765Y35374247D01*
X25406024Y35377259D01*
X25406024Y35494729D01*
X25403765Y35497741D01*
X25400000Y35499247D01*
X25406024Y35505271D01*
X25407530Y35501506D01*
X25410542Y35499247D01*
X25797590Y35499247D01*
X25817169Y35493223D01*
X25833735Y35479669D01*
X25839759Y35485693D01*
X25826205Y35502259D01*
X25820181Y35521837D01*
X25820181Y35935994D01*
X25826205Y35955572D01*
X25839759Y35972139D01*
X25833735Y35978163D01*
X25817169Y35964608D01*
X25797590Y35958584D01*
X25410542Y35958584D01*
X25407530Y35956325D01*
X25406024Y35952560D01*
X25400000Y35958584D01*
X25403765Y35960090D01*
X25406024Y35963102D01*
X25406024Y36079066D01*
X25403765Y36082078D01*
X25400000Y36083584D01*
X25406024Y36089608D01*
X25407530Y36085843D01*
X25410542Y36083584D01*
X26389458Y36083584D01*
X26392470Y36085843D01*
X26393976Y36089608D01*
X26400000Y36083584D01*
G37*
G36*
X25963253Y37264307D02*
G01*
X25979819Y37277861D01*
X25999398Y37283886D01*
X26389458Y37283886D01*
X26392470Y37286898D01*
X26393976Y37291416D01*
X26401506Y37283886D01*
X26396988Y37282380D01*
X26393976Y37279367D01*
X26393976Y37161898D01*
X26396988Y37158886D01*
X26401506Y37157380D01*
X26393976Y37149849D01*
X26392470Y37154367D01*
X26389458Y37157380D01*
X25410542Y37157380D01*
X25407530Y37154367D01*
X25406024Y37149849D01*
X25398494Y37157380D01*
X25403012Y37158886D01*
X25406024Y37161898D01*
X25406024Y37270331D01*
X25487349Y37270331D01*
X25493373Y37264307D01*
X25509940Y37277861D01*
X25529518Y37283886D01*
X25851807Y37283886D01*
X25871386Y37277861D01*
X25887952Y37264307D01*
X25893976Y37270331D01*
X25880422Y37286898D01*
X25874398Y37306476D01*
X25874398Y37449548D01*
X25862538Y37551770D01*
X25826958Y37626506D01*
X25767282Y37672252D01*
X25683133Y37687500D01*
X25599925Y37672252D01*
X25546084Y37626506D01*
X25516717Y37551770D01*
X25506928Y37449548D01*
X25506928Y37306476D01*
X25500904Y37286898D01*
X25487349Y37270331D01*
X25406024Y37270331D01*
X25406024Y37467620D01*
X25409601Y37539910D01*
X25420331Y37606175D01*
X25467771Y37715361D01*
X25553614Y37786898D01*
X25612349Y37806099D01*
X25683133Y37812500D01*
X25781401Y37799134D01*
X25859337Y37759036D01*
X25917696Y37695971D01*
X25957229Y37613705D01*
X25956476Y37592620D01*
X25949699Y37571536D01*
X25958735Y37568524D01*
X25982831Y37603163D01*
X26389458Y37839608D01*
X26391717Y37843373D01*
X26392470Y37848645D01*
X26400000Y37844127D01*
X26396235Y37841114D01*
X26393976Y37838102D01*
X26393976Y37704066D01*
X26395482Y37701807D01*
X26400000Y37701054D01*
X26395482Y37693524D01*
X26392470Y37696536D01*
X26389458Y37696536D01*
X25985843Y37467620D01*
X25969277Y37470633D01*
X25964759Y37463102D01*
X25976807Y37451054D01*
X25976807Y37306476D01*
X25970783Y37286898D01*
X25957229Y37270331D01*
X25963253Y37264307D01*
G37*
G36*
X25883434Y38721386D02*
G01*
X25886446Y38719127D01*
X26297590Y38719127D01*
X26342018Y38663027D01*
X26378916Y38591114D01*
X26403765Y38506401D01*
X26412048Y38411898D01*
X26403389Y38319089D01*
X26377410Y38233434D01*
X26335053Y38157191D01*
X26277259Y38092620D01*
X26204217Y38040286D01*
X26116114Y38000753D01*
X26014270Y37975904D01*
X25900000Y37967620D01*
X25787048Y37976092D01*
X25686145Y38001506D01*
X25598419Y38042169D01*
X25525000Y38096386D01*
X25466453Y38163027D01*
X25423343Y38240964D01*
X25396800Y38328502D01*
X25387952Y38423946D01*
X25398494Y38515060D01*
X25425602Y38591114D01*
X25463253Y38653614D01*
X25506928Y38704066D01*
X25506928Y38707078D01*
X25505422Y38711596D01*
X25514458Y38711596D01*
X25512952Y38707078D01*
X25512952Y38704066D01*
X25586747Y38637801D01*
X25589759Y38637801D01*
X25594277Y38639307D01*
X25594277Y38630271D01*
X25589759Y38631777D01*
X25586747Y38631777D01*
X25522741Y38545934D01*
X25504104Y38491717D01*
X25497892Y38425452D01*
X25504857Y38353916D01*
X25525753Y38289910D01*
X25559639Y38233998D01*
X25605572Y38186747D01*
X25662989Y38148720D01*
X25731325Y38120482D01*
X25809639Y38102974D01*
X25896988Y38097139D01*
X25985655Y38102598D01*
X26064910Y38118976D01*
X26133998Y38145708D01*
X26192169Y38182229D01*
X26238855Y38228727D01*
X26273494Y38285392D01*
X26294955Y38351280D01*
X26302108Y38425452D01*
X26290813Y38513554D01*
X26258434Y38586596D01*
X26256928Y38624247D01*
X26249398Y38627259D01*
X26237349Y38611446D01*
X26219277Y38604669D01*
X26009940Y38604669D01*
X25989608Y38610693D01*
X25972289Y38624247D01*
X25966265Y38618223D01*
X25979819Y38600904D01*
X25985843Y38580572D01*
X25985843Y38399849D01*
X25988102Y38396837D01*
X25991867Y38395331D01*
X25985843Y38389307D01*
X25984337Y38393072D01*
X25981325Y38395331D01*
X25886446Y38395331D01*
X25883434Y38393072D01*
X25881928Y38389307D01*
X25875904Y38395331D01*
X25879669Y38396837D01*
X25881928Y38399849D01*
X25881928Y38714608D01*
X25879669Y38717620D01*
X25875904Y38719127D01*
X25881928Y38725151D01*
X25883434Y38721386D01*
G37*
G36*
X22993663Y4740988D02*
G01*
X23011125Y4755275D01*
X23031763Y4761625D01*
X23415938Y4761625D01*
X23419113Y4764006D01*
X23420700Y4767975D01*
X23427050Y4761625D01*
X23423081Y4760037D01*
X23420700Y4756863D01*
X23420700Y4633038D01*
X23423081Y4629862D01*
X23427050Y4628275D01*
X23420700Y4621925D01*
X23419113Y4625894D01*
X23415938Y4628275D01*
X22384062Y4628275D01*
X22380887Y4625894D01*
X22379300Y4621925D01*
X22372950Y4628275D01*
X22376919Y4629862D01*
X22379300Y4633038D01*
X22379300Y4747337D01*
X22465025Y4747337D01*
X22471375Y4740988D01*
X22488837Y4755275D01*
X22509475Y4761625D01*
X22876188Y4761625D01*
X22896825Y4755275D01*
X22914288Y4740988D01*
X22920637Y4747337D01*
X22906350Y4764800D01*
X22900000Y4785437D01*
X22900000Y4931488D01*
X22887102Y5051542D01*
X22848406Y5135481D01*
X22781930Y5184892D01*
X22685687Y5201363D01*
X22590239Y5184495D01*
X22529319Y5133894D01*
X22496577Y5049558D01*
X22485662Y4931488D01*
X22485662Y4785437D01*
X22479312Y4764800D01*
X22465025Y4747337D01*
X22379300Y4747337D01*
X22379300Y4948950D01*
X22383269Y5031103D01*
X22395175Y5106112D01*
X22416011Y5172192D01*
X22446769Y5227556D01*
X22541225Y5305344D01*
X22606709Y5326180D01*
X22685687Y5333125D01*
X22762681Y5326180D01*
X22828562Y5305344D01*
X22928575Y5226763D01*
X22963302Y5171002D01*
X22988106Y5105319D01*
X23002989Y5030905D01*
X23007950Y4948950D01*
X23007950Y4785437D01*
X23001600Y4764800D01*
X22987313Y4747337D01*
X22993663Y4740988D01*
G37*
G36*
X23430225Y5826242D02*
G01*
X23401650Y5740319D01*
X23355414Y5664119D01*
X23292906Y5599031D01*
X23214722Y5546247D01*
X23121456Y5506956D01*
X23014498Y5482548D01*
X22895238Y5474413D01*
X22776373Y5482548D01*
X22670606Y5506956D01*
X22578928Y5546247D01*
X22502331Y5599031D01*
X22441411Y5664119D01*
X22396762Y5740319D01*
X22369378Y5826242D01*
X22360250Y5920500D01*
X22476137Y5920500D01*
X22483480Y5853825D01*
X22505506Y5793500D01*
X22588850Y5695869D01*
X22648778Y5659952D01*
X22720613Y5633163D01*
X22803163Y5616494D01*
X22895238Y5610938D01*
X22987709Y5616494D01*
X23071450Y5633163D01*
X23145070Y5659952D01*
X23207181Y5695869D01*
X23256989Y5740517D01*
X23293700Y5793500D01*
X23316322Y5853825D01*
X23323863Y5920500D01*
X23316322Y5986977D01*
X23293700Y6046706D01*
X23256989Y6099094D01*
X23207181Y6143544D01*
X23145070Y6179461D01*
X23071450Y6206250D01*
X22987709Y6222919D01*
X22895238Y6228475D01*
X22803163Y6222919D01*
X22720613Y6206250D01*
X22648778Y6179461D01*
X22588850Y6143544D01*
X22505506Y6046706D01*
X22483480Y5986977D01*
X22476137Y5920500D01*
X22360250Y5920500D01*
X22369577Y6014559D01*
X22397556Y6099888D01*
X22442800Y6175492D01*
X22503919Y6240381D01*
X22580516Y6293166D01*
X22672194Y6332456D01*
X22777564Y6356864D01*
X22895238Y6365000D01*
X23014498Y6356864D01*
X23121456Y6332456D01*
X23214722Y6293166D01*
X23292906Y6240381D01*
X23355414Y6175492D01*
X23401650Y6099888D01*
X23430225Y6014559D01*
X23439750Y5920500D01*
X23430225Y5826242D01*
G37*
G36*
X23427050Y8436688D02*
G01*
X23423081Y8435100D01*
X23420700Y8431925D01*
X23420700Y7825500D01*
X23423081Y7822325D01*
X23427050Y7820738D01*
X23420700Y7814388D01*
X23419113Y7818356D01*
X23415938Y7820738D01*
X22384062Y7820738D01*
X22380887Y7818356D01*
X22379300Y7814388D01*
X22372950Y7820738D01*
X22376919Y7822325D01*
X22379300Y7825500D01*
X22379300Y8416050D01*
X22376919Y8419225D01*
X22372950Y8420813D01*
X22379300Y8427163D01*
X22380887Y8423194D01*
X22384062Y8420813D01*
X22485662Y8420813D01*
X22488837Y8423194D01*
X22490425Y8427163D01*
X22496775Y8420813D01*
X22492806Y8419225D01*
X22490425Y8416050D01*
X22490425Y7977900D01*
X22484075Y7958056D01*
X22469787Y7941388D01*
X22477725Y7933450D01*
X22494394Y7947738D01*
X22514237Y7954088D01*
X22793637Y7954088D01*
X22813481Y7947738D01*
X22830150Y7933450D01*
X22838088Y7941388D01*
X22823800Y7958056D01*
X22817450Y7977900D01*
X22817450Y8343025D01*
X22815069Y8346200D01*
X22811100Y8347788D01*
X22817450Y8354138D01*
X22819037Y8350169D01*
X22822212Y8347788D01*
X22925400Y8347788D01*
X22928575Y8350169D01*
X22930162Y8354138D01*
X22936512Y8347788D01*
X22932544Y8346200D01*
X22930162Y8343025D01*
X22930162Y7977900D01*
X22923812Y7958056D01*
X22909525Y7941388D01*
X22917462Y7933450D01*
X22934131Y7947738D01*
X22953975Y7954088D01*
X23284175Y7954088D01*
X23304019Y7947738D01*
X23320688Y7933450D01*
X23328625Y7941388D01*
X23314337Y7958056D01*
X23307987Y7977900D01*
X23307987Y8431925D01*
X23305606Y8435100D01*
X23301637Y8436688D01*
X23307987Y8443038D01*
X23309575Y8439069D01*
X23312750Y8436688D01*
X23415938Y8436688D01*
X23419113Y8439069D01*
X23420700Y8443038D01*
X23427050Y8436688D01*
G37*
G36*
X22966675Y8762125D02*
G01*
X22984137Y8776413D01*
X23004775Y8782763D01*
X23415938Y8782763D01*
X23419113Y8785938D01*
X23420700Y8790700D01*
X23428638Y8782763D01*
X23423875Y8781175D01*
X23420700Y8778000D01*
X23420700Y8654175D01*
X23423875Y8651000D01*
X23428638Y8649413D01*
X23420700Y8641475D01*
X23419113Y8646238D01*
X23415938Y8649413D01*
X22384062Y8649413D01*
X22380887Y8646238D01*
X22379300Y8641475D01*
X22371362Y8649413D01*
X22376125Y8651000D01*
X22379300Y8654175D01*
X22379300Y8768475D01*
X22465025Y8768475D01*
X22471375Y8762125D01*
X22488837Y8776413D01*
X22509475Y8782763D01*
X22849200Y8782763D01*
X22869838Y8776413D01*
X22887300Y8762125D01*
X22893650Y8768475D01*
X22879362Y8785938D01*
X22873013Y8806575D01*
X22873013Y8957388D01*
X22860511Y9065139D01*
X22823006Y9143919D01*
X22760102Y9192139D01*
X22671400Y9208213D01*
X22583691Y9192139D01*
X22526937Y9143919D01*
X22495981Y9065139D01*
X22485662Y8957388D01*
X22485662Y8806575D01*
X22479312Y8785938D01*
X22465025Y8768475D01*
X22379300Y8768475D01*
X22379300Y8976438D01*
X22383070Y9052638D01*
X22394381Y9122488D01*
X22444387Y9237581D01*
X22534875Y9312988D01*
X22596787Y9333228D01*
X22671400Y9339975D01*
X22774984Y9325886D01*
X22857138Y9283619D01*
X22918653Y9217142D01*
X22960325Y9130425D01*
X22959531Y9108200D01*
X22952388Y9085975D01*
X22961912Y9082800D01*
X22987313Y9119313D01*
X23415938Y9368550D01*
X23418319Y9372519D01*
X23419113Y9378075D01*
X23427050Y9373313D01*
X23423081Y9370138D01*
X23420700Y9366963D01*
X23420700Y9225675D01*
X23422288Y9223294D01*
X23427050Y9222500D01*
X23422288Y9214563D01*
X23419113Y9217738D01*
X23415938Y9217738D01*
X22990487Y8976438D01*
X22973025Y8979613D01*
X22968263Y8971675D01*
X22980963Y8958975D01*
X22980963Y8806575D01*
X22974613Y8785938D01*
X22960325Y8768475D01*
X22966675Y8762125D01*
G37*
G36*
X22381681Y7650875D02*
G01*
X22384062Y7647700D01*
X23415938Y7434975D01*
X23419113Y7436563D01*
X23420700Y7439738D01*
X23427050Y7431800D01*
X23423081Y7431006D01*
X23420700Y7428625D01*
X23420700Y7277813D01*
X23423081Y7275431D01*
X23427050Y7274638D01*
X23420700Y7266700D01*
X23419113Y7269875D01*
X23415938Y7271463D01*
X22793637Y7115888D01*
X22688862Y7091281D01*
X22585675Y7068263D01*
X22557100Y7066675D01*
X22528525Y7068263D01*
X22526937Y7058738D01*
X22556306Y7059531D01*
X22585675Y7057150D01*
X22688862Y7032544D01*
X22793637Y7007938D01*
X23415938Y6853950D01*
X23419113Y6855538D01*
X23420700Y6858713D01*
X23427050Y6850775D01*
X23423081Y6849981D01*
X23420700Y6847600D01*
X23420700Y6699963D01*
X23423081Y6697581D01*
X23427050Y6696788D01*
X23420700Y6688850D01*
X23419113Y6692025D01*
X23415938Y6693613D01*
X22384062Y6476125D01*
X22381681Y6472950D01*
X22380887Y6468188D01*
X22372950Y6474538D01*
X22376919Y6476125D01*
X22379300Y6479300D01*
X22379300Y6606300D01*
X22376919Y6608681D01*
X22372950Y6609475D01*
X22379300Y6617413D01*
X22380887Y6614238D01*
X22384062Y6612650D01*
X22946037Y6720600D01*
X23023428Y6735284D01*
X23100025Y6750763D01*
X23176622Y6766241D01*
X23254013Y6780925D01*
X23282587Y6782513D01*
X23311163Y6780925D01*
X23312750Y6790450D01*
X23283381Y6789656D01*
X23254013Y6792038D01*
X23176423Y6808508D01*
X23099231Y6826169D01*
X23022436Y6844227D01*
X22946037Y6861888D01*
X22384062Y7004763D01*
X22380887Y7003175D01*
X22379300Y7000000D01*
X22372950Y7007938D01*
X22376919Y7008731D01*
X22379300Y7011113D01*
X22379300Y7122238D01*
X22376919Y7124619D01*
X22372950Y7125413D01*
X22379300Y7133350D01*
X22380887Y7130175D01*
X22384062Y7128588D01*
X22946037Y7271463D01*
X23022436Y7289123D01*
X23099231Y7307181D01*
X23176423Y7325239D01*
X23254013Y7342900D01*
X23283381Y7345281D01*
X23312750Y7344488D01*
X23311163Y7354013D01*
X23282587Y7352425D01*
X23254013Y7354013D01*
X23176423Y7368498D01*
X23099231Y7383381D01*
X23022436Y7397867D01*
X22946037Y7411163D01*
X22384062Y7519113D01*
X22380887Y7517525D01*
X22379300Y7514350D01*
X22372950Y7522288D01*
X22376919Y7523081D01*
X22379300Y7525463D01*
X22379300Y7644525D01*
X22376919Y7647700D01*
X22372950Y7649288D01*
X22380887Y7655638D01*
X22381681Y7650875D01*
G37*
D11*
X23900000Y13850000D02*
X23900000Y14150000D01*
X24700000Y13850000D02*
X24700000Y14150000D01*
X22075000Y49688000D02*
X22075000Y48738000D01*
X22075000Y41263000D02*
X22075000Y40288000D01*
X29200000Y49613000D02*
X30000000Y49613000D01*
X30000000Y40413000D02*
X29200000Y40413000D01*
X30000000Y40413000D02*
X30000000Y49613000D01*
D10*
G36*
X13832078Y1335843D02*
G01*
X13485693Y1335843D01*
X13485693Y1430723D01*
X13832078Y1430723D01*
X13832078Y1335843D01*
G37*
G36*
X16545934Y1335843D02*
G01*
X16199548Y1335843D01*
X16199548Y1430723D01*
X16545934Y1430723D01*
X16545934Y1335843D01*
G37*
G36*
X8530120Y1694277D02*
G01*
X8556476Y1625000D01*
X8530120Y1557229D01*
X8467620Y1531627D01*
X8403614Y1557229D01*
X8377259Y1625000D01*
X8403614Y1694277D01*
X8467620Y1719880D01*
X8530120Y1694277D01*
G37*
G36*
X8530120Y1151355D02*
G01*
X8556476Y1081325D01*
X8530120Y1014307D01*
X8467620Y987952D01*
X8403614Y1014307D01*
X8377259Y1081325D01*
X8403614Y1151355D01*
X8467620Y1177711D01*
X8530120Y1151355D01*
G37*
G36*
X11639307Y1006024D02*
G01*
X11506777Y1006024D01*
X11419428Y1284639D01*
X11419428Y1305723D01*
X11428464Y1323795D01*
X11422440Y1328313D01*
X11408133Y1314006D01*
X11396837Y1309940D01*
X11389307Y1307229D01*
X11074548Y1307229D01*
X11055723Y1314006D01*
X11041416Y1328313D01*
X11035392Y1323795D01*
X11044428Y1305723D01*
X11044428Y1284639D01*
X10957078Y1006024D01*
X10829066Y1006024D01*
X10961578Y1397590D01*
X11062500Y1397590D01*
X11067018Y1391566D01*
X11085090Y1402861D01*
X11106175Y1408133D01*
X11357681Y1408133D01*
X11378765Y1402108D01*
X11396837Y1390060D01*
X11401355Y1397590D01*
X11384789Y1411898D01*
X11372741Y1430723D01*
X11333584Y1558735D01*
X11308547Y1635354D01*
X11284639Y1711596D01*
X11261483Y1788968D01*
X11238705Y1868976D01*
X11236446Y1891566D01*
X11237199Y1914157D01*
X11228163Y1914157D01*
X11228916Y1891566D01*
X11226657Y1868976D01*
X11203878Y1788968D01*
X11180723Y1711596D01*
X11156815Y1635354D01*
X11131777Y1558735D01*
X11091114Y1430723D01*
X11079066Y1411898D01*
X11062500Y1397590D01*
X10961578Y1397590D01*
X11163404Y1993976D01*
X11304970Y1993976D01*
X11639307Y1006024D01*
G37*
G36*
X12989364Y1986069D02*
G01*
X13083208Y1962349D01*
X13163309Y1922816D01*
X13229669Y1867470D01*
X13281721Y1797346D01*
X13318901Y1713479D01*
X13341209Y1615870D01*
X13348645Y1504518D01*
X13341256Y1392884D01*
X13319089Y1294428D01*
X13282144Y1209149D01*
X13230422Y1137048D01*
X13164674Y1079725D01*
X13085655Y1038780D01*
X12993364Y1014213D01*
X12887801Y1006024D01*
X12746235Y1006024D01*
X12634789Y1006024D01*
X12634789Y1094880D01*
X12740211Y1094880D01*
X12746235Y1088855D01*
X12763554Y1102410D01*
X12783886Y1108434D01*
X12872741Y1108434D01*
X12978581Y1119980D01*
X13065177Y1154618D01*
X13132530Y1212349D01*
X13180639Y1290997D01*
X13209505Y1388387D01*
X13219127Y1504518D01*
X13209505Y1620147D01*
X13180639Y1716031D01*
X13132530Y1792169D01*
X13065177Y1847390D01*
X12978581Y1880522D01*
X12872741Y1891566D01*
X12783886Y1891566D01*
X12763554Y1897590D01*
X12746235Y1911145D01*
X12740211Y1905120D01*
X12753765Y1887801D01*
X12759789Y1867470D01*
X12759789Y1132530D01*
X12753765Y1112199D01*
X12740211Y1094880D01*
X12634789Y1094880D01*
X12634789Y1993976D01*
X12881777Y1993976D01*
X12989364Y1986069D01*
G37*
G36*
X15105171Y1970884D02*
G01*
X15180472Y1928715D01*
X15241717Y1858434D01*
X15277297Y1787933D01*
X15302711Y1702937D01*
X15317959Y1603445D01*
X15323042Y1489458D01*
X15317959Y1375282D01*
X15302711Y1275226D01*
X15277297Y1189288D01*
X15241717Y1117470D01*
X15180472Y1045515D01*
X15105171Y1002343D01*
X15015813Y987952D01*
X14925619Y1002343D01*
X14849816Y1045515D01*
X14788404Y1117470D01*
X14752824Y1189288D01*
X14727410Y1275226D01*
X14712161Y1375282D01*
X14707078Y1489458D01*
X14827560Y1489458D01*
X14833333Y1361697D01*
X14850653Y1259538D01*
X14879518Y1182982D01*
X14939571Y1111258D01*
X15015813Y1087349D01*
X15091867Y1111258D01*
X15151355Y1182982D01*
X15179803Y1259538D01*
X15196871Y1361697D01*
X15202560Y1489458D01*
X15196871Y1616884D01*
X15179803Y1718039D01*
X15151355Y1792922D01*
X15091867Y1862387D01*
X15015813Y1885542D01*
X14939006Y1862952D01*
X14879518Y1792922D01*
X14857492Y1738517D01*
X14841114Y1670181D01*
X14830949Y1587349D01*
X14827560Y1489458D01*
X14707078Y1489458D01*
X14712161Y1603445D01*
X14727410Y1702937D01*
X14752824Y1787933D01*
X14788404Y1858434D01*
X14849816Y1928715D01*
X14925619Y1970884D01*
X15015813Y1984940D01*
X15105171Y1970884D01*
G37*
G36*
X6585090Y1996235D02*
G01*
X6588102Y1993976D01*
X6887801Y1993976D01*
X6965738Y1990211D01*
X7036898Y1978916D01*
X7099586Y1959149D01*
X7152108Y1929970D01*
X7225904Y1840361D01*
X7245670Y1778238D01*
X7252259Y1703313D01*
X7245670Y1630271D01*
X7225904Y1567771D01*
X7151355Y1472892D01*
X7098456Y1439947D01*
X7036145Y1416416D01*
X6965550Y1402297D01*
X6887801Y1397590D01*
X6732681Y1397590D01*
X6713102Y1403614D01*
X6696536Y1417169D01*
X6690512Y1411145D01*
X6704066Y1394578D01*
X6710090Y1375000D01*
X6710090Y1010542D01*
X6712349Y1007530D01*
X6716114Y1006024D01*
X6710090Y1000000D01*
X6708584Y1003765D01*
X6705572Y1006024D01*
X6588102Y1006024D01*
X6585090Y1003765D01*
X6583584Y1000000D01*
X6577560Y1006024D01*
X6581325Y1007530D01*
X6583584Y1010542D01*
X6583584Y1486446D01*
X6690512Y1486446D01*
X6696536Y1480422D01*
X6713102Y1493976D01*
X6732681Y1500000D01*
X6871235Y1500000D01*
X6985128Y1512236D01*
X7064759Y1548946D01*
X7111634Y1612011D01*
X7127259Y1703313D01*
X7111258Y1793863D01*
X7063253Y1851657D01*
X6983245Y1882718D01*
X6871235Y1893072D01*
X6732681Y1893072D01*
X6713102Y1899096D01*
X6696536Y1912651D01*
X6690512Y1906627D01*
X6704066Y1890060D01*
X6710090Y1870482D01*
X6710090Y1522590D01*
X6704066Y1503012D01*
X6690512Y1486446D01*
X6583584Y1486446D01*
X6583584Y1989458D01*
X6581325Y1992470D01*
X6577560Y1993976D01*
X6583584Y2000000D01*
X6585090Y1996235D01*
G37*
G36*
X10422816Y2003200D02*
G01*
X10503765Y1976657D01*
X10575489Y1933735D01*
X10637048Y1875753D01*
X10687123Y1803087D01*
X10724398Y1716114D01*
X10747553Y1616152D01*
X10755271Y1504518D01*
X10747553Y1391378D01*
X10724398Y1289910D01*
X10687123Y1201431D01*
X10637048Y1127259D01*
X10575489Y1067959D01*
X10503765Y1024096D01*
X10422816Y996988D01*
X10333584Y987952D01*
X10244164Y996988D01*
X10162651Y1024096D01*
X10090361Y1067959D01*
X10028614Y1127259D01*
X9978539Y1201431D01*
X9941265Y1289910D01*
X9918110Y1391378D01*
X9910392Y1504518D01*
X10039910Y1504518D01*
X10045181Y1416792D01*
X10060994Y1337349D01*
X10086408Y1267508D01*
X10120482Y1208584D01*
X10162839Y1161333D01*
X10213102Y1126506D01*
X10270331Y1105045D01*
X10333584Y1097892D01*
X10396649Y1105045D01*
X10453313Y1126506D01*
X10503012Y1161333D01*
X10545181Y1208584D01*
X10579255Y1267508D01*
X10604669Y1337349D01*
X10620482Y1416792D01*
X10625753Y1504518D01*
X10620482Y1591867D01*
X10604669Y1670181D01*
X10579255Y1738328D01*
X10545181Y1795181D01*
X10453313Y1874247D01*
X10396649Y1895143D01*
X10333584Y1902108D01*
X10270331Y1895143D01*
X10213102Y1874247D01*
X10120482Y1795181D01*
X10086408Y1738328D01*
X10060994Y1670181D01*
X10045181Y1591867D01*
X10039910Y1504518D01*
X9910392Y1504518D01*
X9918110Y1617282D01*
X9941265Y1717620D01*
X9978539Y1804593D01*
X10028614Y1877259D01*
X10090361Y1935053D01*
X10162651Y1977410D01*
X10244164Y2003389D01*
X10333584Y2012048D01*
X10422816Y2003200D01*
G37*
G36*
X14360693Y1965361D02*
G01*
X14356928Y1964608D01*
X14354669Y1963855D01*
X14354669Y1135542D01*
X14347139Y1112199D01*
X14332078Y1093373D01*
X14339608Y1085843D01*
X14358434Y1100904D01*
X14381777Y1108434D01*
X14550452Y1108434D01*
X14551205Y1110693D01*
X14551958Y1114458D01*
X14559488Y1106928D01*
X14555723Y1106175D01*
X14553464Y1105422D01*
X14553464Y1009036D01*
X14555723Y1008283D01*
X14559488Y1007530D01*
X14551958Y1000000D01*
X14551205Y1003765D01*
X14550452Y1006024D01*
X14014307Y1006024D01*
X14013554Y1003765D01*
X14012801Y1000000D01*
X14005271Y1007530D01*
X14009036Y1008283D01*
X14011295Y1009036D01*
X14011295Y1105422D01*
X14009036Y1106175D01*
X14005271Y1106928D01*
X14012801Y1114458D01*
X14013554Y1110693D01*
X14014307Y1108434D01*
X14204066Y1108434D01*
X14227410Y1100904D01*
X14246235Y1085843D01*
X14253765Y1093373D01*
X14238705Y1112199D01*
X14231175Y1135542D01*
X14231175Y1789157D01*
X14238705Y1812500D01*
X14253765Y1831325D01*
X14246235Y1838855D01*
X14227410Y1823795D01*
X14204066Y1816265D01*
X14059488Y1816265D01*
X14058735Y1814006D01*
X14057982Y1810241D01*
X14050452Y1817771D01*
X14054217Y1818524D01*
X14056476Y1819277D01*
X14056476Y1893072D01*
X14054217Y1893825D01*
X14050452Y1894578D01*
X14056476Y1902108D01*
X14057982Y1898343D01*
X14059488Y1896084D01*
X14170181Y1925452D01*
X14256777Y1965361D01*
X14256777Y1966867D01*
X14255271Y1968373D01*
X14262801Y1971386D01*
X14262801Y1966867D01*
X14351657Y1966867D01*
X14352410Y1969127D01*
X14353163Y1972892D01*
X14360693Y1965361D01*
G37*
G36*
X15857681Y1965361D02*
G01*
X15853916Y1964608D01*
X15851657Y1963855D01*
X15851657Y1135542D01*
X15844127Y1112199D01*
X15829066Y1093373D01*
X15836596Y1085843D01*
X15855422Y1100904D01*
X15878765Y1108434D01*
X16047440Y1108434D01*
X16048193Y1110693D01*
X16048946Y1114458D01*
X16056476Y1106928D01*
X16052711Y1106175D01*
X16050452Y1105422D01*
X16050452Y1009036D01*
X16052711Y1008283D01*
X16056476Y1007530D01*
X16048946Y1000000D01*
X16048193Y1003765D01*
X16047440Y1006024D01*
X15511295Y1006024D01*
X15510542Y1003765D01*
X15509789Y1000000D01*
X15502259Y1007530D01*
X15506024Y1008283D01*
X15508283Y1009036D01*
X15508283Y1105422D01*
X15506024Y1106175D01*
X15502259Y1106928D01*
X15509789Y1114458D01*
X15510542Y1110693D01*
X15511295Y1108434D01*
X15701054Y1108434D01*
X15724398Y1100904D01*
X15743223Y1085843D01*
X15750753Y1093373D01*
X15735693Y1112199D01*
X15728163Y1135542D01*
X15728163Y1789157D01*
X15735693Y1812500D01*
X15750753Y1831325D01*
X15743223Y1838855D01*
X15724398Y1823795D01*
X15701054Y1816265D01*
X15556476Y1816265D01*
X15555723Y1814006D01*
X15554970Y1810241D01*
X15547440Y1817771D01*
X15551205Y1818524D01*
X15553464Y1819277D01*
X15553464Y1893072D01*
X15551205Y1893825D01*
X15547440Y1894578D01*
X15553464Y1902108D01*
X15554970Y1898343D01*
X15556476Y1896084D01*
X15667169Y1925452D01*
X15753765Y1965361D01*
X15753765Y1966867D01*
X15752259Y1968373D01*
X15759789Y1971386D01*
X15759789Y1966867D01*
X15848645Y1966867D01*
X15849398Y1969127D01*
X15850151Y1972892D01*
X15857681Y1965361D01*
G37*
G36*
X17202372Y2003389D02*
G01*
X17274096Y1977410D01*
X17335279Y1939759D01*
X17384789Y1896084D01*
X17392319Y1893825D01*
X17399849Y1894578D01*
X17399849Y1885542D01*
X17392319Y1886295D01*
X17384789Y1884036D01*
X17326054Y1816265D01*
X17323795Y1808735D01*
X17324548Y1801205D01*
X17315512Y1801205D01*
X17316265Y1808735D01*
X17314006Y1816265D01*
X17228163Y1878765D01*
X17122741Y1902108D01*
X17055158Y1895143D01*
X16993976Y1874247D01*
X16940324Y1840361D01*
X16895331Y1794428D01*
X16859187Y1737011D01*
X16832078Y1668675D01*
X16815136Y1590361D01*
X16809488Y1503012D01*
X16814947Y1414345D01*
X16831325Y1335090D01*
X16857681Y1266002D01*
X16893072Y1207831D01*
X16937123Y1161145D01*
X16989458Y1126506D01*
X17049511Y1105045D01*
X17116717Y1097892D01*
X17180723Y1104669D01*
X17237199Y1125000D01*
X17288404Y1157756D01*
X17336596Y1201807D01*
X17338855Y1209337D01*
X17338102Y1216867D01*
X17347139Y1216867D01*
X17346386Y1209337D01*
X17348645Y1201807D01*
X17407380Y1137048D01*
X17414910Y1134789D01*
X17422440Y1135542D01*
X17422440Y1126506D01*
X17414910Y1127259D01*
X17407380Y1125000D01*
X17346386Y1067395D01*
X17277861Y1024096D01*
X17200678Y996988D01*
X17113705Y987952D01*
X17023908Y996611D01*
X16941265Y1022590D01*
X16867470Y1064947D01*
X16804217Y1122741D01*
X16752447Y1195783D01*
X16713102Y1283886D01*
X16688253Y1385730D01*
X16679970Y1500000D01*
X16688253Y1612952D01*
X16713102Y1713855D01*
X16752824Y1801581D01*
X16805723Y1875000D01*
X16870482Y1933547D01*
X16945783Y1976657D01*
X17029932Y2003200D01*
X17121235Y2012048D01*
X17202372Y2003389D01*
G37*
G36*
X8152861Y1993976D02*
G01*
X8149096Y1992470D01*
X8146837Y1989458D01*
X8146837Y1010542D01*
X8149096Y1007530D01*
X8152861Y1006024D01*
X8146837Y1000000D01*
X8145331Y1003765D01*
X8142319Y1006024D01*
X8021837Y1006024D01*
X8019578Y1004518D01*
X8018825Y1000000D01*
X8011295Y1004518D01*
X8014307Y1007530D01*
X8014307Y1010542D01*
X7660392Y1628012D01*
X7567018Y1804217D01*
X7556476Y1832078D01*
X7550452Y1861446D01*
X7541416Y1859940D01*
X7548946Y1830572D01*
X7554970Y1801205D01*
X7557794Y1732869D01*
X7560241Y1663404D01*
X7561935Y1593185D01*
X7562500Y1522590D01*
X7562500Y1010542D01*
X7564759Y1007530D01*
X7568524Y1006024D01*
X7562500Y1000000D01*
X7560994Y1003765D01*
X7557982Y1006024D01*
X7448042Y1006024D01*
X7445030Y1003765D01*
X7443524Y1000000D01*
X7437500Y1006024D01*
X7441265Y1007530D01*
X7443524Y1010542D01*
X7443524Y1989458D01*
X7441265Y1992470D01*
X7437500Y1993976D01*
X7443524Y2000000D01*
X7445030Y1996235D01*
X7448042Y1993976D01*
X7568524Y1993976D01*
X7570783Y1995482D01*
X7571536Y2000000D01*
X7579066Y1995482D01*
X7576054Y1992470D01*
X7576054Y1989458D01*
X7931476Y1373494D01*
X8029367Y1195783D01*
X8041416Y1167922D01*
X8048946Y1138554D01*
X8056476Y1141566D01*
X8048946Y1170181D01*
X8042922Y1198795D01*
X8038215Y1268825D01*
X8033133Y1340361D01*
X8029179Y1412274D01*
X8027861Y1483434D01*
X8027861Y1989458D01*
X8025602Y1992470D01*
X8021837Y1993976D01*
X8027861Y2000000D01*
X8029367Y1996235D01*
X8032380Y1993976D01*
X8142319Y1993976D01*
X8145331Y1996235D01*
X8146837Y2000000D01*
X8152861Y1993976D01*
G37*
G36*
X9455384Y1990587D02*
G01*
X9521084Y1980422D01*
X9628765Y1938253D01*
X9698795Y1863705D01*
X9723645Y1753012D01*
X9714232Y1686935D01*
X9685994Y1627259D01*
X9638554Y1577748D01*
X9571536Y1542169D01*
X9549699Y1539157D01*
X9527861Y1537651D01*
X9527861Y1528614D01*
X9550452Y1531627D01*
X9573042Y1530120D01*
X9660956Y1498682D01*
X9725904Y1449548D01*
X9766002Y1381965D01*
X9779367Y1295181D01*
X9772590Y1227410D01*
X9752259Y1168675D01*
X9675452Y1078313D01*
X9621047Y1046687D01*
X9557229Y1024096D01*
X9485128Y1010542D01*
X9405873Y1006024D01*
X9202560Y1006024D01*
X9089608Y1006024D01*
X9089608Y1091867D01*
X9196536Y1091867D01*
X9202560Y1085843D01*
X9219127Y1099398D01*
X9238705Y1105422D01*
X9387801Y1105422D01*
X9501318Y1117282D01*
X9585843Y1152861D01*
X9638366Y1213667D01*
X9655873Y1301205D01*
X9638742Y1380836D01*
X9587349Y1435994D01*
X9503200Y1468185D01*
X9387801Y1478916D01*
X9238705Y1478916D01*
X9219127Y1484940D01*
X9204066Y1497262D01*
X9202560Y1498494D01*
X9196536Y1492470D01*
X9210090Y1475904D01*
X9216114Y1456325D01*
X9216114Y1128012D01*
X9210090Y1108434D01*
X9196536Y1091867D01*
X9089608Y1091867D01*
X9089608Y1560241D01*
X9198042Y1560241D01*
X9204066Y1554217D01*
X9219880Y1567018D01*
X9238705Y1572289D01*
X9362199Y1572289D01*
X9471009Y1583208D01*
X9544428Y1615964D01*
X9586220Y1669428D01*
X9600151Y1742470D01*
X9585467Y1812312D01*
X9541416Y1859187D01*
X9468750Y1885730D01*
X9368223Y1894578D01*
X9238705Y1894578D01*
X9219880Y1899849D01*
X9204066Y1912651D01*
X9198042Y1906627D01*
X9210843Y1890813D01*
X9216114Y1871988D01*
X9216114Y1594880D01*
X9210843Y1576054D01*
X9198042Y1560241D01*
X9089608Y1560241D01*
X9089608Y1993976D01*
X9383283Y1993976D01*
X9455384Y1990587D01*
G37*
G36*
X11771837Y1996988D02*
G01*
X11774849Y1993976D01*
X12080572Y1993976D01*
X12152861Y1990399D01*
X12219127Y1979669D01*
X12328313Y1932229D01*
X12399849Y1846386D01*
X12419051Y1787651D01*
X12425452Y1716867D01*
X12412086Y1618599D01*
X12371988Y1540663D01*
X12308923Y1482304D01*
X12226657Y1442771D01*
X12205572Y1443524D01*
X12184488Y1450301D01*
X12181476Y1441265D01*
X12216114Y1417169D01*
X12452560Y1010542D01*
X12456325Y1008283D01*
X12461596Y1007530D01*
X12457078Y1000000D01*
X12454066Y1003765D01*
X12451054Y1006024D01*
X12317018Y1006024D01*
X12314759Y1004518D01*
X12314006Y1000000D01*
X12306476Y1004518D01*
X12309488Y1007530D01*
X12309488Y1010542D01*
X12080572Y1414157D01*
X12083584Y1430723D01*
X12076054Y1435241D01*
X12064006Y1423193D01*
X11919428Y1423193D01*
X11899849Y1429217D01*
X11883283Y1442771D01*
X11877259Y1436747D01*
X11890813Y1420181D01*
X11896837Y1400602D01*
X11896837Y1010542D01*
X11899849Y1007530D01*
X11904367Y1006024D01*
X11896837Y998494D01*
X11895331Y1003012D01*
X11892319Y1006024D01*
X11774849Y1006024D01*
X11771837Y1003012D01*
X11770331Y998494D01*
X11762801Y1006024D01*
X11767319Y1007530D01*
X11770331Y1010542D01*
X11770331Y1512048D01*
X11877259Y1512048D01*
X11883283Y1506024D01*
X11899849Y1519578D01*
X11919428Y1525602D01*
X12062500Y1525602D01*
X12164721Y1537462D01*
X12239458Y1573042D01*
X12285203Y1632718D01*
X12300452Y1716867D01*
X12285203Y1800075D01*
X12239458Y1853916D01*
X12164721Y1883283D01*
X12062500Y1893072D01*
X11919428Y1893072D01*
X11899849Y1899096D01*
X11883283Y1912651D01*
X11877259Y1906627D01*
X11890813Y1890060D01*
X11896837Y1870482D01*
X11896837Y1548193D01*
X11890813Y1528614D01*
X11877259Y1512048D01*
X11770331Y1512048D01*
X11770331Y1989458D01*
X11767319Y1992470D01*
X11762801Y1993976D01*
X11770331Y2001506D01*
X11771837Y1996988D01*
G37*
G36*
X9448042Y4006024D02*
G01*
X9315512Y4006024D01*
X9228163Y4284639D01*
X9228163Y4305723D01*
X9237199Y4323795D01*
X9231175Y4328313D01*
X9216867Y4314006D01*
X9205572Y4309940D01*
X9198042Y4307229D01*
X8883283Y4307229D01*
X8864458Y4314006D01*
X8850151Y4328313D01*
X8844127Y4323795D01*
X8853163Y4305723D01*
X8853163Y4284639D01*
X8765813Y4006024D01*
X8637801Y4006024D01*
X8770313Y4397590D01*
X8871235Y4397590D01*
X8875753Y4391566D01*
X8893825Y4402861D01*
X8914910Y4408133D01*
X9166416Y4408133D01*
X9187500Y4402108D01*
X9205572Y4390060D01*
X9210090Y4397590D01*
X9193524Y4411898D01*
X9181476Y4430723D01*
X9142319Y4558735D01*
X9117282Y4635354D01*
X9093373Y4711596D01*
X9070218Y4788968D01*
X9047440Y4868976D01*
X9045181Y4891566D01*
X9045934Y4914157D01*
X9036898Y4914157D01*
X9037651Y4891566D01*
X9035392Y4868976D01*
X9012613Y4788968D01*
X8989458Y4711596D01*
X8965550Y4635354D01*
X8940512Y4558735D01*
X8899849Y4430723D01*
X8887801Y4411898D01*
X8871235Y4397590D01*
X8770313Y4397590D01*
X8972139Y4993976D01*
X9113705Y4993976D01*
X9448042Y4006024D01*
G37*
G36*
X16053464Y4006024D02*
G01*
X15920934Y4006024D01*
X15833584Y4284639D01*
X15833584Y4305723D01*
X15842620Y4323795D01*
X15836596Y4328313D01*
X15822289Y4314006D01*
X15810994Y4309940D01*
X15803464Y4307229D01*
X15488705Y4307229D01*
X15469880Y4314006D01*
X15455572Y4328313D01*
X15449548Y4323795D01*
X15458584Y4305723D01*
X15458584Y4284639D01*
X15371235Y4006024D01*
X15243223Y4006024D01*
X15375735Y4397590D01*
X15476657Y4397590D01*
X15481175Y4391566D01*
X15499247Y4402861D01*
X15520331Y4408133D01*
X15771837Y4408133D01*
X15792922Y4402108D01*
X15810994Y4390060D01*
X15815512Y4397590D01*
X15798946Y4411898D01*
X15786898Y4430723D01*
X15747741Y4558735D01*
X15722703Y4635354D01*
X15698795Y4711596D01*
X15675640Y4788968D01*
X15652861Y4868976D01*
X15650602Y4891566D01*
X15651355Y4914157D01*
X15642319Y4914157D01*
X15643072Y4891566D01*
X15640813Y4868976D01*
X15618035Y4788968D01*
X15594880Y4711596D01*
X15570971Y4635354D01*
X15545934Y4558735D01*
X15505271Y4430723D01*
X15493223Y4411898D01*
X15476657Y4397590D01*
X15375735Y4397590D01*
X15577560Y4993976D01*
X15719127Y4993976D01*
X16053464Y4006024D01*
G37*
G36*
X17403520Y4986069D02*
G01*
X17497364Y4962349D01*
X17577466Y4922816D01*
X17643825Y4867470D01*
X17695877Y4797346D01*
X17733057Y4713479D01*
X17755365Y4615870D01*
X17762801Y4504518D01*
X17755412Y4392884D01*
X17733245Y4294428D01*
X17696301Y4209149D01*
X17644578Y4137048D01*
X17578831Y4079725D01*
X17499812Y4038780D01*
X17407521Y4014213D01*
X17301958Y4006024D01*
X17160392Y4006024D01*
X17048946Y4006024D01*
X17048946Y4094880D01*
X17154367Y4094880D01*
X17160392Y4088855D01*
X17177711Y4102410D01*
X17198042Y4108434D01*
X17286898Y4108434D01*
X17392738Y4119980D01*
X17479334Y4154618D01*
X17546687Y4212349D01*
X17594796Y4290997D01*
X17623661Y4388387D01*
X17633283Y4504518D01*
X17623661Y4620147D01*
X17594796Y4716031D01*
X17546687Y4792169D01*
X17479334Y4847390D01*
X17392738Y4880522D01*
X17286898Y4891566D01*
X17198042Y4891566D01*
X17177711Y4897590D01*
X17160392Y4911145D01*
X17154367Y4905120D01*
X17167922Y4887801D01*
X17173946Y4867470D01*
X17173946Y4132530D01*
X17167922Y4112199D01*
X17154367Y4094880D01*
X17048946Y4094880D01*
X17048946Y4993976D01*
X17295934Y4993976D01*
X17403520Y4986069D01*
G37*
G36*
X13038404Y4993976D02*
G01*
X13033886Y4991717D01*
X13030873Y4987952D01*
X13030873Y4894578D01*
X13033886Y4890813D01*
X13038404Y4888554D01*
X13030873Y4881024D01*
X13027861Y4886295D01*
X13024849Y4888554D01*
X12753765Y4888554D01*
X12734187Y4894578D01*
X12717620Y4908133D01*
X12711596Y4902108D01*
X12725151Y4885542D01*
X12731175Y4865964D01*
X12731175Y4012048D01*
X12734187Y4008283D01*
X12738705Y4006024D01*
X12731175Y3998494D01*
X12728916Y4003012D01*
X12725151Y4006024D01*
X12612199Y4006024D01*
X12608434Y4003012D01*
X12606175Y3998494D01*
X12598645Y4006024D01*
X12603163Y4008283D01*
X12606175Y4012048D01*
X12606175Y4865964D01*
X12612199Y4885542D01*
X12625753Y4902108D01*
X12619729Y4908133D01*
X12603163Y4894578D01*
X12583584Y4888554D01*
X12312500Y4888554D01*
X12309488Y4886295D01*
X12306476Y4881024D01*
X12298946Y4888554D01*
X12303464Y4890813D01*
X12306476Y4894578D01*
X12306476Y4987952D01*
X12303464Y4991717D01*
X12298946Y4993976D01*
X12306476Y5001506D01*
X12308735Y4996988D01*
X12312500Y4993976D01*
X13024849Y4993976D01*
X13028614Y4996988D01*
X13030873Y5001506D01*
X13038404Y4993976D01*
G37*
G36*
X12149849Y4993976D02*
G01*
X12145331Y4991717D01*
X12142319Y4987952D01*
X12142319Y4414157D01*
X12135542Y4304593D01*
X12115211Y4213855D01*
X12083020Y4140248D01*
X12040663Y4082078D01*
X11988705Y4038780D01*
X11927711Y4009789D01*
X11859752Y3993411D01*
X11786898Y3987952D01*
X11714044Y3993411D01*
X11646084Y4009789D01*
X11585090Y4038780D01*
X11533133Y4082078D01*
X11490776Y4140248D01*
X11458584Y4213855D01*
X11438253Y4304593D01*
X11431476Y4414157D01*
X11431476Y4987952D01*
X11428464Y4991717D01*
X11423946Y4993976D01*
X11431476Y5001506D01*
X11433735Y4996988D01*
X11437500Y4993976D01*
X11551958Y4993976D01*
X11555723Y4996988D01*
X11557982Y5001506D01*
X11565512Y4993976D01*
X11560994Y4991717D01*
X11557982Y4987952D01*
X11557982Y4411145D01*
X11562500Y4329443D01*
X11576054Y4262048D01*
X11625000Y4165663D01*
X11697289Y4113705D01*
X11786898Y4097892D01*
X11879518Y4113705D01*
X11954066Y4165663D01*
X12003765Y4262048D01*
X12017319Y4329443D01*
X12021837Y4411145D01*
X12021837Y4987952D01*
X12018825Y4991717D01*
X12014307Y4993976D01*
X12021837Y5001506D01*
X12024096Y4996988D01*
X12027861Y4993976D01*
X12136295Y4993976D01*
X12140060Y4996988D01*
X12142319Y5001506D01*
X12149849Y4993976D01*
G37*
G36*
X10898720Y5003200D02*
G01*
X10979669Y4976657D01*
X11051393Y4933735D01*
X11112952Y4875753D01*
X11163027Y4803087D01*
X11200301Y4716114D01*
X11223456Y4616152D01*
X11231175Y4504518D01*
X11223456Y4391378D01*
X11200301Y4289910D01*
X11163027Y4201431D01*
X11112952Y4127259D01*
X11051393Y4067959D01*
X10979669Y4024096D01*
X10898720Y3996988D01*
X10809488Y3987952D01*
X10720068Y3996988D01*
X10638554Y4024096D01*
X10566265Y4067959D01*
X10504518Y4127259D01*
X10454443Y4201431D01*
X10417169Y4289910D01*
X10394014Y4391378D01*
X10386295Y4504518D01*
X10515813Y4504518D01*
X10521084Y4416792D01*
X10536898Y4337349D01*
X10562312Y4267508D01*
X10596386Y4208584D01*
X10638742Y4161333D01*
X10689006Y4126506D01*
X10746235Y4105045D01*
X10809488Y4097892D01*
X10872553Y4105045D01*
X10929217Y4126506D01*
X10978916Y4161333D01*
X11021084Y4208584D01*
X11055158Y4267508D01*
X11080572Y4337349D01*
X11096386Y4416792D01*
X11101657Y4504518D01*
X11096386Y4591867D01*
X11080572Y4670181D01*
X11055158Y4738328D01*
X11021084Y4795181D01*
X10929217Y4874247D01*
X10872553Y4895143D01*
X10809488Y4902108D01*
X10746235Y4895143D01*
X10689006Y4874247D01*
X10596386Y4795181D01*
X10562312Y4738328D01*
X10536898Y4670181D01*
X10521084Y4591867D01*
X10515813Y4504518D01*
X10386295Y4504518D01*
X10394014Y4617282D01*
X10417169Y4717620D01*
X10454443Y4804593D01*
X10504518Y4877259D01*
X10566265Y4935053D01*
X10638554Y4977410D01*
X10720068Y5003389D01*
X10809488Y5012048D01*
X10898720Y5003200D01*
G37*
G36*
X14836973Y5003200D02*
G01*
X14917922Y4976657D01*
X14989646Y4933735D01*
X15051205Y4875753D01*
X15101280Y4803087D01*
X15138554Y4716114D01*
X15161709Y4616152D01*
X15169428Y4504518D01*
X15161709Y4391378D01*
X15138554Y4289910D01*
X15101280Y4201431D01*
X15051205Y4127259D01*
X14989646Y4067959D01*
X14917922Y4024096D01*
X14836973Y3996988D01*
X14747741Y3987952D01*
X14658321Y3996988D01*
X14576807Y4024096D01*
X14504518Y4067959D01*
X14442771Y4127259D01*
X14392696Y4201431D01*
X14355422Y4289910D01*
X14332267Y4391378D01*
X14324548Y4504518D01*
X14454066Y4504518D01*
X14459337Y4416792D01*
X14475151Y4337349D01*
X14500565Y4267508D01*
X14534639Y4208584D01*
X14576995Y4161333D01*
X14627259Y4126506D01*
X14684488Y4105045D01*
X14747741Y4097892D01*
X14810806Y4105045D01*
X14867470Y4126506D01*
X14917169Y4161333D01*
X14959337Y4208584D01*
X14993411Y4267508D01*
X15018825Y4337349D01*
X15034639Y4416792D01*
X15039910Y4504518D01*
X15034639Y4591867D01*
X15018825Y4670181D01*
X14993411Y4738328D01*
X14959337Y4795181D01*
X14867470Y4874247D01*
X14810806Y4895143D01*
X14747741Y4902108D01*
X14684488Y4895143D01*
X14627259Y4874247D01*
X14534639Y4795181D01*
X14500565Y4738328D01*
X14475151Y4670181D01*
X14459337Y4591867D01*
X14454066Y4504518D01*
X14324548Y4504518D01*
X14332267Y4617282D01*
X14355422Y4717620D01*
X14392696Y4804593D01*
X14442771Y4877259D01*
X14504518Y4935053D01*
X14576807Y4977410D01*
X14658321Y5003389D01*
X14747741Y5012048D01*
X14836973Y5003200D01*
G37*
G36*
X10268825Y4992470D02*
G01*
X10263554Y4991717D01*
X10259789Y4990964D01*
X9957078Y4623494D01*
X9951054Y4621235D01*
X9945030Y4621988D01*
X9943524Y4612952D01*
X9950301Y4612952D01*
X9957078Y4609940D01*
X10307982Y4010542D01*
X10310994Y4008283D01*
X10315512Y4007530D01*
X10310994Y4000000D01*
X10307982Y4003765D01*
X10304970Y4006024D01*
X10173946Y4006024D01*
X10171687Y4004518D01*
X10170934Y4000000D01*
X10163404Y4004518D01*
X10167169Y4007530D01*
X10167922Y4010542D01*
X9878765Y4512048D01*
X9877259Y4519578D01*
X9878765Y4527108D01*
X9869729Y4528614D01*
X9871235Y4521084D01*
X9869729Y4513554D01*
X9710090Y4325301D01*
X9699548Y4326807D01*
X9696536Y4317771D01*
X9705572Y4311747D01*
X9705572Y4010542D01*
X9707831Y4007530D01*
X9711596Y4006024D01*
X9705572Y4000000D01*
X9704066Y4003765D01*
X9701054Y4006024D01*
X9583584Y4006024D01*
X9580572Y4003765D01*
X9579066Y4000000D01*
X9573042Y4006024D01*
X9576807Y4007530D01*
X9579066Y4010542D01*
X9579066Y4989458D01*
X9576807Y4992470D01*
X9573042Y4993976D01*
X9579066Y5000000D01*
X9580572Y4996235D01*
X9583584Y4993976D01*
X9701054Y4993976D01*
X9704066Y4996235D01*
X9705572Y5000000D01*
X9711596Y4993976D01*
X9707831Y4992470D01*
X9705572Y4989458D01*
X9705572Y4521084D01*
X9701054Y4500000D01*
X9693524Y4478916D01*
X9702560Y4475904D01*
X9709337Y4497741D01*
X9720633Y4516566D01*
X10116717Y4990964D01*
X10113705Y4995482D01*
X10121235Y5000000D01*
X10121988Y4995482D01*
X10124247Y4993976D01*
X10258283Y4993976D01*
X10261295Y4996235D01*
X10264307Y5000000D01*
X10268825Y4992470D01*
G37*
G36*
X8557982Y4993976D02*
G01*
X8554217Y4992470D01*
X8551958Y4989458D01*
X8551958Y4893072D01*
X8554217Y4890060D01*
X8557982Y4888554D01*
X8551958Y4882530D01*
X8550452Y4886295D01*
X8547440Y4888554D01*
X8131777Y4888554D01*
X8112952Y4894578D01*
X8097139Y4908133D01*
X8089608Y4900602D01*
X8103163Y4884789D01*
X8109187Y4865964D01*
X8109187Y4600904D01*
X8103163Y4582078D01*
X8089608Y4566265D01*
X8097139Y4558735D01*
X8112952Y4572289D01*
X8131777Y4578313D01*
X8478163Y4578313D01*
X8481175Y4580572D01*
X8482681Y4584337D01*
X8488705Y4578313D01*
X8484940Y4576807D01*
X8482681Y4573795D01*
X8482681Y4475904D01*
X8484940Y4472892D01*
X8488705Y4471386D01*
X8482681Y4465361D01*
X8481175Y4469127D01*
X8478163Y4471386D01*
X8131777Y4471386D01*
X8112952Y4477410D01*
X8097139Y4490964D01*
X8089608Y4483434D01*
X8103163Y4467620D01*
X8109187Y4448795D01*
X8109187Y4135542D01*
X8103163Y4116717D01*
X8089608Y4100904D01*
X8097139Y4093373D01*
X8112952Y4106928D01*
X8131777Y4112952D01*
X8562500Y4112952D01*
X8565512Y4115211D01*
X8567018Y4118976D01*
X8573042Y4112952D01*
X8569277Y4111446D01*
X8567018Y4108434D01*
X8567018Y4010542D01*
X8569277Y4007530D01*
X8573042Y4006024D01*
X8567018Y4000000D01*
X8565512Y4003765D01*
X8562500Y4006024D01*
X7987199Y4006024D01*
X7984187Y4003765D01*
X7982681Y4000000D01*
X7976657Y4006024D01*
X7980422Y4007530D01*
X7982681Y4010542D01*
X7982681Y4989458D01*
X7980422Y4992470D01*
X7976657Y4993976D01*
X7982681Y5000000D01*
X7984187Y4996235D01*
X7987199Y4993976D01*
X8547440Y4993976D01*
X8550452Y4996235D01*
X8551958Y5000000D01*
X8557982Y4993976D01*
G37*
G36*
X6602974Y4990587D02*
G01*
X6668675Y4980422D01*
X6776355Y4938253D01*
X6846386Y4863705D01*
X6871235Y4753012D01*
X6861822Y4686935D01*
X6833584Y4627259D01*
X6786145Y4577748D01*
X6719127Y4542169D01*
X6697289Y4539157D01*
X6675452Y4537651D01*
X6675452Y4528614D01*
X6698042Y4531627D01*
X6720633Y4530120D01*
X6808547Y4498682D01*
X6873494Y4449548D01*
X6913592Y4381965D01*
X6926958Y4295181D01*
X6920181Y4227410D01*
X6899849Y4168675D01*
X6823042Y4078313D01*
X6768637Y4046687D01*
X6704819Y4024096D01*
X6632718Y4010542D01*
X6553464Y4006024D01*
X6350151Y4006024D01*
X6237199Y4006024D01*
X6237199Y4091867D01*
X6344127Y4091867D01*
X6350151Y4085843D01*
X6366717Y4099398D01*
X6386295Y4105422D01*
X6535392Y4105422D01*
X6648908Y4117282D01*
X6733434Y4152861D01*
X6785956Y4213667D01*
X6803464Y4301205D01*
X6786333Y4380836D01*
X6734940Y4435994D01*
X6650791Y4468185D01*
X6535392Y4478916D01*
X6386295Y4478916D01*
X6366717Y4484940D01*
X6351657Y4497262D01*
X6350151Y4498494D01*
X6344127Y4492470D01*
X6357681Y4475904D01*
X6363705Y4456325D01*
X6363705Y4128012D01*
X6357681Y4108434D01*
X6344127Y4091867D01*
X6237199Y4091867D01*
X6237199Y4560241D01*
X6345633Y4560241D01*
X6351657Y4554217D01*
X6367470Y4567018D01*
X6386295Y4572289D01*
X6509789Y4572289D01*
X6618599Y4583208D01*
X6692018Y4615964D01*
X6733810Y4669428D01*
X6747741Y4742470D01*
X6733057Y4812312D01*
X6689006Y4859187D01*
X6616340Y4885730D01*
X6515813Y4894578D01*
X6386295Y4894578D01*
X6367470Y4899849D01*
X6351657Y4912651D01*
X6345633Y4906627D01*
X6358434Y4890813D01*
X6363705Y4871988D01*
X6363705Y4594880D01*
X6358434Y4576054D01*
X6345633Y4560241D01*
X6237199Y4560241D01*
X6237199Y4993976D01*
X6530873Y4993976D01*
X6602974Y4990587D01*
G37*
G36*
X13869541Y4990587D02*
G01*
X13935241Y4980422D01*
X14042922Y4938253D01*
X14112952Y4863705D01*
X14137801Y4753012D01*
X14128389Y4686935D01*
X14100151Y4627259D01*
X14052711Y4577748D01*
X13985693Y4542169D01*
X13963855Y4539157D01*
X13942018Y4537651D01*
X13942018Y4528614D01*
X13964608Y4531627D01*
X13987199Y4530120D01*
X14075113Y4498682D01*
X14140060Y4449548D01*
X14180158Y4381965D01*
X14193524Y4295181D01*
X14186747Y4227410D01*
X14166416Y4168675D01*
X14089608Y4078313D01*
X14035203Y4046687D01*
X13971386Y4024096D01*
X13899285Y4010542D01*
X13820030Y4006024D01*
X13616717Y4006024D01*
X13503765Y4006024D01*
X13503765Y4091867D01*
X13610693Y4091867D01*
X13616717Y4085843D01*
X13633283Y4099398D01*
X13652861Y4105422D01*
X13801958Y4105422D01*
X13915474Y4117282D01*
X14000000Y4152861D01*
X14052523Y4213667D01*
X14070030Y4301205D01*
X14052899Y4380836D01*
X14001506Y4435994D01*
X13917357Y4468185D01*
X13801958Y4478916D01*
X13652861Y4478916D01*
X13633283Y4484940D01*
X13618223Y4497262D01*
X13616717Y4498494D01*
X13610693Y4492470D01*
X13624247Y4475904D01*
X13630271Y4456325D01*
X13630271Y4128012D01*
X13624247Y4108434D01*
X13610693Y4091867D01*
X13503765Y4091867D01*
X13503765Y4560241D01*
X13612199Y4560241D01*
X13618223Y4554217D01*
X13634036Y4567018D01*
X13652861Y4572289D01*
X13776355Y4572289D01*
X13885166Y4583208D01*
X13958584Y4615964D01*
X14000377Y4669428D01*
X14014307Y4742470D01*
X13999623Y4812312D01*
X13955572Y4859187D01*
X13882907Y4885730D01*
X13782380Y4894578D01*
X13652861Y4894578D01*
X13634036Y4899849D01*
X13618223Y4912651D01*
X13612199Y4906627D01*
X13625000Y4890813D01*
X13630271Y4871988D01*
X13630271Y4594880D01*
X13625000Y4576054D01*
X13612199Y4560241D01*
X13503765Y4560241D01*
X13503765Y4993976D01*
X13797440Y4993976D01*
X13869541Y4990587D01*
G37*
G36*
X7116717Y4996988D02*
G01*
X7119729Y4993976D01*
X7425452Y4993976D01*
X7497741Y4990399D01*
X7564006Y4979669D01*
X7673193Y4932229D01*
X7744729Y4846386D01*
X7763931Y4787651D01*
X7770331Y4716867D01*
X7756965Y4618599D01*
X7716867Y4540663D01*
X7653803Y4482304D01*
X7571536Y4442771D01*
X7550452Y4443524D01*
X7529367Y4450301D01*
X7526355Y4441265D01*
X7560994Y4417169D01*
X7797440Y4010542D01*
X7801205Y4008283D01*
X7806476Y4007530D01*
X7801958Y4000000D01*
X7798946Y4003765D01*
X7795934Y4006024D01*
X7661898Y4006024D01*
X7659639Y4004518D01*
X7658886Y4000000D01*
X7651355Y4004518D01*
X7654367Y4007530D01*
X7654367Y4010542D01*
X7425452Y4414157D01*
X7428464Y4430723D01*
X7420934Y4435241D01*
X7408886Y4423193D01*
X7264307Y4423193D01*
X7244729Y4429217D01*
X7228163Y4442771D01*
X7222139Y4436747D01*
X7235693Y4420181D01*
X7241717Y4400602D01*
X7241717Y4010542D01*
X7244729Y4007530D01*
X7249247Y4006024D01*
X7241717Y3998494D01*
X7240211Y4003012D01*
X7237199Y4006024D01*
X7119729Y4006024D01*
X7116717Y4003012D01*
X7115211Y3998494D01*
X7107681Y4006024D01*
X7112199Y4007530D01*
X7115211Y4010542D01*
X7115211Y4512048D01*
X7222139Y4512048D01*
X7228163Y4506024D01*
X7244729Y4519578D01*
X7264307Y4525602D01*
X7407380Y4525602D01*
X7509601Y4537462D01*
X7584337Y4573042D01*
X7630083Y4632718D01*
X7645331Y4716867D01*
X7630083Y4800075D01*
X7584337Y4853916D01*
X7509601Y4883283D01*
X7407380Y4893072D01*
X7264307Y4893072D01*
X7244729Y4899096D01*
X7228163Y4912651D01*
X7222139Y4906627D01*
X7235693Y4890060D01*
X7241717Y4870482D01*
X7241717Y4548193D01*
X7235693Y4528614D01*
X7222139Y4512048D01*
X7115211Y4512048D01*
X7115211Y4989458D01*
X7112199Y4992470D01*
X7107681Y4993976D01*
X7115211Y5001506D01*
X7116717Y4996988D01*
G37*
G36*
X16185994Y4996988D02*
G01*
X16189006Y4993976D01*
X16494729Y4993976D01*
X16567018Y4990399D01*
X16633283Y4979669D01*
X16742470Y4932229D01*
X16814006Y4846386D01*
X16833208Y4787651D01*
X16839608Y4716867D01*
X16826242Y4618599D01*
X16786145Y4540663D01*
X16723080Y4482304D01*
X16640813Y4442771D01*
X16619729Y4443524D01*
X16598645Y4450301D01*
X16595633Y4441265D01*
X16630271Y4417169D01*
X16866717Y4010542D01*
X16870482Y4008283D01*
X16875753Y4007530D01*
X16871235Y4000000D01*
X16868223Y4003765D01*
X16865211Y4006024D01*
X16731175Y4006024D01*
X16728916Y4004518D01*
X16728163Y4000000D01*
X16720633Y4004518D01*
X16723645Y4007530D01*
X16723645Y4010542D01*
X16494729Y4414157D01*
X16497741Y4430723D01*
X16490211Y4435241D01*
X16478163Y4423193D01*
X16333584Y4423193D01*
X16314006Y4429217D01*
X16297440Y4442771D01*
X16291416Y4436747D01*
X16304970Y4420181D01*
X16310994Y4400602D01*
X16310994Y4010542D01*
X16314006Y4007530D01*
X16318524Y4006024D01*
X16310994Y3998494D01*
X16309488Y4003012D01*
X16306476Y4006024D01*
X16189006Y4006024D01*
X16185994Y4003012D01*
X16184488Y3998494D01*
X16176958Y4006024D01*
X16181476Y4007530D01*
X16184488Y4010542D01*
X16184488Y4512048D01*
X16291416Y4512048D01*
X16297440Y4506024D01*
X16314006Y4519578D01*
X16333584Y4525602D01*
X16476657Y4525602D01*
X16578878Y4537462D01*
X16653614Y4573042D01*
X16699360Y4632718D01*
X16714608Y4716867D01*
X16699360Y4800075D01*
X16653614Y4853916D01*
X16578878Y4883283D01*
X16476657Y4893072D01*
X16333584Y4893072D01*
X16314006Y4899096D01*
X16297440Y4912651D01*
X16291416Y4906627D01*
X16304970Y4890060D01*
X16310994Y4870482D01*
X16310994Y4548193D01*
X16304970Y4528614D01*
X16291416Y4512048D01*
X16184488Y4512048D01*
X16184488Y4989458D01*
X16181476Y4992470D01*
X16176958Y4993976D01*
X16184488Y5001506D01*
X16185994Y4996988D01*
G37*
D11*
X28250000Y36800000D02*
X28250000Y37200000D01*
X29150000Y36800000D02*
X29150000Y37200000D01*
D12*
X29813500Y38500000D02*
G75*
G02*
X29586500Y38500000I-113500J0D01*
G01*
X29586500Y38500000D02*
G75*
G02*
X29813500Y38500000I113500J0D01*
G01*
D11*
X11300000Y31550000D02*
X11300000Y31850000D01*
X12100000Y31550000D02*
X12100000Y31850000D01*
X17300000Y39300000D02*
X17300000Y43300000D01*
X19700000Y43300000D02*
X19700000Y39300000D01*
X12600000Y23250000D02*
X12600000Y23550000D01*
X13400000Y23250000D02*
X13400000Y23550000D01*
X9800000Y23250000D02*
X9800000Y23550000D01*
X10600000Y23250000D02*
X10600000Y23550000D01*
X28250000Y13800000D02*
X28250000Y14200000D01*
X29150000Y13800000D02*
X29150000Y14200000D01*
D12*
X29813500Y15500000D02*
G75*
G02*
X29586500Y15500000I-113500J0D01*
G01*
X29586500Y15500000D02*
G75*
G02*
X29813500Y15500000I113500J0D01*
G01*
D11*
X24150000Y36400000D02*
X23850000Y36400000D01*
X24150000Y35600000D02*
X23850000Y35600000D01*
D10*
G36*
X27927050Y36419769D02*
G01*
X27923081Y36418181D01*
X27920700Y36415006D01*
X27920700Y35837156D01*
X27923081Y35833981D01*
X27927050Y35832394D01*
X27920700Y35826044D01*
X27919113Y35830012D01*
X27915938Y35832394D01*
X26884062Y35832394D01*
X26880887Y35830012D01*
X26879300Y35826044D01*
X26872950Y35832394D01*
X26876919Y35833981D01*
X26879300Y35837156D01*
X26879300Y35960981D01*
X26876919Y35964156D01*
X26872950Y35965744D01*
X26879300Y35972094D01*
X26880887Y35968125D01*
X26884062Y35965744D01*
X27784175Y35965744D01*
X27804813Y35959394D01*
X27822275Y35945106D01*
X27828625Y35951456D01*
X27814337Y35968919D01*
X27807987Y35989556D01*
X27807987Y36415006D01*
X27805606Y36418181D01*
X27801637Y36419769D01*
X27807987Y36426119D01*
X27809575Y36422150D01*
X27812750Y36419769D01*
X27915938Y36419769D01*
X27919113Y36422150D01*
X27920700Y36426119D01*
X27927050Y36419769D01*
G37*
G36*
X27920700Y37421481D02*
G01*
X26879300Y37421481D01*
X26879300Y37538956D01*
X26966612Y37538956D01*
X26972962Y37532606D01*
X26991219Y37546894D01*
X27012650Y37553244D01*
X27787350Y37553244D01*
X27808781Y37546894D01*
X27827037Y37532606D01*
X27833388Y37538956D01*
X27819100Y37557213D01*
X27812750Y37578644D01*
X27812750Y37672306D01*
X27800579Y37783872D01*
X27764067Y37875153D01*
X27703213Y37946150D01*
X27620310Y37996862D01*
X27517651Y38027289D01*
X27395238Y38037431D01*
X27273353Y38027289D01*
X27172282Y37996862D01*
X27092025Y37946150D01*
X27033817Y37875153D01*
X26998892Y37783872D01*
X26987250Y37672306D01*
X26987250Y37578644D01*
X26980900Y37557213D01*
X26966612Y37538956D01*
X26879300Y37538956D01*
X26879300Y37681831D01*
X26887634Y37795238D01*
X26912637Y37894159D01*
X26954309Y37978595D01*
X27012650Y38048544D01*
X27086568Y38103412D01*
X27174972Y38142603D01*
X27277862Y38166118D01*
X27395238Y38173956D01*
X27512911Y38166168D01*
X27616694Y38142802D01*
X27706586Y38103858D01*
X27782587Y38049337D01*
X27843012Y37980033D01*
X27886172Y37896739D01*
X27912068Y37799455D01*
X27920700Y37688181D01*
X27920700Y37538956D01*
X27920700Y37421481D01*
G37*
G36*
X27927050Y37211931D02*
G01*
X27923081Y37210344D01*
X27920700Y37207169D01*
X27920700Y36600744D01*
X27923081Y36597569D01*
X27927050Y36595981D01*
X27920700Y36589631D01*
X27919113Y36593600D01*
X27915938Y36595981D01*
X26884062Y36595981D01*
X26880887Y36593600D01*
X26879300Y36589631D01*
X26872950Y36595981D01*
X26876919Y36597569D01*
X26879300Y36600744D01*
X26879300Y37191294D01*
X26876919Y37194469D01*
X26872950Y37196056D01*
X26879300Y37202406D01*
X26880887Y37198438D01*
X26884062Y37196056D01*
X26985662Y37196056D01*
X26988837Y37198438D01*
X26990425Y37202406D01*
X26996775Y37196056D01*
X26992806Y37194469D01*
X26990425Y37191294D01*
X26990425Y36753144D01*
X26984075Y36733300D01*
X26969787Y36716631D01*
X26977725Y36708694D01*
X26994394Y36722981D01*
X27014237Y36729331D01*
X27293637Y36729331D01*
X27313481Y36722981D01*
X27330150Y36708694D01*
X27338088Y36716631D01*
X27323800Y36733300D01*
X27317450Y36753144D01*
X27317450Y37118269D01*
X27315069Y37121444D01*
X27311100Y37123031D01*
X27317450Y37129381D01*
X27319037Y37125413D01*
X27322212Y37123031D01*
X27425400Y37123031D01*
X27428575Y37125413D01*
X27430162Y37129381D01*
X27436512Y37123031D01*
X27432544Y37121444D01*
X27430162Y37118269D01*
X27430162Y36753144D01*
X27423812Y36733300D01*
X27409525Y36716631D01*
X27417462Y36708694D01*
X27434131Y36722981D01*
X27453975Y36729331D01*
X27784175Y36729331D01*
X27804019Y36722981D01*
X27820688Y36708694D01*
X27828625Y36716631D01*
X27814337Y36733300D01*
X27807987Y36753144D01*
X27807987Y37207169D01*
X27805606Y37210344D01*
X27801637Y37211931D01*
X27807987Y37218281D01*
X27809575Y37214312D01*
X27812750Y37211931D01*
X27915938Y37211931D01*
X27919113Y37214312D01*
X27920700Y37218281D01*
X27927050Y37211931D01*
G37*
D11*
X1200000Y39500000D02*
X1950000Y39500000D01*
X1200000Y14500000D02*
X1200000Y39500000D01*
X1950000Y14500000D02*
X1200000Y14500000D01*
X4850000Y39500000D02*
X7100000Y39500000D01*
X7100000Y39500000D02*
X7100000Y36850000D01*
X7100000Y17150000D02*
X7100000Y14500000D01*
X7100000Y14500000D02*
X4800000Y14500000D01*
X26400000Y5550000D02*
X26400000Y7100000D01*
X27600000Y10300000D02*
X28350000Y10300000D01*
X28300000Y3650000D02*
X27650000Y3650000D01*
X29600000Y3850000D02*
X29600000Y10150000D01*
D10*
G36*
X14609856Y16220700D02*
G01*
X14605887Y16219113D01*
X14603506Y16215938D01*
X14603506Y15184062D01*
X14605887Y15180887D01*
X14609856Y15179300D01*
X14603506Y15172950D01*
X14601919Y15176919D01*
X14598744Y15179300D01*
X14474919Y15179300D01*
X14471744Y15176919D01*
X14470156Y15172950D01*
X14463806Y15179300D01*
X14467775Y15180887D01*
X14470156Y15184062D01*
X14470156Y16215938D01*
X14467775Y16219113D01*
X14463806Y16220700D01*
X14470156Y16227050D01*
X14471744Y16223081D01*
X14474919Y16220700D01*
X14598744Y16220700D01*
X14601919Y16223081D01*
X14603506Y16227050D01*
X14609856Y16220700D01*
G37*
G36*
X18949188Y16212366D02*
G01*
X19048109Y16187363D01*
X19132545Y16145691D01*
X19202494Y16087350D01*
X19257362Y16013432D01*
X19296553Y15925028D01*
X19320068Y15822138D01*
X19327906Y15704762D01*
X19320118Y15587089D01*
X19296752Y15483306D01*
X19257808Y15393414D01*
X19203287Y15317413D01*
X19133983Y15256988D01*
X19050689Y15213828D01*
X18953405Y15187932D01*
X18842131Y15179300D01*
X18692906Y15179300D01*
X18575431Y15179300D01*
X18575431Y15272963D01*
X18686556Y15272963D01*
X18692906Y15266612D01*
X18711162Y15280900D01*
X18732594Y15287250D01*
X18826256Y15287250D01*
X18937822Y15299421D01*
X19029103Y15335933D01*
X19100100Y15396787D01*
X19150812Y15479690D01*
X19181239Y15582349D01*
X19191381Y15704762D01*
X19181239Y15826647D01*
X19150812Y15927718D01*
X19100100Y16007975D01*
X19029103Y16066183D01*
X18937822Y16101108D01*
X18826256Y16112750D01*
X18732594Y16112750D01*
X18711162Y16119100D01*
X18692906Y16133388D01*
X18686556Y16127038D01*
X18700844Y16108781D01*
X18707194Y16087350D01*
X18707194Y15312650D01*
X18700844Y15291219D01*
X18686556Y15272963D01*
X18575431Y15272963D01*
X18575431Y16220700D01*
X18835781Y16220700D01*
X18949188Y16212366D01*
G37*
G36*
X21480556Y15179300D02*
G01*
X21340856Y15179300D01*
X21248781Y15472988D01*
X21248781Y15495212D01*
X21258306Y15514262D01*
X21251956Y15519025D01*
X21236875Y15503944D01*
X21224969Y15499658D01*
X21217031Y15496800D01*
X20885244Y15496800D01*
X20865400Y15503944D01*
X20850319Y15519025D01*
X20843969Y15514262D01*
X20853494Y15495212D01*
X20853494Y15472988D01*
X20761419Y15179300D01*
X20626481Y15179300D01*
X20766162Y15592050D01*
X20872544Y15592050D01*
X20877306Y15585700D01*
X20896356Y15597606D01*
X20918581Y15603163D01*
X21183694Y15603163D01*
X21205919Y15596813D01*
X21224969Y15584113D01*
X21229731Y15592050D01*
X21212269Y15607131D01*
X21199569Y15626975D01*
X21158294Y15761912D01*
X21131902Y15842677D01*
X21106700Y15923044D01*
X21082292Y16004602D01*
X21058281Y16088938D01*
X21055900Y16112750D01*
X21056694Y16136562D01*
X21047169Y16136562D01*
X21047962Y16112750D01*
X21045581Y16088938D01*
X21021570Y16004602D01*
X20997162Y15923044D01*
X20971961Y15842677D01*
X20945569Y15761912D01*
X20902706Y15626975D01*
X20890006Y15607131D01*
X20872544Y15592050D01*
X20766162Y15592050D01*
X20978906Y16220700D01*
X21128131Y16220700D01*
X21480556Y15179300D01*
G37*
G36*
X22903651Y16212366D02*
G01*
X23002572Y16187363D01*
X23087007Y16145691D01*
X23156956Y16087350D01*
X23211824Y16013432D01*
X23251016Y15925028D01*
X23274530Y15822138D01*
X23282369Y15704762D01*
X23274580Y15587089D01*
X23251214Y15483306D01*
X23212271Y15393414D01*
X23157750Y15317413D01*
X23088446Y15256988D01*
X23005152Y15213828D01*
X22907868Y15187932D01*
X22796594Y15179300D01*
X22647369Y15179300D01*
X22529894Y15179300D01*
X22529894Y15272963D01*
X22641019Y15272963D01*
X22647369Y15266612D01*
X22665625Y15280900D01*
X22687056Y15287250D01*
X22780719Y15287250D01*
X22892285Y15299421D01*
X22983566Y15335933D01*
X23054563Y15396787D01*
X23105274Y15479690D01*
X23135701Y15582349D01*
X23145844Y15704762D01*
X23135701Y15826647D01*
X23105274Y15927718D01*
X23054563Y16007975D01*
X22983566Y16066183D01*
X22892285Y16101108D01*
X22780719Y16112750D01*
X22687056Y16112750D01*
X22665625Y16119100D01*
X22647369Y16133388D01*
X22641019Y16127038D01*
X22655306Y16108781D01*
X22661656Y16087350D01*
X22661656Y15312650D01*
X22655306Y15291219D01*
X22641019Y15272963D01*
X22529894Y15272963D01*
X22529894Y16220700D01*
X22790244Y16220700D01*
X22903651Y16212366D01*
G37*
G36*
X17172478Y16230423D02*
G01*
X17257806Y16202444D01*
X17333411Y16157200D01*
X17398300Y16096081D01*
X17451084Y16019484D01*
X17490375Y15927806D01*
X17514783Y15822436D01*
X17522919Y15704762D01*
X17514783Y15585502D01*
X17490375Y15478544D01*
X17451084Y15385278D01*
X17398300Y15307094D01*
X17333411Y15244586D01*
X17257806Y15198350D01*
X17172478Y15169775D01*
X17078419Y15160250D01*
X16984161Y15169775D01*
X16898237Y15198350D01*
X16822037Y15244586D01*
X16756950Y15307094D01*
X16704166Y15385278D01*
X16664875Y15478544D01*
X16640467Y15585502D01*
X16632331Y15704762D01*
X16768856Y15704762D01*
X16774412Y15612291D01*
X16791081Y15528550D01*
X16817870Y15454930D01*
X16853787Y15392819D01*
X16898436Y15343011D01*
X16951419Y15306300D01*
X17011744Y15283678D01*
X17078419Y15276137D01*
X17144895Y15283678D01*
X17204625Y15306300D01*
X17257012Y15343011D01*
X17301462Y15392819D01*
X17337380Y15454930D01*
X17364169Y15528550D01*
X17380837Y15612291D01*
X17386394Y15704762D01*
X17380837Y15796837D01*
X17364169Y15879387D01*
X17337380Y15951222D01*
X17301462Y16011150D01*
X17204625Y16094494D01*
X17144895Y16116520D01*
X17078419Y16123863D01*
X17011744Y16116520D01*
X16951419Y16094494D01*
X16853787Y16011150D01*
X16817870Y15951222D01*
X16791081Y15879387D01*
X16774412Y15796837D01*
X16768856Y15704762D01*
X16632331Y15704762D01*
X16640467Y15823627D01*
X16664875Y15929394D01*
X16704166Y16021072D01*
X16756950Y16097669D01*
X16822037Y16158589D01*
X16898237Y16203238D01*
X16984161Y16230622D01*
X17078419Y16239750D01*
X17172478Y16230423D01*
G37*
G36*
X15370070Y16230622D02*
G01*
X15445675Y16203238D01*
X15510167Y16163550D01*
X15562356Y16117513D01*
X15570294Y16115131D01*
X15578231Y16115925D01*
X15578231Y16106400D01*
X15570294Y16107194D01*
X15562356Y16104813D01*
X15500444Y16033375D01*
X15498062Y16025438D01*
X15498856Y16017500D01*
X15489331Y16017500D01*
X15490125Y16025438D01*
X15487744Y16033375D01*
X15397256Y16099256D01*
X15286131Y16123863D01*
X15214892Y16116520D01*
X15150400Y16094494D01*
X15093845Y16058775D01*
X15046419Y16010356D01*
X15008319Y15949833D01*
X14979744Y15877800D01*
X14961884Y15795250D01*
X14955931Y15703175D01*
X14961686Y15609711D01*
X14978950Y15526169D01*
X15006731Y15453342D01*
X15044037Y15392025D01*
X15090472Y15342813D01*
X15145637Y15306300D01*
X15208939Y15283678D01*
X15279781Y15276137D01*
X15347250Y15283281D01*
X15406781Y15304713D01*
X15460756Y15339241D01*
X15511556Y15385675D01*
X15513937Y15393613D01*
X15513144Y15401550D01*
X15522669Y15401550D01*
X15521875Y15393613D01*
X15524256Y15385675D01*
X15586169Y15317413D01*
X15594106Y15315031D01*
X15602044Y15315825D01*
X15602044Y15306300D01*
X15594106Y15307094D01*
X15586169Y15304713D01*
X15521875Y15243991D01*
X15449644Y15198350D01*
X15368284Y15169775D01*
X15276606Y15160250D01*
X15181952Y15169378D01*
X15094837Y15196762D01*
X15017050Y15241411D01*
X14950375Y15302331D01*
X14895805Y15379325D01*
X14854331Y15472194D01*
X14828137Y15579548D01*
X14819406Y15700000D01*
X14828137Y15819063D01*
X14854331Y15925425D01*
X14896202Y16017897D01*
X14951962Y16095288D01*
X15020225Y16157002D01*
X15099600Y16202444D01*
X15188302Y16230423D01*
X15284544Y16239750D01*
X15370070Y16230622D01*
G37*
G36*
X20356408Y16230622D02*
G01*
X20432012Y16203238D01*
X20496505Y16163550D01*
X20548694Y16117513D01*
X20556631Y16115131D01*
X20564569Y16115925D01*
X20564569Y16106400D01*
X20556631Y16107194D01*
X20548694Y16104813D01*
X20486781Y16033375D01*
X20484400Y16025438D01*
X20485194Y16017500D01*
X20475669Y16017500D01*
X20476462Y16025438D01*
X20474081Y16033375D01*
X20383594Y16099256D01*
X20272469Y16123863D01*
X20201230Y16116520D01*
X20136737Y16094494D01*
X20080183Y16058775D01*
X20032756Y16010356D01*
X19994656Y15949833D01*
X19966081Y15877800D01*
X19948222Y15795250D01*
X19942269Y15703175D01*
X19948023Y15609711D01*
X19965287Y15526169D01*
X19993069Y15453342D01*
X20030375Y15392025D01*
X20076809Y15342813D01*
X20131975Y15306300D01*
X20195277Y15283678D01*
X20266119Y15276137D01*
X20333587Y15283281D01*
X20393119Y15304713D01*
X20447094Y15339241D01*
X20497894Y15385675D01*
X20500275Y15393613D01*
X20499481Y15401550D01*
X20509006Y15401550D01*
X20508212Y15393613D01*
X20510594Y15385675D01*
X20572506Y15317413D01*
X20580444Y15315031D01*
X20588381Y15315825D01*
X20588381Y15306300D01*
X20580444Y15307094D01*
X20572506Y15304713D01*
X20508212Y15243991D01*
X20435981Y15198350D01*
X20354622Y15169775D01*
X20262944Y15160250D01*
X20168289Y15169378D01*
X20081175Y15196762D01*
X20003387Y15241411D01*
X19936712Y15302331D01*
X19882142Y15379325D01*
X19840669Y15472194D01*
X19814475Y15579548D01*
X19805744Y15700000D01*
X19814475Y15819063D01*
X19840669Y15925425D01*
X19882539Y16017897D01*
X19938300Y16095288D01*
X20006562Y16157002D01*
X20085937Y16202444D01*
X20174639Y16230423D01*
X20270881Y16239750D01*
X20356408Y16230622D01*
G37*
G36*
X18130534Y16231019D02*
G01*
X18211894Y16204825D01*
X18284125Y16164741D01*
X18345244Y16114338D01*
X18348419Y16114338D01*
X18353181Y16115925D01*
X18354769Y16106400D01*
X18349212Y16107988D01*
X18345244Y16106400D01*
X18281744Y16030200D01*
X18281744Y16025438D01*
X18283331Y16020675D01*
X18273806Y16019087D01*
X18276187Y16024644D01*
X18275394Y16028613D01*
X18170619Y16098463D01*
X18109897Y16117513D01*
X18042031Y16123863D01*
X17962061Y16113742D01*
X17899950Y16083381D01*
X17860064Y16035161D01*
X17846769Y15971463D01*
X17862644Y15907169D01*
X17903125Y15861131D01*
X17958687Y15826206D01*
X18019806Y15798425D01*
X18169031Y15734925D01*
X18253962Y15691269D01*
X18321431Y15634119D01*
X18366675Y15557919D01*
X18383344Y15457112D01*
X18358737Y15341225D01*
X18288094Y15246769D01*
X18176175Y15183269D01*
X18106127Y15166005D01*
X18027744Y15160250D01*
X17922770Y15170370D01*
X17826925Y15200731D01*
X17741398Y15248555D01*
X17667381Y15311063D01*
X17664206Y15311063D01*
X17659444Y15309475D01*
X17657856Y15319000D01*
X17663412Y15317413D01*
X17667381Y15319000D01*
X17740406Y15401550D01*
X17740406Y15406312D01*
X17738819Y15411075D01*
X17748344Y15412662D01*
X17746756Y15407106D01*
X17746756Y15403137D01*
X17806883Y15351544D01*
X17876137Y15311063D01*
X17951742Y15284869D01*
X18030919Y15276137D01*
X18122597Y15287845D01*
X18191256Y15322969D01*
X18234119Y15377142D01*
X18248406Y15446000D01*
X18234912Y15513469D01*
X18197606Y15561094D01*
X18142044Y15597606D01*
X18073781Y15630150D01*
X17924556Y15695238D01*
X17850737Y15733337D01*
X17782475Y15788106D01*
X17732469Y15863512D01*
X17713419Y15963525D01*
X17738025Y16073856D01*
X17807081Y16161169D01*
X17911062Y16219113D01*
X17973570Y16234591D01*
X18042031Y16239750D01*
X18130534Y16231019D01*
G37*
G36*
X15779844Y16223875D02*
G01*
X15783019Y16220700D01*
X16105281Y16220700D01*
X16181481Y16216930D01*
X16251331Y16205619D01*
X16366425Y16155613D01*
X16441831Y16065125D01*
X16462072Y16003213D01*
X16468819Y15928600D01*
X16454730Y15825016D01*
X16412462Y15742862D01*
X16345986Y15681347D01*
X16259269Y15639675D01*
X16237044Y15640469D01*
X16214819Y15647612D01*
X16211644Y15638088D01*
X16248156Y15612687D01*
X16497394Y15184062D01*
X16501362Y15181681D01*
X16506919Y15180887D01*
X16502156Y15172950D01*
X16498981Y15176919D01*
X16495806Y15179300D01*
X16354519Y15179300D01*
X16352137Y15177712D01*
X16351344Y15172950D01*
X16343406Y15177712D01*
X16346581Y15180887D01*
X16346581Y15184062D01*
X16105281Y15609513D01*
X16108456Y15626975D01*
X16100519Y15631737D01*
X16087819Y15619037D01*
X15935419Y15619037D01*
X15914781Y15625387D01*
X15897319Y15639675D01*
X15890969Y15633325D01*
X15905256Y15615863D01*
X15911606Y15595225D01*
X15911606Y15184062D01*
X15914781Y15180887D01*
X15919544Y15179300D01*
X15911606Y15171362D01*
X15910019Y15176125D01*
X15906844Y15179300D01*
X15783019Y15179300D01*
X15779844Y15176125D01*
X15778256Y15171362D01*
X15770319Y15179300D01*
X15775081Y15180887D01*
X15778256Y15184062D01*
X15778256Y15712700D01*
X15890969Y15712700D01*
X15897319Y15706350D01*
X15914781Y15720638D01*
X15935419Y15726987D01*
X16086231Y15726987D01*
X16193983Y15739489D01*
X16272762Y15776994D01*
X16320983Y15839898D01*
X16337056Y15928600D01*
X16320983Y16016309D01*
X16272762Y16073063D01*
X16193983Y16104019D01*
X16086231Y16114338D01*
X15935419Y16114338D01*
X15914781Y16120688D01*
X15897319Y16134975D01*
X15890969Y16128625D01*
X15905256Y16111163D01*
X15911606Y16090525D01*
X15911606Y15750800D01*
X15905256Y15730162D01*
X15890969Y15712700D01*
X15778256Y15712700D01*
X15778256Y16215938D01*
X15775081Y16219113D01*
X15770319Y16220700D01*
X15778256Y16228638D01*
X15779844Y16223875D01*
G37*
G36*
X21620256Y16223875D02*
G01*
X21623431Y16220700D01*
X21945694Y16220700D01*
X22021894Y16216930D01*
X22091744Y16205619D01*
X22206837Y16155613D01*
X22282244Y16065125D01*
X22302484Y16003213D01*
X22309231Y15928600D01*
X22295142Y15825016D01*
X22252875Y15742862D01*
X22186398Y15681347D01*
X22099681Y15639675D01*
X22077456Y15640469D01*
X22055231Y15647612D01*
X22052056Y15638088D01*
X22088569Y15612687D01*
X22337806Y15184062D01*
X22341775Y15181681D01*
X22347331Y15180887D01*
X22342569Y15172950D01*
X22339394Y15176919D01*
X22336219Y15179300D01*
X22194931Y15179300D01*
X22192550Y15177712D01*
X22191756Y15172950D01*
X22183819Y15177712D01*
X22186994Y15180887D01*
X22186994Y15184062D01*
X21945694Y15609513D01*
X21948869Y15626975D01*
X21940931Y15631737D01*
X21928231Y15619037D01*
X21775831Y15619037D01*
X21755194Y15625387D01*
X21737731Y15639675D01*
X21731381Y15633325D01*
X21745669Y15615863D01*
X21752019Y15595225D01*
X21752019Y15184062D01*
X21755194Y15180887D01*
X21759956Y15179300D01*
X21752019Y15171362D01*
X21750431Y15176125D01*
X21747256Y15179300D01*
X21623431Y15179300D01*
X21620256Y15176125D01*
X21618669Y15171362D01*
X21610731Y15179300D01*
X21615494Y15180887D01*
X21618669Y15184062D01*
X21618669Y15712700D01*
X21731381Y15712700D01*
X21737731Y15706350D01*
X21755194Y15720638D01*
X21775831Y15726987D01*
X21926644Y15726987D01*
X22034395Y15739489D01*
X22113175Y15776994D01*
X22161395Y15839898D01*
X22177469Y15928600D01*
X22161395Y16016309D01*
X22113175Y16073063D01*
X22034395Y16104019D01*
X21926644Y16114338D01*
X21775831Y16114338D01*
X21755194Y16120688D01*
X21737731Y16134975D01*
X21731381Y16128625D01*
X21745669Y16111163D01*
X21752019Y16090525D01*
X21752019Y15750800D01*
X21745669Y15730162D01*
X21731381Y15712700D01*
X21618669Y15712700D01*
X21618669Y16215938D01*
X21615494Y16219113D01*
X21610731Y16220700D01*
X21618669Y16228638D01*
X21620256Y16223875D01*
G37*
G36*
X14198694Y16220700D02*
G01*
X14194725Y16219113D01*
X14192344Y16215938D01*
X14192344Y15184062D01*
X14194725Y15180887D01*
X14198694Y15179300D01*
X14192344Y15172950D01*
X14190756Y15176919D01*
X14187581Y15179300D01*
X14071694Y15179300D01*
X14068519Y15176919D01*
X14066931Y15172950D01*
X14060581Y15179300D01*
X14064550Y15180887D01*
X14066931Y15184062D01*
X14066931Y15752387D01*
X14067725Y15818864D01*
X14070106Y15891294D01*
X14073281Y15964517D01*
X14076456Y16033375D01*
X14081219Y16059569D01*
X14087569Y16085763D01*
X14078044Y16087350D01*
X14073281Y16061156D01*
X14068519Y16034963D01*
X13995494Y15828588D01*
X13797056Y15288837D01*
X13797850Y15285663D01*
X13801819Y15282487D01*
X13793881Y15277725D01*
X13793087Y15282487D01*
X13790706Y15284075D01*
X13724031Y15284075D01*
X13721650Y15282487D01*
X13720856Y15277725D01*
X13712919Y15282487D01*
X13716887Y15285663D01*
X13717681Y15288837D01*
X13519244Y15828588D01*
X13446219Y16034963D01*
X13441456Y16061156D01*
X13436694Y16087350D01*
X13427169Y16085763D01*
X13433519Y16059569D01*
X13438281Y16033375D01*
X13441258Y15964517D01*
X13443837Y15891294D01*
X13445623Y15818864D01*
X13446219Y15752387D01*
X13446219Y15184062D01*
X13448600Y15180887D01*
X13452569Y15179300D01*
X13446219Y15172950D01*
X13444631Y15176919D01*
X13441456Y15179300D01*
X13328744Y15179300D01*
X13325569Y15176919D01*
X13323981Y15172950D01*
X13317631Y15179300D01*
X13321600Y15180887D01*
X13323981Y15184062D01*
X13323981Y16215938D01*
X13321600Y16219113D01*
X13317631Y16220700D01*
X13323981Y16227050D01*
X13325569Y16223081D01*
X13328744Y16220700D01*
X13476381Y16220700D01*
X13478762Y16222288D01*
X13479556Y16227050D01*
X13487494Y16222288D01*
X13483525Y16219113D01*
X13482731Y16215938D01*
X13682756Y15661900D01*
X13751019Y15474575D01*
X13754987Y15448381D01*
X13755781Y15422188D01*
X13765306Y15422188D01*
X13766100Y15448381D01*
X13770069Y15474575D01*
X13836744Y15661900D01*
X14035181Y16215938D01*
X14034387Y16219113D01*
X14030419Y16222288D01*
X14038356Y16227050D01*
X14039150Y16222288D01*
X14041531Y16220700D01*
X14187581Y16220700D01*
X14190756Y16223081D01*
X14192344Y16227050D01*
X14198694Y16220700D01*
G37*
G36*
X27284965Y52997698D02*
G01*
X27295859Y52985795D01*
X27302160Y52974464D01*
X27305114Y52959448D01*
X27305969Y52936494D01*
X27306003Y52925907D01*
X27306003Y52875155D01*
X27359606Y52875155D01*
X27435778Y52868500D01*
X27508464Y52848839D01*
X27576582Y52816625D01*
X27639054Y52772312D01*
X27668215Y52745379D01*
X27681015Y52732098D01*
X27693389Y52718157D01*
X27706133Y52702356D01*
X27720044Y52683495D01*
X27735916Y52660375D01*
X27754545Y52631793D01*
X27776727Y52596551D01*
X27803257Y52553448D01*
X27834932Y52501284D01*
X27872546Y52438859D01*
X27883585Y52420485D01*
X28047833Y52146999D01*
X28645781Y52143437D01*
X28673866Y52187905D01*
X28714431Y52240784D01*
X28763792Y52286354D01*
X28819400Y52322776D01*
X28878703Y52348211D01*
X28906586Y52355730D01*
X28944864Y52360796D01*
X28989696Y52361660D01*
X29036044Y52358640D01*
X29078868Y52352054D01*
X29111729Y52342772D01*
X29172635Y52312196D01*
X29227520Y52270754D01*
X29274447Y52220423D01*
X29311477Y52163180D01*
X29330714Y52119383D01*
X29340078Y52082995D01*
X29346014Y52038819D01*
X29348261Y51992096D01*
X29346554Y51948069D01*
X29341027Y51913496D01*
X29317827Y51849337D01*
X29283040Y51790668D01*
X29238174Y51739044D01*
X29184739Y51696021D01*
X29124244Y51663154D01*
X29084129Y51648641D01*
X29049057Y51641710D01*
X29006186Y51638353D01*
X28960927Y51638600D01*
X28918689Y51642483D01*
X28893119Y51647563D01*
X28831348Y51670816D01*
X28773473Y51705900D01*
X28721830Y51751063D01*
X28678758Y51804551D01*
X28673911Y51812023D01*
X28645872Y51856420D01*
X28490246Y51856420D01*
X28365544Y51632503D01*
X28336429Y51580479D01*
X28308503Y51531063D01*
X28282671Y51485820D01*
X28259834Y51446309D01*
X28240896Y51414093D01*
X28226759Y51390733D01*
X28218345Y51377820D01*
X28174762Y51327585D01*
X28122563Y51282815D01*
X28065312Y51246143D01*
X28006573Y51220204D01*
X28003885Y51219310D01*
X27984360Y51213619D01*
X27963715Y51209378D01*
X27939228Y51206301D01*
X27908175Y51204096D01*
X27867835Y51202477D01*
X27837422Y51201651D01*
X27715893Y51198720D01*
X27704753Y51177166D01*
X27667039Y51118488D01*
X27620007Y51069213D01*
X27564947Y51030113D01*
X27503148Y51001962D01*
X27435898Y50985532D01*
X27378066Y50981346D01*
X27308841Y50987099D01*
X27246273Y51004491D01*
X27189050Y51034050D01*
X27135861Y51076303D01*
X27131633Y51080351D01*
X27084984Y51132949D01*
X27051259Y51188317D01*
X27029755Y51248096D01*
X27019771Y51313927D01*
X27018843Y51343634D01*
X27024221Y51412482D01*
X27040823Y51474591D01*
X27069353Y51531604D01*
X27110514Y51585160D01*
X27131633Y51606917D01*
X27184550Y51650235D01*
X27241392Y51680816D01*
X27303472Y51699187D01*
X27372101Y51705875D01*
X27378066Y51705922D01*
X27449150Y51699581D01*
X27515636Y51680823D01*
X27576333Y51650365D01*
X27630050Y51608926D01*
X27675594Y51557224D01*
X27705586Y51508491D01*
X27717559Y51485326D01*
X27807488Y51489018D01*
X27854450Y51491727D01*
X27890310Y51495958D01*
X27917615Y51502439D01*
X27938913Y51511897D01*
X27956753Y51525060D01*
X27966183Y51534320D01*
X27973864Y51544744D01*
X27986644Y51564624D01*
X28003394Y51591992D01*
X28022986Y51624878D01*
X28044294Y51661314D01*
X28066189Y51699333D01*
X28087545Y51736964D01*
X28107234Y51772240D01*
X28124128Y51803191D01*
X28137100Y51827851D01*
X28145022Y51844248D01*
X28146972Y51849975D01*
X28140208Y51850989D01*
X28120209Y51851928D01*
X28087414Y51852789D01*
X28042261Y51853567D01*
X27985190Y51854260D01*
X27916640Y51854863D01*
X27837049Y51855373D01*
X27746857Y51855786D01*
X27646502Y51856099D01*
X27536423Y51856309D01*
X27417060Y51856410D01*
X27364672Y51856420D01*
X26582373Y51856420D01*
X26580110Y51735061D01*
X26579080Y51689874D01*
X26577772Y51656258D01*
X26575971Y51632110D01*
X26573459Y51615328D01*
X26570020Y51603808D01*
X26565786Y51595953D01*
X26543518Y51574717D01*
X26514146Y51563597D01*
X26500289Y51562423D01*
X26490876Y51565980D01*
X26471296Y51576098D01*
X26442891Y51591951D01*
X26406999Y51612710D01*
X26364961Y51637548D01*
X26318116Y51665637D01*
X26267805Y51696150D01*
X26215366Y51728257D01*
X26162141Y51761133D01*
X26109468Y51793948D01*
X26058687Y51825876D01*
X26011139Y51856088D01*
X25968163Y51883758D01*
X25931099Y51908056D01*
X25901287Y51928156D01*
X25880066Y51943229D01*
X25868776Y51952448D01*
X25868493Y51952745D01*
X25852603Y51978640D01*
X25849328Y52006816D01*
X25858663Y52034271D01*
X25868493Y52047255D01*
X25879243Y52056156D01*
X25899992Y52070952D01*
X25929401Y52090817D01*
X25966130Y52114922D01*
X26008838Y52142440D01*
X26056187Y52172543D01*
X26106836Y52204404D01*
X26159445Y52237195D01*
X26212675Y52270087D01*
X26265185Y52302253D01*
X26315637Y52332867D01*
X26362689Y52361098D01*
X26405004Y52386121D01*
X26441239Y52407107D01*
X26470057Y52423229D01*
X26490116Y52433658D01*
X26500078Y52437568D01*
X26500289Y52437577D01*
X26531520Y52431425D01*
X26557323Y52414299D01*
X26565786Y52404047D01*
X26570284Y52395541D01*
X26573654Y52383734D01*
X26576112Y52366523D01*
X26577873Y52341806D01*
X26579155Y52307479D01*
X26580110Y52264939D01*
X26582373Y52143580D01*
X27142465Y52143580D01*
X27228656Y52143615D01*
X27310797Y52143718D01*
X27387876Y52143882D01*
X27458883Y52144102D01*
X27522805Y52144373D01*
X27578632Y52144690D01*
X27625352Y52145047D01*
X27661954Y52145439D01*
X27687427Y52145860D01*
X27700759Y52146306D01*
X27702557Y52146544D01*
X27699099Y52153953D01*
X27689414Y52171261D01*
X27674536Y52196779D01*
X27655496Y52228819D01*
X27633329Y52265692D01*
X27609067Y52305709D01*
X27583743Y52347181D01*
X27558392Y52388420D01*
X27534045Y52427736D01*
X27511737Y52463442D01*
X27492499Y52493848D01*
X27477366Y52517266D01*
X27467370Y52532007D01*
X27464377Y52535869D01*
X27431192Y52561799D01*
X27389891Y52576858D01*
X27348735Y52581007D01*
X27306003Y52581158D01*
X27306003Y52532614D01*
X27305569Y52506664D01*
X27303286Y52489842D01*
X27297683Y52477606D01*
X27287292Y52465415D01*
X27282756Y52460824D01*
X27259510Y52437577D01*
X26771338Y52437577D01*
X26748092Y52460824D01*
X26724845Y52484070D01*
X26724845Y52724503D01*
X26724896Y52790785D01*
X26725148Y52844803D01*
X26725750Y52887966D01*
X26726852Y52921686D01*
X26728603Y52947373D01*
X26731152Y52966436D01*
X26734649Y52980286D01*
X26739242Y52990333D01*
X26745081Y52997987D01*
X26752315Y53004659D01*
X26754703Y53006618D01*
X26759564Y53009732D01*
X26766590Y53012253D01*
X26777160Y53014243D01*
X26792651Y53015765D01*
X26814442Y53016883D01*
X26843910Y53017658D01*
X26882433Y53018155D01*
X26931389Y53018435D01*
X26992157Y53018563D01*
X27016607Y53018583D01*
X27263928Y53018735D01*
X27284965Y52997698D01*
G37*
G36*
X24827050Y6760288D02*
G01*
X24823081Y6758700D01*
X24820700Y6755525D01*
X24820700Y6631700D01*
X24823081Y6628525D01*
X24827050Y6626938D01*
X24820700Y6620588D01*
X24819113Y6624556D01*
X24815938Y6626938D01*
X23784062Y6626938D01*
X23780887Y6624556D01*
X23779300Y6620588D01*
X23772950Y6626938D01*
X23776919Y6628525D01*
X23779300Y6631700D01*
X23779300Y6755525D01*
X23776919Y6758700D01*
X23772950Y6760288D01*
X23779300Y6766638D01*
X23780887Y6762669D01*
X23784062Y6760288D01*
X24815938Y6760288D01*
X24819113Y6762669D01*
X24820700Y6766638D01*
X24827050Y6760288D01*
G37*
G36*
X23898362Y7701675D02*
G01*
X23892806Y7698500D01*
X23890425Y7695325D01*
X23890425Y7409575D01*
X23884075Y7388938D01*
X23869787Y7371475D01*
X23876137Y7365125D01*
X23893600Y7379413D01*
X23914237Y7385763D01*
X24814350Y7385763D01*
X24818319Y7388938D01*
X24820700Y7393700D01*
X24828638Y7385763D01*
X24823875Y7383381D01*
X24820700Y7379413D01*
X24820700Y7260350D01*
X24823875Y7256381D01*
X24828638Y7254000D01*
X24820700Y7246063D01*
X24818319Y7250825D01*
X24814350Y7254000D01*
X23914237Y7254000D01*
X23893600Y7260350D01*
X23876137Y7274638D01*
X23869787Y7268288D01*
X23884075Y7250825D01*
X23890425Y7230188D01*
X23890425Y6944438D01*
X23892806Y6941263D01*
X23898362Y6938088D01*
X23890425Y6930150D01*
X23888044Y6934913D01*
X23884075Y6938088D01*
X23785650Y6938088D01*
X23781681Y6934913D01*
X23779300Y6930150D01*
X23771362Y6938088D01*
X23776125Y6940469D01*
X23779300Y6944438D01*
X23779300Y7695325D01*
X23776125Y7699294D01*
X23771362Y7701675D01*
X23779300Y7709613D01*
X23781681Y7704850D01*
X23785650Y7701675D01*
X23884075Y7701675D01*
X23888044Y7704850D01*
X23890425Y7709613D01*
X23898362Y7701675D01*
G37*
G36*
X24692906Y8593850D02*
G01*
X24695287Y8585913D01*
X24756009Y8521619D01*
X24801650Y8449388D01*
X24830225Y8368028D01*
X24839750Y8276350D01*
X24830622Y8181695D01*
X24803238Y8094581D01*
X24758589Y8016794D01*
X24697669Y7950119D01*
X24620675Y7895548D01*
X24527806Y7854075D01*
X24420452Y7827881D01*
X24300000Y7819150D01*
X24180937Y7827881D01*
X24074575Y7854075D01*
X23982103Y7895945D01*
X23904712Y7951706D01*
X23842998Y8019969D01*
X23797556Y8099344D01*
X23769577Y8188045D01*
X23760250Y8284288D01*
X23769378Y8369814D01*
X23796762Y8445419D01*
X23836450Y8509911D01*
X23882487Y8562100D01*
X23884869Y8570038D01*
X23884075Y8577975D01*
X23893600Y8577975D01*
X23892806Y8570038D01*
X23895187Y8562100D01*
X23966625Y8500188D01*
X23974562Y8497806D01*
X23982500Y8498600D01*
X23982500Y8489075D01*
X23974562Y8489869D01*
X23966625Y8487488D01*
X23900744Y8397000D01*
X23876137Y8285875D01*
X23883480Y8214636D01*
X23905506Y8150144D01*
X23941225Y8093589D01*
X23989644Y8046163D01*
X24050167Y8008063D01*
X24122200Y7979488D01*
X24204750Y7961628D01*
X24296825Y7955675D01*
X24390289Y7961430D01*
X24473831Y7978694D01*
X24546658Y8006475D01*
X24607975Y8043781D01*
X24657187Y8090216D01*
X24693700Y8145381D01*
X24716322Y8208683D01*
X24723863Y8279525D01*
X24716719Y8346994D01*
X24695287Y8406525D01*
X24660759Y8460500D01*
X24614325Y8511300D01*
X24606387Y8513681D01*
X24598450Y8512888D01*
X24598450Y8522413D01*
X24606387Y8521619D01*
X24614325Y8524000D01*
X24682587Y8585913D01*
X24684969Y8593850D01*
X24684175Y8601788D01*
X24693700Y8601788D01*
X24692906Y8593850D01*
G37*
G36*
X24827050Y9527300D02*
G01*
X24823081Y9525713D01*
X24820700Y9522538D01*
X24820700Y9400300D01*
X24823081Y9397125D01*
X24827050Y9395537D01*
X24820700Y9389188D01*
X24819113Y9393156D01*
X24815938Y9395537D01*
X24353975Y9395537D01*
X24333337Y9401888D01*
X24315875Y9416175D01*
X24309525Y9409825D01*
X24323812Y9392363D01*
X24330162Y9371725D01*
X24330162Y8935163D01*
X24323812Y8914525D01*
X24309525Y8897063D01*
X24315875Y8890713D01*
X24333337Y8905000D01*
X24353975Y8911350D01*
X24815938Y8911350D01*
X24819113Y8913731D01*
X24820700Y8917700D01*
X24827050Y8911350D01*
X24823081Y8909763D01*
X24820700Y8906587D01*
X24820700Y8782762D01*
X24823081Y8779587D01*
X24827050Y8778000D01*
X24820700Y8771650D01*
X24819113Y8775619D01*
X24815938Y8778000D01*
X23784062Y8778000D01*
X23780887Y8775619D01*
X23779300Y8771650D01*
X23772950Y8778000D01*
X23776919Y8779587D01*
X23779300Y8782762D01*
X23779300Y8906587D01*
X23776919Y8909763D01*
X23772950Y8911350D01*
X23779300Y8917700D01*
X23780887Y8913731D01*
X23784062Y8911350D01*
X24192050Y8911350D01*
X24212687Y8905000D01*
X24230150Y8890713D01*
X24236500Y8897063D01*
X24222212Y8914525D01*
X24215862Y8935163D01*
X24215862Y9371725D01*
X24222212Y9392363D01*
X24236500Y9409825D01*
X24230150Y9416175D01*
X24212687Y9401888D01*
X24192050Y9395537D01*
X23784062Y9395537D01*
X23780887Y9393156D01*
X23779300Y9389188D01*
X23772950Y9395537D01*
X23776919Y9397125D01*
X23779300Y9400300D01*
X23779300Y9522538D01*
X23776919Y9525713D01*
X23772950Y9527300D01*
X23779300Y9533650D01*
X23780887Y9529681D01*
X23784062Y9527300D01*
X24815938Y9527300D01*
X24819113Y9529681D01*
X24820700Y9533650D01*
X24827050Y9527300D01*
G37*
G36*
X24658775Y5167231D02*
G01*
X24753231Y5096588D01*
X24816731Y4984669D01*
X24833995Y4914620D01*
X24839750Y4836238D01*
X24829630Y4731264D01*
X24799269Y4635419D01*
X24751445Y4549892D01*
X24688937Y4475875D01*
X24688937Y4472700D01*
X24690525Y4467938D01*
X24681000Y4466350D01*
X24682587Y4471906D01*
X24681000Y4475875D01*
X24598450Y4548900D01*
X24593688Y4548900D01*
X24588925Y4547313D01*
X24587338Y4556838D01*
X24592894Y4555250D01*
X24596863Y4555250D01*
X24648456Y4615377D01*
X24688937Y4684631D01*
X24715131Y4760236D01*
X24723863Y4839413D01*
X24712155Y4931091D01*
X24677031Y4999750D01*
X24622858Y5042613D01*
X24554000Y5056900D01*
X24486531Y5043406D01*
X24438906Y5006100D01*
X24402394Y4950538D01*
X24369850Y4882275D01*
X24304762Y4733050D01*
X24266663Y4659231D01*
X24211894Y4590969D01*
X24136488Y4540963D01*
X24036475Y4521913D01*
X23926144Y4546519D01*
X23838831Y4615575D01*
X23780887Y4719556D01*
X23765409Y4782064D01*
X23760250Y4850525D01*
X23768981Y4939028D01*
X23795175Y5020388D01*
X23835259Y5092619D01*
X23885662Y5153738D01*
X23885662Y5156913D01*
X23884075Y5161675D01*
X23893600Y5163263D01*
X23892012Y5157706D01*
X23893600Y5153738D01*
X23969800Y5090238D01*
X23974562Y5090238D01*
X23979325Y5091825D01*
X23980913Y5082300D01*
X23975356Y5084681D01*
X23971387Y5083888D01*
X23901537Y4979113D01*
X23882487Y4918391D01*
X23876137Y4850525D01*
X23886258Y4770555D01*
X23916619Y4708444D01*
X23964839Y4668558D01*
X24028537Y4655263D01*
X24092831Y4671138D01*
X24138869Y4711619D01*
X24173794Y4767181D01*
X24201575Y4828300D01*
X24265075Y4977525D01*
X24308731Y5062456D01*
X24365881Y5129925D01*
X24442081Y5175169D01*
X24542888Y5191838D01*
X24658775Y5167231D01*
G37*
G36*
X23781681Y6457075D02*
G01*
X23784062Y6453900D01*
X24815938Y6241175D01*
X24819113Y6242763D01*
X24820700Y6245938D01*
X24827050Y6238000D01*
X24823081Y6237206D01*
X24820700Y6234825D01*
X24820700Y6084013D01*
X24823081Y6081631D01*
X24827050Y6080838D01*
X24820700Y6072900D01*
X24819113Y6076075D01*
X24815938Y6077663D01*
X24193637Y5922088D01*
X24088862Y5897481D01*
X23985675Y5874463D01*
X23957100Y5872875D01*
X23928525Y5874463D01*
X23926937Y5864938D01*
X23956306Y5865731D01*
X23985675Y5863350D01*
X24088862Y5838744D01*
X24193637Y5814138D01*
X24815938Y5660150D01*
X24819113Y5661738D01*
X24820700Y5664913D01*
X24827050Y5656975D01*
X24823081Y5656181D01*
X24820700Y5653800D01*
X24820700Y5506163D01*
X24823081Y5503781D01*
X24827050Y5502988D01*
X24820700Y5495050D01*
X24819113Y5498225D01*
X24815938Y5499813D01*
X23784062Y5282325D01*
X23781681Y5279150D01*
X23780887Y5274388D01*
X23772950Y5280738D01*
X23776919Y5282325D01*
X23779300Y5285500D01*
X23779300Y5412500D01*
X23776919Y5414881D01*
X23772950Y5415675D01*
X23779300Y5423613D01*
X23780887Y5420438D01*
X23784062Y5418850D01*
X24346037Y5526800D01*
X24423428Y5541484D01*
X24500025Y5556963D01*
X24576622Y5572441D01*
X24654013Y5587125D01*
X24682587Y5588713D01*
X24711163Y5587125D01*
X24712750Y5596650D01*
X24683381Y5595856D01*
X24654013Y5598238D01*
X24576423Y5614708D01*
X24499231Y5632369D01*
X24422436Y5650427D01*
X24346037Y5668088D01*
X23784062Y5810963D01*
X23780887Y5809375D01*
X23779300Y5806200D01*
X23772950Y5814138D01*
X23776919Y5814931D01*
X23779300Y5817313D01*
X23779300Y5928438D01*
X23776919Y5930819D01*
X23772950Y5931613D01*
X23779300Y5939550D01*
X23780887Y5936375D01*
X23784062Y5934788D01*
X24346037Y6077663D01*
X24422436Y6095323D01*
X24499231Y6113381D01*
X24576423Y6131439D01*
X24654013Y6149100D01*
X24683381Y6151481D01*
X24712750Y6150688D01*
X24711163Y6160213D01*
X24682587Y6158625D01*
X24654013Y6160213D01*
X24576423Y6174698D01*
X24499231Y6189581D01*
X24422436Y6204067D01*
X24346037Y6217363D01*
X23784062Y6325313D01*
X23780887Y6323725D01*
X23779300Y6320550D01*
X23772950Y6328488D01*
X23776919Y6329281D01*
X23779300Y6331663D01*
X23779300Y6450725D01*
X23776919Y6453900D01*
X23772950Y6455488D01*
X23780887Y6461838D01*
X23781681Y6457075D01*
G37*
G36*
X25993663Y11740988D02*
G01*
X26011125Y11755275D01*
X26031763Y11761625D01*
X26415938Y11761625D01*
X26419113Y11764006D01*
X26420700Y11767975D01*
X26427050Y11761625D01*
X26423081Y11760037D01*
X26420700Y11756863D01*
X26420700Y11633038D01*
X26423081Y11629862D01*
X26427050Y11628275D01*
X26420700Y11621925D01*
X26419113Y11625894D01*
X26415938Y11628275D01*
X25384062Y11628275D01*
X25380887Y11625894D01*
X25379300Y11621925D01*
X25372950Y11628275D01*
X25376919Y11629862D01*
X25379300Y11633038D01*
X25379300Y11747337D01*
X25465025Y11747337D01*
X25471375Y11740988D01*
X25488837Y11755275D01*
X25509475Y11761625D01*
X25876188Y11761625D01*
X25896825Y11755275D01*
X25914288Y11740988D01*
X25920637Y11747337D01*
X25906350Y11764800D01*
X25900000Y11785437D01*
X25900000Y11931488D01*
X25887102Y12051542D01*
X25848406Y12135481D01*
X25781930Y12184892D01*
X25685687Y12201363D01*
X25590239Y12184495D01*
X25529319Y12133894D01*
X25496577Y12049558D01*
X25485662Y11931488D01*
X25485662Y11785437D01*
X25479312Y11764800D01*
X25465025Y11747337D01*
X25379300Y11747337D01*
X25379300Y11948950D01*
X25383269Y12031103D01*
X25395175Y12106112D01*
X25416011Y12172192D01*
X25446769Y12227556D01*
X25541225Y12305344D01*
X25606709Y12326180D01*
X25685687Y12333125D01*
X25762681Y12326180D01*
X25828562Y12305344D01*
X25928575Y12226763D01*
X25963302Y12171002D01*
X25988106Y12105319D01*
X26002989Y12030905D01*
X26007950Y11948950D01*
X26007950Y11785437D01*
X26001600Y11764800D01*
X25987313Y11747337D01*
X25993663Y11740988D01*
G37*
G36*
X26430225Y12826242D02*
G01*
X26401650Y12740319D01*
X26355414Y12664119D01*
X26292906Y12599031D01*
X26214722Y12546247D01*
X26121456Y12506956D01*
X26014498Y12482548D01*
X25895238Y12474413D01*
X25776373Y12482548D01*
X25670606Y12506956D01*
X25578928Y12546247D01*
X25502331Y12599031D01*
X25441411Y12664119D01*
X25396762Y12740319D01*
X25369378Y12826242D01*
X25360250Y12920500D01*
X25476137Y12920500D01*
X25483480Y12853825D01*
X25505506Y12793500D01*
X25588850Y12695869D01*
X25648778Y12659952D01*
X25720613Y12633163D01*
X25803163Y12616494D01*
X25895238Y12610938D01*
X25987709Y12616494D01*
X26071450Y12633163D01*
X26145070Y12659952D01*
X26207181Y12695869D01*
X26256989Y12740517D01*
X26293700Y12793500D01*
X26316322Y12853825D01*
X26323863Y12920500D01*
X26316322Y12986977D01*
X26293700Y13046706D01*
X26256989Y13099094D01*
X26207181Y13143544D01*
X26145070Y13179461D01*
X26071450Y13206250D01*
X25987709Y13222919D01*
X25895238Y13228475D01*
X25803163Y13222919D01*
X25720613Y13206250D01*
X25648778Y13179461D01*
X25588850Y13143544D01*
X25505506Y13046706D01*
X25483480Y12986977D01*
X25476137Y12920500D01*
X25360250Y12920500D01*
X25369577Y13014559D01*
X25397556Y13099888D01*
X25442800Y13175492D01*
X25503919Y13240381D01*
X25580516Y13293166D01*
X25672194Y13332456D01*
X25777564Y13356864D01*
X25895238Y13365000D01*
X26014498Y13356864D01*
X26121456Y13332456D01*
X26214722Y13293166D01*
X26292906Y13240381D01*
X26355414Y13175492D01*
X26401650Y13099888D01*
X26430225Y13014559D01*
X26439750Y12920500D01*
X26430225Y12826242D01*
G37*
G36*
X26427050Y15436688D02*
G01*
X26423081Y15435100D01*
X26420700Y15431925D01*
X26420700Y14825500D01*
X26423081Y14822325D01*
X26427050Y14820738D01*
X26420700Y14814388D01*
X26419113Y14818356D01*
X26415938Y14820738D01*
X25384062Y14820738D01*
X25380887Y14818356D01*
X25379300Y14814388D01*
X25372950Y14820738D01*
X25376919Y14822325D01*
X25379300Y14825500D01*
X25379300Y15416050D01*
X25376919Y15419225D01*
X25372950Y15420813D01*
X25379300Y15427163D01*
X25380887Y15423194D01*
X25384062Y15420813D01*
X25485662Y15420813D01*
X25488837Y15423194D01*
X25490425Y15427163D01*
X25496775Y15420813D01*
X25492806Y15419225D01*
X25490425Y15416050D01*
X25490425Y14977900D01*
X25484075Y14958056D01*
X25469787Y14941388D01*
X25477725Y14933450D01*
X25494394Y14947738D01*
X25514237Y14954088D01*
X25793637Y14954088D01*
X25813481Y14947738D01*
X25830150Y14933450D01*
X25838088Y14941388D01*
X25823800Y14958056D01*
X25817450Y14977900D01*
X25817450Y15343025D01*
X25815069Y15346200D01*
X25811100Y15347788D01*
X25817450Y15354138D01*
X25819037Y15350169D01*
X25822212Y15347788D01*
X25925400Y15347788D01*
X25928575Y15350169D01*
X25930162Y15354138D01*
X25936512Y15347788D01*
X25932544Y15346200D01*
X25930162Y15343025D01*
X25930162Y14977900D01*
X25923812Y14958056D01*
X25909525Y14941388D01*
X25917462Y14933450D01*
X25934131Y14947738D01*
X25953975Y14954088D01*
X26284175Y14954088D01*
X26304019Y14947738D01*
X26320688Y14933450D01*
X26328625Y14941388D01*
X26314337Y14958056D01*
X26307987Y14977900D01*
X26307987Y15431925D01*
X26305606Y15435100D01*
X26301637Y15436688D01*
X26307987Y15443038D01*
X26309575Y15439069D01*
X26312750Y15436688D01*
X26415938Y15436688D01*
X26419113Y15439069D01*
X26420700Y15443038D01*
X26427050Y15436688D01*
G37*
G36*
X25966675Y15762125D02*
G01*
X25984137Y15776413D01*
X26004775Y15782763D01*
X26415938Y15782763D01*
X26419113Y15785938D01*
X26420700Y15790700D01*
X26428638Y15782763D01*
X26423875Y15781175D01*
X26420700Y15778000D01*
X26420700Y15654175D01*
X26423875Y15651000D01*
X26428638Y15649413D01*
X26420700Y15641475D01*
X26419113Y15646238D01*
X26415938Y15649413D01*
X25384062Y15649413D01*
X25380887Y15646238D01*
X25379300Y15641475D01*
X25371362Y15649413D01*
X25376125Y15651000D01*
X25379300Y15654175D01*
X25379300Y15768475D01*
X25465025Y15768475D01*
X25471375Y15762125D01*
X25488837Y15776413D01*
X25509475Y15782763D01*
X25849200Y15782763D01*
X25869838Y15776413D01*
X25887300Y15762125D01*
X25893650Y15768475D01*
X25879362Y15785938D01*
X25873013Y15806575D01*
X25873013Y15957388D01*
X25860511Y16065139D01*
X25823006Y16143919D01*
X25760102Y16192139D01*
X25671400Y16208213D01*
X25583691Y16192139D01*
X25526937Y16143919D01*
X25495981Y16065139D01*
X25485662Y15957388D01*
X25485662Y15806575D01*
X25479312Y15785938D01*
X25465025Y15768475D01*
X25379300Y15768475D01*
X25379300Y15976438D01*
X25383070Y16052638D01*
X25394381Y16122488D01*
X25444387Y16237581D01*
X25534875Y16312988D01*
X25596787Y16333228D01*
X25671400Y16339975D01*
X25774984Y16325886D01*
X25857138Y16283619D01*
X25918653Y16217142D01*
X25960325Y16130425D01*
X25959531Y16108200D01*
X25952388Y16085975D01*
X25961912Y16082800D01*
X25987313Y16119313D01*
X26415938Y16368550D01*
X26418319Y16372519D01*
X26419113Y16378075D01*
X26427050Y16373313D01*
X26423081Y16370138D01*
X26420700Y16366963D01*
X26420700Y16225675D01*
X26422288Y16223294D01*
X26427050Y16222500D01*
X26422288Y16214563D01*
X26419113Y16217738D01*
X26415938Y16217738D01*
X25990487Y15976438D01*
X25973025Y15979613D01*
X25968263Y15971675D01*
X25980963Y15958975D01*
X25980963Y15806575D01*
X25974613Y15785938D01*
X25960325Y15768475D01*
X25966675Y15762125D01*
G37*
G36*
X25381681Y14650875D02*
G01*
X25384062Y14647700D01*
X26415938Y14434975D01*
X26419113Y14436563D01*
X26420700Y14439738D01*
X26427050Y14431800D01*
X26423081Y14431006D01*
X26420700Y14428625D01*
X26420700Y14277813D01*
X26423081Y14275431D01*
X26427050Y14274638D01*
X26420700Y14266700D01*
X26419113Y14269875D01*
X26415938Y14271463D01*
X25793637Y14115888D01*
X25688862Y14091281D01*
X25585675Y14068263D01*
X25557100Y14066675D01*
X25528525Y14068263D01*
X25526937Y14058738D01*
X25556306Y14059531D01*
X25585675Y14057150D01*
X25688862Y14032544D01*
X25793637Y14007938D01*
X26415938Y13853950D01*
X26419113Y13855538D01*
X26420700Y13858713D01*
X26427050Y13850775D01*
X26423081Y13849981D01*
X26420700Y13847600D01*
X26420700Y13699963D01*
X26423081Y13697581D01*
X26427050Y13696788D01*
X26420700Y13688850D01*
X26419113Y13692025D01*
X26415938Y13693613D01*
X25384062Y13476125D01*
X25381681Y13472950D01*
X25380887Y13468188D01*
X25372950Y13474538D01*
X25376919Y13476125D01*
X25379300Y13479300D01*
X25379300Y13606300D01*
X25376919Y13608681D01*
X25372950Y13609475D01*
X25379300Y13617413D01*
X25380887Y13614238D01*
X25384062Y13612650D01*
X25946037Y13720600D01*
X26023428Y13735284D01*
X26100025Y13750763D01*
X26176622Y13766241D01*
X26254013Y13780925D01*
X26282587Y13782513D01*
X26311163Y13780925D01*
X26312750Y13790450D01*
X26283381Y13789656D01*
X26254013Y13792038D01*
X26176423Y13808508D01*
X26099231Y13826169D01*
X26022436Y13844227D01*
X25946037Y13861888D01*
X25384062Y14004763D01*
X25380887Y14003175D01*
X25379300Y14000000D01*
X25372950Y14007938D01*
X25376919Y14008731D01*
X25379300Y14011113D01*
X25379300Y14122238D01*
X25376919Y14124619D01*
X25372950Y14125413D01*
X25379300Y14133350D01*
X25380887Y14130175D01*
X25384062Y14128588D01*
X25946037Y14271463D01*
X26022436Y14289123D01*
X26099231Y14307181D01*
X26176423Y14325239D01*
X26254013Y14342900D01*
X26283381Y14345281D01*
X26312750Y14344488D01*
X26311163Y14354013D01*
X26282587Y14352425D01*
X26254013Y14354013D01*
X26176423Y14368498D01*
X26099231Y14383381D01*
X26022436Y14397867D01*
X25946037Y14411163D01*
X25384062Y14519113D01*
X25380887Y14517525D01*
X25379300Y14514350D01*
X25372950Y14522288D01*
X25376919Y14523081D01*
X25379300Y14525463D01*
X25379300Y14644525D01*
X25376919Y14647700D01*
X25372950Y14649288D01*
X25380887Y14655638D01*
X25381681Y14650875D01*
G37*
G36*
X13583584Y6993976D02*
G01*
X13579819Y6992470D01*
X13577560Y6989458D01*
X13577560Y6010542D01*
X13579819Y6007530D01*
X13583584Y6006024D01*
X13577560Y6000000D01*
X13576054Y6003765D01*
X13573042Y6006024D01*
X13455572Y6006024D01*
X13452560Y6003765D01*
X13451054Y6000000D01*
X13445030Y6006024D01*
X13448795Y6007530D01*
X13451054Y6010542D01*
X13451054Y6989458D01*
X13448795Y6992470D01*
X13445030Y6993976D01*
X13451054Y7000000D01*
X13452560Y6996235D01*
X13455572Y6993976D01*
X13573042Y6993976D01*
X13576054Y6996235D01*
X13577560Y7000000D01*
X13583584Y6993976D01*
G37*
G36*
X14478163Y6993976D02*
G01*
X14473645Y6991717D01*
X14470633Y6987952D01*
X14470633Y6894578D01*
X14473645Y6890813D01*
X14478163Y6888554D01*
X14470633Y6881024D01*
X14467620Y6886295D01*
X14464608Y6888554D01*
X14193524Y6888554D01*
X14173946Y6894578D01*
X14157380Y6908133D01*
X14151355Y6902108D01*
X14164910Y6885542D01*
X14170934Y6865964D01*
X14170934Y6012048D01*
X14173946Y6008283D01*
X14178464Y6006024D01*
X14170934Y5998494D01*
X14168675Y6003012D01*
X14164910Y6006024D01*
X14051958Y6006024D01*
X14048193Y6003012D01*
X14045934Y5998494D01*
X14038404Y6006024D01*
X14042922Y6008283D01*
X14045934Y6012048D01*
X14045934Y6865964D01*
X14051958Y6885542D01*
X14065512Y6902108D01*
X14059488Y6908133D01*
X14042922Y6894578D01*
X14023343Y6888554D01*
X13752259Y6888554D01*
X13749247Y6886295D01*
X13746235Y6881024D01*
X13738705Y6888554D01*
X13743223Y6890813D01*
X13746235Y6894578D01*
X13746235Y6987952D01*
X13743223Y6991717D01*
X13738705Y6993976D01*
X13746235Y7001506D01*
X13748494Y6996988D01*
X13752259Y6993976D01*
X14464608Y6993976D01*
X14468373Y6996988D01*
X14470633Y7001506D01*
X14478163Y6993976D01*
G37*
G36*
X8571536Y6993976D02*
G01*
X8567771Y6992470D01*
X8565512Y6989458D01*
X8565512Y6924699D01*
X8567018Y6923193D01*
X8571536Y6923193D01*
X8568524Y6914157D01*
X8562500Y6915663D01*
X8057982Y6132530D01*
X8041416Y6117470D01*
X8021837Y6105422D01*
X8026355Y6097892D01*
X8045934Y6108434D01*
X8068524Y6112952D01*
X8565512Y6112952D01*
X8568524Y6115211D01*
X8570030Y6118976D01*
X8576054Y6112952D01*
X8572289Y6111446D01*
X8570030Y6108434D01*
X8570030Y6010542D01*
X8572289Y6007530D01*
X8576054Y6006024D01*
X8570030Y6000000D01*
X8568524Y6003765D01*
X8565512Y6006024D01*
X7893825Y6006024D01*
X7890813Y6003765D01*
X7889307Y6000000D01*
X7883283Y6006024D01*
X7887048Y6007530D01*
X7889307Y6010542D01*
X7889307Y6076807D01*
X7887801Y6078313D01*
X7883283Y6078313D01*
X7886295Y6087349D01*
X7892319Y6085843D01*
X8396837Y6868976D01*
X8413404Y6884036D01*
X8432982Y6896084D01*
X8428464Y6903614D01*
X8408886Y6893072D01*
X8386295Y6888554D01*
X7940512Y6888554D01*
X7937500Y6886295D01*
X7935994Y6882530D01*
X7929970Y6888554D01*
X7933735Y6890060D01*
X7935994Y6893072D01*
X7935994Y6989458D01*
X7933735Y6992470D01*
X7929970Y6993976D01*
X7935994Y7000000D01*
X7937500Y6996235D01*
X7940512Y6993976D01*
X8560994Y6993976D01*
X8564006Y6996235D01*
X8565512Y7000000D01*
X8571536Y6993976D01*
G37*
G36*
X10870105Y7003200D02*
G01*
X10951054Y6976657D01*
X11022779Y6933735D01*
X11084337Y6875753D01*
X11134413Y6803087D01*
X11171687Y6716114D01*
X11194842Y6616152D01*
X11202560Y6504518D01*
X11194842Y6391378D01*
X11171687Y6289910D01*
X11134413Y6201431D01*
X11084337Y6127259D01*
X11022779Y6067959D01*
X10951054Y6024096D01*
X10870105Y5996988D01*
X10780873Y5987952D01*
X10691453Y5996988D01*
X10609940Y6024096D01*
X10537651Y6067959D01*
X10475904Y6127259D01*
X10425828Y6201431D01*
X10388554Y6289910D01*
X10365399Y6391378D01*
X10357681Y6504518D01*
X10487199Y6504518D01*
X10492470Y6416792D01*
X10508283Y6337349D01*
X10533697Y6267508D01*
X10567771Y6208584D01*
X10610128Y6161333D01*
X10660392Y6126506D01*
X10717620Y6105045D01*
X10780873Y6097892D01*
X10843938Y6105045D01*
X10900602Y6126506D01*
X10950301Y6161333D01*
X10992470Y6208584D01*
X11026544Y6267508D01*
X11051958Y6337349D01*
X11067771Y6416792D01*
X11073042Y6504518D01*
X11067771Y6591867D01*
X11051958Y6670181D01*
X11026544Y6738328D01*
X10992470Y6795181D01*
X10900602Y6874247D01*
X10843938Y6895143D01*
X10780873Y6902108D01*
X10717620Y6895143D01*
X10660392Y6874247D01*
X10567771Y6795181D01*
X10533697Y6738328D01*
X10508283Y6670181D01*
X10492470Y6591867D01*
X10487199Y6504518D01*
X10357681Y6504518D01*
X10365399Y6617282D01*
X10388554Y6717620D01*
X10425828Y6804593D01*
X10475904Y6877259D01*
X10537651Y6935053D01*
X10609940Y6977410D01*
X10691453Y7003389D01*
X10780873Y7012048D01*
X10870105Y7003200D01*
G37*
G36*
X9336596Y6993976D02*
G01*
X9332831Y6992470D01*
X9330572Y6989458D01*
X9330572Y6893072D01*
X9332831Y6890060D01*
X9336596Y6888554D01*
X9330572Y6882530D01*
X9329066Y6886295D01*
X9326054Y6888554D01*
X8910392Y6888554D01*
X8891566Y6894578D01*
X8875753Y6908133D01*
X8868223Y6900602D01*
X8881777Y6884789D01*
X8887801Y6865964D01*
X8887801Y6600904D01*
X8881777Y6582078D01*
X8868223Y6566265D01*
X8875753Y6558735D01*
X8891566Y6572289D01*
X8910392Y6578313D01*
X9256777Y6578313D01*
X9259789Y6580572D01*
X9261295Y6584337D01*
X9267319Y6578313D01*
X9263554Y6576807D01*
X9261295Y6573795D01*
X9261295Y6475904D01*
X9263554Y6472892D01*
X9267319Y6471386D01*
X9261295Y6465361D01*
X9259789Y6469127D01*
X9256777Y6471386D01*
X8910392Y6471386D01*
X8891566Y6477410D01*
X8875753Y6490964D01*
X8868223Y6483434D01*
X8881777Y6467620D01*
X8887801Y6448795D01*
X8887801Y6135542D01*
X8881777Y6116717D01*
X8868223Y6100904D01*
X8875753Y6093373D01*
X8891566Y6106928D01*
X8910392Y6112952D01*
X9341114Y6112952D01*
X9344127Y6115211D01*
X9345633Y6118976D01*
X9351657Y6112952D01*
X9347892Y6111446D01*
X9345633Y6108434D01*
X9345633Y6010542D01*
X9347892Y6007530D01*
X9351657Y6006024D01*
X9345633Y6000000D01*
X9344127Y6003765D01*
X9341114Y6006024D01*
X8765813Y6006024D01*
X8762801Y6003765D01*
X8761295Y6000000D01*
X8755271Y6006024D01*
X8759036Y6007530D01*
X8761295Y6010542D01*
X8761295Y6989458D01*
X8759036Y6992470D01*
X8755271Y6993976D01*
X8761295Y7000000D01*
X8762801Y6996235D01*
X8765813Y6993976D01*
X9326054Y6993976D01*
X9329066Y6996235D01*
X9330572Y7000000D01*
X9336596Y6993976D01*
G37*
G36*
X15214608Y6993976D02*
G01*
X15210843Y6992470D01*
X15208584Y6989458D01*
X15208584Y6893072D01*
X15210843Y6890060D01*
X15214608Y6888554D01*
X15208584Y6882530D01*
X15207078Y6886295D01*
X15204066Y6888554D01*
X14788404Y6888554D01*
X14769578Y6894578D01*
X14753765Y6908133D01*
X14746235Y6900602D01*
X14759789Y6884789D01*
X14765813Y6865964D01*
X14765813Y6600904D01*
X14759789Y6582078D01*
X14746235Y6566265D01*
X14753765Y6558735D01*
X14769578Y6572289D01*
X14788404Y6578313D01*
X15134789Y6578313D01*
X15137801Y6580572D01*
X15139307Y6584337D01*
X15145331Y6578313D01*
X15141566Y6576807D01*
X15139307Y6573795D01*
X15139307Y6475904D01*
X15141566Y6472892D01*
X15145331Y6471386D01*
X15139307Y6465361D01*
X15137801Y6469127D01*
X15134789Y6471386D01*
X14788404Y6471386D01*
X14769578Y6477410D01*
X14753765Y6490964D01*
X14746235Y6483434D01*
X14759789Y6467620D01*
X14765813Y6448795D01*
X14765813Y6135542D01*
X14759789Y6116717D01*
X14746235Y6100904D01*
X14753765Y6093373D01*
X14769578Y6106928D01*
X14788404Y6112952D01*
X15219127Y6112952D01*
X15222139Y6115211D01*
X15223645Y6118976D01*
X15229669Y6112952D01*
X15225904Y6111446D01*
X15223645Y6108434D01*
X15223645Y6010542D01*
X15225904Y6007530D01*
X15229669Y6006024D01*
X15223645Y6000000D01*
X15222139Y6003765D01*
X15219127Y6006024D01*
X14643825Y6006024D01*
X14640813Y6003765D01*
X14639307Y6000000D01*
X14633283Y6006024D01*
X14637048Y6007530D01*
X14639307Y6010542D01*
X14639307Y6989458D01*
X14637048Y6992470D01*
X14633283Y6993976D01*
X14639307Y7000000D01*
X14640813Y6996235D01*
X14643825Y6993976D01*
X15204066Y6993976D01*
X15207078Y6996235D01*
X15208584Y7000000D01*
X15214608Y6993976D01*
G37*
G36*
X9548946Y6996988D02*
G01*
X9551958Y6993976D01*
X9857681Y6993976D01*
X9929970Y6990399D01*
X9996235Y6979669D01*
X10105422Y6932229D01*
X10176958Y6846386D01*
X10196160Y6787651D01*
X10202560Y6716867D01*
X10189194Y6618599D01*
X10149096Y6540663D01*
X10086032Y6482304D01*
X10003765Y6442771D01*
X9982681Y6443524D01*
X9961596Y6450301D01*
X9958584Y6441265D01*
X9993223Y6417169D01*
X10229669Y6010542D01*
X10233434Y6008283D01*
X10238705Y6007530D01*
X10234187Y6000000D01*
X10231175Y6003765D01*
X10228163Y6006024D01*
X10094127Y6006024D01*
X10091867Y6004518D01*
X10091114Y6000000D01*
X10083584Y6004518D01*
X10086596Y6007530D01*
X10086596Y6010542D01*
X9857681Y6414157D01*
X9860693Y6430723D01*
X9853163Y6435241D01*
X9841114Y6423193D01*
X9696536Y6423193D01*
X9676958Y6429217D01*
X9660392Y6442771D01*
X9654367Y6436747D01*
X9667922Y6420181D01*
X9673946Y6400602D01*
X9673946Y6010542D01*
X9676958Y6007530D01*
X9681476Y6006024D01*
X9673946Y5998494D01*
X9672440Y6003012D01*
X9669428Y6006024D01*
X9551958Y6006024D01*
X9548946Y6003012D01*
X9547440Y5998494D01*
X9539910Y6006024D01*
X9544428Y6007530D01*
X9547440Y6010542D01*
X9547440Y6512048D01*
X9654367Y6512048D01*
X9660392Y6506024D01*
X9676958Y6519578D01*
X9696536Y6525602D01*
X9839608Y6525602D01*
X9941830Y6537462D01*
X10016566Y6573042D01*
X10062312Y6632718D01*
X10077560Y6716867D01*
X10062312Y6800075D01*
X10016566Y6853916D01*
X9941830Y6883283D01*
X9839608Y6893072D01*
X9696536Y6893072D01*
X9676958Y6899096D01*
X9660392Y6912651D01*
X9654367Y6906627D01*
X9667922Y6890060D01*
X9673946Y6870482D01*
X9673946Y6548193D01*
X9667922Y6528614D01*
X9654367Y6512048D01*
X9547440Y6512048D01*
X9547440Y6989458D01*
X9544428Y6992470D01*
X9539910Y6993976D01*
X9547440Y7001506D01*
X9548946Y6996988D01*
G37*
G36*
X12585090Y6996988D02*
G01*
X12588102Y6993976D01*
X12893825Y6993976D01*
X12966114Y6990399D01*
X13032380Y6979669D01*
X13141566Y6932229D01*
X13213102Y6846386D01*
X13232304Y6787651D01*
X13238705Y6716867D01*
X13225339Y6618599D01*
X13185241Y6540663D01*
X13122176Y6482304D01*
X13039910Y6442771D01*
X13018825Y6443524D01*
X12997741Y6450301D01*
X12994729Y6441265D01*
X13029367Y6417169D01*
X13265813Y6010542D01*
X13269578Y6008283D01*
X13274849Y6007530D01*
X13270331Y6000000D01*
X13267319Y6003765D01*
X13264307Y6006024D01*
X13130271Y6006024D01*
X13128012Y6004518D01*
X13127259Y6000000D01*
X13119729Y6004518D01*
X13122741Y6007530D01*
X13122741Y6010542D01*
X12893825Y6414157D01*
X12896837Y6430723D01*
X12889307Y6435241D01*
X12877259Y6423193D01*
X12732681Y6423193D01*
X12713102Y6429217D01*
X12696536Y6442771D01*
X12690512Y6436747D01*
X12704066Y6420181D01*
X12710090Y6400602D01*
X12710090Y6010542D01*
X12713102Y6007530D01*
X12717620Y6006024D01*
X12710090Y5998494D01*
X12708584Y6003012D01*
X12705572Y6006024D01*
X12588102Y6006024D01*
X12585090Y6003012D01*
X12583584Y5998494D01*
X12576054Y6006024D01*
X12580572Y6007530D01*
X12583584Y6010542D01*
X12583584Y6512048D01*
X12690512Y6512048D01*
X12696536Y6506024D01*
X12713102Y6519578D01*
X12732681Y6525602D01*
X12875753Y6525602D01*
X12977974Y6537462D01*
X13052711Y6573042D01*
X13098456Y6632718D01*
X13113705Y6716867D01*
X13098456Y6800075D01*
X13052711Y6853916D01*
X12977974Y6883283D01*
X12875753Y6893072D01*
X12732681Y6893072D01*
X12713102Y6899096D01*
X12696536Y6912651D01*
X12690512Y6906627D01*
X12704066Y6890060D01*
X12710090Y6870482D01*
X12710090Y6548193D01*
X12704066Y6528614D01*
X12690512Y6512048D01*
X12583584Y6512048D01*
X12583584Y6989458D01*
X12580572Y6992470D01*
X12576054Y6993976D01*
X12583584Y7001506D01*
X12585090Y6996988D01*
G37*
G36*
X15426958Y6996988D02*
G01*
X15429970Y6993976D01*
X15735693Y6993976D01*
X15807982Y6990399D01*
X15874247Y6979669D01*
X15983434Y6932229D01*
X16054970Y6846386D01*
X16074172Y6787651D01*
X16080572Y6716867D01*
X16067206Y6618599D01*
X16027108Y6540663D01*
X15964044Y6482304D01*
X15881777Y6442771D01*
X15860693Y6443524D01*
X15839608Y6450301D01*
X15836596Y6441265D01*
X15871235Y6417169D01*
X16107681Y6010542D01*
X16111446Y6008283D01*
X16116717Y6007530D01*
X16112199Y6000000D01*
X16109187Y6003765D01*
X16106175Y6006024D01*
X15972139Y6006024D01*
X15969880Y6004518D01*
X15969127Y6000000D01*
X15961596Y6004518D01*
X15964608Y6007530D01*
X15964608Y6010542D01*
X15735693Y6414157D01*
X15738705Y6430723D01*
X15731175Y6435241D01*
X15719127Y6423193D01*
X15574548Y6423193D01*
X15554970Y6429217D01*
X15538404Y6442771D01*
X15532380Y6436747D01*
X15545934Y6420181D01*
X15551958Y6400602D01*
X15551958Y6010542D01*
X15554970Y6007530D01*
X15559488Y6006024D01*
X15551958Y5998494D01*
X15550452Y6003012D01*
X15547440Y6006024D01*
X15429970Y6006024D01*
X15426958Y6003012D01*
X15425452Y5998494D01*
X15417922Y6006024D01*
X15422440Y6007530D01*
X15425452Y6010542D01*
X15425452Y6512048D01*
X15532380Y6512048D01*
X15538404Y6506024D01*
X15554970Y6519578D01*
X15574548Y6525602D01*
X15717620Y6525602D01*
X15819842Y6537462D01*
X15894578Y6573042D01*
X15940324Y6632718D01*
X15955572Y6716867D01*
X15940324Y6800075D01*
X15894578Y6853916D01*
X15819842Y6883283D01*
X15717620Y6893072D01*
X15574548Y6893072D01*
X15554970Y6899096D01*
X15538404Y6912651D01*
X15532380Y6906627D01*
X15545934Y6890060D01*
X15551958Y6870482D01*
X15551958Y6548193D01*
X15545934Y6528614D01*
X15532380Y6512048D01*
X15425452Y6512048D01*
X15425452Y6989458D01*
X15422440Y6992470D01*
X15417922Y6993976D01*
X15425452Y7001506D01*
X15426958Y6996988D01*
G37*
G36*
X12426958Y6992470D02*
G01*
X12422440Y6991717D01*
X12419428Y6989458D01*
X12217620Y6010542D01*
X12219127Y6007530D01*
X12222139Y6006024D01*
X12214608Y6000000D01*
X12213855Y6003765D01*
X12211596Y6006024D01*
X12068524Y6006024D01*
X12066265Y6003765D01*
X12065512Y6000000D01*
X12057982Y6006024D01*
X12060994Y6007530D01*
X12062500Y6010542D01*
X11914910Y6600904D01*
X11891566Y6700301D01*
X11869729Y6798193D01*
X11868223Y6825301D01*
X11869729Y6852410D01*
X11860693Y6853916D01*
X11861446Y6826054D01*
X11859187Y6798193D01*
X11835843Y6700301D01*
X11812500Y6600904D01*
X11666416Y6010542D01*
X11667922Y6007530D01*
X11670934Y6006024D01*
X11663404Y6000000D01*
X11662651Y6003765D01*
X11660392Y6006024D01*
X11520331Y6006024D01*
X11518072Y6003765D01*
X11517319Y6000000D01*
X11509789Y6006024D01*
X11512801Y6007530D01*
X11514307Y6010542D01*
X11307982Y6989458D01*
X11304970Y6991717D01*
X11300452Y6992470D01*
X11306476Y7000000D01*
X11307982Y6996235D01*
X11310994Y6993976D01*
X11431476Y6993976D01*
X11433735Y6996235D01*
X11434488Y7000000D01*
X11442018Y6993976D01*
X11439006Y6992470D01*
X11437500Y6989458D01*
X11539910Y6456325D01*
X11553840Y6382907D01*
X11568524Y6310241D01*
X11583208Y6237575D01*
X11597139Y6164157D01*
X11598645Y6137048D01*
X11597139Y6109940D01*
X11606175Y6108434D01*
X11605422Y6136295D01*
X11607681Y6164157D01*
X11623306Y6237764D01*
X11640060Y6310994D01*
X11657191Y6383848D01*
X11673946Y6456325D01*
X11809488Y6989458D01*
X11807982Y6992470D01*
X11804970Y6993976D01*
X11812500Y7000000D01*
X11813253Y6996235D01*
X11815512Y6993976D01*
X11920934Y6993976D01*
X11923193Y6996235D01*
X11923946Y7000000D01*
X11931476Y6993976D01*
X11928464Y6992470D01*
X11926958Y6989458D01*
X12062500Y6456325D01*
X12079255Y6383848D01*
X12096386Y6310994D01*
X12113517Y6237764D01*
X12130271Y6164157D01*
X12132530Y6136295D01*
X12131777Y6108434D01*
X12140813Y6109940D01*
X12139307Y6137048D01*
X12140813Y6164157D01*
X12154556Y6237764D01*
X12168675Y6310994D01*
X12182417Y6383848D01*
X12195030Y6456325D01*
X12297440Y6989458D01*
X12295934Y6992470D01*
X12292922Y6993976D01*
X12300452Y7000000D01*
X12301205Y6996235D01*
X12303464Y6993976D01*
X12416416Y6993976D01*
X12419428Y6996235D01*
X12420934Y7000000D01*
X12426958Y6992470D01*
G37*
G36*
X7615780Y46235381D02*
G01*
X7736140Y46115056D01*
X7856501Y45994731D01*
X8322527Y45994731D01*
X8321647Y45790746D01*
X8320766Y45586761D01*
X7977291Y45586268D01*
X7633817Y45585775D01*
X7175377Y46044253D01*
X7175377Y47370565D01*
X7615780Y47370565D01*
X7615780Y46235381D01*
G37*
G36*
X11302877Y47001855D02*
G01*
X10603011Y47001855D01*
X10603011Y46684355D01*
X11197043Y46684355D01*
X11197043Y46315645D01*
X10603011Y46315645D01*
X10603011Y45950349D01*
X11330188Y45950349D01*
X11330188Y45581640D01*
X10159194Y45581640D01*
X10159194Y47370565D01*
X11302877Y47370565D01*
X11302877Y47001855D01*
G37*
G36*
X14334490Y47001855D02*
G01*
X13634624Y47001855D01*
X13634624Y46684355D01*
X14232070Y46684355D01*
X14232070Y46315645D01*
X13634624Y46315645D01*
X13634624Y45950349D01*
X14361801Y45950349D01*
X14361801Y45581640D01*
X13194221Y45581640D01*
X13194221Y47370565D01*
X14334490Y47370565D01*
X14334490Y47001855D01*
G37*
G36*
X14871338Y47370529D02*
G01*
X14919331Y47370484D01*
X14965546Y47370362D01*
X15009446Y47370169D01*
X15050495Y47369912D01*
X15088155Y47369594D01*
X15121891Y47369222D01*
X15151165Y47368802D01*
X15175442Y47368338D01*
X15194184Y47367836D01*
X15206855Y47367302D01*
X15210175Y47367075D01*
X15290031Y47357986D01*
X15366595Y47344392D01*
X15439489Y47326424D01*
X15508331Y47304211D01*
X15572745Y47277885D01*
X15632349Y47247577D01*
X15686766Y47213416D01*
X15713519Y47193680D01*
X15765384Y47148920D01*
X15812123Y47099655D01*
X15853687Y47045946D01*
X15890030Y46987851D01*
X15910265Y46948938D01*
X15933612Y46895548D01*
X15953247Y46839631D01*
X15969357Y46780424D01*
X15982127Y46717159D01*
X15991742Y46649071D01*
X15997427Y46588763D01*
X15998881Y46562181D01*
X15999700Y46530644D01*
X15999918Y46495735D01*
X15999565Y46459037D01*
X15998674Y46422134D01*
X15997276Y46386609D01*
X15995402Y46354044D01*
X15993086Y46326024D01*
X15991947Y46315645D01*
X15980220Y46238445D01*
X15964200Y46166235D01*
X15943719Y46098565D01*
X15918607Y46034982D01*
X15888696Y45975036D01*
X15853818Y45918276D01*
X15832033Y45887685D01*
X15816779Y45868667D01*
X15797738Y45846989D01*
X15776455Y45824256D01*
X15754476Y45802071D01*
X15733350Y45782038D01*
X15714621Y45765758D01*
X15713737Y45765041D01*
X15661410Y45726933D01*
X15603807Y45692851D01*
X15541260Y45662926D01*
X15474101Y45637286D01*
X15402661Y45616062D01*
X15327272Y45599385D01*
X15266506Y45589692D01*
X15258426Y45588707D01*
X15249443Y45587832D01*
X15239105Y45587056D01*
X15226962Y45586372D01*
X15212563Y45585770D01*
X15195457Y45585242D01*
X15175194Y45584780D01*
X15151323Y45584374D01*
X15123393Y45584016D01*
X15090953Y45583697D01*
X15053553Y45583409D01*
X15010741Y45583143D01*
X14962068Y45582890D01*
X14907083Y45582641D01*
X14898649Y45582605D01*
X14573468Y45581234D01*
X14573468Y45933280D01*
X15013871Y45933280D01*
X15043744Y45933288D01*
X15059170Y45933574D01*
X15078823Y45934347D01*
X15100131Y45935487D01*
X15119705Y45936812D01*
X15180068Y45943842D01*
X15235400Y45955378D01*
X15285857Y45971482D01*
X15331594Y45992217D01*
X15372767Y46017648D01*
X15409532Y46047839D01*
X15422551Y46060751D01*
X15450544Y46093033D01*
X15474676Y46127609D01*
X15495148Y46165054D01*
X15512163Y46205940D01*
X15525921Y46250841D01*
X15536624Y46300331D01*
X15544474Y46354982D01*
X15549672Y46415368D01*
X15550166Y46423719D01*
X15551988Y46484491D01*
X15550615Y46543599D01*
X15546157Y46600287D01*
X15538723Y46653802D01*
X15528423Y46703390D01*
X15515368Y46748296D01*
X15499667Y46787766D01*
X15496036Y46795309D01*
X15475506Y46831547D01*
X15451225Y46865956D01*
X15424354Y46897122D01*
X15396056Y46923631D01*
X15380874Y46935313D01*
X15342569Y46958713D01*
X15298939Y46978494D01*
X15250539Y46994515D01*
X15197922Y47006632D01*
X15141641Y47014701D01*
X15082250Y47018579D01*
X15057891Y47018925D01*
X15013871Y47018925D01*
X15013871Y45933280D01*
X14573468Y45933280D01*
X14573468Y47370565D01*
X14871338Y47370529D01*
G37*
G36*
X8857615Y47369643D02*
G01*
X8912125Y47369419D01*
X8960281Y47369203D01*
X9002556Y47368986D01*
X9039424Y47368757D01*
X9071358Y47368503D01*
X9098833Y47368215D01*
X9122322Y47367881D01*
X9142298Y47367491D01*
X9159235Y47367034D01*
X9173606Y47366498D01*
X9185886Y47365873D01*
X9196548Y47365148D01*
X9206065Y47364311D01*
X9214911Y47363353D01*
X9223560Y47362261D01*
X9232486Y47361026D01*
X9232799Y47360981D01*
X9314423Y47346978D01*
X9390645Y47328933D01*
X9461631Y47306758D01*
X9527548Y47280365D01*
X9588558Y47249666D01*
X9644829Y47214574D01*
X9696525Y47175002D01*
X9743812Y47130860D01*
X9786854Y47082063D01*
X9806407Y47056478D01*
X9841617Y47002966D01*
X9872170Y46945312D01*
X9898141Y46883299D01*
X9919606Y46816707D01*
X9936640Y46745318D01*
X9949317Y46668913D01*
X9954295Y46626317D01*
X9958239Y46574361D01*
X9960177Y46518037D01*
X9960142Y46459492D01*
X9958170Y46400875D01*
X9954293Y46344332D01*
X9949078Y46296029D01*
X9936203Y46218381D01*
X9918381Y46145282D01*
X9895504Y46076463D01*
X9867461Y46011653D01*
X9834145Y45950584D01*
X9795444Y45892985D01*
X9775096Y45866704D01*
X9729918Y45816254D01*
X9679902Y45770570D01*
X9625141Y45729696D01*
X9565731Y45693675D01*
X9501763Y45662551D01*
X9433332Y45636368D01*
X9360531Y45615169D01*
X9283455Y45598998D01*
X9202196Y45587900D01*
X9171205Y45585096D01*
X9160604Y45584539D01*
X9143715Y45584015D01*
X9121078Y45583528D01*
X9093232Y45583085D01*
X9060718Y45582691D01*
X9024075Y45582351D01*
X8983843Y45582071D01*
X8940562Y45581856D01*
X8894772Y45581712D01*
X8847013Y45581644D01*
X8830660Y45581640D01*
X8534140Y45581640D01*
X8534140Y45932206D01*
X8974543Y45932206D01*
X9033434Y45934459D01*
X9056050Y45935564D01*
X9079329Y45937115D01*
X9101135Y45938943D01*
X9119331Y45940879D01*
X9126465Y45941843D01*
X9183100Y45952701D01*
X9234377Y45967545D01*
X9280618Y45986573D01*
X9322146Y46009983D01*
X9359283Y46037975D01*
X9392353Y46070746D01*
X9421679Y46108495D01*
X9437127Y46132797D01*
X9457104Y46171105D01*
X9473921Y46213330D01*
X9487822Y46260216D01*
X9499049Y46312505D01*
X9502470Y46332715D01*
X9504315Y46345574D01*
X9505774Y46358946D01*
X9506890Y46373811D01*
X9507704Y46391153D01*
X9508256Y46411954D01*
X9508589Y46437195D01*
X9508742Y46467860D01*
X9508763Y46482930D01*
X9508655Y46520543D01*
X9508207Y46552461D01*
X9507308Y46579812D01*
X9505850Y46603727D01*
X9503721Y46625333D01*
X9500813Y46645760D01*
X9497014Y46666137D01*
X9492215Y46687593D01*
X9486628Y46710005D01*
X9470863Y46759533D01*
X9450100Y46805824D01*
X9424735Y46848242D01*
X9395166Y46886155D01*
X9361790Y46918929D01*
X9349327Y46929034D01*
X9313883Y46952474D01*
X9272972Y46972662D01*
X9227220Y46989426D01*
X9177251Y47002599D01*
X9123690Y47012009D01*
X9067164Y47017486D01*
X9018563Y47018925D01*
X8974543Y47018925D01*
X8974543Y45932206D01*
X8534140Y45932206D01*
X8534140Y47370944D01*
X8857615Y47369643D01*
G37*
G36*
X11935316Y47370562D02*
G01*
X11992172Y47370528D01*
X12046133Y47370432D01*
X12096813Y47370275D01*
X12143827Y47370061D01*
X12186787Y47369793D01*
X12225308Y47369475D01*
X12259004Y47369110D01*
X12287488Y47368701D01*
X12310373Y47368251D01*
X12327275Y47367764D01*
X12337806Y47367243D01*
X12339019Y47367143D01*
X12415229Y47358091D01*
X12486114Y47345293D01*
X12551583Y47328777D01*
X12611543Y47308571D01*
X12665903Y47284702D01*
X12714571Y47257197D01*
X12722750Y47251842D01*
X12742976Y47236920D01*
X12765497Y47218019D01*
X12788644Y47196722D01*
X12810752Y47174611D01*
X12830152Y47153270D01*
X12842028Y47138583D01*
X12867854Y47099536D01*
X12889287Y47056676D01*
X12906433Y47009647D01*
X12919400Y46958090D01*
X12928296Y46901647D01*
X12933226Y46839959D01*
X12933530Y46832863D01*
X12933453Y46764495D01*
X12927701Y46699817D01*
X12916287Y46638860D01*
X12899224Y46581659D01*
X12876524Y46528247D01*
X12848202Y46478657D01*
X12814268Y46432922D01*
X12774737Y46391076D01*
X12756534Y46374725D01*
X12725346Y46349634D01*
X12692980Y46326536D01*
X12661690Y46307013D01*
X12653842Y46302628D01*
X12640200Y46294439D01*
X12633066Y46288234D01*
X12631969Y46284892D01*
X12633778Y46281302D01*
X12638727Y46272138D01*
X12646605Y46257775D01*
X12657204Y46238590D01*
X12670314Y46214958D01*
X12685725Y46187256D01*
X12703229Y46155859D01*
X12722614Y46121144D01*
X12743673Y46083487D01*
X12766195Y46043262D01*
X12789971Y46000847D01*
X12814792Y45956618D01*
X12828389Y45932407D01*
X12853645Y45887436D01*
X12877950Y45844130D01*
X12901097Y45802861D01*
X12922876Y45764000D01*
X12943082Y45727918D01*
X12961507Y45694986D01*
X12977943Y45665575D01*
X12992183Y45640057D01*
X13004018Y45618803D01*
X13013243Y45602183D01*
X13019649Y45590570D01*
X13023028Y45584334D01*
X13023522Y45583332D01*
X13020198Y45583058D01*
X13010586Y45582822D01*
X12995226Y45582625D01*
X12974658Y45582468D01*
X12949422Y45582355D01*
X12920057Y45582286D01*
X12887104Y45582264D01*
X12851103Y45582290D01*
X12812593Y45582366D01*
X12778872Y45582471D01*
X12534222Y45583347D01*
X12372783Y45892312D01*
X12211345Y46201277D01*
X12110457Y46202181D01*
X12009570Y46203085D01*
X12009570Y45581640D01*
X11569167Y45581640D01*
X11569167Y47023104D01*
X12009570Y47023104D01*
X12009570Y46551210D01*
X12097480Y46551280D01*
X12124825Y46551437D01*
X12153111Y46551837D01*
X12180616Y46552439D01*
X12205619Y46553202D01*
X12226402Y46554085D01*
X12234893Y46554573D01*
X12285298Y46560221D01*
X12330521Y46570260D01*
X12370545Y46584680D01*
X12405358Y46603472D01*
X12434944Y46626625D01*
X12459290Y46654132D01*
X12478381Y46685982D01*
X12492202Y46722165D01*
X12493101Y46725323D01*
X12495654Y46736275D01*
X12497433Y46748631D01*
X12498546Y46763798D01*
X12499103Y46783187D01*
X12499223Y46803844D01*
X12499126Y46825340D01*
X12498761Y46841537D01*
X12497958Y46853964D01*
X12496551Y46864150D01*
X12494369Y46873622D01*
X12491246Y46883909D01*
X12489988Y46887717D01*
X12478093Y46916272D01*
X12462657Y46940345D01*
X12443024Y46960526D01*
X12418537Y46977405D01*
X12388538Y46991572D01*
X12365210Y46999783D01*
X12349629Y47004496D01*
X12334910Y47008423D01*
X12320210Y47011646D01*
X12304685Y47014247D01*
X12287494Y47016307D01*
X12267793Y47017908D01*
X12244739Y47019132D01*
X12217491Y47020060D01*
X12185204Y47020773D01*
X12147037Y47021355D01*
X12141862Y47021422D01*
X12009570Y47023104D01*
X11569167Y47023104D01*
X11569167Y47370565D01*
X11935316Y47370562D01*
G37*
G36*
X2119835Y48003890D02*
G01*
X2128686Y47999007D01*
X2142704Y47991129D01*
X2161517Y47980468D01*
X2184755Y47967237D01*
X2212045Y47951647D01*
X2243017Y47933913D01*
X2277300Y47914245D01*
X2314521Y47892857D01*
X2354311Y47869961D01*
X2396296Y47845770D01*
X2440107Y47820496D01*
X2463450Y47807017D01*
X2508474Y47781033D01*
X2552142Y47755874D01*
X2594057Y47731768D01*
X2633820Y47708942D01*
X2671035Y47687621D01*
X2705303Y47668033D01*
X2736227Y47650406D01*
X2763408Y47634965D01*
X2786450Y47621938D01*
X2804955Y47611552D01*
X2818524Y47604033D01*
X2826760Y47599609D01*
X2828611Y47598693D01*
X2853706Y47588985D01*
X2881905Y47581541D01*
X2914329Y47576131D01*
X2952097Y47572528D01*
X2959113Y47572080D01*
X2998124Y47568582D01*
X3032090Y47562808D01*
X3062555Y47554284D01*
X3091060Y47542537D01*
X3119147Y47527093D01*
X3131661Y47519076D01*
X3167575Y47491151D01*
X3198808Y47458498D01*
X3224972Y47421701D01*
X3245677Y47381343D01*
X3260532Y47338010D01*
X3264824Y47319605D01*
X3268711Y47290037D01*
X3269523Y47257098D01*
X3267383Y47223448D01*
X3262413Y47191751D01*
X3258185Y47174983D01*
X3241773Y47131378D01*
X3219774Y47091458D01*
X3192573Y47055606D01*
X3160557Y47024201D01*
X3124112Y46997625D01*
X3083625Y46976257D01*
X3040819Y46960857D01*
X3015136Y46955413D01*
X2985482Y46952168D01*
X2954386Y46951216D01*
X2924373Y46952655D01*
X2902783Y46955602D01*
X2858381Y46967307D01*
X2817047Y46985095D01*
X2778868Y47008905D01*
X2743930Y47038679D01*
X2712320Y47074355D01*
X2694350Y47099537D01*
X2670508Y47133298D01*
X2647288Y47160966D01*
X2624123Y47183176D01*
X2609421Y47194567D01*
X2603633Y47198300D01*
X2592420Y47205187D01*
X2576258Y47214948D01*
X2555623Y47227301D01*
X2530991Y47241967D01*
X2502838Y47258665D01*
X2471641Y47277114D01*
X2437876Y47297034D01*
X2402018Y47318145D01*
X2364544Y47340165D01*
X2325931Y47362814D01*
X2286653Y47385811D01*
X2247187Y47408877D01*
X2208009Y47431730D01*
X2169596Y47454090D01*
X2132424Y47475677D01*
X2127809Y47478353D01*
X2114153Y47486269D01*
X1834207Y47323111D01*
X1554261Y47159952D01*
X1554261Y46694253D01*
X1878589Y46520145D01*
X1922662Y46496465D01*
X1965305Y46473513D01*
X2006101Y46451517D01*
X2044631Y46430703D01*
X2080477Y46411299D01*
X2113222Y46393531D01*
X2142448Y46377626D01*
X2167737Y46363813D01*
X2188671Y46352316D01*
X2204833Y46343365D01*
X2215804Y46337184D01*
X2221132Y46334026D01*
X2243861Y46316362D01*
X2266885Y46293635D01*
X2288916Y46267426D01*
X2308668Y46239314D01*
X2324853Y46210880D01*
X2329490Y46201026D01*
X2341697Y46170399D01*
X2349812Y46142073D01*
X2354413Y46113372D01*
X2356082Y46081620D01*
X2356109Y46078374D01*
X2355632Y46051944D01*
X2353565Y46029871D01*
X2349413Y46009768D01*
X2342676Y45989251D01*
X2332857Y45965935D01*
X2332459Y45965055D01*
X2310363Y45924430D01*
X2282905Y45887908D01*
X2250458Y45855887D01*
X2213397Y45828765D01*
X2194382Y45817766D01*
X2168777Y45804102D01*
X1632783Y46113691D01*
X1096788Y46423281D01*
X1096788Y47419081D01*
X1605063Y47712323D01*
X1659457Y47743694D01*
X1712268Y47774132D01*
X1763193Y47803462D01*
X1811925Y47831509D01*
X1858162Y47858100D01*
X1901598Y47883059D01*
X1941930Y47906212D01*
X1978853Y47927384D01*
X2012062Y47946401D01*
X2041254Y47963089D01*
X2066124Y47977273D01*
X2086367Y47988778D01*
X2101680Y47997431D01*
X2111758Y48003056D01*
X2116296Y48005478D01*
X2116523Y48005565D01*
X2119835Y48003890D01*
G37*
G36*
X6221870Y47402742D02*
G01*
X6294983Y47396028D01*
X6365721Y47383927D01*
X6393576Y47377448D01*
X6463597Y47356488D01*
X6529905Y47329832D01*
X6592368Y47297578D01*
X6650857Y47259824D01*
X6705240Y47216669D01*
X6755387Y47168209D01*
X6801168Y47114543D01*
X6842452Y47055769D01*
X6859526Y47027685D01*
X6889038Y46972293D01*
X6914409Y46914653D01*
X6935867Y46854023D01*
X6953635Y46789659D01*
X6967941Y46720820D01*
X6979008Y46646763D01*
X6981410Y46626317D01*
X6983184Y46605165D01*
X6984509Y46578539D01*
X6985394Y46547774D01*
X6985847Y46514211D01*
X6985877Y46479185D01*
X6985491Y46444035D01*
X6984697Y46410099D01*
X6983503Y46378714D01*
X6981919Y46351218D01*
X6979950Y46328949D01*
X6979591Y46325887D01*
X6968370Y46250034D01*
X6953913Y46179047D01*
X6936327Y46113397D01*
X6921042Y46067654D01*
X6912094Y46045156D01*
X6900494Y46018852D01*
X6887101Y45990468D01*
X6872774Y45961730D01*
X6858371Y45934367D01*
X6844751Y45910105D01*
X6833848Y45892312D01*
X6791809Y45833714D01*
X6745381Y45780311D01*
X6694711Y45732193D01*
X6639948Y45689450D01*
X6581237Y45652173D01*
X6518727Y45620452D01*
X6452564Y45594378D01*
X6382895Y45574041D01*
X6309867Y45559532D01*
X6287607Y45556366D01*
X6259441Y45553445D01*
X6226739Y45551251D01*
X6191704Y45549843D01*
X6156536Y45549278D01*
X6123440Y45549615D01*
X6094618Y45550913D01*
X6091438Y45551145D01*
X6015347Y45560105D01*
X5942561Y45575013D01*
X5873211Y45595771D01*
X5807428Y45622282D01*
X5745341Y45654448D01*
X5687082Y45692172D01*
X5632779Y45735358D01*
X5582563Y45783908D01*
X5536565Y45837724D01*
X5494914Y45896709D01*
X5457741Y45960767D01*
X5425176Y46029799D01*
X5414214Y46056859D01*
X5392702Y46119853D01*
X5374988Y46187633D01*
X5361133Y46259268D01*
X5351200Y46333828D01*
X5345251Y46410382D01*
X5343371Y46487113D01*
X5796831Y46487113D01*
X5796956Y46453540D01*
X5797656Y46421750D01*
X5798949Y46393176D01*
X5800851Y46369251D01*
X5800924Y46368562D01*
X5810488Y46300752D01*
X5824114Y46238421D01*
X5841807Y46181553D01*
X5863574Y46130136D01*
X5889420Y46084153D01*
X5919351Y46043592D01*
X5940901Y46020225D01*
X5975657Y45989949D01*
X6012717Y45965971D01*
X6052622Y45947993D01*
X6093145Y45936313D01*
X6116199Y45932768D01*
X6143589Y45930941D01*
X6173105Y45930785D01*
X6202539Y45932253D01*
X6229680Y45935295D01*
X6251895Y45939751D01*
X6286070Y45951233D01*
X6319665Y45966871D01*
X6349669Y45985255D01*
X6350598Y45985917D01*
X6376693Y46007424D01*
X6402737Y46034078D01*
X6427440Y46064314D01*
X6449511Y46096564D01*
X6466135Y46126169D01*
X6486309Y46172655D01*
X6503169Y46224411D01*
X6516619Y46280683D01*
X6526563Y46340720D01*
X6532905Y46403767D01*
X6535549Y46469073D01*
X6534399Y46535885D01*
X6529358Y46603450D01*
X6528298Y46613266D01*
X6518902Y46675617D01*
X6505312Y46733328D01*
X6487670Y46786255D01*
X6466114Y46834252D01*
X6440785Y46877176D01*
X6411821Y46914883D01*
X6379363Y46947230D01*
X6343551Y46974071D01*
X6304523Y46995262D01*
X6262420Y47010661D01*
X6217381Y47020122D01*
X6169545Y47023502D01*
X6132079Y47021973D01*
X6085910Y47015062D01*
X6043361Y47002460D01*
X6003964Y46983943D01*
X5967251Y46959285D01*
X5932752Y46928263D01*
X5929229Y46924616D01*
X5900408Y46890801D01*
X5875397Y46853576D01*
X5853968Y46812408D01*
X5835894Y46766763D01*
X5820946Y46716106D01*
X5808898Y46659905D01*
X5804198Y46631593D01*
X5801718Y46610590D01*
X5799723Y46584209D01*
X5798232Y46553880D01*
X5797262Y46521037D01*
X5796831Y46487113D01*
X5343371Y46487113D01*
X5343349Y46488002D01*
X5345554Y46565756D01*
X5351931Y46642713D01*
X5362541Y46717945D01*
X5367979Y46747317D01*
X5386140Y46823559D01*
X5409540Y46895918D01*
X5438053Y46964223D01*
X5471554Y47028302D01*
X5509919Y47087982D01*
X5553023Y47143091D01*
X5600740Y47193457D01*
X5652946Y47238907D01*
X5709516Y47279270D01*
X5770325Y47314373D01*
X5784180Y47321334D01*
X5817225Y47336879D01*
X5847282Y47349492D01*
X5876969Y47360140D01*
X5908903Y47369793D01*
X5931429Y47375818D01*
X6001162Y47390607D01*
X6073672Y47400027D01*
X6147670Y47404073D01*
X6221870Y47402742D01*
G37*
G36*
X2102205Y47191788D02*
G01*
X2105652Y47189959D01*
X2114712Y47184884D01*
X2129086Y47176734D01*
X2148477Y47165679D01*
X2172587Y47151891D01*
X2201117Y47135541D01*
X2233770Y47116801D01*
X2270247Y47095842D01*
X2310251Y47072836D01*
X2353483Y47047953D01*
X2399645Y47021364D01*
X2448440Y46993242D01*
X2499568Y46963757D01*
X2552733Y46933082D01*
X2607636Y46901386D01*
X2641613Y46881762D01*
X3175901Y46573134D01*
X3175901Y45580270D01*
X2665511Y45285715D01*
X2611026Y45254276D01*
X2558139Y45223771D01*
X2507152Y45194373D01*
X2458367Y45166256D01*
X2412089Y45139595D01*
X2368618Y45114562D01*
X2328257Y45091334D01*
X2291310Y45070082D01*
X2258079Y45050982D01*
X2228865Y45034208D01*
X2203973Y45019932D01*
X2183704Y45008331D01*
X2168361Y44999576D01*
X2158246Y44993844D01*
X2153663Y44991306D01*
X2153414Y44991191D01*
X2150296Y44992871D01*
X2141640Y44997760D01*
X2127819Y45005643D01*
X2109203Y45016307D01*
X2086165Y45029538D01*
X2059074Y45045123D01*
X2028303Y45062847D01*
X1994223Y45082497D01*
X1957205Y45103859D01*
X1917620Y45126719D01*
X1875840Y45150863D01*
X1832237Y45176077D01*
X1812016Y45187776D01*
X1767203Y45213684D01*
X1723700Y45238791D01*
X1681914Y45262866D01*
X1642248Y45285677D01*
X1605106Y45306995D01*
X1570892Y45326587D01*
X1540012Y45344222D01*
X1512869Y45359670D01*
X1489867Y45372700D01*
X1471412Y45383079D01*
X1457906Y45390578D01*
X1449755Y45394964D01*
X1448198Y45395742D01*
X1425372Y45405534D01*
X1402707Y45412944D01*
X1378432Y45418375D01*
X1350779Y45422230D01*
X1320748Y45424735D01*
X1300295Y45426276D01*
X1280211Y45428175D01*
X1262427Y45430225D01*
X1248875Y45432217D01*
X1245584Y45432843D01*
X1203333Y45445069D01*
X1163305Y45463388D01*
X1126167Y45487242D01*
X1092585Y45516077D01*
X1063227Y45549336D01*
X1038759Y45586463D01*
X1023324Y45618168D01*
X1009257Y45660683D01*
X1001576Y45704712D01*
X1000261Y45749408D01*
X1005290Y45793924D01*
X1016641Y45837414D01*
X1029543Y45869383D01*
X1051853Y45909022D01*
X1079179Y45944364D01*
X1110964Y45975056D01*
X1146652Y46000749D01*
X1185687Y46021090D01*
X1227513Y46035729D01*
X1271573Y46044314D01*
X1310162Y46046589D01*
X1356045Y46043608D01*
X1398780Y46034754D01*
X1438989Y46019847D01*
X1477295Y45998705D01*
X1479053Y45997559D01*
X1507552Y45976425D01*
X1533770Y45951665D01*
X1558790Y45922156D01*
X1578909Y45894019D01*
X1602209Y45861984D01*
X1626295Y45834018D01*
X1650259Y45811124D01*
X1663508Y45800734D01*
X1669921Y45796529D01*
X1681403Y45789432D01*
X1697422Y45779748D01*
X1717449Y45767787D01*
X1740951Y45753857D01*
X1767398Y45738265D01*
X1796259Y45721320D01*
X1827002Y45703330D01*
X1859097Y45684602D01*
X1892011Y45665446D01*
X1925216Y45646169D01*
X1958178Y45627079D01*
X1990367Y45608485D01*
X2021253Y45590693D01*
X2050303Y45574014D01*
X2076988Y45558754D01*
X2100775Y45545221D01*
X2121134Y45533724D01*
X2137533Y45524572D01*
X2149442Y45518071D01*
X2156329Y45514530D01*
X2157849Y45513957D01*
X2161388Y45515802D01*
X2170406Y45520852D01*
X2184489Y45528865D01*
X2203219Y45539603D01*
X2226181Y45552824D01*
X2252959Y45568289D01*
X2283138Y45585757D01*
X2316302Y45604988D01*
X2352034Y45625742D01*
X2389919Y45647779D01*
X2429542Y45670858D01*
X2439536Y45676684D01*
X2716721Y45838301D01*
X2716629Y46070998D01*
X2716538Y46303696D01*
X2385168Y46481223D01*
X2331382Y46510044D01*
X2283261Y46535857D01*
X2240449Y46558875D01*
X2202591Y46579311D01*
X2169332Y46597381D01*
X2140317Y46613296D01*
X2115190Y46627271D01*
X2093596Y46639519D01*
X2075180Y46650254D01*
X2059587Y46659689D01*
X2046460Y46668038D01*
X2035446Y46675514D01*
X2026188Y46682331D01*
X2018332Y46688703D01*
X2011521Y46694843D01*
X2005401Y46700964D01*
X1999617Y46707280D01*
X1993812Y46714005D01*
X1989632Y46718969D01*
X1967315Y46749387D01*
X1948121Y46783195D01*
X1932512Y46819068D01*
X1920950Y46855680D01*
X1913895Y46891703D01*
X1911809Y46925811D01*
X1912636Y46940403D01*
X1920308Y46983605D01*
X1934448Y47025266D01*
X1954767Y47064823D01*
X1980975Y47101710D01*
X2012539Y47135139D01*
X2024641Y47145465D01*
X2038925Y47156316D01*
X2054190Y47166933D01*
X2069235Y47176557D01*
X2082861Y47184429D01*
X2093867Y47189792D01*
X2101051Y47191887D01*
X2102205Y47191788D01*
G37*
G36*
X4617633Y47402360D02*
G01*
X4643477Y47401572D01*
X4665702Y47400380D01*
X4682822Y47398784D01*
X4684879Y47398507D01*
X4763192Y47384297D01*
X4838066Y47364488D01*
X4909310Y47339161D01*
X4976732Y47308398D01*
X5040143Y47272279D01*
X5099351Y47230886D01*
X5122181Y47212564D01*
X5134846Y47201752D01*
X5145526Y47192179D01*
X5153139Y47184849D01*
X5156599Y47180766D01*
X5156649Y47180651D01*
X5154923Y47177099D01*
X5149215Y47168681D01*
X5139855Y47155831D01*
X5127169Y47138978D01*
X5111487Y47118553D01*
X5093137Y47094989D01*
X5072448Y47068715D01*
X5049749Y47040162D01*
X5045257Y47034541D01*
X4932090Y46893055D01*
X4895541Y46916937D01*
X4847899Y46945566D01*
X4798647Y46970447D01*
X4749061Y46991050D01*
X4700419Y47006843D01*
X4654153Y47017269D01*
X4628548Y47020524D01*
X4599686Y47022383D01*
X4569698Y47022847D01*
X4540716Y47021914D01*
X4514874Y47019587D01*
X4500524Y47017276D01*
X4477307Y47011083D01*
X4453760Y47002145D01*
X4431795Y46991370D01*
X4413326Y46979664D01*
X4403180Y46971083D01*
X4393407Y46959473D01*
X4384079Y46945446D01*
X4379833Y46937494D01*
X4375378Y46927019D01*
X4372661Y46917336D01*
X4371278Y46906128D01*
X4370825Y46891080D01*
X4370810Y46885780D01*
X4371050Y46869603D01*
X4372015Y46858100D01*
X4374096Y46849122D01*
X4377685Y46840522D01*
X4379858Y46836277D01*
X4392841Y46816416D01*
X4410116Y46798329D01*
X4432449Y46781371D01*
X4460603Y46764897D01*
X4470398Y46759904D01*
X4478386Y46756254D01*
X4492075Y46750356D01*
X4510820Y46742477D01*
X4533974Y46732882D01*
X4560889Y46721836D01*
X4590921Y46709604D01*
X4623420Y46696453D01*
X4657742Y46682647D01*
X4691707Y46669063D01*
X4727450Y46654753D01*
X4762206Y46640732D01*
X4795297Y46627279D01*
X4826047Y46614674D01*
X4853777Y46603200D01*
X4877810Y46593134D01*
X4897468Y46584758D01*
X4912074Y46578353D01*
X4920444Y46574452D01*
X4971370Y46546221D01*
X5017390Y46514496D01*
X5059975Y46478225D01*
X5074194Y46464408D01*
X5109494Y46425861D01*
X5138719Y46386778D01*
X5162474Y46346005D01*
X5181361Y46302388D01*
X5195984Y46254775D01*
X5204666Y46214933D01*
X5207659Y46193142D01*
X5209655Y46166619D01*
X5210670Y46137086D01*
X5210719Y46106265D01*
X5209817Y46075878D01*
X5207980Y46047648D01*
X5205223Y46023298D01*
X5202839Y46009873D01*
X5186577Y45949804D01*
X5164629Y45893514D01*
X5136999Y45841010D01*
X5103691Y45792295D01*
X5064710Y45747375D01*
X5020059Y45706254D01*
X4969741Y45668938D01*
X4913762Y45635431D01*
X4895463Y45625920D01*
X4840421Y45601660D01*
X4780805Y45581788D01*
X4717467Y45566548D01*
X4651259Y45556183D01*
X4651231Y45556180D01*
X4623355Y45553514D01*
X4591648Y45551446D01*
X4558070Y45550028D01*
X4524582Y45549317D01*
X4493145Y45549364D01*
X4465718Y45550225D01*
X4456143Y45550821D01*
X4389643Y45558082D01*
X4322197Y45569893D01*
X4255298Y45585855D01*
X4190441Y45605571D01*
X4129118Y45628645D01*
X4080605Y45650741D01*
X4044218Y45670224D01*
X4005880Y45693176D01*
X3968192Y45717975D01*
X3938925Y45739058D01*
X3919480Y45754058D01*
X3901402Y45768605D01*
X3885437Y45782042D01*
X3872333Y45793714D01*
X3862836Y45802967D01*
X3857694Y45809144D01*
X3856990Y45810907D01*
X3859087Y45814126D01*
X3865112Y45822122D01*
X3874664Y45834392D01*
X3887343Y45850433D01*
X3902747Y45869742D01*
X3920477Y45891814D01*
X3940132Y45916148D01*
X3961311Y45942239D01*
X3970201Y45953154D01*
X3991876Y45979745D01*
X4012217Y46004703D01*
X4030821Y46027532D01*
X4047285Y46047741D01*
X4061209Y46064835D01*
X4072190Y46078321D01*
X4079825Y46087705D01*
X4083713Y46092493D01*
X4084130Y46093013D01*
X4086962Y46091496D01*
X4094076Y46086629D01*
X4104336Y46079210D01*
X4114259Y46071816D01*
X4165839Y46036865D01*
X4222105Y46006036D01*
X4282007Y45979741D01*
X4344495Y45958394D01*
X4408521Y45942411D01*
X4465858Y45933042D01*
X4489055Y45931058D01*
X4515671Y45930168D01*
X4544004Y45930305D01*
X4572352Y45931404D01*
X4599016Y45933399D01*
X4622292Y45936224D01*
X4640479Y45939812D01*
X4640498Y45939817D01*
X4675396Y45951429D01*
X4704392Y45966436D01*
X4727522Y45984863D01*
X4744824Y46006737D01*
X4750796Y46017877D01*
X4755770Y46030121D01*
X4758841Y46042439D01*
X4760543Y46057445D01*
X4761110Y46068333D01*
X4761251Y46084056D01*
X4760580Y46098864D01*
X4759235Y46110224D01*
X4758671Y46112767D01*
X4752840Y46128850D01*
X4744019Y46143918D01*
X4731719Y46158326D01*
X4715452Y46172427D01*
X4694728Y46186576D01*
X4669059Y46201128D01*
X4637956Y46216436D01*
X4600930Y46232856D01*
X4582199Y46240705D01*
X4533154Y46261011D01*
X4485955Y46280666D01*
X4441057Y46299475D01*
X4398918Y46317241D01*
X4359993Y46333770D01*
X4324740Y46348867D01*
X4293613Y46362336D01*
X4267069Y46373982D01*
X4245565Y46383610D01*
X4229557Y46391025D01*
X4220850Y46395317D01*
X4164728Y46427829D01*
X4114188Y46463999D01*
X4069314Y46503719D01*
X4030189Y46546883D01*
X3996898Y46593383D01*
X3969525Y46643112D01*
X3948152Y46695961D01*
X3932865Y46751825D01*
X3929686Y46767997D01*
X3926743Y46790269D01*
X3924850Y46817275D01*
X3924005Y46847003D01*
X3924205Y46877442D01*
X3925447Y46906580D01*
X3927730Y46932405D01*
X3929908Y46947231D01*
X3942606Y46999201D01*
X3961485Y47050629D01*
X3985949Y47100117D01*
X4013140Y47143098D01*
X4027598Y47161680D01*
X4046180Y47182847D01*
X4067466Y47205194D01*
X4090040Y47227317D01*
X4112482Y47247811D01*
X4133375Y47265273D01*
X4146202Y47274859D01*
X4195761Y47306984D01*
X4245500Y47333899D01*
X4296621Y47356063D01*
X4350322Y47373936D01*
X4407804Y47387975D01*
X4469799Y47398575D01*
X4486147Y47400221D01*
X4507792Y47401461D01*
X4533250Y47402294D01*
X4561033Y47402721D01*
X4589656Y47402743D01*
X4617633Y47402360D01*
G37*
G36*
X27927050Y13419769D02*
G01*
X27923081Y13418181D01*
X27920700Y13415006D01*
X27920700Y12837156D01*
X27923081Y12833981D01*
X27927050Y12832394D01*
X27920700Y12826044D01*
X27919113Y12830012D01*
X27915938Y12832394D01*
X26884062Y12832394D01*
X26880887Y12830012D01*
X26879300Y12826044D01*
X26872950Y12832394D01*
X26876919Y12833981D01*
X26879300Y12837156D01*
X26879300Y12960981D01*
X26876919Y12964156D01*
X26872950Y12965744D01*
X26879300Y12972094D01*
X26880887Y12968125D01*
X26884062Y12965744D01*
X27784175Y12965744D01*
X27804813Y12959394D01*
X27822275Y12945106D01*
X27828625Y12951456D01*
X27814337Y12968919D01*
X27807987Y12989556D01*
X27807987Y13415006D01*
X27805606Y13418181D01*
X27801637Y13419769D01*
X27807987Y13426119D01*
X27809575Y13422150D01*
X27812750Y13419769D01*
X27915938Y13419769D01*
X27919113Y13422150D01*
X27920700Y13426119D01*
X27927050Y13419769D01*
G37*
G36*
X27920700Y14421481D02*
G01*
X26879300Y14421481D01*
X26879300Y14538956D01*
X26966612Y14538956D01*
X26972962Y14532606D01*
X26991219Y14546894D01*
X27012650Y14553244D01*
X27787350Y14553244D01*
X27808781Y14546894D01*
X27827037Y14532606D01*
X27833388Y14538956D01*
X27819100Y14557213D01*
X27812750Y14578644D01*
X27812750Y14672306D01*
X27800579Y14783872D01*
X27764067Y14875153D01*
X27703213Y14946150D01*
X27620310Y14996862D01*
X27517651Y15027289D01*
X27395238Y15037431D01*
X27273353Y15027289D01*
X27172282Y14996862D01*
X27092025Y14946150D01*
X27033817Y14875153D01*
X26998892Y14783872D01*
X26987250Y14672306D01*
X26987250Y14578644D01*
X26980900Y14557213D01*
X26966612Y14538956D01*
X26879300Y14538956D01*
X26879300Y14681831D01*
X26887634Y14795238D01*
X26912637Y14894159D01*
X26954309Y14978595D01*
X27012650Y15048544D01*
X27086568Y15103412D01*
X27174972Y15142603D01*
X27277862Y15166118D01*
X27395238Y15173956D01*
X27512911Y15166168D01*
X27616694Y15142802D01*
X27706586Y15103858D01*
X27782587Y15049337D01*
X27843012Y14980033D01*
X27886172Y14896739D01*
X27912068Y14799455D01*
X27920700Y14688181D01*
X27920700Y14538956D01*
X27920700Y14421481D01*
G37*
G36*
X27927050Y14211931D02*
G01*
X27923081Y14210344D01*
X27920700Y14207169D01*
X27920700Y13600744D01*
X27923081Y13597569D01*
X27927050Y13595981D01*
X27920700Y13589631D01*
X27919113Y13593600D01*
X27915938Y13595981D01*
X26884062Y13595981D01*
X26880887Y13593600D01*
X26879300Y13589631D01*
X26872950Y13595981D01*
X26876919Y13597569D01*
X26879300Y13600744D01*
X26879300Y14191294D01*
X26876919Y14194469D01*
X26872950Y14196056D01*
X26879300Y14202406D01*
X26880887Y14198438D01*
X26884062Y14196056D01*
X26985662Y14196056D01*
X26988837Y14198438D01*
X26990425Y14202406D01*
X26996775Y14196056D01*
X26992806Y14194469D01*
X26990425Y14191294D01*
X26990425Y13753144D01*
X26984075Y13733300D01*
X26969787Y13716631D01*
X26977725Y13708694D01*
X26994394Y13722981D01*
X27014237Y13729331D01*
X27293637Y13729331D01*
X27313481Y13722981D01*
X27330150Y13708694D01*
X27338088Y13716631D01*
X27323800Y13733300D01*
X27317450Y13753144D01*
X27317450Y14118269D01*
X27315069Y14121444D01*
X27311100Y14123031D01*
X27317450Y14129381D01*
X27319037Y14125413D01*
X27322212Y14123031D01*
X27425400Y14123031D01*
X27428575Y14125413D01*
X27430162Y14129381D01*
X27436512Y14123031D01*
X27432544Y14121444D01*
X27430162Y14118269D01*
X27430162Y13753144D01*
X27423812Y13733300D01*
X27409525Y13716631D01*
X27417462Y13708694D01*
X27434131Y13722981D01*
X27453975Y13729331D01*
X27784175Y13729331D01*
X27804019Y13722981D01*
X27820688Y13708694D01*
X27828625Y13716631D01*
X27814337Y13733300D01*
X27807987Y13753144D01*
X27807987Y14207169D01*
X27805606Y14210344D01*
X27801637Y14211931D01*
X27807987Y14218281D01*
X27809575Y14214312D01*
X27812750Y14211931D01*
X27915938Y14211931D01*
X27919113Y14214312D01*
X27920700Y14218281D01*
X27927050Y14211931D01*
G37*
D11*
X11200000Y23250000D02*
X11200000Y23550000D01*
X12000000Y23250000D02*
X12000000Y23550000D01*
X24150000Y52400000D02*
X23850000Y52400000D01*
X24150000Y51600000D02*
X23850000Y51600000D01*
X12800000Y31550000D02*
X12800000Y31850000D01*
X13600000Y31550000D02*
X13600000Y31850000D01*
X15600000Y30900000D02*
X15600000Y27800000D01*
X16950000Y17750000D02*
X24300000Y17750000D01*
X24300000Y32250000D02*
X17000000Y32250000D01*
X26900000Y17750000D02*
X29900000Y17750000D01*
X29900000Y32250000D02*
X26900000Y32250000D01*
X29900000Y17750000D02*
X29900000Y32250000D01*
%LPC*%
D13*
X3225000Y9100000D02*
G75*
G02*
X2375000Y9100000I-425000J0D01*
G01*
X2375000Y9100000D02*
G75*
G02*
X3225000Y9100000I425000J0D01*
G01*
D14*
X4000000Y9100000D02*
G75*
G02*
X1600000Y9100000I-1200000J0D01*
G01*
X1600000Y9100000D02*
G75*
G02*
X4000000Y9100000I1200000J0D01*
G01*
D13*
X20325000Y51500000D02*
G75*
G02*
X19475000Y51500000I-425000J0D01*
G01*
X19475000Y51500000D02*
G75*
G02*
X20325000Y51500000I425000J0D01*
G01*
D14*
X21100000Y51500000D02*
G75*
G02*
X18700000Y51500000I-1200000J0D01*
G01*
X18700000Y51500000D02*
G75*
G02*
X21100000Y51500000I1200000J0D01*
G01*
D15*
X24775000Y38000000D03*
X23225000Y38000000D03*
D16*
X12700000Y20675000D03*
X12700000Y19125000D03*
D17*
X3000000Y3000000D03*
D18*
X24300000Y13225000D03*
X24300000Y14775000D03*
D19*
X23800000Y47913000D03*
X23800000Y42138000D03*
D20*
X22525000Y41663000D03*
X22525000Y42463000D03*
X22525000Y43763000D03*
X22525000Y44763000D03*
X22525000Y45263000D03*
X22525000Y46263000D03*
X22525000Y47563000D03*
X22525000Y48338000D03*
X22525000Y48138000D03*
X22525000Y47363000D03*
X22525000Y46763000D03*
X22525000Y45763000D03*
X22525000Y44263000D03*
X22525000Y43263000D03*
X22525000Y42663000D03*
X22525000Y41888000D03*
D21*
X27475000Y49313000D03*
X23325000Y49313000D03*
X27475000Y40688000D03*
X23325000Y40688000D03*
D17*
X15000000Y51000000D03*
D22*
X28700000Y36000000D03*
X28700000Y38000000D03*
D18*
X11700000Y30925000D03*
X11700000Y32475000D03*
D23*
X18500000Y39900000D03*
X18500000Y42700000D03*
D24*
X13000000Y22670000D03*
X13000000Y24130000D03*
X10200000Y22670000D03*
X10200000Y24130000D03*
D22*
X28700000Y13000000D03*
X28700000Y15000000D03*
D15*
X24775000Y36000000D03*
X23225000Y36000000D03*
D25*
X6000000Y36375000D03*
X6000000Y35125000D03*
X6000000Y33875000D03*
X6000000Y32625000D03*
X6000000Y31375000D03*
X6000000Y30125000D03*
X6000000Y28875000D03*
X6000000Y27625000D03*
X6000000Y26375000D03*
X6000000Y25125000D03*
X6000000Y23875000D03*
X6000000Y22625000D03*
X6000000Y21375000D03*
X6000000Y20125000D03*
X6000000Y18875000D03*
X6000000Y17625000D03*
D26*
X3380000Y38750000D03*
X3380000Y15250000D03*
D27*
X28000000Y8500000D03*
X28000000Y5500000D03*
D28*
X25900000Y4900000D03*
X25900000Y7750000D03*
X25900000Y9250000D03*
D29*
X26875000Y10800000D03*
X26875000Y3250000D03*
X29075000Y3200000D03*
X29075000Y10800000D03*
D17*
X21000000Y3000000D03*
D24*
X11600000Y22670000D03*
X11600000Y24130000D03*
D15*
X24775000Y52000000D03*
X23225000Y52000000D03*
D18*
X13200000Y30925000D03*
X13200000Y32475000D03*
D30*
X26000000Y20050000D03*
X26000000Y28050000D03*
D31*
X15000000Y27250000D03*
X15000000Y26150000D03*
X15000000Y25050000D03*
X15000000Y23950000D03*
X15000000Y22850000D03*
X15000000Y21750000D03*
X15000000Y20650000D03*
X15000000Y19550000D03*
D32*
X25600000Y32750000D03*
D31*
X15000000Y18450000D03*
D33*
X16000000Y17250000D03*
D32*
X25600000Y17250000D03*
D34*
X16000000Y31850000D03*
%LPD*%
M02*
