M48
; DRILL file {KiCad 8.0.1} date 2026-05-11T13:07:18-0400
; FORMAT={-:-/ absolute / inch / decimal}
; #@! TF.CreationDate,2026-05-11T13:07:18-04:00
; #@! TF.GenerationSoftware,Kicad,Pcbnew,8.0.1
; #@! TF.FileFunction,Plated,1,2,PTH
FMAT,2
INCH
; #@! TA.AperFunction,Plated,PTH,ViaDrill
T1C0.0118
; #@! TA.AperFunction,Plated,PTH,ComponentDrill
T2C0.0236
%
G90
G05
T1
X0.0768Y1.7303
X0.0984Y1.9803
X0.126Y1.4311
X0.126Y1.3327
X0.126Y1.2028
X0.126Y1.0866
X0.126Y0.9882
X0.126Y0.8799
X0.126Y0.7913
X0.126Y0.689
X0.1555Y1.2579
X0.1614Y1.3839
X0.1634Y0.9429
X0.1654Y1.1378
X0.1654Y0.8386
X0.1831Y1.7323
X0.2146Y0.498
X0.2146Y0.3051
X0.2461Y1.5256
X0.2598Y0.628
X0.2992Y1.0394
X0.312Y0.9498
X0.315Y0.9055
X0.315Y0.7874
X0.315Y0.748
X0.315Y0.7087
X0.315Y0.6693
X0.3169Y1.1476
X0.3209Y1.7343
X0.3248Y1.0886
X0.3376Y1.2844
X0.3465Y1.5256
X0.3465Y1.0394
X0.3524Y0.9035
X0.3543Y0.7874
X0.3543Y0.748
X0.3543Y0.7087
X0.3543Y0.6693
X0.3563Y0.872
X0.3622Y1.2598
X0.3622Y1.1378
X0.3701Y0.6201
X0.3819Y1.1181
X0.3937Y0.7874
X0.3937Y0.748
X0.3937Y0.7087
X0.3937Y0.6693
X0.3996Y0.4961
X0.3996Y0.3031
X0.4114Y1.9882
X0.4213Y1.2441
X0.4252Y1.1673
X0.4291Y1.5256
X0.4291Y0.8661
X0.4331Y1.124
X0.439Y0.7933
X0.4449Y1.7362
X0.4606Y0.7598
X0.4646Y0.815
X0.4665Y1.002
X0.4783Y0.6378
X0.4843Y0.8681
X0.5118Y1.5256
X0.5197Y1.1929
X0.561Y1.7362
X0.563Y0.6535
X0.5827Y1.126
X0.6142Y0.4921
X0.6161Y1.4685
X0.6161Y0.3012
X0.6181Y1.5394
X0.6398Y1.5925
X0.6457Y0.9016
X0.6496Y1.4094
X0.6535Y1.1476
X0.6693Y1.8386
X0.6693Y1.5354
X0.6693Y1.4961
X0.6693Y1.4567
X0.6732Y0.9409
X0.6752Y0.8327
X0.7047Y1.2756
X0.7087Y1.5354
X0.7087Y1.4961
X0.7087Y1.4567
X0.7087Y1.4094
X0.7106Y1.189
X0.7106Y1.1024
X0.7106Y0.9941
X0.7106Y0.876
X0.7224Y1.9449
X0.7461Y1.9016
X0.748Y1.5354
X0.748Y1.4961
X0.748Y1.4567
X0.7657Y0.7283
X0.7815Y1.9272
X0.7874Y1.5354
X0.7874Y1.4961
X0.7874Y1.4567
X0.8051Y1.626
X0.8209Y1.9311
X0.8268Y1.5925
X0.8287Y1.752
X0.8307Y0.3031
X0.8366Y1.5433
X0.8366Y0.5138
X0.8386Y0.7264
X0.8504Y1.1004
X0.8504Y0.9272
X0.8524Y1.4961
X0.8622Y1.3268
X0.874Y2.0157
X0.8917Y1.2323
X0.9331Y1.7874
X0.937Y0.8701
X0.939Y0.4449
X0.9409Y1.0906
X0.9429Y0.7441
X0.9469Y1.5374
X0.9882Y1.7835
X0.9961Y0.0984
X1.0157Y2.0807
X1.0295Y2.0059
X1.0512Y1.5472
X1.0728Y1.876
X1.0768Y0.4744
X1.0787Y1.5197
X1.0787Y1.3819
X1.0866Y1.6791
X1.0965Y1.7677
X1.1043Y0.6575
X1.1043Y0.063
X1.1122Y0.9488
X1.1122Y0.7421
X1.1142Y1.1969
X1.1181Y1.3228
X1.126Y0.2756
T2
G00X0.8967Y1.9415
M15
G01X0.94Y1.9415
M16
G05
G00X0.8967Y1.6019
M15
G01X0.94Y1.6019
M16
G05
G00X1.06Y1.9415
M15
G01X1.1033Y1.9415
M16
G05
G00X1.06Y1.6019
M15
G01X1.1033Y1.6019
M16
G05
M30
